<?xml version="1.0" encoding="utf-8"?>
<!-- Generator: Adobe Illustrator 13.0.2, SVG Export Plug-In . SVG Version: 6.00 Build 14948)  -->
<!DOCTYPE svg PUBLIC "-//W3C//DTD SVG 1.1//EN" "http://www.w3.org/Graphics/SVG/1.1/DTD/svg11.dtd">
<svg version="1.1" id="Layer_1" xmlns="http://www.w3.org/2000/svg" xmlns:xlink="http://www.w3.org/1999/xlink" x="0px" y="0px"
	 width="500px" height="400px" viewBox="-6.195 -21.282 500 400" enable-background="new -6.195 -21.282 500 400"
	 xml:space="preserve">
<polygon id="3130700" fill="#666666" stroke="#FFFFFF" stroke-width="0.75"  points="390.788,168.828 390.788,168.423 390.704,166.557 
	390.683,165.983 390.64,164.562 390.619,164.37 390.619,163.988 390.598,163.564 390.575,163.16 390.555,162.736 390.47,160.294 
	390.448,159.488 390.428,159.233 390.428,159.062 390.406,158.681 390.406,158.66 390.258,154.605 390.237,154.265 390.237,153.799 
	390.193,152.992 390.193,152.801 390.174,152.292 390.174,152.164 390.152,151.74 390.13,151.357 390.109,150.869 390.109,150.529 
	390.089,149.999 390.089,149.935 390.089,149.893 390.089,149.85 390.066,149.723 390.066,149.51 390.066,149.468 389.982,146.899 
	389.961,146.475 389.918,145.647 389.918,145.584 389.918,145.498 389.918,145.435 389.896,144.84 389.896,144.734 389.875,144.437 
	389.854,143.842 389.834,143.206 389.812,142.696 389.812,142.654 389.791,142.4 389.771,141.592 389.771,141.188 389.747,140.85 
	389.726,139.958 389.323,139.958 388.92,139.979 387.073,140.042 386.798,140.042 385.546,140.086 384.568,140.128 384.145,140.149 
	380.727,140.255 380.62,140.255 380.323,140.255 380.217,140.255 379.198,140.297 379.049,140.297 379.007,140.297 375.928,140.404 
	375.845,140.404 375.144,140.424 374.592,140.446 373.826,140.467 373.637,140.467 373.445,140.488 372.872,140.488 
	372.851,140.488 371.386,140.553 371.131,140.553 371.025,140.553 369.518,140.574 367.076,140.658 367.034,140.658 366.334,140.68 
	366.271,140.68 364.742,140.743 364.274,140.743 364.125,140.764 363.107,140.787 362.448,140.807 362.321,140.807 362.257,140.807 
	361.854,140.807 361.536,140.828 361.473,140.828 357.46,140.934 357.419,140.934 356.717,140.955 356.696,140.955 354.212,141.019 
	353.916,141.019 353.342,141.041 352.705,141.062 351.921,141.083 351.962,143.164 351.962,143.312 352.047,145.392 
	352.047,145.541 352.068,145.965 352.068,146.772 352.089,147.579 352.089,147.6 352.11,148.406 352.174,150.869 352.26,153.692 
	352.26,153.735 352.26,153.841 352.28,154.712 352.28,154.753 352.302,155.75 352.324,156.558 352.344,156.962 352.344,156.982 
	352.344,157.365 352.365,158 352.408,159.062 352.408,159.233 352.429,159.827 352.429,160.336 352.45,160.634 352.854,160.634 
	353.235,160.613 353.342,160.613 353.66,160.613 354.85,160.57 354.997,160.57 355.635,160.549 356.44,160.527 357.228,160.506 
	357.248,160.506 359.604,160.443 362.002,160.379 362.047,160.379 362.448,160.358 362.492,160.358 362.704,160.336 
	362.789,160.336 362.831,160.336 362.852,160.336 363.553,160.336 363.638,160.315 364.04,160.315 364.38,160.294 365.209,160.272 
	365.25,160.272 365.994,160.251 366.779,160.23 366.865,160.23 367.225,160.209 367.374,160.209 367.543,160.209 367.904,160.188 
	367.946,160.209 368.032,160.209 368.35,160.188 369.433,160.167 369.54,160.146 369.984,160.146 370.048,160.124 370.791,160.124 
	371.131,160.103 371.556,160.103 371.556,160.4 371.576,160.931 371.599,161.738 371.641,163.351 371.662,164.158 371.683,164.985 
	371.747,165.813 371.83,167.427 371.852,168.255 371.875,168.637 371.875,169.061 371.896,169.444 371.896,169.889 372.278,169.869 
	372.469,169.869 373.913,169.826 374.062,169.826 375.123,169.783 375.907,169.783 376.714,169.741 378.285,169.699 
	379.091,169.676 379.792,169.656 379.897,169.635 381.49,169.572 382.021,169.549 382.658,169.528 383.21,169.508 383.295,169.508 
	384.229,169.465 384.633,169.444 386.245,169.38 390.174,169.274 390.406,169.274 390.811,169.252 "/>
<polygon id="3136540" fill="#666666" stroke="#FFFFFF" stroke-width="0.75"  points="417.401,147.302 417.401,147.239 417.36,147.09 417.23,146.899 
	417.188,146.814 417.146,146.772 416.998,146.602 416.488,146.178 416.383,146.05 416.213,145.817 416.149,145.647 416.128,145.498 
	416.064,145.201 416.021,144.797 416.086,144.183 416.276,143.736 416.404,143.439 416.446,142.95 416.404,142.761 416.341,142.633 
	416.298,142.569 416.213,142.42 416.19,142.378 416.149,142.356 416.021,142.229 415.979,142.208 415.959,142.187 415.936,142.167 
	415.895,142.144 415.767,142.038 415.724,142.016 415.597,141.975 415.385,141.912 415.278,141.848 415.13,141.763 415.045,141.72 
	415.003,141.699 414.938,141.636 414.896,141.614 414.833,141.529 414.79,141.465 414.77,141.422 414.727,141.38 414.642,141.147 
	414.621,140.955 414.663,140.764 414.747,140.488 414.982,140.042 415.003,139.682 414.982,139.449 414.938,139.342 
	414.875,139.257 414.515,138.939 414.323,138.727 414.089,138.515 413.983,138.302 413.963,138.175 413.963,138.153 
	413.963,138.111 413.963,138.09 413.963,138.005 413.983,137.877 413.983,137.834 414.025,137.792 414.111,137.581 414.303,137.39 
	414.407,137.262 414.472,137.177 414.599,136.986 414.621,136.964 414.621,136.943 414.663,136.859 414.685,136.773 
	414.706,136.667 414.706,136.54 414.727,136.498 414.685,136.201 414.578,135.798 414.515,134.863 414.388,134.481 413.921,133.759 
	413.771,133.42 413.708,133.038 413.686,132.826 413.686,132.805 413.771,132.528 413.963,132.23 414.132,132.062 414.175,132.04 
	414.217,132.019 414.239,132.019 414.323,132.019 414.43,132.062 414.938,132.167 415.216,132.083 415.385,131.827 415.406,131.616 
	415.385,131.552 415.257,131.297 415.003,131.084 414.727,130.958 414.388,130.915 414.047,130.958 412.519,131.212 
	412.306,131.169 412.158,131.084 412.073,131 411.945,130.872 411.818,130.596 411.734,130.235 411.818,129.727 411.839,129.683 
	412.2,129.046 412.306,128.835 412.349,128.558 412.349,128.431 412.328,128.197 412.2,127.921 412.094,127.646 412.052,127.561 
	411.861,127.072 411.861,127.009 411.818,126.732 411.883,126.521 411.903,126.478 411.945,126.435 412.138,126.33 411.967,126.181 
	411.712,125.99 411.607,125.905 411.5,125.799 411.458,125.586 411.437,125.29 411.437,125.183 411.5,124.843 411.712,124.738 
	411.798,124.674 412.392,124.674 412.477,124.738 412.477,124.843 412.477,125.077 412.285,125.565 412.18,125.883 412.604,126.202 
	413.069,125.926 413.432,125.714 413.645,125.501 413.793,125.247 413.836,124.886 413.686,124.27 413.517,123.973 413.305,123.74 
	413.069,123.612 412.624,123.528 412.073,123.592 412.03,123.592 411.67,123.569 411.521,123.505 411.479,123.485 411.458,123.463 
	410.948,123.167 410.757,122.997 410.609,122.869 410.333,122.571 410.184,122.253 410.162,122.042 410.227,121.893 
	410.354,121.808 410.8,121.553 411.032,121.362 411.203,121.128 411.287,120.831 411.244,120.555 410.969,120.046 410.863,119.558 
	410.885,119.366 411.117,118.815 411.117,118.794 411.14,118.518 411.117,118.305 411.055,118.093 411.055,118.072 411.012,117.923 
	410.991,117.795 410.948,117.499 410.991,117.371 411.055,117.244 411.308,116.904 411.394,116.776 411.437,116.649 
	411.458,116.437 411.437,116.246 411.331,116.012 411.182,115.822 410.885,115.588 410.714,115.503 410.629,115.481 
	410.564,115.481 410.502,115.461 410.312,115.481 409.887,115.672 409.653,115.694 409.525,115.652 409.186,115.461 
	409.122,115.439 408.782,115.334 408.443,115.312 407.869,115.228 407.741,115.164 407.7,115.143 407.573,115.014 407.425,114.803 
	407.382,114.739 407.234,114.463 407.211,114.378 407.234,114.293 407.361,114.103 407.722,113.805 408.082,113.402 
	408.145,113.274 408.231,113.104 408.272,112.977 408.272,112.871 408.272,112.68 408.209,112.34 408.188,112.255 407.934,111.491 
	407.869,111.364 407.7,111.214 407.487,111.13 407.211,111.109 407.084,111.13 406.936,111.214 406.788,111.406 406.744,111.491 
	406.681,112.191 406.554,112.998 406.468,113.231 406.405,113.295 406.362,113.317 406.32,113.338 406.298,113.338 406.215,113.338 
	406.066,113.338 406.001,113.338 405.938,113.317 405.874,113.295 405.79,113.274 405.769,113.274 405.726,113.253 405.663,113.189 
	405.577,113.126 405.322,112.871 405.301,112.828 405.28,112.807 405.173,112.68 405.152,112.637 405.133,112.617 404.92,112.382 
	404.876,112.382 404.792,112.319 404.601,112.234 404.283,112.106 404.219,112.042 404.008,111.64 403.899,111.193 403.921,110.981 
	403.963,110.685 403.985,110.557 404.048,110.409 404.197,110.218 404.324,110.005 404.431,109.814 404.474,109.645 
	404.452,109.475 404.431,109.304 404.346,109.134 404.262,109.007 404.135,108.923 403.581,108.71 403.455,108.625 403.306,108.477 
	403.285,108.456 403.241,108.434 403.05,108.137 403.01,108.052 402.966,107.946 402.883,107.712 402.838,107.5 402.838,107.288 
	402.902,107.055 402.987,106.906 403.518,106.247 403.625,106.014 403.73,105.568 403.71,105.356 403.71,105.335 403.688,105.271 
	403.667,105.207 403.667,105.186 403.667,105.165 403.581,104.932 403.496,104.804 403.05,104.443 402.987,104.401 402.838,104.273 
	402.712,104.104 402.584,103.913 402.542,103.637 402.104,103.637 401.168,103.68 399.279,103.743 398.727,103.743 398.706,103.743 
	398.388,103.785 397.964,103.785 396.16,103.849 396.138,103.849 394.779,103.913 393.972,103.934 393.612,103.955 393.188,103.976 
	392.783,103.976 392.443,103.998 392.401,103.998 392.212,103.998 392.189,103.998 392.062,104.019 392.041,104.019 
	391.977,104.019 391.214,104.041 390.788,104.061 389.176,104.104 389.195,104.91 389.239,105.738 389.281,106.545 389.344,108.179 
	389.366,109.007 389.43,110.62 389.472,111.724 389.516,112.553 389.536,113.062 389.938,113.041 389.982,114.59 389.982,114.675 
	390.385,114.654 390.385,115.481 391.214,115.439 391.255,116.267 392.041,116.225 392.084,117.053 392.678,117.032 
	392.763,117.032 392.869,117.032 392.89,117.541 392.89,117.838 393.293,117.838 394.142,117.795 394.354,117.774 394.502,117.774 
	394.589,119.409 394.589,119.876 394.589,120.216 394.419,120.216 393.782,120.237 393.378,120.257 392.996,120.279 
	392.657,120.279 392.146,120.3 391.829,120.321 391.214,120.344 389.771,120.386 389.726,120.386 389.494,120.386 388.984,120.407 
	388.687,120.428 388.177,120.449 387.647,120.428 387.286,120.3 387.201,120.173 387.073,119.896 387.031,119.833 386.586,119.664 
	386.055,119.239 385.609,118.963 385.354,118.836 385.035,118.603 384.972,118.539 384.548,118.348 384.504,118.348 
	384.484,118.327 384.166,118.305 384.08,118.284 383.91,118.327 383.23,118.327 383.189,118.327 383.083,118.305 383.041,118.327 
	382.997,118.369 382.913,118.412 382.807,118.39 382.7,118.348 382.489,118.348 381.895,118.369 381.575,118.412 381.3,118.453 
	381.193,118.497 380.578,118.624 380.152,118.729 379.983,118.772 379.856,118.815 379.452,118.921 379.262,118.921 
	378.879,118.942 378.667,118.879 378.562,118.815 378.518,118.794 378.391,118.688 378.242,118.688 378.137,118.645 
	377.818,118.497 377.797,118.497 377.69,118.412 377.415,118.199 377.371,118.177 377.117,117.944 376.926,117.859 376.523,117.753 
	375.992,117.71 375.801,117.774 375.78,117.774 375.314,117.838 375.27,117.859 375.016,118.008 374.592,118.263 374.294,118.348 
	374.124,118.305 373.785,118.177 373.742,118.156 373.571,118.093 373.509,118.03 372.978,118.051 372.915,118.093 372.639,118.072 
	372.532,117.944 372.469,117.902 372.446,117.902 372.32,117.859 371.896,117.817 371.493,117.732 371.448,117.71 371.386,117.69 
	371.152,117.668 370.834,117.69 370.495,117.69 370.495,117.795 370.559,119.388 370.559,119.558 370.559,119.791 370.601,121.021 
	370.516,121.021 370.516,121.447 370.516,121.533 370.516,121.829 370.559,122.424 370.559,122.636 370.559,123.039 
	370.559,123.125 370.559,123.188 370.579,123.315 370.579,123.358 370.622,124.249 370.622,125.077 370.643,125.883 
	370.686,127.519 370.705,127.667 370.813,130.766 370.834,131.573 370.877,133.207 370.898,134.014 370.94,134.842 370.962,135.669 
	370.982,136.498 371.003,137.283 371.131,140.553 371.386,140.553 372.851,140.488 372.872,140.488 373.445,140.488 
	373.637,140.467 373.826,140.467 374.592,140.446 375.144,140.424 375.845,140.404 375.928,140.404 379.007,140.297 
	379.049,140.297 379.198,140.297 380.217,140.255 380.323,140.255 380.62,140.255 380.727,140.255 384.145,140.149 384.568,140.128 
	385.546,140.086 386.798,140.042 387.073,140.042 388.92,139.979 389.323,139.958 389.726,139.958 389.747,140.85 389.771,141.188 
	389.771,141.592 389.791,142.4 389.812,142.654 389.812,142.696 389.834,143.206 389.854,143.842 389.875,144.437 389.896,144.734 
	389.896,144.84 389.918,145.435 389.918,145.498 389.918,145.584 389.918,145.647 389.961,146.475 389.982,146.899 390.066,149.468 
	390.066,149.51 390.066,149.723 390.089,149.85 390.089,149.893 390.089,149.935 390.089,149.999 390.109,150.529 390.109,150.869 
	390.13,151.357 390.152,151.74 390.174,152.164 390.174,152.292 390.193,152.801 390.193,152.992 390.237,153.799 390.237,154.265 
	390.258,154.605 390.724,154.584 390.916,154.584 391.255,154.563 391.318,154.563 391.829,154.541 395.034,154.435 
	395.798,154.414 396.605,154.393 397.815,154.329 398.196,154.329 399.004,154.287 399.407,154.265 399.79,154.245 400.617,154.202 
	402.224,154.139 404.621,154.032 405.024,154.01 406.617,153.947 407.02,153.947 408.782,153.884 408.867,153.862 409.018,153.862 
	409.42,153.841 410.587,153.777 411.798,153.735 413.199,153.672 413.41,153.672 414.217,153.629 414.303,153.629 414.407,153.608 
	414.558,153.608 414.599,153.608 414.875,153.608 415.003,153.608 415.342,153.587 416.658,153.544 416.637,153.353 
	416.637,153.311 416.572,153.162 416.213,152.44 416.128,152.058 416.128,152.016 416.128,151.824 416.128,151.803 416.169,151.654 
	416.362,151.167 416.404,150.891 416.404,150.7 416.404,150.658 416.362,150.551 416.213,150.083 415.936,149.616 415.872,149.362 
	415.872,149.319 415.872,149.299 415.872,149.277 415.852,149.235 415.895,149.044 415.915,148.958 416.021,148.768 
	416.086,148.704 416.128,148.682 416.149,148.662 416.19,148.64 416.19,148.619 416.255,148.598 416.298,148.577 416.808,148.406 
	416.829,148.406 416.849,148.386 417.04,148.258 417.084,148.216 417.125,148.173 417.188,148.13 417.23,148.046 417.274,147.96 
	417.338,147.876 417.38,147.727 417.423,147.473 "/>
<polygon id="3100001" fill="#666666" stroke="#FFFFFF" stroke-width="0.75"  points="242.638,171.014 242.638,170.271 242.638,166.981 
	242.659,165.559 242.659,165.283 242.638,162.098 241.895,162.098 241.873,162.098 241.853,162.078 239.666,162.078 
	239.432,162.078 238.943,162.078 238.753,162.078 237.862,162.055 237.267,162.055 235.017,162.055 234.741,162.055 
	234.273,162.055 233.87,162.055 233.276,162.055 233.085,162.055 233.021,162.055 232.872,162.055 232.809,162.055 232.49,162.055 
	232.49,161.845 232.49,161.738 232.49,161.652 232.49,161.228 232.49,160.527 232.49,158 232.47,157.959 232.47,157.196 
	232.47,156.875 232.47,156.367 232.47,156.304 232.49,156.134 232.49,156.112 232.47,153.48 232.47,153.183 232.47,153.056 
	232.47,152.44 232.47,152.121 232.47,150.721 232.47,149.468 232.47,149.191 232.47,148.471 232.49,147.96 232.49,147.854 
	232.49,147.515 232.49,146.708 232.49,145.095 232.49,143.078 232.49,142.611 231.918,142.611 231.939,138.981 231.939,138.557 
	231.959,137.857 231.959,136.095 231.981,135.734 232.002,135.33 232.024,134.163 232.024,133.759 232.044,132.931 232.044,132.867 
	232.066,131.254 232.087,131.105 232.087,129.62 232.087,128.028 232.024,127.156 232.044,126.351 232.044,125.756 232.024,124.356 
	232.024,123.973 232.044,123.145 231.748,123.145 231.429,123.145 231.408,122.954 231.408,122.146 231.386,121.617 
	231.386,120.321 231.386,120.173 231.386,119.706 231.386,113.402 231.386,110.281 231.472,103.7 230.941,103.7 230.877,103.7 
	230.877,103.297 230.834,100.835 230.856,100.24 230.856,98.054 230.856,96.631 230.877,96.1 230.856,94.742 230.856,94.72 
	230.877,94.636 230.877,94.594 230.877,94.53 230.877,94.508 230.856,93.15 230.856,92.874 230.834,89.095 230.834,88.012 
	230.834,86.611 230.834,85.465 230.834,85.04 230.834,84.255 234.974,84.298 234.953,82.09 234.974,80.54 234.953,79.861 
	234.995,74.554 234.995,74.427 234.995,64.811 234.359,64.79 234.359,64.004 234.359,63.07 234.359,60.756 234.379,56.872 
	234.379,56.85 234.401,45.323 233.764,45.323 233.764,44.495 233.786,43.668 233.786,42.903 233.786,41.671 233.786,38.764 
	233.786,37.957 233.807,37.935 233.786,36.004 233.807,33.138 230.581,33.117 230.325,33.117 227.649,33.096 227.417,33.096 
	224.317,33.074 222.641,33.053 220.263,33.053 220.136,33.053 219.753,33.053 219.372,33.053 219.329,33.053 216.442,33.053 
	216.315,33.074 216.187,33.074 214.574,33.053 212.323,33.053 211.41,33.032 209.034,33.01 206.592,32.99 205.764,33.01 
	205.042,32.99 205,32.99 202.899,32.99 202.666,32.969 201.179,32.99 200.967,32.969 199.46,32.947 195.49,32.883 191.988,32.842 
	191.945,32.842 191.881,32.862 191.839,32.842 183.475,32.756 180.864,32.734 179.611,32.734 179.378,32.734 177.679,32.713 
	177.446,32.713 175.77,32.693 172.182,32.607 166.641,32.353 164.455,32.311 164.243,32.311 159.849,32.225 158.808,32.205 
	157.428,32.162 157.195,32.162 146.156,31.885 145.965,31.885 144.054,31.843 142.887,31.8 142.801,31.8 142.633,31.8 
	140.744,31.758 138.005,31.673 137.219,31.652 137.134,31.652 134.013,31.567 132.336,31.504 128.346,31.397 127.581,31.355 
	126.499,31.333 119.854,31.1 114.547,30.909 114.505,30.909 106.713,30.633 106.056,30.612 105.801,30.612 103.466,30.527 
	99.369,30.378 99.327,30.378 99.306,30.378 98.604,30.357 96.482,30.272 96.461,30.272 94.763,30.208 93.362,30.124 90.836,30.039 
	86.824,29.87 86.76,29.87 84.935,29.805 82.323,29.7 80.646,29.594 79.627,29.551 77.102,29.508 76.804,36.79 76.528,43.284 
	76.528,43.54 76.315,48.507 76.295,49.123 76.252,50.036 76.252,50.206 76.188,51.288 76.188,51.33 75.913,57.529 75.594,65.32 
	75.53,66.487 75.36,70.925 75.339,71.072 75.318,71.539 75.126,75.998 75.148,76.21 75.042,77.866 75.042,78.057 75.042,78.544 
	74.957,80.158 74.957,80.179 74.936,80.562 74.893,81.347 74.788,84.319 74.766,84.637 74.745,85.381 74.745,85.444 74.724,85.614 
	74.724,85.826 74.724,85.848 74.702,85.889 74.702,86.124 74.702,86.146 74.702,86.187 74.659,86.888 74.659,87.058 74.512,90.306 
	74.49,90.814 74.448,91.961 74.384,93.574 74.321,95.23 74.277,96.08 74.277,96.228 74.257,96.525 74.107,100.155 74.087,100.495 
	74.001,102.469 73.875,105.441 73.854,105.823 73.81,106.693 73.81,107.203 73.747,108.413 73.705,109.962 73.662,110.62 
	73.641,111.279 73.641,111.385 73.599,112.319 73.576,112.701 73.365,118.177 73.344,118.751 73.301,119.558 73.132,123.082 
	73.132,123.612 73.11,123.612 73.11,123.889 73.025,126.011 73.004,126.032 73.004,126.181 72.792,130.427 72.792,130.639 
	72.728,132.062 72.707,132.083 72.685,132.805 72.601,135.204 72.579,135.734 72.538,136.562 72.538,136.583 72.367,140.616 
	72.367,140.68 72.325,141.529 72.898,141.549 73.576,141.571 73.79,141.592 74.087,141.592 75.7,141.678 75.743,141.678 
	76.485,141.699 78.459,141.804 78.884,141.804 79.648,141.826 80.456,141.869 84.446,141.996 84.977,142.016 92.343,142.313 
	93.999,142.4 95.569,142.442 96.016,142.442 98.711,142.547 99.751,142.547 100.367,142.59 101.089,142.633 101.173,142.633 
	103.551,142.717 113.104,143.014 113.167,143.014 113.868,143.036 113.932,143.036 114.547,143.058 114.738,143.078 
	116.289,143.121 116.352,143.121 117.094,143.164 117.138,143.164 117.88,143.185 117.923,143.185 118.007,143.185 118.05,143.185 
	118.666,143.206 118.751,143.206 119.472,143.228 119.536,143.228 120.279,143.248 120.343,143.248 121.065,143.27 121.15,143.292 
	121.892,143.292 121.977,143.312 122.657,143.312 122.784,143.333 123.462,143.333 123.591,143.354 125.84,143.396 126.117,143.418 
	126.626,143.439 127.263,143.461 127.412,143.461 130.85,143.545 132.209,143.566 133.992,143.652 134.099,143.652 134.12,143.652 
	134.523,143.652 134.905,143.672 136.539,143.715 137.771,143.736 138.514,143.758 138.556,143.758 138.938,143.758 
	141.974,143.842 142.271,143.863 142.313,143.863 142.971,143.885 145.943,143.949 146.007,143.949 146.56,143.97 146.813,143.97 
	146.984,143.97 147.324,143.97 148.49,144.012 149.319,144.012 149.425,144.012 149.446,144.012 149.488,144.034 150.19,144.055 
	152.97,144.119 155.242,144.161 156.027,144.183 155.73,158.363 155.667,161.292 155.518,167.766 155.454,170.25 155.454,171.248 
	155.348,175.747 155.284,178.19 155.305,178.381 155.242,180.249 155.242,180.758 155.242,180.842 155.242,181.459 155.092,187.232 
	155.092,187.593 155.008,191.33 154.987,192.135 154.88,196.85 154.817,200.289 160.548,200.416 161.08,200.416 162.883,200.457 
	163.754,200.479 164.136,200.479 164.943,200.5 165.176,200.521 165.283,200.521 166.196,200.543 167.681,200.564 172.84,200.67 
	172.883,200.67 174.835,200.689 176.428,200.734 176.895,200.734 180.949,200.798 181.734,200.818 181.989,200.818 182.053,200.818 
	183.007,200.84 183.561,200.84 184.896,200.861 185.683,200.861 186.957,200.882 187.275,200.882 188.888,200.902 190.31,200.925 
	190.522,200.925 191.288,200.947 191.499,200.947 191.86,200.947 192.285,200.947 193.877,200.988 194.981,200.988 195.278,201.01 
	196.87,201.03 198.271,201.03 200.076,201.053 201.052,201.074 202.091,201.096 204.915,201.117 209.437,201.137 209.671,201.137 
	209.947,201.158 210.519,201.158 210.752,201.158 210.901,201.158 211.263,201.179 212.876,201.179 213.852,201.179 
	214.468,201.201 214.49,201.201 215.295,201.201 216.378,201.222 216.634,201.222 217.801,201.222 218.458,201.222 219.245,201.242 
	220.051,201.242 220.179,201.242 221.197,201.242 221.622,201.242 221.686,201.242 221.983,201.264 222.896,201.264 
	223.235,201.264 224.042,201.264 224.785,201.264 225.315,201.264 228.839,201.285 229.561,201.285 232.044,201.307 
	232.129,201.285 232.724,201.307 233.51,201.307 233.658,201.307 233.658,200.5 233.68,199.694 233.68,198.888 233.658,196.445 
	233.658,196.382 233.658,195.66 233.658,195.215 233.658,194.791 233.637,194.748 233.637,194.365 233.637,193.177 233.637,192.349 
	233.637,191.521 233.616,188.251 233.616,187.785 233.616,186.574 233.616,186.234 233.616,186.193 233.616,185.853 
	233.616,185.704 233.616,185.386 233.552,183.243 233.531,182.095 233.51,181.734 234.783,181.715 235.25,181.691 237.648,181.671 
	237.862,181.671 237.862,178.401 237.862,177.595 237.862,176.768 242.659,176.788 242.638,171.886 242.638,171.204 "/>
<polygon id="3100002" fill="#666666" stroke="#FFFFFF" stroke-width="0.75"  points="341.879,125.862 341.879,125.565 341.879,125.48 
	341.879,125.396 341.879,125.353 341.879,125.268 341.857,124.694 341.794,121.787 338.864,121.85 337.4,121.913 337.4,121.659 
	337.378,121.086 337.378,120.449 337.357,120.386 337.314,118.645 337.314,118.603 337.314,117.732 337.314,117.71 337.294,117.583 
	337.294,117.053 337.294,116.968 337.229,114.506 336.784,114.527 335.998,114.547 335.192,114.569 334.386,114.611 
	333.557,114.633 331.987,114.675 331.88,114.675 331.605,114.675 329.694,114.739 329.715,115.545 329.651,115.545 328.059,115.609 
	327.253,115.609 326.021,115.652 325.618,115.672 324.812,115.694 323.24,115.736 323.24,116.543 322.795,116.564 322.413,116.585 
	321.924,116.606 320.821,116.628 320.842,117.457 317.636,117.52 317.104,117.541 316.852,117.541 313.582,117.583 312.881,117.604 
	312.86,117.244 312.816,114.356 312.797,112.743 312.775,111.47 312.775,111.109 312.732,109.496 312.732,109.39 312.712,108.265 
	312.712,107.861 312.69,106.247 312.69,106.162 312.626,103 312.436,103 312.393,100.559 312.373,99.73 312.351,98.118 
	312.266,93.256 312.203,89.986 312.203,89.965 312.203,89.881 312.181,89.181 312.181,88.374 312.117,84.319 312.096,83.491 
	311.883,83.512 304.645,83.64 301.461,83.682 300.653,83.703 297.491,83.746 292.907,83.81 291.822,83.831 290.167,83.852 
	289.509,83.874 289.021,83.874 287.768,83.895 283.416,83.937 282.992,83.937 279.022,83.979 278.705,84.001 278.237,84.001 
	273.886,84.043 273.843,84.043 273.396,84.064 271.806,84.085 268.323,84.149 267.156,84.17 264.375,84.192 263.802,84.192 
	261.444,84.213 259.471,84.234 259.26,84.234 257.264,84.255 257.137,84.255 256.244,84.255 255.777,84.255 254.759,84.255 
	252.636,84.276 252.147,84.298 242.977,84.319 242.787,84.319 242.426,84.319 240.876,84.319 234.974,84.298 230.834,84.255 
	230.834,85.04 230.834,85.465 230.834,86.611 230.834,88.012 230.834,89.095 230.856,92.874 230.856,93.15 230.877,94.508 
	230.877,94.53 230.877,94.594 230.877,94.636 230.856,94.72 230.856,94.742 230.877,96.1 230.856,96.631 230.856,98.054 
	230.856,100.24 230.834,100.835 230.877,103.297 230.877,103.7 230.941,103.7 231.472,103.7 231.386,110.281 231.386,113.402 
	231.386,119.706 231.386,120.173 231.386,120.321 231.386,121.617 231.408,122.146 231.408,122.954 231.429,123.145 
	231.748,123.145 232.044,123.145 232.024,123.973 232.024,124.356 232.044,125.756 232.044,126.351 232.024,127.156 
	232.087,128.028 232.087,129.62 232.087,131.105 232.066,131.254 232.044,132.867 232.044,132.931 232.024,133.759 232.024,134.163 
	232.002,135.33 231.981,135.734 231.959,136.095 231.959,137.857 231.939,138.557 231.939,138.981 231.918,142.611 232.49,142.611 
	232.49,143.078 232.49,145.095 232.49,146.708 232.49,147.515 232.49,147.854 232.49,147.96 232.47,148.471 232.47,149.191 
	232.47,149.468 232.47,150.721 232.47,152.121 232.47,152.44 232.47,153.056 232.47,153.183 232.47,153.48 232.49,156.112 
	232.49,156.134 232.47,156.304 232.47,156.367 232.47,156.875 232.47,157.196 232.47,157.959 232.49,158 232.49,160.527 
	232.49,161.228 232.49,161.652 232.49,161.738 232.49,161.845 232.49,162.055 232.809,162.055 232.872,162.055 233.021,162.055 
	233.085,162.055 233.276,162.055 233.87,162.055 234.273,162.055 234.741,162.055 235.017,162.055 237.267,162.055 237.862,162.055 
	238.753,162.078 238.943,162.078 239.432,162.078 239.666,162.078 241.853,162.078 241.873,162.098 241.895,162.098 
	242.638,162.098 242.659,165.283 242.659,165.559 242.638,166.981 242.638,170.271 242.638,171.014 242.638,171.204 
	242.638,171.886 242.659,176.788 237.862,176.768 237.862,177.595 237.862,178.401 237.862,181.671 237.648,181.671 235.25,181.691 
	234.783,181.715 233.51,181.734 233.531,182.095 233.552,183.243 233.616,185.386 233.616,185.704 233.616,185.853 233.616,186.193 
	233.616,186.234 233.616,186.574 233.616,187.785 233.616,188.251 233.637,191.521 233.637,192.349 233.637,193.177 
	233.637,194.365 233.637,194.748 233.658,194.791 233.658,195.215 233.658,195.66 233.658,196.382 233.658,196.445 233.68,198.888 
	233.68,199.694 233.658,200.5 233.658,201.307 233.786,201.307 233.892,201.307 234.315,201.307 238.457,201.307 242.255,201.328 
	242.446,201.307 244.06,201.307 244.23,201.307 244.824,201.307 245.822,201.307 248.05,201.307 248.221,201.307 249.792,201.307 
	251.384,201.307 251.533,201.285 251.872,201.307 252.191,201.307 252.615,201.285 252.849,201.285 252.997,201.285 
	253.252,201.285 253.761,201.285 257.646,201.264 257.751,201.264 262.338,201.242 262.442,201.242 263.016,201.242 
	263.123,201.242 263.188,201.242 263.356,201.242 263.909,201.242 266.328,201.201 266.795,201.222 267.135,201.222 
	267.177,201.222 268.747,201.201 271.911,201.179 271.976,201.179 272.144,201.179 272.293,201.179 273.523,201.158 
	273.672,201.158 275.116,201.158 275.923,201.137 276.284,201.137 276.368,201.137 276.708,201.137 277.091,201.137 
	279.086,201.117 279.489,201.096 280.68,201.096 281.463,201.096 281.507,201.096 283.438,201.053 283.502,201.053 284.648,201.053 
	285.476,201.03 285.497,201.03 285.965,201.03 286.262,201.03 286.305,201.03 287.068,201.03 290.932,200.967 290.995,200.967 
	291.335,200.967 291.909,200.967 293.756,200.947 293.861,200.947 295.792,200.925 295.92,200.925 296.6,200.902 297.32,200.882 
	297.406,200.882 297.449,200.882 298.19,200.882 298.319,200.861 298.998,200.861 299.041,200.861 299.55,200.84 300.59,200.84 
	300.696,200.84 300.718,200.84 301.566,200.818 302.33,200.818 302.946,200.818 303.688,200.798 304.539,200.776 304.708,200.776 
	305.177,200.776 305.239,200.776 305.325,200.776 305.473,200.776 305.919,200.756 307.978,200.734 308.721,200.713 
	310.101,200.689 315.11,200.586 315.344,200.586 316.129,200.586 317.68,200.543 318.529,200.521 319.123,200.521 319.42,200.521 
	320.077,200.5 320.715,200.5 322.499,200.479 323.028,200.457 323.516,200.437 323.814,200.437 324.6,200.416 324.705,200.437 
	324.728,200.437 324.918,200.416 326.128,200.393 326.297,200.393 327.911,200.374 329.63,200.33 331.987,200.267 332.772,200.267 
	333.6,200.245 334.301,200.225 334.279,198.271 334.279,198.103 334.215,195.341 334.173,192.899 334.151,192.306 334.151,192.072 
	334.131,190.863 334.131,190.82 334.109,190.439 334.109,190.247 334.109,190.184 334.087,189.631 334.087,189.229 334.067,188.931 
	334.067,188.804 334.067,188.507 334.067,188.316 334.067,188.272 334.025,186.023 333.939,183.092 333.939,182.562 
	333.897,180.652 333.749,180.672 333.706,179.018 333.706,178.634 333.685,178.211 333.685,177.766 333.663,177.404 
	333.663,176.874 333.643,176.576 333.643,176.194 333.62,175.77 333.62,175.536 333.62,174.942 333.6,174.411 333.6,174.135 
	333.535,172.246 333.515,170.887 333.452,168.447 333.408,166.812 333.388,166.005 333.367,165.176 333.367,164.899 
	333.345,164.498 333.324,163.564 333.281,161.101 333.238,161.101 333.197,159.445 333.197,159.275 333.176,158.597 
	333.153,158.065 333.153,157.854 333.133,157.449 333.133,157.045 333.111,156.219 333.069,154.265 333.069,154.223 
	333.069,154.202 332.985,151.357 332.985,150.869 332.962,150.529 332.962,149.723 332.877,146.814 332.877,146.793 
	332.877,146.454 332.751,141.592 332.687,141.592 332.581,137.495 332.538,135.881 332.538,135.076 332.518,134.459 332.877,134.12 
	333.111,133.887 333.197,133.822 333.238,133.78 333.685,133.356 333.493,133.081 333.643,132.953 333.771,132.826 334.047,132.592 
	335.022,130.958 335.382,130.618 335.553,130.448 335.658,130.277 335.786,130.172 335.894,130.107 336.021,130.087 
	336.125,130.023 336.827,129.471 337.103,129.238 338.016,128.197 338.439,127.751 339.013,127.306 339.183,127.497 
	339.501,127.115 339.417,126.923 339.523,126.86 339.735,126.775 339.799,126.754 339.97,126.669 340.054,126.647 340.074,126.627 
	340.074,126.69 340.158,126.839 340.436,126.818 340.668,126.732 341.03,126.562 341.115,126.542 341.283,126.435 341.391,126.372 
	341.602,126.393 341.9,126.16 "/>
<polygon id="3100003" fill="#666666" stroke="#FFFFFF" stroke-width="0.75"  points="404.621,97.161 404.537,96.95 404.516,96.928 404.41,96.78 
	404.367,96.738 404.155,96.546 403.963,96.44 403.921,96.419 403.391,96.292 403.199,96.228 402.987,96.08 402.966,96.058 
	402.859,95.931 402.796,95.867 402.796,95.846 402.732,95.718 402.732,95.697 402.712,95.676 402.669,95.485 402.647,95.463 
	402.647,95.422 402.647,95.399 402.647,95.315 402.754,94.806 402.754,94.763 402.732,94.55 402.627,94.297 402.499,94.105 
	402.478,94.063 402.372,93.978 402.351,93.957 402.287,93.914 402.081,93.787 401.764,93.659 401.699,93.617 401.572,93.532 
	401.423,93.384 401.338,93.278 401.274,93.235 401.254,93.192 401.211,93.128 401.168,93.064 401.105,92.895 401.063,92.747 
	401.02,92.343 400.956,92.173 400.809,91.939 400.553,91.664 400.51,91.622 400.489,91.579 400.385,91.409 400.385,91.261 
	400.385,91.218 400.385,91.154 400.404,91.112 400.426,91.07 400.489,90.942 400.51,90.921 400.681,90.814 401.105,90.645 
	401.168,90.623 401.254,90.54 401.274,90.54 401.274,90.518 401.36,90.348 401.382,90.306 401.402,90.156 401.402,90.093 
	401.382,90.009 401.382,89.945 401.338,89.902 401.063,89.393 401.02,89.16 401.042,88.989 401.085,88.904 401.296,88.628 
	401.36,88.543 401.445,88.353 401.487,88.161 401.594,87.822 401.594,87.545 401.572,87.439 401.445,87.312 401.423,87.291 
	401.402,87.27 401.296,87.227 401.063,87.1 401.042,87.1 400.51,87.037 400.426,87.015 400.32,87.015 400.257,87.037 399.958,87.1 
	399.704,87.227 399.662,87.249 399.576,87.27 399.535,87.27 399.3,87.249 399.216,87.227 399.173,87.185 399.089,87.1 
	399.024,87.037 398.982,86.973 398.962,86.845 398.962,86.803 399.004,86.675 399.046,86.569 399.237,86.208 399.26,86.081 
	399.279,85.954 399.216,85.805 399.067,85.614 398.791,85.487 398.324,85.465 397.942,85.635 397.857,85.784 397.752,86.039 
	397.708,86.146 397.708,86.165 397.688,86.187 397.623,86.272 397.562,86.315 397.518,86.315 397.412,86.336 397.37,86.336 
	397.348,86.336 397.325,86.315 397.136,86.251 397.094,86.229 396.986,86.146 396.944,86.102 396.923,86.081 396.902,86.06 
	396.881,86.039 396.859,85.997 396.859,85.954 396.84,85.912 396.84,85.889 396.84,85.657 396.966,85.36 397.029,85.296 
	397.412,84.977 397.562,84.744 397.582,84.701 397.645,84.552 397.623,84.362 397.538,84.149 397.453,84.043 397.39,84.001 
	397.178,83.831 396.923,83.746 396.562,83.725 396.265,83.852 396.201,83.937 396.011,83.895 395.989,83.895 395.945,83.874 
	395.862,83.852 395.67,83.725 395.543,83.576 395.479,83.448 395.374,83.194 395.224,82.727 395.183,82.302 395.162,82.175 
	395.162,81.963 395.247,81.538 395.288,81.453 395.332,81.347 395.332,81.326 395.332,81.304 395.352,81.283 395.438,81.113 
	395.586,80.689 395.629,80.307 395.607,80.265 395.564,79.903 395.501,79.734 395.438,79.627 395.352,79.458 395.247,79.33 
	395.056,79.182 394.779,79.076 394.206,78.97 394.163,78.97 394.142,78.97 393.951,78.863 393.909,78.842 393.761,78.736 
	393.612,78.524 393.463,78.141 393.357,77.951 393.145,77.76 393.081,77.696 393.039,77.674 392.911,77.59 392.571,77.399 
	392.401,77.229 392.381,77.208 392.359,77.186 392.359,77.165 392.146,76.869 392.062,76.613 392.062,76.571 392.041,76.55 
	392.02,76.315 392.02,76.274 392.02,76.23 392.062,76.083 392.104,75.786 392.125,75.743 392.104,75.615 392.104,75.594 
	392.084,75.489 392.084,75.402 392.084,75.361 392.062,75.297 392.041,75.255 392.02,75.191 392.02,75.169 391.998,75.106 
	391.936,75.021 391.914,74.979 391.617,74.618 391.595,74.597 391.573,74.554 391.553,74.427 391.617,74.236 391.659,74.172 
	391.68,74.172 392.146,74.023 392.252,74.002 392.381,73.981 392.508,73.938 392.636,73.79 392.657,73.79 392.678,73.769 
	392.72,73.705 392.996,73.302 393.018,73.195 393.018,73.089 392.934,72.961 392.911,72.961 392.869,72.898 392.72,72.729 
	392.742,72.664 392.763,72.622 392.763,72.559 392.783,72.177 392.72,71.9 392.614,71.646 392.422,71.349 392.189,71.115 
	391.553,70.733 386.288,70.902 385.354,70.925 384.761,70.945 383.571,70.966 381.979,71.03 381.533,71.051 380.365,71.094 
	377.245,71.179 376.566,71.2 376.354,71.2 376.375,71.582 376.395,71.986 375.419,72.006 374.951,72.028 374.931,72.028 
	373.998,72.049 373.423,72.07 373.402,72.07 372.426,72.113 372.404,72.113 371.852,72.113 371.11,72.155 370.834,72.155 
	370.813,72.155 370.451,72.177 370.324,72.177 370.304,72.177 370.155,72.177 369.199,72.219 366.801,72.283 366.738,72.283 
	366.524,72.304 365.081,72.347 364.401,72.347 364.274,67.485 364.211,65.745 364.189,65.404 364.147,63.771 364.147,63.538 
	364.125,62.624 364.211,62.624 364.189,62.221 364.147,60.989 364.084,59.376 364.062,57.763 363.977,55.321 363.894,52.88 
	363.872,52.074 363.808,49.399 363.766,48.019 363.722,47.234 363.658,45.216 363.617,44.495 363.382,44.474 363.255,44.474 
	363.191,44.453 363.022,44.41 362.896,44.283 362.13,44.071 361.579,43.965 361.536,43.965 361.324,43.965 361.005,44.028 
	360.772,44.113 360.326,44.177 360.114,44.156 359.689,44.177 358.903,44.071 358.883,44.071 358.883,44.049 358.818,43.986 
	358.754,43.922 358.754,43.9 358.648,43.688 358.648,43.561 358.628,43.519 358.607,43.476 358.607,43.455 358.585,43.434 
	358.458,43.265 358.395,43.158 358.373,43.115 358.31,43.073 358.054,42.775 357.65,42.542 357.523,42.457 357.374,42.415 
	357.184,42.372 356.907,42.372 356.548,42.287 356.484,42.287 356.018,42.267 355.847,42.223 355.613,42.076 355.55,41.99 
	355.486,41.863 355.445,41.502 355.445,41.46 355.423,41.438 355.4,41.332 355.4,41.311 355.273,41.035 355.253,40.95 
	355.253,40.165 355.21,40.058 355.21,40.037 355.146,40.016 354.913,39.889 354.657,39.74 354.573,39.698 354.551,39.698 
	354.402,39.655 353.979,39.528 353.936,39.528 353.872,39.528 353.852,39.528 353.66,39.612 353.64,39.634 353.193,39.719 
	352.854,39.655 352.747,39.655 352.684,39.634 352.28,39.57 351.834,39.082 351.771,39.018 351.729,38.997 351.622,38.933 
	351.58,38.912 351.495,38.933 351.41,39.018 351.134,39.167 351.093,39.188 350.88,39.251 350.795,39.294 350.772,39.315 
	350.709,39.4 350.625,39.464 350.412,39.549 350.2,39.612 349.457,39.698 349.373,39.677 349.139,39.549 349.075,39.507 
	348.799,39.251 348.734,39.124 348.035,39.209 347.823,39.167 347.632,39.04 347.609,39.018 347.59,39.018 347.482,38.997 
	347.462,38.997 347.441,38.997 347.398,39.018 347.378,39.018 347.271,39.04 347.25,39.061 347.228,39.061 347.102,39.146 
	346.847,39.4 346.782,39.57 346.761,39.655 346.506,39.952 346.506,39.974 346.229,40.208 346.103,40.271 345.7,40.292 
	345.53,40.25 345.424,40.165 345.296,40.123 344.936,40.058 344.361,40.08 344.086,40.016 343.896,39.931 343.769,39.825 
	343.703,39.719 343.535,39.655 343.089,39.931 342.643,40.08 342.559,40.101 342.431,40.143 342.112,40.208 341.857,40.271 
	341.815,40.271 341.221,40.313 340.712,40.208 339.989,39.995 339.692,39.868 339.523,39.782 339.501,39.761 339.183,39.761 
	338.949,39.846 338.864,39.868 338.821,39.868 338.674,39.952 338.525,40.016 338.228,40.186 337.76,40.398 337.612,40.462 
	337.484,40.504 337.314,40.589 337.229,40.61 336.891,40.674 336.148,40.737 335.553,40.674 334.768,40.484 334.746,40.484 
	333.535,40.398 333.408,40.44 332.962,40.44 332.559,40.419 331.987,40.229 331.521,39.995 331.456,39.974 331.307,39.931 
	330.799,39.782 330.436,39.464 330.331,39.4 330.119,39.4 330.097,39.4 330.012,39.422 329.715,39.464 329.651,39.464 
	329.523,39.507 329.375,39.549 329.143,39.634 328.825,39.761 328.569,39.909 328.442,39.995 328.379,40.25 328.379,40.334 
	328.442,40.484 328.421,40.61 328.312,40.843 328.271,41.311 328.081,41.821 327.953,42.33 327.89,42.457 327.72,42.647 
	327.296,43.392 327.146,43.604 326.87,43.9 326.658,43.986 326.638,43.986 326.596,44.049 326.573,44.071 326.191,44.559 
	326.043,44.708 325.49,45.068 325.362,45.09 325.024,45.132 324.387,45.068 323.771,45.344 323.453,45.451 323.368,45.472 
	323.24,45.408 322.943,45.535 322.773,45.514 322.031,45.429 321.946,45.344 321.903,45.344 321.818,45.302 321.777,45.281 
	321.756,45.259 321.647,45.238 321.562,45.216 321.521,45.216 321.352,45.195 321.16,45.09 321.011,44.984 320.948,44.686 
	320.884,44.517 320.693,44.304 320.057,43.794 319.844,43.709 319.568,43.519 319.143,43.009 319.016,42.903 318.21,42.372 
	318.146,42.33 317.763,41.693 317.403,41.29 317.339,41.29 317.149,41.332 316.723,41.46 316.555,41.481 316.406,41.46 
	315.641,41.227 315.046,40.95 314.771,40.802 314.409,40.61 314.219,40.484 314.133,40.356 313.965,40.208 313.941,40.208 
	313.901,40.165 313.284,39.761 313.156,39.57 313.094,39.528 313.03,39.507 312.816,39.443 312.414,39.464 311.928,39.422 
	311.226,39.146 310.715,39.018 310.312,38.912 310.058,38.807 309.909,38.7 309.781,38.594 309.739,38.53 309.633,38.318 
	309.55,38.19 309.378,38.02 309.209,37.915 309.146,37.893 309.124,37.871 309.06,37.851 308.869,37.724 308.721,37.66 
	308.127,37.404 308.02,37.362 307.553,37.066 307.023,36.854 306.683,36.662 306.151,36.343 305.919,36.322 305.897,36.322 
	305.897,36.343 305.728,36.365 305.601,36.492 305.473,36.535 305.388,36.556 305.197,36.492 305.133,36.428 305.069,36.173 
	305.027,36.109 304.857,36.004 304.604,35.729 304.476,35.665 304.241,35.494 303.752,34.603 303.266,33.796 303.053,33.245 
	302.926,32.649 302.904,32.649 301.036,32.693 300.23,32.713 300.06,32.693 296.217,32.756 296.133,32.756 294.519,32.777 
	293.012,32.819 292.184,32.819 292.12,32.819 290.613,32.842 289.701,32.862 288.192,32.883 287.194,32.883 286.602,32.905 
	286.473,32.883 285.814,32.905 284.861,32.905 284.074,32.926 282.525,32.947 281.805,32.947 281.633,32.947 280.085,32.969 
	279.277,32.969 279.213,32.969 278.534,32.969 277.006,32.99 276.879,32.99 276.391,32.99 275.966,32.99 275.287,33.01 
	274.607,33.032 272.993,33.032 272.187,33.032 271.848,33.032 270.829,33.053 270.468,33.053 268.409,33.053 267.538,33.074 
	267.453,33.074 267.325,33.074 266.456,33.074 265.628,33.096 263.377,33.117 263.229,33.096 262.571,33.096 262.442,33.096 
	260.81,33.117 260.767,33.117 259.387,33.138 256.012,33.138 255.29,33.16 254.101,33.16 254.016,33.138 253.294,33.16 
	252.976,33.16 252.317,33.16 251.277,33.138 251.193,33.16 250.492,33.16 249.983,33.16 249.876,33.16 249.621,33.16 249.112,33.16 
	247.966,33.16 247.563,33.16 247.159,33.16 246.841,33.16 246.354,33.16 245.185,33.16 244.803,33.16 243.89,33.16 243.869,33.16 
	243.444,33.138 243.38,33.138 241.682,33.138 241.534,33.138 240.747,33.138 240.473,33.138 237.012,33.117 236.736,33.117 
	236.715,33.117 233.807,33.138 233.786,36.004 233.807,37.935 233.786,37.957 233.786,38.764 233.786,41.671 233.786,42.903 
	233.786,43.668 233.764,44.495 233.764,45.323 234.401,45.323 234.379,56.85 234.379,56.872 234.359,60.756 234.359,63.07 
	234.359,64.004 234.359,64.79 234.995,64.811 234.995,74.427 234.995,74.554 234.953,79.861 234.974,80.54 234.953,82.09 
	234.974,84.298 240.876,84.319 242.426,84.319 242.787,84.319 242.977,84.319 252.147,84.298 252.636,84.276 254.759,84.255 
	255.777,84.255 256.244,84.255 257.137,84.255 257.264,84.255 259.26,84.234 259.471,84.234 261.444,84.213 263.802,84.192 
	264.375,84.192 267.156,84.17 268.323,84.149 271.806,84.085 273.396,84.064 273.843,84.043 273.886,84.043 278.237,84.001 
	278.705,84.001 279.022,83.979 282.992,83.937 283.416,83.937 287.768,83.895 289.021,83.874 289.509,83.874 290.167,83.852 
	291.822,83.831 292.907,83.81 297.491,83.746 300.653,83.703 301.461,83.682 304.645,83.64 311.883,83.512 312.096,83.491 
	312.117,84.319 312.181,88.374 312.181,89.181 312.203,89.881 312.203,89.965 312.203,89.986 312.266,93.256 312.351,98.118 
	312.373,99.73 312.393,100.559 312.436,103 312.626,103 312.69,106.162 312.69,106.247 312.712,107.861 312.712,108.265 
	312.732,109.39 312.732,109.496 312.775,111.109 312.775,111.47 312.797,112.743 312.816,114.356 312.86,117.244 312.881,117.604 
	313.582,117.583 316.852,117.541 317.104,117.541 317.636,117.52 320.842,117.457 320.821,116.628 321.924,116.606 322.413,116.585 
	322.795,116.564 323.24,116.543 323.24,115.736 324.812,115.694 325.618,115.672 326.021,115.652 327.253,115.609 328.059,115.609 
	329.651,115.545 329.715,115.545 329.694,114.739 331.605,114.675 331.88,114.675 331.987,114.675 333.557,114.633 334.386,114.611 
	335.192,114.569 335.998,114.547 336.784,114.527 337.229,114.506 337.294,116.968 337.294,117.053 337.294,117.583 337.314,117.71 
	337.314,117.732 337.314,118.603 337.314,118.645 337.357,120.386 337.378,120.449 337.378,121.086 337.4,121.659 337.4,121.913 
	338.864,121.85 341.794,121.787 341.857,124.694 341.879,125.268 341.9,125.247 341.984,125.226 342.048,125.247 342.452,125.183 
	342.771,125.098 343.131,124.95 343.959,124.376 344.044,124.291 344.574,123.909 344.85,123.655 345,123.569 345.339,123.485 
	346.103,123.336 346.571,123.358 346.888,123.336 347.781,123.167 347.992,123.103 348.607,122.72 348.926,122.657 348.99,122.594 
	349.393,122.38 349.647,122.317 350.2,122.126 350.391,122.02 350.582,121.808 350.646,121.703 350.709,121.659 351.263,121.533 
	351.368,121.469 351.368,121.553 351.58,121.575 351.793,121.68 351.878,121.744 352.026,121.808 352.174,121.871 352.408,121.913 
	352.642,121.871 352.959,121.68 353.427,121.766 353.64,121.871 353.768,122.105 354.044,122.233 354.064,122.233 354.212,122.253 
	354.53,122.36 354.701,122.36 354.786,122.36 355.082,122.38 355.316,122.36 356.166,122.36 356.229,122.338 356.484,122.317 
	356.675,122.338 356.93,122.296 357.078,122.233 357.143,122.253 357.184,122.253 357.778,122.063 357.821,122 357.97,121.956 
	358.31,121.893 358.648,122.042 359.116,122.36 359.18,122.36 359.477,122.36 359.647,122.317 359.879,122.168 360.347,122.02 
	360.559,122.146 360.964,122.063 360.984,122.042 361.153,121.956 361.196,121.871 361.303,121.808 361.494,121.829 
	361.536,121.787 361.579,121.703 361.62,121.659 362.002,121.638 362.109,121.68 362.47,121.617 362.66,121.575 362.769,121.533 
	363.107,121.213 363.276,121.044 363.298,120.938 363.341,120.874 363.744,120.598 363.894,120.491 363.977,120.428 364.169,120.3 
	364.487,120.194 364.891,120.194 365.399,120.13 365.527,120.13 365.78,120.237 365.867,120.237 366.163,120.11 366.292,120.11 
	366.567,120.004 367.119,119.452 367.374,119.091 367.417,119.028 367.67,118.794 367.926,118.603 368.097,118.518 368.286,118.39 
	368.839,118.177 368.881,118.135 369.348,117.795 369.581,117.71 369.879,117.647 370.495,117.625 370.495,117.69 370.834,117.69 
	371.152,117.668 371.386,117.69 371.448,117.71 371.493,117.732 371.896,117.817 372.32,117.859 372.446,117.902 372.469,117.902 
	372.532,117.944 372.639,118.072 372.915,118.093 372.978,118.051 373.509,118.03 373.571,118.093 373.742,118.156 373.785,118.177 
	374.124,118.305 374.294,118.348 374.592,118.263 375.016,118.008 375.27,117.859 375.314,117.838 375.78,117.774 375.801,117.774 
	375.992,117.71 376.523,117.753 376.926,117.859 377.117,117.944 377.371,118.177 377.415,118.199 377.69,118.412 377.797,118.497 
	377.818,118.497 378.137,118.645 378.242,118.688 378.391,118.688 378.518,118.794 378.562,118.815 378.667,118.879 
	378.879,118.942 379.262,118.921 379.452,118.921 379.856,118.815 379.983,118.772 380.152,118.729 380.578,118.624 
	381.193,118.497 381.3,118.453 381.575,118.412 381.895,118.369 382.489,118.348 382.7,118.348 382.807,118.39 382.913,118.412 
	382.997,118.369 383.041,118.327 383.083,118.305 383.189,118.327 383.23,118.327 383.91,118.327 384.08,118.284 384.166,118.305 
	384.484,118.327 384.504,118.348 384.548,118.348 384.972,118.539 385.035,118.603 385.354,118.836 385.609,118.963 
	386.055,119.239 386.586,119.664 387.031,119.833 387.073,119.896 387.201,120.173 387.286,120.3 387.647,120.428 388.177,120.449 
	388.687,120.428 388.984,120.407 389.494,120.386 389.726,120.386 389.771,120.386 391.214,120.344 391.829,120.321 392.146,120.3 
	392.657,120.279 392.996,120.279 393.378,120.257 393.782,120.237 394.419,120.216 394.589,120.216 394.589,119.876 
	394.589,119.409 394.502,117.774 394.354,117.774 394.142,117.795 393.293,117.838 392.89,117.838 392.89,117.541 392.869,117.032 
	392.763,117.032 392.678,117.032 392.084,117.053 392.041,116.225 391.255,116.267 391.214,115.439 390.385,115.481 
	390.385,114.654 389.982,114.675 389.982,114.59 389.938,113.041 389.536,113.062 389.516,112.553 389.472,111.724 389.43,110.62 
	389.366,109.007 389.344,108.179 389.281,106.545 389.239,105.738 389.195,104.91 389.176,104.104 390.788,104.061 391.214,104.041 
	391.977,104.019 392.041,104.019 392.062,104.019 392.189,103.998 392.212,103.998 392.401,103.998 392.443,103.998 
	392.783,103.976 393.188,103.976 393.612,103.955 393.972,103.934 394.779,103.913 396.138,103.849 396.16,103.849 397.964,103.785 
	398.388,103.785 398.706,103.743 398.727,103.743 399.279,103.743 401.168,103.68 402.104,103.637 402.542,103.637 402.542,103.297 
	402.563,103.254 402.584,103.148 402.669,102.979 402.859,102.83 402.902,102.766 403.01,102.723 403.178,102.639 403.794,102.745 
	404.135,102.703 404.262,102.596 404.39,102.49 404.494,102.299 404.537,102.193 404.516,102.087 404.474,101.981 404.39,101.832 
	404.197,101.577 403.858,101.365 403.603,101.238 403.221,101.068 403.094,100.856 403.05,100.708 403.05,100.517 403.115,100.155 
	403.178,100.028 403.349,99.9 403.369,99.879 403.391,99.879 403.413,99.858 403.455,99.858 403.625,99.794 403.899,99.604 
	404.092,99.349 404.155,99.136 404.155,99.115 404.112,98.584 404.135,98.287 404.155,98.223 404.324,97.927 404.559,97.608 
	404.579,97.586 404.601,97.501 404.643,97.374 404.643,97.353 "/>
<polygon id="3100004" fill="#666666" stroke="#FFFFFF" stroke-width="0.75"  points="440.859,196.36 440.731,196.063 440.688,195.979 
	440.54,195.83 440.433,195.766 439.966,195.66 439.648,195.469 439.182,194.981 439.076,194.938 439.032,194.918 438.736,194.812 
	438.438,194.832 437.631,195.13 437.461,195.149 437.271,195.149 437.081,195.086 436.909,195.023 436.846,194.981 436.804,194.958 
	436.591,194.832 436.38,194.641 436.336,194.577 436.315,194.556 436.295,194.514 436.273,194.493 436.209,194.365 436.188,194.344 
	436.166,194.281 436.104,194.174 436.061,194.046 436.04,194.005 436.04,193.983 435.977,193.688 435.913,193.452 435.913,193.41 
	435.934,193.283 435.955,193.197 436.04,193.134 436.082,193.091 436.146,193.071 436.209,193.027 436.251,193.007 436.315,193.007 
	436.613,192.944 436.74,192.88 436.931,192.667 436.974,192.496 437.059,192.199 436.953,191.902 436.782,191.711 436.782,191.628 
	436.909,191.435 436.931,191.288 436.889,191.181 436.697,190.883 436.825,190.777 436.931,190.587 436.974,190.416 
	436.974,190.374 436.974,190.331 436.974,190.268 436.974,190.226 436.974,190.206 436.974,190.162 436.953,190.056 
	436.953,189.972 436.931,189.949 436.889,189.886 436.846,189.78 436.825,189.738 436.718,189.611 436.697,189.588 436.678,189.568 
	436.57,189.505 436.442,189.442 436.421,189.442 436.358,189.418 436.273,189.397 436.231,189.397 435.891,189.397 435.828,189.397 
	435.784,189.378 435.572,189.271 435.403,189.122 435.297,188.973 435.255,188.824 435.233,188.782 435.211,188.654 
	435.189,188.549 435.147,188.167 435.084,187.997 435.021,187.848 434.871,187.699 434.83,187.657 434.743,187.616 434.213,187.445 
	433.96,187.318 433.578,186.957 433.556,186.936 433.514,186.892 433.259,186.617 433.216,186.554 433.152,186.447 433.133,186.426 
	433.047,186.256 433.025,186.214 433.025,186.193 432.982,186.065 432.961,185.853 432.961,185.767 432.961,185.577 
	433.133,185.131 433.259,184.899 433.301,184.855 433.322,184.77 433.364,184.686 433.386,184.623 433.386,184.578 433.407,184.452 
	433.429,184.387 433.429,184.345 433.429,184.027 433.386,183.878 433.28,183.581 433.047,183.22 432.834,183.029 432.685,182.944 
	432.494,182.88 432.07,182.88 431.433,182.966 431.157,182.923 430.074,182.435 429.84,182.286 429.757,182.202 429.734,182.138 
	429.65,181.967 429.65,181.797 429.819,181.203 429.84,180.992 429.84,180.928 429.799,180.779 429.734,180.652 429.48,180.397 
	429.332,180.312 429.267,180.29 429.162,180.27 429.077,180.227 429.035,180.227 428.505,180.227 428.27,180.122 428.142,180.036 
	427.803,179.718 427.761,179.696 427.484,179.548 427.42,179.527 427.314,179.506 427.252,179.485 427.124,179.462 427.08,179.485 
	426.976,179.506 426.934,179.506 426.721,179.591 426.19,179.888 425.936,179.994 425.809,180.016 425.532,179.973 425.426,179.908 
	425.277,179.739 425.256,179.654 425.256,179.462 425.297,179.272 425.405,179.081 425.637,178.911 426.232,178.657 
	426.382,178.571 426.572,178.359 426.657,178.147 426.678,177.999 426.657,177.957 426.636,177.786 426.613,177.68 426.551,177.531 
	426.445,177.339 426.445,177.319 426.423,177.298 426.295,177.148 426.254,177.085 426.019,176.874 425.936,176.745 
	425.829,176.597 425.765,176.407 425.743,176.11 425.743,175.939 425.659,175.451 425.405,174.942 425.297,174.771 424.958,174.262 
	424.831,173.859 424.874,173.689 424.894,173.604 424.894,173.541 424.958,173.371 425.297,173.201 425.405,173.116 
	425.616,172.925 425.68,172.798 425.68,172.756 425.553,172.713 425.384,172.606 425.277,172.437 425.256,172.437 425.234,172.288 
	425.277,172.076 425.446,171.671 425.469,171.524 425.446,171.438 425.341,171.396 425.213,171.375 425.087,171.396 
	424.958,171.418 424.915,171.418 424.3,171.587 424.067,171.396 423.749,171.248 423.686,171.184 423.621,171.141 423.366,170.908 
	423.304,170.802 423.218,170.569 423.196,170.399 423.196,170.25 423.218,170.207 423.515,170.102 423.642,169.996 423.728,169.91 
	423.812,169.699 423.833,169.528 423.791,169.337 423.728,169.231 423.579,169.104 423.431,169.041 423.366,169.019 
	422.983,168.914 423.175,168.849 423.323,168.744 424.321,168.318 424.576,168.17 424.811,167.81 424.831,167.596 424.915,166.981 
	424.853,166.769 424.746,166.514 424.471,166.345 424.3,165.961 424.024,165.644 423.749,165.665 423.388,165.793 423.111,166.005 
	423.091,166.365 423.027,166.685 423.027,167.129 423.133,167.343 423.048,167.619 422.581,168.021 422.517,167.894 
	422.326,167.724 421.986,167.682 421.88,167.703 421.626,167.852 421.371,167.936 420.883,167.936 420.543,167.873 420.288,167.746 
	420.097,167.575 420.033,167.427 419.991,167.278 420.012,167.088 420.161,166.769 420.203,166.621 420.203,166.493 
	420.183,166.323 420.118,166.153 419.82,165.644 419.672,165.22 419.715,164.965 419.907,164.668 420.033,164.562 420.31,164.327 
	420.522,164.115 420.648,163.861 420.691,163.691 420.691,163.67 420.691,163.564 420.691,163.5 420.691,163.458 420.648,163.351 
	420.648,163.308 420.564,163.203 420.501,163.14 420.267,162.947 419.991,162.756 419.885,162.673 419.8,162.545 419.736,162.375 
	419.715,161.972 419.693,161.759 419.693,161.738 419.651,161.568 419.651,161.525 419.63,161.484 419.588,161.354 419.524,161.271 
	419.524,161.25 419.417,161.08 419.163,160.761 419.1,160.697 419.058,160.634 418.971,160.549 418.845,160.443 418.568,160.272 
	418.506,160.251 418.208,160.167 417.783,160.146 417.465,160.061 417.423,160.061 417.38,160.039 417.084,159.892 417.02,159.849 
	416.87,159.743 416.808,159.7 416.786,159.678 416.744,159.658 416.553,159.53 416.467,159.402 416.467,159.381 416.446,159.36 
	416.425,159.318 416.404,159.233 416.404,159.19 416.404,159.169 416.341,158.83 416.298,158.638 416.298,158.597 416.213,158.384 
	416.086,158.15 416.042,158.107 415.81,157.854 415.787,157.833 415.703,157.811 415.619,157.769 415.406,157.663 415.3,157.62 
	415.108,157.535 415.023,157.513 414.77,157.343 414.663,157.153 414.493,156.558 414.493,156.304 414.558,155.985 414.663,155.646 
	414.811,155.39 414.854,155.348 414.896,155.306 415.045,155.136 415.088,155.093 415.088,155.072 415.151,155.03 415.216,154.966 
	415.406,154.839 415.469,154.817 415.555,154.775 415.703,154.689 415.831,154.648 415.915,154.605 415.959,154.584 
	415.959,154.563 416.106,154.457 416.128,154.457 416.169,154.414 416.255,154.329 416.298,154.309 416.317,154.265 
	416.488,154.075 416.553,153.968 416.616,153.799 416.658,153.587 416.658,153.565 416.658,153.544 415.342,153.587 
	415.003,153.608 414.875,153.608 414.599,153.608 414.558,153.608 414.407,153.608 414.303,153.629 414.217,153.629 413.41,153.672 
	413.199,153.672 411.798,153.735 410.587,153.777 409.42,153.841 409.018,153.862 408.867,153.862 408.782,153.884 407.02,153.947 
	406.617,153.947 405.024,154.01 404.621,154.032 402.224,154.139 400.617,154.202 399.79,154.245 399.407,154.265 399.004,154.287 
	398.196,154.329 397.815,154.329 396.605,154.393 395.798,154.414 395.034,154.435 391.829,154.541 391.318,154.563 
	391.255,154.563 390.916,154.584 390.724,154.584 390.258,154.605 390.406,158.66 390.406,158.681 390.428,159.062 390.428,159.233 
	390.448,159.488 390.47,160.294 390.555,162.736 390.575,163.16 390.598,163.564 390.619,163.988 390.619,164.37 390.64,164.562 
	390.683,165.983 390.704,166.557 390.788,168.423 390.788,168.828 390.811,169.252 390.406,169.274 390.174,169.274 386.245,169.38 
	384.633,169.444 384.229,169.465 383.295,169.508 383.21,169.508 382.658,169.528 382.021,169.549 381.49,169.572 379.897,169.635 
	379.792,169.656 379.091,169.676 378.285,169.699 376.714,169.741 375.907,169.783 375.123,169.783 374.062,169.826 
	373.913,169.826 372.469,169.869 372.278,169.869 371.896,169.889 371.896,169.444 371.875,169.061 371.875,168.637 
	371.852,168.255 371.83,167.427 371.747,165.813 371.683,164.985 371.662,164.158 371.641,163.351 371.599,161.738 371.576,160.931 
	371.556,160.4 371.556,160.103 371.131,160.103 370.791,160.124 370.048,160.124 369.984,160.146 369.54,160.146 369.433,160.167 
	368.35,160.188 368.032,160.209 367.946,160.209 367.904,160.188 367.543,160.209 367.374,160.209 367.225,160.209 366.865,160.23 
	366.779,160.23 365.994,160.251 365.25,160.272 365.209,160.272 364.38,160.294 364.04,160.315 363.638,160.315 363.553,160.336 
	362.852,160.336 362.831,160.336 362.789,160.336 362.704,160.336 362.492,160.358 362.448,160.358 362.047,160.379 
	362.002,160.379 359.604,160.443 357.248,160.506 357.228,160.506 356.44,160.527 355.635,160.549 354.997,160.57 354.85,160.57 
	353.66,160.613 353.342,160.613 353.235,160.613 352.854,160.634 352.45,160.634 352.429,160.336 352.429,159.827 352.408,159.233 
	352.408,159.062 352.365,158 352.344,157.365 352.344,156.982 352.344,156.962 352.324,156.558 352.302,155.75 352.28,154.753 
	352.28,154.712 352.26,153.841 352.26,153.735 352.26,153.692 352.174,150.869 352.11,148.406 352.089,147.6 352.089,147.579 
	352.068,146.772 352.068,145.965 352.047,145.541 352.047,145.392 351.962,143.312 351.962,143.164 351.921,141.083 
	352.705,141.062 353.342,141.041 353.916,141.019 354.212,141.019 356.696,140.955 356.717,140.955 357.419,140.934 357.46,140.934 
	361.473,140.828 361.536,140.828 361.854,140.807 362.257,140.807 362.321,140.807 362.448,140.807 363.107,140.787 
	364.125,140.764 364.274,140.743 364.742,140.743 366.271,140.68 366.334,140.68 367.034,140.658 367.076,140.658 369.518,140.574 
	371.025,140.553 371.131,140.553 371.003,137.283 370.982,136.498 370.962,135.669 370.94,134.842 370.898,134.014 370.877,133.207 
	370.834,131.573 370.813,130.766 370.705,127.667 370.686,127.519 370.643,125.883 370.622,125.077 370.622,124.249 
	370.579,123.358 370.579,123.315 370.559,123.188 370.559,123.125 370.559,123.039 370.559,122.636 370.559,122.424 
	370.516,121.829 370.516,121.533 370.516,121.447 370.516,121.021 370.601,121.021 370.559,119.791 370.559,119.558 
	370.559,119.388 370.495,117.795 370.495,117.69 370.495,117.625 369.879,117.647 369.581,117.71 369.348,117.795 368.881,118.135 
	368.839,118.177 368.286,118.39 368.097,118.518 367.926,118.603 367.67,118.794 367.417,119.028 367.374,119.091 367.119,119.452 
	366.567,120.004 366.292,120.11 366.163,120.11 365.867,120.237 365.78,120.237 365.527,120.13 365.399,120.13 364.891,120.194 
	364.487,120.194 364.169,120.3 363.977,120.428 363.894,120.491 363.744,120.598 363.341,120.874 363.298,120.938 363.276,121.044 
	363.107,121.213 362.769,121.533 362.66,121.575 362.47,121.617 362.109,121.68 362.002,121.638 361.62,121.659 361.579,121.703 
	361.536,121.787 361.494,121.829 361.303,121.808 361.196,121.871 361.153,121.956 360.984,122.042 360.964,122.063 
	360.559,122.146 360.347,122.02 359.879,122.168 359.647,122.317 359.477,122.36 359.18,122.36 359.116,122.36 358.648,122.042 
	358.31,121.893 357.97,121.956 357.821,122 357.778,122.063 357.184,122.253 357.143,122.253 357.078,122.233 356.93,122.296 
	356.675,122.338 356.484,122.317 356.229,122.338 356.166,122.36 355.316,122.36 355.082,122.38 354.786,122.36 354.701,122.36 
	354.53,122.36 354.212,122.253 354.064,122.233 354.044,122.233 353.768,122.105 353.64,121.871 353.427,121.766 352.959,121.68 
	352.642,121.871 352.408,121.913 352.174,121.871 352.026,121.808 351.878,121.744 351.793,121.68 351.58,121.575 351.368,121.553 
	351.368,121.469 351.263,121.533 350.709,121.659 350.646,121.703 350.582,121.808 350.391,122.02 350.2,122.126 349.647,122.317 
	349.393,122.38 348.99,122.594 348.926,122.657 348.607,122.72 347.992,123.103 347.781,123.167 346.888,123.336 346.571,123.358 
	346.103,123.336 345.339,123.485 345,123.569 344.85,123.655 344.574,123.909 344.044,124.291 343.959,124.376 343.131,124.95 
	342.771,125.098 342.452,125.183 342.048,125.247 341.984,125.226 341.9,125.247 341.879,125.268 341.879,125.353 341.879,125.396 
	341.879,125.48 341.879,125.565 341.879,125.862 341.9,126.16 341.602,126.393 341.391,126.372 341.283,126.435 341.115,126.542 
	341.03,126.562 340.668,126.732 340.436,126.818 340.158,126.839 340.074,126.69 340.074,126.627 340.054,126.647 339.97,126.669 
	339.799,126.754 339.735,126.775 339.523,126.86 339.417,126.923 339.501,127.115 339.183,127.497 339.013,127.306 338.439,127.751 
	338.016,128.197 337.103,129.238 336.827,129.471 336.125,130.023 336.021,130.087 335.894,130.107 335.786,130.172 
	335.658,130.277 335.553,130.448 335.382,130.618 335.022,130.958 334.047,132.592 333.771,132.826 333.643,132.953 
	333.493,133.081 333.685,133.356 333.238,133.78 333.197,133.822 333.111,133.887 332.877,134.12 332.518,134.459 332.538,135.076 
	332.538,135.881 332.581,137.495 332.687,141.592 332.751,141.592 332.877,146.454 332.877,146.793 332.877,146.814 
	332.962,149.723 332.962,150.529 332.985,150.869 332.985,151.357 333.069,154.202 333.069,154.223 333.069,154.265 
	333.111,156.219 333.133,157.045 333.133,157.449 333.153,157.854 333.153,158.065 333.176,158.597 333.197,159.275 
	333.197,159.445 333.238,161.101 333.281,161.101 333.324,163.564 333.345,164.498 333.367,164.899 333.367,165.176 
	333.388,166.005 333.408,166.812 333.452,168.447 333.515,170.887 333.535,172.246 333.6,174.135 333.6,174.411 333.62,174.942 
	333.62,175.536 333.62,175.77 333.643,176.194 333.643,176.576 333.663,176.874 333.663,177.404 333.685,177.766 333.685,178.211 
	333.706,178.634 333.706,179.018 333.749,180.672 333.897,180.652 333.939,182.562 333.939,183.092 334.025,186.023 
	334.067,188.272 334.067,188.316 334.067,188.507 334.067,188.804 334.067,188.931 334.087,189.229 334.087,189.631 
	334.109,190.184 334.109,190.247 334.109,190.439 334.131,190.82 334.131,190.863 334.151,192.072 334.151,192.306 334.173,192.899 
	334.215,195.341 334.279,198.103 334.279,198.271 334.301,200.225 334.386,200.225 336.189,200.182 336.466,200.182 
	336.529,200.182 336.593,200.182 336.699,200.182 338.821,200.118 339.16,200.118 339.417,200.118 340.712,200.076 342.706,200.033 
	343.109,200.013 343.875,200.013 343.98,199.992 345.424,199.969 345.509,199.969 347.292,199.926 347.462,199.905 347.504,199.905 
	347.907,199.905 348.099,199.905 348.417,199.885 348.734,199.885 349.501,199.842 350.285,199.842 351.113,199.799 
	351.431,199.799 351.516,199.799 353.49,199.736 354.275,199.736 354.298,199.715 358.268,199.63 358.288,199.63 358.754,199.63 
	360.581,199.565 360.667,199.565 361.451,199.545 362.152,199.523 362.194,199.523 362.47,199.523 363.044,199.502 363.107,199.502 
	363.298,199.481 367.056,199.375 367.841,199.354 367.904,199.354 368.754,199.332 372.618,199.204 372.702,199.184 
	374.229,199.141 374.316,199.141 374.443,199.141 374.506,199.141 374.719,199.141 377.415,199.057 377.5,199.035 382.17,198.888 
	382.318,198.888 385.163,198.78 385.673,198.78 385.905,198.78 386.882,198.738 386.925,198.738 387.116,198.738 387.35,198.717 
	387.901,198.697 388.709,198.674 389.218,198.653 391.638,198.568 391.744,198.568 391.893,198.547 396.52,198.398 396.69,198.398 
	396.711,198.377 397.071,198.377 398.643,198.314 398.791,198.314 401.423,198.207 401.509,198.207 402.062,198.187 
	402.224,198.167 405.004,198.079 405.322,198.059 406.215,198.038 406.215,198.016 406.298,198.016 407.741,197.953 
	408.104,197.932 409.356,197.89 410.522,197.826 410.927,197.826 411.096,197.803 411.754,197.783 413.325,197.718 415.724,197.635 
	415.895,197.613 416.53,197.592 420.543,197.422 420.691,197.402 425.426,197.209 425.488,197.209 426.019,197.168 426.316,197.168 
	426.678,197.146 426.827,197.146 429.989,196.997 430.287,196.976 434.277,196.807 434.32,196.807 434.639,196.785 434.659,196.785 
	434.787,196.785 435.36,196.764 435.466,196.742 435.868,196.721 435.891,196.721 436.082,196.721 436.358,196.701 438.035,196.637 
	439.542,196.552 440.115,196.531 440.879,196.488 "/>
<polygon id="3143580" fill="#666666" stroke="#FFFFFF" stroke-width="0.75"  points="391.362,70.563 391.149,70.224 391.021,69.884 391,69.375 
	391,69.226 390.959,68.972 390.916,68.823 390.831,68.653 390.683,68.419 390.3,68.016 389.791,67.762 389.516,67.57 
	389.303,67.401 389.133,67.188 389.048,67.082 388.984,66.891 388.877,66.636 388.856,66.444 388.856,66.232 388.877,66.062 
	388.963,65.893 389.005,65.808 389.048,65.639 389.195,65.257 389.195,65.235 389.195,65.171 389.176,65.065 389.176,65.001 
	389.153,64.938 389.112,64.811 389.068,64.683 388.898,64.28 388.856,63.898 388.92,63.451 388.984,63.281 389.494,62.624 
	389.938,62.051 390.066,61.775 390.193,61.244 390.193,60.968 390.13,60.395 389.938,59.758 389.918,59.694 389.621,59.333 
	389.472,59.163 388.92,58.994 388.793,58.973 388.433,58.951 388.326,58.93 388.177,58.93 387.669,58.93 387.54,58.93 
	386.882,59.163 386.627,59.333 386.245,59.524 386.096,59.546 385.673,59.524 385.184,59.397 384.993,59.291 384.951,59.271 
	384.867,59.185 384.548,58.782 384.484,58.633 384.42,58.42 384.335,58.208 384.145,57.891 383.995,57.742 383.868,57.635 
	383.592,57.466 383.465,57.444 383.189,57.359 383.146,57.359 383.104,57.359 382.807,57.38 382.785,57.38 382.743,57.402 
	382.51,57.487 382.382,57.529 382.297,57.593 382.212,57.657 382.191,57.657 381.745,58.102 381.725,58.124 381.703,58.145 
	381.553,58.208 381.448,58.272 381.342,58.293 381.3,58.315 381.257,58.315 381.193,58.315 381.046,58.336 380.96,58.336 
	380.896,58.336 380.832,58.315 380.79,58.315 380.727,58.293 380.62,58.252 380.005,57.868 379.92,57.678 379.771,57.274 
	379.707,56.999 379.666,56.85 379.666,56.382 379.643,56.341 379.602,56.128 379.579,56.043 379.559,55.958 379.538,55.938 
	379.475,55.789 379.431,55.725 379.39,55.661 379.367,55.619 379.198,55.427 379.112,55.343 379.027,55.28 379.007,55.237 
	378.772,55.088 378.625,54.982 378.562,54.939 378.518,54.939 377.86,54.685 377.818,54.663 377.69,54.557 377.627,54.536 
	377.585,54.494 377.585,54.472 377.438,54.344 376.947,53.666 376.545,53.177 376.418,52.922 376.354,52.71 376.354,52.69 
	376.312,52.308 376.312,52.159 376.375,51.903 376.459,51.713 376.821,51.076 376.862,51.012 376.926,50.948 377.012,50.8 
	377.032,50.758 377.097,50.715 377.181,50.63 377.202,50.567 377.224,50.524 377.245,50.333 377.245,50.312 377.245,50.184 
	377.202,50.142 377.054,49.972 377.032,49.951 376.799,49.803 375.651,49.462 375.546,49.42 375.462,49.42 375.334,49.42 
	375.229,49.42 375.059,49.441 374.951,49.462 374.867,49.462 374.762,49.484 374.719,49.505 374.676,49.505 374.592,49.59 
	374.081,49.739 373.571,49.717 373.551,49.717 373.487,49.696 373.423,49.696 373.382,49.675 373.36,49.675 372.872,49.547 
	372.639,49.441 372.553,49.356 372.553,49.335 372.489,49.229 372.553,48.55 372.532,48.083 372.469,47.743 372.278,47.446 
	371.979,47.318 371.726,47.255 371.471,47.234 371.322,47.234 370.75,47.042 370.474,46.894 370.027,46.576 369.518,46.405 
	368.944,46.363 368.457,46.109 368.414,46.087 368.329,46.045 368.308,46.023 368.201,45.96 368.181,45.96 368.159,45.938 
	368.117,45.917 368.097,45.917 367.564,46.066 367.417,46.13 367.161,46.363 366.906,46.533 366.738,46.639 366.419,46.767 
	366.143,46.808 365.908,46.767 365.824,46.724 365.761,46.618 365.74,46.512 365.718,46.363 365.888,45.833 365.908,45.684 
	365.888,45.599 365.867,45.557 365.549,44.856 365.273,44.623 365.124,44.537 365.102,44.537 365.018,44.517 364.997,44.517 
	364.975,44.517 364.551,44.58 364.147,44.559 363.617,44.495 363.658,45.216 363.722,47.234 363.766,48.019 363.808,49.399 
	363.872,52.074 363.894,52.88 363.977,55.321 364.062,57.763 364.084,59.376 364.147,60.989 364.189,62.221 364.211,62.624 
	364.125,62.624 364.147,63.538 364.147,63.771 364.189,65.404 364.211,65.745 364.274,67.485 364.401,72.347 365.081,72.347 
	366.524,72.304 366.738,72.283 366.801,72.283 369.199,72.219 370.155,72.177 370.304,72.177 370.324,72.177 370.451,72.177 
	370.813,72.155 370.834,72.155 371.11,72.155 371.852,72.113 372.404,72.113 372.426,72.113 373.402,72.07 373.423,72.07 
	373.998,72.049 374.931,72.028 374.951,72.028 375.419,72.006 376.395,71.986 376.375,71.582 376.354,71.2 376.566,71.2 
	377.245,71.179 380.365,71.094 381.533,71.051 381.979,71.03 383.571,70.966 384.761,70.945 385.354,70.925 386.288,70.902 
	391.553,70.733 "/>
</svg>
