<?xml version="1.0" encoding="utf-8"?>
<!-- Generator: Adobe Illustrator 13.0.2, SVG Export Plug-In  -->
<!DOCTYPE svg PUBLIC "-//W3C//DTD SVG 1.1//EN" "http://www.w3.org/Graphics/SVG/1.1/DTD/svg11.dtd" [
	<!ENTITY ns_flows "http://ns.adobe.com/Flows/1.0/">
]>
<svg version="1.1"
	 xmlns="http://www.w3.org/2000/svg" xmlns:xlink="http://www.w3.org/1999/xlink" xmlns:a="http://ns.adobe.com/AdobeSVGViewerExtensions/3.0/"
	 x="0px" y="0px" width="500px" height="400px" viewBox="-76.626 -18.039 500 400" enable-background="new -76.626 -18.039 500 400"
	 xml:space="preserve">
<defs>
</defs>
<polyline id="1147900" fill-rule="evenodd" clip-rule="evenodd" fill="#666666" stroke="#FFFFFF" stroke-width="0.75"  points="193.211,39.509 
	195.215,40.848 195.89,41.512 198.569,42.851 202.577,44.867 210.591,50.213 213.946,52.217 215.296,52.892 217.3,54.231 
	221.983,56.911 233.352,63.598 234.028,64.262 239.384,67.616 241.388,68.944 249.403,73.638 252.758,75.641 258.118,78.985 
	261.448,80.989 263.473,82.328 264.801,83.003 266.806,84.343 278.175,91.029 278.852,91.693 289.567,97.716 292.899,100.395 
	293.576,100.395 294.227,101.07 304.29,107.093 309.626,110.435 310.301,111.099 310.955,111.099 323.674,119.125 329.708,123.145 
	334.39,125.823 338.397,128.502 339.073,129.167 340.401,129.841 341.75,130.505 341.75,131.17 344.411,132.509 347.109,133.849 
	345.759,135.853 345.759,136.528 343.754,139.207 343.081,140.545 341.75,142.551 337.745,149.237 337.069,150.576 336.395,151.916 
	335.718,153.255 335.042,153.93 333.714,156.598 332.387,159.278 327.027,167.979 324.349,172.662 323.02,174.666 322.344,176.004 
	321.671,176.67 320.341,178.684 316.988,184.031 313.656,190.717 312.981,191.393 310.301,196.077 306.947,201.432 302.939,207.444 
	298.932,214.806 297.582,216.81 296.253,218.814 294.904,221.514 293.576,223.518 291.57,226.85 291.57,227.526 290.895,229.53 
	289.567,231.535 286.212,236.216 286.212,236.891 284.208,240.245 278.175,251.615 272.839,259.63 270.161,262.984 268.809,265.662 
	266.13,269.67 265.477,270.345 264.801,272.349 261.448,277.708 260.774,279.709 259.446,281.713 257.441,285.722 256.112,286.397 
	248.076,299.792 232.024,328.542 221.307,347.294 219.305,350.626 218.629,347.97 216.625,340.609 215.296,334.575 215.296,333.247 
	214.622,330.567 214.622,326.538 213.946,319.177 213.292,312.512 213.292,309.158 209.938,308.483 207.258,302.45 205.931,299.116 
	204.581,286.397 201.227,280.386 197.894,278.36 196.565,279.057 195.215,280.386 192.536,278.36 191.208,271.697 191.208,268.342 
	194.54,267.667 205.931,262.33 203.926,246.932 190.532,228.876 187.852,225.522 187.852,222.843 186.525,218.814 183.17,214.152 
	178.488,210.124 175.133,208.794 173.805,209.448 175.809,212.148 175.809,215.483 171.801,217.484 168.447,214.152 
	167.771,210.798 161.761,204.787 160.41,203.437 155.749,204.112 145.708,191.393 143.029,187.385 136.343,174.666 134.318,174.001 
	131.661,172.662 124.953,173.326 121.621,174.001 114.933,174.666 103.563,173.326 98.207,171.322 86.162,165.3 82.808,162.62 
	82.132,162.62 78.8,157.274 77.449,154.595 76.121,152.58 74.771,151.916 64.076,144.554 60.048,141.211 58.719,139.207 
	58.042,138.532 58.042,137.868 55.386,133.849 52.032,131.17 52.707,129.841 58.719,119.125 62.073,113.115 64.076,109.761 
	66.756,105.078 68.084,103.75 70.11,101.07 70.764,99.73 73.442,95.711 77.449,88.35 80.128,83.667 82.808,78.985 85.486,74.303 
	88.841,68.944 90.844,65.601 93.501,60.918 99.535,51.553 101.539,48.21 102.214,46.87 103.563,44.191 104.217,42.851 
	106.896,38.845 108.225,36.166 108.9,36.166 116.937,22.781 118.266,20.113 118.941,19.438 124.298,10.073 128.982,2.71 
	129.656,1.371 130.31,0.707 130.985,1.371 137.672,5.39 139.022,6.055 141.68,7.394 146.384,10.737 151.719,13.417 153.745,14.755 
	163.764,21.441 167.119,23.457 167.771,23.457 169.123,24.121 171.801,25.461 173.13,26.799 174.48,27.463 179.163,30.807 
	183.846,33.486 185.174,34.161 193.211,39.509 "/>
<polygon id="1147894" fill="#666666" stroke="#FFFFFF" stroke-width="0.75"  points="218.629,351.301 219.305,350.626 218.629,347.97 
	216.625,340.609 215.296,334.575 215.296,333.247 214.622,330.567 214.622,326.538 213.946,319.177 213.292,312.512 
	213.292,309.158 209.938,308.483 207.258,302.45 205.931,299.116 204.581,286.397 201.227,280.386 197.894,278.36 196.565,279.057 
	195.215,280.386 192.536,278.36 191.208,271.697 191.208,268.342 194.54,267.667 205.931,262.33 203.926,246.932 190.532,228.876 
	187.852,225.522 187.852,222.843 186.525,218.814 183.17,214.152 178.488,210.124 175.133,208.794 173.805,209.448 175.809,212.148 
	175.809,215.483 171.801,217.484 168.447,214.152 167.771,210.798 161.761,204.787 160.41,203.437 155.749,204.112 145.708,191.393 
	143.029,187.385 136.343,174.666 134.318,174.001 131.661,172.662 124.953,173.326 121.621,174.001 114.933,174.666 
	103.563,173.326 98.207,171.322 86.162,165.3 82.808,162.62 82.132,162.62 78.8,157.274 77.449,154.595 76.121,152.58 
	74.771,151.916 64.076,144.554 60.048,141.211 58.719,139.207 58.042,138.532 58.042,137.868 55.386,133.849 52.032,131.17 
	50.029,133.849 46.674,139.872 37.308,155.259 31.952,163.959 25.939,174.666 23.26,178.684 19.928,184.707 17.228,188.713 
	15.899,190.717 15.224,192.722 13.895,194.724 11.892,197.425 7.862,204.787 3.854,212.148 1.85,215.483 1.176,217.484 0.5,218.16 
	0.5,218.814 10.541,224.846 11.216,225.522 14.57,227.526 21.932,231.535 29.947,237.566 36.654,240.898 41.991,244.252 
	45.345,246.256 58.719,254.293 58.719,254.968 59.394,254.968 61.397,256.296 67.41,259.63 74.771,264.334 76.121,264.988 
	77.449,265.662 85.486,271.021 86.162,271.697 88.165,272.349 94.852,276.356 95.527,277.033 97.53,278.36 102.889,283.718 
	90.17,293.083 89.494,292.431 88.841,291.08 85.486,292.431 84.136,293.76 84.136,296.438 84.811,297.788 85.486,298.443 
	86.162,299.116 81.479,304.474 75.446,312.512 76.121,313.84 70.11,322.531 69.435,325.885 69.435,328.542 74.118,327.212 
	76.774,330.567 74.771,335.25 76.774,336.579 75.446,339.258 74.771,339.258 73.442,339.258 72.113,342.612 71.438,345.269 
	71.438,346.619 72.113,347.294 72.113,351.979 75.446,359.994 76.121,359.339 81.479,367.355 83.482,367.355 89.494,368.705 
	92.173,368.03 94.852,366.702 105.568,362.694 106.222,361.997 116.937,354.656 117.59,355.986 118.266,356.662 122.949,353.981 
	127.631,351.979 144.358,349.298 151.044,348.624 156.403,348.624 160.41,348.624 163.764,348.624 173.805,347.97 185.849,350.626 
	185.849,351.301 195.89,353.981 203.926,357.334 219.305,358.664 217.953,353.307 "/>
</svg>
