<?xml version="1.0" encoding="UTF-8"?>
<!-- Generator: Adobe Illustrator 14.0.0, SVG Export Plug-In . SVG Version: 6.00 Build 43363)  -->
<!DOCTYPE svg PUBLIC "-//W3C//DTD SVG 1.1//EN" "http://www.w3.org/Graphics/SVG/1.1/DTD/svg11.dtd">
<svg version="1.1" id="svg2" xmlns:sodipodi="http://sodipodi.sourceforge.net/DTD/sodipodi-0.dtd" sodipodi:docname="United States WIP.svg" sodipodi:version="0.32" xmlns:inkscape="http://www.inkscape.org/namespaces/inkscape" xmlns:dc="http://purl.org/dc/elements/1.1/" xmlns:cc="http://creativecommons.org/ns#" xmlns:rdf="http://www.w3.org/1999/02/22-rdf-syntax-ns#" inkscape:version="0.46" xmlns:svg="http://www.w3.org/2000/svg" inkscape:output_extension="org.inkscape.output.svg.inkscape" xmlns="http://www.w3.org/2000/svg" xmlns:xlink="http://www.w3.org/1999/xlink" x="0px" y="0px" width="499.539px" height="316.242px" viewBox="0 195.367 499.539 316.242" enable-background="new 0 195.367 499.539 316.242" xml:space="preserve" >
<defs>
	
	
		<inkscape:perspective id="perspective64" inkscape:vp_z="959 : 296.5 : 1" inkscape:persp3d-origin="479.5 : 197.66667 : 1" sodipodi:type="inkscape:persp3d" inkscape:vp_x="0 : 296.5 : 1" inkscape:vp_y="0 : 1000 : 0">
		</inkscape:perspective>
</defs>
<sodipodi:namedview id="base" inkscape:window-height="814" inkscape:window-width="1152" inkscape:pageshadow="2" inkscape:pageopacity="0.0" guidetolerance="10.0" gridtolerance="10.0" objecttolerance="10.0" borderopacity="1.0" bordercolor="#666666" pagecolor="#ffffff" showgrid="false" inkscape:zoom="0.70710678" inkscape:cx="608.50443" inkscape:cy="298.13957" inkscape:window-x="-8" inkscape:window-y="-8" inkscape:current-layer="svg2" inkscape:guide-bbox="true" showguides="true">
	</sodipodi:namedview>
<path id="1500000" fill="#808080" stroke="#FFFFFF" stroke-width="0.75" d="M125.506,471.307l1.044-1.917l1.219-0.173l0.174,0.436  l-1.132,1.654H125.506z M130.989,469.305l3.308,1.394l1.131-0.175l0.87-2.089l-0.348-1.828l-2.263-0.261l-2.176,0.956  L130.989,469.305z M147.528,474.702l2.002,2.958l1.306-0.174l0.609-0.26l0.783,0.695l2.002-0.087l0.522-0.783l-1.566-0.958  l-1.044-2.001l-1.132-1.917l-3.133,1.567L147.528,474.702z M158.409,479.488l0.696-1.044l2.524,0.521l0.348-0.261l3.308,0.35  l-0.174,0.694l-1.393,0.784l-2.35-0.174L158.409,479.488z M161.281,482.273l1.044,2.09l1.654-0.609l0.174-0.871l-0.871-1.132  l-2.002-0.173L161.281,482.273L161.281,482.273z M165.024,481.664l1.219-1.566l2.524,1.307l2.35,0.608l2.35,1.479v1.045  l-1.915,0.958l-2.611,0.521l-1.306-0.783L165.024,481.664z M173.99,490.021l0.871-0.695l1.829,0.87l4.091,1.916l1.828,1.132  l0.871,1.306l1.044,2.35l2.177,1.393l-0.174,0.697l-2.089,1.741l-2.263,0.783l-0.784-0.349l-1.654,0.957l-1.306,1.74l-1.218,1.567  l-0.958-0.087l-1.915-1.393l-0.174-2.438l0.348-1.305l-0.87-3.047l-1.132-0.958l-0.088-1.393l1.22-0.521l1.131-1.655l0.261-0.522  l-0.871-0.957L173.99,490.021z"/>
<path id="0200000" fill="#808080" stroke="#FFFFFF" stroke-width="0.75" d="M85.116,435.966l-0.174,45.96l0.87,0.521l1.654,0.088  l0.783-0.609h1.393l0.086,1.566l3.743,3.656l0.262,1.394l1.828-1.045l0.348-0.088l0.174-1.653l0.784-0.871l0.609-0.087l1.044-0.783  l1.654,1.131l0.348,1.567l1.044,0.61l0.609,1.306l2.088,0.956l1.828,3.222l1.479,2.09l1.219,1.479l0.783,2.001l2.699,0.957  l2.785,1.133l0.522,2.351l0.261,1.653l-0.522,1.828l-0.958,1.219l-0.871-0.436l-0.784-1.654l-1.479-0.783l-0.958-0.609l-0.435,0.435  l0.783,1.48l0.087,2.002l-0.609,0.26l-1.044-1.043l-1.131-0.696l0.261,0.87l0.696,0.957l-0.435,0.437c0,0-0.435-0.175-0.697-0.524  c-0.261-0.348-1.131-1.827-1.131-1.827l-0.522-1.218c0,0-0.174,0.695-0.522,0.522c-0.348-0.175-0.696-0.784-0.696-0.784l0.958-1.045  l-0.783-0.783v-2.698h-0.436l-0.436,1.828l-0.609,0.261l-0.522-2.001l-0.348-2.002l-0.435-0.262l0.174,3.047v0.608l-0.783-0.695  l-1.916-3.222l-1.131-0.26l-0.348-2.003l-0.871-1.566l-0.87-0.609v-1.219l1.131-0.697l-0.261-0.173l-1.394,0.348l-1.828-1.305  l-1.393-1.567l-2.612-1.393l-2.176-1.394l0.696-1.741v-0.87l-0.957,0.87l-1.567,0.61l-2.001-0.61l-3.047-1.306h-2.959l-0.348,0.261  l-3.482-2.088l-1.132-0.175l-1.479-3.133l-1.915,0.173l-1.915,0.784l0.261,2.438l0.609-1.567l0.522,0.174l-0.784,2.351l1.741-1.479  l0.349,0.869l-2.089,2.352l-0.696-0.176l-0.262-1.043l-0.696-0.435l-0.696,0.608l-1.48-0.957l-1.654,1.132l-0.958,1.131  l-1.828,1.133l-2.524-0.087l-0.261-1.131l2.002-0.351v-0.695l-1.218-0.349l0.521-1.306l1.218-2.089v-0.957l0.087-0.436l2.35-1.219  l0.522,0.696h1.479l-0.696-1.393l-2.001-0.174L59,477.401l-1.306,1.828l-0.957,1.392l-0.609,1.219l-2.263,0.783l-1.655,1.393  l-0.174,0.871l1.218,0.522l0.435,1.132l-1.479,1.741l-3.481,2.263l-4.178,2.263l-1.132,0.609l-2.873,0.61l-2.872,1.219l0.958,0.695  l-0.784,0.783l-0.261,0.61l-1.479-0.522l-1.741,0.087l-0.436,1.219h-0.522l0.174-1.306l-1.914,0.695l-1.567,0.523l-1.828-0.696  l-1.566,1.044h-1.741l-1.131,0.695l-0.871,0.437l-1.131-0.175l-1.393-0.609l-1.219,0.348l-0.521,0.523l-0.871-0.609v-1.045  l1.654-0.695l3.395,0.348l2.35-0.871l1.131-1.132l1.567-0.348l0.958-0.436l1.479,0.088l0.871,0.695l0.522-0.173l1.219-1.48  l1.653-0.522l1.828-0.348l0.696-0.175l0.348,0.262h0.436l0.696-2.002l2.176-0.783l1.044-2.002l1.219-2.437l0.87-0.785l0.174-1.393  l-0.87,0.696l-1.828,0.349l-0.348-1.306l-0.696-0.175l-0.522,0.522l-0.087,1.567l-0.783-0.087l-0.783-3.134l-0.697,0.695  l-0.609-0.261l-0.174-1.044l-2.176,0.086l-1.132,0.61l-1.393-0.174l0.783-0.783l0.262-1.394l-0.348-1.045l0.782-0.521l0.696-0.087  l-0.348-0.958v-2.35l-0.522-0.523l-0.435,0.784h-3.305l-0.784-0.697l-0.348-2.088l-1.132-1.915v-0.522l1.132-0.436l0.087-1.132  l0.609-0.61l-0.436-0.26l-0.696,0.26l-0.609-1.479l0.522-2.699l2.438-1.74l1.393-0.87l1.044-2.002l1.479-0.697l1.393,0.61  l0.174,1.305l1.306-0.173l1.741-1.306l0.871,0.348l0.522,0.348h0.871l1.218-0.694l0.436-2.352c0,0,0.174-1.565,0.522-1.828  c0.348-0.261,0.521-0.521,0.521-0.521l-0.609-1.045l-1.394,0.436l-1.741,0.436l-1.044-0.262l-1.916-0.958l-2.699-0.086l-1.915-2.003  l0.261-2.089l0.348-1.306l-1.132-0.958l-1.044-2.002l0.261-0.434l3.656-0.262h1.132l0.522,0.522h0.348l-0.087-0.871l2.089-0.349  l1.394,0.174l0.783,0.609l-0.783,1.133l-0.261,0.783l1.479,0.87l2.698,0.958l0.958-0.522l-1.219-2.351l-0.522-1.74l0.522-0.436  l-1.828-1.045l-0.261-0.609l0.261-0.87l-0.435-2.09l-1.567-2.524l-1.306-2.263l1.567-1.044h1.741l0.958,0.349l2.264-0.088  l2.001-1.915l0.609-1.655l2.002-1.305l0.871,0.521l1.479-0.348l2.002-1.132l0.609-0.087l0.522,0.434l2.437-0.086l1.48-1.654h0.609  l1.915,1.306l1.044,1.133l-0.261,0.608l0.348,0.609l0.871-0.87l2.089,0.174l0.175,2.002l1.044,0.783l3.831,0.348l3.395,2.264  l0.783-0.522l2.785,1.393l1.132-0.348l1.044-0.436l2.612,1.044L85.116,435.966z M23.14,451.547l1.131,2.873l-0.087,0.521  l-1.566-0.174l-0.958-2.176l-0.958-0.785h-1.306l-0.087-1.392l0.958-1.307l0.609,1.307l0.784,0.783L23.14,451.547z M21.747,469.565  L23.749,470l2.002,0.523l0.435,0.521l-0.87,2.002l-1.655-0.088l-1.827-1.915L21.747,469.565z M10.605,461.992l0.609,1.394l0.61,0.87  l-0.61,0.435l-1.131-1.653v-1.045H10.605L10.605,461.992z M3.206,501.338l1.828-1.22l1.828-0.521l1.393,0.174l0.261,0.87  l1.045,0.262l1.044-1.045l-0.174-0.87l1.479-0.35l1.567,1.395l-0.609,0.956l-2.35,0.61l-1.479-0.261l-2.002-0.61l-2.35,0.783  l-0.87,0.174L3.206,501.338z M29.581,498.899l0.87,1.045l1.132-0.87l-0.783-0.697L29.581,498.899z M31.147,500.554l0.609-1.219  l1.131,0.174l-0.435,1.045H31.147z M43.856,499.509l0.783,0.958l0.522-0.609l-0.435-1.045L43.856,499.509z M48.556,492.807  l0.609,3.134l1.567,0.436l2.698-1.567l2.35-1.394l-0.871-1.306l0.261-1.306L54.04,491.5l-1.567-0.435l0.871-0.609l1.044,0.436  l2.089-0.958l0.261-0.783l-1.305-0.436l0.435-1.044l-1.48,1.044l-2.523,1.915l-2.612,1.567L48.556,492.807z M71.362,482.1  l1.306-0.784l-0.522-0.957l-0.958,0.522L71.362,482.1z"/>
<path id="1200000" sodipodi:nodetypes="cccccccccccccccccccccccccccccccccccccccccccccccccccccccccccccccccccccccccccccccccccccccccccccccccccccccccccccccccccccccccccccccccccccccccccccc" fill="#808080" stroke="#FFFFFF" stroke-width="0.75" d="  M409.121,428.141l1.22,3.94l2.009,5.247l2.873,5.048l2.002,3.395l2.61,2.96l2.177,2.002l0.871,1.566l-0.61,0.697l-0.436,0.695  l1.567,4.005l1.566,1.566l1.395,2.872l1.915,3.135l2.437,4.439l0.697,4.091l0.261,6.441l0.349,0.957l-0.174,1.827l-1.307,0.697  l0.174,1.044l-0.349,1.045l0.175,1.306l0.261,1.044l-1.479,1.741l-1.653,0.783l-2.09,0.087l-0.783,0.87l-1.306,0.523l-0.697-0.262  l-0.608-0.521l-0.175-1.567l-0.434-1.828l-1.828-2.785l-1.916-1.219l-2.089-0.173l-0.436,0.695l-1.653-2.351l-0.35-1.914  l-1.393-2.177l-0.957-0.609l-0.87,1.131l-0.958-0.173l-1.132-2.698l-1.566-2.09l-1.566-2.872l-1.394-1.655l-1.914-2.002l1.131-1.306  l1.74-2.959l-0.086-0.871l-2.438-0.522l-0.871,0.349l0.175,0.349l1.393,0.522l-0.783,2.438l-0.436,0.262l-0.957-2.178l-0.696-2.611  l-0.174-1.479l0.783-2.524v-5.136l-1.654-2.002l-0.697-1.654l-2.785-0.696l-1.045-0.349l-0.871-1.394l-1.828-0.869l-0.609-1.829  l-1.479-0.521l-1.306-2.002l-2.263-0.784l-1.567-0.783h-1.393l-2.176,0.435l-0.088,1.045l0.436,0.522l-0.262,0.608l-1.653-0.086  l-2.002,1.915l-1.916,1.045h-2.089l-1.741,0.695l-0.175-1.479l-0.87-1.045l-1.567-0.61l-0.871-0.783l-4.352-2.088l-4.091-0.958  l-2.35,0.348l-3.222,0.262l-3.221,1.132l-1.873,0.33l-0.128-4.335l-1.393-1.045l-0.957-0.957l0.174-1.654l5.484-0.694l13.752-1.568  l3.656-0.348l2.926,0.15l1.394,2.089l0.784,0.783l4.36,0.277l5.826-0.349l11.583-0.694l2.933-0.364l2.751,0.11l0.229,1.567  l1.202,0.435l0.127-2.492l-0.824-2.248l0.705-0.775l2.991,0.246L409.121,428.141z M415.876,499.434l1.307-0.348l0.695-0.13  l0.783-1.264l1.264-0.871l0.695,0.262l0.914,0.173l0.219,0.566l-1.872,0.653l-2.263,0.783l-1.263,0.653L415.876,499.434z   M423.146,496.735l0.652,0.565l1.48-1.131l2.871-2.264l2.003-2.089l1.348-3.568l0.523-0.915l0.087-1.828l-0.392,0.262l-0.522,1.523  l-0.783,2.481l-1.74,2.829l-2.35,2.263l-1.829,1.045L423.146,496.735z"/>
<path id="3300000" sodipodi:nodetypes="ccccccccccccccccccccccccccccccccc" fill="#808080" stroke="#FFFFFF" stroke-width="0.75" d="  M474.264,268.374l0.47-0.581l0.587-1.771l-1.371-0.493l-0.26-1.653l-2.09-0.609l-0.174-1.479l-3.917-12.622l-2.479-7.831  l-0.482-0.002l-0.348,0.871l-0.349-0.261l-0.523-0.522l-0.783,1.044l-0.025,2.709l0.168,3.052l1.045,1.48v2.176l-2.002,2.726  l-1.393,0.609v0.609l0.609,0.958v4.613l-0.436,4.962l-0.087,2.611l0.522,0.696l-0.087,2.438l-0.263,0.957l0.522,0.382l9.04-2.382  l1.171-0.325l0.992-1.493L474.264,268.374z"/>
<path id="path57" fill="none" stroke="#A9A9A9" stroke-width="2" d="M113.613,457.14v29.615l19.384,24.229 M0,420.525h77.537  l36.076,36.614h46.307l28.538,29.076v24.77"/>
<g id="2600000" fill="#808080">
	
		<path id="MI-" sodipodi:nodetypes="cccccccccccsccccccccccccccccccccccccccccccccccccccccccccccccccccccccccccccccccccccccccccccccccccc" stroke="#FFFFFF" stroke-width="0.75" d="   M375.762,287.118l-1.741-4.439l-1.218-4.874l-1.306-1.74l-1.393-0.959l-0.871,0.61l-2.089,0.957l-1.044,2.698l-1.479,2.002   l-0.609,0.349l-0.783-0.349c0,0-1.394-0.783-1.306-1.132c0.087-0.348,0.261-2.698,0.261-2.698l1.828-0.696l0.434-1.828l0.349-1.393   l1.306-0.87l-0.174-5.396l-0.871-1.219l-0.696-0.436l-0.436-1.132l0.436-0.436l0.87,0.174l0.088-0.87l-1.306-1.219l-0.696-1.393   h-1.393l-2.438-0.783l-2.959-1.827h-1.48l-0.348,0.348l-0.522-0.261l-1.655-1.219l-1.566,0.957l-1.567,1.219l0.174,1.916   l0.522,0.174l1.131,0.261l0.262,0.436l-1.393,0.436l-1.393,0.174l-0.784,0.957l-0.173,1.133l0.173,0.87l0.173,2.96l-1.914,1.132   l-0.35-0.088v-2.263l0.697-1.306l0.348-1.306l-0.435-0.435l-1.045,0.435l-0.522,2.264l-1.479,0.608l-0.958,1.045l-0.087,0.521   l0.348,0.436l-0.348,1.393l-1.218,0.262v0.609l0.435,1.306l-0.609,3.308l-0.872,2.176l0.349,2.525l0.261,0.608l-0.436,1.307   l-0.174,0.435l-0.173,1.479l1.916,3.222l1.567,3.48l0.784,2.612l-0.436,2.523l-0.522,3.221l-1.306,2.786l-0.175,1.48l-1.755,1.661   l2.374-0.088l11.533-1.219l3.919-0.531l0.053,0.897l3.689-0.653l5.544-0.81l2.075-0.248l0.074-0.316l0.087-0.783l1.132-2.003   l1.077-0.935l-0.119-2.72l0.859-0.86l0.588-0.186l0.119-1.914l0.827-1.632l0.566,0.325l0.087,0.35l0.435,0.086l1.045-0.521   L375.762,287.118z"/>
	
		<path id="SP-" inkscape:label="#SP-" sodipodi:nodetypes="ccccccccccccccsccccccccccccccccccccccccccccccccccccccccccccccccccccccccccccccccccccccccccccccccccccccccccccccc" stroke="#FFFFFF" stroke-width="0.75" d="   M313.172,235.87l0.985-1.108l1.169-0.431l2.893-2.092l1.231-0.308l0.246,0.246l-2.77,2.769l-1.785,1.047l-1.109,0.492   L313.172,235.87z M359.572,253.169l0.349,1.349l1.741,0.087l0.695-0.652c0,0-0.043-0.783-0.218-0.87c-0.174-0.087-0.87-1-0.87-1   l-1.175,0.13l-0.871,0.087l-0.173,0.609L359.572,253.169z M305.565,251.568l0.385-0.312l1.479-0.436l1.915-1.219v-0.521   l0.349-0.349l3.221-0.522l1.306-1.044l2.35-1.131l0.088-0.696l1.044-1.567l0.957-0.435l0.696-0.958l1.218-1.218l2.35-1.306   l2.525-0.261l0.609,0.61l-0.174,0.522l-2.001,0.522l-0.784,1.653l-1.219,0.435l-0.261,1.306l-1.305,1.741l-0.175,1.393l0.436,0.261   l0.522-0.609l1.915-1.567l0.697,0.696h1.219l1.741,0.522l0.783,0.61l0.784,1.654l1.479,1.479l2.089-0.087l0.784-0.522l0.871,0.696   l0.871,0.261l0.696-0.435h0.61l0.871-0.522l2.176-1.915l1.828-0.609l3.569-0.174l2.437-1.044l1.394-0.697l0.783,0.087v3.046   l0.26,0.174l1.567,0.436l1.045-0.261l3.308-0.872l0.609-0.609l0.783,0.261v3.743l1.741,1.653l0.696,0.349l0.696,0.521l-0.696,0.174   l-0.435-0.174l-2.002-0.261l-1.131,0.349l-1.219-0.088l-1.741,0.783h-0.958l-3.133-0.695l-2.786,0.086l-1.044,1.394l-3.743,0.349   l-1.306,0.435l-0.61,1.654l-0.695,0.609l-0.262-0.087l-0.784-0.87l-2.437,1.306h-0.35l-0.609-0.871l-0.436,0.088l-1.044,2.35   l-0.522,2.177l-1.713,3.77l-0.634-0.557l-0.738-0.556l-1.045-5.54l-1.909-0.737l-1.105-1.231l-6.526-1.477l-1.538-0.555   l-4.431-1.17l-4.249-0.615L305.565,251.568z"/>
</g>
<path id="5000000" sodipodi:nodetypes="ccccccccccccccccccccccccccccc" fill="#808080" stroke="#FFFFFF" stroke-width="0.75" d="  M454.711,274.637l0.17-2.878l-1.556-5.807l-0.349-0.174l-1.566-0.696l0.435-1.567l-0.435-1.131l-1.455-2.499l0.523-2.089  l-0.436-2.785l-1.306-3.482l-0.435-2.65l14.227-3.625l0.166,2.974l1.033,1.477v2.176l-1.997,2.723l-1.392,0.615l-0.008,0.603  l0.706,0.819L460.871,261l-0.329,4.985l-0.122,2.992l0.522,0.696l-0.088,2.461l-0.26,0.91l0.546,0.392l-4.006,0.811L454.711,274.637  z"/>
<path id="2300000" sodipodi:nodetypes="ccccccccsccccccccccccccccccccccccccccccccccccccccccccccccccccccccccccccccccccccccccccccccsccccc" fill="#808080" stroke="#FFFFFF" stroke-width="0.75" d="  M496.901,234.131l1.044,1.132l1.219,2.002v1.044l-1.132,2.524l-1.044,0.348l-1.828,1.654l-2.612,2.96c0,0-0.348,0-0.695,0  c-0.349,0-0.522-1.131-0.522-1.131l-0.958,0.087l-0.521,0.783l-1.307,0.783l-0.521,0.783l0.87,0.784l-0.261,0.348l-0.261,1.48  l-1.046-0.087v-0.871l-0.174-0.696l-0.782,0.174l-0.957-1.741l-1.132,0.696l0.695,0.784l0.175,0.61l-0.436,0.696l0.174,1.654  l0.087,0.871l-0.87,1.392l-1.567,0.262l-0.174,1.566l-2.872,1.653l-0.696,0.262l-0.87-0.784l-1.655,1.915l0.522,1.741l-0.784,0.696  l-0.086,2.351l-0.605,3.369l-1.326-0.622l-0.261-1.653l-2.089-0.609l-0.175-1.479l-3.916-12.623l-2.53-7.883l0.765-0.063  l0.815,0.221v-1.394l0.704-2.421l1.394-2.524l0.783-2.176l-1.044-1.306v-3.221l0.435-0.522l0.435-1.479l-0.087-0.783l-0.087-2.611  l0.957-2.612l1.566-4.787l1.133-2.263h0.696l0.696,0.087v0.609l0.695,1.219l1.48,0.348l0.435-0.436v-0.522l2.177-1.567l0.957-0.957  l0.783,0.087l3.221,1.306l1.045,0.522l4.875,16.104h3.22l0.436,1.044l0.087,2.611l1.567,1.218h0.436l0.087-0.261l-0.262-0.61  L496.901,234.131z M485.631,250.364l0.827-0.827l0.739,0.565l0.305,1.306l-0.913,0.479L485.631,250.364z M489.242,247.187l0.958,1  c0,0,0.696,0.044,0.696-0.13c0-0.174,0.131-1.088,0.131-1.088l0.479-0.435l-0.436-0.958l-1.087,0.391L489.242,247.187z"/>
<path id="4400000" sodipodi:nodetypes="ccccccccccc" fill="#808080" stroke="#FFFFFF" stroke-width="0.75" d="M470.642,288.011  l-1.991-8.053l3.377-0.993l1.179,1.038l1.781,2.326l1.448,2.37l-1.615,0.875l-0.696-0.088l-0.61,0.957l-1.306,1.045L470.642,288.011  z"/>
<path id="3600000" fill="#808080" stroke="#FFFFFF" stroke-width="0.75" d="M447.116,293.315l-0.609-0.523l-1.394-0.086l-1.218-1.045  l-0.878-3.301l-1.862,0.049l-1.316-1.458l-10.438,2.359l-23.155,4.7l-4.056,0.661l-0.396-3.482l0.769-0.606l0.697-0.608l0.521-0.871  l0.958-0.609l1.044-0.958l0.262-0.87l1.131-1.48l0.61-0.521l-0.088-0.521l-0.695-1.654l-0.957-0.088l-1.045-3.307l1.566-0.957  l2.351-0.783l2.176-0.697l1.741-0.261l3.395-0.087l1.045,0.696l0.871,0.087l1.131-0.696l1.394-0.609l2.785-0.261l1.133-0.958  l0.956-1.74l0.872-1.045h1.131l1.045-0.609l0.086-1.219l-0.783-1.132l-0.173-0.782l0.609-1.132v-0.784h-0.957l-0.957-0.434  l-0.436-0.609l-0.087-1.394l3.134-2.959l0.348-0.437l0.783-1.566l1.567-2.437l1.48-2.002l1.131-1.306l1.301-0.983l1.658-0.671  l2.961-0.696l1.74,0.087l2.438-0.784l4.072-1.115l0.28,2.681l1.306,3.482l0.435,2.786l-0.521,2.089l1.393,2.438l0.435,1.131  l-0.435,1.566l1.566,0.697l0.35,0.174l1.653,5.919l-0.289,2.725l-0.261,5.831l0.435,2.961l0.436,1.914l0.783,3.917v4.353  l-0.61,1.219l0.991,1.073l0.43,0.903l-1.046,0.957l0.175,0.697l0.696-0.174l0.783-0.697l1.219-1.393l0.609-0.349l0.87,0.349  l1.219,0.087l4.267-2.09l1.566-1.479l0.695-0.783l2.264,0.87l-1.828,1.915l-2.09,1.567l-3.829,2.872l-1.393,0.522l-3.134,1.044  l-2.177,0.609l-0.633-0.287l-0.131-1.986l0.26-1.479l-0.086-1.133l-1.516-0.914l-2.438-0.522l-2.09-0.609L447.116,293.315z"/>
<path id="4200000" sodipodi:nodetypes="cccccccccccccccccccccccccccccccccccccccccccc" fill="#808080" stroke="#FFFFFF" stroke-width="0.75" d="  M444.287,312.67l0.703-0.146l1.256-0.675l0.652-1.337l0.87-1.219l1.741-1.654v-0.436l-1.306-0.869l-1.917-1.307l-0.521-1.393  l-1.479-0.174l-0.088-0.609l-0.436-1.479l1.219-0.609l0.088-1.307l-0.696-0.695l0.087-0.871l1.044-1.653v-1.654l1.453-1.424  l-0.496-0.365l-1.358-0.103l-1.235-1.045l-0.835-3.293l-1.887,0.054l-1.322-1.456l-9.741,2.261l-23.154,4.7l-4.788,0.783  l-0.334-3.511l-2.887,2.729l-0.697,0.262l-2.262,1.619l1.566,10.306l1.337,5.238l1.923,10.371l1.761-0.343l6.431-0.81l20.423-4.127  l8.01-1.521l4.469-0.873l0.145-0.13l1.132-0.87L444.287,312.67z"/>
<path id="3400000" sodipodi:nodetypes="ccccccccccccccccccccccccccccccccccccccccccccccccccc" fill="#808080" stroke="#FFFFFF" stroke-width="0.75" d="  M446.739,293.161l-1.251,1.472v1.655l-1.044,1.653l-0.087,0.87l0.695,0.697l-0.086,1.305l-1.219,0.609l0.435,1.48l0.087,0.609  l1.48,0.175l0.521,1.393l1.915,1.305l1.307,0.871v0.435l-1.606,1.452l-0.871,1.219l-0.783,1.479l-1.219,0.696l-0.248,0.862  l-0.13,0.653l-0.329,1.403l0.588,1.209l1.742,1.567l2.61,1.218l2.176,0.349l0.087,0.783l-0.434,0.522l0.173,1.48h0.436l1.132-1.307  l0.435-2.61l1.48-2.177l1.653-3.481l0.61-2.96l-0.349-0.609l-0.088-5.049l-0.87-1.828l-0.609,0.436l-1.48,0.174l-0.26-0.262  l0.609-0.521l1.132-1.045l0.033-0.59l-0.206-1.849l0.308-1.479l-0.063-1.061l-1.512-0.942l-2.742-0.634l-2.227-0.743  L446.739,293.161z"/>
<path id="1000000" sodipodi:nodetypes="cccccccccccccccccccc" fill="#808080" stroke="#FFFFFF" stroke-width="0.75" d="M444.558,314.602  l0.196-1.155l0.202-0.911l-0.874,0.214l-0.87,0.253l-1.188,0.949l0.927,2.716l1.218,3.045l1.132,5.224l0.87,3.395l2.699-0.087  l3.308-0.636l-1.22-3.977l-0.522,0.26l-1.915-1.305l-0.958-2.524l-1.043-1.915l-1.695-1.545l-0.466-1.13L444.558,314.602z"/>
<path id="2400000" sodipodi:nodetypes="ccccccccccccccccccccccccccccccccccccccccccccccccccsccccccccccccccccccccccccccccsccc" fill="#808080" stroke="#FFFFFF" stroke-width="0.75" d="  M452.185,327.598l-3.235,0.647l-2.77,0.063l-0.993-3.728l-1.036-4.937l-1.386-3.333l-0.692-2.367l-4.042,0.873l-8.01,1.521  l-20.165,4.066l0.608,2.698l0.522,3.047l0.174-0.174l1.132-1.306l1.219-1.41l1.305-0.331l0.784-0.783l0.958-1.393l0.695,0.349  l1.566-0.175l1.394-1.131l1.081-0.782l0.993-0.262l0.885,0.608l1.567,0.783l1.045,0.958l0.653,0.826l2.22,0.915v1.566l2.96,0.695  l0.616,0.292l0.76-1.092l1.552,1.061l-0.688,1.337l-0.412,2.146l-0.957,1.394v1.132l0.349,0.957l2.726,0.73l2.322-0.033l1.653,0.522  l1.133,0.174l0.521-1.132l-0.783-1.132v-0.957l-1.306-1.131l-1.132-2.96l0.696-2.873l-0.088-1.131l-0.695-0.696  c0,0,0.783-0.87,0.783-1.218c0-0.35,0.261-1.133,0.261-1.133l1.044-0.695l1.045-0.871l0.262,0.522l-0.783,0.87l-0.696,2.002  l0.173,0.609l0.959,0.174l0.26,2.96l-1.131,0.522l0.174,1.915l0.261-0.087l0.61-1.045l0.869,0.958l-0.869,0.696l-0.174,1.827  l1.393,1.828l2.089,0.261l0.871-0.435l1.742,2.253l0.731,0.288l3.583-1.506l1.081-2.167L452.185,327.598z M443.585,332.458  l0.609,1.35l0.088,0.958l0.61,1.001c0,0,0.478-0.479,0.478-0.653s-0.392-1.653-0.392-1.653l-0.392-1.263L443.585,332.458z"/>
<path id="5100000" sodipodi:nodetypes="ccccccccccccccccccccccccccccccccccccccccccccccccccccccccccccccccccccccccccccccccccc" fill="#808080" stroke="#FFFFFF" stroke-width="0.75" d="  M447.795,334.949l-0.078-1.048l3.475-1.372l-0.415,1.731l-1.571,2.035l-0.226,2.47l0.248,1.825l-0.983,2.681l-1.165,1.031  l-0.793-2.498l0.241-2.935l0.854-2.253L447.795,334.949z M449.594,350.188l-31.325,6.771l-20.152,2.843l-3.596-0.202l-1.392,1.037  l-3.953,0.119l-4.513,0.526l-5.876,0.87l5.636-3.021l-0.006-1.118l0.818-1.154l5.683-6.193l2.125,2.41l2.037,0.52l1.37-0.613  l1.205-0.707l1.366,0.724l2.107-0.769l1.01-2.453l1.401,0.29l1.536-1.147l0.97,0.265l1.521-1.979l0.188-1.122l-0.52-0.688  l0.54-1.004l2.84-6.611l0.332-3.088l0.662-0.282l1.172,1.316l2.12-0.163l1.039-4.077l1.504-0.302l0.565-1.476l1.39-1.264  l1.492-3.067l0.044-2.728l5.29,2.059c0.366,0.183,0.448-2.72,0.448-2.72l1.967,0.861l0.037,1.582l3.115,0.7l1.148,0.633l0.894,1.106  l-0.353,1.965l-1.049,1.396l0.06,1.109l0.318,0.997l2.679,0.683l2.397,0.021l1.652,0.517l1.048,0.167l0.383,1.663l1.719,0.217  l0.468,0.646l-0.237,2.525l0.74,0.594l-0.258,1.04l0.663,0.424l-0.119,0.746l-1.45-0.051l0.047,0.869l1.229,0.831l0.064,0.76  l0.955,0.963l0.265,1.358l-1.375,0.744l0.848,0.805l3.123-0.908L449.594,350.188z"/>
<path id="5400000" sodipodi:nodetypes="ccccccccccccccccccccccccccccccccccccccccscccccccccccccccccccccccccccccccccccccccccc" fill="#808080" stroke="#FFFFFF" stroke-width="0.75" d="  M409.858,320.356l0.6,2.663l0.583,3.247l1.146-1.39l1.219-1.653l1.367-0.331l0.784-0.783l0.956-1.394l0.778,0.349l1.567-0.175  l1.393-1.131l1.081-0.782l0.993-0.262l0.703,0.548l1.961,0.98l1.045,0.957l0.74,0.696l-0.41,2.991l-3.143-1.369l-2.286-0.873  l-0.054,2.789l-1.479,2.98l-1.362,1.307l-0.641,1.479l-1.424,0.271l-0.483,1.938l-0.562,2.126l-2.137,0.185l-1.252-1.314  l-0.576,0.302l-0.341,2.944l-0.727,1.903l-2.67,5.898l0.483,0.626l-0.111,1.027l-1.512,2.091l-0.975-0.293l-1.598,1.163  l-1.369-0.308l-1.077,2.452c0,0-1.755,0.77-2.112,0.736c-0.087-0.008-1.329-0.672-1.329-0.672l-1.259,0.743l-1.297,0.562  l-2.017-0.479l-0.603-0.63l-1.182-1.627l-1.692-1.07l-0.921-1.95l-2.308-1.867l-0.348-1.219l-1.394-0.784l-0.437-0.87l-0.13-2.828  l1.176-0.045l1.044-0.435l0.087-1.48l0.87-0.783l0.088-2.698l0.521-2.089l0.696-0.349l0.697,0.609l0.261,0.957l0.957-0.521  l0.262-0.871l-0.61-0.957v-1.306l0.521-0.697l1.219-1.826l0.697-0.784l1.131,0.261l1.218-0.87l1.654-1.828l1.219-2.09l0.174-3.046  l0.26-2.699v-2.524l-0.609-1.653l0.522-0.783l0.692-0.696l1.879,10.676l2.493-0.405L409.858,320.356z"/>
<path id="3900000" sodipodi:nodetypes="cccccccccccccccccccccccccccccccccccccccccccccccccccccccccccccccc" fill="#808080" stroke="#FFFFFF" stroke-width="0.75" d="  M395.934,295.783l-3.281,2.182l-2.089,1.219l-1.828,2.001l-2.176,2.09l-1.741,0.436l-1.566,0.26l-2.96,1.394l-1.132,0.088  l-1.828-1.654l-2.785,0.348l-1.393-0.782l-1.282-0.728l-2.634,0.379l-5.484,0.871l-6.034,1.177l0.695,7.877l0.958,7.398  l1.393,12.622l0.304,2.602l2.22-0.069l1.306-0.436l1.812,0.81l1.114,2.351l2.768-0.01l1.018,1.141l0.949-0.034l1.367-0.723  l1.348,0.2l2.919,0.26l0.93-1.148l1.264-0.696l1.114-0.366l0.348,1.479l0.958,0.522l1.871,1.262l1.175-0.042l0.718-0.266l0.1-1.487  l0.852-0.783l0.054-2.581l0.551-2.213l0.701-0.323l0.711,0.618l0.291,0.914l0.924-0.56l0.237-0.786l-0.601-1.024l0.036-1.247  l0.404-0.577l1.16-1.78l0.565-0.831l1.132,0.261l1.219-0.869l1.654-1.828l1.493-2.196l0.171-2.722l0.262-2.698l-0.095-2.858  l-0.514-1.559l0.189-0.641l0.973-0.942l-1.233-4.872L395.934,295.783z"/>
<path id="1800000" fill="#808080" stroke="#FFFFFF" stroke-width="0.75" d="M333.606,353.203l0.036-1.538l0.261-2.438l1.217-1.566  l0.958-2.09l1.393-2.263l-0.26-3.133l-0.958-1.48l-0.174-1.74l0.436-2.96l-0.261-3.743l-0.696-8.618l-0.696-8.269l-0.523-6.311  l1.654,0.479l0.783,0.522l0.61-0.174l1.132-1.045l1.524-0.871l2.742-0.087l11.838-1.219l3.002-0.287l0.81,8.592l2.29,19.838  l0.322,3.107l-0.2,1.218l0.662,0.968l0.052,0.738l-1.357,0.861l-1.906,0.836l-1.725,0.295l-0.323,2.621l-2.463,1.784l-1.506,2.159  l0.174,1.278l-0.313,0.826h-1.792l-0.854-0.869l-1.342,0.679l-1.445,0.81l0.088,1.645l-0.643,0.139l-0.252-0.548l-1.166-0.811  l-1.751,0.723l-0.834,1.619l-0.774-0.436l-0.783-0.86l-2.404,0.261l-3.012,0.522L333.606,353.203z"/>
<path id="1700000" sodipodi:nodetypes="ccccccccccccccccccccccccccccccccccccccccccccccccccccccccccccccccccccccccccccccccccc" fill="#808080" stroke="#FFFFFF" stroke-width="0.75" d="  M333.59,353.403l0.017-1.738l0.305-2.502l1.256-1.57l1.005-2.194l1.202-2.151l-0.199-2.828l-1.081-1.907l-0.052-1.803l0.375-2.837  l-0.445-3.865l-0.574-8.494l-0.696-8.087l-0.497-6.267l-0.146-0.496l-0.435-1.394l-0.697-2.003l-0.87-0.957l-0.784-1.393  l-0.125-2.955l-24.659,1.397l0.123,1.277l1.231,0.369l0.492,0.615l0.246,0.985l2.093,1.847l0.369,1.23l-0.369,1.847l-0.984,1.97  l-0.37,1.354l-1.231,0.985l-0.984,0.37l-2.832,0.738l-0.369,0.984l-0.369,1.108l0.369,0.739l0.985,0.861l-0.124,2.216l-0.985,0.862  l-0.37,0.861v1.478l-0.985,0.245l-0.861,0.616l-0.123,0.738l0.123,1.108l-0.923,0.708l-0.554,1.508l0.246,1.969l1.231,3.939  l3.938,4.062l2.956,1.971l-0.123,2.338l0.493,0.738l3.446,0.246l1.478,0.739l-0.371,1.97l-1.23,3.201l-0.369,1.724l1.23,2.092  l3.447,2.832l2.463,0.369l1.108,2.709l1.109,1.723l-0.493,1.601l0.862,2.216l0.984,1.108l0.762-0.475l0.489-1.116l1.191-0.941  l1.148-0.33l1.401,0.635l1.953,0.74l0.639-0.16l0.108-1.215l-0.693-1.299l0.164-1.281l0.99-0.725l1.627-0.437l0.679-0.246  l-0.329-0.747l-0.427-1.267l0.771-0.528L333.59,353.403z"/>
<path id="0900000" sodipodi:nodetypes="cccccccccccccccc" fill="#808080" stroke="#FFFFFF" stroke-width="0.75" d="M470.641,287.993  l-1.98-8.011l-2.542,0.495l-11.43,2.555l0.538,1.737l0.783,3.917l0.096,4.827l-0.658,1.172l1.035,1.041l2.3-2.104l1.914-1.74  l1.046-1.133l0.436,0.35l1.479-0.784l2.785-0.609L470.641,287.993z"/>
<path id="5500000" sodipodi:nodetypes="ccccccccccccccccccccccccccccccccccccccccccccccccccccccccccccccccccccccccccccccccccccccccc" fill="#808080" stroke="#FFFFFF" stroke-width="0.75" d="  M331.181,297.958l-0.036-1.7l-0.635-2.438l-0.349-3.308l-0.61-1.306l0.522-1.653l0.436-1.567l0.784-1.393l-0.35-1.827l-0.348-1.916  l0.261-0.957l1.045-1.305l0.087-1.48l-0.435-0.695l0.348-1.394l-0.244-2.245l1.479-3.046l1.567-3.656l0.087-1.219l-0.174-0.522  l-0.435,0.262l-2.263,3.394l-1.479,2.177l-1.045,0.958l-0.435,1.218l-1.053,0.436l-0.608,1.045l-0.784-0.174l-0.087-0.957  l0.696-1.307l1.131-2.523l0.958-0.872l0.534-1.269l-1.378-1.024l-1.063-5.582l-1.91-0.723l-1.048-1.242l-6.532-1.466l-1.548-0.545  l-4.423-1.167l-4.262-0.624l-2.028-2.763l-0.404,0.299l-0.645-0.086l-0.348-0.61l-0.719,0.16l-0.61,0.087l-0.958,0.522l-0.521-0.349  l0.348-1.044l1.045-1.654l0.609-0.609l-1.045-0.783l-1.132,0.435l-1.566,1.044l-4.004,1.741l-1.566,0.348l-1.567-0.261l-0.529-0.473  l-1.139,1.527l-0.124,1.477v4.556l-0.616,0.861l-2.831,2.093l-1.231,3.2l0.246,0.123l1.354,1.108l0.369,1.723l-0.985,1.724v2.092  l0.247,3.57l1.6,1.601h1.847l0.985,1.724l1.846,0.247l2.092,3.077l3.816,2.216l1.107,1.478l0.493,4.001l0.37,1.785l1.231,0.861  l0.123,0.738l-1.108,1.847l0.124,1.723l1.354,2.093l1.354,0.615l1.601,0.246l0.722,0.744L331.181,297.958z"/>
<path id="3700000" sodipodi:nodetypes="cccccccccccccccccccccccccccccccccccccccccccccccccccccccccccscccccccccccccccccccccccccccccccc" fill="#808080" stroke="#FFFFFF" stroke-width="0.75" d="  M449.594,350.158l1.122,2.648l1.916,3.481l1.306,1.306l0.348,1.219l-1.305,0.087l0.435,0.349l-0.173,2.263l-1.394,0.696  l-0.349,1.132l-0.696,1.566l-2.001,0.871l-1.306-0.174l-0.784-0.088l-0.871-0.696l0.175,0.696v0.522h1.044l0.437,0.696l-1.045,3.395  h2.263l0.349,0.871l1.217-1.219l0.697-0.261l-1.046,1.914l-1.652,2.611h-0.697l-0.609-0.26l-1.479,0.348l-2.786,1.306l-3.481,2.873  l-1.828,2.523l-1.045,3.482l-0.262,1.306l-2.523,0.262l-2.936,0.719l-5.355-4.416l-6.79-4.091l-1.567-0.436l-6.79,0.783  l-2.303,0.403l-0.87-1.74l-1.6-1.139l-8.879,0.261l-3.917,0.436l-4.875,2.437l-3.308,1.394l-11.403,1.393l0.27-2.183l0.958-0.783  l1.479-0.349l0.349-2.003l2.263-1.479l2.089-0.783l2.263-1.915l2.35-1.132l0.348-1.653l2.089-2.089l0.35-0.087  c0,0,0,0.609,0.434,0.609c0.436,0,1.045,0.173,1.045,0.173l1.218-1.916l1.132-0.348l1.219,0.175l0.871-1.915l1.566-1.394  l0.262-1.131l0.101-1.964l2.302-0.014l3.875-0.46l8.485-1.212l8.149-1.124l11.652-2.541l10.76-2.294l6.019-1.295L449.594,350.158z   M451.894,368.039l1.393-1.35l1.697-1.394l0.827-0.348l0.088-1.088l-0.349-3.308l-0.784-1.262l-0.348-1.002l0.393-0.131l1.479,2.96  l0.218,2.394l-0.087,1.829l-1.828,0.827l-1.523,1.305l-0.609,0.652L451.894,368.039z"/>
<path id="1100000" sodipodi:nodetypes="cccccc" fill="#808080" stroke="#FFFFFF" stroke-width="0.75" d="M433.892,326.751l-1-0.981  l-0.665-0.369l0.778-1.089l1.554,1.048L433.892,326.751z"/>
<path id="2500000" sodipodi:nodetypes="ccccccccccccccccccccccccccccccccccccccccccccccccccccccccccccccc" fill="#808080" stroke="#FFFFFF" stroke-width="0.75" d="  M484.4,284.974l1.169-0.369l0.246-0.924l0.555,0.062l0.555,1.231l-0.678,0.246l-2.093,0.062L484.4,284.974z M479.354,285.404  l1.23-1.416h0.862l0.984,0.801l-1.292,0.554l-1.17,0.555L479.354,285.404z M460.616,273.564l9.502-2.499l1.219-0.348l1.03-1.505  l2.013-0.896l1.555,2.376l-1.306,2.785l-0.174,0.783l1.044,1.394l0.609-0.435h0.958l1.218,1.393l2.09,3.221l1.915,0.262l1.219-0.522  l0.957-0.958l-0.436-1.479l-1.132-0.87l-0.783,0.436l-0.521-0.696l0.26-0.262l1.133-0.087l0.957,0.435l1.045,1.306l0.521,1.567  l0.175,1.305l-2.264,0.783l-2.089,1.045l-2.089,2.438l-1.045,0.783v-0.523l1.306-0.783l0.261-0.957l-0.434-1.654l-1.567,0.783  l-0.436,0.783l0.261,1.219l-1.111,0.539l-1.479-2.438l-1.829-2.35l-1.114-0.976l-3.517,1.009l-2.743,0.566l-11.133,2.473  l-0.358-2.567l0.349-5.701l2.31-0.479L460.616,273.564z"/>
<path id="4700000" sodipodi:nodetypes="ccccccccccccccccccccccccccccccsccccccccccccc" fill="#808080" stroke="#FFFFFF" stroke-width="0.75" d="  M375.125,363.048l-27.942,2.698l-8.487,0.959l-2.488,0.275l-2.083-0.015l-0.119,2.208l-4.407,0.142l-3.744,0.35l-4.356-0.067  l-0.762,3.809l-0.914,2.951l-1.773,1.481l-0.726,2.359l-0.174,1.393l-2.176,1.219l0.783,1.916l-0.522,2.351l-0.521,0.424  l58.237-5.604l0.218-2.13l0.975-0.802l1.527-0.404l0.361-2.001l2.207-1.457l2.18-0.804l2.199-1.923l2.387-1.091l0.281-1.652  l2.189-2.145l0.297-0.062c0,0,0.017,0.61,0.452,0.61c0.436,0,1.046,0.19,1.046,0.19l1.217-1.932l1.115-0.349l1.225,0.158l0.86-1.901  l1.592-1.423l0.227-1.044l0.167-1.998l-1.156-0.108l-1.402,1.093l-3.765,0.016l-9.885,1.285L375.125,363.048z"/>
<path id="0500000" sodipodi:nodetypes="cccccccccccccccccccccccccccccccccccccccc" fill="#808080" stroke="#FFFFFF" stroke-width="0.75" d="  M319.745,376.401l-2.144,0.386l-2.753-0.341l0.227-0.862l1.604-1.383l0.508-1.969l-0.984-1.601l-42.224,1.354l0.861,3.692v4.433  l0.738,5.908l0.124,20.373l1.231,1.047l1.6-0.737l1.477,0.613l0.366,3.54l29.949-0.614l0.617-1.125l-0.154-1.911l-0.983-1.601  l0.861-0.8l-0.861-1.353l0.369-1.352l0.737-3.018l1.356-1.11l-0.37-1.229l1.97-2.894l1.477-0.736l-0.062-0.804l-0.185-0.983  l1.538-3.014l1.293-0.677l0.207-1.846l0.954-0.668l-1.693-0.26l-0.722-2.16l1.51-1.28l0.297-1.087l0.689-2.178L319.745,376.401z"/>
<path id="2900000" sodipodi:nodetypes="cccccccccccccccccccccccccccccccccccccccccccccccccccccccccccc" fill="#808080" stroke="#FFFFFF" stroke-width="0.75" d="  M300.691,325.281l-1.356-1.662l-0.616-1.231l-34.652,1.292l-1.231,0.062l0.677,1.354l-0.124,1.231l1.354,2.093l1.662,2.216  l1.663,1.478l1.163,0.123l0.806,0.492v1.601l-0.985,0.861l-0.246,1.231l1.108,1.847l1.354,1.6l1.355,0.985l0.738,6.278l0.17,19.423  l0.123,2.524l0.246,2.898l12.08-0.467l12.495-0.37l11.203-0.432l6.275-0.122l1.168,1.845l-0.369,1.779l-1.662,1.295l-0.308,0.988  l2.896,0.248l2.097-0.37l0.925-2.959l0.351-3.153l1.129-1.375l1.399-0.801l0.027-1.643l0.547-1.043l-0.912-1.369l-0.717,0.53  l-1.074-1.2l-0.691-2.562l0.43-1.356l-1.047-1.845l-0.985-2.465l-2.585-0.43l-3.751-3.015l-0.927-2.215l0.431-1.724l1.109-3.262  l0.248-1.542l-1.05-0.555l-3.691-0.43l-0.554-0.922l-0.061-2.278l-2.955-1.848l-3.756-4.184l-1.231-3.94l-0.123-2.274  L300.691,325.281z"/>
<path id="1300000" sodipodi:nodetypes="ccccccccccccccccccccccccccccccccccccccccccccccccccccccccccccccccccccccc" fill="#808080" stroke="#FFFFFF" stroke-width="0.75" d="  M361.994,383.132v1.175l0.088,1.132l0.348,1.828l1.828,4.265l1.306,5.311l0.783,3.307l0.872,2.611l0.784,3.744l1.131,3.395  l1.394,1.827l0.261,1.827l1.044,0.437l0.087,1.131l-0.958,2.612l-0.261,1.74l-0.086,1.045l0.87,2.35l0.174,2.874l-0.435,1.305  l0.349,0.436l0.783,0.436l0.11,1.732l1.202,1.803l1.213,1.165l4.265,0.087l5.826-0.349l11.583-0.696l2.933-0.362l2.465,0.015  l0.087,1.566l1.394,0.435l0.174-2.35l-0.87-2.438l0.607-0.871l3.136,0.436l2.679,0.17l-0.417-3.392l1.219-5.396l0.783-2.262  l-0.261-1.394l1.795-3.362l-0.274-0.729l-1.03,0.38l-1.394-0.696l-0.349-1.132l-0.696-1.915l-1.218-1.132l-1.394-0.348l-0.871-2.612  l-1.573-3.41l-2.264-1.046l-1.133-1.044l-0.696-1.394l-1.132-1.044l-1.218-0.696l-1.218-1.566l-1.654-1.219l-2.438-0.957  l-0.26-0.784l-1.306-1.566l-0.261-0.783l-1.828-2.676l-1.895,0.054l-2.021-1.27l-0.765-0.696l-0.174-0.957l0.469-1.045l1.199-0.598  l-0.341-1.13L361.994,383.132z"/>
<path id="4500000" sodipodi:nodetypes="cccccccccccccccccccccccccccccccccccccccccccccccccccccc" fill="#808080" stroke="#FFFFFF" stroke-width="0.75" d="  M411.882,411.461l-0.956,0.521l-1.394-0.696l-0.348-1.131l-0.697-1.916l-1.218-1.132l-1.394-0.349l-0.87-2.61l-1.48-3.222  l-2.262-1.044l-1.133-1.045l-0.696-1.394l-1.131-1.044l-1.219-0.695l-1.218-1.567l-1.655-1.219l-2.438-0.957l-0.26-0.784  l-1.305-1.566l-0.262-0.783l-1.828-2.786l-1.829,0.088l-2.176-1.306l-0.696-0.697l-0.174-0.956l0.435-1.046l1.22-0.521l-0.275-1.232  l3.106-1.258l4.908-2.472l4.187-0.435l8.678-0.228l1.42,1.011l0.904,1.808l2.315-0.328l6.79-0.783l1.567,0.435l6.789,4.092  l5.443,4.373l-2.919,2.938l-1.393,3.308l-0.262,3.396l-0.872,0.436l-0.608,1.479l-1.307,0.35l-1.131,1.914l-1.48,1.48l-1.218,1.827  l-0.87,0.437l-1.916,1.827l-1.567,0.087l0.523,1.741l-2.699,2.96L411.882,411.461z"/>
<path id="2100000" sodipodi:nodetypes="ccccccccccccccccccccccccccccccccccccccccccccccccccccccccccccccccccccccccccccccccccccccc" fill="#808080" stroke="#FFFFFF" stroke-width="0.75" d="  M390.91,350.672l-1.234,1.294l-1.926,2.151l-2.652,2.942l-0.655,0.923l-0.033,1.132l-2.359,1.165l-3.046,1.829l-3.894,0.969  l-27.928,2.637l-8.486,0.957l-2.489,0.276l-2.083-0.014l-0.123,2.271l-4.403,0.078l-3.744,0.349l-4.301-0.032l0.651-0.711  l1.346-0.829l0.122-1.724l0.492-0.983l-0.865-1.368l0.432-1.025l1.218-0.958l1.132-0.349l1.48,0.696l1.916,0.696l0.609-0.174  l0.087-1.219l-0.696-1.305l0.174-1.219l1.044-0.784l1.393-0.348l0.871-0.349l-0.435-0.958l-0.349-1.043l0.812-0.537  c0.002-0.02,0.675-1.896,0.667-1.97l1.644-0.796l2.865-0.522l2.419-0.261l0.75,0.876l0.823,0.469l0.856-1.674l1.716-0.69  l1.187,0.799l0.222,0.538l0.633-0.143l-0.088-1.591l1.686-0.941l1.157-0.577l0.823,0.894l1.787-0.024l0.316-0.846l-0.197-1.218  l1.4-2.153l2.572-1.852l0.379-2.604l1.575-0.245l2.041-0.888l1.316-0.92l-0.106-0.842l-0.616-0.784l0.305-1.612l2.253-0.063  l1.239-0.401l1.802,0.77l1.106,2.35l2.764,0.007l1.104,1.188l0.871-0.079l1.4-0.688l2.82,0.31l1.387,0.117l0.909-1.107l1.41-0.769  l1.013-0.38l0.348,1.527l1.101,0.569l1.423,1.121l0.063,3.056l0.436,0.846l1.394,0.839l0.415,1.235l2.24,1.85l0.973,1.952  L390.91,350.672z"/>
<path id="0100000" sodipodi:nodetypes="cccccccccccccccccccccccccccccccccccccccccccccccc" fill="#808080" stroke="#FFFFFF" stroke-width="0.75" d="  M339.926,439.595l-0.803-7.711l-1.479-10.098l0.087-7.572l0.435-16.713l-0.087-8.966l0.089-3.456l23.953-1.949l-0.08,1.175  l0.087,1.132l0.348,1.829l1.828,4.264l1.306,5.312l0.783,3.308l0.871,2.611l0.784,3.743l1.131,3.396l1.393,1.827l0.26,1.827  l1.045,0.437l0.087,1.131l-0.958,2.611l-0.261,1.74l-0.087,1.046l0.871,2.35l0.174,2.874l-0.435,1.305l0.348,0.436l0.783,0.435  l0.177,1.555l-3.013-0.19l-3.657,0.349l-13.753,1.566l-5.605,0.759l-0.119,1.549l0.958,0.957l1.393,1.046l0.312,4.272l-2.984,1.385  l-1.479-0.175l1.479-1.044v-0.521l-1.654-3.222l-1.218-0.349l-0.784,2.351l-0.696,1.479l-0.349-0.087L339.926,439.595  L339.926,439.595z"/>
<path id="2200000" sodipodi:nodetypes="ccccccccccccccccccccccccccccccccccccccccccccscccccccccccccccccccccccccccccsccccccccccccccccccccccccccccc" fill="#808080" stroke="#FFFFFF" stroke-width="0.75" d="  M327.358,438.92l-1.769-1.705l0.544-2.961l-0.356-0.482l-4.987,0.542l-13.477,0.248l-0.368-1.29l0.491-4.553l1.786-3.201  l2.709-4.681l-0.309-1.29l0.676-0.367l0.247-1.051l-1.231-1.108l-0.06-1.045l-0.986-2.34l-0.079-3.413l-29.87,0.498l0.016,5.154  l0.369,5.047l0.369,2.094l1.354,2.216l0.493,2.708l2.338,2.954l0.124,1.724l0.369,0.369l-0.369,4.556l-1.601,2.707l0.861,1.108  l-0.369,1.354l-0.369,3.939l-0.739,1.723l0.066,1.947l2.523-0.817l6.523,0.11l5.571,1.916l3.482,0.609l2.001-0.783l1.741,0.609  l1.74,0.522l0.436-1.132l-1.741-0.61l-1.393,0.263l-1.48-0.872c0,0,0.087-0.695,0.435-0.784c0.349-0.086,1.654-0.521,1.654-0.521  l0.958,0.783l0.958-0.521l1.741,0.349l0.783,1.305l0.174,1.219l2.437,0.174l0.958,0.958l-0.435,0.87l-0.696,0.436l0.871,0.87  l4.527,1.916l1.915-0.696l0.522-1.306l1.394-0.349l0.957-0.782l0.696,0.521l0.436,1.566l-1.219,0.435l0.348,0.349l1.829-0.696  l1.218-1.827l0.435-0.262l-1.132-0.174l0.436-0.871l-0.087-0.783l1.132-0.261l0.61-0.696l0.348,0.435c0,0-0.086,1.654,0.348,1.654  c0.435,0,2.263,0.349,2.263,0.349l2.176,1.045l0.522,0.783h1.568l0.609,0.522l1.219-1.655v-0.783h-0.696l-1.829-1.479l-3.133-0.435  l-1.741-1.219l0.61-1.479l1.218,0.175l0.086-0.349l-0.957-0.522v-0.262h1.741l0.958-1.653l-0.697-1.046l-0.173-1.479l-0.784,0.086  l-1.044,1.132l-0.348,1.394l-1.655-0.349l-0.522-0.956l0.958-1.046l1.024-1.855l-0.571-1.298L327.358,438.92z"/>
<path id="2800000" sodipodi:nodetypes="ccccccccccccccccccccccccccccccccccccccccccccccccccc" fill="#808080" stroke="#FFFFFF" stroke-width="0.75" d="  M340.062,439.018l-0.137,0.677h-2.785l-0.784-0.435l-1.131-0.175l-3.656,1.046l-0.958-0.436l-1.393,2.264l-0.594,0.418l-0.604-1.34  l-0.615-2.093l-1.847-1.724l0.615-2.985l-0.369-0.491l-0.985,0.122l-4.263,0.47l-13.217,0.202l-0.414-1.199l0.47-4.511l1.679-3.054  l2.814-4.924l-0.239-1.31l0.665-0.354l0.235-1.032l-1.248-1.12l-0.062-1.154l-0.989-2.219l-0.059-3.211l0.715-1.335l-0.12-1.84  l-0.953-1.659l0.822-0.798l-0.847-1.347l0.247-0.889l0.849-3.515l1.338-1.097l-0.346-1.274l1.97-2.854l1.525-0.73l-0.119-0.901  l-0.155-0.905l1.549-2.998l1.263-0.663l0.083-0.481l20.106-2.09l0.1,3.383l0.086,8.966l-0.434,16.713l-0.088,7.571l1.479,10.099  L340.062,439.018z"/>
<path id="1900000" sodipodi:nodetypes="ccccccccccccccccccccccccccccccccccccccccccccccccccccccc" fill="#808080" stroke="#FFFFFF" stroke-width="0.75" d="  M306.48,299.15l0.142,1.501l1.197,0.311l0.514,0.659l0.269,1l2.042,1.809l0.37,1.287l-0.365,1.845l-0.851,1.739l-0.431,1.477  l-1.169,0.861l-0.924,0.309l-3.004,1.002l-0.75,2.073l0.392,0.737l0.991,0.907l-0.152,2.173l-0.949,0.828l-0.416,0.885l0.068,1.494  l-1.015,0.248l-0.876,0.594l-0.15,0.729l0.15,1.139l-0.835,0.601l-1.33-1.687l-0.68-1.319l-35.394,1.354l-0.495,0.089l-1.105-2.432  l-0.123-3.569l-0.861-2.217l-0.369-2.83l-1.231-1.971l-0.493-2.584l-1.477-4.062l-0.615-2.893l-0.739-1.171l-0.861-1.476  l1.052-2.608l0.739-3.078l-1.477-1.108l-0.246-1.477l0.493-1.354h0.923l44.504-0.685l0.45,2.253l1.213,0.841l0.138,0.767  l-1.092,1.825l0.102,1.726l1.354,2.044l1.362,0.698l1.657,0.271L306.48,299.15z"/>
<path id="2700000" sodipodi:nodetypes="ccccccccccccccccccccccccccccccccccccccccccccccccccccccccccccccccccccccccccccccccccccccccccc" fill="#808080" stroke="#FFFFFF" stroke-width="0.75" d="  M255.891,261.05l-0.247-4.554l-0.985-3.94l-0.984-7.263L253.428,240l-0.984-1.846l-0.861-2.708v-5.54l0.369-2.092l-0.981-2.936  l16.225,0.019l0.174-4.439l0.348-0.087l1.219,0.261l1.044,0.436l0.435,2.96l0.784,3.308l0.871,0.871h2.611l0.175,0.783l3.395,0.174  v1.132h2.611l0.174-0.697l0.609-0.609l1.219-0.348l0.697,0.522h1.566l2.089,1.393l2.872,1.306l1.306,0.261l0.261-0.522l0.784-0.261  l0.261,1.566l1.393,0.696l0.261-0.261l0.697,0.087v1.132l1.393,0.522h1.654l0.871-0.436l1.741-1.741l1.393-0.261l0.435,0.958  l0.262,0.696h0.522l0.522-0.435l4.788-0.174l0.958,1.653h0.348l0.385-0.583l2.391-0.2l-0.33,1.228l-2.121,0.989l-4.978,2.187  l-2.571,1.081l-1.653,1.393l-1.306,1.916l-1.219,2.089l-0.958,0.435l-2.437,2.698l-0.697,0.087l-2.33,1.484l-1.327,1.726  l-0.123,1.718l0.052,4.331l-0.741,0.91l-2.736,2.023l-1.201,3.222l1.546,1.202l0.366,1.738l-0.999,1.744l0.093,2.018l0.198,3.624  l1.63,1.617h1.792l1.019,1.687l1.819,0.271l2.078,3.054l3.815,2.217l1.154,1.547l0.361,3.468l-43.728,0.617l-0.183-19.21  l-0.246-1.601l-2.216-1.846l-0.616-0.985v-0.862l1.109-0.861l0.738-0.738L255.891,261.05z"/>
<path id="4000000" sodipodi:nodetypes="ccccccccccccccccccccccccccccccccccccccccccccccccccccccccccccccc" fill="#808080" stroke="#FFFFFF" stroke-width="0.75" d="  M204.795,364.432l-8.983-0.686l-0.474,5.896l11.02,0.622l17.26,0.702l-1.258,13.149l-0.246,9.602l0.124,0.861l2.338,1.97  l1.108,0.615l0.37-0.123l0.369-1.107l0.738,0.984h1.108v-0.739l1.477,0.739l-0.246,2.093l2.216,0.123l1.354,0.614l2.216,0.369  l1.354,0.985l1.23-1.107l1.847,0.369l1.354,1.846h0.492v1.231l1.231,0.369l1.231-1.23l0.984,0.369h1.354l0.492,1.354l3.393,1.119  l0.739-0.369l0.985-2.216h0.615l0.616,1.107l2.216,0.369l1.97,0.74l1.6,0.492l0.985-0.492l0.37-1.354h2.339l1.108,0.491l1.478-1.107  h0.616l0.369,0.861h2.216l0.861-1.107l0.984,0.246l1.109,1.354l1.723,0.984l1.723,0.492l1.045,0.603l-0.209-20.038l-0.739-5.91  l-0.087-4.777l-0.775-3.52l-0.419-3.866l-0.037-2.055l-6.535,0.171l-24.99-0.247l-24.25-1.106L204.795,364.432z"/>
<path id="4800000" sodipodi:nodetypes="ccccccccccccccccccccccccccccccccccccccccccccccccccccccccccccccccccccccccccccccccccccccccccccccccccccccccccccccccccccccccccccccccccccccccccccccccccccccccccccccccccccccccccccccccccccccccccc" fill="#808080" stroke="#FFFFFF" stroke-width="0.75" d="  M194.629,369.683l12.218,0.584l16.741,0.616l-1.257,12.629l-0.16,9.774l0.037,1.121l2.338,2.057l1.07,0.779l0.638-0.302l0.201-0.979  l0.614,0.972l1.137,0.023l-0.001-0.779l0.899,0.521l0.613,0.22l-0.194,2.137l2.201,0.051l1.576,0.644l2.129,0.283l1.282,1.119  l1.144-1.117l2.006,0.331l1.196,1.735l0.579,0.172l-0.086,1.06l1.192,0.427l1.255-1.108l1.148,0.332l1.2,0.019l0.502,1.312  l3.407,1.138l0.858-0.412l0.802-2.249h0.184l0.488,0.044l0.663,1.113l2.116,0.358l1.796,0.604l1.844,0.643l0.991-0.524l0.385-1.354  l2.397,0.023l0.974,0.501l1.508-1.135l0.595,0.024l0.458,0.863h2.184l0.818-1.092l1.005,0.22l1.047,1.293l1.896,1.102l1.539,0.436  l0.815,0.432l1.317,1.075l1.639-0.714l1.45,0.611l0.303,3.288l-0.021,5.224l0.369,5.134l0.378,1.942l1.44,2.38l0.483,2.665  l2.271,2.982l0.105,1.694l0.402,0.422l-0.394,4.513l-1.546,2.695l0.826,1.159l-0.339,1.26l-0.361,3.987l-0.81,1.797l0.158,1.886  l-3.05,0.854l-5.31,2.438l-0.523,1.044l-1.391,1.045l-1.131,0.784l-0.697,0.434l-3.047,2.874l-1.48,1.131l-2.873,1.741l-3.046,1.307  l-3.395,1.827l-0.958,0.784l-3.134,1.915l-1.828,0.348l-2.09,2.96l-2.176,0.175l-0.522,1.044l1.219,1.045l-0.783,2.96l-0.697,2.436  l-0.609,2.091l-0.435,2.438l0.435,1.306l0.958,3.743l0.522,3.307l0.958,1.48l-0.522,0.783l-1.654,1.045l-3.046-2.089l-2.96-0.61  l-0.696,0.263l-1.742-0.35l-2.263-1.654l-2.786-0.609l-4.091-1.828l-1.131-2.089l-0.696-3.481l-1.741-1.045l-0.348-1.219  l0.348-0.348l0.174-1.828l-0.696-0.349l-0.349-0.522l0.696-2.351l-0.871-1.218l-1.741-0.697l-1.829-2.35l-1.915-3.569l-2.263-1.393  l0.087-1.045l-2.873-6.615l-0.435-2.263l-0.958-1.045l-0.086-0.783l-3.221-2.872l-1.394-1.654v-0.61l-1.393-1.131l-3.656-0.609  l-4.004-0.349l-1.653-1.219l-2.438,0.957l-1.915,0.783l-1.219,1.74l-0.521,2.003l-2.351,3.308l-1.305,1.307l-1.393-0.523  l-0.958-0.609l-1.044-0.349l-2.089-1.218v-0.349l-0.958-1.044l-2.785-1.133l-4.004-4.178l-1.219-2.525v-4.352l-1.741-3.481  l-0.261-1.48l-0.871-0.521l-0.609-1.132l-2.699-1.132l-0.696-0.87l-3.83-4.267l-0.696-1.74l-2.524-1.219l-0.784-2.351l-1.393-1.566  l-1.044-0.261l-0.35-2.518l4.309,0.369l15.634,1.476l15.634,0.862l1.202-10.479l2.093-29.913l0.861-10.095l0.739,0.016   M248.598,493.329l-0.304-3.831l-1.479-3.875l-0.305-3.786l0.828-4.439l1.784-3.698l1.871-2.916l1.698-1.916l0.348,0.13  l-2.567,3.569l-2.351,3.526l-1.088,3.568l-0.174,2.786l0.479,3.307l1.393,3.873l0.261,2.786l0.087,0.783L248.598,493.329z"/>
<path id="3500000" sodipodi:nodetypes="ccccccccccccccc" fill="#808080" stroke="#FFFFFF" stroke-width="0.75" d="M155.155,419.994  l-0.417-2.558l4.654,0.284l16.246,1.586l14.683,0.909l1.192-10.072l2.077-30.086l0.936-10.441l0.846,0.07l0.444-6.012l-56.001-5.727  l-9.422,64.849l8.325,1.07l0.696-5.397L155.155,419.994z"/>
<path id="2000000" sodipodi:nodetypes="ccccccccccccccccccccc" fill="#808080" stroke="#FFFFFF" stroke-width="0.75" d="M273.467,366.348  l-6.794,0.109l-24.816-0.246l-23.992-1.107l-13.262-0.678l2.096-34.781l11.891,0.363l21.694,0.453l23.854,0.532h2.744l1.176,1.164  l1.087-0.012l0.882,0.545l-0.034,1.621l-0.984,0.929l-0.179,1.202l0.993,1.832l1.59,1.721l1.253,0.869l0.7,6.053L273.467,366.348z"/>
<path id="3100000" sodipodi:nodetypes="ccccccccccccccccccccccccccccccccccccc" fill="#808080" stroke="#FFFFFF" stroke-width="0.75" d="  M261.738,321.29l1.74,3.779l-0.069,1.24l1.862,2.958l1.464,1.696h-2.718l-23.413-0.505l-21.961-0.479l-11.982-0.423l0.578-11.483  l-17.402-1.572l2.338-23.697l8.372,0.554l10.833,0.615l9.602,0.616l12.802,0.615l5.786-0.246l1.107,1.23l2.585,1.601l0.615,0.492  l2.339-0.738l2.093-0.246l1.478-0.124l0.984,0.739l2.185,0.861l1.601,0.86l0.246,0.862l0.492,1.108h0.985l0.429,0.025l0.482,2.521  l1.572,4.56l0.309,2.022l1.359,2.033l0.306,2.753l0.866,2.283L261.738,321.29z"/>
<path id="4600000" sodipodi:nodetypes="ccccccccccccccccccccccccccccccccccccc" fill="#808080" stroke="#FFFFFF" stroke-width="0.75" d="  M256.542,301.541l-0.026-0.312l-1.559-2.608l1.001-2.537l0.804-3.17l-1.497-1.121l-0.208-1.477l0.427-1.375l1.717,0.008  l-0.066-2.695l-0.18-16.247l-0.333-2.028l-2.193-1.794l-0.529-0.902l-0.034-0.866l1.089-0.823l0.826-0.898l0.131-1.43l-31.369-0.862  l-29.507-1.856l-2.867,34.294l7.856,0.486l10.742,0.649l9.553,0.5l12.803,0.702l6.452-0.229l1.058,1.21l2.798,1.751l0.412,0.391  l2.445-0.784l3.522-0.331l0.901,0.72l2.265,0.859l1.586,0.881l0.214,0.799l0.561,1.207L256.542,301.541z"/>
<path id="3800000" sodipodi:nodetypes="ccccccccccccccccc" fill="#808080" stroke="#FFFFFF" stroke-width="0.75" d="M255.927,261.102  l-0.332-4.542l-0.902-3.67l-1.019-7.012l-0.246-5.916l-0.938-1.657l-0.945-2.797l0.017-5.624l0.336-2.059l-0.987-2.944  l-15.423-0.304l-10.01-0.348l-14.276-0.696l-12.354-1.149l-3.766,36.171l29.579,1.801L255.927,261.102z"/>
<path id="5600000" sodipodi:nodetypes="ccccc" fill="#808080" stroke="#FFFFFF" stroke-width="0.75" d="M194.044,268.832l-57.475-7.246  l-7.583,47.631l60.987,7.314L194.044,268.832z"/>
<path id="3000000" sodipodi:nodetypes="ccccccccccccccccccccccccccccccccccccccccccccccc" fill="#808080" stroke="#FFFFFF" stroke-width="0.75" d="  M198.8,222.36l-16.517-1.513l-15.755-1.915l-15.755-2.176l-17.41-2.873l-9.923-1.828l-17.62-3.732l-2.412,11.494l1.846,4.062  l-0.738,2.462l0.984,2.462l1.724,0.738l2.488,5.799l1.451,1.71l0.247,0.616l1.846,0.615l0.247,1.108l-3.816,9.479v1.354l1.354,1.723  h0.493l2.585-1.601l0.369-0.615l0.861,0.369l-0.123,2.832l1.477,6.77l1.6,1.354l0.492,0.369l0.985,1.231l-0.246,1.847l0.369,1.847  l0.615,0.491l1.231-1.23h1.477l1.723,0.861l1.354-0.492h2.216l1.97,0.861l1.478-0.246l0.246-1.601l1.601-0.37l0.739,0.739  l0.246,1.723l0.768,0.449l1.017-5.941l57.477,7.232L198.8,222.36z"/>
<path id="0800000" sodipodi:nodetypes="ccccc" fill="#808080" stroke="#FFFFFF" stroke-width="0.75" d="M204.627,364.508l2.64-46.481  l-61.054-6.808l-6.576,47.351L204.627,364.508z"/>
<path id="1600000" sodipodi:nodetypes="ccccccccccccccccccccccccccccccccccccccccccccccccccccccccccc" fill="#808080" stroke="#FFFFFF" stroke-width="0.75" d="  M79.948,286.712l4.723-18.964l0.739-2.277l1.354-3.201l-0.677-1.231l-1.354,0.062l-0.431-0.554l0.246-0.615l0.185-1.662l2.401-2.954  l0.984-0.246l0.616-0.614l0.307-1.724l0.492-0.37l2.093-3.139l2.092-2.339l0.124-2.031l-1.847-1.416l-0.826-2.37l7.336-34.106  l7.279,1.36l-2.374,11.514l1.917,4.03l-0.851,2.509l1.061,2.5l1.689,0.676l2.065,5.146l1.892,2.389l0.273,0.615l1.799,0.616  l0.198,1.129l-3.754,9.356l-0.089,1.382l1.417,1.789l0.487-0.026l2.645-1.629l0.365-0.589l0.841,0.354l-0.149,2.883l1.474,6.775  l2.11,1.712l0.905,1.165l-0.386,2.2l0.574,1.511l0.572,0.588l1.335-1.266l1.534,0.025l1.571,0.72l1.497-0.368l2.043-0.086  l2.142,0.861l1.478-0.16l0.267-1.635l1.58-0.412l0.678,0.816l0.237,1.585l0.767,0.653l-4.516,28.865  C131.079,296.514,83.714,287.522,79.948,286.712z"/>
<path id="4900000" sodipodi:nodetypes="cccccccccc" fill="#808080" stroke="#FFFFFF" stroke-width="0.75" d="M139.727,358.661  l-45.095-6.393l11.085-60.597l25.189,4.708l-0.8,5.724l-1.244,7.094l4.203,0.499l8.834,0.973l4.422,0.461L139.727,358.661z"/>
<path id="0400000" sodipodi:nodetypes="cccccccccccccccccccccccccccccccccccccccccccccc" fill="#808080" stroke="#FFFFFF" stroke-width="0.75" d="  M78.027,397.71l-1.415,1.163l-0.174,0.783l0.261,0.522l10.185,5.745l6.529,4.091l7.921,4.612l9.053,5.397l6.615,1.307l13.435,1.456  l9.291-64.144l-45.087-6.416l-1.665,8.836l-0.865,0.009l-0.923,1.416l-1.354-0.062l-0.678-1.478l-1.477-0.184l-0.492-0.616h-0.493  l-0.492,0.308l-1.046,0.555l-0.062,3.754l-0.122,0.924l-0.309,6.771l-0.8,1.169l-0.309,1.785l1.477,2.646l0.677,3.14l0.431,0.553  l0.554,0.309l-0.062,1.232l-0.862,0.738l-1.847,0.923l-1.046,1.046l-0.8,1.971l-0.309,2.646l-1.539,1.478l-1.107,0.37l0.073,0.445  l-0.246,0.925l0.246,0.43l1.97,0.308l-0.309,1.478l-0.799,1.169L78.027,397.71z"/>
<path id="3200000" sodipodi:nodetypes="cccccccccccccccccc" fill="#808080" stroke="#FFFFFF" stroke-width="0.75" d="M105.747,291.608  l-12.728,69.363l-0.987,0.188l-0.847,1.296l-1.278,0.005l-0.792-1.477l-1.41-0.204l-0.415-0.598l-0.56-0.027l-1.496,0.886  l-0.167,3.652l-0.195,3.111l-0.188,4.627l-0.78,1.124l-1.313-0.577l-37.196-56.107l10.225-36.392L105.747,291.608z"/>
<path id="4100000" sodipodi:nodetypes="ccccccccccccccccccccccccccccccccccccccccccccccccccc" fill="#808080" stroke="#FFFFFF" stroke-width="0.75" d="  M80.079,286.2l4.765-18.739l0.566-2.277l1.268-3.027l-0.332-0.626l-1.354-0.025l-0.69-0.9l0.246-0.787l0.271-1.749l2.4-2.954  l0.985-0.592l0.615-0.614l0.8-1.92l2.179-3.053l1.92-2.08l0.124-1.858l-1.761-1.329l-0.96-2.5l-6.818-1.945l-8.125-1.908  l-8.31,0.061l-0.247-0.738l-2.954,1.108l-2.4-0.309l-1.292-0.861l-0.678,0.37l-2.523-0.124l-0.924-0.738l-2.83-1.109l-0.431,0.061  l-2.339-0.799l-1.046,0.984l-3.324-0.185l-3.201-2.216l0.37-0.431l0.123-4.186l-1.23-2.093l-2.215-0.308l-0.37-1.354l-1.267-0.251  l-3.122,1.108l-1.219,3.482l-1.741,5.397l-1.74,3.481l-2.699,7.573l-3.482,7.312l-4.353,6.79l-1.044,1.566l-0.436,4.613l0.208,6.505  L80.079,286.2z"/>
<path id="5300000" sodipodi:nodetypes="cccccccccccccccccccccccccccccccccccccccccccccccccccccccccccccccccccccccccccccccccccccscccccc" fill="#808080" stroke="#FFFFFF" stroke-width="0.75" d="  M54.961,195.784l2.35,0.783l5.223,1.48l4.614,1.044l10.793,3.047l12.36,3.046l8.197,1.727l-7.34,34.238l-6.701-1.898l-8.35-1.923  l-8.201,0.018l-0.245-0.725l-3.015,1.174l-2.474-0.396l-1.156-0.854l-0.707,0.354l-2.55-0.075l-0.915-0.727l-2.833-1.138  l-0.396,0.079l-2.363-0.821l-1.019,0.979l-3.374-0.162l-3.19-2.221l0.419-0.502l0.065-4.134l-1.229-2.068l-2.216-0.326l-0.365-1.352  l-1.226-0.246l-1.915,0.662l-1.219-1.733l0.175-1.566l1.479-0.174l0.871-2.176l-1.394-0.609l0.087-2.002l2.35-0.349l-1.479-1.479  l-0.783-3.83l0.348-1.566v-4.266l-0.958-1.741l1.218-5.048l1.132,0.261l1.305,1.566l1.48,1.393l1.741,1.044l2.438,1.132l1.654,0.348  l1.566,0.784l1.828,0.522l1.219-0.087v-1.306l0.696-0.609l1.131-0.696l0.174,0.609l0.174,0.958l-1.219,0.261l-0.174,1.131  l0.958,0.784l0.609,1.306l0.349,1.044l0.783-0.087l0.087-0.696l-0.522-0.697l-0.261-1.74l0.435-0.958l-0.348-0.783v-1.219  l0.957-1.915l-0.609-1.393l-1.306-2.611l0.174-0.435L54.961,195.784z M49.87,199.003l1.087-0.087l0.261,0.74l0.828-0.871h1.262  l0.436,0.827l-0.827,0.914l0.349,0.436l-0.391,1.088l-0.741,0.217c0,0-0.479,0.044-0.479-0.13c0-0.174,0.783-1.392,0.783-1.392  l-0.915-0.305l-0.174,0.783l-0.392,0.349l-0.827-1.219L49.87,199.003z"/>
<path id="0600000" sodipodi:nodetypes="ccccccccccccccccccccccccccccccccccccccccccccccccccccccccccccccccccccccccccccccccccccccccccccccccccccccccccccccccccccccccccccccccscc" fill="#808080" stroke="#FFFFFF" stroke-width="0.75" d="  M77.911,397.479l2.121-0.263l0.8-1.083l0.293-1.584l-1.913-0.317l-0.277-0.36l0.257-1.094l-0.086-0.317l1.036-0.334l1.638-1.525  l0.313-2.689l0.743-1.832l1.047-1.166l1.895-0.855l0.891-0.864l0.037-1.136l-0.535-0.312l-0.551-0.578l-0.622-3.148l-1.446-2.601  l0.304-1.888l-1.303-0.554l-37.186-56.095l10.177-36.4l-36.12-8.452l-0.811,2.548l-0.087,4.005l-2.785,6.354l-1.654,1.393  l-0.174,0.61l-0.958,0.435l-0.784,2.263l-0.435,1.741l1.48,2.263l0.871,2.264l0.609,1.914l-0.175,3.482l-0.957,1.654l-0.348,3.134  l-0.522,2.001l0.958,2.09l1.479,2.437l1.22,2.611l0.696,2.176l-0.174,1.741l-0.175,0.262v1.131l3.047,3.396l-0.261,1.306  l-0.348,1.218l-0.349,1.045l0.087,4.439l1.132,2.002l1.044,1.393l1.479,0.26l0.522,1.48l-0.609,1.915l-1.131,0.871h-0.609  l-0.436,2.088l0.261,1.567l1.741,2.35l0.871,2.873l0.783,2.523l0.696,1.654l1.828,3.134l0.783,1.393l0.261,1.566l0.871,0.522v1.306  l-0.435,1.044l-0.957,3.83l-0.261,1.045l1.306,1.48l2.263,0.26l2.438,0.957l2.089,1.132h1.567l1.566,1.653l1.393,2.611l0.609,1.22  l2.089,1.131l2.611,0.436l0.784,1.132l0.348,1.74l-0.783,0.35l0.174,0.521l1.741,0.436l1.479,0.088l1.702-0.909l2.089,2.263  l0.435,1.219l1.393,2.264l0.174,1.739v5.05l0.261,0.957l5.397,0.783l10.619,1.479L77.911,397.479z M30.454,373.94l0.696,0.825  l-0.087,0.698l-1.74-0.044l-0.305-0.652l-0.348-0.784L30.454,373.94z M31.499,373.94l0.652-0.35l1.915,1.133l1.654,0.651  l-0.479,0.35l-2.438-0.132l-0.87-0.869L31.499,373.94z M42.641,384.604l0.958,1.262l0.435,0.522l0.827,0.304l0.305-0.783  l-0.522-0.957l-1.436-1.088l-0.566,0.087V384.604L42.641,384.604z M41.857,389.26l0.958,1.697l0.652,1.044l-0.783,0.132  l-0.696-0.652c0,0-0.391-0.784-0.391-1.002s0-1.176,0-1.176L41.857,389.26z"/>
<g id="6600000" />
<g id="7200000" />
<g id="7800000" />
</svg>
