<?xml version="1.0" encoding="utf-8"?>
<!-- Generator: Adobe Illustrator 13.0.2, SVG Export Plug-In . SVG Version: 6.00 Build 14948)  -->
<!DOCTYPE svg PUBLIC "-//W3C//DTD SVG 1.1//EN" "http://www.w3.org/Graphics/SVG/1.1/DTD/svg11.dtd">
<svg version="1.1" id="Layer_1" xmlns="http://www.w3.org/2000/svg" xmlns:xlink="http://www.w3.org/1999/xlink" x="0px" y="0px"
	 width="500px" height="400px" viewBox="-27.05 -72.305 500 400" enable-background="new -27.05 -72.305 500 400"
	 xml:space="preserve">
<polygon id="2028140" fill="#808080" stroke="#FFFFFF" stroke-width="0.75"  points="440.67,133.921 440.646,133.563 440.646,133.468 
	440.455,130.276 440.431,129.871 440.408,129.109 440.359,128.275 440.312,127.583 440.312,127.132 440.312,127.107 
	440.241,125.702 440.217,125.06 440.217,124.869 440.169,123.987 440.169,123.94 440.169,123.892 440.121,123.415 440.098,122.724 
	439.979,120.675 439.979,120.557 439.907,119.438 439.883,119.342 439.859,118.723 439.859,118.651 439.812,117.985 
	439.812,117.865 439.788,117.532 439.764,117.27 439.718,116.555 439.692,116.055 439.598,114.745 439.598,114.435 439.526,113.22 
	439.501,112.982 439.479,112.529 439.479,112.292 439.455,112.1 439.431,111.458 439.24,107.812 439.217,107.623 439.217,107.289 
	439.217,107.194 439.192,106.74 439.097,105.025 439.002,103.192 439.002,103.072 438.954,102.096 438.905,101.405 438.905,101.167 
	438.812,99.547 438.812,99.333 438.764,98.618 438.764,98.332 438.716,97.689 438.62,95.33 438.62,95.021 438.62,94.926 
	438.572,93.735 438.478,91.567 438.455,91.328 438.455,91.21 438.455,91.186 438.455,91.043 438.455,90.947 438.406,89.828 
	438.335,88.445 438.335,87.97 438.264,86.612 438.239,85.683 438.239,85.588 438.217,85.326 438.145,84.348 438.122,84.159 
	438.122,83.849 438.097,83.468 438.072,83.086 438.072,83.015 438.049,82.944 438.002,82.039 437.977,81.586 437.977,81.419 
	437.977,81.371 437.931,80.657 437.931,80.609 437.906,80.419 437.906,80.204 437.882,79.752 437.859,79.179 437.811,78.704 
	437.835,78.655 437.811,78.489 437.787,78.37 437.764,77.917 437.74,77.536 437.74,77.441 437.715,76.917 437.691,76.774 
	437.691,76.631 437.691,76.56 437.669,76.369 437.669,76.321 437.644,75.869 437.644,75.702 437.621,75.606 437.621,75.583 
	437.621,75.535 437.621,75.464 437.621,75.273 437.621,75.177 437.621,75.153 437.597,74.701 437.597,74.678 437.573,74.272 
	437.573,74.224 437.549,73.916 437.549,73.844 437.549,73.772 437.549,73.605 437.525,73.391 437.501,72.939 437.501,72.795 
	437.501,72.582 437.478,72.558 437.478,72.391 437.478,72.152 437.454,72.033 437.454,71.938 437.454,71.795 437.454,71.557 
	437.43,71.295 437.43,71.247 437.43,71.224 437.43,71.128 437.43,71.104 437.406,70.89 437.406,70.795 437.406,70.58 
	437.382,70.152 437.335,69.58 437.335,69.484 437.31,69.08 437.215,67.579 437.215,67.198 437.264,67.007 437.501,66.603 
	437.859,66.126 437.955,65.84 437.811,64.911 437.597,64.768 437.335,64.649 436.977,64.625 436.644,64.673 436.262,64.911 
	435.5,65.173 434.977,65.125 434.403,64.935 434.476,64.291 434.262,63.601 434,63.433 433.452,63.315 433.118,63.386 
	432.713,63.72 432.237,64.053 431.879,64.269 431.427,64.387 430.808,64.411 430.546,64.362 430.046,64.196 429.497,63.815 
	429.116,63.196 429.093,63.125 428.83,62.529 428.711,62.362 428.639,62.313 428.568,62.267 428.521,62.195 428.402,62.148 
	428.235,62.124 428.187,62.124 427.926,62.195 427.688,62.243 427.64,62.267 427.615,62.267 427.068,62.267 426.615,62.148 
	426.473,62.076 426.067,61.718 425.973,61.6 425.9,61.433 425.9,61.41 425.9,61.266 425.9,61.243 425.9,61.219 425.996,61.004 
	426.186,60.6 426.186,60.575 426.234,60.456 426.258,60.337 426.258,60.289 426.281,60.075 426.211,59.837 426.163,59.598 
	426.163,59.575 426.114,59.504 425.948,59.17 425.9,59.146 425.9,59.123 425.758,58.979 425.711,58.908 425.615,58.812 
	425.448,58.669 425.305,58.551 425.186,58.456 424.971,58.336 424.662,58.145 424.187,57.932 424.137,57.907 424.042,57.883 
	423.804,57.812 423.613,57.74 423.542,57.693 423.447,57.646 423.399,57.598 423.162,57.431 423.042,57.288 422.756,56.954 
	422.708,56.908 422.566,56.692 422.494,56.597 422.494,56.549 422.471,56.526 422.376,56.312 422.326,56.217 422.305,56.145 
	422.256,55.979 422.209,55.859 422.185,55.811 422.16,55.691 422.137,55.525 422.065,55.216 422.042,55.144 421.994,54.763 
	421.875,53.93 421.827,53.596 421.827,53.406 421.852,53.381 421.852,53.357 421.852,53.309 421.875,53.215 421.945,53.072 
	421.971,53.047 422.185,52.81 422.326,52.667 422.446,52.619 422.732,52.547 422.994,52.357 423.162,52.119 423.257,51.785 
	423.233,51.522 423.162,51.381 423.162,51.356 423.138,51.261 423.113,51.238 422.923,50.904 422.756,50.786 422.708,50.76 
	422.59,50.713 422.518,50.713 422.422,50.69 422.376,50.713 422.351,50.713 422.113,50.76 421.731,51.023 421.446,51.214 
	421.302,51.286 421.113,51.332 420.66,51.309 420.635,51.309 420.589,51.309 420.422,51.261 420.373,51.214 420.302,51.167 
	420.184,51.071 419.993,50.809 419.969,50.69 419.922,50.451 419.922,50.069 419.851,49.88 419.66,49.689 419.492,49.57 
	418.969,49.403 418.944,49.38 418.897,49.355 418.826,49.285 416.729,49.403 415.396,49.474 415.014,49.499 414.871,49.499 
	414.109,49.545 413.967,49.545 413.467,49.57 413.347,49.57 413.252,49.594 413.204,49.57 412.918,49.594 412.608,49.618 
	412.323,49.618 411.395,49.666 410.321,49.713 410.298,49.736 410.273,49.736 410.061,49.736 409.512,49.761 409.131,49.785 
	408.678,49.808 408.726,50.261 408.75,50.737 408.797,51.522 408.797,51.643 408.797,51.738 408.797,51.977 408.797,52.095 
	408.797,52.262 408.797,52.477 408.821,52.785 408.821,53 408.845,53.406 408.916,54.478 409.012,56.192 409.106,58.003 
	409.106,58.026 409.106,58.241 409.131,58.313 409.131,58.384 409.154,59.194 409.178,59.598 409.203,60.289 409.249,61.219 
	409.32,62.601 409.345,62.838 409.345,62.862 409.345,63.005 409.345,63.125 409.369,63.505 409.369,63.767 409.393,63.982 
	409.416,64.482 409.439,65.078 409.465,65.268 409.487,65.625 409.487,65.673 409.56,67.174 409.583,67.508 409.607,68.08 
	409.226,68.127 409.226,68.437 409.249,68.603 409.298,69.793 409.32,70.009 409.32,70.224 409.345,70.271 409.345,70.39 
	409.393,71.319 409.416,71.557 409.416,71.604 409.416,71.748 409.535,73.439 409.583,74.535 409.654,75.821 409.701,76.655 
	409.75,77.108 409.773,77.536 409.82,78.441 409.82,78.489 410.321,78.465 410.536,78.417 410.679,78.322 410.75,78.18 
	410.798,77.894 410.822,77.584 410.845,77.417 410.894,77.37 410.964,77.346 411.395,77.584 411.584,77.703 411.607,77.703 
	412.656,78.18 412.751,78.18 413.013,77.941 413.133,77.87 413.371,77.822 413.489,77.846 413.634,78.084 413.729,78.37 
	413.823,78.537 413.941,78.68 414.085,78.727 414.181,78.75 414.371,78.727 414.586,78.846 414.729,78.799 414.942,78.68 
	415.014,78.583 415.109,78.37 415.085,78.155 414.968,77.988 414.776,77.846 414.634,77.346 414.657,77.179 414.776,77.012 
	415.062,76.869 415.133,76.846 415.371,76.774 415.633,76.774 415.8,76.846 416.038,77.012 416.038,77.108 416.062,77.655 
	416.087,78.131 416.182,79.466 416.204,79.871 416.204,80.204 416.229,80.395 416.253,80.896 416.277,81.348 416.324,81.991 
	416.324,82.276 416.372,83.373 416.372,83.468 416.42,84.11 416.42,84.373 416.444,84.564 416.444,84.802 416.515,85.945 
	416.539,86.851 416.562,86.921 416.562,87.087 416.586,87.779 416.611,87.921 416.611,88.232 416.682,89.352 416.729,90.519 
	416.754,90.924 416.754,91.067 416.777,91.423 416.801,91.876 416.825,92.377 414.634,92.473 414.323,92.496 414.133,92.52 
	411.631,92.639 411.441,92.663 410.702,92.686 410.536,92.71 410.132,92.71 409.916,92.734 409.82,92.734 408.75,92.781 
	408.606,92.781 408.511,92.781 407.963,92.806 407.868,92.83 407.773,92.83 407.725,92.83 406.963,92.876 406.678,92.876 
	406.582,92.876 406.082,92.925 405.915,92.925 405.866,92.925 405.104,92.948 404.604,92.997 404.342,92.997 402.484,93.092 
	402.223,93.092 401.817,93.115 399.769,93.209 399.173,93.234 398.649,93.258 398.315,93.281 397.125,93.354 395.362,93.425 
	395.314,93.425 395.338,93.687 395.409,95.258 395.434,96.165 395.1,96.188 395.123,97.022 395.147,97.712 395.147,97.999 
	395.172,98.475 395.195,98.902 395.291,100.714 395.338,101.667 395.385,102.548 395.385,102.81 395.409,103.143 395.505,105.288 
	395.528,105.836 395.553,106.026 395.553,106.217 395.576,106.669 395.576,106.956 395.6,107.123 395.671,108.837 395.743,109.861 
	395.743,109.98 395.767,110.338 395.767,110.457 395.767,110.696 395.862,112.338 395.862,112.625 395.886,112.792 395.886,113.029 
	395.91,113.339 395.934,113.958 395.981,114.84 395.981,114.911 396.005,115.388 396.243,115.364 396.458,115.364 396.481,115.364 
	396.91,115.315 397.22,115.315 398.054,115.292 398.506,115.27 398.649,115.244 399.578,115.197 399.603,115.197 403.199,115.031 
	404.128,114.982 404.628,114.959 405.485,114.936 405.892,114.911 405.938,114.911 406.438,114.888 406.82,114.864 407.177,114.84 
	407.915,114.792 408.296,114.792 408.654,114.769 409.345,114.72 409.465,114.72 410.035,114.697 410.512,114.673 411.251,114.625 
	411.298,114.625 412.132,114.602 412.155,114.602 412.37,114.578 413.061,114.554 413.967,114.507 414.608,114.482 414.848,114.482 
	415.109,114.458 415.204,114.458 415.729,114.435 416.92,114.387 417.516,114.34 417.587,115.673 417.611,116.079 417.683,117.102 
	417.707,118.009 417.825,119.413 417.849,119.867 417.849,119.962 417.849,120.08 417.896,121.105 417.944,121.677 417.969,122.224 
	417.992,122.511 417.992,122.605 417.54,122.629 417.468,122.629 417.658,127.417 417.707,128.061 417.729,128.323 417.777,129.228 
	417.777,129.275 417.825,130.132 417.896,131.872 417.896,131.991 417.896,132.158 417.944,132.896 418.016,134.73 418.04,135.016 
	418.063,135.636 418.087,136.565 419.492,136.493 422.185,136.35 424.137,136.279 424.162,136.279 425.162,136.231 426.687,136.136 
	427.497,136.088 428.711,136.041 429.974,135.946 430.521,135.921 430.997,135.897 431.379,135.874 433.213,135.779 
	433.285,135.779 433.356,135.779 434.023,135.731 434.07,135.731 434.977,135.66 435.882,135.636 436.215,135.612 436.786,135.588 
	439.312,135.469 439.455,135.469 440.741,135.374 "/>
<polyline id="2029940" fill="#808080" stroke="#FFFFFF" stroke-width="0.75"  points="406.2,73.605 406.867,73.582 407.129,73.557 407.725,73.535 
	407.939,73.51 408.178,73.51 408.75,73.487 408.869,73.463 408.964,73.463 409.154,73.463 409.535,73.439 409.583,74.535 
	409.654,75.821 409.701,76.655 409.75,77.108 409.773,77.536 409.82,78.441 409.82,78.489 410.321,78.465 410.536,78.417 
	410.679,78.322 410.75,78.18 410.798,77.894 410.822,77.584 410.845,77.417 410.894,77.37 410.964,77.346 411.395,77.584 
	411.584,77.703 411.607,77.703 412.656,78.18 412.751,78.18 413.013,77.941 413.133,77.87 413.371,77.822 413.489,77.846 
	413.634,78.084 413.729,78.37 413.823,78.537 413.941,78.68 414.085,78.727 414.181,78.75 414.371,78.727 414.586,78.846 
	414.729,78.799 414.942,78.68 415.014,78.583 415.109,78.37 415.085,78.155 414.968,77.988 414.776,77.846 414.634,77.346 
	414.657,77.179 414.776,77.012 415.062,76.869 415.133,76.846 415.371,76.774 415.633,76.774 415.8,76.846 416.038,77.012 
	416.038,77.108 416.062,77.655 416.087,78.131 416.182,79.466 416.204,79.871 416.204,80.204 416.229,80.395 416.253,80.896 
	416.277,81.348 416.324,81.991 416.324,82.276 416.372,83.373 416.372,83.468 416.42,84.11 416.42,84.373 416.444,84.564 
	416.444,84.802 416.515,85.945 416.539,86.851 416.562,86.921 416.562,87.087 416.586,87.779 416.611,87.921 416.611,88.232 
	416.682,89.352 416.729,90.519 416.754,90.924 416.754,91.067 416.777,91.423 416.801,91.876 416.825,92.377 414.634,92.473 
	414.323,92.496 414.133,92.52 411.631,92.639 411.441,92.663 410.702,92.686 410.536,92.71 410.132,92.71 409.916,92.734 
	409.82,92.734 408.75,92.781 408.606,92.781 408.511,92.781 407.963,92.806 407.868,92.83 407.773,92.83 407.725,92.83 
	406.963,92.876 406.678,92.876 406.582,92.876 406.082,92.925 405.915,92.925 405.866,92.925 405.104,92.948 404.604,92.997 
	404.342,92.997 402.484,93.092 402.223,93.092 401.817,93.115 399.769,93.209 399.173,93.234 398.649,93.258 398.315,93.281 
	397.125,93.354 395.362,93.425 395.314,93.425 395.267,92.496 395.218,91.328 395.195,90.661 395.172,90.065 395.147,89.781 
	395.147,89.756 395.123,89.303 395.052,87.565 395.052,87.494 395.028,87.018 394.981,86.112 394.981,86.088 394.981,86.041 
	394.933,85.159 394.933,85.134 394.91,84.706 394.91,84.254 394.886,83.729 394.861,82.848 394.837,82.443 394.79,81.514 
	394.742,80.609 394.742,80.395 394.719,80.228 394.719,80.014 394.695,79.68 394.695,79.537 394.671,79.013 394.671,78.846 
	394.647,78.775 394.623,77.846 394.576,76.917 394.576,76.869 394.552,76.774 394.528,76.011 394.528,75.821 394.504,75.749 
	394.48,75.13 394.456,74.654 394.456,74.535 394.456,74.463 394.434,73.939 394.409,73.605 394.409,73.439 394.552,73.51 
	394.719,73.557 394.957,73.487 395.314,73.295 395.553,73.129 396.338,72.628 396.672,72.534 396.959,72.462 397.458,72.415 
	397.626,72.486 398.077,72.51 399.006,72.844 399.197,72.939 399.292,73.058 399.649,73.487 399.84,73.629 400.126,73.749 
	401.008,74.177 401.27,74.393 401.627,74.463 401.697,74.511 402.175,74.582 402.532,74.558 402.698,74.582 402.771,74.558 
	403.151,74.368 403.318,74.32 403.39,74.344 403.747,74.106 404.2,73.82 404.485,73.868 404.723,74.153 404.723,74.463 
	404.843,74.44 404.891,74.415 404.962,74.344 404.962,74.13 404.938,74.011 404.796,73.772 404.771,73.605 404.867,73.463 
	405.057,73.463 405.271,73.582 405.296,73.653 405.533,73.653 406.2,73.605 "/>
<polygon id="2031740" fill="#808080" stroke="#FFFFFF" stroke-width="0.75"  points="368.373,69.46 368.373,69.032 368.276,66.912 368.276,66.816 
	368.276,66.745 368.229,65.769 368.182,64.458 368.182,64.173 368.134,63.1 368.134,62.981 368.11,62.362 368.087,61.767 
	368.087,61.695 368.062,60.789 368.016,59.669 368.016,59.432 367.991,58.956 367.943,57.836 367.92,57.122 367.92,57.026 
	367.849,55.311 367.825,54.834 367.8,54.5 367.8,54.478 367.8,54.453 367.8,54.382 367.754,53.477 367.658,51.643 367.658,51.476 
	367.658,51.453 367.538,48.832 367.492,47.998 367.443,46.688 367.372,45.259 367.301,43.877 367.301,43.852 367.277,43.4 
	367.277,43.329 367.277,43.21 367.253,42.448 365.681,42.519 365.609,42.519 365.586,42.519 364.919,42.543 363.799,42.59 
	363.608,42.59 362.894,42.615 362.822,42.615 358.963,42.757 358.796,42.782 358.487,42.782 358.367,42.782 357.533,42.829 
	357.486,42.829 353.564,42.972 352.158,43.043 352.135,43.043 351.921,43.043 351.73,43.067 350.801,43.091 350.442,43.115 
	350.252,43.115 350.206,43.115 349.467,43.163 348.133,43.21 347.681,43.21 346.988,43.233 346.774,43.257 346.561,43.257 
	345.869,43.282 344.107,43.329 344.082,43.329 343.201,43.377 342.749,43.377 342.082,43.4 341.771,43.424 341.749,43.424 
	341.558,43.424 341.51,43.424 341.2,43.448 341.129,43.448 341.058,43.448 341.033,43.448 340.819,43.448 340.581,43.473 
	338.127,43.544 337.747,43.567 337.531,43.567 337.08,43.567 337.055,43.567 336.793,43.59 336.627,43.59 335.96,43.614 
	335.744,43.614 335.127,43.639 334.841,43.639 333.958,43.687 333.745,43.687 333.721,43.687 333.482,43.71 331.291,43.781 
	330.361,43.806 330.195,43.806 328.337,43.877 327.932,43.901 327.669,43.901 325.432,43.973 325.287,43.973 324.979,43.996 
	324.883,43.996 324.358,43.996 324.24,43.996 324.049,44.021 323.668,44.021 323.072,44.043 323.097,44.52 323.145,45.759 
	323.145,46.378 323.167,47.593 323.192,48.237 323.192,48.283 323.192,49.428 323.216,49.594 323.216,50.309 323.216,50.786 
	323.239,51.047 323.239,51.238 323.264,53.072 323.264,53.524 323.312,54.905 323.358,55.859 323.358,56.073 323.358,56.097 
	323.358,56.479 323.405,57.669 323.405,57.883 323.43,58.599 323.43,58.646 323.454,59.457 323.5,60.433 323.5,60.552 323.5,60.861 
	323.5,61.313 323.525,61.695 323.525,62.005 323.525,62.219 323.573,63.196 323.573,63.672 323.573,63.72 323.597,64.029 
	323.597,64.339 323.597,64.506 323.597,64.816 323.597,64.935 323.62,65.435 323.646,65.864 323.646,66.078 323.668,66.459 
	323.716,67.34 323.74,68.293 323.764,68.626 323.764,69.127 323.764,69.27 323.812,70.724 323.834,71.415 323.716,71.415 
	323.764,72.2 323.787,73.201 323.812,73.272 323.812,73.557 323.834,74.106 323.834,74.32 323.907,76.512 323.907,76.917 
	323.907,76.94 323.931,77.489 323.931,77.822 323.954,79.179 323.979,79.657 324.001,80.108 324.001,80.704 324.025,80.919 
	324.025,81.133 324.049,81.371 324.049,81.443 324.049,81.966 324.335,81.848 324.598,81.633 324.646,81.539 324.62,81.324 
	324.646,81.252 324.788,81.443 325.025,81.371 325.121,81.229 325.192,81.205 325.241,81.229 325.287,81.395 325.36,81.466 
	325.526,81.419 325.598,81.299 325.598,81.252 325.574,81.205 325.598,81.086 325.836,81.038 325.836,81.299 325.765,81.348 
	325.765,81.419 325.765,81.539 325.836,81.586 325.859,82.372 325.859,82.443 325.883,82.968 325.883,83.419 325.955,85.707 
	325.955,85.754 325.955,85.85 325.955,86.041 325.979,86.421 325.979,86.492 325.979,86.684 325.979,86.803 326.003,87.565 
	326.027,87.875 327.36,87.827 327.433,87.85 327.574,87.827 327.694,87.827 327.789,87.827 329.601,87.779 329.838,87.779 
	330.028,87.756 330.48,87.756 331.053,87.731 331.388,87.731 331.721,87.708 331.815,87.708 332.244,87.683 332.649,87.683 
	334.054,87.613 334.507,87.613 336.293,87.541 336.722,87.517 336.746,87.517 337.627,87.494 337.89,87.47 339.246,87.422 
	339.413,87.422 340.319,87.398 340.771,87.375 342.512,87.326 342.534,87.326 344.345,87.279 345.012,87.254 346.584,87.208 
	346.537,86.16 346.465,84.468 346.441,83.563 346.441,83.277 346.371,81.704 346.371,81.348 346.346,80.775 346.322,79.871 
	346.298,79.418 346.251,78.013 346.227,77.083 346.203,76.25 346.418,76.227 349.323,76.131 349.966,76.107 350.849,76.083 
	351.11,76.083 351.135,76.083 351.516,76.059 351.49,75.249 351.49,75.202 351.49,75.153 351.444,74.654 351.42,74.059 
	351.42,73.939 351.396,73.201 351.396,73.129 351.396,73.033 351.301,70.58 351.371,70.58 351.349,69.937 351.349,69.914 
	351.324,68.864 351.301,67.913 351.61,68.198 351.753,68.389 351.849,68.437 352.039,68.437 352.158,68.365 352.349,68.08 
	352.539,67.913 352.682,67.817 352.801,67.817 352.873,67.913 352.873,68.056 352.73,68.698 352.801,68.864 353.016,68.961 
	353.111,68.984 353.373,69.008 353.444,68.984 353.635,68.626 353.73,68.484 353.873,68.484 353.993,68.626 354.112,68.675 
	354.206,68.603 354.23,68.508 354.16,68.175 354.278,67.222 354.326,67.078 354.35,67.031 354.517,66.698 354.827,66.411 
	355.208,66.221 355.278,66.197 355.517,66.197 355.851,66.34 356.613,67.15 356.828,67.269 356.97,67.293 357.09,67.269 
	357.208,67.174 357.653,66.579 357.844,66.245 357.963,65.959 357.963,65.935 358.082,65.578 358.178,65.411 358.344,65.245 
	358.605,65.125 358.796,65.173 359.034,65.364 359.129,65.506 359.178,65.673 359.272,65.792 359.511,65.84 359.916,65.864 
	360.131,65.84 360.297,65.673 360.464,65.411 360.535,65.34 360.75,65.316 361.106,65.364 361.179,65.388 361.25,65.459 
	361.321,65.578 361.346,65.864 361.321,66.269 361.369,66.411 361.416,66.482 361.512,66.507 361.822,66.364 362.44,66.221 
	362.87,66.221 363.323,66.316 363.347,66.316 363.894,66.507 364.181,66.459 364.252,66.411 364.395,66.245 364.489,65.84 
	364.561,65.648 364.633,65.602 364.703,65.578 364.895,65.625 365.014,65.745 365.204,66.03 365.323,66.149 365.49,66.126 
	365.705,66.007 365.896,66.007 365.942,66.007 366.133,66.221 366.276,66.436 366.3,66.436 366.324,66.482 366.371,66.531 
	366.681,66.864 366.729,67.055 366.896,67.388 367.205,67.77 367.277,67.913 367.301,68.007 367.301,68.127 367.277,68.198 
	367.205,68.222 367.038,68.246 366.991,68.222 366.729,68.007 366.657,67.96 365.991,67.913 365.801,68.031 365.729,68.127 
	365.681,68.222 365.656,68.389 365.705,68.508 365.823,68.626 366.133,68.723 366.324,68.723 366.752,68.913 366.991,69.127 
	367.301,69.247 367.968,69.222 368.087,69.294 368.182,69.46 368.11,69.937 368.254,70.152 368.254,69.937 368.276,69.937 
	368.396,69.937 "/>
<polyline id="2041140" fill="#808080" stroke="#FFFFFF" stroke-width="0.75"  points="399.222,13.6 399.864,13.576 400.722,13.529 400.722,13.6 
	400.722,13.934 400.769,14.124 400.816,14.22 401.031,14.505 401.675,14.887 402.39,15.196 402.651,15.363 403.057,15.911 
	403.271,16.245 403.652,16.626 404.08,16.84 404.295,16.888 404.557,16.888 405.081,16.815 405.271,16.84 405.391,16.888 
	405.843,17.126 406.01,17.411 406.058,17.793 406.01,18.15 405.866,18.602 405.866,18.627 405.866,18.65 405.843,18.746 
	405.843,18.817 405.843,18.889 405.866,18.913 405.866,18.984 405.892,19.056 406.058,19.27 406.082,19.317 406.177,19.389 
	406.2,19.389 406.319,19.436 406.392,19.46 406.487,19.508 406.678,19.556 407.082,19.532 407.177,19.508 407.248,19.484 
	407.439,19.389 407.511,19.364 408.034,19.056 408.083,19.031 408.13,19.031 408.225,19.008 408.249,19.008 408.296,19.008 
	408.391,19.031 408.464,19.056 408.559,19.08 408.63,19.103 408.75,19.174 408.869,19.317 408.94,19.556 408.94,19.722 
	408.916,20.104 408.964,20.318 409.083,20.58 409.249,20.771 409.369,20.866 409.701,21.033 410.773,21.271 411.488,21.604 
	411.536,21.628 411.798,21.699 411.965,21.699 412.037,21.676 413.323,21.462 413.823,21.39 414.037,21.342 414.181,21.223 
	414.301,21.15 414.347,21.104 414.467,20.938 414.562,20.675 414.562,20.651 414.586,20.604 414.586,20.555 414.586,20.533 
	414.586,20.484 414.537,20.031 414.514,20.031 414.514,19.985 414.514,19.937 414.537,19.842 414.537,19.793 414.586,19.698 
	414.608,19.651 414.681,19.508 414.824,19.317 414.824,19.294 414.848,19.27 415.085,19.103 415.204,19.08 415.3,19.056 
	415.538,19.056 415.562,19.08 416.038,19.198 416.182,19.246 416.204,19.246 416.3,19.246 416.349,19.246 416.42,19.246 
	416.706,19.198 416.777,19.174 417.443,18.913 417.635,18.865 417.683,18.865 418.016,18.913 418.397,19.056 418.803,19.317 
	418.849,19.342 419.111,19.604 419.183,19.77 419.23,19.913 419.23,20.127 419.207,20.388 419.088,20.604 419.064,20.626 
	418.731,21.009 418.658,21.176 418.587,21.39 418.587,21.676 418.731,21.962 418.849,22.08 419.421,22.581 419.873,22.867 
	419.873,22.891 419.969,22.915 420.207,22.962 420.231,22.986 420.35,22.986 420.469,22.986 420.54,22.986 420.994,22.937 
	421.041,22.937 421.208,22.962 421.327,23.009 421.375,23.058 421.612,23.249 421.731,23.391 421.779,23.486 421.804,23.533 
	421.827,23.558 421.852,23.772 421.923,24.225 421.923,24.606 421.923,24.629 421.898,24.677 421.731,25.202 421.731,25.249 
	421.589,25.439 421.302,25.63 421.185,25.653 421.041,25.678 420.398,25.749 420.231,25.773 419.66,25.82 419.635,25.82 
	419.611,25.844 419.54,25.868 419.444,25.94 419.421,25.964 419.398,25.964 419.373,25.986 419.303,26.059 419.278,26.082 
	419.207,26.249 419.183,26.273 419.183,26.536 419.207,26.75 419.23,26.772 419.254,26.821 419.254,26.869 419.492,27.131 
	419.517,27.155 419.564,27.177 419.564,27.203 419.684,27.298 419.777,27.368 419.826,27.394 420.064,27.56 420.136,27.631 
	420.373,27.702 420.589,27.702 420.66,27.702 420.66,27.679 420.708,27.655 420.897,27.584 420.922,27.584 420.994,27.56 
	421.017,27.535 421.16,27.417 421.208,27.368 421.23,27.368 421.684,26.964 421.804,26.893 422.113,26.797 422.279,26.75 
	422.351,26.75 422.471,26.821 422.566,26.916 422.685,27.083 422.804,27.345 422.899,27.941 422.875,28.202 422.78,28.607 
	422.446,29.155 422.209,29.441 421.923,29.608 421.898,29.632 421.827,29.68 421.471,29.821 421.136,29.894 421.113,29.894 
	421.041,29.894 420.994,29.894 420.946,29.894 420.78,29.87 420.73,29.847 420.684,29.847 420.589,29.821 420.54,29.799 
	420.184,29.656 419.684,29.322 419.588,29.275 419.183,28.941 419.136,28.893 418.873,28.726 418.683,28.679 418.611,28.656 
	418.563,28.656 418.492,28.656 418.35,28.679 418.136,28.87 417.969,29.037 417.92,29.084 417.896,29.132 417.896,29.155 
	417.777,29.346 417.729,29.488 417.683,29.56 417.683,29.584 417.683,29.632 417.658,29.68 417.658,29.75 417.658,29.87 
	417.683,30.061 417.683,30.132 417.849,31.084 417.849,31.133 417.849,31.3 417.874,32.038 417.849,32.275 417.802,32.443 
	417.587,32.776 417.562,32.776 417.325,32.967 417.207,33.015 417.158,33.039 417.087,33.061 416.896,33.086 416.801,33.133 
	416.754,33.133 416.515,33.158 416.444,33.158 416.396,33.158 416.229,33.182 416.062,33.205 416.015,33.229 415.967,33.229 
	415.824,33.3 415.729,33.324 415.586,33.42 415.443,33.562 415.3,33.706 415.158,33.919 414.753,34.729 414.681,34.944 
	414.418,35.277 414.204,35.706 414.062,36.183 413.989,36.54 413.989,36.634 412.68,36.683 412.585,36.683 411.822,36.73 
	411.847,36.516 411.965,36.444 411.847,36.016 411.465,35.944 411.369,35.825 411.274,35.706 411.203,35.563 411.155,35.515 
	411.107,35.515 411.084,35.635 411.084,35.706 411.061,35.611 411.061,35.397 411.035,34.944 410.607,34.968 409.131,35.04 
	408.535,35.063 408.369,35.063 408.345,35.063 408.249,35.063 407.344,35.11 407.034,35.135 405.676,35.181 402.96,35.325 
	400.292,35.468 400.197,33.349 400.079,31.084 400.031,30.037 400.031,29.965 399.959,28.584 399.888,27.226 399.888,26.939 
	399.888,26.869 399.816,25.844 399.816,25.797 399.745,24.462 399.721,23.772 399.721,23.558 399.697,23.271 399.649,22.629 
	399.625,21.724 399.603,21.199 399.578,21.104 399.53,19.889 399.483,18.96 399.459,18.532 399.459,18.389 399.34,16.22 
	399.34,16.196 399.34,16.125 399.316,15.744 399.292,15.149 399.222,13.6 "/>
<polygon id="2045820" fill="#808080" stroke="#FFFFFF" stroke-width="0.75"  points="409.416,71.604 409.416,71.557 409.393,71.319 409.345,70.39 
	409.345,70.271 409.32,70.224 409.32,70.009 409.298,69.793 409.249,68.603 409.226,68.437 409.226,68.127 409.607,68.08 
	409.583,67.508 409.56,67.174 409.487,65.673 409.487,65.625 409.465,65.268 409.439,65.078 409.416,64.482 409.393,63.982 
	409.369,63.767 409.369,63.505 409.345,63.125 409.345,63.005 409.345,62.862 409.345,62.838 409.32,62.601 409.249,61.219 
	409.203,60.289 409.178,59.598 409.154,59.194 409.131,58.384 409.131,58.313 409.106,58.241 409.106,58.026 409.106,58.003 
	409.012,56.192 408.916,54.478 408.845,53.406 408.821,53 408.821,52.785 408.797,52.477 408.797,52.262 408.797,52.095 
	408.797,51.977 408.797,51.738 408.797,51.643 408.797,51.522 408.75,50.737 408.726,50.261 408.678,49.808 408.249,49.833 
	408.178,49.833 407.82,49.856 406.51,49.904 406.462,49.904 406.438,49.928 406.033,49.928 405.63,49.952 405.557,49.952 
	405.129,49.976 404.676,49.999 404.2,50.023 403.771,50.023 403.318,50.047 402.438,50.069 401.961,50.095 401.697,50.095 
	401.079,50.142 400.722,50.165 400.627,50.165 400.174,50.165 399.721,50.19 399.459,50.19 399.197,50.213 398.84,50.213 
	398.649,50.237 398.102,50.261 397.934,50.261 397.244,50.285 397.029,50.285 396.814,50.309 396.147,50.332 395.243,50.357 
	394.886,50.38 394.814,50.38 394.361,50.428 393.98,50.451 393.29,50.499 393.241,50.499 393.004,50.499 392.551,50.547 
	392.312,50.547 391.765,50.594 391.717,50.594 390.098,50.713 389.954,50.713 389.835,48.237 389.835,47.879 389.787,47.069 
	389.787,46.784 389.739,46.14 389.739,45.926 389.739,45.711 389.669,44.163 389.645,44.021 389.645,43.948 389.621,43.4 
	389.621,43.329 389.598,42.495 389.525,41.47 389.812,41.47 389.787,40.662 389.764,40.399 389.572,35.969 388.668,36.016 
	387.786,36.064 387.667,36.064 387.405,36.087 386.882,36.11 386.715,36.11 386.166,36.135 385.977,36.135 384.213,36.206 
	383.761,36.23 383.309,36.254 382.165,36.301 381.83,36.301 381.735,36.326 381.546,36.326 381.497,36.326 381.449,36.326 
	380.64,36.373 380.164,36.397 379.64,36.421 378.83,36.468 378.901,38.469 378.949,39.208 378.949,39.661 378.996,41.019 
	379.021,41.519 379.044,41.947 378.878,41.947 376.781,42.043 376.639,42.043 373.685,42.162 373.519,42.186 372.731,42.209 
	369.636,42.328 369.183,42.353 368.276,42.399 367.372,42.448 367.253,42.448 367.277,43.21 367.277,43.329 367.277,43.4 
	367.301,43.852 367.301,43.877 367.372,45.259 367.443,46.688 367.492,47.998 367.538,48.832 367.658,51.453 367.658,51.476 
	367.658,51.643 367.754,53.477 367.8,54.382 367.8,54.453 367.8,54.478 367.8,54.5 367.825,54.834 367.849,55.311 367.92,57.026 
	367.92,57.122 367.943,57.836 367.991,58.956 368.016,59.432 368.016,59.669 368.062,60.789 368.087,61.695 368.087,61.767 
	368.11,62.362 368.134,62.981 368.134,63.1 368.182,64.173 368.182,64.458 368.229,65.769 368.276,66.745 368.276,66.816 
	368.276,66.912 368.373,69.032 368.373,69.46 368.396,69.937 368.276,69.937 368.254,69.937 368.254,70.152 368.11,69.937 
	368.182,69.46 368.087,69.294 367.968,69.222 367.301,69.247 366.991,69.127 366.752,68.913 366.324,68.723 366.133,68.723 
	365.823,68.626 365.705,68.508 365.656,68.389 365.681,68.222 365.729,68.127 365.801,68.031 365.991,67.913 366.657,67.96 
	366.729,68.007 366.991,68.222 367.038,68.246 367.205,68.222 367.277,68.198 367.301,68.127 367.301,68.007 367.277,67.913 
	367.205,67.77 366.896,67.388 366.729,67.055 366.681,66.864 366.371,66.531 366.324,66.482 366.3,66.436 366.276,66.436 
	366.133,66.221 365.942,66.007 365.896,66.007 365.705,66.007 365.49,66.126 365.323,66.149 365.204,66.03 365.014,65.745 
	364.895,65.625 364.703,65.578 364.633,65.602 364.561,65.648 364.489,65.84 364.395,66.245 364.252,66.411 364.181,66.459 
	363.894,66.507 363.347,66.316 363.323,66.316 362.87,66.221 362.44,66.221 361.822,66.364 361.512,66.507 361.416,66.482 
	361.369,66.411 361.321,66.269 361.346,65.864 361.321,65.578 361.25,65.459 361.179,65.388 361.106,65.364 360.75,65.316 
	360.535,65.34 360.464,65.411 360.297,65.673 360.131,65.84 359.916,65.864 359.511,65.84 359.272,65.792 359.178,65.673 
	359.129,65.506 359.034,65.364 358.796,65.173 358.605,65.125 358.344,65.245 358.178,65.411 358.082,65.578 357.963,65.935 
	357.963,65.959 357.844,66.245 357.653,66.579 357.208,67.174 357.09,67.269 356.97,67.293 356.828,67.269 356.613,67.15 
	355.851,66.34 355.517,66.197 355.278,66.197 355.208,66.221 354.827,66.411 354.517,66.698 354.35,67.031 354.326,67.078 
	354.278,67.222 354.16,68.175 354.23,68.508 354.206,68.603 354.112,68.675 353.993,68.626 353.873,68.484 353.73,68.484 
	353.635,68.626 353.444,68.984 353.373,69.008 353.111,68.984 353.016,68.961 352.801,68.864 352.73,68.698 352.873,68.056 
	352.873,67.913 352.801,67.817 352.682,67.817 352.539,67.913 352.349,68.08 352.158,68.365 352.039,68.437 351.849,68.437 
	351.753,68.389 351.61,68.198 351.301,67.913 351.324,68.864 351.349,69.914 351.349,69.937 351.371,70.58 351.301,70.58 
	351.396,73.033 351.396,73.129 351.396,73.201 351.42,73.939 351.42,74.059 351.444,74.654 351.49,75.153 351.49,75.202 
	351.49,75.249 351.516,76.059 351.135,76.083 351.11,76.083 350.849,76.083 349.966,76.107 349.323,76.131 346.418,76.227 
	346.203,76.25 346.227,77.083 346.251,78.013 346.298,79.418 346.322,79.871 346.346,80.775 346.371,81.348 346.371,81.704 
	346.441,83.277 346.441,83.563 346.465,84.468 346.537,86.16 346.584,87.208 346.607,88.112 346.607,88.208 346.632,88.756 
	346.68,89.828 346.68,89.947 348.49,89.898 349.396,89.876 349.848,89.876 351.182,89.781 352.063,89.781 352.063,90.114 
	352.206,93.02 352.206,93.163 352.229,93.638 352.253,94.425 352.253,94.663 352.302,95.164 352.302,95.235 353.206,95.188 
	353.349,95.188 354.088,95.164 354.897,95.116 354.969,95.116 355.184,95.116 355.589,95.092 355.971,95.092 357.629,95.021 
	358.534,94.996 358.796,94.996 359.32,94.974 360.773,94.926 362.131,94.854 363.036,94.83 364.442,94.759 364.822,94.734 
	365.729,94.711 365.918,94.711 367.515,94.64 367.849,94.616 368.421,94.592 369.11,94.568 369.324,94.568 370.302,94.521 
	370.54,94.521 373.78,94.378 373.805,95.307 373.923,97.141 373.709,97.141 373.805,99.214 373.827,99.427 373.875,100.595 
	373.923,101.714 373.923,102.025 373.946,102.62 373.971,103.263 373.971,103.358 373.994,103.859 374.018,104.262 374.113,106.503 
	374.161,108.098 374.186,108.242 374.28,110.813 374.328,111.671 374.328,111.743 374.352,112.862 374.375,113.578 374.924,113.554 
	375.257,113.529 376.21,113.506 376.781,113.483 376.829,113.483 376.972,113.483 377.092,113.483 377.71,113.458 377.973,113.435 
	378.663,113.411 378.878,113.411 379.545,113.387 380.665,113.316 380.688,113.316 381.569,113.291 383.332,113.196 
	384.689,113.124 385.119,113.102 385.167,113.102 386.049,113.077 386.215,113.054 386.953,113.029 387.381,113.006 
	387.811,112.982 388.716,112.933 390.003,112.887 390.883,112.839 391.408,112.815 392.266,112.768 392.312,112.768 
	392.551,112.768 395.553,112.625 395.862,112.625 395.862,112.338 395.767,110.696 395.767,110.457 395.767,110.338 395.743,109.98 
	395.743,109.861 395.671,108.837 395.6,107.123 395.576,106.956 395.576,106.669 395.553,106.217 395.553,106.026 395.528,105.836 
	395.505,105.288 395.409,103.143 395.385,102.81 395.385,102.548 395.338,101.667 395.291,100.714 395.195,98.902 395.172,98.475 
	395.147,97.999 395.147,97.712 395.123,97.022 395.1,96.188 395.434,96.165 395.409,95.258 395.338,93.687 395.314,93.425 
	395.267,92.496 395.218,91.328 395.195,90.661 395.172,90.065 395.147,89.781 395.147,89.756 395.123,89.303 395.052,87.565 
	395.052,87.494 395.028,87.018 394.981,86.112 394.981,86.088 394.981,86.041 394.933,85.159 394.933,85.134 394.91,84.706 
	394.91,84.254 394.886,83.729 394.861,82.848 394.837,82.443 394.79,81.514 394.742,80.609 394.742,80.395 394.719,80.228 
	394.719,80.014 394.695,79.68 394.695,79.537 394.671,79.013 394.671,78.846 394.647,78.775 394.623,77.846 394.576,76.917 
	394.576,76.869 394.552,76.774 394.528,76.011 394.528,75.821 394.504,75.749 394.48,75.13 394.456,74.654 394.456,74.535 
	394.456,74.463 394.434,73.939 394.409,73.605 394.409,73.439 394.552,73.51 394.719,73.557 394.957,73.487 395.314,73.295 
	395.553,73.129 396.338,72.628 396.672,72.534 396.959,72.462 397.458,72.415 397.626,72.486 398.077,72.51 399.006,72.844 
	399.197,72.939 399.292,73.058 399.649,73.487 399.84,73.629 400.126,73.749 401.008,74.177 401.27,74.393 401.627,74.463 
	401.697,74.511 402.175,74.582 402.532,74.558 402.698,74.582 402.771,74.558 403.151,74.368 403.318,74.32 403.39,74.344 
	403.747,74.106 404.2,73.82 404.485,73.868 404.723,74.153 404.723,74.463 404.843,74.44 404.891,74.415 404.962,74.344 
	404.962,74.13 404.938,74.011 404.796,73.772 404.771,73.605 404.867,73.463 405.057,73.463 405.271,73.582 405.296,73.653 
	405.533,73.653 406.2,73.605 406.867,73.582 407.129,73.557 407.725,73.535 407.939,73.51 408.178,73.51 408.75,73.487 
	408.869,73.463 408.964,73.463 409.154,73.463 409.535,73.439 409.416,71.748 "/>
<polygon id="2048620" fill="#808080" stroke="#FFFFFF" stroke-width="0.75"  points="348.585,174.227 348.537,173.583 348.514,172.606 
	348.49,171.844 348.49,171.749 348.49,171.605 348.466,171.415 348.466,170.891 348.442,169.581 348.418,168.771 348.418,168.675 
	348.37,167.58 348.348,166.842 348.323,165.936 348.323,165.913 348.299,165.626 348.251,164.96 348.204,164.077 348.204,163.744 
	348.157,162.602 348.157,162.291 348.133,161.792 348.133,161.601 348.108,161.196 348.084,160.648 348.062,159.504 
	348.037,158.957 348.037,158.647 348.037,158.6 347.989,157.718 347.967,157.027 347.917,155.956 347.895,155.145 347.871,154.717 
	347.871,154.479 347.847,153.931 347.822,153.24 347.822,153.096 347.822,152.834 347.799,152.454 347.775,151.381 347.775,151.263 
	347.752,150.333 347.728,149.452 347.633,146.141 347.633,145.426 347.608,144.879 347.608,144.831 347.585,143.925 
	347.562,142.782 347.513,141.663 347.37,136.97 347.37,136.66 347.37,136.613 343.702,136.755 342.486,136.803 342.344,136.827 
	342.225,136.803 341.7,136.827 341.654,136.827 341.438,136.827 340.725,136.851 339.485,136.898 338.532,136.945 337.223,136.994 
	337.198,136.994 336.77,137.017 336.293,137.042 335.77,137.042 335.077,137.088 334.507,137.112 334.388,137.112 333.363,137.161 
	333.245,137.161 332.72,137.184 331.815,137.208 330.313,137.256 329.79,137.279 329.361,137.279 329.313,137.279 329.242,137.279 
	328.242,137.327 327.741,137.327 327.36,137.35 327.052,137.35 326.979,137.35 325.955,137.375 325.216,137.398 324.216,137.422 
	324.001,137.422 323.787,137.422 322.382,137.447 322.001,137.47 321.524,137.47 320.571,137.494 319.738,137.518 319.499,137.518 
	319.285,137.518 318.976,137.518 318.856,137.518 318.594,137.518 316.569,137.565 316.545,137.35 316.545,137.088 316.521,136.636 
	316.474,135.326 316.474,134.826 316.427,134.064 316.379,132.992 316.403,132.063 316.308,132.063 315.45,132.087 314.926,132.11 
	314.759,132.134 313.258,132.158 313.021,132.182 312.806,132.182 311.9,132.206 311.02,132.229 308.019,132.372 307.564,132.372 
	307.327,132.396 307.04,132.396 306.518,132.42 305.73,132.444 304.707,132.492 304.611,132.492 304.563,132.492 302.087,132.54 
	300.49,132.586 300.442,132.586 300.418,132.586 300.323,132.586 299.966,132.586 297.847,132.658 297.655,132.658 297.632,132.658 
	295.607,132.706 294.963,132.706 294.797,132.706 293.82,132.729 293.463,132.753 292.844,132.777 290.913,132.825 290.795,132.825 
	289.604,132.873 289.651,134.73 289.651,134.802 289.675,135.612 289.675,135.969 289.699,137.208 289.723,137.994 289.747,138.352 
	289.747,139.162 289.747,139.257 289.77,139.686 289.77,139.757 289.77,140.186 289.77,140.4 289.77,140.59 289.77,140.638 
	289.795,141.091 289.795,141.567 289.818,141.781 289.818,141.996 289.818,142.091 289.818,142.211 289.818,142.425 
	289.843,142.949 289.865,143.83 289.938,146.57 290.009,149.309 290.009,149.571 290.009,149.618 290.009,150.238 290.057,151.596 
	290.057,151.62 290.057,152.072 290.08,152.787 290.104,153.883 290.104,153.907 290.129,154.812 290.246,154.812 290.295,155.908 
	290.343,157.766 290.414,159.6 290.414,159.791 290.438,160.504 290.104,160.529 290.032,160.553 289.818,160.553 289.175,160.576 
	288.628,160.601 288.579,160.601 288.318,160.601 287.746,160.625 287.437,160.625 286.652,160.672 286.411,160.672 
	286.316,160.672 286.149,160.672 285.482,160.696 285.078,160.72 285.102,161.625 285.126,162.53 285.126,162.553 285.148,163.459 
	285.173,163.722 285.173,164.197 285.198,164.84 285.221,165.293 285.221,165.388 285.245,165.697 285.221,165.842 285.173,166.175 
	285.173,166.198 285.198,167.08 285.221,167.961 285.221,167.984 285.245,168.867 285.268,169.891 285.293,170.058 285.293,170.461 
	285.293,170.653 285.293,170.677 285.316,171.535 285.316,171.557 285.363,173.369 285.363,173.393 285.388,174.297 
	285.412,175.226 285.436,175.75 285.46,176.156 285.46,176.18 285.482,177.084 285.529,178.943 285.529,178.991 285.579,180.777 
	285.579,181.158 285.626,182.61 285.744,182.61 285.794,183.54 285.794,184.278 285.936,188.114 285.96,189.02 285.983,189.757 
	286.007,189.925 286.102,192.95 286.126,193.569 286.126,194.259 286.149,195.307 286.175,197.237 286.196,197.786 286.245,198.643 
	286.245,199.095 286.245,199.12 286.316,202.287 286.341,202.739 286.341,203.645 286.341,203.693 286.39,205.48 286.39,206.122 
	286.411,206.384 286.411,207.051 287.198,207.028 287.365,207.028 287.365,207.005 288.079,207.005 291.629,206.934 
	291.891,206.908 293.964,206.86 294.606,206.837 296.012,206.814 296.131,206.814 297.322,206.788 298.203,206.765 299.108,206.743 
	299.133,206.743 300.062,206.718 302.754,206.647 303.277,206.622 307.112,206.526 307.732,206.503 308.113,206.48 308.231,206.48 
	309.209,206.456 311.281,206.409 313.52,206.338 316.188,206.241 318.451,206.17 318.88,206.17 318.88,205.908 318.856,205.289 
	318.81,204.384 318.784,203.312 318.762,202.979 318.736,202.549 318.714,202.049 318.643,200.238 318.643,199.835 318.617,199.69 
	318.617,199.596 318.617,199.382 318.617,199.214 318.594,198.88 318.594,198.785 318.594,198.761 318.594,198.451 318.57,197.999 
	318.548,197.689 318.548,197.451 318.522,197.094 318.476,196.142 318.476,195.712 318.476,195.521 318.451,194.33 318.381,193.402 
	318.381,192.473 318.381,192.092 318.381,192.045 318.309,190.757 318.309,190.377 318.261,189.757 318.261,189.71 318.236,189.448 
	318.214,189.138 318.214,188.995 318.214,188.805 318.214,188.566 318.189,187.97 318.189,187.947 318.166,186.97 318.142,186.708 
	318.117,186.065 318.117,185.85 318.095,185.351 318.095,185.161 318.047,183.326 318.047,182.778 317.999,181.491 318.069,181.491 
	317.999,180.253 317.975,180.11 317.952,179.657 317.928,179.348 317.928,179.324 317.928,179.276 317.903,178.753 317.88,178.323 
	317.832,177.846 317.713,176.299 317.713,176.156 319.285,176.108 319.451,176.108 320.714,176.06 320.785,176.06 321.31,176.037 
	321.904,176.013 322.215,175.988 322.668,175.965 323.097,175.965 323.287,175.965 323.954,175.941 324.407,175.917 324.43,175.917 
	324.454,175.917 324.479,175.917 324.74,175.917 324.859,175.917 325.765,175.893 325.836,175.893 326.67,175.87 328.385,175.798 
	328.456,175.798 330.291,175.726 331.006,175.703 331.887,175.68 333.316,175.607 333.84,175.607 334.626,175.584 334.911,175.56 
	337.485,175.513 337.556,175.489 338.389,175.464 338.795,175.464 339.317,175.442 340.438,175.393 342.845,175.274 
	343.773,175.226 344.416,175.203 345.489,175.155 346.18,175.13 346.822,175.108 347.703,175.084 348.633,175.059 "/>
<polygon id="2000001" fill="#808080" stroke="#FFFFFF" stroke-width="0.75"  points="444.219,200.096 444.194,199.835 444.123,198.596 
	444.1,198.118 444.053,197.119 444.053,197.094 444.053,196.902 444.028,196.713 444.004,196.307 444.004,196.235 443.98,195.95 
	443.957,195.712 443.933,195.26 443.933,195.237 443.933,195.045 443.909,194.783 443.909,194.593 443.887,194.259 443.861,194.141 
	443.837,193.545 443.814,193.188 443.79,192.497 443.767,192.354 443.695,191.091 443.67,190.591 443.6,189.662 443.576,189.281 
	443.553,188.782 443.553,188.447 443.505,187.614 443.505,187.591 443.433,186.303 443.433,186.233 443.386,185.708 
	443.386,185.542 443.314,184.184 443.123,180.3 443.074,179.467 443.052,179.371 442.98,177.727 442.956,177.537 442.908,176.633 
	442.86,175.726 442.813,174.797 442.766,173.893 442.719,172.988 442.67,172.035 442.646,171.701 442.623,171.391 442.623,171.106 
	442.599,170.606 442.574,170.225 442.504,168.771 442.457,167.842 442.433,167.437 442.385,166.985 442.312,165.936 
	442.312,165.817 442.312,165.793 442.312,165.579 442.289,165.46 442.289,165.222 442.266,164.984 442.242,164.698 442.242,164.673 
	442.1,162.291 442.1,162.244 442.004,160.601 442.004,160.553 441.979,160.124 441.932,159.529 441.86,158.29 441.812,157.718 
	441.812,157.456 441.812,157.385 441.79,157.218 441.67,155.216 441.646,154.74 441.55,152.763 441.527,152.525 441.504,152.072 
	441.504,152 441.504,151.833 441.384,149.071 441.337,147.927 441.312,147.594 441.312,147.451 441.288,147.069 441.288,146.641 
	441.265,146.332 441.242,145.736 441.217,145.378 441.194,144.831 441.146,143.901 441.146,143.592 441.122,142.997 
	441.074,141.853 441.074,141.687 441.051,141.424 441.051,141.233 441.051,141.21 441.027,140.852 441.027,140.757 440.955,139.519 
	440.932,139.042 440.932,138.995 440.908,138.47 440.883,138.185 440.741,135.374 439.455,135.469 439.312,135.469 436.786,135.588 
	436.215,135.612 435.882,135.636 434.977,135.66 434.07,135.731 434.023,135.731 433.356,135.779 433.285,135.779 433.213,135.779 
	431.379,135.874 430.997,135.897 430.521,135.921 429.974,135.946 428.711,136.041 427.497,136.088 426.687,136.136 
	425.162,136.231 424.162,136.279 424.137,136.279 422.185,136.35 419.492,136.493 418.087,136.565 418.063,135.636 418.04,135.016 
	418.016,134.73 417.944,132.896 417.896,132.158 417.896,131.991 417.896,131.872 417.825,130.132 417.777,129.275 417.777,129.228 
	417.729,128.323 417.707,128.061 417.658,127.417 417.468,122.629 417.54,122.629 417.992,122.605 417.992,122.511 417.969,122.224 
	417.944,121.677 417.896,121.105 417.849,120.08 417.849,119.962 417.849,119.867 417.825,119.413 417.707,118.009 417.683,117.102 
	417.611,116.079 417.587,115.673 417.516,114.34 416.92,114.387 415.729,114.435 415.204,114.458 415.109,114.458 414.848,114.482 
	414.608,114.482 413.967,114.507 413.061,114.554 412.37,114.578 412.155,114.602 412.132,114.602 411.298,114.625 411.251,114.625 
	410.512,114.673 410.035,114.697 409.465,114.72 409.345,114.72 408.654,114.769 408.296,114.792 407.915,114.792 407.177,114.84 
	406.82,114.864 406.438,114.888 405.938,114.911 405.892,114.911 405.485,114.936 404.628,114.959 404.128,114.982 403.199,115.031 
	399.603,115.197 399.578,115.197 398.649,115.244 398.506,115.27 398.054,115.292 397.22,115.315 396.91,115.315 396.481,115.364 
	396.458,115.364 396.243,115.364 396.005,115.388 395.981,114.911 395.981,114.84 395.934,113.958 395.91,113.339 395.886,113.029 
	395.886,112.792 395.862,112.625 395.553,112.625 392.551,112.768 392.312,112.768 392.266,112.768 391.408,112.815 
	390.883,112.839 390.003,112.887 388.716,112.933 387.811,112.982 387.381,113.006 386.953,113.029 386.215,113.054 
	386.049,113.077 385.167,113.102 385.119,113.102 384.689,113.124 383.332,113.196 381.569,113.291 380.688,113.316 
	380.665,113.316 379.545,113.387 378.878,113.411 378.663,113.411 377.973,113.435 377.71,113.458 377.092,113.483 376.972,113.483 
	376.829,113.483 376.781,113.483 376.21,113.506 375.257,113.529 374.924,113.554 374.375,113.578 374.352,112.862 374.328,111.743 
	374.328,111.671 374.28,110.813 374.186,108.242 374.161,108.098 374.113,106.503 374.018,104.262 373.994,103.859 373.971,103.358 
	373.971,103.263 373.946,102.62 373.923,102.025 373.923,101.714 373.875,100.595 373.827,99.427 373.805,99.214 373.709,97.141 
	373.923,97.141 373.805,95.307 373.78,94.378 370.54,94.521 370.302,94.521 369.324,94.568 369.11,94.568 368.421,94.592 
	367.849,94.616 367.515,94.64 365.918,94.711 365.729,94.711 364.822,94.734 364.442,94.759 363.036,94.83 362.131,94.854 
	360.773,94.926 359.32,94.974 358.796,94.996 358.534,94.996 357.629,95.021 355.971,95.092 355.589,95.092 355.184,95.116 
	354.969,95.116 354.897,95.116 354.088,95.164 353.349,95.188 353.206,95.188 352.302,95.235 352.302,95.164 352.253,94.663 
	352.253,94.425 352.229,93.638 352.206,93.163 352.206,93.02 352.063,90.114 352.063,89.781 351.182,89.781 349.848,89.876 
	349.396,89.876 348.49,89.898 346.68,89.947 346.68,89.828 346.632,88.756 346.607,88.208 346.607,88.112 346.584,87.208 
	345.012,87.254 344.345,87.279 342.534,87.326 342.512,87.326 340.771,87.375 340.319,87.398 339.413,87.422 339.246,87.422 
	337.89,87.47 337.627,87.494 336.746,87.517 336.722,87.517 336.293,87.541 334.507,87.613 334.054,87.613 332.649,87.683 
	332.244,87.683 331.815,87.708 331.721,87.708 331.388,87.731 331.053,87.731 330.48,87.756 330.028,87.756 329.838,87.779 
	329.601,87.779 327.789,87.827 327.694,87.827 327.574,87.827 327.433,87.85 327.36,87.827 326.027,87.875 326.003,87.565 
	325.979,86.803 325.979,86.684 325.979,86.492 325.979,86.421 325.955,86.041 325.955,85.85 325.955,85.754 325.955,85.707 
	325.883,83.419 325.883,82.968 325.859,82.443 325.859,82.372 325.836,81.586 325.765,81.539 325.765,81.419 325.765,81.348 
	325.836,81.299 325.836,81.038 325.598,81.086 325.574,81.205 325.598,81.252 325.598,81.299 325.526,81.419 325.36,81.466 
	325.287,81.395 325.241,81.229 325.192,81.205 325.121,81.229 325.025,81.371 324.788,81.443 324.646,81.252 324.62,81.324 
	324.646,81.539 324.598,81.633 324.335,81.848 324.049,81.966 324.049,81.443 324.049,81.371 324.025,81.133 324.025,80.919 
	324.001,80.704 324.001,80.108 323.979,79.657 323.954,79.179 323.931,77.822 323.931,77.489 323.907,76.94 323.907,76.917 
	323.907,76.512 323.834,74.32 323.834,74.106 323.812,73.557 323.812,73.272 323.787,73.201 323.764,72.2 323.716,71.415 
	323.834,71.415 323.812,70.724 323.764,69.27 323.764,69.127 323.764,68.626 323.74,68.293 323.716,67.34 323.668,66.459 
	323.646,66.078 323.646,65.864 323.62,65.435 323.597,64.935 323.597,64.816 323.597,64.506 323.597,64.339 323.597,64.029 
	323.573,63.72 323.573,63.672 323.573,63.196 323.525,62.219 323.525,62.005 323.525,61.695 323.5,61.313 323.5,60.861 
	323.5,60.552 323.5,60.433 323.454,59.457 323.43,58.646 323.43,58.599 323.405,57.883 323.405,57.669 323.358,56.479 
	323.358,56.097 323.358,56.073 323.358,55.859 323.312,54.905 323.264,53.524 323.264,53.072 323.239,51.238 323.239,51.047 
	323.216,50.786 323.216,50.309 323.216,49.594 323.192,49.428 323.192,48.283 323.192,48.237 323.167,47.593 323.145,46.378 
	323.145,45.759 323.097,44.52 323.072,44.043 323.668,44.021 324.049,44.021 324.24,43.996 324.358,43.996 324.883,43.996 
	324.979,43.996 325.287,43.973 325.432,43.973 327.669,43.901 327.932,43.901 328.337,43.877 330.195,43.806 330.361,43.806 
	331.291,43.781 333.482,43.71 333.721,43.687 333.745,43.687 333.958,43.687 334.841,43.639 335.127,43.639 335.744,43.614 
	335.96,43.614 336.627,43.59 336.793,43.59 337.055,43.567 337.08,43.567 337.531,43.567 337.747,43.567 338.127,43.544 
	340.581,43.473 340.819,43.448 341.033,43.448 341.058,43.448 341.129,43.448 341.2,43.448 341.51,43.424 341.558,43.424 
	341.749,43.424 341.771,43.424 342.082,43.4 342.749,43.377 343.201,43.377 344.082,43.329 344.107,43.329 345.869,43.282 
	346.561,43.257 346.774,43.257 346.988,43.233 347.681,43.21 348.133,43.21 349.467,43.163 350.206,43.115 350.252,43.115 
	350.442,43.115 350.801,43.091 351.73,43.067 351.921,43.043 352.135,43.043 352.158,43.043 353.564,42.972 357.486,42.829 
	357.533,42.829 358.367,42.782 358.487,42.782 358.796,42.782 358.963,42.757 362.822,42.615 362.894,42.615 363.608,42.59 
	363.799,42.59 364.919,42.543 365.586,42.519 365.609,42.519 365.681,42.519 367.253,42.448 367.372,42.448 368.276,42.399 
	369.183,42.353 369.636,42.328 372.731,42.209 373.519,42.186 373.685,42.162 376.639,42.043 376.781,42.043 378.878,41.947 
	379.044,41.947 379.021,41.519 378.996,41.019 378.949,39.661 378.949,39.208 378.901,38.469 378.83,36.468 379.64,36.421 
	380.164,36.397 380.64,36.373 381.449,36.326 381.497,36.326 381.546,36.326 381.735,36.326 381.83,36.301 382.165,36.301 
	383.309,36.254 383.761,36.23 384.213,36.206 385.977,36.135 386.166,36.135 386.715,36.11 386.882,36.11 387.405,36.087 
	387.667,36.064 387.786,36.064 388.668,36.016 389.572,35.969 389.764,40.399 389.787,40.662 389.812,41.47 389.525,41.47 
	389.598,42.495 389.621,43.329 389.621,43.4 389.645,43.948 389.645,44.021 389.669,44.163 389.739,45.711 389.739,45.926 
	389.739,46.14 389.787,46.784 389.787,47.069 389.835,47.879 389.835,48.237 389.954,50.713 390.098,50.713 391.717,50.594 
	391.765,50.594 392.312,50.547 392.551,50.547 393.004,50.499 393.241,50.499 393.29,50.499 393.98,50.451 394.361,50.428 
	394.814,50.38 394.886,50.38 395.243,50.357 396.147,50.332 396.814,50.309 397.029,50.285 397.244,50.285 397.934,50.261 
	398.102,50.261 398.649,50.237 398.84,50.213 399.197,50.213 399.459,50.19 399.721,50.19 400.174,50.165 400.627,50.165 
	400.722,50.165 401.079,50.142 401.697,50.095 401.961,50.095 402.438,50.069 403.318,50.047 403.771,50.023 404.2,50.023 
	404.676,49.999 405.129,49.976 405.557,49.952 405.63,49.952 406.033,49.928 406.438,49.928 406.462,49.904 406.51,49.904 
	407.82,49.856 408.178,49.833 408.249,49.833 408.678,49.808 409.131,49.785 409.512,49.761 410.061,49.736 410.273,49.736 
	410.298,49.736 410.321,49.713 411.395,49.666 412.323,49.618 412.608,49.618 412.918,49.594 413.204,49.57 413.252,49.594 
	413.347,49.57 413.467,49.57 413.967,49.545 414.109,49.545 414.871,49.499 415.014,49.499 415.396,49.474 416.729,49.403 
	418.826,49.285 418.587,49.118 418.421,48.855 418.397,48.832 418.397,48.76 418.254,48.237 418.087,47.975 417.683,47.616 
	417.42,47.521 417.207,47.474 416.444,47.284 415.8,46.974 415.562,46.807 415.371,46.64 415.3,46.592 415.204,46.473 
	415.133,46.402 414.942,46.116 414.871,45.949 414.776,45.616 414.681,44.735 414.634,44.544 414.537,44.401 414.323,44.163 
	414.181,44.021 413.275,43.614 413.013,43.424 412.514,42.972 412.394,42.829 412.323,42.757 412.013,42.423 411.822,42.186 
	411.822,42.162 411.656,41.876 411.656,41.804 411.441,41.185 411.417,41.162 411.417,41.114 411.417,40.947 411.441,40.828 
	411.441,40.78 411.584,40.161 411.584,40.137 411.656,39.875 411.703,39.78 411.728,39.756 411.798,39.684 411.847,39.612 
	411.918,39.589 411.965,39.542 412.037,39.494 412.18,39.421 412.442,39.399 412.489,39.375 412.537,39.399 413.108,39.612 
	413.156,39.637 413.323,39.661 413.467,39.637 413.514,39.612 413.608,39.589 413.705,39.565 413.919,39.421 414.037,39.327 
	414.133,39.208 414.396,38.754 414.467,38.398 414.49,38.113 414.49,37.993 414.396,37.684 414.156,37.255 414.133,37.23 
	414.109,37.184 414.037,36.921 414.014,36.85 414.014,36.778 413.989,36.73 413.989,36.634 412.68,36.683 412.585,36.683 
	411.822,36.73 411.847,36.516 411.965,36.444 411.847,36.016 411.465,35.944 411.369,35.825 411.274,35.706 411.203,35.563 
	411.155,35.515 411.107,35.515 411.084,35.635 411.084,35.706 411.061,35.611 411.061,35.397 411.035,34.944 410.607,34.968 
	409.131,35.04 408.535,35.063 408.369,35.063 408.345,35.063 408.249,35.063 407.344,35.11 407.034,35.135 405.676,35.181 
	402.96,35.325 400.292,35.468 400.197,33.349 400.079,31.084 400.031,30.037 400.031,29.965 399.959,28.584 399.888,27.226 
	399.888,26.939 399.888,26.869 399.816,25.844 399.816,25.797 399.745,24.462 399.721,23.772 399.721,23.558 399.697,23.271 
	399.649,22.629 399.625,21.724 399.603,21.199 399.578,21.104 399.53,19.889 399.483,18.96 399.459,18.532 399.459,18.389 
	399.34,16.22 399.34,16.196 399.34,16.125 399.316,15.744 399.292,15.149 399.222,13.6 397.529,13.696 395.648,13.767 
	395.338,13.791 395.123,13.791 395.1,13.791 394.647,13.814 394.528,13.838 393.885,13.863 393.741,13.863 393.719,13.863 
	393.36,13.886 393.312,13.886 388.835,14.076 388.502,14.101 384.952,14.266 384.786,14.266 384.38,14.292 384.047,14.292 
	383.451,14.338 383.38,14.338 378.067,14.553 377.901,14.578 373.398,14.768 372.684,14.792 372.494,14.815 369.802,14.911 
	368.039,14.982 367.301,15.005 367.11,15.029 366.657,15.029 365.347,15.101 363.941,15.149 363.537,15.173 361.917,15.244 
	361.822,15.244 361.822,15.267 360.82,15.292 360.464,15.315 357.343,15.411 357.161,15.435 356.541,15.458 356.446,15.458 
	353.492,15.577 353.326,15.577 351.562,15.649 351.157,15.649 351.135,15.673 350.943,15.673 345.751,15.84 345.584,15.862 
	345.464,15.862 342.749,15.958 342.178,15.982 341.272,16.006 340.653,16.031 340.392,16.053 340.176,16.053 340.129,16.053 
	339.032,16.102 338.771,16.102 338.198,16.102 335.007,16.22 334.841,16.22 329.601,16.386 329.505,16.412 326.479,16.506 
	326.24,16.506 326.17,16.506 326.027,16.506 325.932,16.506 324.216,16.554 324.121,16.578 319.785,16.72 318.832,16.745 
	318.762,16.745 317.88,16.769 313.664,16.888 313.45,16.912 313.377,16.912 312.735,16.936 312.425,16.936 312.376,16.936 
	311.592,16.959 310.709,16.982 310.613,16.982 308.566,17.054 308.041,17.054 308.019,17.054 303.563,17.149 303.539,17.174 
	302.658,17.174 300.442,17.244 300.349,17.244 299.99,17.244 299.062,17.293 298.18,17.293 297.322,17.34 296.965,17.34 
	296.607,17.364 296.393,17.364 295.94,17.364 295.893,17.364 295.702,17.387 293.701,17.436 293.605,17.436 291.986,17.46 
	291.867,17.483 291.01,17.483 290.559,17.507 288.318,17.555 286.864,17.603 286.578,17.603 286.196,17.603 283.815,17.674 
	283.696,17.674 283.625,17.674 283.553,17.674 283.244,17.674 281.219,17.722 281.124,17.722 280.338,17.745 279.408,17.769 
	278.527,17.769 275.883,17.84 273.953,17.888 272.144,17.911 271.953,17.911 270.595,17.936 270.38,17.96 270.357,17.96 
	270.238,17.936 269.356,17.96 269.022,17.96 268.475,17.983 267.879,18.006 265.878,18.031 265.164,18.031 264.426,18.055 
	264.092,18.055 263.426,18.055 262.472,18.078 260.732,18.126 259.853,18.126 259.591,18.126 253.967,18.245 252.419,18.269 
	251.586,18.293 249.275,18.317 248.774,18.341 248.608,18.341 248.512,18.341 248.441,18.341 247.917,18.341 247.727,18.341 
	246.773,18.365 245.94,18.389 245.249,18.389 244.391,18.389 243.439,18.412 243.415,18.412 243.296,18.412 242.128,18.412 
	241.558,18.435 241.509,18.435 240.747,18.435 240.604,18.46 239.771,18.46 239.723,18.46 239.627,18.46 238.817,18.484 
	238.055,18.507 237.912,18.507 235.744,18.532 235.625,18.532 233.553,18.555 232.91,18.555 232.528,18.555 232.458,18.555 
	228.123,18.627 227.265,18.627 227.216,18.627 226.883,18.627 226.358,18.627 226.336,18.627 225.406,18.65 224.121,18.65 
	224.048,18.65 221.88,18.698 221.832,18.698 220.952,18.698 219.617,18.698 219.165,18.722 216.926,18.746 216.497,18.746 
	216.117,18.746 216.021,18.746 215.616,18.746 214.71,18.769 213.09,18.769 212.924,18.769 211.542,18.793 211.375,18.793 
	211.186,18.793 211.113,18.793 207.563,18.817 205.801,18.84 205.753,18.84 205.372,18.84 204.848,18.817 202.133,18.865 
	201.513,18.865 201.324,18.865 201.251,18.865 201.132,18.865 200.489,18.865 200.37,18.865 195.224,18.889 195.106,18.889 
	190.746,18.913 190.176,18.913 189.889,18.913 189.722,18.913 189.46,18.913 188.984,18.936 188.626,18.936 188.245,18.913 
	188.078,18.936 186.292,18.936 184.529,18.936 184.338,18.936 181.838,18.936 180.718,18.936 180.052,18.936 179.86,18.936 
	178.049,18.936 177.836,18.96 173.571,18.936 168.926,18.936 168.449,18.936 168.331,18.936 168.188,18.936 168.021,18.936 
	167.14,18.936 166.473,18.913 166.377,18.936 163.59,18.913 162.781,18.913 158.826,18.889 158.231,18.889 157.396,18.889 
	156.492,18.889 156.111,18.889 155.086,18.889 154.752,18.865 154.681,18.865 154.204,18.865 153.062,18.865 152.918,18.865 
	152.013,18.865 151.132,18.84 150.393,18.84 149.084,18.84 148.797,18.84 147.583,18.817 146.677,18.817 146.654,18.817 
	145.962,18.793 144.867,18.793 143.056,18.793 142.651,18.769 142.484,18.769 142.223,18.769 141.58,18.769 141.27,18.746 
	141.008,18.746 135.934,18.722 132.766,18.698 131.598,18.674 130.503,18.65 128.478,18.627 126.905,18.627 125.119,18.602 
	124.786,18.579 123.547,18.579 121.76,18.532 121.284,18.532 120.879,18.532 120.641,18.532 119.783,18.507 119.545,18.507 
	117.949,18.484 116.139,18.46 115.781,18.46 114.352,18.435 113.47,18.435 111.97,18.412 111.35,18.412 110.278,18.389 
	110.208,18.389 109.921,18.389 109.04,18.365 104.49,18.293 103.965,18.293 102.179,18.245 99.989,18.222 99.94,18.222 
	94.152,18.103 92.484,18.078 91.459,18.055 91.341,18.055 91.079,18.031 90.174,18.006 89.745,18.006 88.768,17.983 86.743,17.936 
	86.148,17.936 79.716,17.793 79.692,19.364 79.501,27.464 79.525,27.846 79.501,28.489 79.478,29.394 79.407,34.277 79.311,38.446 
	79.311,39.804 79.288,40.304 79.264,41.495 79.24,43.687 79.216,44.83 79.216,45.211 79.192,47.045 79.168,47.187 79.145,49.118 
	79.049,54.334 79.025,54.668 79.025,55.597 79.001,56.192 79.001,57.478 78.93,61.934 78.834,67.15 78.739,72.391 78.739,72.653 
	78.739,72.867 78.667,78.084 78.406,92.806 78.383,93.687 78.358,94.688 78.334,95.545 78.334,96.449 78.311,96.521 78.263,100.119 
	78.239,100.667 78.239,100.785 78.216,101.524 78.239,101.547 78.216,101.88 78.144,105.312 78.096,107.432 78.072,108.861 
	78.049,109.814 78.025,111.076 78.001,112.22 77.906,115.483 77.882,117.626 77.906,117.888 77.834,119.867 77.763,124.392 
	77.691,127.155 77.691,127.537 77.691,128.323 77.596,133.016 77.548,135.159 77.524,135.66 77.501,136.041 77.501,136.208 
	77.501,136.327 77.501,136.517 77.501,136.97 77.405,140.996 77.405,141.091 77.405,141.233 77.381,141.448 77.381,142.187 
	77.287,148.618 77.262,148.761 77.262,149.523 77.214,152.43 77.167,155.193 77.144,156.48 77.144,157.409 77.119,159.219 
	77.119,160.576 77.096,161.505 77.048,164.245 77.025,165.174 77.025,165.889 77,166.531 76.953,168.819 76.906,170.653 
	76.881,171.963 76.857,173.035 76.833,173.393 76.81,175.251 76.763,177.537 76.715,179.729 76.691,181.301 76.667,182.61 
	76.643,183.493 76.572,184.899 76.596,184.921 76.548,187.636 76.524,188.375 76.452,190.876 76.31,198.214 76.286,199.166 
	76.262,199.263 76.262,200.096 76.262,200.43 76.167,204.932 76.167,204.979 76.167,205.121 76.143,205.193 76.143,205.574 
	76.095,207.576 76.786,207.601 78.168,207.623 81.408,207.672 82.884,207.695 83.028,207.695 83.17,207.695 84.075,207.695 
	85.004,207.717 86.791,207.743 90.007,207.791 92.15,207.812 94.438,207.838 96.415,207.862 97.939,207.862 98.011,207.862 
	98.272,207.862 100.251,207.885 102.038,207.909 103.704,207.934 107.205,207.957 107.253,207.957 109.04,207.979 109.874,207.979 
	109.946,207.979 110.041,207.979 113.732,208.005 114.59,208.027 117.234,208.027 117.306,208.027 119.759,208.052 121.879,208.052 
	123.023,208.052 123.333,208.052 124.476,208.076 125.144,208.076 127.168,208.076 127.979,208.099 129.859,208.099 
	130.503,208.124 132.527,208.099 132.551,208.099 133.171,208.124 134.958,208.124 135.243,208.124 137.006,208.124 
	137.411,208.124 139.436,208.124 139.722,208.124 139.864,208.124 140.96,208.146 142.985,208.146 143.891,208.124 145.987,208.124 
	146.153,208.124 148.06,208.124 149.988,208.099 150.036,208.124 151.298,208.124 152.894,208.124 154.443,208.124 155.729,208.124 
	155.849,208.124 157.778,208.099 164.02,208.099 167.401,208.099 167.782,208.099 167.854,208.099 168.093,208.099 171.666,208.099 
	172.976,208.099 177.121,208.124 177.287,208.124 177.335,208.124 177.645,208.124 182.124,208.124 183.576,208.124 
	185.745,208.146 188.03,208.171 188.579,208.171 188.603,208.171 191.175,208.171 192.247,208.171 193.51,208.195 194.391,208.195 
	194.844,208.219 195.986,208.219 198.488,208.219 199.322,208.219 200.18,208.195 201.775,208.195 202.013,208.195 202.086,208.195 
	202.181,208.195 202.99,208.195 204.372,208.195 206.825,208.171 207.326,208.146 208.375,208.124 208.397,208.124 213.257,208.124 
	214.71,208.124 215.806,208.099 216.021,208.099 216.33,208.099 220.595,208.076 220.809,208.076 224.549,208.052 224.787,208.027 
	225.549,208.005 226.336,208.005 226.358,208.005 226.979,208.005 227.288,208.005 230.838,207.979 232.934,207.957 
	232.957,207.957 233.434,207.934 233.482,207.934 236.34,207.909 237.055,207.909 237.245,207.909 237.34,207.909 238.842,207.862 
	240.985,207.862 241.175,207.862 244.296,207.812 245.749,207.791 249.584,207.743 252.538,207.717 252.967,207.695 
	255.777,207.672 255.873,207.672 256.326,207.672 258.564,207.646 259.064,207.646 259.398,207.646 259.447,207.646 264.83,207.551 
	265.735,207.551 266.283,207.528 267.164,207.504 267.808,207.48 269.309,207.456 270.262,207.432 271.07,207.41 274.358,207.338 
	274.645,207.338 274.691,207.338 274.931,207.338 275.121,207.313 276.597,207.289 278.336,207.242 281.839,207.17 282.743,207.147 
	286.411,207.051 286.411,206.384 286.39,206.122 286.39,205.48 286.341,203.693 286.341,203.645 286.341,202.739 286.316,202.287 
	286.245,199.12 286.245,199.095 286.245,198.643 286.196,197.786 286.175,197.237 286.149,195.307 286.126,194.259 286.126,193.569 
	286.102,192.95 286.007,189.925 285.983,189.757 285.96,189.02 285.936,188.114 285.794,184.278 285.794,183.54 285.744,182.61 
	285.626,182.61 285.579,181.158 285.579,180.777 285.529,178.991 285.529,178.943 285.482,177.084 285.46,176.18 285.46,176.156 
	285.436,175.75 285.412,175.226 285.388,174.297 285.363,173.393 285.363,173.369 285.316,171.557 285.316,171.535 285.293,170.677 
	285.293,170.653 285.293,170.461 285.293,170.058 285.268,169.891 285.245,168.867 285.221,167.984 285.221,167.961 285.198,167.08 
	285.173,166.198 285.173,166.175 285.221,165.842 285.245,165.697 285.221,165.388 285.221,165.293 285.198,164.84 285.173,164.197 
	285.173,163.722 285.148,163.459 285.126,162.553 285.126,162.53 285.102,161.625 285.078,160.72 285.482,160.696 286.149,160.672 
	286.316,160.672 286.411,160.672 286.652,160.672 287.437,160.625 287.746,160.625 288.318,160.601 288.579,160.601 
	288.628,160.601 289.175,160.576 289.818,160.553 290.032,160.553 290.104,160.529 290.438,160.504 290.414,159.791 290.414,159.6 
	290.343,157.766 290.295,155.908 290.246,154.812 290.129,154.812 290.104,153.907 290.104,153.883 290.08,152.787 290.057,152.072 
	290.057,151.62 290.057,151.596 290.009,150.238 290.009,149.618 290.009,149.571 290.009,149.309 289.938,146.57 289.865,143.83 
	289.843,142.949 289.818,142.425 289.818,142.211 289.818,142.091 289.818,141.996 289.818,141.781 289.795,141.567 
	289.795,141.091 289.77,140.638 289.77,140.59 289.77,140.4 289.77,140.186 289.77,139.757 289.77,139.686 289.747,139.257 
	289.747,139.162 289.747,138.352 289.723,137.994 289.699,137.208 289.675,135.969 289.675,135.612 289.651,134.802 289.651,134.73 
	289.604,132.873 290.795,132.825 290.913,132.825 292.844,132.777 293.463,132.753 293.82,132.729 294.797,132.706 294.963,132.706 
	295.607,132.706 297.632,132.658 297.655,132.658 297.847,132.658 299.966,132.586 300.323,132.586 300.418,132.586 
	300.442,132.586 300.49,132.586 302.087,132.54 304.563,132.492 304.611,132.492 304.707,132.492 305.73,132.444 306.518,132.42 
	307.04,132.396 307.327,132.396 307.564,132.372 308.019,132.372 311.02,132.229 311.9,132.206 312.806,132.182 313.021,132.182 
	313.258,132.158 314.759,132.134 314.926,132.11 315.45,132.087 316.308,132.063 316.403,132.063 316.379,132.992 316.427,134.064 
	316.474,134.826 316.474,135.326 316.521,136.636 316.545,137.088 316.545,137.35 316.569,137.565 318.594,137.518 318.856,137.518 
	318.976,137.518 319.285,137.518 319.499,137.518 319.738,137.518 320.571,137.494 321.524,137.47 322.001,137.47 322.382,137.447 
	323.787,137.422 324.001,137.422 324.216,137.422 325.216,137.398 325.955,137.375 326.979,137.35 327.052,137.35 327.36,137.35 
	327.741,137.327 328.242,137.327 329.242,137.279 329.313,137.279 329.361,137.279 329.79,137.279 330.313,137.256 331.815,137.208 
	332.72,137.184 333.245,137.161 333.363,137.161 334.388,137.112 334.507,137.112 335.077,137.088 335.77,137.042 336.293,137.042 
	336.77,137.017 337.198,136.994 337.223,136.994 338.532,136.945 339.485,136.898 340.725,136.851 341.438,136.827 341.654,136.827 
	341.7,136.827 342.225,136.803 342.344,136.827 342.486,136.803 343.702,136.755 347.37,136.613 347.37,136.66 347.37,136.97 
	347.513,141.663 347.562,142.782 347.585,143.925 347.608,144.831 347.608,144.879 347.633,145.426 347.633,146.141 
	347.728,149.452 347.752,150.333 347.775,151.263 347.775,151.381 347.799,152.454 347.822,152.834 347.822,153.096 347.822,153.24 
	347.847,153.931 347.871,154.479 347.871,154.717 347.895,155.145 347.917,155.956 347.967,157.027 347.989,157.718 348.037,158.6 
	348.037,158.647 348.037,158.957 348.062,159.504 348.084,160.648 348.108,161.196 348.133,161.601 348.133,161.792 
	348.157,162.291 348.157,162.602 348.204,163.744 348.204,164.077 348.251,164.96 348.299,165.626 348.323,165.913 348.323,165.936 
	348.348,166.842 348.37,167.58 348.418,168.675 348.418,168.771 348.442,169.581 348.466,170.891 348.466,171.415 348.49,171.605 
	348.49,171.749 348.49,171.844 348.514,172.606 348.537,173.583 348.585,174.227 348.633,175.059 347.703,175.084 346.822,175.108 
	346.18,175.13 345.489,175.155 344.416,175.203 343.773,175.226 342.845,175.274 340.438,175.393 339.317,175.442 338.795,175.464 
	338.389,175.464 337.556,175.489 337.485,175.513 334.911,175.56 334.626,175.584 333.84,175.607 333.316,175.607 331.887,175.68 
	331.006,175.703 330.291,175.726 328.456,175.798 328.385,175.798 326.67,175.87 325.836,175.893 325.765,175.893 324.859,175.917 
	324.74,175.917 324.479,175.917 324.454,175.917 324.43,175.917 324.407,175.917 323.954,175.941 323.287,175.965 323.097,175.965 
	322.668,175.965 322.215,175.988 321.904,176.013 321.31,176.037 320.785,176.06 320.714,176.06 319.451,176.108 319.285,176.108 
	317.713,176.156 317.713,176.299 317.832,177.846 317.88,178.323 317.903,178.753 317.928,179.276 317.928,179.324 317.928,179.348 
	317.952,179.657 317.975,180.11 317.999,180.253 318.069,181.491 317.999,181.491 318.047,182.778 318.047,183.326 318.095,185.161 
	318.095,185.351 318.117,185.85 318.117,186.065 318.142,186.708 318.166,186.97 318.189,187.947 318.189,187.97 318.214,188.566 
	318.214,188.805 318.214,188.995 318.214,189.138 318.236,189.448 318.261,189.71 318.261,189.757 318.309,190.377 318.309,190.757 
	318.381,192.045 318.381,192.092 318.381,192.473 318.381,193.402 318.451,194.33 318.476,195.521 318.476,195.712 318.476,196.142 
	318.522,197.094 318.548,197.451 318.548,197.689 318.57,197.999 318.594,198.451 318.594,198.761 318.594,198.785 318.594,198.88 
	318.617,199.214 318.617,199.382 318.617,199.596 318.617,199.69 318.643,199.835 318.643,200.238 318.714,202.049 318.736,202.549 
	318.762,202.979 318.784,203.312 318.81,204.384 318.856,205.289 318.88,205.908 318.88,206.17 319.356,206.147 320.118,206.122 
	320.238,206.122 321.047,206.099 321.215,206.099 323.954,206.026 324.24,206.004 324.716,206.004 327.433,205.908 327.836,205.885 
	329.456,205.836 329.909,205.813 329.934,205.813 330.076,205.813 330.313,205.813 331.006,205.789 331.053,205.789 
	332.338,205.742 332.768,205.718 335.007,205.646 336.365,205.623 336.507,205.598 338.604,205.552 339.032,205.503 
	339.271,205.503 339.509,205.48 340.558,205.455 340.819,205.455 344.821,205.312 348.466,205.193 349.729,205.169 349.753,205.169 
	350.99,205.121 355.184,204.932 356.232,204.885 356.875,204.86 361.941,204.67 362.083,204.67 362.155,204.646 364.109,204.598 
	364.989,204.552 365.871,204.525 366.609,204.479 368.134,204.432 368.229,204.432 368.35,204.432 368.492,204.432 368.683,204.406 
	368.777,204.406 371.065,204.312 375.733,204.121 377.544,204.05 378.901,203.978 379.33,203.955 380.234,203.908 381.855,203.836 
	381.95,203.836 382.021,203.836 382.38,203.811 384.737,203.716 385.285,203.693 386.357,203.645 387.239,203.623 387.667,203.597 
	388.334,203.549 388.573,203.549 389.739,203.502 389.907,203.478 390.12,203.478 390.812,203.455 391.312,203.407 391.932,203.382 
	392.408,203.359 393.504,203.312 393.719,203.312 394.1,203.288 394.171,203.288 394.386,203.288 394.552,203.264 394.814,203.264 
	395.004,203.24 395.528,203.216 396.147,203.192 396.91,203.17 398.863,203.074 399.436,203.049 399.983,203.026 405.129,202.787 
	406.414,202.716 406.629,202.692 408.916,202.573 409.059,202.573 409.083,202.573 409.345,202.573 411.155,202.479 
	411.369,202.453 412.061,202.43 415.657,202.24 416.539,202.191 417.443,202.145 417.635,202.145 418.372,202.098 421.684,201.93 
	422.875,201.858 423.447,201.836 423.828,201.811 424.758,201.764 424.949,201.764 425.566,201.716 428.259,201.596 
	430.068,201.525 430.45,201.501 430.784,201.478 432.594,201.383 432.784,201.383 432.928,201.383 433.023,201.358 433.047,201.358 
	433.213,201.358 433.69,201.334 434.237,201.312 434.81,201.288 436.357,201.192 437.715,201.12 437.74,201.12 437.906,201.12 
	438.239,201.097 438.358,201.097 438.406,201.097 438.572,201.071 439.073,201.05 439.551,201.025 439.646,201.001 440.098,200.978 
	440.217,200.978 443.909,200.786 444.243,200.786 444.243,200.383 "/>
</svg>
