<?xml version="1.0" encoding="utf-8"?>
<!-- Generator: Adobe Illustrator 13.0.2, SVG Export Plug-In . SVG Version: 6.00 Build 14948)  -->
<!DOCTYPE svg PUBLIC "-//W3C//DTD SVG 1.1//EN" "http://www.w3.org/Graphics/SVG/1.1/DTD/svg11.dtd">
<svg version="1.1" id="Layer_1" xmlns="http://www.w3.org/2000/svg" xmlns:xlink="http://www.w3.org/1999/xlink" x="0px" y="0px"
	 width="500px" height="400px" viewBox="-6.285 -3.84 500 400" enable-background="new -6.285 -3.84 500 400" xml:space="preserve">
<polyline id="5616220" fill="#4D4D4D" stroke="#FFFFFF" points="259.79,124.355 262.649,124.553 262.649,124.579 
	263.818,124.629 273.196,125.375 273.817,125.45 274.141,125.523 279.29,125.921 279.438,125.921 279.785,125.971 279.736,126.494 
	284.486,126.817 299.386,127.937 300.653,128.037 300.952,128.061 304.408,128.311 304.459,128.311 305.006,128.335 307.12,128.483 
	311.125,128.708 313.486,128.856 321.446,129.354 323.286,129.428 325.176,129.578 328.484,129.727 328.41,130.698 328.41,130.747 
	328.385,131.169 328.584,131.169 327.59,147.286 327.141,153.827 327.066,153.803 327.042,154.276 326.52,163.526 326.147,169.969 
	326.122,170.64 326.071,171.312 326.071,171.413 326.071,171.511 325.997,172.63 325.948,173.177 325.948,173.202 325.773,175.987 
	325.748,176.66 325.525,176.66 325.4,179.296 325.5,179.296 325.426,180.34 325.601,180.34 325.601,180.564 325.351,180.564 
	325.301,181.36 325.4,181.36 325.351,182.081 325.252,182.081 324.903,187.13 324.53,192.502 324.505,193.621 324.505,193.695 
	324.479,194.667 324.431,195.586 324.355,196.433 324.257,198.322 324.132,199.241 317.143,198.795 312.344,198.472 
	308.115,198.273 304.931,198.147 299.56,197.775 297.819,197.674 296.4,197.525 284.039,196.506 282.945,196.433 282.696,196.408 
	278.17,196.06 266.082,195.064 254.816,194.217 253.896,194.144 254.791,182.704 254.865,181.66 255.188,177.405 255.536,172.754 
	255.637,171.413 257.651,171.56 257.774,169.919 258.074,165.84 258.074,165.815 258.099,165.493 258.124,165.169 258.124,165.12 
	258.323,163.08 258.522,160.045 258.943,154.475 258.993,153.703 259.392,148.878 258.721,148.829 259.144,143.256 259.193,143.282 
	259.244,142.883 259.765,135.871 259.79,135.447 260.487,126.294 259.64,126.22 259.79,124.355 "/>
<polyline id="5616940" fill="#4D4D4D" stroke="#FFFFFF" points="359.548,252.493 360.27,252.542 360.443,252.542 
	360.52,252.542 360.568,252.542 365.767,252.865 367.283,252.939 373.576,253.338 378.648,253.686 380.54,253.81 380.64,253.81 
	380.938,253.835 383.176,253.983 383.301,253.983 385.564,254.134 389.867,254.307 389.792,255.477 389.767,256.148 
	389.743,256.495 389.594,260.102 389.893,260.102 392.528,260.253 397.775,260.526 398.721,260.576 403.645,260.774 407.55,260.973 
	412.499,261.222 418.768,261.47 418.718,262.242 418.693,263.012 418.693,263.138 418.643,264.231 418.617,264.679 418.369,271.095 
	418.346,271.768 418.294,272.714 418.096,276.841 418.096,277.464 418.071,277.464 418.071,277.787 417.971,280.274 
	417.946,280.299 417.946,280.473 417.698,285.447 417.698,285.694 417.623,287.361 417.598,287.387 417.573,288.231 
	417.475,291.043 417.449,291.665 417.399,292.635 417.399,292.659 417.2,297.385 417.2,297.458 417.151,298.454 416.479,298.429 
	415.533,298.38 414.638,298.354 413.693,298.305 410.858,298.18 409.391,298.104 409.268,298.104 409.241,298.104 401.582,297.758 
	400.859,297.731 396.855,297.559 395.413,297.458 390.389,297.261 388.723,297.186 386.658,297.085 381.909,296.937 
	379.122,296.839 377.854,296.839 373.774,296.64 373.551,296.613 362.285,296.017 358.305,295.793 358.205,295.793 357.211,295.743 
	357.386,292.61 357.311,292.61 357.56,287.958 357.658,286.019 357.759,283.432 357.759,283.358 357.783,283.083 357.933,279.775 
	358.082,277.188 358.131,276.317 358.205,274.504 358.504,269.63 358.629,269.653 358.654,269.38 358.654,269.305 358.729,267.041 
	359.399,254.731 359.475,253.438 359.548,252.493 "/>
<polygon id="5600001" fill="#4D4D4D" stroke="#FFFFFF" points="281.477,80.955 281.477,80.88 282.224,72.026 282.123,71.976 
	281.95,71.976 281.727,72.1 281.553,71.901 281.553,71.852 281.577,71.578 281.727,71.453 281.553,71.279 281.403,71.23 
	281.204,71.181 281.005,71.205 280.83,70.981 280.881,70.708 280.756,70.483 280.732,70.459 280.483,70.409 280.284,70.335 
	280.334,69.961 280.533,69.613 281.105,69.538 281.627,69.066 281.651,69.016 281.553,68.743 281.527,68.693 281.229,68.619 
	281.03,68.469 281.079,68.295 281.204,67.823 281.379,67.623 281.453,67.375 281.079,66.778 281.03,66.728 280.857,66.703 
	280.732,66.778 280.607,66.927 280.607,66.977 280.582,67.002 280.384,67.002 280.109,66.927 280.06,66.878 280.086,66.529 
	280.086,65.41 280.011,65.336 279.96,65.137 280.06,64.539 280.235,64.142 280.185,63.843 280.16,63.818 279.986,63.893 
	279.785,63.893 279.588,63.794 278.89,64.042 278.468,64.092 278.245,64.216 278.096,64.142 277.972,64.042 277.846,64.042 
	277.697,63.967 277.549,63.644 277.448,63.545 277.125,63.396 276.901,63.42 276.753,63.321 276.678,63.196 276.703,63.171 
	276.852,62.948 276.678,62.724 276.652,62.724 276.503,62.749 275.832,62.724 275.684,62.674 275.607,62.525 275.558,62.276 
	275.607,62.127 275.706,61.903 275.782,61.53 275.706,61.331 275.558,61.083 275.558,61.033 275.633,61.033 275.881,61.008 
	275.981,60.709 275.981,60.585 275.932,60.386 275.932,60.237 276.031,60.112 276.18,60.013 276.155,59.963 275.858,59.565 
	275.684,59.516 275.434,59.367 275.26,58.894 274.837,58.471 274.837,58.247 274.986,57.999 274.986,57.898 274.936,57.725 
	274.787,57.65 274.662,57.525 274.662,57.153 274.613,57.053 274.464,57.227 274.34,57.253 273.593,57.028 273.319,56.705 
	273.319,56.605 273.346,56.481 273.119,56.158 272.848,56.009 272.946,55.834 272.873,55.312 272.772,54.417 272.648,54.243 
	272.573,54.168 272.401,53.87 272.401,53.795 272.424,53.695 272.301,53.447 271.854,53.173 271.554,53.099 271.132,53.124 
	270.883,52.974 270.733,52.8 270.759,52.452 270.683,52.278 270.31,52.229 270.137,52.478 269.814,52.577 269.117,52.377 
	269.092,52.253 268.868,52.079 268.521,51.98 268.271,51.756 268.196,51.631 268.147,51.482 268.147,51.333 268.098,51.208 
	268.022,51.159 267.898,51.084 267.849,51.009 267.749,50.736 267.749,50.537 267.574,50.015 267.326,49.99 267.152,50.115 
	267.027,50.313 266.778,50.487 266.705,50.512 266.156,50.487 265.983,50.363 265.958,49.766 265.734,49.567 265.734,49.442 
	265.809,49.268 265.834,49.244 265.958,49.244 266.033,49.22 266.331,48.994 266.531,48.697 266.381,48.646 266.207,48.498 
	266.132,48.348 266.082,48.324 265.983,48.274 265.783,48.374 265.635,48.348 265.188,48.174 265.211,47.627 265.037,47.403 
	264.416,47.055 264.241,47.08 264.118,47.055 263.868,46.607 263.818,46.583 263.471,46.657 263.422,46.632 263.371,46.607 
	263.346,46.508 263.322,46.384 263.172,46.185 263.049,46.16 262.9,46.185 262.75,46.16 262.426,45.936 262.353,45.762 
	262.277,45.712 262.077,45.836 262.054,45.886 262.054,46.061 261.904,46.209 261.779,46.234 261.53,46.185 261.133,46.259 
	260.96,46.11 260.611,46.16 260.387,46.334 260.337,46.458 260.312,46.632 260.287,46.682 259.716,46.931 259.666,46.906 
	259.542,46.782 259.467,46.533 259.392,46.433 259.317,46.359 259.169,46.309 259.069,46.011 259.069,45.936 259.219,45.762 
	259.244,45.364 259.193,45.14 259.069,45.165 258.646,44.941 258.596,44.966 258.496,45.165 258.422,45.14 258.297,45.065 
	258.149,44.941 258,44.841 257.826,44.816 257.651,44.718 257.153,44.294 256.881,44.344 256.707,44.468 256.506,44.369 
	256.432,44.294 256.333,44.17 256.184,43.822 256.209,43.697 256.283,43.648 256.457,43.423 256.432,43.125 256.432,43.026 
	256.457,42.876 256.482,42.852 256.557,42.604 256.557,42.554 256.383,42.354 256.333,42.28 256.482,41.733 256.258,41.583 
	256.184,41.509 256.308,40.986 256.233,40.663 255.762,40.439 255.462,40.389 255.088,40.464 255.014,40.439 254.244,39.768 
	254.17,39.644 253.971,39.52 253.622,39.221 253.174,39.022 253.075,39.022 252.727,39.096 252.727,38.773 252.801,38.474 
	252.851,38.4 252.975,38.275 253.025,38.25 253.299,38.052 253.373,38.001 253.473,37.902 253.521,37.828 253.622,37.38 
	253.597,37.306 253.498,37.157 253.373,37.106 253.174,37.131 253.1,37.106 253.025,37.057 253.025,37.007 253.1,36.958 
	253.273,36.958 253.249,36.858 253.224,36.833 253.174,36.808 252.9,36.808 253,36.584 253.125,36.459 253.148,36.41 
	253.148,36.311 253.1,36.062 253.025,36.013 252.975,35.962 252.951,35.863 253.05,35.665 253.05,35.514 252.801,35.391 
	252.651,35.191 252.602,34.645 252.553,34.495 252.304,34.321 252.204,34.171 252.08,33.973 251.98,33.949 251.781,33.873 
	251.658,33.525 251.682,33.426 251.856,33.103 251.881,33.003 251.955,32.655 251.93,32.53 251.955,32.207 252.403,31.958 
	252.553,31.958 252.527,31.908 252.403,31.262 252.403,30.914 251.955,30.342 251.707,30.093 251.658,29.944 251.482,29.77 
	251.283,29.646 251.21,29.571 251.234,28.974 251.309,28.65 251.408,28.526 251.434,28.401 251.434,28.302 251.434,28.228 
	251.532,27.854 251.582,27.631 251.582,27.457 251.458,26.736 251.384,26.462 251.458,26.337 251.508,26.164 251.482,26.139 
	251.434,26.014 251.26,25.89 250.712,25.392 250.639,25.367 250.488,25.392 250.313,25.218 250.214,25.118 250.19,25.02 
	246.261,24.67 246.085,24.696 239.247,24.123 236.063,23.875 235.988,23.875 235.441,23.825 235.143,23.825 234.62,23.825 
	233.625,23.676 223.03,22.781 220.046,22.458 219.473,22.407 217.484,22.233 215.445,22.06 214.599,21.985 206.54,21.239 
	202.337,20.865 197.414,20.418 197.165,20.393 196.293,20.294 196.218,20.294 195.323,19.796 187.938,19.125 187.663,19.101 
	184.604,18.827 182.764,18.653 182.49,18.627 182.266,18.602 181.545,18.527 173.611,17.881 169.507,17.458 165.478,17.11 
	163.289,16.836 160.703,16.538 159.758,16.414 154.262,15.842 153.962,15.792 152.868,15.667 152.818,15.643 148.963,15.22 
	144.811,15.294 140.806,14.822 139.089,14.474 138.27,14.399 137.324,14.2 135.434,14.424 131.503,14.076 128.792,13.778 
	128.543,13.778 121.505,12.981 119.466,12.36 118.994,12.186 117.925,11.863 106.011,10.594 105.488,10.544 104.966,14.771 
	104.966,14.947 104.394,19.273 103.524,26.859 103.399,28.451 102.952,32.306 111.234,33.276 117.029,33.898 117.252,33.949 
	120.859,34.345 120.561,37.057 120.238,39.792 133.767,41.285 133.692,41.459 133.718,41.633 133.842,41.832 133.817,42.081 
	133.692,42.23 133.519,42.205 133.22,42.379 133.22,42.479 133.27,42.503 133.593,42.678 133.991,43.001 134.114,43.15 
	134.19,43.275 134.265,43.3 134.388,43.35 134.613,43.398 135.185,43.697 135.458,43.797 135.559,43.697 135.583,43.449 
	135.633,43.398 136.056,43.398 136.378,43.374 136.652,43.548 137.075,43.897 137.224,44.071 137.398,44.344 137.398,44.418 
	137.398,44.567 137.348,44.594 137.149,44.642 136.975,45.016 136.951,45.165 137.025,45.264 137.125,45.313 137.348,45.29 
	137.498,45.438 137.796,45.911 137.846,46.061 137.846,46.16 137.697,46.458 137.647,46.806 137.697,47.105 137.672,47.229 
	137.622,47.329 137.448,47.553 137.3,47.801 137.3,47.9 137.348,48.472 137.3,48.697 137.224,48.846 137.149,48.896 137.075,48.92 
	136.975,48.871 136.876,48.994 136.9,49.393 136.826,49.691 136.852,50.089 136.852,50.189 136.801,50.363 136.603,50.786 
	136.578,51.108 136.502,51.233 136.378,51.283 136.354,51.383 136.33,51.582 136.378,51.731 136.528,51.855 136.603,51.955 
	136.678,52.153 136.678,52.328 136.728,52.402 137.1,52.775 137.622,53 137.822,53.099 137.896,53.199 138.045,53.422 
	138.07,53.496 138.095,53.919 138.07,54.218 138.02,54.441 138.543,54.716 138.841,55.064 139.065,55.586 139.089,56.356 
	139.089,56.431 139.015,56.581 138.989,56.68 139.015,57.078 139.115,57.302 139.089,57.525 138.989,57.7 138.989,57.924 
	139.04,58.147 139.188,58.347 139.289,58.421 139.936,58.72 140.01,58.82 140.01,58.943 139.761,59.242 139.711,59.316 
	139.836,59.59 139.885,59.64 139.885,59.715 139.861,59.764 139.711,59.814 139.687,59.889 139.811,60.212 140.11,60.312 
	140.333,60.56 140.458,60.609 140.507,60.585 140.557,60.461 140.606,60.087 140.831,60.087 140.806,60.138 140.731,60.212 
	140.657,60.361 140.682,60.511 140.806,60.585 140.931,60.412 141.004,60.386 141.104,60.412 141.179,60.56 141.179,60.609 
	141.03,60.759 141.03,60.834 141.054,60.883 141.354,60.958 141.651,60.933 142,61.231 142.148,61.455 142.348,62.003 
	142.298,62.102 142.298,62.301 142.497,62.426 142.497,62.475 142.323,62.625 142.099,62.649 142.024,62.724 142,62.774 
	142.124,63.073 142.273,63.146 142.397,63.295 142.373,63.346 142.273,63.545 142.099,63.669 142.448,64.167 142.572,64.191 
	142.572,64.391 142.522,64.615 142.348,64.888 142.323,65.013 142.596,65.484 142.547,65.608 142.572,65.808 142.696,65.957 
	142.845,66.554 142.92,66.629 143.069,66.479 143.169,66.405 143.268,66.43 143.442,66.852 143.417,66.902 143.343,66.902 
	143.144,66.828 142.87,67.027 142.771,67.151 142.771,67.226 142.92,67.549 143.019,67.599 143.069,67.574 143.119,67.475 
	143.244,67.475 143.292,67.549 143.393,67.872 143.393,67.921 143.343,67.997 143.218,68.046 142.87,67.823 142.746,67.823 
	142.696,67.897 142.696,67.972 142.92,68.046 143.044,68.121 143.069,68.195 143.069,68.245 143.019,68.295 142.82,68.32 
	142.82,68.444 142.92,68.644 143.044,68.668 143.044,68.543 143.094,68.495 143.367,68.444 143.442,68.469 143.467,68.519 
	143.467,68.594 143.268,68.917 143.144,68.941 143.094,68.867 143.019,68.867 142.945,68.867 142.92,68.941 142.795,68.967 
	142.596,69.116 142.622,69.166 142.696,69.241 142.696,69.414 142.771,69.414 142.87,69.513 142.87,69.589 142.795,69.638 
	142.671,69.688 142.596,69.763 142.596,69.961 142.522,70.061 142.422,70.036 142.348,70.036 142.249,70.136 142.323,70.409 
	142.273,71.105 142.497,71.877 145.557,72.2 145.481,73.121 145.457,73.146 145.432,73.394 144.71,80.333 143.343,92.918 
	143.442,92.942 142.696,100.105 141.926,107.194 141.85,108.164 141.727,109.109 141.701,109.582 141.553,110.801 141.553,110.825 
	141.03,115.75 149.287,116.646 154.983,117.316 154.759,119.456 154.759,119.505 154.336,123.658 154.908,123.783 155.306,123.783 
	155.529,123.608 155.703,123.534 156.051,123.485 156.375,123.31 156.45,123.31 156.575,123.335 156.699,123.608 156.873,123.758 
	157.146,123.932 157.171,123.982 157.196,124.057 157.146,124.156 157.096,124.504 157.072,124.927 157.022,125.101 
	156.723,125.424 156.673,125.598 156.673,125.921 156.723,126.22 156.897,126.619 157.245,127.065 157.295,127.091 157.544,127.14 
	157.619,127.438 157.768,127.664 157.843,127.688 157.793,128.284 157.693,128.558 157.594,128.633 157.32,128.708 157.295,128.757 
	157.295,128.781 157.345,129.006 157.295,129.156 157.245,129.18 157.046,129.23 157.022,129.479 157.271,129.876 157.295,129.952 
	157.295,130.074 157.022,130.349 156.575,130.523 156.699,130.722 156.773,130.771 157.022,130.996 157.046,131.095 157.022,131.27 
	157.295,131.717 157.171,132.19 157.121,132.239 157.121,132.289 157.096,132.513 157.295,132.712 157.395,132.886 157.395,133.011 
	157.271,133.11 157.096,133.284 157.022,133.856 157.32,134.379 157.544,134.652 157.693,134.926 157.693,135.1 157.843,135.821 
	157.818,136.343 157.743,136.468 157.793,136.841 157.892,137.139 158.116,137.438 158.215,137.487 158.34,137.438 158.415,137.338 
	158.638,137.288 158.788,137.462 158.812,137.636 158.738,138.433 158.788,138.78 158.962,139.353 158.912,139.427 158.912,139.502 
	159.012,139.924 159.062,139.975 159.211,140.074 159.459,140.074 159.608,140.198 159.807,140.496 160.181,140.571 
	160.355,140.795 160.529,141.167 160.628,141.242 160.653,141.367 160.752,141.74 160.828,141.815 160.927,141.89 161.201,141.89 
	161.274,141.914 161.225,142.014 161.225,142.437 161.399,142.883 161.524,142.983 161.598,143.108 161.524,143.382 
	161.624,143.555 161.648,143.63 161.896,143.78 161.921,144.078 161.872,144.575 161.797,144.675 161.624,144.875 161.274,145.123 
	161.176,145.171 160.927,145.171 160.927,145.197 161.176,145.371 161.325,145.371 161.399,145.695 161.325,145.894 
	161.598,145.869 161.748,145.894 161.872,146.142 161.723,146.316 161.648,146.341 161.573,146.416 161.473,146.739 161.45,147.086 
	161.473,147.262 161.548,147.56 161.524,147.684 161.797,147.834 161.972,147.883 162.021,147.834 162.046,147.759 162.146,147.709 
	162.493,147.684 162.668,147.709 162.792,147.958 163.289,148.231 163.613,148.157 163.688,148.108 163.712,148.032 
	163.886,148.057 164.085,148.331 164.061,148.504 164.285,149.102 164.508,149.227 164.732,149.251 164.856,149.177 
	165.056,149.251 165.08,149.276 165.18,149.525 165.255,149.525 165.478,149.45 165.751,149.723 165.777,149.848 165.751,150.072 
	165.702,150.122 165.577,150.097 165.553,150.122 165.677,150.396 165.777,150.471 166.099,150.867 166.423,150.967 
	166.573,151.166 166.945,151.242 166.945,151.34 167.069,151.664 167.418,151.912 167.866,152.136 168.139,152.435 168.239,152.683 
	168.313,153.156 168.388,153.206 168.836,153.231 168.96,153.28 169.433,153.131 169.507,153.056 169.632,152.932 169.73,152.932 
	169.93,153.355 170.079,153.579 170.179,153.777 170.254,154.051 170.254,154.35 170.701,154.698 170.751,154.797 170.725,154.822 
	170.725,154.971 170.751,155.071 170.776,155.519 170.876,155.743 170.925,156.19 170.95,156.24 171.149,156.29 171.248,156.389 
	171.248,157.607 171.347,158.155 171.398,158.454 171.596,158.802 171.771,159.025 172.168,159.225 172.417,159.374 
	172.467,159.499 172.84,159.821 172.964,159.796 173.287,159.796 173.437,159.871 173.462,159.896 173.437,159.944 173.337,160.096 
	173.462,160.518 173.685,160.767 173.685,160.964 173.76,161.265 173.785,161.314 174.009,161.364 174.133,161.687 174.109,161.86 
	174.133,161.911 174.656,162.607 174.855,162.683 174.954,162.631 175.004,162.507 175.053,162.458 175.203,162.433 
	175.303,162.533 175.252,162.558 175.303,162.707 175.426,162.831 175.899,163.029 175.924,163.005 176.147,163.104 
	176.222,163.179 176.372,163.577 176.372,163.627 176.248,163.677 175.874,163.775 175.774,163.677 175.674,163.677 175.6,163.702 
	175.525,163.775 175.203,164.249 175.053,164.447 174.979,164.572 174.954,165.044 174.979,165.12 175.525,165.591 175.774,165.691 
	175.949,165.617 176.048,165.343 176.248,165.12 176.447,165.12 176.57,165.268 176.919,165.343 177.368,165.89 177.417,166.088 
	177.565,166.537 178.138,166.786 178.212,166.734 178.436,166.81 178.461,166.935 178.436,167.084 178.511,167.159 178.585,167.183 
	178.734,167.159 179.083,167.208 179.282,167.333 179.307,167.432 179.282,167.482 179.307,167.505 179.481,167.581 
	179.655,167.581 179.729,167.631 179.58,167.88 179.182,167.855 179.008,168.053 178.909,168.204 178.983,168.328 179.182,168.453 
	179.357,168.65 179.505,168.9 179.556,169.124 179.53,169.223 179.556,169.397 179.729,169.546 179.282,169.67 179.257,169.721 
	179.406,170.092 179.406,170.167 179.357,170.441 182.266,170.766 182.242,171.61 181.893,175.267 181.596,178.923 181.321,181.708 
	181.247,182.355 181.196,183.002 181.196,183.448 180.824,187.777 182.042,187.901 181.596,192.875 181.596,192.925 
	181.321,195.735 181.222,196.779 181.022,198.72 180.973,199.02 185.4,199.441 185.45,199.441 189.031,199.765 191.145,199.989 
	194.777,200.361 203.456,201.132 205.396,201.308 209.898,201.705 211.142,201.804 211.838,201.854 211.863,201.854 
	214.823,202.129 231.312,203.645 241.311,204.466 241.485,204.49 248.523,205.112 249.319,205.163 253.92,205.51 254.816,194.217 
	253.896,194.144 254.791,182.704 254.865,181.66 255.188,177.405 255.536,172.754 255.637,171.413 257.651,171.56 257.774,169.919 
	258.074,165.84 258.074,165.815 258.099,165.493 258.124,165.169 258.124,165.12 258.323,163.08 258.522,160.045 258.943,154.475 
	258.993,153.703 259.392,148.878 258.721,148.829 259.144,143.256 259.193,143.282 259.244,142.883 259.765,135.871 259.79,135.447 
	260.487,126.294 259.64,126.22 259.79,124.355 262.649,124.553 262.649,124.579 263.818,124.629 273.196,125.375 273.817,125.45 
	274.141,125.523 279.29,125.921 279.438,125.921 279.785,125.971 280.06,122.34 279.936,122.315 281.204,105.304 280.533,105.279 
	280.932,99.608 281.03,98.688 281.279,94.783 281.379,93.241 281.727,89.087 281.999,85.332 282.123,84.014 282.198,82.72 
	282.224,82.422 281.353,82.348 "/>
<polygon id="5600002" fill="#4D4D4D" stroke="#FFFFFF" points="253.05,216.901 253.473,211.38 253.473,211.23 
	253.846,206.654 253.846,206.604 253.92,205.51 249.319,205.163 248.523,205.112 241.485,204.49 241.311,204.466 231.312,203.645 
	214.823,202.129 211.863,201.854 211.838,201.854 211.142,201.804 209.898,201.705 205.396,201.308 203.456,201.132 
	194.777,200.361 191.145,199.989 189.031,199.765 185.45,199.441 185.4,199.441 180.973,199.02 181.022,198.72 181.222,196.779 
	181.321,195.735 181.596,192.925 181.596,192.875 182.042,187.901 180.824,187.777 181.196,183.448 181.196,183.002 
	181.247,182.355 181.321,181.708 181.596,178.923 181.893,175.267 182.242,171.61 182.266,170.766 179.357,170.441 179.406,170.167 
	179.406,170.092 179.257,169.721 179.282,169.67 179.729,169.546 179.556,169.397 179.53,169.223 179.556,169.124 179.505,168.9 
	179.357,168.65 179.182,168.453 178.983,168.328 178.909,168.204 179.008,168.053 179.182,167.855 179.58,167.88 179.729,167.631 
	179.655,167.581 179.481,167.581 179.307,167.505 179.282,167.482 179.307,167.432 179.282,167.333 179.083,167.208 
	178.734,167.159 178.585,167.183 178.511,167.159 178.436,167.084 178.461,166.935 178.436,166.81 178.212,166.734 178.138,166.786 
	177.565,166.537 177.417,166.088 177.368,165.89 176.919,165.343 176.57,165.268 176.447,165.12 176.248,165.12 176.048,165.343 
	175.949,165.617 175.774,165.691 175.525,165.591 174.979,165.12 174.954,165.044 174.979,164.572 175.053,164.447 175.203,164.249 
	175.525,163.775 175.6,163.702 175.674,163.677 175.774,163.677 175.874,163.775 176.248,163.677 176.372,163.627 176.372,163.577 
	176.222,163.179 176.147,163.104 175.924,163.005 175.899,163.029 175.426,162.831 175.303,162.707 175.252,162.558 
	175.303,162.533 175.203,162.433 175.053,162.458 175.004,162.507 174.954,162.631 174.855,162.683 174.656,162.607 
	174.133,161.911 174.109,161.86 174.133,161.687 174.009,161.364 173.785,161.314 173.76,161.265 173.685,160.964 173.685,160.767 
	173.462,160.518 173.337,160.096 173.437,159.944 173.462,159.896 173.437,159.871 173.287,159.796 172.964,159.796 172.84,159.821 
	172.467,159.499 172.417,159.374 172.168,159.225 171.771,159.025 171.596,158.802 171.398,158.454 171.347,158.155 
	171.248,157.607 171.248,156.389 171.149,156.29 170.95,156.24 170.925,156.19 170.876,155.743 170.776,155.519 170.751,155.071 
	170.725,154.971 170.725,154.822 170.751,154.797 170.701,154.698 170.254,154.35 170.254,154.051 170.179,153.777 170.079,153.579 
	169.93,153.355 169.73,152.932 169.632,152.932 169.507,153.056 169.433,153.131 168.96,153.28 168.836,153.231 168.388,153.206 
	168.313,153.156 168.239,152.683 168.139,152.435 167.866,152.136 167.418,151.912 167.069,151.664 166.945,151.34 166.945,151.242 
	166.573,151.166 166.423,150.967 166.099,150.867 165.777,150.471 165.677,150.396 165.553,150.122 165.577,150.097 
	165.702,150.122 165.751,150.072 165.777,149.848 165.751,149.723 165.478,149.45 165.255,149.525 165.18,149.525 165.08,149.276 
	165.056,149.251 164.856,149.177 164.732,149.251 164.508,149.227 164.285,149.102 164.061,148.504 164.085,148.331 
	163.886,148.057 163.712,148.032 163.688,148.108 163.613,148.157 163.289,148.231 162.792,147.958 162.668,147.709 
	162.493,147.684 162.146,147.709 162.046,147.759 162.021,147.834 161.972,147.883 161.797,147.834 161.524,147.684 161.548,147.56 
	161.473,147.262 161.45,147.086 161.473,146.739 161.573,146.416 161.648,146.341 161.723,146.316 161.872,146.142 161.748,145.894 
	161.598,145.869 161.325,145.894 161.399,145.695 161.325,145.371 161.176,145.371 160.927,145.197 160.927,145.171 
	161.176,145.171 161.274,145.123 161.624,144.875 161.797,144.675 161.872,144.575 161.921,144.078 161.896,143.78 161.648,143.63 
	161.624,143.555 161.524,143.382 161.598,143.108 161.524,142.983 161.399,142.883 161.225,142.437 161.225,142.014 
	161.274,141.914 161.201,141.89 160.927,141.89 160.828,141.815 160.752,141.74 160.653,141.367 160.628,141.242 160.529,141.167 
	160.355,140.795 160.181,140.571 159.807,140.496 159.608,140.198 159.459,140.074 159.211,140.074 159.062,139.975 
	159.012,139.924 158.912,139.502 158.912,139.427 158.962,139.353 158.788,138.78 158.738,138.433 158.812,137.636 158.788,137.462 
	158.638,137.288 158.415,137.338 158.34,137.438 158.215,137.487 158.116,137.438 157.892,137.139 157.793,136.841 157.743,136.468 
	157.818,136.343 157.843,135.821 157.693,135.1 157.693,134.926 157.544,134.652 157.32,134.379 157.022,133.856 157.096,133.284 
	157.271,133.11 157.395,133.011 157.395,132.886 157.295,132.712 157.096,132.513 157.121,132.289 157.121,132.239 157.171,132.19 
	157.295,131.717 157.022,131.27 157.046,131.095 157.022,130.996 156.773,130.771 156.699,130.722 156.575,130.523 157.022,130.349 
	157.295,130.074 157.295,129.952 157.271,129.876 157.022,129.479 157.046,129.23 157.245,129.18 157.295,129.156 157.345,129.006 
	157.295,128.781 157.295,128.757 157.32,128.708 157.594,128.633 157.693,128.558 157.793,128.284 157.843,127.688 157.768,127.664 
	157.619,127.438 157.544,127.14 157.295,127.091 157.245,127.065 156.897,126.619 156.723,126.22 156.673,125.921 156.673,125.598 
	156.723,125.424 157.022,125.101 157.072,124.927 157.096,124.504 157.146,124.156 157.196,124.057 157.171,123.982 
	157.146,123.932 156.873,123.758 156.699,123.608 156.575,123.335 156.45,123.31 156.375,123.31 156.051,123.485 155.703,123.534 
	155.529,123.608 155.306,123.783 154.908,123.783 154.336,123.658 154.759,119.505 154.759,119.456 154.983,117.316 
	149.287,116.646 141.03,115.75 141.553,110.825 141.553,110.801 141.701,109.582 141.727,109.109 141.85,108.164 141.926,107.194 
	142.696,100.105 143.442,92.942 143.343,92.918 144.71,80.333 145.432,73.394 145.457,73.146 145.481,73.121 145.557,72.2 
	142.497,71.877 142.273,71.105 142.323,70.409 142.249,70.136 142.348,70.036 142.422,70.036 142.522,70.061 142.596,69.961 
	142.596,69.763 142.671,69.688 142.795,69.638 142.87,69.589 142.87,69.513 142.771,69.414 142.696,69.414 142.696,69.241 
	142.622,69.166 142.596,69.116 142.795,68.967 142.92,68.941 142.945,68.867 143.019,68.867 143.094,68.867 143.144,68.941 
	143.268,68.917 143.467,68.594 143.467,68.519 143.442,68.469 143.367,68.444 143.094,68.495 143.044,68.543 143.044,68.668 
	142.92,68.644 142.82,68.444 142.82,68.32 143.019,68.295 143.069,68.245 143.069,68.195 143.044,68.121 142.92,68.046 
	142.696,67.972 142.696,67.897 142.746,67.823 142.87,67.823 143.218,68.046 143.343,67.997 143.393,67.921 143.393,67.872 
	143.292,67.549 143.244,67.475 143.119,67.475 143.069,67.574 143.019,67.599 142.92,67.549 142.771,67.226 142.771,67.151 
	142.87,67.027 143.144,66.828 143.343,66.902 143.417,66.902 143.442,66.852 143.268,66.43 143.169,66.405 143.069,66.479 
	142.92,66.629 142.845,66.554 142.696,65.957 142.572,65.808 142.547,65.608 142.596,65.484 142.323,65.013 142.348,64.888 
	142.522,64.615 142.572,64.391 142.572,64.191 142.448,64.167 142.099,63.669 142.273,63.545 142.373,63.346 142.397,63.295 
	142.273,63.146 142.124,63.073 142,62.774 142.024,62.724 142.099,62.649 142.323,62.625 142.497,62.475 142.497,62.426 
	142.298,62.301 142.298,62.102 142.348,62.003 142.148,61.455 142,61.231 141.651,60.933 141.354,60.958 141.054,60.883 
	141.03,60.834 141.03,60.759 141.179,60.609 141.179,60.56 141.104,60.412 141.004,60.386 140.931,60.412 140.806,60.585 
	140.682,60.511 140.657,60.361 140.731,60.212 140.806,60.138 140.831,60.087 140.606,60.087 140.557,60.461 140.507,60.585 
	140.458,60.609 140.333,60.56 140.11,60.312 139.811,60.212 139.687,59.889 139.711,59.814 139.861,59.764 139.885,59.715 
	139.885,59.64 139.836,59.59 139.711,59.316 139.761,59.242 140.01,58.943 140.01,58.82 139.936,58.72 139.289,58.421 
	139.188,58.347 139.04,58.147 138.989,57.924 138.989,57.7 139.089,57.525 139.115,57.302 139.015,57.078 138.989,56.68 
	139.015,56.581 139.089,56.431 139.089,56.356 139.065,55.586 138.841,55.064 138.543,54.716 138.02,54.441 138.07,54.218 
	138.095,53.919 138.07,53.496 138.045,53.422 137.896,53.199 137.822,53.099 137.622,53 137.1,52.775 136.728,52.402 
	136.678,52.328 136.678,52.153 136.603,51.955 136.528,51.855 136.378,51.731 136.33,51.582 136.354,51.383 136.378,51.283 
	136.502,51.233 136.578,51.108 136.603,50.786 136.801,50.363 136.852,50.189 136.852,50.089 136.826,49.691 136.9,49.393 
	136.876,48.994 136.975,48.871 137.075,48.92 137.149,48.896 137.224,48.846 137.3,48.697 137.348,48.472 137.3,47.9 137.3,47.801 
	137.448,47.553 137.622,47.329 137.672,47.229 137.697,47.105 137.647,46.806 137.697,46.458 137.846,46.16 137.846,46.061 
	137.796,45.911 137.498,45.438 137.348,45.29 137.125,45.313 137.025,45.264 136.951,45.165 136.975,45.016 137.149,44.642 
	137.348,44.594 137.398,44.567 137.398,44.418 137.398,44.344 137.224,44.071 137.075,43.897 136.652,43.548 136.378,43.374 
	136.056,43.398 135.633,43.398 135.583,43.449 135.559,43.697 135.458,43.797 135.185,43.697 134.613,43.398 134.388,43.35 
	134.265,43.3 134.19,43.275 134.114,43.15 133.991,43.001 133.593,42.678 133.27,42.503 133.22,42.479 133.22,42.379 
	133.519,42.205 133.692,42.23 133.817,42.081 133.842,41.832 133.718,41.633 133.692,41.459 133.767,41.285 120.238,39.792 
	120.561,37.057 120.859,34.345 117.252,33.949 117.029,33.898 111.234,33.276 102.952,32.306 102.653,34.992 102.603,35.416 
	101.783,44.841 101.51,47.179 101.485,47.305 101.037,51.283 100.837,52.65 100.067,59.391 99.172,67.052 99.122,67.524 
	99.097,67.823 99.072,68.195 99.022,68.768 98.673,71.578 98.649,71.703 98.649,71.728 98.326,74.364 98.251,75.683 98.152,76.752 
	98.152,76.826 98.127,76.826 98.102,77.298 97.604,81.651 97.231,84.685 96.933,87.322 96.883,87.67 96.659,89.784 96.61,90.232 
	96.411,91.873 96.237,93.44 96.237,93.49 96.211,93.564 96.186,93.764 95.938,96.001 95.938,96.126 95.914,96.201 95.914,96.275 
	95.914,96.449 95.889,96.549 95.738,97.867 95.614,99.011 95.614,99.037 95.465,100.279 95.465,100.33 94.57,108.164 
	93.177,120.251 92.332,127.738 92.282,128.086 92.232,128.483 92.207,128.807 92.158,129.28 92.158,129.305 92.132,129.479 
	91.884,131.468 91.511,134.875 91.362,136.119 91.311,136.367 91.311,136.517 91.263,136.89 91.237,137.263 91.162,137.81 
	91.138,137.909 91.138,138.134 91.038,138.905 91.014,139.104 90.988,139.203 90.988,139.228 90.963,139.353 90.963,139.526 
	90.94,139.601 90.69,141.939 90.615,142.461 90.59,142.809 90.541,143.133 90.466,143.854 89.845,148.978 89.721,150.072 
	89.049,155.992 88.725,158.9 88.701,159.125 88.177,163.179 88.103,163.727 87.78,166.264 87.532,168.029 86.984,172.556 
	86.911,173.103 86.859,173.425 86.637,175.465 86.114,179.893 85.715,183.225 85.193,187.727 84.672,192.129 84.522,193.322 
	84.447,194.12 84.174,196.308 84.124,196.73 83.975,198.073 83.751,200.188 83.079,205.933 81.861,216.454 81.414,220.433 
	81.389,220.583 81.338,221.154 81.314,221.354 80.542,228.067 79.896,233.489 79.796,234.41 79.722,234.958 79.697,235.256 
	79.648,235.704 79.449,237.271 78.354,246.673 78.205,247.792 77.358,254.904 77.334,255.153 75.668,269.38 75.419,271.494 
	83.901,272.514 89.845,273.209 90.864,273.359 91.063,273.384 91.561,273.458 92.356,273.532 94.993,273.831 96.833,274.055 
	99.818,274.379 100.117,274.403 102.007,274.726 108.1,275.374 112.676,275.821 114.194,275.97 114.815,276.094 120.288,276.592 
	120.487,276.592 124.067,276.941 126.107,277.14 126.381,277.188 126.43,277.188 127.625,277.288 128.247,277.363 133.493,277.909 
	133.519,277.909 134.114,277.985 139.562,278.507 140.309,278.581 140.384,278.581 140.507,278.606 142.198,278.78 145.532,279.104 
	146.602,279.229 147.82,279.354 148.689,279.452 149.113,279.476 150.78,279.577 162.991,280.672 163.911,280.696 166.747,281.045 
	172.79,281.642 180.873,282.436 185.599,282.885 193.234,283.582 198.333,284.078 199.602,284.152 209.401,285.023 209.998,285.072 
	211.814,285.248 215.196,285.521 219.698,285.819 221.786,285.969 227.806,286.466 228.054,286.491 228.552,280.845 228.552,280.82 
	230.293,260.526 229.671,260.45 230.243,253.587 230.839,246.199 230.89,245.826 231.014,244.284 231.063,243.737 231.089,243.364 
	232.406,243.488 233.054,243.564 234.048,243.638 234.794,243.713 235.217,243.762 235.441,243.762 236.66,243.886 236.709,243.886 
	238.351,244.035 239.843,244.159 242.281,244.384 247.727,244.856 251.434,245.154 251.832,239.708 252.056,239.732 
	252.104,238.987 252.129,238.911 252.18,238.165 252.503,234.087 252.527,233.813 252.602,233.068 253,228.366 253.423,223.218 
	253.572,221.428 253.87,217.996 253.896,217.448 253.945,216.976 "/>
<polygon id="5600003" fill="#4D4D4D" stroke="#FFFFFF" points="419.215,36.062 411.777,35.714 409.067,35.589 409.042,35.564 
	400.338,35.142 400.113,35.117 400.039,35.142 397.229,34.942 395.662,34.894 395.438,34.868 383.748,34.171 383.699,34.197 
	383.426,34.171 382.804,34.146 380.44,34.022 375.117,33.723 367.434,33.301 358.578,32.779 357.087,32.705 345.423,31.983 
	342.587,31.784 342.388,31.76 342.363,31.834 341.691,32.207 337.213,31.908 329.902,31.436 326.196,31.188 314.382,30.342 
	312.021,30.167 297.346,29.073 297.172,29.049 296.748,29.023 296.077,28.949 292.694,28.701 292.646,28.701 291.974,28.65 
	289.884,28.476 288.765,28.353 288.293,28.353 287.348,28.127 286.452,28.029 286.054,27.954 279.189,27.382 278.519,27.308 
	277.523,27.232 277.2,27.208 276.031,27.108 273.693,26.909 269.54,26.585 264.217,26.188 264.168,26.188 257.627,25.666 
	251.582,25.144 250.19,25.02 250.214,25.118 250.313,25.218 250.488,25.392 250.639,25.367 250.712,25.392 251.26,25.89 
	251.434,26.014 251.482,26.139 251.508,26.164 251.458,26.337 251.384,26.462 251.458,26.736 251.582,27.457 251.582,27.631 
	251.532,27.854 251.434,28.228 251.434,28.302 251.434,28.401 251.408,28.526 251.309,28.65 251.234,28.974 251.21,29.571 
	251.283,29.646 251.482,29.77 251.658,29.944 251.707,30.093 251.955,30.342 252.403,30.914 252.403,31.262 252.527,31.908 
	252.553,31.958 252.403,31.958 251.955,32.207 251.93,32.53 251.955,32.655 251.881,33.003 251.856,33.103 251.682,33.426 
	251.658,33.525 251.781,33.873 251.98,33.949 252.08,33.973 252.204,34.171 252.304,34.321 252.553,34.495 252.602,34.645 
	252.651,35.191 252.801,35.391 253.05,35.514 253.05,35.665 252.951,35.863 252.975,35.962 253.025,36.013 253.1,36.062 
	253.148,36.311 253.148,36.41 253.125,36.459 253,36.584 252.9,36.808 253.174,36.808 253.224,36.833 253.249,36.858 
	253.273,36.958 253.1,36.958 253.025,37.007 253.025,37.057 253.1,37.106 253.174,37.131 253.373,37.106 253.498,37.157 
	253.597,37.306 253.622,37.38 253.521,37.828 253.473,37.902 253.373,38.001 253.299,38.052 253.025,38.25 252.975,38.275 
	252.851,38.4 252.801,38.474 252.727,38.773 252.727,39.096 253.075,39.022 253.174,39.022 253.622,39.221 253.971,39.52 
	254.17,39.644 254.244,39.768 255.014,40.439 255.088,40.464 255.462,40.389 255.762,40.439 256.233,40.663 256.308,40.986 
	256.184,41.509 256.258,41.583 256.482,41.733 256.333,42.28 256.383,42.354 256.557,42.554 256.557,42.604 256.482,42.852 
	256.457,42.876 256.432,43.026 256.432,43.125 256.457,43.423 256.283,43.648 256.209,43.697 256.184,43.822 256.333,44.17 
	256.432,44.294 256.506,44.369 256.707,44.468 256.881,44.344 257.153,44.294 257.651,44.718 257.826,44.816 258,44.841 
	258.149,44.941 258.297,45.065 258.422,45.14 258.496,45.165 258.596,44.966 258.646,44.941 259.069,45.165 259.193,45.14 
	259.244,45.364 259.219,45.762 259.069,45.936 259.069,46.011 259.169,46.309 259.317,46.359 259.392,46.433 259.467,46.533 
	259.542,46.782 259.666,46.906 259.716,46.931 260.287,46.682 260.312,46.632 260.337,46.458 260.387,46.334 260.611,46.16 
	260.96,46.11 261.133,46.259 261.53,46.185 261.779,46.234 261.904,46.209 262.054,46.061 262.054,45.886 262.077,45.836 
	262.277,45.712 262.353,45.762 262.426,45.936 262.75,46.16 262.9,46.185 263.049,46.16 263.172,46.185 263.322,46.384 
	263.346,46.508 263.371,46.607 263.422,46.632 263.471,46.657 263.818,46.583 263.868,46.607 264.118,47.055 264.241,47.08 
	264.416,47.055 265.037,47.403 265.211,47.627 265.188,48.174 265.635,48.348 265.783,48.374 265.983,48.274 266.082,48.324 
	266.132,48.348 266.207,48.498 266.381,48.646 266.531,48.697 266.331,48.994 266.033,49.22 265.958,49.244 265.834,49.244 
	265.809,49.268 265.734,49.442 265.734,49.567 265.958,49.766 265.983,50.363 266.156,50.487 266.705,50.512 266.778,50.487 
	267.027,50.313 267.152,50.115 267.326,49.99 267.574,50.015 267.749,50.537 267.749,50.736 267.849,51.009 267.898,51.084 
	268.022,51.159 268.098,51.208 268.147,51.333 268.147,51.482 268.196,51.631 268.271,51.756 268.521,51.98 268.868,52.079 
	269.092,52.253 269.117,52.377 269.814,52.577 270.137,52.478 270.31,52.229 270.683,52.278 270.759,52.452 270.733,52.8 
	270.883,52.974 271.132,53.124 271.554,53.099 271.854,53.173 272.301,53.447 272.424,53.695 272.401,53.795 272.401,53.87 
	272.573,54.168 272.648,54.243 272.772,54.417 272.873,55.312 272.946,55.834 272.848,56.009 273.119,56.158 273.346,56.481 
	273.319,56.605 273.319,56.705 273.593,57.028 274.34,57.253 274.464,57.227 274.613,57.053 274.662,57.153 274.662,57.525 
	274.787,57.65 274.936,57.725 274.986,57.898 274.986,57.999 274.837,58.247 274.837,58.471 275.26,58.894 275.434,59.367 
	275.684,59.516 275.858,59.565 276.155,59.963 276.18,60.013 276.031,60.112 275.932,60.237 275.932,60.386 275.981,60.585 
	275.981,60.709 275.881,61.008 275.633,61.033 275.558,61.033 275.558,61.083 275.706,61.331 275.782,61.53 275.706,61.903 
	275.607,62.127 275.558,62.276 275.607,62.525 275.684,62.674 275.832,62.724 276.503,62.749 276.652,62.724 276.678,62.724 
	276.852,62.948 276.703,63.171 276.678,63.196 276.753,63.321 276.901,63.42 277.125,63.396 277.448,63.545 277.549,63.644 
	277.697,63.967 277.846,64.042 277.972,64.042 278.096,64.142 278.245,64.216 278.468,64.092 278.89,64.042 279.588,63.794 
	279.785,63.893 279.986,63.893 280.16,63.818 280.185,63.843 280.235,64.142 280.06,64.539 279.96,65.137 280.011,65.336 
	280.086,65.41 280.086,66.529 280.06,66.878 280.109,66.927 280.384,67.002 280.582,67.002 280.607,66.977 280.607,66.927 
	280.732,66.778 280.857,66.703 281.03,66.728 281.079,66.778 281.453,67.375 281.379,67.623 281.204,67.823 281.079,68.295 
	281.03,68.469 281.229,68.619 281.527,68.693 281.553,68.743 281.651,69.016 281.627,69.066 281.105,69.538 280.533,69.613 
	280.334,69.961 280.284,70.335 280.483,70.409 280.732,70.459 280.756,70.483 280.881,70.708 280.83,70.981 281.005,71.205 
	281.204,71.181 281.403,71.23 281.553,71.279 281.727,71.453 281.577,71.578 281.553,71.852 281.553,71.901 281.727,72.1 
	281.95,71.976 282.123,71.976 282.224,72.026 281.477,80.88 281.477,80.955 281.353,82.348 282.224,82.422 282.198,82.72 
	282.123,84.014 281.999,85.332 281.727,89.087 281.379,93.241 281.279,94.783 281.03,98.688 280.932,99.608 280.533,105.279 
	281.204,105.304 279.936,122.315 280.06,122.34 279.785,125.971 279.736,126.494 284.486,126.817 299.386,127.937 300.653,128.037 
	300.952,128.061 304.408,128.311 304.459,128.311 305.006,128.335 307.12,128.483 311.125,128.708 313.486,128.856 321.446,129.354 
	323.286,129.428 325.176,129.578 328.484,129.727 329.728,129.802 329.778,129.802 331.37,129.876 332.837,129.976 335.797,130.15 
	346.367,130.747 347.064,130.797 347.934,130.822 347.959,130.822 358.305,131.394 358.578,131.419 358.629,131.419 367.98,131.841 
	373.477,132.165 375.641,132.239 377.979,132.339 378.127,132.339 378.6,132.364 378.874,132.388 384.146,132.613 385.862,132.687 
	386.509,132.712 391.21,132.86 392.006,132.86 396.979,133.11 398.174,133.16 401.655,133.334 402.376,133.384 402.551,133.384 
	402.948,133.384 403.297,133.408 406.854,133.558 406.953,133.558 409.342,133.682 409.54,133.682 417.2,133.98 424.089,134.278 
	424.214,130.623 424.289,129.28 424.289,129.006 424.289,128.98 424.736,118.286 424.761,118.062 425.034,111.322 425.283,105.875 
	425.283,105.776 425.558,99.856 425.807,93.913 425.881,92.495 425.979,89.933 426.129,85.357 426.328,80.507 426.352,80.309 
	426.452,77.846 426.526,75.906 426.851,67.848 426.925,66.182 427.024,64.365 427.05,63.669 427.174,60.834 427.223,59.79 
	427.348,56.506 427.348,56.332 427.372,55.91 427.448,54.417 427.448,54.392 427.497,52.726 427.547,51.507 427.571,51.482 
	427.821,45.016 427.87,44.494 428.119,36.51 "/>
<polygon id="5600004" fill="#4D4D4D" stroke="#FFFFFF" points="417.2,133.98 409.54,133.682 409.342,133.682 406.953,133.558 
	406.854,133.558 403.297,133.408 402.948,133.384 402.551,133.384 402.376,133.384 401.655,133.334 398.174,133.16 396.979,133.11 
	392.006,132.86 391.21,132.86 386.509,132.712 385.862,132.687 384.146,132.613 378.874,132.388 378.6,132.364 378.127,132.339 
	377.979,132.339 375.641,132.239 373.477,132.165 367.98,131.841 358.629,131.419 358.578,131.419 358.305,131.394 347.959,130.822 
	347.934,130.822 347.064,130.797 346.367,130.747 335.797,130.15 332.837,129.976 331.37,129.876 329.778,129.802 329.728,129.802 
	328.484,129.727 328.41,130.698 328.41,130.747 328.385,131.169 328.584,131.169 327.59,147.286 327.141,153.827 327.066,153.803 
	327.042,154.276 326.52,163.526 326.147,169.969 326.122,170.64 326.071,171.312 326.071,171.413 326.071,171.511 325.997,172.63 
	325.948,173.177 325.948,173.202 325.773,175.987 325.748,176.66 325.525,176.66 325.4,179.296 325.5,179.296 325.426,180.34 
	325.601,180.34 325.601,180.564 325.351,180.564 325.301,181.36 325.4,181.36 325.351,182.081 325.252,182.081 324.903,187.13 
	324.53,192.502 324.505,193.621 324.505,193.695 324.479,194.667 324.431,195.586 324.355,196.433 324.257,198.322 324.132,199.241 
	317.143,198.795 312.344,198.472 308.115,198.273 304.931,198.147 299.56,197.775 297.819,197.674 296.4,197.525 284.039,196.506 
	282.945,196.433 282.696,196.408 278.17,196.06 266.082,195.064 254.816,194.217 253.92,205.51 253.846,206.604 253.846,206.654 
	253.473,211.23 253.473,211.38 253.05,216.901 253.945,216.976 253.896,217.448 253.87,217.996 253.572,221.428 253.423,223.218 
	253,228.366 252.602,233.068 252.527,233.813 252.503,234.087 252.18,238.165 252.129,238.911 252.104,238.987 252.056,239.732 
	251.832,239.708 251.434,245.154 247.727,244.856 242.281,244.384 239.843,244.159 238.351,244.035 236.709,243.886 236.66,243.886 
	235.441,243.762 235.217,243.762 234.794,243.713 234.048,243.638 233.054,243.564 232.406,243.488 231.089,243.364 
	231.063,243.737 231.014,244.284 230.89,245.826 230.839,246.199 230.243,253.587 229.671,260.45 230.293,260.526 228.552,280.82 
	228.552,280.845 228.054,286.491 239.147,287.411 242.355,287.66 243.873,287.784 244.892,287.859 247.453,288.058 254.99,288.605 
	257.402,288.804 258.024,288.853 258.124,288.853 258.149,288.853 261.157,289.102 265.958,289.45 267.276,289.526 272.922,289.924 
	279.886,290.495 281.999,290.644 299.634,291.912 300.33,291.963 300.455,291.989 300.753,292.013 302.668,292.186 302.942,292.211 
	306.125,292.559 311.174,292.982 312.293,293.058 312.492,293.08 318.835,293.53 333.358,294.425 335.026,294.524 335.299,294.55 
	339.179,294.773 343.631,295.021 350.595,295.395 357.211,295.743 357.386,292.61 357.311,292.61 357.56,287.958 357.658,286.019 
	357.759,283.432 357.759,283.358 357.783,283.083 357.933,279.775 358.082,277.188 358.131,276.317 358.205,274.504 358.504,269.63 
	358.629,269.653 358.654,269.38 358.654,269.305 358.729,267.041 359.399,254.731 359.475,253.438 359.548,252.493 360.27,252.542 
	360.443,252.542 360.52,252.542 360.568,252.542 365.767,252.865 367.283,252.939 373.576,253.338 378.648,253.686 380.54,253.81 
	380.64,253.81 380.938,253.835 383.176,253.983 383.301,253.983 385.564,254.134 389.867,254.307 389.792,255.477 389.767,256.148 
	389.743,256.495 389.594,260.102 389.893,260.102 392.528,260.253 397.775,260.526 398.721,260.576 403.645,260.774 407.55,260.973 
	412.499,261.222 418.768,261.47 418.816,259.655 418.892,258.237 418.892,257.64 418.941,256.621 418.967,256.173 419.115,252.69 
	419.215,250.379 419.239,249.98 419.414,245.728 419.438,245.379 419.438,245.203 419.488,244.21 419.562,242.27 419.638,240.38 
	419.688,239.036 419.712,238.439 419.886,234.635 419.886,234.436 419.937,233.615 419.937,233.565 419.937,233.541 
	419.937,233.267 419.961,233.218 419.961,233.19 419.961,232.943 419.986,232.745 419.986,232.67 420.011,231.799 420.036,231.427 
	420.16,227.943 420.21,227.023 420.234,226.575 420.234,226.551 420.334,224.661 420.334,224.088 420.334,223.864 420.459,221.925 
	420.434,221.677 420.658,216.454 420.683,215.906 420.707,215.732 420.906,210.534 420.981,209.166 421.354,200.039 
	421.678,192.775 421.678,192.726 421.751,191.458 421.751,191.259 421.802,190.189 421.826,189.467 422.075,183.647 422.075,183.35 
	422.398,175.739 422.747,167.208 423.12,158.379 423.194,156.439 423.518,148.256 423.542,147.784 423.542,147.286 423.593,145.869 
	423.767,141.615 423.865,139.128 424.015,135.92 424.089,134.278 "/>
</svg>
