<?xml version="1.0" encoding="utf-8"?>
<!-- Generator: Adobe Illustrator 13.0.2, SVG Export Plug-In . SVG Version: 6.00 Build 14948)  -->
<!DOCTYPE svg PUBLIC "-//W3C//DTD SVG 1.1//EN" "http://www.w3.org/Graphics/SVG/1.1/DTD/svg11.dtd">
<svg version="1.1" id="Layer_1" xmlns="http://www.w3.org/2000/svg" xmlns:xlink="http://www.w3.org/1999/xlink" x="0px" y="0px"
	 width="500px" height="400px" viewBox="-95.735 -3.711 500 400" enable-background="new -95.735 -3.711 500 400"
	 xml:space="preserve">
<polyline id="1020100" fill="#4D4D4D" stroke="#231F20" points="212.871,136.074 213.404,136.25 213.85,135.984 
	214.116,135.984 214.206,135.984 214.918,135.628 215.184,135.361 215.893,135.448 216.338,135.182 216.871,135.361 
	217.051,135.006 217.051,134.65 217.23,134.47 217.763,134.383 217.939,134.47 217.939,134.74 218.476,134.915 219.184,134.027 
	219.986,133.315 220.339,131.092 220.339,130.65 219.986,130.117 219.986,129.581 220.429,128.693 221.498,128.07 221.854,127.448 
	221.854,127.092 221.23,126.736 221.23,126.291 221.141,125.938 220.698,125.848 220.519,125.492 220.785,124.514 221.498,125.046 
	221.854,125.135 222.119,124.959 221.854,124.157 221.676,123.981 221.317,123.981 221.141,123.714 221.408,123.089 
	221.586,123.003 221.854,123.003 222.295,123.448 222.475,123.625 223.008,123.356 223.008,122.822 223.097,122.558 
	223.274,122.558 223.541,122.558 223.986,123.003 224.253,123.179 224.608,123.003 225.321,120.779 225.942,120.424 226.564,120.69 
	227.098,119.889 227.098,119.089 227.453,118.733 227.544,118.557 227.81,118.644 229.231,119.711 231.454,120.247 232.079,120.779 
	231.99,122.111 232.166,122.291 232.522,122.558 232.791,122.736 235.014,123.536 235.014,123.714 237.236,124.514 238.925,124.692 
	243.46,127.092 244.081,127.895 245.06,130.559 245.15,130.736 247.104,133.048 251.729,136.786 253.33,138.829 253.507,140.873 
	253.507,141.052 253.416,141.499 254.662,145.943 254.931,146.21 256.707,147.275 258.042,149.764 258.753,153.501 258.129,154.124 
	257.862,154.21 257.153,157.325 257.862,161.591 259.021,164.525 263.553,176.529 264.797,181.51 265.155,181.688 266.311,182.931 
	266.311,183.288 268.148,184.442 269.659,184.622 274.638,187.2 277.041,188.445 278.194,189.334 284.062,195.557 285.133,197.07 
	286.465,199.912 287.355,203.74 287.442,204.182 287.71,204.894 287.62,204.984 287.265,204.717 287.265,204.182 287.177,204.005 
	286.465,203.56 285.933,203.56 285.754,203.649 285.221,204.717 284.954,204.984 284.242,204.717 284.062,204.717 283.887,204.805 
	283.795,205.516 283.354,205.963 282.998,206.049 282.109,205.963 282.198,205.25 282.109,204.984 281.753,204.359 281.572,204.271 
	281.397,204.359 281.04,205.696 281.131,206.139 280.595,206.404 280.418,206.228 279.617,205.696 279.35,205.07 278.551,204.448 
	278.465,204.539 278.02,205.427 277.753,205.604 277.218,204.894 277.127,204.448 276.328,204.182 275.438,204.627 274.816,205.07 
	274.816,205.963 273.75,206.494 273.128,207.117 272.149,208.538 272.149,208.984 272.683,209.43 272.947,210.049 272.771,210.584 
	272.415,211.027 272.86,211.387 273.038,211.387 273.307,211.027 273.66,211.117 273.839,211.297 274.019,211.652 273.926,211.919 
	273.307,212.095 273.217,212.365 273.307,212.897 273.66,213.34 273.66,213.609 273.217,213.963 273.217,214.318 273.75,215.208 
	273.75,215.385 273.573,215.653 273.307,215.742 272.415,215.297 272.595,216.1 271.796,215.919 271.261,216.1 270.993,216.451 
	270.815,216.896 270.458,217.164 270.016,217.52 269.394,217.696 268.681,218.407 267.289,218.321 266.754,218.498 266.666,218.498 
	266.4,218.588 265.599,219.033 264.887,219.652 264.178,220.009 263.109,219.919 261.42,221.609 260.977,221.874 260.71,222.231 
	260.175,222.501 260.086,222.501 259.908,224.188 260.175,224.455 260.265,224.989 260.086,225.968 259.286,227.926 
	258.663,228.457 258.129,228.457 257.597,229.169 257.597,229.967 257.063,232.989 256.798,235.036 254.395,237.083 
	254.575,237.616 254.308,238.504 253.952,238.947 253.416,239.039 252.796,239.571 251.995,241.169 250.928,241.615 
	247.283,242.684 229.411,248.197 229.231,248.197 223.008,250.154 222.832,249.441 221.763,246.418 221.763,246.151 
	221.141,244.371 220.252,241.615 220.163,241.349 218.206,235.479 215.45,227.122 215.274,226.587 213.671,221.699 213.671,221.609 
	208.339,205.337 207.361,202.226 205.315,196.179 205.138,195.467 204.692,194.045 203.624,190.845 202.289,187.112 
	202.023,186.309 201.67,185.064 200.067,179.907 198.47,175.107 197.4,172.259 197.4,172.083 195.886,167.371 192.509,156.878 
	191.62,154.21 190.466,150.743 188.775,145.584 190.376,144.965 190.556,144.965 196.422,142.919 201.67,142.031 202.289,142.652 
	202.735,142.83 203.98,143.009 204.778,142.652 205.315,142.83 205.491,142.743 205.847,142.652 206.026,142.387 206.383,142.207 
	207.361,142.031 207.98,141.765 208.07,141.584 208.25,140.607 208.872,139.894 209.048,139.275 209.138,139.096 209.494,139.009 
	209.76,138.916 210.382,138.739 211.271,137.851 211.807,137.14 211.893,136.693 212.074,136.517 212.871,136.074 "/>
<polyline id="1000001" fill="#4D4D4D" stroke="#231F20" points="287.71,204.894 287.799,204.894 287.889,205.16 
	289.756,206.049 288.954,209.695 288.954,209.783 291.09,212.005 293.846,213.786 296.69,215.742 300.424,218.231 305.759,222.589 
	306.291,223.034 307.27,223.832 307.806,224.277 308.604,224.723 308.874,224.9 309.227,225.166 313.762,227.833 317.319,230.856 
	317.406,230.856 323.455,232.989 323.721,233.17 323.897,233.17 325.589,233.435 326.924,233.615 328.699,233.792 332.257,232.724 
	333.502,231.659 334.748,230.59 335.014,229.347 335.014,229.256 334.479,228.368 333.858,227.389 334.391,227.033 334.479,227.122 
	335.547,228.368 338.391,233.703 340.081,238.594 340.526,239.925 340.706,240.461 340.969,241.263 341.506,242.507 341.592,242.86 
	341.771,243.126 342.929,245.974 343.813,248.108 343.994,248.551 345.594,252.198 345.861,252.996 346.217,253.708 
	348.084,258.154 349.86,264.647 351.908,269.892 351.996,269.892 352.083,269.892 352.174,269.981 352.263,270.067 353.599,273.804 
	353.773,274.514 355.555,279.761 356.976,283.851 358.044,287.052 358.752,289.188 358.932,289.721 359.821,292.297 
	361.511,297.103 362.756,301.457 363.468,303.947 363.82,305.102 363.198,305.28 363.022,305.28 360.974,305.813 360.889,305.813 
	360.889,305.902 360.712,305.902 360.088,306.079 360.001,306.079 359.556,306.259 357.331,306.792 357.065,306.882 
	356.618,307.059 347.461,309.46 339.904,311.593 339.814,311.593 336.437,312.481 334.037,313.104 332.523,313.46 330.922,313.907 
	327.988,314.618 326.657,314.971 324.433,315.504 314.207,318.174 312.428,318.619 309.939,319.331 307.184,319.949 303.27,321.019 
	303.093,321.107 300.248,321.73 297.758,322.353 297.047,322.532 294.378,323.151 289.842,324.219 288.422,324.575 288.155,324.664 
	284.421,325.554 283.976,325.641 280.688,326.353 280.418,326.443 278.465,326.889 278.02,326.977 275.26,327.597 274.638,327.776 
	274.282,327.863 274.195,327.863 274.019,327.955 273.839,327.955 273.66,327.955 273.393,328.043 273.307,328.043 273.038,328.132 
	271.351,328.488 270.105,328.754 269.75,328.843 269.659,328.843 268.681,329.11 267.97,329.288 267.109,329.377 261.329,330.711 
	258.219,331.333 255.64,331.955 255.107,332.043 250.75,332.933 250.128,333.021 247.726,325.82 247.46,324.932 246.305,321.641 
	245.503,319.239 244.081,314.525 242.838,310.792 242.748,310.524 242.658,310.35 240.971,305.014 240.435,303.503 238.835,298.433 
	238.658,298.079 238.303,296.922 237.946,295.856 237.324,293.812 232.166,278.073 227.72,264.558 226.655,261.176 225.054,256.464 
	223.63,251.931 223.008,250.154 229.231,248.197 229.411,248.197 247.283,242.684 250.928,241.615 251.995,241.169 252.796,239.571 
	253.416,239.039 253.952,238.947 254.308,238.504 254.575,237.616 254.395,237.083 256.798,235.036 257.063,232.989 
	257.597,229.967 257.597,229.169 258.129,228.457 258.663,228.457 259.286,227.926 260.086,225.968 260.265,224.989 
	260.175,224.455 259.908,224.188 260.086,222.501 260.175,222.501 260.71,222.231 260.977,221.874 261.42,221.609 263.109,219.919 
	264.178,220.009 264.887,219.652 265.599,219.033 266.4,218.588 266.666,218.498 266.754,218.498 267.289,218.321 268.681,218.407 
	269.394,217.696 270.016,217.52 270.458,217.164 270.815,216.896 270.993,216.451 271.261,216.1 271.796,215.919 272.595,216.1 
	272.415,215.297 273.307,215.742 273.573,215.653 273.75,215.385 273.75,215.208 273.217,214.318 273.217,213.963 273.66,213.609 
	273.66,213.34 273.307,212.897 273.217,212.365 273.307,212.095 273.926,211.919 274.019,211.652 273.839,211.297 273.66,211.117 
	273.307,211.027 273.038,211.387 272.86,211.387 272.415,211.027 272.771,210.584 272.947,210.049 272.683,209.43 272.149,208.984 
	272.149,208.538 273.128,207.117 273.75,206.494 274.816,205.963 274.816,205.07 275.438,204.627 276.328,204.182 277.127,204.448 
	277.218,204.894 277.753,205.604 278.02,205.427 278.465,204.539 278.551,204.448 279.35,205.07 279.617,205.696 280.418,206.228 
	280.595,206.404 281.131,206.139 281.04,205.696 281.397,204.359 281.572,204.271 281.753,204.359 282.109,204.984 282.198,205.25 
	282.109,205.963 282.998,206.049 283.354,205.963 283.795,205.516 283.887,204.805 284.062,204.717 284.242,204.717 
	284.954,204.984 285.221,204.717 285.754,203.649 285.933,203.56 286.465,203.56 287.177,204.005 287.265,204.182 287.265,204.717 
	287.62,204.984 287.71,204.894 "/>
<polyline id="1048864" fill="#4D4D4D" stroke="#231F20" points="187.621,13.99 189.218,13.458 192.243,12.834 194.376,12.301 
	194.642,12.212 198.379,11.768 199.624,11.678 201.937,11.501 203.091,11.59 205.224,11.678 206.735,11.856 206.826,11.856 
	208.605,12.034 209.315,12.212 210.382,12.39 210.472,12.39 210.649,12.479 211.095,12.568 211.182,12.656 213.85,13.369 
	214.472,13.458 215.54,13.812 218.206,14.879 220.252,15.682 217.051,18.615 215.717,19.859 215.45,20.127 214.739,21.459 
	214.116,22.616 214.116,22.705 214.206,22.705 214.382,22.792 213.761,24.039 212.785,25.105 212.516,25.817 212.338,26.35 
	212.516,26.883 212.605,26.972 212.516,28.128 212.516,28.839 212.426,30.618 212.338,31.062 212.25,31.684 212.074,32.486 
	212.074,32.574 212.074,32.663 212.074,32.753 212.074,33.285 212.074,33.731 212.25,34.263 212.16,35.242 212.338,36.22 
	212.605,36.664 212.695,37.465 212.516,37.82 211.982,37.82 211.893,37.73 211.717,37.643 211.271,37.643 210.828,37.998 
	210.562,38.977 210.472,39.509 210.472,39.954 210.293,41.466 209.138,42.444 208.692,42.977 208.515,43.601 208.872,45.377 
	208.872,45.555 205.048,44.933 204.959,45.2 204.602,46.09 203.98,47.869 203.448,49.378 202.203,52.936 201.67,54.447 
	201.581,54.625 199.98,55.604 199.8,55.693 198.289,56.582 197.578,57.026 197.4,57.648 197.135,58.537 196.246,61.116 
	195.088,64.762 194.912,65.028 194.912,65.206 194.912,65.651 194.912,66.274 195.088,66.54 195.354,66.896 195.354,66.984 
	195.711,68.141 195.711,68.318 195.711,68.406 196.512,70.363 198.2,71.696 198.47,71.874 198.735,71.964 200.778,72.587 
	200.778,72.674 201.67,73.031 201.847,73.121 202.023,73.387 202.113,73.476 205.315,75.254 205.404,75.343 207.091,76.143 
	207.002,76.498 206.916,76.766 206.826,77.121 207.271,81.39 207.361,81.656 207.894,84.411 210.026,85.568 209.671,88.591 
	207.98,88.857 207.271,90.903 206.735,92.236 206.826,92.505 206.826,95.794 206.826,96.416 206.916,96.683 208.426,100.151 
	208.605,100.417 210.828,102.285 211.095,102.729 211.182,102.906 212.871,103.795 212.871,104.063 212.961,104.598 
	216.252,105.842 220.073,108.241 220.964,109.665 224.165,113.22 224.698,113.931 227.544,118.466 227.544,118.557 227.453,118.733 
	227.098,119.089 227.098,119.889 226.564,120.69 225.942,120.424 225.321,120.779 224.608,123.003 224.253,123.179 223.986,123.003 
	223.541,122.558 223.274,122.558 223.097,122.558 223.008,122.822 223.008,123.356 222.475,123.625 222.295,123.448 
	221.854,123.003 221.586,123.003 221.408,123.089 221.141,123.714 221.317,123.981 221.676,123.981 221.854,124.157 
	222.119,124.959 221.854,125.135 221.498,125.046 220.785,124.514 220.519,125.492 220.698,125.848 221.141,125.938 221.23,126.291 
	221.23,126.736 221.854,127.092 221.854,127.448 221.498,128.07 220.429,128.693 219.986,129.581 219.986,130.117 220.339,130.65 
	220.339,131.092 219.986,133.315 219.184,134.027 218.476,134.915 217.939,134.74 217.939,134.47 217.763,134.383 217.23,134.47 
	217.051,134.65 217.051,135.006 216.871,135.361 216.338,135.182 215.893,135.448 215.184,135.361 214.918,135.628 214.206,135.984 
	214.116,135.984 213.85,135.984 213.404,136.25 212.871,136.074 212.074,136.517 211.893,136.693 211.807,137.14 211.271,137.851 
	210.382,138.739 209.76,138.916 209.494,139.009 209.138,139.096 209.048,139.275 208.872,139.894 208.25,140.607 208.07,141.584 
	207.98,141.765 207.361,142.031 206.383,142.207 206.026,142.387 205.847,142.652 205.491,142.743 205.315,142.83 204.778,142.652 
	203.98,143.009 202.735,142.83 202.289,142.652 201.67,142.031 196.422,142.919 190.556,144.965 190.376,144.965 188.775,145.584 
	188.686,145.408 188.42,144.519 185.218,134.829 184.24,131.715 183.618,129.848 182.818,127.535 179.974,118.823 177.838,112.241 
	176.327,107.708 175.171,104.241 171.258,92.236 171.258,92.059 171.169,91.881 170.104,88.769 168.503,83.789 168.147,82.634 
	167.791,81.656 167.525,80.766 167.169,79.7 166.902,78.899 166.812,78.365 166.014,76.143 165.745,75.165 164.945,72.674 
	164.323,70.719 163.791,69.208 163.701,68.94 163.434,67.875 162.989,66.451 162.723,65.74 162.633,65.295 162.456,64.851 
	162.366,64.495 162.277,64.05 161.567,61.472 161.299,60.405 161.212,59.959 161.122,59.693 161.032,59.337 160.945,59.161 
	160.945,59.071 160.234,56.226 160.234,56.137 159.967,54.981 159.878,54.891 158.81,50.536 158.633,50.001 161.122,49.202 
	161.212,48.669 161.478,45.912 161.567,45.377 161.924,42.977 162.277,41.732 162.456,40.753 162.633,40.221 162.812,39.599 
	163.256,38.265 163.256,38.176 163.345,37.91 163.521,37.554 163.791,36.754 163.88,36.664 163.88,36.486 164.057,36.13 
	164.147,35.864 164.413,35.419 164.68,34.797 165.126,33.906 165.478,33.018 165.745,32.663 165.834,32.486 166.014,32.218 
	166.104,31.952 166.28,31.596 166.456,31.33 166.547,31.242 166.812,30.795 167.967,29.106 168.236,28.572 168.414,28.307 
	168.859,27.684 169.837,26.528 170.816,25.283 170.993,25.105 171.435,24.661 171.795,24.304 171.795,24.216 172.413,23.683 
	174.371,21.726 174.995,21.282 175.171,21.103 177.571,19.149 177.661,19.149 178.729,18.436 181.484,16.747 184.952,15.057 
	185.308,14.879 187.621,13.99 "/>
</svg>
