<?xml version="1.0" encoding="utf-8"?>
<!-- Generator: Adobe Illustrator 13.0.2, SVG Export Plug-In  -->
<!DOCTYPE svg PUBLIC "-//W3C//DTD SVG 1.1//EN" "http://www.w3.org/Graphics/SVG/1.1/DTD/svg11.dtd" [
	<!ENTITY ns_flows "http://ns.adobe.com/Flows/1.0/">
]>
<svg version="1.1"
	 xmlns="http://www.w3.org/2000/svg" xmlns:xlink="http://www.w3.org/1999/xlink" xmlns:a="http://ns.adobe.com/AdobeSVGViewerExtensions/3.0/"
	 x="0px" y="0px" width="500px" height="400px" viewBox="-145.575 -3.707 500 400" enable-background="new -145.575 -3.707 500 400"
	 xml:space="preserve">
<defs>
</defs>
<polygon id="5072400" fill="#666666" stroke="#FFFFFF" stroke-width="0.75"  points="91.595,59.253 90.902,57.228 89.859,54.624 89.686,53.986 
	89.627,53.582 89.627,53.292 89.339,53.002 88.932,51.903 87.485,47.214 87.832,47.098 83.781,38.705 83.49,37.894 83.434,37.836 
	83.144,37.2 82.68,36.446 82.333,35.636 82.16,35.694 79.729,35.984 79.266,36.042 78.746,35.984 78.397,36.042 75.388,36.794 
	71.334,37.836 69.541,38.299 67.457,38.878 66.705,39.11 58.949,41.368 54.896,42.467 53.216,42.93 51.884,43.334 45.634,45.303 
	43.145,46.114 42.566,46.346 42.566,46.404 39.323,47.388 36.719,48.081 36.371,48.197 34.462,48.661 34.403,48.661 30.989,49.703 
	30.525,49.703 29.771,49.876 29.251,50.224 27.226,50.803 27.111,50.745 18.446,53.465 16.246,54.218 11.21,55.781 10.342,56.128 
	0.732,59.139 0.673,61.743 0.5,62.438 0.5,62.9 0.673,63.364 0.79,63.538 0.964,63.827 1.427,64.405 2.064,64.927 2.237,65.101 
	2.989,65.506 3.048,65.563 3.165,65.737 3.395,66.316 3.917,68.864 4.841,71.642 5.074,72.51 5.074,72.625 5.074,72.683 
	5.015,72.742 4.959,73.147 4.841,73.32 4.437,73.842 4.322,73.957 3.975,74.594 3.858,75.058 3.8,75.578 3.741,76.272 3.741,77.141 
	3.8,77.488 3.8,77.662 4.032,79.688 4.09,80.961 3.975,81.714 3.685,82.062 3.395,82.699 3.568,83.972 3.741,84.493 4.205,85.477 
	4.322,85.534 4.727,85.593 5.364,86.288 5.595,86.461 5.652,86.519 5.71,86.519 5.826,86.577 6.116,86.75 7.042,86.981 
	7.448,87.155 7.68,87.271 8.142,87.792 9.183,88.429 9.415,88.544 10.225,89.066 10.342,89.239 10.4,89.356 10.574,89.818 
	10.63,89.876 10.92,90.86 11.094,91.208 11.094,91.323 11.153,91.439 11.21,91.844 11.094,92.365 10.458,93.466 10.342,94.044 
	10.342,94.796 10.342,95.954 10.342,96.36 10.342,96.649 10.342,96.707 10.342,96.823 10.167,97.575 9.764,98.559 9.706,99.137 
	9.706,99.196 9.879,99.774 10.342,101.048 10.458,101.512 11.441,105.101 11.441,105.216 11.731,105.448 12.136,105.795 
	12.136,105.854 12.136,105.911 12.021,107.069 11.614,107.589 11.731,107.763 12.078,108.053 12.195,108.458 11.848,108.689 
	11.848,108.748 11.789,108.805 11.848,108.979 11.848,109.095 12.078,110.021 12.424,110.369 12.6,110.715 12.541,110.89 
	12.251,110.947 12.195,111.005 11.905,111.988 11.962,112.221 12.136,112.394 12.195,112.511 11.905,113.726 12.6,114.189 
	12.541,114.42 11.962,115.231 11.962,115.347 12.136,115.693 12.195,115.81 12.251,115.983 12.251,116.041 12.31,116.272 
	12.368,116.562 12.424,117.083 12.31,117.777 12.368,117.951 12.424,118.125 13.352,118.646 13.583,119.051 13.872,119.515 
	13.872,119.573 13.93,119.63 14.509,120.267 14.684,120.614 14.684,120.904 14.684,121.135 14.452,121.714 14.393,121.772 
	14.452,121.946 15.03,122.409 15.377,122.814 15.782,123.739 16.883,124.667 17.637,125.129 17.693,125.129 17.866,125.187 
	18.098,125.477 18.389,125.766 18.446,125.824 18.503,125.824 18.562,125.882 19.199,125.94 20.067,126.229 20.646,126.692 
	20.76,126.866 20.76,127.213 20.76,127.271 20.819,127.388 21.494,127.907 21.899,128.255 22.072,128.487 22.189,128.835 
	22.247,128.95 22.421,129.182 22.536,129.239 22.999,129.297 23.058,129.297 23.346,129.528 23.636,130.223 23.694,130.282 
	23.753,130.57 23.81,130.802 23.81,130.86 23.868,130.918 23.982,131.208 24.217,131.381 25.083,131.902 26.01,132.712 
	26.531,133.87 26.877,134.797 27.631,135.839 27.688,135.954 27.919,136.417 28.036,136.707 28.036,136.764 28.383,137.749 
	28.383,137.806 28.614,139.196 29.483,140.354 29.83,140.991 29.889,141.048 29.889,141.105 29.945,141.164 29.945,141.337 
	30.005,141.396 30.005,141.512 30.177,142.901 29.715,147.125 29.889,148.341 29.889,149.326 29.771,149.789 29.483,150.368 
	28.788,151.642 28.614,152.278 28.788,153.437 29.135,154.536 30.235,155.926 30.409,156.157 30.525,156.272 30.93,156.967 
	31.219,157.604 31.624,158.82 31.799,159.745 32.203,161.077 32.783,162.293 33.94,164.146 34.75,165.129 35.097,165.939 
	35.272,167.271 35.272,167.445 35.272,167.502 39.901,166.808 40.25,166.635 42.103,165.939 43.955,165.129 44.07,165.072 
	44.187,164.956 47.311,163.625 50.206,162.234 51.016,161.772 52.521,161.077 58.888,157.835 59.642,157.373 59.989,157.256 
	60.221,157.778 65.431,155.462 65.141,154.825 64.274,152.915 64.853,152.915 65.084,152.857 65.372,152.799 66.531,152.683 
	68.325,152.742 69.541,152.915 70.062,154.594 70.292,154.825 72.203,159.745 72.203,159.804 72.957,161.54 73.072,161.772 
	73.36,162.466 73.824,163.508 74.346,164.608 74.519,165.188 74.75,165.593 75.908,168.255 77.354,171.555 77.472,169.702 
	77.762,165.014 77.818,164.55 77.992,161.713 78.397,153.032 76.545,152.683 76.718,151.699 76.892,150.6 77.064,149.441 
	77.181,148.921 77.702,145.39 77.762,145.332 77.818,144.637 78.746,139.022 78.166,138.848 78.746,138.791 81.35,138.965 
	81.582,138.906 81.813,138.675 82.103,138.791 82.103,138.617 83.029,133.523 78.86,132.712 79.903,127.04 80.366,124.608 
	76.545,124.551 76.545,124.493 78.166,116.562 75.388,116.041 74.867,115.925 75.735,110.657 73.536,110.657 67.979,106.49 
	62.537,102.149 61.668,101.626 60.162,101.743 59.874,101.512 60.047,101.164 59.816,100.991 59.757,100.875 59.525,100.701 
	59.816,100.527 59.352,100.064 59.295,99.833 59.469,99.37 59.642,99.312 60.279,99.66 61.609,99.312 61.843,99.137 61.843,98.732 
	62.014,98.327 62.363,97.69 62.537,97.575 63.52,92.655 63.984,90.166 64.099,89.761 64.447,88.083 66.241,88.371 66.819,88.487 
	70.466,89.066 70.987,89.182 70.93,88.661 70.466,83.682 70.351,82.64 70.235,81.771 70.466,81.714 71.161,81.482 71.393,81.425 
	71.22,80.441 70.756,77.488 71.856,77.141 71.684,75.636 72.203,75.463 71.913,73.957 72.203,73.842 76.081,71.99 76.718,71.7 
	78.976,70.6 84.012,68.284 84.071,68.284 85.286,67.59 87.658,68.632 89.686,69.442 92.117,60.47 "/>
<polygon id="5000001" fill="#666666" stroke="#FFFFFF" stroke-width="0.75"  points="191.507,365.822 191.103,365.301 190.002,364.318 
	189.251,363.796 188.845,363.16 188.441,362.176 188.094,361.712 187.803,361.481 187.108,361.308 186.875,361.134 186.646,360.843 
	186.183,360.497 185.662,360.497 185.429,360.67 185.374,360.788 185.429,361.25 185.374,361.481 185.314,361.539 184.736,362.234 
	184.446,362.408 184.39,362.408 184.213,362.464 183.809,362.234 183.751,362.234 183.577,361.888 183.693,361.424 184.099,361.017 
	184.213,360.729 184.213,360.67 184.213,360.497 184.155,360.381 183.925,359.977 183.867,359.918 183.636,359.63 183.462,359.456 
	183.171,359.223 182.998,359.05 182.825,358.935 182.479,358.703 181.437,358.182 179.584,357.313 179.064,356.851 179.064,356.792 
	178.078,354.708 177.556,353.494 177.327,352.741 177.036,352.104 176.285,351.583 175.763,351.003 175.707,350.948 
	175.707,350.887 175.648,350.83 175.589,350.773 175.589,350.484 175.589,350.425 175.589,350.252 175.589,349.961 175.648,349.673 
	175.298,348.863 175.126,348.804 175.126,348.747 175.069,348.109 174.837,347.472 174.662,345.968 174.722,345.853 
	175.243,345.447 175.763,344.925 176.052,344.463 176.052,344.346 176.169,344.115 176.34,343.71 176.399,343.477 176.399,343.421 
	176.34,343.189 176.052,342.264 175.995,342.147 175.995,342.031 175.936,341.801 175.936,341.51 175.936,341.336 175.995,341.164 
	176.285,340.818 176.34,340.818 176.34,340.756 176.34,340.642 176.399,340.583 176.34,340.527 176.285,340.18 175.531,338.79 
	175.472,338.443 175.357,337.923 175.298,337.689 175.126,337.227 175.069,337.111 174.837,336.649 174.779,336.532 
	174.662,336.416 174.662,336.358 174.547,336.358 174.489,336.301 174.259,336.301 173.911,336.069 173.795,335.895 
	173.737,335.548 173.852,335.085 174.722,333.696 174.953,333.463 174.953,333.407 175.995,332.945 176.34,332.595 177.5,331.958 
	177.905,331.149 178.367,330.687 178.657,330.687 179.004,330.86 179.293,330.743 179.293,330.687 179.411,330.512 179.873,329.529 
	179.93,329.296 180.104,328.776 180.104,328.602 180.047,328.602 179.699,328.369 179.411,327.908 179.352,327.271 179.352,326.75 
	179.526,326.17 179.814,325.881 180.394,325.823 180.683,325.65 180.972,325.072 180.972,324.781 180.972,324.665 180.915,324.492 
	180.858,324.376 180.858,324.318 180.742,324.144 179.584,323.681 179.121,323.567 178.831,323.334 178.657,323.161 
	178.194,322.524 178.136,322.407 178.021,322.234 177.963,322.119 177.905,321.541 177.905,320.96 177.732,320.266 177.382,319.803 
	176.864,319.457 176.69,319.224 176.458,318.703 176.458,318.473 176.458,318.415 176.517,318.297 176.573,318.124 176.631,317.892 
	176.805,317.602 177.327,316.792 177.327,316.736 177.556,316.215 178.021,315.288 178.31,314.304 178.484,313.495 178.542,313.204 
	178.484,313.087 178.484,313.031 178.425,312.799 178.367,312.741 177.617,311.639 176.919,310.888 176.864,310.483 
	176.919,310.367 176.919,310.193 176.978,310.019 177.036,309.963 177.441,309.326 177.5,308.863 177.441,308.63 177.209,307.821 
	177.153,307.821 176.978,307.647 176.69,307.357 176.517,307.243 176.399,307.184 175.995,306.895 175.936,306.836 175.763,306.719 
	175.648,306.605 175.648,306.547 175.648,306.489 175.648,306.431 175.822,306.315 175.822,306.259 175.763,306.024 
	175.707,305.851 175.648,305.794 175.648,305.736 175.472,305.622 175.243,305.563 174.779,305.736 174.315,305.622 
	174.315,305.563 173.564,304.694 173.505,304.694 173.505,304.637 173.39,304.348 173.39,304.174 173.623,303.825 173.678,303.71 
	173.678,303.594 173.737,303.537 173.737,303.479 173.678,303.42 173.678,303.306 173.678,303.248 173.332,302.32 172.985,301.048 
	172.812,300.758 172.985,300.47 173.39,299.659 173.446,299.37 173.446,299.311 173.332,299.079 173.332,299.022 173.275,298.963 
	172.406,298.154 172.174,297.691 172.406,297.226 172.636,296.764 172.985,296.128 173.042,296.011 173.042,295.838 
	173.042,295.721 172.695,294.912 172.232,294.101 172.058,293.522 172.058,292.539 172.174,291.959 172.174,291.843 
	172.174,291.669 172.174,291.264 172.174,291.207 172.117,291.207 172,290.976 171.594,290.569 171.131,289.759 170.784,288.485 
	170.784,287.792 170.902,287.56 171.365,287.097 171.594,286.923 172.058,286.459 172.117,286.402 172.406,285.071 172.695,283.161 
	172.462,279.975 172.695,278.355 172.695,278.299 172.636,278.125 172.578,278.125 172.462,278.008 172.348,277.893 172.29,277.834 
	172.232,277.776 171.653,277.488 170.669,276.619 170.381,276.271 170.321,276.097 170.321,275.983 170.321,275.809 
	170.321,275.634 170.437,275.114 170.437,275.057 170.669,273.725 170.784,273.435 171.075,272.915 171.075,272.856 
	171.365,272.046 171.365,271.989 171.365,271.873 171.365,271.815 171.365,271.756 171.19,271.701 171.075,271.701 170.784,271.815 
	170.207,271.989 169.859,272.046 168.644,271.641 168.412,271.468 168.295,271.236 167.775,269.731 167.658,269.152 
	167.716,268.458 168.295,267.415 168.354,267.125 168.354,267.069 168.122,265.274 167.949,264.174 167.775,263.537 
	167.542,261.452 167.487,261.163 167.487,261.106 167.37,260.585 167.196,260.005 167.196,259.891 167.138,259.369 167.138,259.022 
	167.138,258.963 167.196,258.268 167.196,257.98 166.386,256.01 166.27,255.664 166.329,255.434 166.789,254.449 166.906,254.102 
	166.906,253.812 166.847,253.696 166.847,253.58 166.847,253.464 166.617,252.191 166.617,252.132 166.559,251.903 166.5,251.727 
	166.386,251.496 165.632,250.629 164.996,250.222 164.071,249.875 163.78,249.528 163.606,249.124 163.606,248.254 163.606,248.138 
	163.606,248.023 163.434,247.502 163.492,246.981 163.838,246.866 163.894,246.75 163.953,246.691 164.012,246.403 164.244,245.651 
	164.302,245.477 164.302,245.418 164.359,244.55 163.665,242.525 163.144,241.482 163.084,241.192 163.029,240.092 162.969,239.688 
	163.375,238.82 163.434,238.703 163.548,238.588 164.185,237.778 165.517,236.736 166.847,234.478 167.08,234.247 167.196,234.129 
	167.196,233.841 166.964,233.319 166.964,233.263 166.906,233.205 166.789,233.089 166.733,233.089 166.329,232.915 
	165.922,232.335 165.75,231.642 165.691,230.715 165.979,230.31 166.041,229.789 165.979,229.673 165.691,229.5 165.576,229.268 
	165.576,229.209 165.576,229.095 165.632,229.037 165.691,228.921 165.75,228.863 165.805,228.805 165.864,228.748 166.155,228.399 
	166.789,227.821 166.847,227.531 166.847,227.474 166.733,227.01 166.559,226.72 166.443,226.606 166.329,225.854 166.27,225.621 
	166.27,225.447 166.27,225.332 166.27,225.216 166.329,225.159 166.443,224.983 166.559,224.58 166.674,223.826 166.733,223.363 
	166.674,223.248 166.617,222.669 166.443,222.032 166.211,221.626 165.922,221.395 165.922,221.336 165.691,220.412 
	165.691,220.353 165.632,220.18 165.576,220.006 165.459,219.543 165.401,218.674 165.401,218.442 165.459,218.21 165.576,217.808 
	165.979,217.286 166.155,216.88 166.443,215.838 166.559,215.317 166.847,214.505 167.138,214.042 167.37,212.829 168.063,212.654 
	168.295,212.422 169.742,210.746 170.033,210.396 170.669,209.702 170.784,209.586 170.958,209.125 171.19,208.254 171.306,207.965 
	171.306,207.907 171.42,207.561 171.42,206.923 171.538,206.577 171.711,206.403 172.232,206.055 172.521,205.708 172.636,205.476 
	172.695,205.36 170.728,205.186 168.874,205.013 166.733,204.783 166.5,204.783 158.397,203.97 157.066,203.913 155.849,203.856 
	154.402,203.856 149.658,203.797 147.397,203.739 143.81,203.625 142.941,203.566 142.073,203.451 138.369,203.045 137.499,202.929 
	129.685,202.062 129.453,202.003 129.163,202.003 127.601,201.829 123.318,201.482 122.564,201.425 119.149,201.194 
	119.033,201.135 118.686,201.135 118.166,201.077 117.934,201.077 114.518,200.73 114.345,200.788 113.881,200.73 113.825,200.73 
	109.657,200.615 105.141,200.381 105.315,199.398 104.678,199.34 104.851,198.241 103.636,198.124 103.811,197.083 103.172,196.967 
	103.404,195.866 102.884,195.81 103.868,190.831 104.272,188.863 105.141,184.347 95.822,183.48 92.927,183.305 92.233,183.132 
	91.827,183.132 87.021,182.668 84.998,183.537 81.35,175.838 79.729,172.133 79.209,170.686 77.354,171.555 75.908,168.255 
	74.75,165.593 74.519,165.188 74.346,164.608 73.824,163.508 73.36,162.466 73.072,161.772 72.957,161.54 72.203,159.804 
	72.203,159.745 70.292,154.825 70.062,154.594 69.541,152.915 68.325,152.742 66.531,152.683 65.372,152.799 65.084,152.857 
	64.853,152.915 64.274,152.915 65.141,154.825 65.431,155.462 60.221,157.778 59.989,157.256 59.642,157.373 58.888,157.835 
	52.521,161.077 51.016,161.772 50.206,162.234 47.311,163.625 44.187,164.956 44.07,165.072 43.955,165.129 42.103,165.939 
	40.25,166.635 39.901,166.808 35.272,167.502 35.214,168.544 35.214,169.818 35.097,170.744 34.981,170.86 34.462,170.86 
	34.347,170.917 34.113,171.497 33.883,171.786 33.246,172.191 33.534,172.712 32.9,173.522 32.956,174.217 32.666,174.681 
	32.666,174.797 32.783,175.259 32.666,175.838 32.493,176.822 32.551,177.111 31.799,177.921 31.741,178.327 31.509,178.79 
	31.277,178.906 30.872,179.369 30.872,180.006 30.755,180.122 30.582,180.238 30.467,180.296 30.409,180.296 30.294,180.527 
	30.352,180.816 30.525,181.221 30.755,181.858 30.813,181.917 30.813,182.206 30.352,182.9 30.352,183.248 30.409,183.595 
	30.582,183.942 30.813,184.231 30.813,184.347 30.64,184.984 30.872,186.026 30.872,186.49 30.93,187.473 30.93,187.763 
	30.64,188.631 30.294,188.979 30.12,189.789 30.177,190.02 30.582,190.716 30.989,191.526 31.163,191.931 31.392,192.625 
	31.392,192.857 31.392,192.914 31.453,193.436 31.453,194.709 31.277,195.81 30.93,198.067 31.163,199.224 31.336,200.442 
	31.509,203.336 31.682,203.682 32.493,204.029 32.839,204.146 32.9,204.146 32.9,204.203 33.534,204.722 33.883,204.722 
	34.171,204.783 34.403,204.839 34.577,204.898 34.693,204.957 34.923,205.072 35.097,205.186 35.155,205.303 35.504,205.708 
	35.619,205.94 35.677,205.997 35.733,206.055 36.024,206.577 36.256,207.271 36.544,209.759 36.778,211.148 36.778,211.729 
	36.893,212.134 37.181,212.712 37.991,213.813 38.918,216.475 39.265,218.906 39.497,219.311 40.075,220.122 40.771,220.991 
	41.639,222.552 41.871,222.901 43.665,224.29 44.88,225.621 45.285,226.201 45.344,226.256 45.344,226.491 45.227,227.994 
	45.227,228.863 45.344,229.441 45.344,229.5 45.344,229.558 45.402,229.558 45.576,229.846 46.501,230.31 46.618,230.369 
	46.674,230.484 46.732,230.484 46.791,230.657 46.732,231.062 46.559,231.642 46.096,232.104 45.634,233.031 45.576,233.493 
	45.576,234.652 45.69,234.825 46.039,235.289 46.965,235.635 47.311,235.925 47.601,236.272 47.833,236.56 48.122,237.373 
	48.296,237.605 49.396,238.125 50.148,238.415 50.842,238.878 51.364,239.918 51.538,240.15 52.174,240.728 52.174,240.788 
	52.174,240.845 52.233,240.962 52.06,242.002 51.652,243.856 51.596,244.145 51.364,245.128 51.306,245.36 51.306,245.418 
	51.306,245.477 51.364,245.708 51.596,246.691 51.943,247.618 51.943,247.676 52.001,248.199 51.596,249.528 51.191,250.222 
	51.016,250.685 50.727,252.018 50.669,252.655 50.669,252.712 50.612,253.117 50.554,253.174 50.381,253.524 50.032,253.87 
	49.917,254.333 49.917,254.39 49.917,254.622 50.206,255.027 50.266,255.143 50.266,255.201 50.322,255.664 50.322,256.881 
	50.322,256.938 50.322,257.054 50.437,257.517 50.206,259.369 50.381,260.238 50.206,260.989 49.802,261.452 49.686,261.743 
	49.627,261.975 49.627,262.958 49.802,263.247 51.306,264.579 51.423,264.811 51.479,264.984 51.191,266.375 51.25,266.548 
	51.596,267.184 51.769,267.646 51.596,268.398 51.423,269.731 51.423,270.135 51.479,270.308 51.596,270.426 51.828,270.658 
	52.116,270.773 52.812,270.773 53.331,271.236 54.837,271.815 55.474,271.989 55.765,272.046 55.994,271.989 56.343,271.641 
	56.921,270.541 56.921,270.368 56.921,270.252 56.921,269.962 56.574,269.152 56.111,267.415 56.574,266.836 56.863,266.141 
	56.921,265.912 56.863,265.738 56.226,264.87 56.284,264.52 56.574,263.709 56.574,263.654 56.169,263.247 56.169,263.017 
	56.169,262.958 56.401,262.9 56.458,262.9 56.689,262.958 56.863,262.958 57.502,262.609 57.502,262.495 58.773,262.553 
	59.237,261.858 60.685,261.452 60.743,261.452 61.089,261.106 61.783,260.933 62.363,261.163 62.651,261.163 62.768,260.585 
	62.941,260.468 63.173,260.585 63.405,260.701 63.52,260.875 63.52,260.933 63.984,262.089 64.274,262.843 64.503,262.843 
	64.562,262.9 65.199,263.421 65.487,263.768 65.663,264.405 65.721,264.752 65.777,265.1 65.777,265.274 65.604,266.141 
	66.185,266.375 66.241,266.375 66.241,266.431 66.067,266.778 66.067,266.895 66.067,267.184 66.241,267.299 66.356,267.358 
	67.225,266.951 67.688,267.125 67.803,267.415 67.979,267.587 69.194,267.587 69.887,267.878 70.292,268.11 70.641,268.283 
	71.625,269.269 72.145,269.616 72.203,269.731 72.203,269.79 72.088,270.135 72.435,271.177 72.723,271.177 72.898,271.292 
	73.013,271.468 73.303,271.756 73.65,272.164 73.709,272.164 73.824,272.51 73.882,272.973 73.824,273.261 73.536,273.667 
	73.536,274.072 73.709,274.651 73.824,274.651 73.94,275.288 74.867,278.645 75.735,281.83 76.024,283.045 76.024,283.104 
	76.545,285.071 76.95,286.577 77.645,289.353 78.05,290.976 78.166,291.323 78.224,291.552 78.456,292.539 79.498,296.531 
	79.498,296.649 79.786,297.632 80.134,298.963 80.193,299.196 81.64,304.868 83.781,313.031 84.764,317.313 84.823,317.428 
	84.881,317.663 85.286,319.339 86.328,323.452 88.759,333.233 89.105,334.565 89.396,335.721 89.455,336.069 89.743,337.227 
	90.089,338.557 91.363,344.058 91.885,346.199 92.059,346.952 92.059,347.009 92.464,348.574 94.547,357.024 95.299,359.918 
	95.358,360.092 95.416,360.381 95.648,361.25 96.979,366.17 97.095,366.75 98.484,372.248 99.353,375.606 99.526,376.184 
	98.831,376.184 98.772,376.301 99.179,378.443 99.816,379.254 99.757,379.774 99.757,380.179 99.526,381.221 103.462,388.977 
	104.678,388.63 106.821,388.052 110.12,387.241 110.293,387.183 115.619,385.794 117.875,385.215 119.844,384.694 121.407,384.29 
	123.549,383.71 125.402,383.247 125.518,383.188 126.618,382.9 128.065,382.552 130.727,381.799 131.191,381.684 140.74,379.196 
	141.089,379.137 147.862,377.343 150.35,376.706 153.765,375.78 155.735,375.315 156.718,375.027 157.007,374.968 167.024,372.421 
	168.295,372.132 174.606,370.512 176.517,369.991 179.584,369.239 180.047,369.124 185.374,367.733 191.625,366.113 "/>
<polygon id="5000002" fill="#666666" stroke="#FFFFFF" stroke-width="0.75"  points="205.516,64.754 204.533,64.637 204.07,64.754 204.012,64.696 
	203.837,64.464 203.723,64.116 203.723,64.059 203.605,63.885 203.432,63.654 203.375,63.364 203.375,63.075 203.432,62.785 
	203.258,62.438 202.68,61.453 202.449,60.413 202.449,60.354 202.449,60.296 202.507,60.181 202.507,60.122 202.566,60.122 
	202.622,59.891 202.68,59.717 202.333,59.253 202.219,59.139 201.986,59.08 201.58,58.907 201.347,58.791 201.233,58.734 
	201.118,58.675 201.059,58.328 201.406,58.154 201.406,57.923 201.406,57.865 201.406,57.806 201.292,57.576 201.233,57.518 
	200.655,56.764 200.25,56.476 200.191,56.418 200.075,56.359 200.018,56.359 199.901,56.418 199.901,56.476 199.901,56.707 
	199.901,56.764 199.845,56.823 199.787,56.88 199.787,56.997 199.728,56.997 199.671,57.054 199.554,57.054 199.264,57.112 
	199.208,57.112 199.091,56.939 199.034,56.764 199.034,56.591 198.917,56.418 198.397,56.476 198.224,56.476 198.165,56.476 
	198.108,56.476 197.993,56.418 197.934,56.418 197.643,56.186 197.643,56.128 197.587,55.954 197.587,55.897 197.643,55.549 
	197.643,55.26 197.414,54.971 197.355,54.739 197.414,54.566 197.529,54.218 197.529,53.986 197.355,53.87 196.892,53.986 
	196.601,53.986 195.791,53.639 195.732,53.582 195.85,53.234 195.791,52.886 195.386,52.481 195.155,52.018 194.982,51.729 
	195.04,51.381 195.213,51.15 195.213,50.976 194.693,50.976 194.519,50.918 194.402,50.745 194.344,50.629 194.344,50.224 
	194.402,50.166 194.344,50.108 194.286,49.992 194.23,49.934 193.592,49.703 192.26,48.372 191.566,48.024 191.507,47.85 
	191.391,47.214 191.335,47.098 191.162,47.098 190.871,47.388 190.812,47.445 190.582,47.33 190.466,47.156 190.235,46.461 
	190.235,46.114 189.887,45.129 189.598,44.724 189.133,44.667 189.078,44.667 189.019,44.551 188.96,44.494 188.904,44.436 
	188.904,44.377 188.845,44.203 188.845,44.145 188.845,44.087 188.845,44.03 188.845,43.972 189.541,43.451 190.061,43.161 
	190.12,43.161 190.235,42.93 190.351,42.698 190.351,42.641 190.293,42.351 190.351,41.772 190.698,41.425 190.756,41.309 
	190.871,41.135 190.929,41.02 190.989,40.961 190.989,40.672 191.103,40.267 191.507,39.63 191.45,39.514 191.335,39.341 
	191.218,39.168 191.507,38.473 192.26,37.778 192.723,37.663 192.782,37.546 193.128,36.504 193.128,36.042 192.838,35.636 
	192.782,34.478 192.838,34.189 192.782,33.9 192.319,33.784 191.914,33.437 191.798,33.089 191.798,32.742 192.204,31.7 
	192.493,31.469 192.549,31.583 192.665,31.526 192.782,31.411 192.782,31.352 192.782,31.295 192.782,31.063 192.782,29.848 
	193.128,29.442 193.245,29.153 193.187,29.153 193.187,29.038 193.187,28.98 192.956,28.575 192.549,28.111 192.319,27.996 
	192.26,27.706 192.319,27.416 192.435,27.127 192.838,26.49 192.723,26.259 192.435,25.968 192.376,25.622 192.376,25.449 
	192.609,24.869 193.073,24.31 193.592,24.02 193.592,23.962 193.998,23.268 193.882,22.746 193.882,22.631 193.998,22.341 
	194.344,22.052 194.344,21.994 194.982,20.257 194.982,20.2 194.982,20.084 194.922,20.084 194.693,19.911 194.576,19.794 
	194.634,19.678 195.04,19.101 195.271,18.521 195.444,18.173 195.502,17.884 195.502,17.826 195.559,17.826 195.618,17.768 
	195.791,17.768 195.909,17.768 195.967,17.768 196.023,17.653 196.023,17.595 196.023,17.538 195.967,17.19 195.967,16.958 
	195.967,16.668 195.909,16.668 195.909,16.611 195.85,16.553 195.791,16.553 195.098,16.379 194.46,15.858 193.824,15.337 
	193.014,14.989 192.26,13.253 192.319,13.08 192.26,12.675 192.26,12.616 191.914,12.095 191.625,10.417 191.218,9.607 
	190.524,9.549 189.714,8.622 189.133,8.448 188.15,7.407 187.862,6.886 187.748,6.017 187.748,5.96 188.208,4.918 188.671,4.454 
	189.133,4.223 189.656,3.818 190.12,3.007 190.408,2.892 190.812,2.95 190.871,3.007 191.391,3.296 192.549,3.412 193.014,3.065 
	193.245,2.892 193.302,2.892 193.302,2.776 193.245,2.14 193.361,1.849 193.592,1.56 194.23,1.097 194.344,0.807 190.466,2.081 
	184.504,4.049 179.467,5.554 171.075,8.333 170.552,8.507 170.437,8.565 163.26,10.764 150.003,15.279 148.266,15.916 
	144.909,16.843 141.204,18.059 140.857,18.173 140.047,18.405 137.153,19.447 136.458,19.621 135.996,19.447 134.202,20.432 
	130.553,21.589 130.496,21.589 130.437,21.646 128.99,22.11 128.238,22.284 124.938,23.268 123.028,23.789 114.171,26.722 
	111.74,27.532 109.54,28.111 107.689,28.748 105.662,29.21 105.605,29.269 103.636,29.673 102.479,30.021 98.194,31.179 
	96.4,31.583 94.779,31.989 93.159,32.395 89.859,33.321 84.591,35.057 82.333,35.636 82.68,36.446 83.144,37.2 83.434,37.836 
	83.49,37.894 83.781,38.705 87.832,47.098 87.485,47.214 88.932,51.903 89.339,53.002 89.627,53.292 89.627,53.582 89.686,53.986 
	89.859,54.624 90.902,57.228 91.595,59.253 92.117,60.47 89.686,69.442 87.658,68.632 85.286,67.59 84.071,68.284 84.012,68.284 
	78.976,70.6 76.718,71.7 76.081,71.99 72.203,73.842 71.913,73.957 72.203,75.463 71.684,75.636 71.856,77.141 70.756,77.488 
	71.22,80.441 71.393,81.425 71.161,81.482 70.466,81.714 70.235,81.771 70.351,82.64 70.466,83.682 70.93,88.661 70.987,89.182 
	70.466,89.066 66.819,88.487 66.241,88.371 64.447,88.083 64.099,89.761 63.984,90.166 63.52,92.655 62.537,97.575 62.363,97.69 
	62.014,98.327 61.843,98.732 61.843,99.137 61.609,99.312 60.279,99.66 59.642,99.312 59.469,99.37 59.295,99.833 59.352,100.064 
	59.816,100.527 59.525,100.701 59.757,100.875 59.816,100.991 60.047,101.164 59.874,101.512 60.162,101.743 61.668,101.626 
	62.537,102.149 67.979,106.49 73.536,110.657 75.735,110.657 74.867,115.925 75.388,116.041 78.166,116.562 76.545,124.493 
	76.545,124.551 80.366,124.608 79.903,127.04 78.86,132.712 83.029,133.523 82.103,138.617 82.103,138.791 81.813,138.675 
	81.582,138.906 81.35,138.965 78.746,138.791 78.166,138.848 78.746,139.022 77.818,144.637 77.762,145.332 77.702,145.39 
	77.181,148.921 77.064,149.441 76.892,150.6 76.718,151.699 76.545,152.683 78.397,153.032 77.992,161.713 77.818,164.55 
	77.762,165.014 77.472,169.702 77.354,171.555 79.209,170.686 79.729,172.133 81.35,175.838 84.998,183.537 87.021,182.668 
	91.827,183.132 92.233,183.132 92.927,183.305 95.822,183.48 105.141,184.347 104.272,188.863 103.868,190.831 102.884,195.81 
	103.404,195.866 103.172,196.967 103.811,197.083 103.636,198.124 104.851,198.241 104.678,199.34 105.315,199.398 105.141,200.381 
	109.657,200.615 113.825,200.73 113.881,200.73 114.345,200.788 114.518,200.73 117.934,201.077 118.166,201.077 118.686,201.135 
	119.033,201.135 119.149,201.194 122.564,201.425 123.318,201.482 127.601,201.829 129.163,202.003 129.453,202.003 
	129.685,202.062 137.499,202.929 138.369,203.045 142.073,203.451 142.941,203.566 143.81,203.625 147.397,203.739 149.658,203.797 
	154.402,203.856 155.849,203.856 157.066,203.913 158.397,203.97 166.5,204.783 166.733,204.783 168.874,205.013 170.728,205.186 
	172.695,205.36 172.406,204.549 172.117,203.739 172.058,203.392 172.117,203.161 172.695,202.35 172.812,202.062 172.869,201.54 
	172.869,200.556 173.332,199.804 173.332,199.283 173.1,198.76 173.1,198.705 173.042,198.646 172.695,198.241 172.232,197.547 
	172.174,197.257 172.232,196.62 172.348,195.983 172.29,195.463 171.767,193.84 170.902,192.741 170.728,192.393 170.728,191.236 
	170.842,190.946 170.842,190.889 171.016,190.831 171.131,190.716 171.19,190.657 171.653,190.483 172.29,189.847 172.117,189.616 
	171.944,189.441 171.885,189.326 171.538,188.979 171.19,188.515 171.131,187.879 171.131,187.646 171.248,187.416 171.594,187.358 
	172.232,187.01 172.348,186.779 172.232,186.142 172.29,185.39 172.578,184.579 173.1,183.885 173.911,182.843 174.432,181.974 
	175.01,181.106 175.069,180.758 175.126,180.411 174.779,178.79 174.722,178.617 174.606,178.442 174.547,178.327 174.143,177.575 
	174.143,177.517 174.143,177.459 174.084,177.344 174.084,177.17 174.084,177.054 174.084,176.938 174.2,176.822 174.315,176.764 
	174.779,176.591 175.243,176.185 175.357,175.955 175.589,174.797 175.589,174.738 175.531,174.564 175.243,174.391 
	175.183,174.101 175.357,173.87 176.11,173.407 176.169,173.35 176.169,173.291 175.995,173.233 175.416,173.175 174.432,173.175 
	174.2,173.291 173.911,173.812 173.564,173.812 173.446,173.697 173.446,173.522 173.446,173.002 173.39,172.596 173.332,172.25 
	173.042,171.207 172.812,170.803 172.232,170.339 172.058,169.992 172.174,169.759 172.636,168.833 172.695,168.776 173.1,168.312 
	173.042,168.139 172.695,167.386 172.578,167.213 172.521,167.04 172.521,166.924 172.695,166.519 172.985,166.345 173.042,166.345 
	173.505,166.461 173.852,166.866 173.911,166.981 173.911,167.04 174.143,167.04 174.2,166.866 174.2,166.635 174.025,166.461 
	173.39,166.055 173.215,165.593 173.158,165.302 173.215,165.072 173.39,164.782 173.505,164.782 174.259,165.014 174.432,164.84 
	174.489,164.84 174.489,164.608 174.315,164.087 174.315,163.913 174.315,163.855 174.374,163.74 174.374,163.625 174.432,163.625 
	174.779,163.219 174.779,163.044 174.662,162.814 174.025,162.177 173.911,161.946 173.911,161.713 173.969,161.598 
	173.969,161.482 174.025,161.425 174.2,161.135 174.953,160.382 175.357,160.15 175.243,159.919 174.547,159.745 174.489,159.688 
	174.432,159.688 174.432,159.629 174.432,159.109 174.662,158.993 175.357,158.878 175.472,158.703 175.531,158.53 175.589,157.72 
	175.936,156.91 175.822,156.562 175.472,156.331 175.472,156.272 175.357,156.099 175.357,156.041 175.357,155.983 175.416,155.983 
	176.226,155.577 176.285,155.577 176.399,155.577 176.631,155.809 176.69,155.809 176.805,155.809 176.919,155.809 176.978,155.809 
	177.036,155.809 177.209,155.694 177.268,155.636 177.268,155.577 177.327,155.577 177.327,155.462 177.382,155.346 
	177.327,155.288 177.327,155.23 177.036,154.999 176.34,154.884 175.357,154.479 175.126,154.304 175.126,154.015 175.298,153.841 
	175.878,153.783 175.936,153.783 176.34,153.61 176.517,153.378 176.517,153.32 176.573,153.205 176.573,153.146 176.631,152.857 
	176.517,152.163 176.399,151.815 176.11,151.642 175.648,151.584 175.589,151.584 175.416,151.642 175.357,151.642 175.298,151.642 
	175.298,151.699 175.243,151.757 175.243,151.815 175.183,152.104 175.243,152.568 175.243,152.683 175.183,152.742 
	175.126,152.799 175.069,152.799 174.894,152.857 174.722,152.857 174.662,152.799 174.489,152.742 174.374,152.625 
	174.315,152.568 174.2,152.452 174.143,152.336 174.084,152.336 174.084,152.278 174.025,152.163 173.911,151.99 173.446,151.121 
	173.39,150.831 173.275,149.615 173.737,148.863 174.143,148.458 174.259,148.4 174.489,148.516 174.606,148.458 174.722,147.3 
	174.606,147.185 174.2,147.125 173.623,146.779 173.623,146.721 173.564,146.548 173.332,145.911 172.927,144.753 172.869,144.58 
	172.927,144.29 172.985,144 172.927,143.826 172.521,143.307 171.944,143.364 171.131,142.611 170.148,141.105 169.511,140.412 
	168.758,139.833 168.644,138.791 168.644,138.501 168.933,138.096 168.991,137.806 168.874,137.228 168.758,136.938 
	168.874,135.723 168.933,135.491 168.933,135.375 168.874,135.202 168.584,134.681 168.47,134.16 168.47,133.002 168.526,132.191 
	168.412,131.96 168.354,131.787 168.122,131.498 168.063,131.439 167.949,131.381 167.487,131.149 166.5,129.992 166.041,128.95 
	166.041,128.718 166.096,128.661 166.155,128.544 166.155,128.313 166.096,128.198 165.979,127.907 165.805,127.966 
	165.459,128.371 165.287,128.43 164.996,128.081 164.996,127.097 165.287,125.535 165.632,124.782 166.329,124.319 166.906,123.45 
	167.024,123.161 167.196,122.467 167.253,122.177 167.138,121.714 166.733,120.44 166.5,120.209 166.443,119.747 166.789,119.34 
	167.138,119.283 167.601,119.283 167.89,119.34 168.354,119.109 168.758,118.819 169.454,118.125 170.669,116.967 170.842,116.736 
	170.784,115.925 171.075,115.636 172.985,115.173 173.505,114.883 174.837,114.478 175.531,114.537 175.936,114.42 176.517,113.958 
	176.747,113.204 177.327,112.279 178.31,111.7 178.773,111.7 178.831,111.7 179.121,111.7 181.319,112.104 182.073,112.336 
	182.42,112.336 182.535,112.279 182.593,112.221 182.708,112.162 183.405,111.469 184.331,111.063 184.909,110.426 185.024,110.31 
	185.546,109.558 185.892,109.095 186.53,108.632 187.284,108.227 187.687,107.879 187.803,107.647 187.803,107.358 187.687,107.242 
	187.225,106.548 186.934,106.027 186.934,105.795 187.108,105.506 187.167,105.333 187.108,105.158 186.704,104.985 
	186.587,104.869 186.471,103.885 186.53,103.711 186.934,103.421 187.513,103.306 187.803,103.074 187.803,102.843 187.748,102.786 
	187.225,102.264 187.167,102.09 187.225,101.801 187.803,100.701 187.862,100.643 188.094,100.47 189.366,100.122 189.656,99.833 
	189.829,99.486 190.235,98.964 190.466,98.732 190.524,98.675 190.812,98.559 191.45,98.444 191.625,98.501 192.319,98.906 
	192.782,98.848 193.014,98.732 193.014,98.618 193.073,98.096 193.073,97.865 193.128,97.69 193.187,97.517 193.245,97.401 
	193.361,97.285 193.765,96.997 194.286,96.765 194.402,96.765 195.098,96.649 195.444,96.592 195.502,96.533 195.559,96.533 
	196.139,96.128 196.544,95.665 196.833,95.318 196.892,95.259 197.529,94.217 197.934,93.755 198.397,92.886 198.281,92.25 
	198.108,92.019 198.108,91.844 198.281,91.67 199.15,91.266 199.208,91.208 199.554,90.86 199.671,90.513 199.728,90.339 
	199.728,90.281 199.728,90.108 199.787,89.761 199.728,89.587 199.554,88.371 199.671,87.271 199.728,87.155 200.538,87.04 
	200.711,86.809 200.829,86.345 200.711,86.113 200.018,85.882 199.845,85.767 199.671,85.477 199.671,85.303 199.787,84.956 
	200.018,84.608 200.364,84.319 200.771,83.277 200.771,83.218 200.829,83.218 200.887,83.161 200.943,83.104 201.118,83.045 
	201.233,83.045 201.292,83.045 201.521,83.104 201.638,83.277 201.986,83.277 202.101,82.756 202.159,82.699 202.219,82.525 
	202.275,82.467 202.39,82.408 203.144,82.408 203.432,82.235 204.012,81.889 204.07,81.83 204.07,81.771 204.127,81.714 
	204.127,81.541 204.186,81.482 204.186,81.135 204.127,80.499 204.127,80.267 204.07,80.267 204.012,79.862 204.012,79.573 
	204.186,79.457 204.242,79.457 204.3,79.457 204.416,79.514 204.533,79.631 204.591,79.746 204.591,79.688 204.765,79.688 
	204.823,79.631 204.879,79.631 204.879,79.399 204.707,78.994 204.938,78.877 205.343,78.936 205.402,78.936 205.46,78.936 
	205.516,78.877 205.575,78.877 205.633,78.762 205.633,78.704 205.633,78.646 205.633,78.588 205.633,78.531 205.516,78.415 
	204.823,78.125 204.533,77.894 204.3,77.43 204.127,77.315 203.432,77.025 203.203,76.794 203.085,76.505 203.144,76.272 
	203.78,76.157 203.896,76.1 204.127,75.752 204.474,74.71 204.591,74.13 204.591,73.668 204.533,73.437 204.359,73.32 
	204.186,73.088 202.507,72.51 201.521,72.047 201.347,71.99 201.292,71.931 201.118,71.7 201.118,71.468 201.118,70.831 
	201.118,70.658 201.175,70.485 201.175,70.369 201.233,70.311 201.233,70.252 201.292,70.194 201.347,70.136 201.521,69.963 
	203.085,69.616 203.78,69.731 204.416,69.5 204.533,69.384 204.65,69.269 204.707,69.21 204.707,69.153 204.765,68.979 
	204.65,68.632 204.591,68.516 204.591,68.458 204.591,68.342 204.65,68.227 204.707,68.168 204.765,68.168 205.228,68.227 
	205.284,68.168 205.46,67.937 205.516,67.763 205.46,67.59 204.823,67.126 204.707,66.953 204.65,66.78 204.65,66.606 
	204.879,66.606 205.113,66.722 205.343,66.722 205.402,66.664 205.575,66.548 205.922,65.911 205.979,65.853 206.097,65.506 
	206.097,64.927 "/>
</svg>
