<?xml version="1.0" encoding="utf-8"?>
<!-- Generator: Adobe Illustrator 13.0.2, SVG Export Plug-In . SVG Version: 6.00 Build 14948)  -->
<!DOCTYPE svg PUBLIC "-//W3C//DTD SVG 1.1//EN" "http://www.w3.org/Graphics/SVG/1.1/DTD/svg11.dtd">
<svg version="1.1" id="Layer_2" xmlns="http://www.w3.org/2000/svg" xmlns:xlink="http://www.w3.org/1999/xlink" x="0px" y="0px"
	 width="500px" height="400px" viewBox="-67.181 -1.784 500 400" enable-background="new -67.181 -1.784 500 400"
	 xml:space="preserve">
<polyline id="3374804" fill="#4D4D4D" stroke="#FFFFFF" stroke-width="0.75"  points="263.769,266.689 265.799,267.635 267.64,268.344 271.792,270.09 
	275.239,271.601 276.138,271.979 276.75,272.262 276.847,272.309 276.892,272.309 277.224,272.449 281.376,274.197 287.468,276.746 
	287.61,276.841 287.797,276.935 287.468,278.352 287.184,279.53 286.098,284.016 286.098,284.063 285.909,284.868 291.15,283.167 
	293.793,282.27 296.862,280.521 297.57,280.099 297.617,280.099 297.712,280.051 298.09,280.051 301.017,279.72 301.676,279.769 
	302.997,279.627 303.046,279.53 303.235,279.107 303.707,278.492 303.756,278.306 303.707,277.831 303.518,276.935 303.046,275.896 
	302.952,275.565 302.997,275.048 302.905,274.951 302.526,274.716 302.435,274.574 302.385,274.432 302.574,273.914 
	302.765,273.727 303.189,273.488 303.707,273.44 304.65,273.96 304.937,274.009 305.454,274.009 305.832,273.866 305.879,273.819 
	306.162,273.11 307.342,273.488 307.437,273.535 307.91,273.771 308.428,274.009 308.759,274.197 308.995,274.291 310.08,274.716 
	310.27,274.858 310.694,275.188 311.734,275.141 311.92,275.235 312.347,275.52 312.631,275.85 312.677,275.896 313.102,276.369 
	313.241,276.463 313.621,276.414 314.613,276.369 314.706,276.463 315.085,276.7 315.461,276.605 316.547,276.086 317.021,275.945 
	317.538,275.753 317.87,275.896 318.059,276.086 318.532,277.407 318.532,277.453 317.822,278.115 317.964,278.539 318.154,279.294 
	318.389,279.769 318.296,281.089 318.012,281.562 317.637,281.893 317.538,282.223 317.492,282.6 317.682,283.31 317.682,283.78 
	317.637,283.923 317.208,284.205 317.067,284.632 317.067,285.669 317.067,286.281 317.161,286.614 317.116,286.754 
	316.927,286.896 316.69,286.896 316.547,286.991 316.407,287.274 316.312,287.651 316.312,288.502 316.455,289.114 316.359,289.397 
	316.266,289.682 316.217,289.918 316.122,290.153 316.217,290.342 316.455,290.531 316.407,290.956 316.217,291.571 
	315.936,291.713 315.887,291.854 315.697,292.374 315.65,292.562 315.65,293.034 315.461,293.695 315.461,293.742 315.274,294.118 
	315.32,295.394 315.461,296.103 315.65,296.479 315.603,296.526 315.274,297.046 315.132,297.235 315.132,297.33 315.036,297.755 
	315.036,298.18 315.085,298.511 315.603,300.211 315.461,300.636 315.416,301.106 315.556,301.861 315.84,302.759 315.461,302.948 
	315.274,303.138 315.226,303.138 314.802,303.562 314.375,304.175 313.573,304.978 313.434,304.933 310.929,303.986 309.75,303.562 
	309.514,303.418 307.91,303.418 306.869,303.751 305.832,304.271 305.55,304.412 305.501,304.506 304.275,305.921 303.848,306.394 
	303.848,306.44 303.329,306.96 303.046,307.244 302.435,307.621 301.205,308.279 300.591,308.659 300.025,308.94 297.854,310.171 
	297.617,310.642 297.098,311.775 297.005,312.437 296.862,313.9 296.956,317.347 296.862,317.347 295.684,317.395 294.406,317.395 
	293.415,317.395 292.047,317.395 290.489,317.44 289.355,318.433 289.355,318.479 289.215,318.574 288.082,319.848 288.034,319.944 
	287.985,320.038 287.61,320.936 287.373,321.5 287.184,322.021 287.091,322.257 286.994,322.54 288.082,325.42 288.648,326.883 
	288.741,327.119 289.355,328.724 288.224,328.724 288.129,328.724 287.893,328.724 287.61,328.771 286.854,328.771 286.805,328.771 
	286.098,328.771 285.343,328.771 284.588,329.197 283.644,329.857 282.652,329.197 282.18,328.865 281.612,328.678 281.331,328.678 
	280.765,328.724 280.67,328.771 279.631,328.818 279.062,328.865 278.688,328.865 278.027,328.911 277.979,328.911 276.326,329.007 
	273.399,329.197 273.446,328.96 273.399,328.911 273.209,328.629 272.738,327.969 272.359,327.826 272.218,327.875 272.029,328.204 
	271.888,328.204 271.698,327.826 271.558,327.355 271.511,327.213 271.369,327.261 271.462,326.978 271.462,326.931 
	271.558,326.269 269.906,325.089 269.717,324.946 268.441,324.051 267.45,324.286 267.213,324.335 266.552,324.521 265.845,324.711 
	264.854,324.946 263.769,322.729 261.218,317.629 260.84,316.921 260.84,316.874 258.906,313.05 258.857,313.002 264.381,310.313 
	264.429,310.313 265.09,309.98 264.666,309.085 263.485,306.724 263.438,306.678 263.345,306.488 261.504,302.899 261.359,302.663 
	261.171,302.238 261.124,302.238 261.077,302.098 260.888,301.816 260.416,301.013 259.425,299.358 259.188,299.03 258.906,298.557 
	259.849,298.651 259.896,298.369 260.464,294.215 260.51,293.742 260.747,290.107 261.218,286.944 261.597,284.914 261.832,281.846 
	262.021,281.797 262.777,275.66 262.87,274.716 262.919,274.244 262.965,273.866 262.965,273.819 262.965,273.727 263.013,273.206 
	263.013,273.159 263.345,269.854 263.39,269.712 263.769,266.689 "/>
<polyline id="3374204" fill="#4D4D4D" stroke="#FFFFFF" stroke-width="0.75"  points="263.769,266.689 265.799,267.635 267.64,268.344 271.792,270.09 
	275.239,271.601 276.138,271.979 276.75,272.262 276.847,272.309 276.892,272.309 277.224,272.449 281.376,274.197 287.468,276.746 
	287.61,276.841 287.797,276.935 287.468,278.352 287.184,279.53 286.098,284.016 286.098,284.063 285.909,284.868 291.15,283.167 
	293.793,282.27 296.862,280.521 297.57,280.099 297.617,280.099 297.712,280.051 298.09,280.051 301.017,279.72 301.676,279.769 
	302.997,279.627 303.046,279.53 303.235,279.107 303.707,278.492 303.756,278.306 303.707,277.831 303.518,276.935 303.046,275.896 
	302.952,275.565 302.997,275.048 302.905,274.951 302.526,274.716 302.435,274.574 302.385,274.432 302.574,273.914 
	302.765,273.727 303.189,273.488 303.707,273.44 304.65,273.96 304.937,274.009 305.454,274.009 305.832,273.866 305.879,273.819 
	306.162,273.11 307.342,273.488 307.437,273.535 307.91,273.771 308.428,274.009 308.759,274.197 308.995,274.291 310.08,274.716 
	310.27,274.858 310.694,275.188 311.734,275.141 311.92,275.235 312.347,275.52 312.631,275.85 312.677,275.896 313.102,276.369 
	313.241,276.463 313.621,276.414 314.613,276.369 314.706,276.463 315.085,276.7 315.461,276.605 316.547,276.086 317.021,275.945 
	317.538,275.753 317.87,275.896 318.059,276.086 318.532,277.407 318.532,277.453 317.822,278.115 317.964,278.539 318.154,279.294 
	318.389,279.769 318.296,281.089 318.012,281.562 317.637,281.893 317.538,282.223 317.492,282.6 317.682,283.31 317.682,283.78 
	317.637,283.923 317.208,284.205 317.067,284.632 317.067,285.669 317.067,286.281 317.161,286.614 317.116,286.754 
	316.927,286.896 316.69,286.896 316.547,286.991 316.407,287.274 316.312,287.651 316.312,288.502 316.455,289.114 316.359,289.397 
	316.266,289.682 316.217,289.918 316.122,290.153 316.217,290.342 316.455,290.531 316.407,290.956 316.217,291.571 
	315.936,291.713 315.887,291.854 315.697,292.374 315.65,292.562 315.65,293.034 315.461,293.695 315.461,293.742 315.274,294.118 
	315.32,295.394 315.461,296.103 315.65,296.479 315.603,296.526 315.274,297.046 315.132,297.235 315.132,297.33 315.036,297.755 
	315.036,298.18 315.085,298.511 315.603,300.211 315.461,300.636 315.416,301.106 315.556,301.861 315.84,302.759 315.461,302.948 
	315.274,303.138 315.226,303.138 314.802,303.562 314.375,304.175 313.573,304.978 313.434,304.933 310.929,303.986 309.75,303.562 
	309.514,303.418 307.91,303.418 306.869,303.751 305.832,304.271 305.55,304.412 305.501,304.506 304.275,305.921 303.848,306.394 
	303.848,306.44 303.329,306.96 303.046,307.244 302.435,307.621 301.205,308.279 300.591,308.659 300.025,308.94 297.854,310.171 
	297.617,310.642 297.098,311.775 297.005,312.437 296.862,313.9 296.956,317.347 296.862,317.347 295.684,317.395 294.406,317.395 
	293.415,317.395 292.047,317.395 290.489,317.44 289.355,318.433 289.355,318.479 289.215,318.574 288.082,319.848 288.034,319.944 
	287.985,320.038 287.61,320.936 287.373,321.5 287.184,322.021 287.091,322.257 286.994,322.54 288.082,325.42 288.648,326.883 
	288.741,327.119 289.355,328.724 288.224,328.724 288.129,328.724 287.893,328.724 287.61,328.771 286.854,328.771 286.805,328.771 
	286.098,328.771 285.343,328.771 284.588,329.197 283.644,329.857 282.652,329.197 282.18,328.865 281.612,328.678 281.331,328.678 
	280.765,328.724 280.67,328.771 279.631,328.818 279.062,328.865 278.688,328.865 278.027,328.911 277.979,328.911 276.326,329.007 
	273.399,329.197 273.446,328.96 273.399,328.911 273.209,328.629 272.738,327.969 272.359,327.826 272.218,327.875 272.029,328.204 
	271.888,328.204 271.698,327.826 271.558,327.355 271.511,327.213 271.369,327.261 271.462,326.978 271.462,326.931 
	271.558,326.269 269.906,325.089 269.717,324.946 268.441,324.051 267.45,324.286 267.213,324.335 266.552,324.521 265.845,324.711 
	264.854,324.946 263.769,322.729 261.218,317.629 260.84,316.921 260.84,316.874 258.906,313.05 258.857,313.002 264.381,310.313 
	264.429,310.313 265.09,309.98 264.666,309.085 263.485,306.724 263.438,306.678 263.345,306.488 261.504,302.899 261.359,302.663 
	261.171,302.238 261.124,302.238 261.077,302.098 260.888,301.816 260.416,301.013 259.425,299.358 259.188,299.03 258.906,298.557 
	259.849,298.651 259.896,298.369 260.464,294.215 260.51,293.742 260.747,290.107 261.218,286.944 261.597,284.914 261.832,281.846 
	262.021,281.797 262.777,275.66 262.87,274.716 262.919,274.244 262.965,273.866 262.965,273.819 262.965,273.727 263.013,273.206 
	263.013,273.159 263.345,269.854 263.39,269.712 263.769,266.689 "/>
<polyline id="3373604" fill="#4D4D4D" stroke="#FFFFFF" stroke-width="0.75"  points="263.769,266.689 265.799,267.635 267.64,268.344 271.792,270.09 
	275.239,271.601 276.138,271.979 276.75,272.262 276.847,272.309 276.892,272.309 277.224,272.449 281.376,274.197 287.468,276.746 
	287.61,276.841 287.797,276.935 287.468,278.352 287.184,279.53 286.098,284.016 286.098,284.063 285.909,284.868 291.15,283.167 
	293.793,282.27 296.862,280.521 297.57,280.099 297.617,280.099 297.712,280.051 298.09,280.051 301.017,279.72 301.676,279.769 
	302.997,279.627 303.046,279.53 303.235,279.107 303.707,278.492 303.756,278.306 303.707,277.831 303.518,276.935 303.046,275.896 
	302.952,275.565 302.997,275.048 302.905,274.951 302.526,274.716 302.435,274.574 302.385,274.432 302.574,273.914 
	302.765,273.727 303.189,273.488 303.707,273.44 304.65,273.96 304.937,274.009 305.454,274.009 305.832,273.866 305.879,273.819 
	306.162,273.11 307.342,273.488 307.437,273.535 307.91,273.771 308.428,274.009 308.759,274.197 308.995,274.291 310.08,274.716 
	310.27,274.858 310.694,275.188 311.734,275.141 311.92,275.235 312.347,275.52 312.631,275.85 312.677,275.896 313.102,276.369 
	313.241,276.463 313.621,276.414 314.613,276.369 314.706,276.463 315.085,276.7 315.461,276.605 316.547,276.086 317.021,275.945 
	317.538,275.753 317.87,275.896 318.059,276.086 318.532,277.407 318.532,277.453 317.822,278.115 317.964,278.539 318.154,279.294 
	318.389,279.769 318.296,281.089 318.012,281.562 317.637,281.893 317.538,282.223 317.492,282.6 317.682,283.31 317.682,283.78 
	317.637,283.923 317.208,284.205 317.067,284.632 317.067,285.669 317.067,286.281 317.161,286.614 317.116,286.754 
	316.927,286.896 316.69,286.896 316.547,286.991 316.407,287.274 316.312,287.651 316.312,288.502 316.455,289.114 316.359,289.397 
	316.266,289.682 316.217,289.918 316.122,290.153 316.217,290.342 316.455,290.531 316.407,290.956 316.217,291.571 
	315.936,291.713 315.887,291.854 315.697,292.374 315.65,292.562 315.65,293.034 315.461,293.695 315.461,293.742 315.274,294.118 
	315.32,295.394 315.461,296.103 315.65,296.479 315.603,296.526 315.274,297.046 315.132,297.235 315.132,297.33 315.036,297.755 
	315.036,298.18 315.085,298.511 315.603,300.211 315.461,300.636 315.416,301.106 315.556,301.861 315.84,302.759 315.461,302.948 
	315.274,303.138 315.226,303.138 314.802,303.562 314.375,304.175 313.573,304.978 313.434,304.933 310.929,303.986 309.75,303.562 
	309.514,303.418 307.91,303.418 306.869,303.751 305.832,304.271 305.55,304.412 305.501,304.506 304.275,305.921 303.848,306.394 
	303.848,306.44 303.329,306.96 303.046,307.244 302.435,307.621 301.205,308.279 300.591,308.659 300.025,308.94 297.854,310.171 
	297.617,310.642 297.098,311.775 297.005,312.437 296.862,313.9 296.956,317.347 296.862,317.347 295.684,317.395 294.406,317.395 
	293.415,317.395 292.047,317.395 290.489,317.44 289.355,318.433 289.355,318.479 289.215,318.574 288.082,319.848 288.034,319.944 
	287.985,320.038 287.61,320.936 287.373,321.5 287.184,322.021 287.091,322.257 286.994,322.54 288.082,325.42 288.648,326.883 
	288.741,327.119 289.355,328.724 288.224,328.724 288.129,328.724 287.893,328.724 287.61,328.771 286.854,328.771 286.805,328.771 
	286.098,328.771 285.343,328.771 284.588,329.197 283.644,329.857 282.652,329.197 282.18,328.865 281.612,328.678 281.331,328.678 
	280.765,328.724 280.67,328.771 279.631,328.818 279.062,328.865 278.688,328.865 278.027,328.911 277.979,328.911 276.326,329.007 
	273.399,329.197 273.446,328.96 273.399,328.911 273.209,328.629 272.738,327.969 272.359,327.826 272.218,327.875 272.029,328.204 
	271.888,328.204 271.698,327.826 271.558,327.355 271.511,327.213 271.369,327.261 271.462,326.978 271.462,326.931 
	271.558,326.269 269.906,325.089 269.717,324.946 268.441,324.051 267.45,324.286 267.213,324.335 266.552,324.521 265.845,324.711 
	264.854,324.946 263.769,322.729 261.218,317.629 260.84,316.921 260.84,316.874 258.906,313.05 258.857,313.002 264.381,310.313 
	264.429,310.313 265.09,309.98 264.666,309.085 263.485,306.724 263.438,306.678 263.345,306.488 261.504,302.899 261.359,302.663 
	261.171,302.238 261.124,302.238 261.077,302.098 260.888,301.816 260.416,301.013 259.425,299.358 259.188,299.03 258.906,298.557 
	259.849,298.651 259.896,298.369 260.464,294.215 260.51,293.742 260.747,290.107 261.218,286.944 261.597,284.914 261.832,281.846 
	262.021,281.797 262.777,275.66 262.87,274.716 262.919,274.244 262.965,273.866 262.965,273.819 262.965,273.727 263.013,273.206 
	263.013,273.159 263.345,269.854 263.39,269.712 263.769,266.689 "/>
<polyline id="3377350" fill="#4D4D4D" stroke="#FFFFFF" stroke-width="0.75"  points="231.997,292.374 235.347,298.557 237.898,303.373 
	239.266,302.712 240.682,302.002 241.201,301.768 242.997,300.871 243.09,300.823 247.953,298.369 248.284,298.935 249.227,300.681 
	251.068,299.69 251.398,299.926 251.729,300.306 251.871,300.636 251.965,300.73 252.344,300.871 252.768,301.013 252.956,301.058 
	253.099,301.2 253.996,300.162 254.373,299.596 254.422,299.69 254.467,299.784 254.751,300.306 255.506,301.816 255.931,302.288 
	256.591,302.238 256.687,302.238 257.017,302.238 257.678,302.192 260.652,302.098 261.077,302.098 261.124,302.238 
	261.171,302.238 261.359,302.663 261.504,302.899 263.345,306.488 263.438,306.678 263.485,306.724 264.666,309.085 265.09,309.98 
	264.429,310.313 264.381,310.313 258.857,313.002 258.906,313.05 260.84,316.874 260.84,316.921 261.218,317.629 263.769,322.729 
	264.854,324.946 265.845,324.711 266.552,324.521 267.213,324.335 267.45,324.286 268.441,324.051 269.717,324.946 269.906,325.089 
	271.558,326.269 271.462,326.931 271.462,326.978 271.369,327.261 271.511,327.213 271.558,327.355 271.698,327.826 
	271.888,328.204 272.029,328.204 272.218,327.875 272.359,327.826 272.738,327.969 273.209,328.629 273.399,328.911 273.446,328.96 
	273.399,329.197 276.326,329.007 277.979,328.911 278.027,328.911 278.688,328.865 279.062,328.865 279.631,328.818 280.67,328.771 
	280.765,328.724 281.331,328.678 281.612,328.678 282.18,328.865 282.652,329.197 283.644,329.857 282.983,330.85 282.983,330.897 
	282.322,332.454 282.038,333.823 281.896,334.483 281.376,335.806 281.093,336.607 279.489,337.08 279.159,337.174 277.979,337.552 
	276.703,337.834 276.045,338.023 274.909,338.354 274.721,338.402 274.578,338.448 273.021,338.874 272.879,338.874 
	270.047,339.678 269.008,339.961 267.497,340.385 266.79,340.574 265.892,340.808 264.336,341.233 264.241,341.281 264.146,341.281 
	263.862,341.375 263.721,341.424 261.218,342.085 259.378,342.603 259.33,342.603 259.142,342.651 258.999,342.699 258.434,342.84 
	257.206,343.169 252.533,344.444 251.635,344.681 251.541,344.729 251.164,344.823 249.794,345.2 248.237,345.625 248,345.721 
	245.451,346.427 243.231,347.043 241.534,347.466 239.55,347.985 239.22,348.08 238.322,348.362 236.292,348.882 234.687,349.308 
	228.265,351.008 228.124,351.054 225.48,351.763 223.829,348.175 223.309,347.136 223.027,346.522 221.327,343.076 218.73,343.736 
	218.258,342.745 216.276,338.686 216.134,338.354 214.576,335.097 214.009,334.012 213.631,333.162 213.584,332.974 
	212.922,331.604 211.695,328.911 211.082,327.592 210.375,326.176 209.477,326.411 208.107,326.789 205.464,327.543 
	204.804,324.995 203.717,320.794 203.576,320.227 203.151,318.574 203.056,317.723 202.254,310.596 202.112,310.689 
	201.639,307.479 201.545,306.818 201.263,304.884 200.933,304.978 200.979,303.041 201.026,301.343 201.074,300.823 
	200.555,300.211 199.279,298.745 199.091,298.511 201.311,297.14 205.039,294.779 208.863,292.324 208.957,292.418 214.387,298.651 
	214.435,298.698 214.435,298.745 214.906,299.265 214.999,299.358 216.322,300.871 216.654,301.247 217.125,301.768 
	220.808,299.454 221.043,299.312 224.583,297.14 226.662,295.772 226.897,295.631 229.117,294.262 229.4,293.978 229.778,293.789 
	231.997,292.374 "/>
<polyline id="3376900" fill="#4D4D4D" stroke="#FFFFFF" stroke-width="0.75"  points="231.997,292.374 235.347,298.557 237.898,303.373 
	239.266,302.712 240.682,302.002 241.201,301.768 242.997,300.871 243.09,300.823 247.953,298.369 248.284,298.935 249.227,300.681 
	251.068,299.69 251.398,299.926 251.729,300.306 251.871,300.636 251.965,300.73 252.344,300.871 252.768,301.013 252.956,301.058 
	253.099,301.2 253.996,300.162 254.373,299.596 254.422,299.69 254.467,299.784 254.751,300.306 255.506,301.816 255.931,302.288 
	256.591,302.238 256.687,302.238 257.017,302.238 257.678,302.192 260.652,302.098 261.077,302.098 261.124,302.238 
	261.171,302.238 261.359,302.663 261.504,302.899 263.345,306.488 263.438,306.678 263.485,306.724 264.666,309.085 265.09,309.98 
	264.429,310.313 264.381,310.313 258.857,313.002 258.906,313.05 260.84,316.874 260.84,316.921 261.218,317.629 263.769,322.729 
	264.854,324.946 265.845,324.711 266.552,324.521 267.213,324.335 267.45,324.286 268.441,324.051 269.717,324.946 269.906,325.089 
	271.558,326.269 271.462,326.931 271.462,326.978 271.369,327.261 271.511,327.213 271.558,327.355 271.698,327.826 
	271.888,328.204 272.029,328.204 272.218,327.875 272.359,327.826 272.738,327.969 273.209,328.629 273.399,328.911 273.446,328.96 
	273.399,329.197 276.326,329.007 277.979,328.911 278.027,328.911 278.688,328.865 279.062,328.865 279.631,328.818 280.67,328.771 
	280.765,328.724 281.331,328.678 281.612,328.678 282.18,328.865 282.652,329.197 283.644,329.857 282.983,330.85 282.983,330.897 
	282.322,332.454 282.038,333.823 281.896,334.483 281.376,335.806 281.093,336.607 279.489,337.08 279.159,337.174 277.979,337.552 
	276.703,337.834 276.045,338.023 274.909,338.354 274.721,338.402 274.578,338.448 273.021,338.874 272.879,338.874 
	270.047,339.678 269.008,339.961 267.497,340.385 266.79,340.574 265.892,340.808 264.336,341.233 264.241,341.281 264.146,341.281 
	263.862,341.375 263.721,341.424 261.218,342.085 259.378,342.603 259.33,342.603 259.142,342.651 258.999,342.699 258.434,342.84 
	257.206,343.169 252.533,344.444 251.635,344.681 251.541,344.729 251.164,344.823 249.794,345.2 248.237,345.625 248,345.721 
	245.451,346.427 243.231,347.043 241.534,347.466 239.55,347.985 239.22,348.08 238.322,348.362 236.292,348.882 234.687,349.308 
	228.265,351.008 228.124,351.054 225.48,351.763 223.829,348.175 223.309,347.136 223.027,346.522 221.327,343.076 218.73,343.736 
	218.258,342.745 216.276,338.686 216.134,338.354 214.576,335.097 214.009,334.012 213.631,333.162 213.584,332.974 
	212.922,331.604 211.695,328.911 211.082,327.592 210.375,326.176 209.477,326.411 208.107,326.789 205.464,327.543 
	204.804,324.995 203.717,320.794 203.576,320.227 203.151,318.574 203.056,317.723 202.254,310.596 202.112,310.689 
	201.639,307.479 201.545,306.818 201.263,304.884 200.933,304.978 200.979,303.041 201.026,301.343 201.074,300.823 
	200.555,300.211 199.279,298.745 199.091,298.511 201.311,297.14 205.039,294.779 208.863,292.324 208.957,292.418 214.387,298.651 
	214.435,298.698 214.435,298.745 214.906,299.265 214.999,299.358 216.322,300.871 216.654,301.247 217.125,301.768 
	220.808,299.454 221.043,299.312 224.583,297.14 226.662,295.772 226.897,295.631 229.117,294.262 229.4,293.978 229.778,293.789 
	231.997,292.374 "/>
<polyline id="3375404" fill="#4D4D4D" stroke="#FFFFFF" stroke-width="0.75"  points="231.997,292.374 235.347,298.557 237.898,303.373 
	239.266,302.712 240.682,302.002 241.201,301.768 242.997,300.871 243.09,300.823 247.953,298.369 248.284,298.935 249.227,300.681 
	251.068,299.69 251.398,299.926 251.729,300.306 251.871,300.636 251.965,300.73 252.344,300.871 252.768,301.013 252.956,301.058 
	253.099,301.2 253.996,300.162 254.373,299.596 254.422,299.69 254.467,299.784 254.751,300.306 255.506,301.816 255.931,302.288 
	256.591,302.238 256.687,302.238 257.017,302.238 257.678,302.192 260.652,302.098 261.077,302.098 261.124,302.238 
	261.171,302.238 261.359,302.663 261.504,302.899 263.345,306.488 263.438,306.678 263.485,306.724 264.666,309.085 265.09,309.98 
	264.429,310.313 264.381,310.313 258.857,313.002 258.906,313.05 260.84,316.874 260.84,316.921 261.218,317.629 263.769,322.729 
	264.854,324.946 265.845,324.711 266.552,324.521 267.213,324.335 267.45,324.286 268.441,324.051 269.717,324.946 269.906,325.089 
	271.558,326.269 271.462,326.931 271.462,326.978 271.369,327.261 271.511,327.213 271.558,327.355 271.698,327.826 
	271.888,328.204 272.029,328.204 272.218,327.875 272.359,327.826 272.738,327.969 273.209,328.629 273.399,328.911 273.446,328.96 
	273.399,329.197 276.326,329.007 277.979,328.911 278.027,328.911 278.688,328.865 279.062,328.865 279.631,328.818 280.67,328.771 
	280.765,328.724 281.331,328.678 281.612,328.678 282.18,328.865 282.652,329.197 283.644,329.857 282.983,330.85 282.983,330.897 
	282.322,332.454 282.038,333.823 281.896,334.483 281.376,335.806 281.093,336.607 279.489,337.08 279.159,337.174 277.979,337.552 
	276.703,337.834 276.045,338.023 274.909,338.354 274.721,338.402 274.578,338.448 273.021,338.874 272.879,338.874 
	270.047,339.678 269.008,339.961 267.497,340.385 266.79,340.574 265.892,340.808 264.336,341.233 264.241,341.281 264.146,341.281 
	263.862,341.375 263.721,341.424 261.218,342.085 259.378,342.603 259.33,342.603 259.142,342.651 258.999,342.699 258.434,342.84 
	257.206,343.169 252.533,344.444 251.635,344.681 251.541,344.729 251.164,344.823 249.794,345.2 248.237,345.625 248,345.721 
	245.451,346.427 243.231,347.043 241.534,347.466 239.55,347.985 239.22,348.08 238.322,348.362 236.292,348.882 234.687,349.308 
	228.265,351.008 228.124,351.054 225.48,351.763 223.829,348.175 223.309,347.136 223.027,346.522 221.327,343.076 218.73,343.736 
	218.258,342.745 216.276,338.686 216.134,338.354 214.576,335.097 214.009,334.012 213.631,333.162 213.584,332.974 
	212.922,331.604 211.695,328.911 211.082,327.592 210.375,326.176 209.477,326.411 208.107,326.789 205.464,327.543 
	204.804,324.995 203.717,320.794 203.576,320.227 203.151,318.574 203.056,317.723 202.254,310.596 202.112,310.689 
	201.639,307.479 201.545,306.818 201.263,304.884 200.933,304.978 200.979,303.041 201.026,301.343 201.074,300.823 
	200.555,300.211 199.279,298.745 199.091,298.511 201.311,297.14 205.039,294.779 208.863,292.324 208.957,292.418 214.387,298.651 
	214.435,298.698 214.435,298.745 214.906,299.265 214.999,299.358 216.322,300.871 216.654,301.247 217.125,301.768 
	220.808,299.454 221.043,299.312 224.583,297.14 226.662,295.772 226.897,295.631 229.117,294.262 229.4,293.978 229.778,293.789 
	231.997,292.374 "/>
<polyline id="3374950" fill="#4D4D4D" stroke="#FFFFFF" stroke-width="0.75"  points="231.997,292.374 235.347,298.557 237.898,303.373 
	239.266,302.712 240.682,302.002 241.201,301.768 242.997,300.871 243.09,300.823 247.953,298.369 248.284,298.935 249.227,300.681 
	251.068,299.69 251.398,299.926 251.729,300.306 251.871,300.636 251.965,300.73 252.344,300.871 252.768,301.013 252.956,301.058 
	253.099,301.2 253.996,300.162 254.373,299.596 254.422,299.69 254.467,299.784 254.751,300.306 255.506,301.816 255.931,302.288 
	256.591,302.238 256.687,302.238 257.017,302.238 257.678,302.192 260.652,302.098 261.077,302.098 261.124,302.238 
	261.171,302.238 261.359,302.663 261.504,302.899 263.345,306.488 263.438,306.678 263.485,306.724 264.666,309.085 265.09,309.98 
	264.429,310.313 264.381,310.313 258.857,313.002 258.906,313.05 260.84,316.874 260.84,316.921 261.218,317.629 263.769,322.729 
	264.854,324.946 265.845,324.711 266.552,324.521 267.213,324.335 267.45,324.286 268.441,324.051 269.717,324.946 269.906,325.089 
	271.558,326.269 271.462,326.931 271.462,326.978 271.369,327.261 271.511,327.213 271.558,327.355 271.698,327.826 
	271.888,328.204 272.029,328.204 272.218,327.875 272.359,327.826 272.738,327.969 273.209,328.629 273.399,328.911 273.446,328.96 
	273.399,329.197 276.326,329.007 277.979,328.911 278.027,328.911 278.688,328.865 279.062,328.865 279.631,328.818 280.67,328.771 
	280.765,328.724 281.331,328.678 281.612,328.678 282.18,328.865 282.652,329.197 283.644,329.857 282.983,330.85 282.983,330.897 
	282.322,332.454 282.038,333.823 281.896,334.483 281.376,335.806 281.093,336.607 279.489,337.08 279.159,337.174 277.979,337.552 
	276.703,337.834 276.045,338.023 274.909,338.354 274.721,338.402 274.578,338.448 273.021,338.874 272.879,338.874 
	270.047,339.678 269.008,339.961 267.497,340.385 266.79,340.574 265.892,340.808 264.336,341.233 264.241,341.281 264.146,341.281 
	263.862,341.375 263.721,341.424 261.218,342.085 259.378,342.603 259.33,342.603 259.142,342.651 258.999,342.699 258.434,342.84 
	257.206,343.169 252.533,344.444 251.635,344.681 251.541,344.729 251.164,344.823 249.794,345.2 248.237,345.625 248,345.721 
	245.451,346.427 243.231,347.043 241.534,347.466 239.55,347.985 239.22,348.08 238.322,348.362 236.292,348.882 234.687,349.308 
	228.265,351.008 228.124,351.054 225.48,351.763 223.829,348.175 223.309,347.136 223.027,346.522 221.327,343.076 218.73,343.736 
	218.258,342.745 216.276,338.686 216.134,338.354 214.576,335.097 214.009,334.012 213.631,333.162 213.584,332.974 
	212.922,331.604 211.695,328.911 211.082,327.592 210.375,326.176 209.477,326.411 208.107,326.789 205.464,327.543 
	204.804,324.995 203.717,320.794 203.576,320.227 203.151,318.574 203.056,317.723 202.254,310.596 202.112,310.689 
	201.639,307.479 201.545,306.818 201.263,304.884 200.933,304.978 200.979,303.041 201.026,301.343 201.074,300.823 
	200.555,300.211 199.279,298.745 199.091,298.511 201.311,297.14 205.039,294.779 208.863,292.324 208.957,292.418 214.387,298.651 
	214.435,298.698 214.435,298.745 214.906,299.265 214.999,299.358 216.322,300.871 216.654,301.247 217.125,301.768 
	220.808,299.454 221.043,299.312 224.583,297.14 226.662,295.772 226.897,295.631 229.117,294.262 229.4,293.978 229.778,293.789 
	231.997,292.374 "/>
<polygon id="3300003" fill="#4D4D4D" stroke="#FFFFFF" stroke-width="0.75"  points="225.622,183.744 224.725,181.949 224.63,181.713 224.489,181.383 
	225.811,174.916 224.113,175.434 221.799,172.412 221.987,171.563 221.468,169.674 221.043,169.108 219.156,165.709 
	216.606,165.096 213.915,160.138 214.67,159.761 210.988,156.031 208.345,155.465 205.464,156.928 205.039,156.125 199.562,158.864 
	198.571,156.88 196.731,153.246 187.147,152.066 186.438,152.82 181.481,148.809 177.988,145.739 177.94,145.787 177.751,145.975 
	177.421,146.401 177.28,146.684 177.043,146.92 176.006,147.204 175.817,147.345 175.77,147.392 175.297,148.289 175.25,148.524 
	175.297,148.666 175.723,149.093 175.77,149.14 175.77,149.327 175.533,149.516 175.062,149.61 174.731,149.847 174.683,149.989 
	174.778,150.791 174.872,150.886 175.202,151.026 175.25,151.168 175.202,151.311 175.062,151.546 175.062,151.736 175.297,152.161 
	175.674,152.726 175.77,152.82 175.77,153.057 175.674,153.246 175.345,153.53 174.731,153.859 174.211,154.237 173.928,154.615 
	173.503,155.228 173.409,155.323 172.937,155.843 172.183,156.173 171.614,156.739 171.521,156.786 171.473,156.835 171.379,156.88 
	171.096,156.88 170.48,156.693 168.688,156.362 168.451,156.362 168.405,156.362 168.026,156.362 167.225,156.835 166.752,157.589 
	166.564,158.203 166.091,158.581 165.761,158.675 165.195,158.627 164.108,158.958 163.685,159.194 162.126,159.572 
	161.889,159.808 161.937,160.469 161.795,160.658 160.804,161.602 160.238,162.168 159.907,162.404 159.528,162.593 
	159.293,162.546 158.915,162.546 158.63,162.593 158.348,162.925 158.396,163.301 158.586,163.489 158.915,164.529 159.009,164.906 
	158.963,165.143 158.822,165.709 158.727,165.944 158.255,166.653 157.687,167.031 157.405,167.646 157.169,168.92 157.169,169.722 
	157.405,170.006 157.546,169.959 157.83,169.628 157.971,169.58 158.066,169.817 158.113,169.91 158.113,170.1 158.066,170.194 
	158.019,170.241 158.019,170.43 158.396,171.279 159.2,172.224 159.576,172.412 159.67,172.46 159.718,172.508 159.907,172.744 
	159.955,172.885 160.048,173.074 160.002,173.735 160.002,174.68 160.096,175.104 160.33,175.529 160.381,175.671 160.381,175.765 
	160.33,175.954 160.238,176.945 160.33,177.181 160.426,177.653 160.381,177.89 160.144,178.22 160.144,178.456 160.238,179.305 
	160.85,179.778 161.37,180.343 162.172,181.571 162.834,182.186 163.306,182.139 163.636,182.562 163.685,182.704 163.636,182.941 
	163.59,183.177 163.636,183.319 163.966,184.262 164.156,184.782 164.204,184.923 164.204,184.971 164.675,185.253 165.005,185.302 
	165.102,185.396 165.005,186.34 164.91,186.388 164.723,186.292 164.627,186.34 164.297,186.67 163.921,187.284 164.015,188.275 
	164.061,188.512 164.439,189.219 164.533,189.362 164.58,189.456 164.58,189.503 164.627,189.503 164.675,189.598 164.77,189.692 
	164.816,189.739 164.91,189.833 165.052,189.881 165.102,189.928 165.241,189.928 165.383,189.881 165.43,189.881 165.478,189.833 
	165.525,189.786 165.525,189.692 165.478,189.313 165.525,189.077 165.525,189.032 165.571,188.983 165.571,188.937 
	165.619,188.937 165.667,188.937 165.808,188.889 165.855,188.889 166.233,188.937 166.469,189.077 166.564,189.362 
	166.658,189.928 166.61,190.164 166.61,190.211 166.564,190.305 166.564,190.353 166.421,190.542 166.091,190.683 166.045,190.683 
	165.571,190.729 165.43,190.872 165.43,191.108 165.619,191.25 166.421,191.581 166.989,191.675 167.225,191.863 167.225,191.91 
	167.271,191.958 167.225,192.052 167.225,192.146 167.177,192.146 167.177,192.193 167.129,192.242 166.989,192.336 166.94,192.336 
	166.894,192.336 166.799,192.336 166.706,192.336 166.658,192.336 166.469,192.146 166.375,192.146 166.328,192.146 
	165.667,192.478 165.619,192.478 165.619,192.523 165.619,192.571 165.713,192.713 165.713,192.76 165.998,192.949 166.091,193.233 
	165.808,193.894 165.761,194.555 165.713,194.695 165.619,194.838 165.052,194.932 164.864,195.025 164.864,195.451 
	164.864,195.498 164.91,195.498 164.958,195.545 165.525,195.687 165.619,195.876 165.288,196.064 164.675,196.678 164.533,196.915 
	164.486,196.962 164.486,197.056 164.439,197.15 164.439,197.339 164.533,197.528 165.052,198.048 165.147,198.236 165.147,198.378 
	164.864,198.708 164.816,198.708 164.816,198.802 164.77,198.897 164.77,198.945 164.77,199.086 164.91,199.511 164.91,199.699 
	164.864,199.699 164.723,199.843 164.108,199.652 164.015,199.652 163.872,199.89 163.825,200.077 163.872,200.313 164.015,200.691 
	164.533,201.022 164.675,201.164 164.675,201.354 164.627,201.494 164.439,201.494 164.439,201.445 164.39,201.354 164.108,201.022 
	163.73,200.928 163.685,200.928 163.448,201.07 163.306,201.399 163.306,201.494 163.353,201.635 163.448,201.776 163.73,202.393 
	163.778,202.533 163.448,202.912 163.4,202.957 163.024,203.714 162.928,203.901 163.069,204.186 163.543,204.564 163.73,204.895 
	163.966,205.742 164.015,206.027 164.061,206.357 164.061,206.781 164.061,206.924 164.156,207.018 164.439,207.018 
	164.675,206.594 164.864,206.498 165.667,206.498 166.138,206.547 166.281,206.594 166.281,206.639 166.233,206.688 
	165.619,207.064 165.478,207.254 165.525,207.491 165.761,207.633 165.808,207.773 165.808,207.82 165.619,208.765 165.525,208.954 
	165.147,209.284 164.77,209.426 164.675,209.473 164.58,209.567 164.58,209.661 164.58,209.756 164.58,209.898 164.627,209.993 
	164.627,210.038 164.627,210.086 164.958,210.699 165.005,210.795 165.102,210.937 165.147,211.078 165.43,212.398 165.383,212.682 
	165.336,212.967 164.864,213.674 164.439,214.382 163.778,215.232 163.353,215.8 163.117,216.459 163.069,217.074 163.165,217.594 
	163.069,217.782 162.55,218.063 162.267,218.112 162.172,218.3 162.172,218.489 162.219,219.009 162.504,219.387 162.787,219.67 
	162.834,219.763 162.976,219.907 163.117,220.095 162.598,220.615 162.219,220.756 162.172,220.803 162.078,220.898 
	161.937,220.943 161.937,220.99 161.843,221.229 161.843,222.171 161.984,222.456 162.692,223.352 163.117,224.676 163.165,225.1 
	163.069,225.619 163.024,226.138 163.069,226.374 163.448,226.939 163.73,227.271 163.778,227.319 163.778,227.364 163.966,227.79 
	163.966,228.216 163.59,228.828 163.59,229.632 163.543,230.057 163.448,230.293 162.976,230.954 162.928,231.143 162.976,231.425 
	163.211,232.085 163.448,232.746 163.4,232.842 163.306,233.03 163.069,233.313 162.646,233.599 162.504,233.739 162.409,234.021 
	162.409,234.541 162.314,234.824 162.314,234.871 162.219,235.106 162.031,235.816 161.889,236.193 161.795,236.287 
	161.276,236.854 161.04,237.139 159.859,238.506 159.67,238.695 159.104,238.838 158.915,239.827 158.679,240.207 158.444,240.866 
	158.348,241.292 158.113,242.142 157.971,242.473 157.642,242.898 157.546,243.227 157.5,243.415 157.5,243.604 157.546,244.312 
	157.642,244.691 157.687,244.833 157.736,244.974 157.736,245.021 157.925,245.776 157.925,245.824 158.159,246.013 
	158.348,246.344 158.49,246.863 158.537,247.335 158.586,247.429 158.537,247.807 158.444,248.421 158.348,248.75 158.255,248.893 
	158.207,248.94 158.207,249.034 158.207,249.13 158.207,249.27 158.255,249.46 158.348,250.073 158.444,250.166 158.586,250.404 
	158.679,250.781 158.679,250.826 158.63,251.064 158.113,251.536 157.876,251.819 157.83,251.867 157.783,251.915 157.736,251.961 
	157.687,252.056 157.642,252.105 157.642,252.197 157.642,252.244 157.736,252.434 157.971,252.575 158.019,252.67 157.971,253.095 
	157.736,253.425 157.783,254.182 157.925,254.746 158.255,255.218 158.586,255.361 158.63,255.361 158.727,255.456 158.774,255.502 
	158.774,255.549 158.963,255.974 158.963,256.209 158.868,256.304 158.679,256.493 157.595,258.335 156.507,259.185 
	155.988,259.845 155.894,259.939 155.847,260.035 155.516,260.742 155.563,261.071 155.61,261.969 155.659,262.205 156.083,263.055 
	156.649,264.707 156.604,265.416 156.604,265.464 156.555,265.605 156.366,266.218 156.318,266.453 156.271,266.502 
	156.224,266.597 155.941,266.689 155.894,267.116 156.036,267.54 156.036,267.635 156.036,267.729 156.036,268.438 156.177,268.769 
	156.414,269.052 157.169,269.333 157.687,269.665 158.302,270.372 158.396,270.562 158.444,270.704 158.49,270.892 158.49,270.94 
	158.679,271.979 158.679,272.072 158.679,272.168 158.727,272.262 158.727,272.498 158.63,272.779 158.255,273.583 158.207,273.771 
	158.302,274.055 158.963,275.66 158.963,275.896 158.915,276.463 158.915,276.511 158.915,276.793 158.963,277.218 158.963,277.312 
	159.104,277.786 159.2,278.209 159.2,278.257 159.246,278.492 159.435,280.191 159.576,280.711 159.718,281.608 159.907,283.072 
	159.907,283.119 159.859,283.354 159.388,284.205 159.34,284.771 159.435,285.244 159.859,286.471 159.955,286.66 160.144,286.802 
	161.135,287.132 161.417,287.085 161.889,286.944 162.126,286.85 162.219,286.85 162.362,286.896 162.362,286.944 162.362,286.991 
	162.362,287.085 162.362,287.132 162.126,287.793 162.126,287.841 161.889,288.266 161.795,288.502 161.606,289.588 
	161.606,289.634 161.511,290.059 161.511,290.201 161.511,290.342 161.511,290.436 161.56,290.579 161.795,290.862 162.598,291.571 
	163.069,291.806 163.117,291.854 163.165,291.902 163.259,291.994 163.353,292.09 163.4,292.09 163.448,292.232 163.448,292.277 
	163.259,293.599 163.448,296.195 163.211,297.755 162.976,298.841 162.928,298.886 162.55,299.265 162.362,299.406 161.984,299.784 
	161.889,299.975 161.889,300.539 162.172,301.578 162.55,302.238 162.88,302.57 162.976,302.759 163.024,302.759 163.024,302.808 
	163.024,303.138 163.024,303.279 163.024,303.373 162.928,303.844 162.928,304.647 163.069,305.118 163.448,305.779 163.73,306.44 
	163.73,306.535 163.73,306.678 163.685,306.772 163.4,307.292 163.211,307.669 163.024,308.046 163.211,308.425 163.921,309.085 
	163.966,309.134 163.966,309.179 164.061,309.368 164.061,309.416 164.015,309.651 163.685,310.313 163.543,310.55 163.685,310.784 
	163.966,311.822 165.761,311.493 166.658,314.372 168.782,313.9 169.916,313.663 171.426,313.381 171.946,313.237 171.898,313.193 
	170.67,310.313 172.04,310.076 174.731,309.416 174.306,308.565 180.066,305.921 181.151,305.45 181.529,305.167 183.56,304.222 
	183.985,303.986 185.022,303.514 185.305,303.373 188.751,301.72 188.516,306.064 188.656,308.235 193.427,307.101 193.52,307.055 
	194.465,306.818 194.984,306.678 200.933,304.978 200.979,303.041 201.026,301.343 201.074,300.823 200.555,300.211 
	199.279,298.745 199.091,298.511 201.311,297.14 197.25,293.836 195.739,290.153 193.993,290.625 189.461,283.214 189.836,280.995 
	190.83,275.802 190.83,275.282 190.545,273.914 190.073,271.838 189.98,271.507 189.836,271.317 188.563,270.42 188.28,268.152 
	192.104,267.54 192.152,267.02 192.34,264.85 192.716,263.526 193.427,260.883 193.851,259.422 193.993,258.758 194.134,258.477 
	195.314,254.651 195.502,253.99 196.731,250.073 197.344,247.995 197.722,247.053 198.855,244.361 199.657,242.52 204.804,249.647 
	204.897,249.413 204.851,249.317 204.756,249.27 204.708,249.175 204.804,248.799 205.417,248.421 205.747,248.279 205.84,247.948 
	205.889,247.713 206.032,247.429 206.738,247.193 206.833,246.957 207.021,246.815 207.306,246.863 207.447,247.004 
	207.919,247.569 208.485,246.202 208.863,245.399 209.336,245.493 209.807,245.067 210.044,245.115 210.375,244.974 
	210.609,244.739 211.082,244.549 211.27,244.597 211.414,244.549 211.555,244.644 211.695,244.784 211.6,244.881 211.649,244.974 
	211.79,245.021 211.837,245.021 212.074,244.739 212.074,244.502 211.979,244.312 211.885,244.218 211.885,244.029 212.026,243.793 
	212.357,243.368 212.357,243.039 212.262,242.851 211.649,242.424 211.224,242.235 210.846,242.283 210.657,242.142 
	210.562,241.953 210.562,241.859 210.846,241.15 211.318,241.056 211.414,240.962 211.649,240.253 211.932,240.064 212.167,240.019 
	212.405,240.253 212.593,240.584 212.876,240.679 214.009,240.301 214.293,240.111 214.765,239.357 215.331,238.647 
	215.852,238.412 215.802,238.082 215.473,237.657 215.426,237.515 215.426,237.279 215.52,237.043 216.18,236.43 216.322,236.144 
	215.473,235.297 215.614,234.73 215.661,234.305 215.473,233.502 215.378,233.267 215.236,233.124 214.858,232.463 214.528,231.52 
	214.528,231.236 214.717,230.623 214.67,230.009 214.15,229.111 214.102,228.972 214.198,228.545 214.198,228.356 214.623,228.169 
	216.322,227.412 219.674,225.901 224.583,223.729 223.97,222.314 223.97,222.267 221.987,217.639 221.184,215.941 219.58,212.307 
	219.108,212.496 214.765,203.572 213.726,201.541 219.061,198.992 219.438,198.897 227.417,194.932 227.889,194.744 
	230.202,193.516 "/>
<polyline id="3300004" fill="#4D4D4D" stroke="#FFFFFF" stroke-width="0.75"  points="200.933,304.978 201.263,304.884 201.545,306.818 
	201.639,307.479 202.112,310.689 202.254,310.596 203.056,317.723 203.151,318.574 203.576,320.227 203.717,320.794 
	204.804,324.995 205.464,327.543 208.107,326.789 209.477,326.411 210.375,326.176 211.082,327.592 211.695,328.911 
	212.922,331.604 213.584,332.974 213.631,333.162 214.009,334.012 214.576,335.097 216.134,338.354 216.276,338.686 
	218.258,342.745 218.73,343.736 221.327,343.076 223.027,346.522 223.309,347.136 223.829,348.175 225.48,351.763 223.073,352.376 
	220.855,352.99 217.834,353.791 212.45,355.162 212.357,355.208 212.311,355.208 212.262,355.208 211.365,355.445 209.429,355.966 
	208.249,356.247 206.456,356.719 201.311,358.089 194.323,359.931 194.229,359.977 194.182,359.977 194.086,360.025 
	193.614,360.118 190.545,360.922 189.508,361.157 186.864,361.865 182.992,362.809 182.614,362.904 181.481,363.234 
	180.679,363.424 179.547,363.708 178.886,363.848 178.791,363.611 178.46,363.188 177.563,362.386 176.949,361.957 176.619,361.439 
	176.289,360.638 176.006,360.261 175.77,360.071 175.202,359.931 175.013,359.787 174.826,359.551 174.447,359.268 174.022,359.268 
	173.833,359.41 173.786,359.505 173.833,359.883 173.786,360.071 173.739,360.118 173.268,360.686 173.031,360.827 172.984,360.827 
	172.842,360.872 172.512,360.686 172.465,360.686 172.323,360.401 172.418,360.025 172.749,359.692 172.842,359.457 172.842,359.41 
	172.842,359.268 172.794,359.175 172.606,358.845 172.559,358.796 172.371,358.562 172.229,358.419 171.991,358.23 171.851,358.089 
	171.709,357.994 171.426,357.805 170.576,357.381 169.066,356.671 168.642,356.296 168.642,356.247 167.838,354.548 
	167.413,353.557 167.225,352.942 166.989,352.424 166.375,351.999 165.949,351.525 165.903,351.48 165.903,351.431 165.855,351.385 
	165.808,351.338 165.808,351.103 165.808,351.054 165.808,350.913 165.808,350.677 165.855,350.441 165.571,349.78 165.43,349.732 
	165.43,349.686 165.383,349.166 165.195,348.646 165.052,347.42 165.102,347.325 165.525,346.994 165.949,346.569 166.186,346.191 
	166.186,346.096 166.281,345.907 166.421,345.578 166.469,345.389 166.469,345.342 166.421,345.154 166.186,344.399 
	166.138,344.304 166.138,344.208 166.091,344.02 166.091,343.783 166.091,343.643 166.138,343.501 166.375,343.219 166.421,343.219 
	166.421,343.169 166.421,343.076 166.469,343.027 166.421,342.982 166.375,342.699 165.761,341.564 165.713,341.281 
	165.619,340.857 165.571,340.668 165.43,340.292 165.383,340.195 165.195,339.818 165.147,339.724 165.052,339.629 165.052,339.583 
	164.958,339.583 164.91,339.534 164.723,339.534 164.439,339.346 164.346,339.204 164.297,338.922 164.39,338.543 165.102,337.411 
	165.288,337.222 165.288,337.174 166.138,336.798 166.421,336.513 167.366,335.994 167.696,335.334 168.073,334.956 168.31,334.956 
	168.592,335.097 168.829,335.003 168.829,334.956 168.924,334.814 169.302,334.012 169.349,333.823 169.49,333.398 169.49,333.257 
	169.444,333.257 169.16,333.066 168.924,332.69 168.877,332.171 168.877,331.745 169.019,331.273 169.253,331.038 169.727,330.99 
	169.962,330.85 170.199,330.378 170.199,330.141 170.199,330.046 170.15,329.902 170.105,329.81 170.105,329.763 170.009,329.621 
	169.066,329.242 168.688,329.148 168.451,328.96 168.31,328.818 167.932,328.299 167.886,328.204 167.791,328.063 167.745,327.969 
	167.696,327.497 167.696,327.023 167.555,326.458 167.271,326.081 166.847,325.798 166.706,325.607 166.517,325.183 
	166.517,324.995 166.517,324.946 166.564,324.852 166.61,324.711 166.658,324.521 166.799,324.286 167.225,323.625 167.225,323.58 
	167.413,323.154 167.791,322.398 168.026,321.596 168.168,320.936 168.216,320.698 168.168,320.604 168.168,320.558 
	168.121,320.368 168.073,320.319 167.462,319.424 166.894,318.81 166.847,318.479 166.894,318.384 166.894,318.243 166.94,318.102 
	166.989,318.056 167.319,317.536 167.366,317.158 167.319,316.969 167.129,316.308 167.084,316.308 166.94,316.167 166.706,315.929 
	166.564,315.836 166.469,315.788 166.138,315.552 166.091,315.506 165.949,315.411 165.855,315.316 165.855,315.27 165.855,315.222 
	165.855,315.176 165.998,315.081 165.998,315.032 165.949,314.843 165.903,314.702 165.855,314.657 165.855,314.608 
	165.713,314.517 165.525,314.467 165.147,314.608 164.77,314.517 164.77,314.467 164.156,313.758 164.108,313.758 164.108,313.711 
	164.015,313.476 164.015,313.336 164.204,313.05 164.25,312.956 164.25,312.86 164.297,312.815 164.297,312.767 164.25,312.72 
	164.25,312.626 164.25,312.577 163.966,311.822 165.761,311.493 166.658,314.372 168.782,313.9 169.916,313.663 171.426,313.381 
	171.946,313.237 171.898,313.193 170.67,310.313 172.04,310.076 174.731,309.416 174.306,308.565 180.066,305.921 181.151,305.45 
	181.529,305.167 183.56,304.222 183.985,303.986 185.022,303.514 185.305,303.373 188.751,301.72 188.516,306.064 188.656,308.235 
	193.427,307.101 193.52,307.055 194.465,306.818 194.984,306.678 200.933,304.978 "/>
<polygon id="3300001" fill="#4D4D4D" stroke="#FFFFFF" stroke-width="0.75"  points="278.732,225.712 278.592,225.712 278.404,225.57 
	278.12,224.91 277.931,224.769 277.459,224.721 276.655,224.203 276.561,224.249 276.278,224.155 274.391,218.961 273.966,217.688 
	271.841,212.116 271.322,210.842 270.567,208.859 270.567,208.765 270.142,207.584 270.047,207.207 268.394,202.77 268.252,202.485 
	268.252,202.438 266.552,198.236 266.552,198.19 264.711,192.666 263.155,188.181 262.777,187.143 262.351,185.962 261.597,183.603 
	261.218,182.562 259.896,178.787 259.756,178.409 258.765,175.529 258.149,173.735 258.104,173.64 258.008,173.309 257.253,171.279 
	256.45,168.967 255.27,165.663 254.278,162.877 253.57,160.895 247.953,144.984 247.482,143.473 247.482,143.425 246.867,141.773 
	246.726,141.349 246.347,140.357 245.641,138.374 244.082,133.796 242.76,130.208 242.711,130.113 242.429,129.452 240.872,125.109 
	239.832,122.135 239.407,120.954 238.935,119.728 238.416,118.264 238.369,118.075 237.803,116.658 237.236,115.194 
	234.782,108.397 232.657,102.307 230.768,97.019 228.456,90.646 228.265,90.222 227.275,87.531 227.133,87.104 226.897,86.35 
	226.52,85.326 225.764,83.296 225.528,82.683 223.309,76.829 222.933,75.838 222.555,74.941 222.177,73.854 221.752,72.769 
	220.241,68.993 218.683,64.98 216.842,60.022 216.087,58.04 215.708,56.908 215.426,56.388 214.999,55.207 209.381,40.195 
	207.729,35.898 204.945,28.203 202.112,21.5 202.018,21.5 201.735,21.688 201.12,22.254 200.791,23.294 200.696,24.049 
	200.696,24.615 200.791,24.804 200.885,24.852 201.215,24.758 201.215,25.229 201.026,25.702 200.838,25.843 200.696,26.221 
	200.603,27.118 200.744,27.495 200.648,28.439 200.413,28.724 200.365,29.809 200.272,29.998 199.846,30.281 199.422,30.516 
	199.137,30.611 198.335,30.329 198.052,30.091 197.627,30.044 197.344,30.516 197.061,30.753 196.872,30.8 196.636,31.225 
	196.636,31.508 196.59,31.697 196.494,31.745 196.305,31.65 196.257,31.461 196.07,31.225 195.645,30.989 195.219,30.895 
	194.936,30.847 194.701,30.516 194.512,30.516 194.134,30.611 193.52,31.32 192.765,31.461 192.576,31.225 192.292,31.508 
	192.197,31.839 191.962,31.886 191.725,31.745 191.774,31.461 191.207,30.753 191.113,30.705 190.782,30.659 190.168,30.044 
	190.026,29.998 189.602,30.091 188.941,29.761 188.706,29.855 188.375,29.573 188.232,29.431 187.996,28.864 187.43,27.92 
	187.526,27.59 187.335,27.495 186.769,27.402 186.25,27.778 186.108,27.826 185.873,27.59 185.825,27.353 185.636,27.07 
	185.542,27.023 184.644,27.732 184.361,28.156 184.22,28.77 184.173,29.243 184.031,29.479 183.607,29.667 183.37,30.044 
	183.229,30.375 182.662,30.705 182.427,30.941 182.378,31.367 182.427,31.555 182.284,31.886 181.718,32.31 181.387,32.263 
	181.151,32.735 181.01,32.83 180.914,32.877 180.395,32.877 180.301,33.207 180.301,33.35 180.444,33.539 180.727,33.726 
	181.151,34.293 181.247,34.576 181.292,34.766 181.199,35.096 180.962,35.521 180.584,35.851 180.301,35.946 179.971,36.277 
	179.923,36.37 179.875,36.843 179.875,37.08 179.782,37.598 179.688,37.834 179.64,37.881 179.264,37.74 178.979,37.551 
	178.602,37.174 177.893,37.22 177.563,37.457 177.232,37.881 176.904,38.4 176.854,38.637 176.76,38.826 175.958,38.873 
	175.817,38.684 175.533,38.59 175.013,38.542 174.731,38.731 174.636,38.826 174.636,38.92 174.683,39.107 174.778,39.156 
	174.967,39.107 175.25,39.297 175.958,39.581 176.997,39.864 177.421,40.1 177.61,40.289 177.658,40.43 177.706,40.43 
	178.271,40.43 178.413,40.384 178.838,40.43 179.403,41.139 179.593,41.421 179.734,41.706 179.264,42.556 179.358,42.792 
	179.358,43.829 179.073,44.16 178.979,44.35 178.979,44.537 179.122,45.293 179.169,46.19 179.028,46.615 178.838,46.851 
	179.122,47.418 179.169,47.606 179.122,48.409 179.122,48.551 178.932,48.692 178.743,49.069 178.649,49.967 178.886,50.25 
	179.169,50.392 180.019,51.195 180.066,51.478 180.066,51.95 179.875,52.469 179.403,53.366 179.028,53.649 178.932,54.217 
	178.979,54.357 179.028,54.782 178.886,55.113 178.649,55.301 178.508,55.679 178.508,56.152 178.366,56.388 178.178,56.529 
	178.178,57.332 177.94,57.757 177.61,57.85 177.186,58.087 177.186,58.134 177.28,58.229 177.328,58.276 177.328,58.323 
	177.28,58.37 177.186,58.56 177.139,58.654 176.904,58.796 176.854,59.268 176.854,59.456 176.904,59.644 176.478,60.164 
	176.43,60.164 176.289,60.022 176.193,60.07 176.193,60.164 176.335,60.353 176.572,60.684 176.809,61.912 176.667,62.336 
	176.478,62.289 176.335,62.383 176.335,62.525 176.383,62.808 176.904,63.139 177.043,63.186 177.232,63.139 177.515,62.856 
	177.8,63.091 177.847,63.28 177.893,64.271 177.658,65.357 177.94,66.584 178.034,66.68 178.083,66.773 177.94,66.963 
	181.104,65.924 181.01,66.16 180.49,66.537 180.301,66.773 180.208,67.009 180.253,67.529 180.253,67.624 180.208,67.624 
	180.019,67.765 179.64,68.048 178.696,67.954 178.271,67.718 178.224,67.67 177.893,67.624 177.658,67.718 177.28,68.379 
	176.854,68.71 176.478,68.897 176.099,69.275 175.723,70.125 175.723,70.172 175.817,70.881 176.053,71.306 176.854,72.155 
	177.328,72.296 177.988,73.052 178.554,73.1 178.886,73.761 179.122,75.129 179.403,75.555 179.403,75.603 179.452,75.932 
	179.403,76.073 180.019,77.49 180.679,77.774 181.199,78.199 181.718,78.624 182.284,78.765 182.332,78.765 182.378,78.812 
	182.378,78.859 182.427,78.859 182.427,79.095 182.427,79.285 182.473,79.567 182.473,79.615 182.473,79.663 182.427,79.756 
	182.378,79.756 182.284,79.756 182.143,79.756 182.095,79.804 182.048,79.804 182.048,79.851 182.001,80.086 181.86,80.37 
	181.67,80.842 181.34,81.315 181.292,81.409 181.387,81.503 181.575,81.646 181.625,81.646 181.625,81.739 181.625,81.786 
	181.104,83.203 181.104,83.25 180.821,83.486 180.727,83.722 180.727,83.816 180.821,84.241 180.49,84.808 180.49,84.855 
	180.066,85.091 179.688,85.547 179.499,86.021 179.499,86.162 179.547,86.443 179.782,86.681 179.875,86.869 179.547,87.389 
	179.452,87.624 179.403,87.861 179.452,88.096 179.64,88.191 179.971,88.57 180.159,88.9 180.159,88.946 180.159,89.041 
	180.208,89.041 180.113,89.277 179.829,89.607 179.829,90.599 179.829,90.788 179.829,90.835 179.829,90.882 179.734,90.977 
	179.64,91.023 179.593,90.93 179.358,91.118 179.028,91.968 179.028,92.25 179.122,92.535 179.452,92.818 179.829,92.912 
	179.875,93.147 179.829,93.384 179.875,94.329 180.113,94.659 180.113,95.036 179.829,95.885 179.782,95.981 179.403,96.075 
	178.791,96.642 178.554,97.208 178.649,97.35 178.743,97.491 178.791,97.586 178.46,98.104 178.366,98.435 178.366,98.671 
	178.319,98.719 178.271,98.814 178.178,98.955 178.13,99.049 177.847,99.333 177.8,99.804 177.847,100.041 177.847,100.087 
	177.751,100.277 177.658,100.466 177.61,100.466 177.186,100.702 176.619,101.127 176.619,101.174 176.619,101.22 176.619,101.268 
	176.619,101.314 176.667,101.458 176.667,101.504 176.713,101.552 176.76,101.599 176.809,101.693 176.854,101.693 177.232,101.74 
	177.469,102.07 177.751,102.873 177.751,103.156 177.94,103.723 178.034,103.864 178.224,103.958 178.271,103.913 178.508,103.676 
	178.649,103.676 178.696,103.77 178.791,104.29 178.838,104.431 179.403,104.714 180.49,105.8 181.01,105.989 181.055,106.036 
	181.104,106.13 181.151,106.177 181.104,106.225 181.104,106.556 181.151,106.65 181.247,106.791 181.387,106.838 181.812,106.838 
	181.812,106.981 181.67,107.168 181.625,107.453 181.765,107.688 181.953,108.066 182.284,108.397 182.332,108.68 182.236,108.963 
	182.284,109.011 182.944,109.294 183.182,109.294 183.56,109.199 183.7,109.294 183.7,109.482 183.607,109.766 183.56,109.908 
	183.607,110.097 183.793,110.333 183.793,110.568 183.748,110.852 183.748,110.898 183.793,111.041 183.793,111.088 
	184.031,111.277 184.079,111.277 184.173,111.324 184.22,111.324 184.268,111.324 184.409,111.324 184.833,111.277 184.929,111.418 
	184.929,111.559 184.975,111.702 185.07,111.844 185.116,111.844 185.353,111.796 185.448,111.796 185.494,111.749 185.542,111.749 
	185.542,111.654 185.588,111.607 185.636,111.559 185.636,111.513 185.636,111.324 185.636,111.277 185.731,111.229 
	185.776,111.229 185.873,111.277 185.919,111.324 186.25,111.559 186.722,112.174 186.769,112.221 186.864,112.41 186.864,112.457 
	186.864,112.504 186.864,112.693 186.581,112.834 186.628,113.118 186.722,113.166 186.816,113.212 187.004,113.307 
	187.335,113.448 187.526,113.496 187.62,113.59 187.902,113.967 187.855,114.109 187.808,114.297 187.76,114.297 187.76,114.345 
	187.713,114.439 187.713,114.487 187.713,114.534 187.902,115.384 188.375,116.187 188.516,116.469 188.47,116.707 188.47,116.941 
	188.516,117.178 188.656,117.367 188.751,117.508 188.751,117.555 188.846,117.838 188.989,118.027 189.036,118.075 
	189.412,117.979 190.215,118.075 190.688,118.217 190.688,118.689 190.593,118.972 190.545,119.02 190.263,119.538 190.121,119.632 
	190.073,119.68 189.886,119.68 189.695,119.586 189.508,119.586 189.508,119.728 189.553,119.87 189.649,120.011 190.168,120.388 
	190.215,120.53 190.168,120.671 190.026,120.86 189.98,120.908 189.602,120.86 189.553,120.86 189.508,120.908 189.461,121.001 
	189.461,121.096 189.461,121.144 189.508,121.238 189.602,121.521 189.553,121.664 189.553,121.71 189.508,121.758 189.412,121.851 
	189.317,121.946 188.8,122.135 188.232,122.041 186.957,122.323 186.816,122.465 186.769,122.512 186.722,122.56 186.722,122.607 
	186.674,122.654 186.674,122.749 186.628,122.89 186.628,123.031 186.628,123.551 186.628,123.74 186.769,123.929 186.816,123.977 
	186.957,124.023 187.76,124.401 189.13,124.873 189.271,125.062 189.412,125.157 189.461,125.344 189.461,125.723 189.366,126.195 
	189.082,127.045 188.893,127.328 188.8,127.375 188.28,127.47 188.232,127.658 188.328,127.895 188.516,128.083 189.082,128.319 
	189.223,128.413 189.412,128.792 189.649,128.98 190.215,129.216 190.31,129.31 190.31,129.357 190.31,129.405 190.31,129.452 
	190.31,129.5 190.263,129.594 190.215,129.594 190.168,129.641 190.121,129.641 190.073,129.641 189.743,129.594 189.553,129.689 
	189.695,130.02 189.695,130.208 189.649,130.208 189.602,130.255 189.461,130.255 189.461,130.301 189.412,130.208 189.317,130.113 
	189.223,130.066 189.177,130.066 189.13,130.066 188.989,130.161 188.989,130.396 189.036,130.727 189.082,130.727 189.082,130.917 
	189.13,131.435 189.13,131.717 189.082,131.765 189.082,131.907 189.036,131.954 189.036,132.002 188.989,132.049 188.516,132.333 
	188.28,132.474 187.665,132.474 187.572,132.521 187.526,132.569 187.477,132.709 187.43,132.757 187.335,133.181 187.052,133.181 
	186.957,133.04 186.769,132.993 186.722,132.993 186.628,132.993 186.485,133.04 186.438,133.087 186.392,133.134 186.345,133.134 
	186.345,133.181 186.013,134.031 185.731,134.267 185.542,134.551 185.448,134.834 185.448,134.976 185.588,135.212 
	185.731,135.306 186.296,135.495 186.392,135.684 186.296,136.061 186.155,136.25 185.494,136.344 185.448,136.439 185.353,137.336 
	185.494,138.327 185.542,138.47 185.494,138.753 185.494,138.894 185.494,138.941 185.448,139.083 185.353,139.366 185.07,139.65 
	185.022,139.697 184.314,140.027 184.173,140.169 184.173,140.311 184.314,140.5 184.409,141.018 184.031,141.727 183.7,142.104 
	183.182,142.954 183.133,143.001 182.899,143.285 182.568,143.663 182.095,143.993 182.048,143.993 182.001,144.041 
	181.718,144.087 181.151,144.183 181.055,144.183 180.631,144.371 180.301,144.606 180.208,144.701 180.159,144.795 
	180.113,144.937 180.066,145.078 180.066,145.268 180.019,145.692 180.019,145.787 179.829,145.881 179.452,145.929 
	178.886,145.599 178.743,145.551 178.224,145.645 177.988,145.739 181.481,148.809 186.438,152.82 187.147,152.066 196.731,153.246 
	198.571,156.88 199.562,158.864 205.039,156.125 205.464,156.928 208.345,155.465 210.988,156.031 214.67,159.761 213.915,160.138 
	216.606,165.096 219.156,165.709 221.043,169.108 221.468,169.674 221.987,171.563 221.799,172.412 224.113,175.434 
	225.811,174.916 224.489,181.383 224.63,181.713 224.725,181.949 225.622,183.744 230.202,193.516 227.889,194.744 227.417,194.932 
	219.438,198.897 219.061,198.992 213.726,201.541 214.765,203.572 219.108,212.496 219.58,212.307 221.184,215.941 222.412,216.602 
	222.601,216.696 224.3,217.688 224.442,217.782 224.537,217.782 224.678,217.876 225.057,218.112 226.237,218.773 227.793,219.67 
	228.124,219.859 229.022,220.378 229.4,220.568 231.665,221.699 237.661,224.769 238.888,225.337 242.241,227.035 242.241,227.081 
	242.287,227.081 242.619,227.223 242.948,227.412 242.948,227.555 243.515,227.884 243.656,227.931 243.751,227.839 
	248.897,230.339 251.541,231.661 251.824,231.709 252.625,231.661 254.656,231.565 255.412,231.991 256.735,232.699 257.111,232.37 
	257.253,231.52 261.077,232.938 262.919,227.98 263.579,229.254 266.696,235.344 266.741,235.391 266.979,234.587 267.545,235.106 
	267.827,234.399 268.347,234.871 268.441,234.118 269.056,234.683 269.81,231.757 270.283,232.039 270.755,231.379 271.18,231.661 
	271.511,230.904 271.841,231.425 272.266,230.67 274.248,234.353 274.391,234.683 274.909,235.532 275.098,235.911 275.523,234.683 
	275.569,234.541 276.326,232.37 277.364,229.489 278.213,227.271 278.261,227.319 278.78,227.035 278.874,227.129 278.874,225.808 
	"/>
<polygon id="3300002" fill="#4D4D4D" stroke="#FFFFFF" stroke-width="0.75"  points="266.79,251.867 265.987,250.262 264.429,247.099 
	263.485,245.208 261.597,241.15 259.613,236.902 261.077,232.938 257.253,231.52 257.111,232.37 256.735,232.699 255.412,231.991 
	254.656,231.565 252.625,231.661 251.824,231.709 251.541,231.661 248.897,230.339 243.751,227.839 243.656,227.931 
	243.515,227.884 242.948,227.555 242.948,227.412 242.619,227.223 242.287,227.081 242.241,227.081 242.241,227.035 
	238.888,225.337 237.661,224.769 231.665,221.699 229.4,220.568 229.022,220.378 228.124,219.859 227.793,219.67 226.237,218.773 
	225.057,218.112 224.678,217.876 224.537,217.782 224.442,217.782 224.3,217.688 222.601,216.696 222.412,216.602 221.184,215.941 
	221.987,217.639 223.97,222.267 223.97,222.314 224.583,223.729 219.674,225.901 216.322,227.412 214.623,228.169 214.198,228.356 
	214.198,228.545 214.102,228.972 214.15,229.111 214.67,230.009 214.717,230.623 214.528,231.236 214.528,231.52 214.858,232.463 
	215.236,233.124 215.378,233.267 215.473,233.502 215.661,234.305 215.614,234.73 215.473,235.297 216.322,236.144 216.18,236.43 
	215.52,237.043 215.426,237.279 215.426,237.515 215.473,237.657 215.802,238.082 215.852,238.412 215.331,238.647 214.765,239.357 
	214.293,240.111 214.009,240.301 212.876,240.679 212.593,240.584 212.405,240.253 212.167,240.019 211.932,240.064 
	211.649,240.253 211.414,240.962 211.318,241.056 210.846,241.15 210.562,241.859 210.562,241.953 210.657,242.142 210.846,242.283 
	211.224,242.235 211.649,242.424 212.262,242.851 212.357,243.039 212.357,243.368 212.026,243.793 211.885,244.029 
	211.885,244.218 211.979,244.312 212.074,244.502 212.074,244.739 211.837,245.021 211.79,245.021 211.649,244.974 211.6,244.881 
	211.695,244.784 211.555,244.644 211.414,244.549 211.27,244.597 211.082,244.549 210.609,244.739 210.375,244.974 210.044,245.115 
	209.807,245.067 209.336,245.493 208.863,245.399 208.485,246.202 207.919,247.569 207.447,247.004 207.306,246.863 
	207.021,246.815 206.833,246.957 206.738,247.193 206.032,247.429 205.889,247.713 205.84,247.948 205.747,248.279 205.417,248.421 
	204.804,248.799 204.708,249.175 204.756,249.27 204.851,249.317 204.897,249.413 204.804,249.647 199.657,242.52 198.855,244.361 
	197.722,247.053 197.344,247.995 196.731,250.073 195.502,253.99 195.314,254.651 194.134,258.477 193.993,258.758 193.851,259.422 
	193.427,260.883 192.716,263.526 192.34,264.85 192.152,267.02 192.104,267.54 188.28,268.152 188.563,270.42 189.836,271.317 
	189.98,271.507 190.073,271.838 190.545,273.914 190.83,275.282 190.83,275.802 189.836,280.995 189.461,283.214 193.993,290.625 
	195.739,290.153 197.25,293.836 201.311,297.14 205.039,294.779 208.863,292.324 208.957,292.418 214.387,298.651 214.435,298.698 
	214.435,298.745 214.906,299.265 214.999,299.358 216.322,300.871 216.654,301.247 217.125,301.768 220.808,299.454 
	221.043,299.312 224.583,297.14 226.662,295.772 226.897,295.631 229.117,294.262 229.4,293.978 229.778,293.789 231.997,292.374 
	235.347,298.557 237.898,303.373 239.266,302.712 240.682,302.002 241.201,301.768 242.997,300.871 243.09,300.823 247.953,298.369 
	248.284,298.935 249.227,300.681 251.068,299.69 251.398,299.926 251.729,300.306 251.871,300.636 251.965,300.73 252.344,300.871 
	252.768,301.013 252.956,301.058 253.099,301.2 253.996,300.162 254.373,299.596 254.422,299.69 254.467,299.784 254.751,300.306 
	255.506,301.816 255.931,302.288 256.591,302.238 256.687,302.238 257.017,302.238 257.678,302.192 260.652,302.098 
	261.077,302.098 260.888,301.816 260.416,301.013 259.425,299.358 259.188,299.03 258.906,298.557 259.849,298.651 259.896,298.369 
	260.464,294.215 260.51,293.742 260.747,290.107 261.218,286.944 261.597,284.914 261.832,281.846 262.021,281.797 262.777,275.66 
	262.87,274.716 262.919,274.244 262.965,273.866 262.965,273.819 262.965,273.727 263.013,273.206 263.013,273.159 263.345,269.854 
	263.39,269.712 263.769,266.689 264.336,265.132 266.081,260.41 268.206,254.651 "/>
</svg>
