<?xml version="1.0" encoding="utf-8"?>
<!-- Generator: Adobe Illustrator 13.0.2, SVG Export Plug-In . SVG Version: 6.00 Build 14948)  -->
<!DOCTYPE svg PUBLIC "-//W3C//DTD SVG 1.1//EN" "http://www.w3.org/Graphics/SVG/1.1/DTD/svg11.dtd">
<svg version="1.1" id="Layer_1" xmlns="http://www.w3.org/2000/svg" xmlns:xlink="http://www.w3.org/1999/xlink" x="0px" y="0px"
	 width="500px" height="400px" viewBox="-75.216 -4.686 500 400" enable-background="new -75.216 -4.686 500 400"
	 xml:space="preserve">
<polyline id="4476450" fill="#666666" stroke="#FFFFFF" points="216.208,20.495 217.286,20.188 218.204,19.882 
	218.818,19.727 219.432,19.575 220.35,19.116 227.553,16.816 237.82,13.444 249.158,9.613 251.459,16.969 251.918,18.655 
	253.3,22.793 253.604,23.712 255.444,29.844 255.748,30.455 257.131,35.207 257.744,37.2 259.89,44.094 260.653,46.7 
	260.653,46.855 261.422,49.304 261.576,49.612 261.576,49.918 261.726,50.073 262.953,54.363 264.18,58.195 265.557,57.428 
	266.324,57.123 267.093,56.815 268.625,56.049 268.779,55.895 269.388,55.587 271.532,54.518 271.691,54.518 271.996,54.363 
	273.219,53.75 273.678,53.597 273.988,53.443 275.523,52.524 275.828,52.371 276.287,54.056 276.287,54.363 276.592,55.742 
	277.205,59.113 278.586,61.26 279.195,62.18 280.118,63.864 281.496,65.857 281.496,66.012 281.496,66.315 281.496,66.47 
	281.496,69.381 281.34,73.365 281.34,73.52 281.496,73.826 281.648,73.979 281.959,74.285 282.109,74.285 284.408,76.43 
	283.949,77.351 283.641,78.116 282.877,79.497 282.877,79.651 282.568,80.262 282.418,82.255 286.399,87.007 286.708,87.313 
	286.708,88.079 287.016,88.844 287.016,90.531 287.322,91.297 287.936,91.91 289.158,92.217 289.771,92.217 290.54,92.831 
	291.303,94.055 291.612,94.363 291.917,94.821 292.375,96.353 293.145,97.121 296.516,97.886 296.207,98.653 295.289,100.339 
	293.758,102.79 293.758,103.097 292.835,104.477 291.612,106.622 290.54,108.309 289.622,109.839 289.158,110.605 289.312,112.601 
	289.312,112.905 289.312,113.209 289.467,114.133 289.467,114.746 288.854,115.973 287.781,117.809 286.553,116.582 
	283.949,113.978 283.336,113.209 283.187,112.905 281.805,111.374 280.731,111.374 279.81,110.914 279.504,110.76 277.973,108.919 
	277.359,108.767 277.205,109.073 275.978,109.381 275.523,108.46 273.988,108.309 273.832,109.073 273.374,108.767 272.76,108.919 
	270.924,110.456 270.77,111.063 270.311,111.678 269.542,112.291 269.083,112.446 269.238,111.523 268.928,111.374 268.625,111.374 
	268.315,111.678 268.166,112.291 267.701,113.06 267.552,113.209 266.479,113.827 266.324,113.827 265.865,114.437 265.711,114.591 
	265.252,113.978 264.793,114.286 264.334,114.746 264.18,115.664 263.566,115.819 264.18,116.891 264.03,117.041 264.484,117.659 
	263.721,118.881 263.262,119.037 263.107,119.955 263.87,120.872 264.334,121.49 264.793,123.017 264.484,123.171 264.18,123.326 
	263.87,123.326 262.953,123.785 262.494,125.012 263.107,126.239 262.803,126.849 261.88,127.312 261.116,127.466 259.432,128.075 
	258.972,128.229 255.141,129.611 254.521,129.761 253.604,130.071 250.689,131.144 246.554,132.52 245.328,132.983 244.41,133.289 
	241.651,134.361 240.274,134.82 237.211,135.738 237.211,135.893 235.674,136.197 232.152,137.579 229.389,138.497 228.167,138.806 
	227.244,139.111 213.3,144.014 209.01,145.545 202.266,147.69 193.072,150.759 187.554,152.599 170.542,158.421 169.93,158.726 
	167.938,159.339 162.112,141.869 161.653,140.337 161.504,140.183 157.208,127.771 157.059,127.157 154.45,119.341 152.923,115.05 
	152.764,114.591 151.846,111.523 151.386,110.301 151.076,109.532 150.928,109.226 149.241,104.169 144.642,90.376 141.429,81.028 
	140.965,79.651 140.811,79.037 140.661,78.423 138.361,71.527 137.438,68.769 135.448,62.485 134.375,59.267 131.616,50.377 
	140.811,46.855 143.878,45.935 152.459,43.024 164.871,38.731 165.639,38.425 170.233,36.893 185.868,31.531 189.24,30.303 
	190.312,29.997 191.69,29.537 194.144,28.617 198.28,27.39 199.048,27.085 200.884,26.472 205.638,24.786 207.783,24.172 
	208.087,24.02 208.242,23.868 208.856,23.559 209.773,23.254 212.532,22.027 215.142,20.955 215.446,20.8 215.75,20.647 
	216.208,20.495 "/>
<g id="4400001">
	<polygon fill="#666666" stroke="#FFFFFF" points="292.53,120.722 293.145,119.341 295.134,118.423 300.807,118.118 
		303.719,117.809 304.947,118.268 306.938,119.037 311.228,122.559 312.914,123.939 313.373,125.626 313.527,126.698 
		313.836,128.075 314.141,129.611 313.373,132.825 312.146,132.983 312.3,136.815 315.213,143.555 316.44,145.241 317.049,145.241 
		317.971,139.419 317.668,135.279 319.045,134.82 319.653,134.511 320.575,135.588 321.499,136.507 323.794,139.111 
		325.021,140.487 325.021,141.41 326.857,144.014 329.312,144.319 329.312,144.168 331.456,133.134 330.998,129.152 
		330.844,127.312 330.688,127.157 329.312,124.398 328.238,121.949 327.934,121.331 330.688,117.195 330.998,114.896 
		330.537,114.591 326.094,110.914 322.107,107.695 321.035,106.622 319.504,105.395 318.122,104.324 315.518,102.025 307.7,100.339 
		307.396,100.339 304.18,99.573 303.26,99.418 296.516,97.886 296.207,98.653 295.289,100.339 293.758,102.79 293.758,103.097 
		292.835,104.477 291.612,106.622 290.54,108.309 289.622,109.839 289.158,110.605 289.312,112.601 289.312,112.905 
		289.312,113.209 289.467,114.133 289.467,114.746 288.854,115.973 287.781,117.809 286.553,116.582 283.949,113.978 
		283.336,113.209 283.187,112.905 281.805,111.374 280.731,111.374 279.81,110.914 279.504,110.76 277.973,108.919 277.359,108.767 
		277.205,109.073 275.978,109.381 275.523,108.46 273.988,108.309 273.832,109.073 273.374,108.767 272.76,108.919 270.924,110.456 
		270.77,111.063 270.311,111.678 269.542,112.291 269.083,112.446 269.238,111.523 268.928,111.374 268.625,111.374 
		268.315,111.678 268.166,112.291 267.701,113.06 267.552,113.209 266.479,113.827 266.324,113.827 265.865,114.437 
		265.711,114.591 265.252,113.978 264.793,114.286 264.334,114.746 264.18,115.664 263.566,115.819 264.18,116.891 264.03,117.041 
		264.484,117.659 263.721,118.881 263.262,119.037 263.107,119.955 263.87,120.872 264.334,121.49 264.793,123.017 264.484,123.171 
		264.18,123.326 263.87,123.326 262.953,123.785 262.494,125.012 263.107,126.239 262.803,126.849 261.88,127.312 261.116,127.466 
		259.432,128.075 258.972,128.229 255.141,129.611 254.521,129.761 253.604,130.071 250.689,131.144 246.554,132.52 
		245.328,132.983 244.41,133.289 241.651,134.361 240.274,134.82 237.211,135.738 237.211,135.893 235.674,136.197 232.152,137.579 
		229.389,138.497 228.167,138.806 227.244,139.111 213.3,144.014 209.01,145.545 202.266,147.69 193.072,150.759 187.554,152.599 
		170.542,158.421 169.93,158.726 167.938,159.339 171.311,169.456 176.829,185.699 178.515,191.98 183.109,208.842 194.299,204.701 
		221.885,196.12 224.64,194.588 233.988,191.521 236.902,190.603 241.497,189.071 252.072,185.543 258.972,183.249 259.432,183.095 
		265.865,180.949 266.635,180.795 269.846,179.722 269.697,179.418 268.47,176.504 268.166,176.045 267.701,175.892 
		267.093,174.665 267.861,171.601 268.315,171.446 268.625,170.833 270.311,168.229 270.001,167.615 269.697,167.307 
		270.615,166.083 270.924,166.083 271.842,164.552 271.996,163.938 272.914,163.938 273.528,164.397 273.988,164.702 
		274.756,165.315 275.061,166.238 275.523,166.542 275.978,166.542 276.287,165.93 276.441,165.161 276.441,164.702 
		276.133,163.171 276.287,162.711 276.441,162.252 276.592,161.33 276.746,161.18 277.051,160.72 277.205,160.412 276.901,159.644 
		277.205,159.185 277.205,159.034 277.818,157.808 278.127,157.499 278.891,156.43 279.81,156.276 281.036,154.59 281.648,154.285 
		283.949,153.363 285.172,153.058 284.104,149.835 278.432,148.149 277.51,149.835 274.446,151.832 273.832,152.29 273.678,151.981 
		272.76,150.145 271.996,148.614 269.697,143.86 269.697,143.555 270.156,142.023 270.465,142.173 271.383,142.173 271.383,142.941 
		271.996,143.555 275.523,142.941 278.891,142.329 283.795,140.797 286.553,140.028 286.857,139.878 287.167,140.028 
		287.167,140.183 287.167,141.255 288.545,144.627 291.303,145.7 292.53,145.545 293.299,142.792 292.835,137.274 292.685,133.442 
		292.227,132.216 291.767,130.989 291.303,129.611 291.152,128.689 290.54,127.002 292.375,120.872 	"/>
	<polygon fill="#666666" stroke="#FFFFFF" points="383.104,178.65 377.74,166.083 376.514,163.171 371.914,152.29 371.76,151.676 
		369.001,148.917 368.696,148.768 368.542,148.614 367.779,148.149 367.475,147.386 366.247,144.014 365.783,141.869 
		365.479,140.951 366.397,138.806 365.17,133.593 363.482,126.698 363.333,126.239 362.719,126.239 362.564,126.239 
		359.348,126.389 356.744,126.543 354.289,126.698 349.998,127.002 349.998,126.849 349.695,125.78 348.008,125.78 346.937,125.78 
		344.941,125.93 344.328,126.084 344.023,126.084 343.563,126.084 343.259,131.602 343.259,132.216 343.104,137.274 
		342.949,140.337 342.49,140.487 333.756,144.319 332.07,145.086 331.303,146.624 330.08,148.917 329.925,149.072 329.77,149.376 
		328.238,152.14 327.934,152.599 327.625,154.744 328.852,156.122 329.467,158.421 329.467,159.034 329.615,159.339 
		329.615,161.793 329.615,165.161 329.77,165.93 329.77,171.905 329.312,173.746 327.934,174.968 326.857,178.959 326.553,180.182 
		326.553,180.64 326.553,181.254 326.398,183.095 326.248,185.854 327.012,190.911 325.783,193.975 323.794,198.725 
		323.948,199.034 325.171,202.864 326.398,203.938 327.934,203.938 328.542,204.855 329.77,206.847 331.147,208.687 
		331.303,208.992 331.915,210.678 332.07,211.291 332.833,213.281 332.225,213.899 328.238,218.035 327.934,218.035 
		327.012,218.189 324.865,218.34 324.408,218.953 323.025,220.485 321.499,222.021 321.499,222.171 321.649,224.012 
		321.953,224.167 323.484,225.084 326.094,226.615 330.229,226.156 334.061,222.171 334.674,222.021 336.664,221.711 
		337.129,222.939 337.587,223.094 339.119,221.104 338.66,215.89 338.506,212.213 338.35,211.137 338.201,209.299 338.201,208.687 
		338.66,208.228 340.496,206.541 340.655,206.387 341.264,206.236 345.404,204.551 345.555,204.551 345.709,204.551 
		345.709,204.396 346.322,204.241 350.153,204.241 352.604,205.469 352.758,206.236 353.525,209.146 353.676,208.992 
		354.902,207.46 354.902,204.396 355.057,203.938 354.902,203.474 354.443,202.71 353.984,202.71 352.912,200.106 351.84,197.652 
		351.84,197.193 352.148,192.29 352.299,191.372 352.453,188.458 352.148,185.699 349.695,184.625 348.621,183.554 346.781,177.118 
		344.791,170.374 344.177,168.533 341.572,165.625 340.655,164.397 340.496,164.243 338.047,154.436 337.892,153.363 
		337.434,151.676 337.892,151.372 338.201,151.063 340.496,149.376 342.949,147.69 343.563,147.231 343.719,147.082 345.25,147.69 
		345.555,148.917 345.709,149.531 346.627,152.749 349.08,155.972 349.998,159.034 350.613,161.18 352.453,167.465 354.135,177.578 
		354.289,177.881 361.494,188.612 361.797,195.048 363.643,195.661 364.098,195.811 364.71,197.347 368.237,199.337 
		369.001,201.638 368.696,207.46 369.156,208.842 369.924,209.609 370.538,209.76 376.36,205.469 376.36,202.251 382.336,194.284 
		381.572,192.748 382.336,190.757 382.948,190.454 386.63,187.999 	"/>
	<polygon fill="#666666" stroke="#FFFFFF" points="314.904,153.976 310.005,154.436 305.555,152.904 305.25,150.913 
		306.629,149.835 306.629,149.072 304.637,145.086 301.265,144.014 299.889,144.782 296.516,146.624 298.662,150.145 
		301.115,152.14 305.555,156.122 309.696,155.972 312.609,157.349 313.218,160.567 313.218,163.475 312.455,165.161 
		312.914,169.761 314.29,172.978 316.286,174.819 317.971,174.968 319.809,172.519 320.881,165.78 321.035,162.099 318.585,156.122 
			"/>
	<polygon fill="#666666" stroke="#FFFFFF" points="318.736,212.821 317.668,210.526 316.44,207.924 315.213,203.014 
		310.922,186.621 308.16,181.254 305.864,180.64 305.405,180.949 304.947,181.254 304.023,183.859 303.869,188.612 304.947,196.734 
		305.555,201.788 307.092,205.469 311.533,208.073 311.686,208.228 311.072,212.213 310.922,213.44 308.314,214.664 
		310.769,227.079 312.455,231.829 314.445,228.456 313.986,226.312 315.213,224.167 314.754,220.181 319.653,214.967 	"/>
</g>
<polyline id="4477200" fill="#666666" stroke="#FFFFFF" points="183.109,208.842 194.299,204.701 221.885,196.12 
	224.64,194.588 233.988,191.521 236.902,190.603 241.497,189.071 252.072,185.543 258.972,183.249 259.432,183.095 265.865,180.949 
	266.635,180.795 269.846,179.722 269.697,179.418 268.47,176.504 268.166,176.045 267.701,175.892 267.093,174.665 267.861,171.601 
	268.315,171.446 268.625,170.833 270.311,168.229 270.001,167.615 269.697,167.307 270.615,166.083 270.924,166.083 
	271.842,164.552 271.996,163.938 272.914,163.938 273.528,164.397 273.988,164.702 274.756,165.315 275.061,166.238 
	275.523,166.542 275.978,166.542 276.287,165.93 276.441,165.161 276.441,164.702 276.133,163.171 276.287,162.711 276.441,162.252 
	276.592,161.33 276.746,161.18 277.051,160.72 277.205,160.412 276.901,159.644 277.205,159.185 277.205,159.034 277.818,157.808 
	278.127,157.499 278.891,156.43 279.81,156.276 281.036,154.59 281.648,154.285 283.949,153.363 285.172,153.058 288.084,160.567 
	289.771,165.161 294.371,177.732 287.167,182.327 282.877,185.086 283.641,186.312 284.867,188.304 286.249,190.603 
	287.936,192.134 292.835,196.734 295.443,199.184 297.13,200.106 298.048,201.946 299.275,204.396 300.038,207 300.193,212.059 
	300.193,214.358 301.265,216.808 302.184,219.107 302.342,219.721 303.26,220.485 303.869,222.021 304.18,224.167 304.023,224.774 
	303.719,225.543 303.719,225.395 302.951,224.625 302.797,224.625 300.961,226.156 301.42,227.997 303.105,230.143 303.565,232.287 
	303.26,236.27 302.492,238.109 301.574,238.264 301.42,238.264 299.58,240.101 298.512,242.555 298.202,242.864 298.352,243.322 
	299.12,245.313 300.038,248.226 301.42,252.362 301.42,252.517 301.265,252.976 300.961,253.898 300.807,254.815 299.12,260.179 
	298.352,262.783 297.742,269.068 296.975,269.225 288.698,270.601 285.789,270.909 284.713,271.06 282.877,271.828 282.723,271.977 
	279.355,273.664 276.901,274.741 272.146,277.649 267.242,280.562 264.947,281.786 258.508,285.771 258.203,286.075 255.444,288.07 
	254.832,288.685 242.419,298.338 239.815,301.25 239.196,301.864 234.298,305.541 231.843,306.613 222.34,310.443 219.582,311.671 
	216.208,313.663 209.314,318.106 207.479,319.18 203.647,321.784 197.976,327.456 195.985,326.538 195.372,323.778 195.521,322.243 
	195.521,321.325 197.976,317.648 198.13,317.344 199.662,314.891 201.038,311.671 201.038,310.291 200.121,307.536 199.662,305.85 
	198.738,303.242 198.589,302.781 198.434,302.169 198.28,301.864 198.28,301.56 197.976,300.637 197.821,300.179 196.903,298.033 
	196.748,297.729 196.748,297.569 196.444,296.96 196.29,296.501 196.134,296.192 195.83,295.424 195.83,295.274 195.676,294.965 
	195.521,294.814 193.53,293.129 193.53,292.974 192.303,291.901 192.154,291.901 192,291.747 191.844,291.594 191.844,291.442 
	191.844,291.289 190.312,287.612 190.158,287.457 190.158,286.844 190.158,286.694 190.008,285.925 190.617,284.853 
	194.908,280.866 195.83,280.1 197.976,279.794 202.111,279.335 201.807,278.264 201.652,277.495 201.038,275.659 199.966,271.518 
	199.352,269.225 197.671,262.938 197.208,260.942 193.376,247.153 192.762,244.549 190.468,236.27 188.472,228.915 185.713,218.648 
	183.109,208.842 "/>
</svg>
