<?xml version="1.0" encoding="utf-8"?>
<!-- Generator: Adobe Illustrator 13.0.2, SVG Export Plug-In . SVG Version: 6.00 Build 14948)  -->
<!DOCTYPE svg PUBLIC "-//W3C//DTD SVG 1.1//EN" "http://www.w3.org/Graphics/SVG/1.1/DTD/svg11.dtd">
<svg version="1.1" id="Layer_1" xmlns="http://www.w3.org/2000/svg" xmlns:xlink="http://www.w3.org/1999/xlink" x="0px" y="0px"
	 width="500px" height="400px" viewBox="-27.899 -4.893 500 400" enable-background="new -27.899 -4.893 500 400"
	 xml:space="preserve">
<polyline id="0972850" fill="#666666" stroke="#FFFFFF" stroke-width="0.75"  points="103.084,181.475 103.554,181.57 104.405,181.193 
	105.158,181.193 105.252,181.57 105.444,181.758 107.139,182.419 107.612,181.666 107.895,181.666 108.46,182.796 108.933,183.361 
	110.35,184.497 109.311,185.251 109.216,185.347 108.84,186.003 108.746,186.103 108.746,186.667 108.84,186.855 108.65,187.328 
	108.84,187.61 111.766,191.856 114.69,195.823 116.106,197.8 122.523,206.955 122.998,207.993 124.127,209.696 125.731,211.864 
	126.013,212.337 126.959,214.315 127.052,215.641 128.373,218.659 128.751,219.697 129.036,219.32 129.128,219.133 130.167,217.524 
	131.018,216.96 132.243,215.922 132.809,215.354 134.508,213.468 135.641,212.431 135.829,212.242 136.866,211.298 137.34,211.769 
	137.436,212.055 137.153,212.711 137.153,213.375 137.436,213.562 138.473,213.75 139.131,213.941 139.699,214.507 140.643,216.865 
	143.192,217.338 144.04,217.713 145.643,217.808 145.926,217.808 146.305,218.094 148.476,218.094 149.606,218.565 150.644,219.034 
	153.287,218.847 153.573,218.377 154.424,217.524 154.798,217.338 155.176,217.431 155.554,217.622 155.836,218.094 
	156.027,218.751 156.215,221.02 156.592,221.774 156.97,222.432 157.631,222.718 158.006,222.718 158.387,222.339 158.856,221.68 
	159.612,221.111 160.459,220.641 161.311,220.641 162.159,221.301 162.915,222.244 163.763,223.752 163.763,223.852 
	164.235,224.227 165.274,224.227 165.464,224.039 166.03,223.097 166.5,222.527 166.786,222.339 166.973,222.149 167.16,221.962 
	167.351,222.057 167.916,222.718 168.388,224.227 169.332,224.886 169.615,224.791 169.802,224.791 170.653,223.752 
	171.125,223.471 171.125,223.283 172.729,223.187 174.333,224.415 175.184,224.698 176.597,225.547 177.069,226.021 
	177.448,226.302 178.957,226.211 179.807,226.493 180.185,226.963 180.376,227.906 180.185,228.662 180.185,229.04 180.277,229.228 
	181.506,230.361 183.675,231.681 183.958,231.777 184.147,231.777 185.095,231.493 185.942,231.116 186.507,231.021 
	186.603,231.213 186.698,232.155 187.073,232.532 187.263,232.625 188.771,233.853 189.527,234.229 191.416,235.363 
	192.173,237.062 192.738,237.626 194.811,238.194 195.189,238.477 195.471,238.759 195.754,239.328 197.643,241.119 
	201.702,242.439 202.928,243.008 204.061,243.855 205.003,243.951 205.665,244.139 206.137,244.986 206.703,245.368 208.306,246.12 
	208.78,246.405 209.062,246.779 209.252,247.632 209.062,248.952 208.688,249.612 208.023,250.178 207.175,251.217 206.703,252.915 
	206.703,254.236 207.268,255.748 207.646,256.973 208.215,258.203 208.023,260.37 207.646,260.938 206.515,262.635 206.23,263.485 
	205.855,265.467 205.855,265.938 206.042,266.506 206.893,268.016 206.893,269.147 207.175,270.468 207.646,271.226 207.74,272.449 
	207.268,274.622 206.703,276.131 207.268,278.207 207.837,278.868 209.536,279.436 210.383,279.904 210.479,280.474 
	210.666,282.169 210.856,282.833 211.421,283.491 211.14,284.342 210.761,284.53 208.023,286.323 206.607,286.132 201.137,285.284 
	199.908,285.096 199.529,284.06 198.777,284.06 198.398,283.965 198.113,283.965 197.643,284.436 196.983,285.002 194.341,287.362 
	191.886,290.76 190.848,292.27 190.848,292.363 190.753,292.363 189.527,292.363 189.432,292.74 189.149,293.874 188.676,296.327 
	188.394,297.272 186.507,300.197 185.751,300.006 181.506,298.967 181.412,298.876 179.807,299.913 179.62,300.288 179.524,300.384 
	179.524,300.479 177.73,303.028 176.505,304.066 174.806,305.479 172.069,306.896 171.974,306.896 168.105,308.877 167.823,309.067 
	166.407,311.803 165.369,313.974 165.083,314.161 164.047,314.73 163.86,315.107 162.537,318.504 161.972,319.449 161.875,319.732 
	161.688,320.2 159.799,323.599 157.723,324.167 157.536,324.167 157.062,324.264 156.592,324.732 155.364,325.675 154.798,326.148 
	154.233,326.623 153.668,330.771 151.023,329.17 149.984,328.601 149.705,328.885 146.59,331.998 146.4,332.093 146.495,332.188 
	147.06,334.266 147.06,334.356 146.777,337.098 145.834,338.134 145.078,336.906 144.795,335.208 144.135,334.639 143.662,334.639 
	143.567,334.739 143.475,334.927 143.002,335.396 141.208,337.38 141.115,337.566 139.887,339.646 139.604,340.397 139.322,341.437 
	139.511,343.703 137.057,344.646 136.301,342.663 136.206,342.382 133.942,341.626 132.527,342.286 129.789,344.458 
	126.582,347.192 126.299,347.383 126.299,347.475 125.447,349.459 124.975,352.102 124.882,352.102 124.41,351.629 124.127,350.215 
	124.127,350.024 124.032,349.741 123.654,348.795 123.654,347.949 123.753,347.855 123.753,347.57 123.753,346.627 123.753,346.152 
	123.654,345.778 123.654,345.683 123.562,345.496 123.467,345.401 122.523,344.646 122.146,344.362 121.581,343.89 120.638,343.042 
	119.599,342.004 119.504,341.906 119.222,341.718 118.279,340.869 117.049,339.739 116.576,339.268 116.294,338.983 
	115.163,337.945 114.69,337.472 113.369,336.246 110.162,333.227 107.99,331.151 107.33,330.585 105.914,329.451 104.498,327.942 
	109.216,322.845 111.105,320.675 112.991,318.599 113.179,318.41 114.408,317.089 117.427,313.691 118.279,312.749 118.561,312.466 
	121.203,309.725 123.753,306.992 124.317,306.329 125.356,305.197 126.391,304.066 128.471,301.801 129.884,300.288 131.205,298.78 
	132.717,297.177 134.508,295.197 135.924,293.684 136.114,293.399 136.679,292.836 137.436,291.985 137.719,291.607 
	138.661,290.664 140.169,289.06 140.547,288.587 137.908,286.132 136.206,284.53 135.359,283.773 134.32,282.833 131.488,280.093 
	131.205,279.904 129.411,278.303 129.128,278.017 126.677,275.757 125.447,274.718 123.467,272.922 123.28,272.734 122.71,272.263 
	122.523,270.655 122.428,270.374 122.333,269.714 122.241,269.242 122.146,268.771 121.581,267.259 121.485,266.977 
	121.013,264.712 120.825,263.861 120.542,262.539 119.034,254.896 118.561,252.348 117.804,249.235 117.804,249.14 117.804,249.048 
	116.955,245.271 115.633,238.381 115.537,237.909 115.351,237.252 115.255,236.587 114.69,234.137 114.595,233.662 114.503,233.19 
	114.408,233.003 114.408,232.72 113.56,229.228 113.369,228.098 113.274,228.002 113.274,227.906 113.179,227.623 113.179,227.341 
	113.179,227.149 112.048,222.432 112.048,222.339 110.914,217.242 110.537,215.641 109.028,208.184 108.273,204.69 106.008,193.747 
	105.817,192.894 104.498,187.706 104.31,186.951 103.084,181.475 "/>
<polyline id="0971950" fill="#666666" stroke="#FFFFFF" stroke-width="0.75"  points="103.084,181.475 103.554,181.57 104.405,181.193 
	105.158,181.193 105.252,181.57 105.444,181.758 107.139,182.419 107.612,181.666 107.895,181.666 108.46,182.796 108.933,183.361 
	110.35,184.497 109.311,185.251 109.216,185.347 108.84,186.003 108.746,186.103 108.746,186.667 108.84,186.855 108.65,187.328 
	108.84,187.61 111.766,191.856 114.69,195.823 116.106,197.8 122.523,206.955 122.998,207.993 124.127,209.696 125.731,211.864 
	126.013,212.337 126.959,214.315 127.052,215.641 128.373,218.659 128.751,219.697 129.036,219.32 129.128,219.133 130.167,217.524 
	131.018,216.96 132.243,215.922 132.809,215.354 134.508,213.468 135.641,212.431 135.829,212.242 136.866,211.298 137.34,211.769 
	137.436,212.055 137.153,212.711 137.153,213.375 137.436,213.562 138.473,213.75 139.131,213.941 139.699,214.507 140.643,216.865 
	143.192,217.338 144.04,217.713 145.643,217.808 145.926,217.808 146.305,218.094 148.476,218.094 149.606,218.565 150.644,219.034 
	153.287,218.847 153.573,218.377 154.424,217.524 154.798,217.338 155.176,217.431 155.554,217.622 155.836,218.094 
	156.027,218.751 156.215,221.02 156.592,221.774 156.97,222.432 157.631,222.718 158.006,222.718 158.387,222.339 158.856,221.68 
	159.612,221.111 160.459,220.641 161.311,220.641 162.159,221.301 162.915,222.244 163.763,223.752 163.763,223.852 
	164.235,224.227 165.274,224.227 165.464,224.039 166.03,223.097 166.5,222.527 166.786,222.339 166.973,222.149 167.16,221.962 
	167.351,222.057 167.916,222.718 168.388,224.227 169.332,224.886 169.615,224.791 169.802,224.791 170.653,223.752 
	171.125,223.471 171.125,223.283 172.729,223.187 174.333,224.415 175.184,224.698 176.597,225.547 177.069,226.021 
	177.448,226.302 178.957,226.211 179.807,226.493 180.185,226.963 180.376,227.906 180.185,228.662 180.185,229.04 180.277,229.228 
	181.506,230.361 183.675,231.681 183.958,231.777 184.147,231.777 185.095,231.493 185.942,231.116 186.507,231.021 
	186.603,231.213 186.698,232.155 187.073,232.532 187.263,232.625 188.771,233.853 189.527,234.229 191.416,235.363 
	192.173,237.062 192.738,237.626 194.811,238.194 195.189,238.477 195.471,238.759 195.754,239.328 197.643,241.119 
	201.702,242.439 202.928,243.008 204.061,243.855 205.003,243.951 205.665,244.139 206.137,244.986 206.703,245.368 208.306,246.12 
	208.78,246.405 209.062,246.779 209.252,247.632 209.062,248.952 208.688,249.612 208.023,250.178 207.175,251.217 206.703,252.915 
	206.703,254.236 207.268,255.748 207.646,256.973 208.215,258.203 208.023,260.37 207.646,260.938 206.515,262.635 206.23,263.485 
	205.855,265.467 205.855,265.938 206.042,266.506 206.893,268.016 206.893,269.147 207.175,270.468 207.646,271.226 207.74,272.449 
	207.268,274.622 206.703,276.131 207.268,278.207 207.837,278.868 209.536,279.436 210.383,279.904 210.479,280.474 
	210.666,282.169 210.856,282.833 211.421,283.491 211.14,284.342 210.761,284.53 208.023,286.323 206.607,286.132 201.137,285.284 
	199.908,285.096 199.529,284.06 198.777,284.06 198.398,283.965 198.113,283.965 197.643,284.436 196.983,285.002 194.341,287.362 
	191.886,290.76 190.848,292.27 190.848,292.363 190.753,292.363 189.527,292.363 189.432,292.74 189.149,293.874 188.676,296.327 
	188.394,297.272 186.507,300.197 185.751,300.006 181.506,298.967 181.412,298.876 179.807,299.913 179.62,300.288 179.524,300.384 
	179.524,300.479 177.73,303.028 176.505,304.066 174.806,305.479 172.069,306.896 171.974,306.896 168.105,308.877 167.823,309.067 
	166.407,311.803 165.369,313.974 165.083,314.161 164.047,314.73 163.86,315.107 162.537,318.504 161.972,319.449 161.875,319.732 
	161.688,320.2 159.799,323.599 157.723,324.167 157.536,324.167 157.062,324.264 156.592,324.732 155.364,325.675 154.798,326.148 
	154.233,326.623 153.668,330.771 151.023,329.17 149.984,328.601 149.705,328.885 146.59,331.998 146.4,332.093 146.495,332.188 
	147.06,334.266 147.06,334.356 146.777,337.098 145.834,338.134 145.078,336.906 144.795,335.208 144.135,334.639 143.662,334.639 
	143.567,334.739 143.475,334.927 143.002,335.396 141.208,337.38 141.115,337.566 139.887,339.646 139.604,340.397 139.322,341.437 
	139.511,343.703 137.057,344.646 136.301,342.663 136.206,342.382 133.942,341.626 132.527,342.286 129.789,344.458 
	126.582,347.192 126.299,347.383 126.299,347.475 125.447,349.459 124.975,352.102 124.882,352.102 124.41,351.629 124.127,350.215 
	124.127,350.024 124.032,349.741 123.654,348.795 123.654,347.949 123.753,347.855 123.753,347.57 123.753,346.627 123.753,346.152 
	123.654,345.778 123.654,345.683 123.562,345.496 123.467,345.401 122.523,344.646 122.146,344.362 121.581,343.89 120.638,343.042 
	119.599,342.004 119.504,341.906 119.222,341.718 118.279,340.869 117.049,339.739 116.576,339.268 116.294,338.983 
	115.163,337.945 114.69,337.472 113.369,336.246 110.162,333.227 107.99,331.151 107.33,330.585 105.914,329.451 104.498,327.942 
	109.216,322.845 111.105,320.675 112.991,318.599 113.179,318.41 114.408,317.089 117.427,313.691 118.279,312.749 118.561,312.466 
	121.203,309.725 123.753,306.992 124.317,306.329 125.356,305.197 126.391,304.066 128.471,301.801 129.884,300.288 131.205,298.78 
	132.717,297.177 134.508,295.197 135.924,293.684 136.114,293.399 136.679,292.836 137.436,291.985 137.719,291.607 
	138.661,290.664 140.169,289.06 140.547,288.587 137.908,286.132 136.206,284.53 135.359,283.773 134.32,282.833 131.488,280.093 
	131.205,279.904 129.411,278.303 129.128,278.017 126.677,275.757 125.447,274.718 123.467,272.922 123.28,272.734 122.71,272.263 
	122.523,270.655 122.428,270.374 122.333,269.714 122.241,269.242 122.146,268.771 121.581,267.259 121.485,266.977 
	121.013,264.712 120.825,263.861 120.542,262.539 119.034,254.896 118.561,252.348 117.804,249.235 117.804,249.14 117.804,249.048 
	116.955,245.271 115.633,238.381 115.537,237.909 115.351,237.252 115.255,236.587 114.69,234.137 114.595,233.662 114.503,233.19 
	114.408,233.003 114.408,232.72 113.56,229.228 113.369,228.098 113.274,228.002 113.274,227.906 113.179,227.623 113.179,227.341 
	113.179,227.149 112.048,222.432 112.048,222.339 110.914,217.242 110.537,215.641 109.028,208.184 108.273,204.69 106.008,193.747 
	105.817,192.894 104.498,187.706 104.31,186.951 103.084,181.475 "/>
<polygon id="0973450" fill="#666666" stroke="#FFFFFF" stroke-width="0.75"  points="337.502,90.03 335.048,83.612 330.329,71.06 329.482,71.249 
	324.008,72.854 320.893,73.797 318.346,64.926 317.686,62.378 317.494,62.001 317.117,60.301 316.552,58.51 315.795,55.962 
	315.136,53.791 313.248,48.034 312.21,44.354 315.892,42.938 320.61,41.521 320.704,41.521 323.63,40.673 327.971,39.446 
	332.879,37.937 332.312,36.238 327.311,21.421 321.27,22.836 320.046,23.213 318.723,23.591 310.229,26.045 309.286,26.329 
	309.095,26.329 302.679,28.121 301.265,28.593 297.489,29.631 294.374,30.576 292.016,31.237 289.374,32.084 288.617,32.272 
	288.522,32.272 285.977,33.028 280.501,34.539 275.123,35.956 273.329,36.52 267.384,38.126 265.876,38.597 264.646,38.88 
	264.46,38.974 264.363,38.974 264.081,39.067 263.8,39.162 262.478,39.539 260.685,40.014 255.399,41.617 254.927,41.71 
	253.229,42.277 253.133,42.277 252.759,42.373 252.096,42.56 251.625,42.749 251.529,42.844 247.944,44.354 246.527,45.015 
	246.437,45.015 244.451,45.863 244.265,46.24 243.226,47.657 241.997,48.034 241.904,48.129 238.885,48.884 238.317,47.562 
	236.713,47.938 231.994,48.978 226.616,49.922 224.161,50.393 223.123,50.582 223.03,50.582 222.462,50.676 222.18,50.771 
	221.993,50.866 221.897,50.866 219.537,51.621 219.254,51.715 219.159,51.715 218.404,51.997 212.742,53.695 211.986,53.98 
	211.895,54.734 212.65,54.829 213.12,55.207 213.025,56.434 212.742,57.66 212.65,57.754 212.176,57.66 211.895,57.754 
	211.986,58.226 212.081,58.321 212.269,58.51 212.65,58.699 212.555,59.359 212.269,59.925 212.555,60.68 212.176,61.341 
	212.176,61.435 212.364,62.473 211.799,62.754 211.046,63.04 209.536,63.793 207.646,64.644 203.969,66.342 201.797,56.904 
	198.021,57.943 197.739,57.943 195.849,58.51 192.83,59.17 182.261,62.189 176.879,63.699 172.542,64.926 171.504,65.21 
	168.954,65.965 167.351,66.342 167.255,66.342 167.916,76.25 168.67,84.744 173.485,82.763 173.864,82.763 173.955,82.668 
	180.941,80.121 181.033,80.121 181.693,79.836 181.789,79.836 193.302,75.874 193.395,79.743 193.395,82.292 193.585,89.085 
	193.68,95.599 189.341,97.202 189.527,100.504 189.813,102.581 189.813,103.241 189.906,107.772 190.283,109.093 190.848,109.941 
	191.131,110.414 192.546,109.849 193.868,110.132 193.963,110.224 193.963,110.318 193.963,111.641 193.963,112.583 
	193.963,113.151 193.963,113.621 193.963,113.812 194.058,117.114 194.058,117.583 194.058,118.908 188.02,121.832 185.564,123.059 
	182.735,124.379 186.317,132.121 187.828,135.423 189.714,139.199 191.699,143.537 191.886,144.01 194.341,149.01 195.471,151.466 
	196.509,153.825 196.605,154.012 197.456,155.901 198.304,157.791 199.72,160.62 201.419,159.959 203.022,159.205 204.626,158.448 
	205.286,158.165 207.268,157.222 209.723,163.262 210.291,164.678 210.761,166 211.516,173.268 211.704,174.962 211.986,177.796 
	211.986,178.551 219.254,175.154 222.558,173.643 223.408,173.551 223.595,173.832 224.065,174.02 225.295,175.154 225.767,175.154 
	226.425,176.379 227.464,176.379 228.032,176.379 229.258,176.284 230.957,176.097 230.108,174.115 228.597,170.908 229.92,170.057 
	231.713,169.114 232.09,169.114 232.28,171.19 232.846,170.527 232.937,170.718 233.411,172.512 234.354,172.699 234.731,172.512 
	235.771,170.153 235.958,170.153 236.336,168.832 236.617,167.13 240.11,165.338 242.092,164.396 244.83,163.167 243.79,159.959 
	245.395,158.921 247.284,158.074 247.188,156.562 247.944,155.997 248.131,155.901 249.736,155.146 249.36,154.203 249.36,151.748 
	248.696,150.995 248.228,150.806 248.131,150.614 248.039,150.24 248.131,149.483 252.376,147.315 254.549,146.183 259.08,143.822 
	261.532,142.597 262.1,142.215 262.478,142.027 262.569,143.822 262.853,143.635 271.725,139.573 274.558,138.252 274.558,138.161 
	277.107,137.027 278.803,136.271 279.086,136.084 280.88,135.137 283.616,133.912 290.599,141.933 290.695,142.027 292.866,144.67 
	295.035,147.03 303.246,142.784 303.339,142.027 303.624,139.764 303.908,139.669 304.378,140.142 305.038,140.52 305.889,140.803 
	307.21,141.085 309.095,141.463 309.095,140.708 309.286,139.669 309.757,139.387 309.757,137.969 310.037,137.969 310.702,138.252 
	311.929,137.592 313.531,137.879 314.004,137.404 314.191,137.31 315.703,136.744 317.969,134.48 317.686,131.174 315.985,128.814 
	314.288,125.891 314.101,125.7 314.383,125.513 314.57,125.417 318.818,121.645 319.949,119.661 320.232,119.003 320.423,118.719 
	320.988,117.774 321.933,115.981 323.819,115.699 323.724,115.511 323.724,115.037 323.63,114.285 323.251,113.339 322.214,111.925 
	321.27,111.357 321.178,110.792 321.27,110.697 322.121,110.697 322.686,110.888 322.97,110.604 323.251,109.471 323.065,108.716 
	324.572,107.489 324.951,105.978 324.763,105.6 325.328,104.185 325.801,103.902 325.801,103.81 324.667,103.337 323.912,102.108 
	323.724,102.015 322.874,102.108 322.5,101.166 322.686,101.166 323.251,100.977 323.819,100.788 326.932,99.844 328.913,99.279 
	330.142,98.9 332.123,98.333 332.028,97.579 332.407,97.675 332.975,97.484 333.066,97.108 332.975,96.823 332.5,96.447 
	332.219,96.541 332.028,96.351 331.842,96.069 331.745,95.692 331.745,94.464 331.842,94.088 332.312,93.333 332.312,92.956 
	332.028,92.579 332.594,92.011 332.028,91.633 331.935,91.444 332.123,91.255 332.879,90.784 333.73,90.784 333.918,91.067 
	333.822,91.351 334.295,91.633 334.295,91.822 334.388,92.011 334.671,91.822 334.579,91.633 334.671,91.54 334.952,91.917 
	335.333,92.105 335.521,91.162 336.37,91.351 336.746,91.162 337.502,90.502 337.692,90.03 "/>
<polygon id="0978100" fill="#666666" stroke="#FFFFFF" stroke-width="0.75"  points="337.502,90.03 335.048,83.612 330.329,71.06 329.482,71.249 
	324.008,72.854 320.893,73.797 318.346,64.926 317.686,62.378 317.494,62.001 317.117,60.301 316.552,58.51 315.795,55.962 
	315.136,53.791 313.248,48.034 312.21,44.354 315.892,42.938 320.61,41.521 320.704,41.521 323.63,40.673 327.971,39.446 
	332.879,37.937 332.312,36.238 327.311,21.421 321.27,22.836 320.046,23.213 318.723,23.591 310.229,26.045 309.286,26.329 
	309.095,26.329 302.679,28.121 301.265,28.593 297.489,29.631 294.374,30.576 292.016,31.237 289.374,32.084 288.617,32.272 
	288.522,32.272 285.977,33.028 280.501,34.539 275.123,35.956 273.329,36.52 267.384,38.126 265.876,38.597 264.646,38.88 
	264.46,38.974 264.363,38.974 264.081,39.067 263.8,39.162 262.478,39.539 260.685,40.014 255.399,41.617 254.927,41.71 
	253.229,42.277 253.133,42.277 252.759,42.373 252.096,42.56 251.625,42.749 251.529,42.844 247.944,44.354 246.527,45.015 
	246.437,45.015 244.451,45.863 244.265,46.24 243.226,47.657 241.997,48.034 241.904,48.129 238.885,48.884 238.317,47.562 
	236.713,47.938 231.994,48.978 226.616,49.922 224.161,50.393 223.123,50.582 223.03,50.582 222.462,50.676 222.18,50.771 
	221.993,50.866 221.897,50.866 219.537,51.621 219.254,51.715 219.159,51.715 218.404,51.997 212.742,53.695 211.986,53.98 
	211.895,54.734 212.65,54.829 213.12,55.207 213.025,56.434 212.742,57.66 212.65,57.754 212.176,57.66 211.895,57.754 
	211.986,58.226 212.081,58.321 212.269,58.51 212.65,58.699 212.555,59.359 212.269,59.925 212.555,60.68 212.176,61.341 
	212.176,61.435 212.364,62.473 211.799,62.754 211.046,63.04 209.536,63.793 207.646,64.644 203.969,66.342 201.797,56.904 
	198.021,57.943 197.739,57.943 195.849,58.51 192.83,59.17 182.261,62.189 176.879,63.699 172.542,64.926 171.504,65.21 
	168.954,65.965 167.351,66.342 167.255,66.342 167.916,76.25 168.67,84.744 173.485,82.763 173.864,82.763 173.955,82.668 
	180.941,80.121 181.033,80.121 181.693,79.836 181.789,79.836 193.302,75.874 193.395,79.743 193.395,82.292 193.585,89.085 
	193.68,95.599 189.341,97.202 189.527,100.504 189.813,102.581 189.813,103.241 189.906,107.772 190.283,109.093 190.848,109.941 
	191.131,110.414 192.546,109.849 193.868,110.132 193.963,110.224 193.963,110.318 193.963,111.641 193.963,112.583 
	193.963,113.151 193.963,113.621 193.963,113.812 194.058,117.114 194.058,117.583 194.058,118.908 188.02,121.832 185.564,123.059 
	182.735,124.379 186.317,132.121 187.828,135.423 189.714,139.199 191.699,143.537 191.886,144.01 194.341,149.01 195.471,151.466 
	196.509,153.825 196.605,154.012 197.456,155.901 198.304,157.791 199.72,160.62 201.419,159.959 203.022,159.205 204.626,158.448 
	205.286,158.165 207.268,157.222 209.723,163.262 210.291,164.678 210.761,166 211.516,173.268 211.704,174.962 211.986,177.796 
	211.986,178.551 219.254,175.154 222.558,173.643 223.408,173.551 223.595,173.832 224.065,174.02 225.295,175.154 225.767,175.154 
	226.425,176.379 227.464,176.379 228.032,176.379 229.258,176.284 230.957,176.097 230.108,174.115 228.597,170.908 229.92,170.057 
	231.713,169.114 232.09,169.114 232.28,171.19 232.846,170.527 232.937,170.718 233.411,172.512 234.354,172.699 234.731,172.512 
	235.771,170.153 235.958,170.153 236.336,168.832 236.617,167.13 240.11,165.338 242.092,164.396 244.83,163.167 243.79,159.959 
	245.395,158.921 247.284,158.074 247.188,156.562 247.944,155.997 248.131,155.901 249.736,155.146 249.36,154.203 249.36,151.748 
	248.696,150.995 248.228,150.806 248.131,150.614 248.039,150.24 248.131,149.483 252.376,147.315 254.549,146.183 259.08,143.822 
	261.532,142.597 262.1,142.215 262.478,142.027 262.569,143.822 262.853,143.635 271.725,139.573 274.558,138.252 274.558,138.161 
	277.107,137.027 278.803,136.271 279.086,136.084 280.88,135.137 283.616,133.912 290.599,141.933 290.695,142.027 292.866,144.67 
	295.035,147.03 303.246,142.784 303.339,142.027 303.624,139.764 303.908,139.669 304.378,140.142 305.038,140.52 305.889,140.803 
	307.21,141.085 309.095,141.463 309.095,140.708 309.286,139.669 309.757,139.387 309.757,137.969 310.037,137.969 310.702,138.252 
	311.929,137.592 313.531,137.879 314.004,137.404 314.191,137.31 315.703,136.744 317.969,134.48 317.686,131.174 315.985,128.814 
	314.288,125.891 314.101,125.7 314.383,125.513 314.57,125.417 318.818,121.645 319.949,119.661 320.232,119.003 320.423,118.719 
	320.988,117.774 321.933,115.981 323.819,115.699 323.724,115.511 323.724,115.037 323.63,114.285 323.251,113.339 322.214,111.925 
	321.27,111.357 321.178,110.792 321.27,110.697 322.121,110.697 322.686,110.888 322.97,110.604 323.251,109.471 323.065,108.716 
	324.572,107.489 324.951,105.978 324.763,105.6 325.328,104.185 325.801,103.902 325.801,103.81 324.667,103.337 323.912,102.108 
	323.724,102.015 322.874,102.108 322.5,101.166 322.686,101.166 323.251,100.977 323.819,100.788 326.932,99.844 328.913,99.279 
	330.142,98.9 332.123,98.333 332.028,97.579 332.407,97.675 332.975,97.484 333.066,97.108 332.975,96.823 332.5,96.447 
	332.219,96.541 332.028,96.351 331.842,96.069 331.745,95.692 331.745,94.464 331.842,94.088 332.312,93.333 332.312,92.956 
	332.028,92.579 332.594,92.011 332.028,91.633 331.935,91.444 332.123,91.255 332.879,90.784 333.73,90.784 333.918,91.067 
	333.822,91.351 334.295,91.633 334.295,91.822 334.388,92.011 334.671,91.822 334.579,91.633 334.671,91.54 334.952,91.917 
	335.333,92.105 335.521,91.162 336.37,91.351 336.746,91.162 337.502,90.502 337.692,90.03 "/>
<polygon id="0975700" fill="#666666" stroke="#FFFFFF" stroke-width="0.75"  points="337.784,214.033 338.919,212.994 338.542,212.431 
	338.163,211.581 336.276,209.596 336.181,209.315 335.333,206.012 335.048,203.938 334.767,203.37 334.388,202.805 332.028,200.729 
	330.99,200.068 329.482,199.594 328.066,199.219 327.688,199.029 327.405,198.747 327.218,198.369 326.932,196.861 326.366,194.12 
	326.366,192.706 326.18,192.233 326.084,192.047 325.896,191.856 324.572,191.104 324.293,190.723 323.63,190.156 323.156,190.066 
	320.423,190.252 317.779,190.822 316.741,190.822 315.607,189.782 315.325,188.649 314.948,187.043 314.57,186.003 314.383,185.721 
	312.21,183.457 313.345,183.361 316.46,181.854 317.215,181.758 317.589,181.666 318.064,181.193 319.666,180.437 320.139,180.25 
	320.327,180.155 321.27,179.682 332.5,174.493 332.783,174.398 334.105,173.737 329.764,164.017 329.385,164.3 325.706,156.466 
	325.142,155.146 323.912,151.278 322.5,151.938 320.327,152.881 319.573,153.164 318.723,153.446 317.873,153.825 317.307,154.106 
	315.136,155.05 305.606,159.299 303.528,157.035 302.492,155.806 301.452,154.676 300.887,153.92 300.7,153.729 300.51,153.542 
	296.829,149.293 295.035,147.03 292.866,144.67 290.695,142.027 290.599,141.933 283.616,133.912 280.88,135.137 279.086,136.084 
	278.803,136.271 277.107,137.027 274.558,138.161 274.558,138.252 271.725,139.573 262.853,143.635 262.569,143.822 
	262.478,142.027 262.1,142.215 261.532,142.597 259.08,143.822 254.549,146.183 252.376,147.315 248.131,149.483 248.039,150.24 
	248.131,150.614 248.228,150.806 248.696,150.995 249.36,151.748 249.36,154.203 249.736,155.146 248.131,155.901 247.944,155.997 
	247.188,156.562 247.284,158.074 245.395,158.921 243.79,159.959 244.83,163.167 242.092,164.396 240.11,165.338 236.617,167.13 
	236.336,168.832 235.958,170.153 235.771,170.153 234.731,172.512 234.354,172.699 233.411,172.512 232.937,170.718 
	232.846,170.527 232.28,171.19 232.09,169.114 231.713,169.114 229.92,170.057 228.597,170.908 230.108,174.115 230.957,176.097 
	229.258,176.284 228.032,176.379 227.464,176.379 226.425,176.379 225.767,175.154 225.295,175.154 224.065,174.02 223.595,173.832 
	223.408,173.551 222.558,173.643 219.254,175.154 211.986,178.551 211.986,177.796 211.704,174.962 211.516,173.268 210.761,166 
	210.291,164.678 209.723,163.262 207.268,157.222 205.286,158.165 204.626,158.448 203.022,159.205 201.419,159.959 199.72,160.62 
	196.891,164.112 196.793,164.396 193.775,165.621 195.189,168.55 192.36,169.114 191.981,169.206 190.471,170.718 189.813,171.283 
	188.771,172.321 188.584,172.699 188.866,173.455 188.676,173.925 189.432,175.719 190.093,176.567 190,176.756 188.962,177.039 
	187.073,177.796 186.412,178.078 185.848,178.361 185.848,178.551 185.66,179.682 185.66,179.777 185.66,179.965 185.564,180.345 
	185.374,181.475 184.996,182.987 184.243,183.457 181.033,185.816 178.957,187.137 176.692,188.553 173.297,189.782 
	174.429,192.047 176.032,195.441 176.597,196.765 177.448,198.555 177.544,198.747 177.917,199.594 172.916,201.861 170.748,202.9 
	169.145,203.466 168.954,203.466 168.293,203.653 167.916,203.653 166.786,203.843 162.631,204.313 162.537,204.313 
	161.403,204.786 161.215,204.879 160.555,205.164 151.496,209.315 149.514,210.165 149.324,210.544 149.042,213.468 
	149.514,215.449 151.118,216.96 152.721,217.999 153.573,218.377 154.424,217.524 154.798,217.338 155.176,217.431 155.554,217.622 
	155.836,218.094 156.027,218.751 156.215,221.02 156.592,221.774 156.97,222.432 157.631,222.718 158.006,222.718 158.387,222.339 
	158.856,221.68 159.612,221.111 160.459,220.641 161.311,220.641 162.159,221.301 162.915,222.244 163.763,223.752 163.763,223.852 
	164.235,224.227 165.274,224.227 165.464,224.039 166.03,223.097 166.5,222.527 166.786,222.339 166.973,222.149 167.16,221.962 
	167.351,222.057 167.916,222.718 168.388,224.227 169.332,224.886 169.615,224.791 169.802,224.791 170.653,223.752 
	171.125,223.471 171.125,223.283 172.729,223.187 174.333,224.415 175.184,224.698 176.597,225.547 177.069,226.021 
	177.448,226.302 178.957,226.211 179.807,226.493 180.185,226.963 180.376,227.906 180.185,228.662 180.185,229.04 180.277,229.228 
	181.506,230.361 183.675,231.681 183.958,231.777 184.147,231.777 185.095,231.493 185.942,231.116 186.507,231.021 
	186.603,231.213 186.698,232.155 187.073,232.532 187.263,232.625 188.771,233.853 189.527,234.229 191.416,235.363 
	192.173,237.062 192.738,237.626 194.811,238.194 195.189,238.477 195.471,238.759 195.754,239.328 197.643,241.119 
	201.702,242.439 202.928,243.008 204.061,243.855 205.003,243.951 205.665,244.139 206.137,244.986 206.703,245.368 208.306,246.12 
	208.78,246.405 209.062,246.779 209.252,247.632 209.062,248.952 208.688,249.612 208.023,250.178 207.175,251.217 206.703,252.915 
	206.703,254.236 207.268,255.748 207.646,256.973 208.215,258.203 208.023,260.37 207.646,260.938 206.515,262.635 206.23,263.485 
	205.855,265.467 205.855,265.938 206.042,266.506 206.893,268.016 206.893,269.147 207.175,270.468 207.646,271.226 207.74,272.449 
	207.268,274.622 206.703,276.131 207.268,278.207 207.837,278.868 209.536,279.436 210.383,279.904 210.666,278.963 
	212.176,275.564 212.459,275.092 212.933,274.149 213.406,273.016 213.686,272.449 213.78,272.357 214.346,271.508 214.441,271.32 
	216.422,268.297 217.083,267.64 217.178,267.544 217.744,266.977 217.838,266.977 218.124,266.977 218.689,266.883 220.671,266.602 
	222.935,266.22 223.408,266.318 223.595,266.692 223.595,266.883 224.539,266.506 224.821,265.938 225.39,264.712 225.767,263.391 
	225.767,263.296 226.142,261.882 226.142,261.787 226.237,261.218 226.425,260.938 226.898,259.712 227.562,258.012 
	227.749,257.729 227.841,257.635 228.314,256.691 228.5,256.407 228.879,255.651 228.976,255.461 229.731,254.236 230.2,253.294 
	230.673,252.444 230.957,252.255 231.713,251.69 233.884,250.178 234.827,249.424 235.58,248.195 236.713,246.215 236.617,245.837 
	236.431,244.705 236.053,243.479 236.148,243.384 236.526,242.818 236.617,242.818 236.809,242.725 238.034,242.157 
	238.034,242.253 239.45,243.761 241.527,246.215 241.717,246.405 242.188,246.876 242.282,247.819 241.997,248.101 241.054,249.14 
	240.962,250.273 241.149,250.46 241.904,250.651 241.997,250.651 243.035,250.839 245.585,250.368 245.772,250.368 248.983,248.765 
	249.266,248.481 250.113,247.728 250.113,247.443 250.209,245.649 250.49,245.46 250.586,245.271 250.869,245.177 251.908,244.894 
	254.267,244.139 254.549,244.234 255.873,244.421 256.062,244.8 257.287,243.665 258.042,242.913 259.08,241.97 260.493,240.647 
	260.967,240.081 262.382,239.61 263.518,239.138 263.608,239.042 264.174,238.854 264.363,238.759 265.31,238.381 265.876,238.1 
	265.967,238.1 266.441,237.909 266.913,238.1 268.891,238.854 269.839,239.232 271.158,239.703 272.668,238.1 274.839,238.759 
	275.312,239.516 275.028,240.081 275.878,241.023 276.443,240.835 276.635,240.74 277.482,240.458 278.615,240.081 279.275,239.421 
	279.842,238.1 279.559,237.062 279.466,236.495 280.784,234.041 281.07,233.662 281.919,233.098 282.013,233.003 282.578,232.625 
	284.187,232.908 284.465,232.908 286.545,231.964 288.148,230.928 290.221,229.699 290.508,229.509 294.092,229.322 
	296.261,228.002 296.356,227.906 296.546,227.813 296.733,227.813 298.998,228.002 304.474,231.021 305.793,229.228 305.889,229.04 
	306.076,227.341 306.642,226.681 307.87,226.112 307.965,226.021 308.813,226.867 310.985,226.493 311.833,224.791 313.91,222.906 
	313.91,222.812 314.475,222.718 314.948,222.622 316.364,222.339 316.364,222.244 319.384,219.133 322.97,218.094 325.609,217.338 
	327.593,216.865 328.913,216.488 329.104,216.676 330.047,217.622 332.219,219.791 335.898,217.431 336.276,217.242 338.35,215.922 
	338.449,215.826 337.976,214.507 "/>
<polygon id="0978700" fill="#666666" stroke="#FFFFFF" stroke-width="0.75"  points="337.784,214.033 338.919,212.994 338.542,212.431 
	338.163,211.581 336.276,209.596 336.181,209.315 335.333,206.012 335.048,203.938 334.767,203.37 334.388,202.805 332.028,200.729 
	330.99,200.068 329.482,199.594 328.066,199.219 327.688,199.029 327.405,198.747 327.218,198.369 326.932,196.861 326.366,194.12 
	326.366,192.706 326.18,192.233 326.084,192.047 325.896,191.856 324.572,191.104 324.293,190.723 323.63,190.156 323.156,190.066 
	320.423,190.252 317.779,190.822 316.741,190.822 315.607,189.782 315.325,188.649 314.948,187.043 314.57,186.003 314.383,185.721 
	312.21,183.457 313.345,183.361 316.46,181.854 317.215,181.758 317.589,181.666 318.064,181.193 319.666,180.437 320.139,180.25 
	320.327,180.155 321.27,179.682 332.5,174.493 332.783,174.398 334.105,173.737 329.764,164.017 329.385,164.3 325.706,156.466 
	325.142,155.146 323.912,151.278 322.5,151.938 320.327,152.881 319.573,153.164 318.723,153.446 317.873,153.825 317.307,154.106 
	315.136,155.05 305.606,159.299 303.528,157.035 302.492,155.806 301.452,154.676 300.887,153.92 300.7,153.729 300.51,153.542 
	296.829,149.293 295.035,147.03 292.866,144.67 290.695,142.027 290.599,141.933 283.616,133.912 280.88,135.137 279.086,136.084 
	278.803,136.271 277.107,137.027 274.558,138.161 274.558,138.252 271.725,139.573 262.853,143.635 262.569,143.822 
	262.478,142.027 262.1,142.215 261.532,142.597 259.08,143.822 254.549,146.183 252.376,147.315 248.131,149.483 248.039,150.24 
	248.131,150.614 248.228,150.806 248.696,150.995 249.36,151.748 249.36,154.203 249.736,155.146 248.131,155.901 247.944,155.997 
	247.188,156.562 247.284,158.074 245.395,158.921 243.79,159.959 244.83,163.167 242.092,164.396 240.11,165.338 236.617,167.13 
	236.336,168.832 235.958,170.153 235.771,170.153 234.731,172.512 234.354,172.699 233.411,172.512 232.937,170.718 
	232.846,170.527 232.28,171.19 232.09,169.114 231.713,169.114 229.92,170.057 228.597,170.908 230.108,174.115 230.957,176.097 
	229.258,176.284 228.032,176.379 227.464,176.379 226.425,176.379 225.767,175.154 225.295,175.154 224.065,174.02 223.595,173.832 
	223.408,173.551 222.558,173.643 219.254,175.154 211.986,178.551 211.986,177.796 211.704,174.962 211.516,173.268 210.761,166 
	210.291,164.678 209.723,163.262 207.268,157.222 205.286,158.165 204.626,158.448 203.022,159.205 201.419,159.959 199.72,160.62 
	196.891,164.112 196.793,164.396 193.775,165.621 195.189,168.55 192.36,169.114 191.981,169.206 190.471,170.718 189.813,171.283 
	188.771,172.321 188.584,172.699 188.866,173.455 188.676,173.925 189.432,175.719 190.093,176.567 190,176.756 188.962,177.039 
	187.073,177.796 186.412,178.078 185.848,178.361 185.848,178.551 185.66,179.682 185.66,179.777 185.66,179.965 185.564,180.345 
	185.374,181.475 184.996,182.987 184.243,183.457 181.033,185.816 178.957,187.137 176.692,188.553 173.297,189.782 
	174.429,192.047 176.032,195.441 176.597,196.765 177.448,198.555 177.544,198.747 177.917,199.594 172.916,201.861 170.748,202.9 
	169.145,203.466 168.954,203.466 168.293,203.653 167.916,203.653 166.786,203.843 162.631,204.313 162.537,204.313 
	161.403,204.786 161.215,204.879 160.555,205.164 151.496,209.315 149.514,210.165 149.324,210.544 149.042,213.468 
	149.514,215.449 151.118,216.96 152.721,217.999 153.573,218.377 154.424,217.524 154.798,217.338 155.176,217.431 155.554,217.622 
	155.836,218.094 156.027,218.751 156.215,221.02 156.592,221.774 156.97,222.432 157.631,222.718 158.006,222.718 158.387,222.339 
	158.856,221.68 159.612,221.111 160.459,220.641 161.311,220.641 162.159,221.301 162.915,222.244 163.763,223.752 163.763,223.852 
	164.235,224.227 165.274,224.227 165.464,224.039 166.03,223.097 166.5,222.527 166.786,222.339 166.973,222.149 167.16,221.962 
	167.351,222.057 167.916,222.718 168.388,224.227 169.332,224.886 169.615,224.791 169.802,224.791 170.653,223.752 
	171.125,223.471 171.125,223.283 172.729,223.187 174.333,224.415 175.184,224.698 176.597,225.547 177.069,226.021 
	177.448,226.302 178.957,226.211 179.807,226.493 180.185,226.963 180.376,227.906 180.185,228.662 180.185,229.04 180.277,229.228 
	181.506,230.361 183.675,231.681 183.958,231.777 184.147,231.777 185.095,231.493 185.942,231.116 186.507,231.021 
	186.603,231.213 186.698,232.155 187.073,232.532 187.263,232.625 188.771,233.853 189.527,234.229 191.416,235.363 
	192.173,237.062 192.738,237.626 194.811,238.194 195.189,238.477 195.471,238.759 195.754,239.328 197.643,241.119 
	201.702,242.439 202.928,243.008 204.061,243.855 205.003,243.951 205.665,244.139 206.137,244.986 206.703,245.368 208.306,246.12 
	208.78,246.405 209.062,246.779 209.252,247.632 209.062,248.952 208.688,249.612 208.023,250.178 207.175,251.217 206.703,252.915 
	206.703,254.236 207.268,255.748 207.646,256.973 208.215,258.203 208.023,260.37 207.646,260.938 206.515,262.635 206.23,263.485 
	205.855,265.467 205.855,265.938 206.042,266.506 206.893,268.016 206.893,269.147 207.175,270.468 207.646,271.226 207.74,272.449 
	207.268,274.622 206.703,276.131 207.268,278.207 207.837,278.868 209.536,279.436 210.383,279.904 210.666,278.963 
	212.176,275.564 212.459,275.092 212.933,274.149 213.406,273.016 213.686,272.449 213.78,272.357 214.346,271.508 214.441,271.32 
	216.422,268.297 217.083,267.64 217.178,267.544 217.744,266.977 217.838,266.977 218.124,266.977 218.689,266.883 220.671,266.602 
	222.935,266.22 223.408,266.318 223.595,266.692 223.595,266.883 224.539,266.506 224.821,265.938 225.39,264.712 225.767,263.391 
	225.767,263.296 226.142,261.882 226.142,261.787 226.237,261.218 226.425,260.938 226.898,259.712 227.562,258.012 
	227.749,257.729 227.841,257.635 228.314,256.691 228.5,256.407 228.879,255.651 228.976,255.461 229.731,254.236 230.2,253.294 
	230.673,252.444 230.957,252.255 231.713,251.69 233.884,250.178 234.827,249.424 235.58,248.195 236.713,246.215 236.617,245.837 
	236.431,244.705 236.053,243.479 236.148,243.384 236.526,242.818 236.617,242.818 236.809,242.725 238.034,242.157 
	238.034,242.253 239.45,243.761 241.527,246.215 241.717,246.405 242.188,246.876 242.282,247.819 241.997,248.101 241.054,249.14 
	240.962,250.273 241.149,250.46 241.904,250.651 241.997,250.651 243.035,250.839 245.585,250.368 245.772,250.368 248.983,248.765 
	249.266,248.481 250.113,247.728 250.113,247.443 250.209,245.649 250.49,245.46 250.586,245.271 250.869,245.177 251.908,244.894 
	254.267,244.139 254.549,244.234 255.873,244.421 256.062,244.8 257.287,243.665 258.042,242.913 259.08,241.97 260.493,240.647 
	260.967,240.081 262.382,239.61 263.518,239.138 263.608,239.042 264.174,238.854 264.363,238.759 265.31,238.381 265.876,238.1 
	265.967,238.1 266.441,237.909 266.913,238.1 268.891,238.854 269.839,239.232 271.158,239.703 272.668,238.1 274.839,238.759 
	275.312,239.516 275.028,240.081 275.878,241.023 276.443,240.835 276.635,240.74 277.482,240.458 278.615,240.081 279.275,239.421 
	279.842,238.1 279.559,237.062 279.466,236.495 280.784,234.041 281.07,233.662 281.919,233.098 282.013,233.003 282.578,232.625 
	284.187,232.908 284.465,232.908 286.545,231.964 288.148,230.928 290.221,229.699 290.508,229.509 294.092,229.322 
	296.261,228.002 296.356,227.906 296.546,227.813 296.733,227.813 298.998,228.002 304.474,231.021 305.793,229.228 305.889,229.04 
	306.076,227.341 306.642,226.681 307.87,226.112 307.965,226.021 308.813,226.867 310.985,226.493 311.833,224.791 313.91,222.906 
	313.91,222.812 314.475,222.718 314.948,222.622 316.364,222.339 316.364,222.244 319.384,219.133 322.97,218.094 325.609,217.338 
	327.593,216.865 328.913,216.488 329.104,216.676 330.047,217.622 332.219,219.791 335.898,217.431 336.276,217.242 338.35,215.922 
	338.449,215.826 337.976,214.507 "/>
<polyline id="0976450" fill="#666666" stroke="#FFFFFF" stroke-width="0.75"  points="398.653,100.034 398.94,99.938 410.45,97.484 410.547,97.484 
	410.831,97.391 413.661,107.772 415.265,113.812 416.963,120.134 418.191,124.663 419.605,129.762 419.982,131.365 422.342,139.856 
	422.628,141.085 423.663,144.956 424.04,146.369 424.7,148.918 425.079,150.049 425.175,150.522 425.362,151.183 422.815,151.466 
	421.493,151.653 420.925,152.125 418.283,154.581 417.909,155.241 418.001,155.713 418.001,155.806 418.001,156.183 
	418.098,156.278 419.04,158.543 419.04,158.639 419.04,158.73 419.134,158.826 419.231,158.921 419.322,158.921 420.08,159.582 
	420.08,159.677 421.303,160.715 421.398,160.807 421.493,160.998 421.493,161.089 421.682,161.563 421.777,161.754 421.872,162.037 
	422.059,162.412 422.059,162.509 422.154,162.697 422.719,164.017 422.815,164.3 423.004,164.868 423.004,165.056 423.098,165.243 
	423.195,165.621 423.284,165.903 423.853,167.51 424.138,168.55 424.7,170.244 424.7,171.096 423.853,173.077 422.91,174.588 
	422.815,174.776 421.303,177.039 419.134,175.532 417.909,175.342 416.307,175.246 415.55,175.154 414.513,175.719 412.244,176.852 
	411.302,177.322 411.019,177.513 410.45,177.796 409.319,177.513 409.037,177.513 406.583,177.513 406.396,177.513 404.885,177.986 
	403.562,180.533 402.996,181.003 401.396,182.609 399.505,181.758 399.317,181.758 399.034,181.854 398.653,184.4 396.58,185.438 
	396.107,185.629 394.409,186.477 393.279,186.951 392.9,187.137 386.954,188.553 383.276,189.402 382.048,189.782 381.669,189.875 
	380.535,191.291 380.253,191.668 379.779,193.65 379.498,194.12 378.271,196.196 375.816,196.861 374.308,197.33 369.967,196.48 
	368.646,196.196 365.91,195.066 364.967,194.12 364.87,194.12 363.645,194.12 362.512,194.688 362.416,194.784 361.191,197.047 
	361.095,197.708 361.944,201.105 360.905,203.466 360.623,203.37 358.358,202.331 358.171,202.235 356.186,202.52 354.018,203.37 
	353.452,203.843 354.018,204.786 354.208,205.824 352.885,208.089 349.677,209.409 343.26,212.337 341.466,212.62 341.088,212.431 
	340.052,211.955 338.919,212.994 338.542,212.431 338.163,211.581 336.276,209.596 336.181,209.315 335.333,206.012 
	335.048,203.938 334.767,203.37 334.388,202.805 332.028,200.729 330.99,200.068 329.482,199.594 328.066,199.219 327.688,199.029 
	327.405,198.747 327.218,198.369 326.932,196.861 326.366,194.12 326.366,192.706 326.18,192.233 326.084,192.047 325.896,191.856 
	324.572,191.104 324.293,190.723 323.63,190.156 323.156,190.066 320.423,190.252 317.779,190.822 316.741,190.822 315.607,189.782 
	315.325,188.649 314.948,187.043 314.57,186.003 314.383,185.721 312.21,183.457 313.345,183.361 316.46,181.854 317.215,181.758 
	317.589,181.666 318.064,181.193 319.666,180.437 320.139,180.25 320.327,180.155 321.27,179.682 332.5,174.493 332.783,174.398 
	334.105,173.737 329.764,164.017 329.385,164.3 325.706,156.466 325.142,155.146 323.912,151.278 322.5,151.938 320.327,152.881 
	319.573,153.164 318.723,153.446 317.873,153.825 317.307,154.106 315.136,155.05 305.606,159.299 303.528,157.035 302.492,155.806 
	301.452,154.676 300.887,153.92 300.7,153.729 300.51,153.542 296.829,149.293 295.035,147.03 303.246,142.784 303.339,142.027 
	303.624,139.764 303.908,139.669 304.378,140.142 305.038,140.52 305.889,140.803 307.21,141.085 309.095,141.463 309.095,140.708 
	309.286,139.669 309.757,139.387 309.757,137.969 310.037,137.969 310.702,138.252 311.929,137.592 313.531,137.879 
	314.004,137.404 314.191,137.31 315.703,136.744 317.969,134.48 317.686,131.174 315.985,128.814 314.288,125.891 314.101,125.7 
	314.383,125.513 314.57,125.417 318.818,121.645 319.949,119.661 320.232,119.003 320.423,118.719 320.988,117.774 321.933,115.981 
	323.819,115.699 323.724,115.511 323.724,115.037 323.63,114.285 323.251,113.339 322.214,111.925 321.27,111.357 321.178,110.792 
	321.27,110.697 322.121,110.697 322.686,110.888 322.97,110.604 323.251,109.471 323.065,108.716 324.572,107.489 324.951,105.978 
	324.763,105.6 325.328,104.185 325.801,103.902 325.801,103.81 326.18,103.997 330.615,106.356 331.464,106.826 332.123,107.112 
	332.407,107.207 334.952,108.528 337.881,110.132 344.297,112.964 344.297,112.866 344.485,110.888 345.619,110.604 
	350.056,110.132 350.62,110.036 352.506,109.849 353.735,109.753 355.811,109.658 361.569,109.186 367.417,108.716 370.438,108.528 
	374.778,108.147 377.894,107.96 378.459,107.864 378.745,107.864 381.669,107.677 382.233,107.582 384.879,106.356 389.503,104.28 
	393.652,102.298 398.185,100.128 398.653,100.034 "/>
<polyline id="0900001" fill="#666666" stroke="#FFFFFF" stroke-width="0.75"  points="159.421,68.418 167.255,66.342 167.916,76.25 168.67,84.744 
	173.485,82.763 173.864,82.763 173.955,82.668 180.941,80.121 181.033,80.121 181.693,79.836 181.789,79.836 193.302,75.874 
	193.395,79.743 193.395,82.292 193.585,89.085 193.68,95.599 189.341,97.202 189.527,100.504 189.813,102.581 189.813,103.241 
	189.906,107.772 190.283,109.093 190.848,109.941 191.131,110.414 192.546,109.849 193.868,110.132 193.963,110.224 
	193.963,110.318 193.963,111.641 193.963,112.583 193.963,113.151 193.963,113.621 193.963,113.812 194.058,117.114 
	194.058,117.583 194.058,118.908 188.02,121.832 185.564,123.059 182.735,124.379 186.317,132.121 187.828,135.423 189.714,139.199 
	191.699,143.537 191.886,144.01 194.341,149.01 195.471,151.466 196.509,153.825 196.605,154.012 197.456,155.901 198.304,157.791 
	199.72,160.62 196.891,164.112 196.793,164.396 193.775,165.621 195.189,168.55 192.36,169.114 191.981,169.206 190.471,170.718 
	189.813,171.283 188.771,172.321 188.584,172.699 188.866,173.455 188.676,173.925 189.432,175.719 190.093,176.567 190,176.756 
	188.962,177.039 187.073,177.796 186.412,178.078 185.848,178.361 185.848,178.551 185.66,179.682 185.66,179.777 185.66,179.965 
	185.564,180.345 185.374,181.475 184.996,182.987 184.243,183.457 181.033,185.816 178.957,187.137 176.692,188.553 
	173.297,189.782 174.429,192.047 176.032,195.441 176.597,196.765 177.448,198.555 177.544,198.747 177.917,199.594 
	172.916,201.861 170.748,202.9 169.145,203.466 168.954,203.466 168.293,203.653 167.916,203.653 166.786,203.843 162.631,204.313 
	162.537,204.313 161.403,204.786 161.215,204.879 160.555,205.164 151.496,209.315 149.514,210.165 149.324,210.544 
	149.042,213.468 149.514,215.449 151.118,216.96 152.721,217.999 153.573,218.377 153.287,218.847 150.644,219.034 149.606,218.565 
	148.476,218.094 146.305,218.094 145.926,217.808 145.643,217.808 144.04,217.713 143.192,217.338 140.643,216.865 139.699,214.507 
	139.131,213.941 138.473,213.75 137.436,213.562 137.153,213.375 137.153,212.711 137.436,212.055 137.34,211.769 136.866,211.298 
	135.829,212.242 135.641,212.431 134.508,213.468 132.809,215.354 132.243,215.922 131.018,216.96 130.167,217.524 129.128,219.133 
	129.036,219.32 128.751,219.697 128.373,218.659 127.052,215.641 126.959,214.315 126.013,212.337 125.731,211.864 124.127,209.696 
	122.998,207.993 122.523,206.955 116.106,197.8 114.69,195.823 111.766,191.856 108.84,187.61 108.65,187.328 108.84,186.855 
	108.746,186.667 108.746,186.103 108.84,186.003 109.216,185.347 109.311,185.251 110.35,184.497 108.933,183.361 108.46,182.796 
	107.895,181.666 107.612,181.666 107.139,182.419 105.444,181.758 105.252,181.57 105.158,181.193 104.405,181.193 103.554,181.57 
	103.084,181.475 102.894,180.533 101.95,176.474 101.855,175.91 101.667,175.059 101.478,174.306 99.119,163.449 98.079,159.112 
	96.381,151.087 94.684,143.162 94.684,143.067 92.795,134.763 92.795,134.668 92.326,132.404 92.326,132.309 91.758,129.667 
	91.663,129.005 91.097,126.364 89.398,119.285 89.398,119.095 89.116,118.057 87.794,111.545 87.7,110.888 87.512,110.318 
	85.248,100.128 82.32,88.142 91.097,85.405 91.192,85.312 91.853,85.122 92.701,84.933 92.983,84.84 102.42,82.48 108.177,81.064 
	110.444,80.497 110.819,80.403 116.106,79.083 116.484,78.988 116.675,78.988 127.242,76.441 127.43,76.345 127.715,76.25 
	127.998,76.25 138.188,73.704 146.208,71.722 159.421,68.418 "/>
<polyline id="0900002" fill="#666666" stroke="#FFFFFF" stroke-width="0.75"  points="381.951,10.19 383.65,15.665 384.31,17.646 385.536,21.515 
	386.104,23.213 387.521,27.461 387.612,27.839 387.708,28.218 387.994,29.065 389.972,34.822 392.804,43.315 393.844,46.429 
	393.935,46.618 394.126,47.091 394.409,47.845 394.974,49.733 395.072,50.016 396.013,52.658 397.62,57.471 397.71,57.849 
	400.355,65.493 400.447,65.587 400.732,66.53 404.318,77.289 406.396,83.519 409.794,93.521 410.831,97.391 410.547,97.484 
	410.45,97.484 398.94,99.938 398.653,100.034 398.185,100.128 393.652,102.298 389.503,104.28 384.879,106.356 382.233,107.582 
	381.669,107.677 378.745,107.864 378.459,107.864 377.894,107.96 374.778,108.147 370.438,108.528 367.417,108.716 361.569,109.186 
	355.811,109.658 353.735,109.753 352.506,109.849 350.62,110.036 350.056,110.132 345.619,110.604 344.485,110.888 344.297,112.866 
	344.297,112.964 337.881,110.132 334.952,108.528 332.407,107.207 332.123,107.112 331.464,106.826 330.615,106.356 326.18,103.997 
	325.801,103.81 324.667,103.337 323.912,102.108 323.724,102.015 322.874,102.108 322.5,101.166 322.686,101.166 323.251,100.977 
	323.819,100.788 326.932,99.844 328.913,99.279 330.142,98.9 332.123,98.333 332.028,97.579 332.407,97.675 332.975,97.484 
	333.066,97.108 332.975,96.823 332.5,96.447 332.219,96.541 332.028,96.351 331.842,96.069 331.745,95.692 331.745,94.464 
	331.842,94.088 332.312,93.333 332.312,92.956 332.028,92.579 332.594,92.011 332.028,91.633 331.935,91.444 332.123,91.255 
	332.879,90.784 333.73,90.784 333.918,91.067 333.822,91.351 334.295,91.633 334.295,91.822 334.388,92.011 334.671,91.822 
	334.579,91.633 334.671,91.54 334.952,91.917 335.333,92.105 335.521,91.162 336.37,91.351 336.746,91.162 337.502,90.502 
	337.692,90.03 337.502,90.03 335.048,83.612 330.329,71.06 329.482,71.249 324.008,72.854 320.893,73.797 318.346,64.926 
	317.686,62.378 317.494,62.001 317.117,60.301 316.552,58.51 315.795,55.962 315.136,53.791 313.248,48.034 312.21,44.354 
	315.892,42.938 320.61,41.521 320.704,41.521 323.63,40.673 327.971,39.446 332.879,37.937 332.312,36.238 327.311,21.421 
	327.688,21.326 333.444,19.911 334.2,19.723 339.202,18.213 340.809,17.835 343.543,16.986 346.093,16.231 346.562,16.136 
	346.657,16.042 347.601,15.758 351.94,14.627 353.827,14.155 359.397,12.646 359.868,12.549 362.607,11.795 362.795,11.702 
	364.682,11.228 366.005,10.851 366.097,10.851 367.135,10.569 367.982,10.286 369.021,10.002 369.775,9.718 370.251,9.625 
	372.701,8.964 373.366,8.68 373.839,8.587 379.875,6.793 380.535,6.605 381.951,10.19 "/>
<polyline id="0979600" fill="#666666" stroke="#FFFFFF" stroke-width="0.75"  points="381.951,10.19 383.65,15.665 384.31,17.646 385.536,21.515 
	386.104,23.213 387.521,27.461 387.612,27.839 387.708,28.218 387.994,29.065 389.972,34.822 392.804,43.315 393.844,46.429 
	393.935,46.618 394.126,47.091 394.409,47.845 394.974,49.733 395.072,50.016 396.013,52.658 397.62,57.471 397.71,57.849 
	400.355,65.493 400.447,65.587 400.732,66.53 404.318,77.289 406.396,83.519 409.794,93.521 410.831,97.391 410.547,97.484 
	410.45,97.484 398.94,99.938 398.653,100.034 398.185,100.128 393.652,102.298 389.503,104.28 384.879,106.356 382.233,107.582 
	381.669,107.677 378.745,107.864 378.459,107.864 377.894,107.96 374.778,108.147 370.438,108.528 367.417,108.716 361.569,109.186 
	355.811,109.658 353.735,109.753 352.506,109.849 350.62,110.036 350.056,110.132 345.619,110.604 344.485,110.888 344.297,112.866 
	344.297,112.964 337.881,110.132 334.952,108.528 332.407,107.207 332.123,107.112 331.464,106.826 330.615,106.356 326.18,103.997 
	325.801,103.81 324.667,103.337 323.912,102.108 323.724,102.015 322.874,102.108 322.5,101.166 322.686,101.166 323.251,100.977 
	323.819,100.788 326.932,99.844 328.913,99.279 330.142,98.9 332.123,98.333 332.028,97.579 332.407,97.675 332.975,97.484 
	333.066,97.108 332.975,96.823 332.5,96.447 332.219,96.541 332.028,96.351 331.842,96.069 331.745,95.692 331.745,94.464 
	331.842,94.088 332.312,93.333 332.312,92.956 332.028,92.579 332.594,92.011 332.028,91.633 331.935,91.444 332.123,91.255 
	332.879,90.784 333.73,90.784 333.918,91.067 333.822,91.351 334.295,91.633 334.295,91.822 334.388,92.011 334.671,91.822 
	334.579,91.633 334.671,91.54 334.952,91.917 335.333,92.105 335.521,91.162 336.37,91.351 336.746,91.162 337.502,90.502 
	337.692,90.03 337.502,90.03 335.048,83.612 330.329,71.06 329.482,71.249 324.008,72.854 320.893,73.797 318.346,64.926 
	317.686,62.378 317.494,62.001 317.117,60.301 316.552,58.51 315.795,55.962 315.136,53.791 313.248,48.034 312.21,44.354 
	315.892,42.938 320.61,41.521 320.704,41.521 323.63,40.673 327.971,39.446 332.879,37.937 332.312,36.238 327.311,21.421 
	327.688,21.326 333.444,19.911 334.2,19.723 339.202,18.213 340.809,17.835 343.543,16.986 346.093,16.231 346.562,16.136 
	346.657,16.042 347.601,15.758 351.94,14.627 353.827,14.155 359.397,12.646 359.868,12.549 362.607,11.795 362.795,11.702 
	364.682,11.228 366.005,10.851 366.097,10.851 367.135,10.569 367.982,10.286 369.021,10.002 369.775,9.718 370.251,9.625 
	372.701,8.964 373.366,8.68 373.839,8.587 379.875,6.793 380.535,6.605 381.951,10.19 "/>
</svg>
