<?xml version="1.0" encoding="utf-8"?>
<!-- Generator: Adobe Illustrator 13.0.2, SVG Export Plug-In . SVG Version: 6.00 Build 14948)  -->
<!DOCTYPE svg PUBLIC "-//W3C//DTD SVG 1.1//EN" "http://www.w3.org/Graphics/SVG/1.1/DTD/svg11.dtd">
<svg version="1.1" id="Layer_1" xmlns="http://www.w3.org/2000/svg" xmlns:xlink="http://www.w3.org/1999/xlink" x="0px" y="0px"
	 width="500px" height="400px" viewBox="-69.223 -4.688 500 400" enable-background="new -69.223 -4.688 500 400"
	 xml:space="preserve">
<polygon id="3510740" fill="#4D4D4D" stroke="#FFFFFF" stroke-width="0.75"  points="281.724,126.468 273.678,126 271.192,125.877 269.807,125.796 
	269.786,125.796 268.259,125.693 268.238,125.734 262.901,125.388 262.799,125.347 257.36,125.062 256.118,124.981 255.446,124.939 
	255.222,124.92 254.448,124.899 254.407,124.879 254.143,124.858 253.227,124.818 252.921,124.796 251.943,124.715 251.78,124.715 
	251.698,124.715 251.657,124.736 251.617,124.715 251.332,124.696 250.374,124.655 250.192,124.635 250.13,124.635 250.049,124.614 
	249.763,124.614 249.07,124.553 248.949,124.553 248.888,124.553 248.847,124.553 248.684,124.532 248.644,124.532 248.602,124.532 
	248.562,124.532 248.54,124.532 246.973,124.43 246.789,124.43 246.851,123.554 246.851,123.433 246.87,123.311 246.891,122.862 
	246.891,122.801 246.891,122.781 246.912,122.658 246.912,122.496 246.952,122.149 246.952,122.068 246.952,122.048 
	246.952,122.027 246.973,121.641 246.973,121.62 247.054,120.499 247.074,120.234 247.095,120.112 247.095,120.092 247.095,119.99 
	247.156,118.951 247.177,118.788 247.339,116.202 247.36,115.02 247.4,114.266 247.4,114.124 247.421,113.758 247.583,110.804 
	247.645,110.212 247.502,110.192 247.767,106.281 248.032,102.757 248.032,102.655 248.236,99.722 248.215,99.702 248.236,99.376 
	248.337,98.052 248.378,97.196 248.399,97.136 248.46,96.158 248.867,90.271 248.867,90.25 248.908,89.681 248.908,89.497 
	249.132,85.973 249.03,85.952 249.05,85.912 249.03,85.912 248.888,86.014 248.847,85.769 248.786,85.179 248.684,85.157 
	248.46,84.629 247.787,83.915 247.095,83.569 246.016,82.979 245.689,82.958 245.445,82.877 245.159,82.632 244.691,82.388 
	244.65,82.917 244.569,82.795 244.427,82.632 244.1,82.529 243.938,82.551 243.795,82.672 243.551,82.754 242.96,82.692 
	242.777,82.734 242.654,82.692 242.329,82.529 242.206,82.388 242.043,82.042 242.084,81.594 242.899,81.654 242.899,81.594 
	243.021,79.761 243.144,77.784 243.225,76.46 243.366,74.524 243.938,74.566 243.917,74.972 245.485,75.075 246.259,75.156 
	246.952,75.178 246.912,74.851 247.624,74.912 247.665,74.097 249.233,74.239 249.192,74.627 249.906,74.627 249.987,74.26 
	249.987,73.955 250.028,73.282 250.049,72.732 246.524,72.529 244.263,72.427 243.855,72.345 243.509,72.325 237.989,71.978 
	234.343,71.754 230.167,71.49 230.106,71.49 230.004,71.49 227.702,71.347 227.276,71.307 227.173,71.307 226.97,71.286 
	225.992,71.225 224.932,71.164 224.22,71.124 223.608,71.062 222.672,70.98 223.018,65.766 223.099,64.584 223.12,64.197 
	223.547,59.289 221.307,59.125 221.265,59.125 220.88,59.105 219.698,59.003 218.964,58.962 218.435,58.922 216.315,58.759 
	214.035,58.595 213.708,58.576 207.761,58.106 207.17,58.067 207.109,58.067 201.038,57.537 198.92,57.374 198.818,57.354 
	198.391,57.312 198.29,57.312 198.125,57.292 197.312,57.231 193.788,56.885 193.217,56.824 191.955,56.701 191.852,57.862 
	191.832,58.27 191.689,59.838 191.668,60.226 191.566,61.387 191.547,61.387 191.505,62.018 191.424,62.731 191.323,63.75 
	191.262,64.545 191.201,65.318 191.058,66.866 190.915,68.476 191.323,68.516 191.648,68.536 191.771,68.557 192.463,68.619 
	193.034,68.658 193.563,68.699 193.685,68.719 193.89,68.74 194.113,68.74 194.378,68.76 194.724,68.801 195.111,68.842 
	195.702,68.883 196.272,68.944 196.476,68.965 198.595,69.127 198.859,69.147 199.328,69.188 199.511,69.208 200.876,69.311 
	202.974,69.514 204.237,69.616 204.278,69.616 204.542,69.637 204.542,69.799 204.522,69.982 204.42,71.184 204.42,71.307 
	204.379,71.836 204.379,71.978 204.318,72.753 204.278,73.14 204.237,73.527 204.176,74.26 204.176,74.341 204.155,74.586 
	204.053,75.726 204.013,76.277 204.033,76.297 204.013,76.338 203.993,76.603 203.972,77.01 203.951,77.214 203.912,77.744 
	203.809,78.904 203.788,79.332 203.749,79.679 203.727,80.045 203.688,80.514 203.646,81.166 203.606,81.573 203.565,82.164 
	203.442,83.529 203.381,84.282 203.36,84.689 203.32,85.056 203.26,85.851 203.218,86.604 203.178,87.031 203.178,87.093 
	203.117,87.807 203.096,88.112 202.954,90.291 202.75,92.715 202.221,100.802 202.098,100.781 201.895,103.125 201.65,106.221 
	201.65,106.281 201.609,106.893 204.665,107.116 205.541,110.172 205.683,110.294 205.846,110.743 206.07,111.598 206.172,111.862 
	206.354,112.556 206.579,113.289 206.722,113.675 206.783,113.92 208.82,120.337 208.841,120.337 208.861,120.438 208.943,120.723 
	209.187,121.457 209.187,121.477 209.208,121.538 209.269,121.762 209.35,122.027 209.37,122.068 209.452,122.333 209.513,122.516 
	209.614,122.822 209.9,123.697 210.123,124.411 210.347,125.144 210.409,125.307 210.429,125.388 210.735,126.366 210.286,126.325 
	207.862,126.142 207.231,126.101 206.334,126.02 206.192,126 205.541,125.938 205.52,125.938 205.418,125.938 205.031,125.898 
	204.807,125.958 204.807,126.182 204.766,126.671 204.727,127.1 204.583,128.994 204.461,130.623 204.4,131.397 204.339,132.13 
	204.318,132.293 204.278,132.986 204.237,133.578 204.216,133.74 204.155,134.433 204.155,134.514 204.135,134.941 204.115,134.963 
	204.095,135.267 203.85,137.998 203.727,139.912 203.565,141.5 203.503,142.234 203.503,142.254 203.423,143.538 203.341,144.333 
	203.341,144.475 203.26,145.554 203.198,146.226 207.843,146.593 211.264,146.776 212.751,146.858 215.074,147.021 216.052,147.082 
	217.274,147.224 220.818,149.404 221.877,150.056 222.08,150.178 222.508,150.362 222.63,150.402 222.672,150.422 222.712,150.443 
	222.835,150.504 222.917,150.544 222.977,150.564 222.998,150.564 223.161,150.646 223.242,150.667 223.669,150.851 
	226.643,152.153 227.702,152.582 227.907,152.663 228.375,152.867 230.758,153.886 233.324,154.965 235.362,156.187 
	236.135,156.208 237.094,156.146 237.052,156.798 236.91,159.63 236.788,161.137 236.727,162.338 236.543,164.986 236.502,165.822 
	236.951,165.863 236.991,165.863 237.337,165.883 237.378,165.883 241.88,166.168 242.532,166.208 250.272,166.718 251.534,166.8 
	252.532,166.861 253.491,166.921 254.958,167.024 254.998,167.024 258.073,167.206 259.601,167.309 259.642,167.309 
	261.781,167.431 261.965,167.451 265.793,167.675 268.075,167.819 268.197,167.839 268.524,167.859 268.666,167.859 
	269.217,167.879 269.419,167.9 270.744,167.981 272.15,168.063 272.251,168.084 272.721,168.104 274.532,168.205 274.614,168.205 
	280.317,168.552 281.011,168.573 283.292,168.694 284.841,168.796 284.901,168.796 285.023,166.657 285.085,165.374 
	285.104,165.027 285.104,165.008 285.166,164.151 285.269,162.645 285.633,155.963 285.92,150.891 285.96,150.157 286.938,150.219 
	286.938,150.198 287.306,143.171 287.732,135.817 287.937,131.498 287.956,131.479 288.059,129.563 288.1,128.851 288.222,126.834 
	"/>
<polyline id="3522140" fill="#4D4D4D" stroke="#FFFFFF" stroke-width="0.75"  points="163.416,12.112 165.881,12.336 165.9,12.336 167.246,12.458 
	167.266,12.458 168.855,12.581 168.896,12.622 171.523,12.846 171.869,12.866 177.43,13.314 178.021,13.354 179.426,13.477 
	180.119,13.538 183.133,13.783 184.966,13.925 185.089,13.946 185.538,13.986 188.716,14.251 191.608,14.475 196.13,14.842 
	196.333,14.862 199.45,15.106 199.572,15.127 201.365,15.27 203.035,15.392 203.87,15.452 203.932,15.452 203.83,15.677 
	203.606,15.799 203.423,16.166 203.402,16.328 203.483,16.837 203.423,17.001 203.36,17.062 203.279,17.103 203.076,17.103 
	202.791,17.164 202.709,17.205 202.668,17.266 202.628,17.45 202.506,17.571 202.281,17.633 202.2,17.755 202.241,17.897 
	202.261,17.897 202.323,17.958 202.526,18.325 202.302,18.569 202.221,18.692 202.2,19.059 202.342,19.689 202.526,19.934 
	202.506,19.975 202.261,20.26 202.139,20.566 201.976,20.831 201.406,21.014 201.263,20.933 201.181,20.933 200.795,21.339 
	200.49,21.625 200.366,21.848 200.306,21.87 200.203,21.848 200.102,21.748 200.062,21.563 200,21.502 199.938,21.502 
	199.898,21.544 199.857,21.89 199.756,21.89 199.388,21.686 199.368,21.686 199.083,21.809 198.84,22.195 198.798,22.297 
	198.696,22.562 198.696,22.928 198.656,22.948 198.615,22.948 198.31,22.826 198.29,22.826 198.228,22.888 198.146,23.071 
	198.064,23.152 197.983,23.152 197.738,22.99 197.657,22.908 197.637,22.826 197.637,22.765 197.596,22.684 197.576,22.684 
	197.312,22.787 197.148,22.928 197.148,23.01 197.189,23.05 197.168,23.193 197.087,23.336 196.965,23.437 196.721,23.458 
	196.496,23.784 196.415,23.804 196.333,23.784 196.211,23.723 196.17,23.682 196.089,23.641 195.722,23.784 195.682,23.825 
	195.641,23.865 195.6,23.988 195.682,24.232 195.539,24.415 195.518,24.498 195.539,24.721 195.56,24.782 195.682,24.803 
	195.783,24.782 195.906,24.843 195.906,24.905 195.864,24.986 195.783,25.068 195.56,25.068 195.336,24.965 195.274,25.006 
	195.192,25.148 195.192,25.251 195.254,25.454 195.355,25.576 195.336,25.658 195.316,25.678 195.254,25.699 195.07,25.658 
	194.887,25.536 194.806,25.414 194.745,25.292 194.703,25.495 194.684,25.922 194.133,32.237 193.97,32.237 193.747,34.804 
	193.278,39.529 193.115,41.648 193.074,41.853 192.79,44.989 192.77,45.967 192.728,47.392 192.585,48.777 192.524,49.307 
	192.422,49.959 192.3,51.935 192.3,51.955 192.22,53.198 192.178,53.565 192.158,53.912 192.138,54.318 192.138,54.359 
	192.096,54.726 192.075,55.133 192.075,55.153 192.075,55.173 192.015,56.131 191.955,56.701 191.852,57.862 191.832,58.27 
	191.689,59.838 191.668,60.226 191.566,61.387 191.547,61.387 191.505,62.018 191.424,62.731 191.323,63.75 191.262,64.545 
	191.201,65.318 191.058,66.866 190.915,68.476 190.141,68.414 189.673,68.373 189.387,68.353 189.347,68.353 189.184,68.333 
	189,68.312 188.654,68.292 188.552,68.271 187.778,68.21 184.703,67.924 184.071,67.885 183.276,67.804 183.235,67.804 
	182.869,67.762 182.584,67.742 182.563,67.742 182.543,67.742 181.83,67.68 181.729,67.661 180.995,67.6 179.998,67.518 
	179.406,67.457 178.306,67.354 177.898,67.315 177.104,67.253 176.269,67.172 175.821,67.151 174.762,67.049 174.375,67.009 
	174.334,67.009 173.987,66.968 173.968,66.968 173.601,66.947 173.581,66.947 172.459,66.846 171.686,66.764 170.892,66.703 
	170.138,66.642 169.588,66.581 169.343,66.561 169.323,66.561 168.468,66.5 168.427,66.5 168.243,66.479 168.223,66.479 
	167.856,66.438 167.836,66.438 166.532,66.337 166.248,66.315 165.84,66.275 165.718,66.275 165.534,66.254 165.515,66.254 
	165.392,66.234 164.822,66.194 164.088,66.132 164.006,66.132 163.272,66.072 162.642,66.011 160.422,65.807 160.259,65.787 
	159.771,65.745 158.752,65.664 154.188,65.257 153.597,65.196 152.05,65.053 151.215,64.972 151.132,64.972 150.481,64.911 
	150.176,64.869 147.69,64.646 147.426,64.625 146.692,64.564 141.641,64.096 141.539,64.096 140.48,63.993 139.502,63.892 
	138.055,63.75 137.974,63.75 137.669,63.729 137.057,63.668 136.039,63.566 135.286,63.484 135.102,63.484 135,63.484 
	134.776,63.444 132.066,63.199 131.742,63.179 131.62,63.159 131.212,63.118 130.132,63.037 130.743,56.885 130.845,55.602 
	130.845,55.561 130.905,54.97 130.905,54.95 131.049,53.402 131.457,49.307 131.558,48.125 131.742,46.252 131.945,44.174 
	132.088,42.789 132.312,40.447 132.576,37.778 132.576,37.758 132.719,36.332 132.862,34.866 133.29,30.221 133.635,26.615 
	133.737,25.515 134.084,21.89 134.124,21.625 134.348,19.119 134.531,17.185 134.593,16.655 134.612,16.431 134.634,16.228 
	134.634,16.206 134.755,14.963 135.062,11.705 135.123,11.175 135.123,11.135 135.286,9.546 136.956,9.708 136.976,9.708 
	138.932,9.912 139.114,9.933 147.772,10.727 152.132,11.114 153.232,11.215 153.251,11.215 156.775,11.521 160.014,11.827 
	163.416,12.112 "/>
<polyline id="3529740" fill="#4D4D4D" stroke="#FFFFFF" stroke-width="0.75"  points="235.484,230.781 235.382,232.227 235.28,233.592 
	235.118,235.832 234.302,235.792 233.529,235.75 233.488,236.383 233.345,238.296 233.224,240.192 233.182,240.619 232.734,246.873 
	232.55,250.152 231.96,258.932 231.92,259.4 231.491,265.695 231.471,266.225 231.349,267.833 230.962,273.638 230.942,273.638 
	230.636,277.997 230.474,280.646 230.454,281.053 230.35,282.663 230.229,284.577 230.188,285.006 230.167,285.412 230.167,285.616 
	230.147,285.799 230.065,286.94 230.065,286.962 229.292,286.9 228.62,286.858 228.599,286.858 228.538,286.858 227.07,286.757 
	226.195,286.696 223.751,286.554 221.836,286.431 221.714,286.411 221.612,286.411 221.572,286.411 221.531,286.411 
	220.777,286.351 220.533,286.329 220.35,286.329 220.207,286.309 220.064,286.309 220.044,286.309 219.861,286.288 219.84,286.288 
	219.168,286.247 219.106,286.554 218.903,286.737 218.74,286.757 218.68,286.776 218.638,286.776 218.618,286.776 218.556,286.776 
	218.292,286.98 218.128,287.266 218.191,287.449 218.537,287.775 218.7,287.816 218.842,287.714 218.903,287.714 219.005,287.796 
	219.025,288.039 218.985,288.163 218.944,288.223 218.761,288.346 218.68,288.529 218.7,288.692 218.78,288.793 219.025,288.632 
	219.168,288.651 219.066,289.038 218.719,289.183 218.761,289.425 218.761,289.648 218.761,289.669 218.74,289.731 218.74,289.751 
	218.719,289.772 218.598,289.976 218.598,289.995 218.455,290.118 218.373,290.179 218.414,290.342 218.638,290.261 
	218.985,290.464 219.168,290.586 219.045,290.668 219.025,290.688 218.862,290.75 218.618,290.851 218.496,290.953 218.149,291.055 
	218.128,291.055 218.068,291.115 217.803,291.319 217.559,291.604 217.539,291.766 217.559,291.809 217.66,291.93 217.864,292.012 
	217.945,292.073 218.007,292.113 218.047,292.155 218.191,292.318 218.191,292.338 218.21,292.38 218.252,292.461 218.23,292.48 
	218.17,292.623 218.149,292.664 218.149,292.685 217.945,292.949 217.885,293.092 217.864,293.377 217.925,293.438 218.128,293.622 
	218.21,293.703 218.292,293.94 218.455,294.124 218.761,294.49 219.168,294.531 219.188,294.553 219.331,294.653 219.311,294.897 
	219.229,295.161 219.106,295.509 219.229,295.673 219.615,295.712 219.84,295.855 219.88,295.876 220.125,296.242 220.146,296.345 
	220.329,296.548 220.593,296.568 220.696,296.508 220.798,296.426 220.96,296.466 220.96,296.548 221.063,296.568 221.165,296.608 
	221.47,296.711 221.673,296.791 221.694,296.833 221.734,296.935 221.775,296.975 221.877,297.099 221.918,297.139 222.142,297.302 
	222.162,297.363 222.183,297.384 222.183,297.443 222.243,297.668 222.284,297.668 222.367,297.668 222.468,297.75 222.488,297.79 
	222.488,297.831 222.468,297.953 222.427,298.076 222.427,298.117 220.553,297.974 219.188,297.894 219.106,297.894 
	212.385,297.424 212.385,297.403 201.385,296.629 201.161,296.608 201.06,296.59 201.06,296.608 194.317,296.101 187.655,295.59 
	188.002,291.442 188.552,284.028 188.838,279.77 188.878,278.875 189.163,275.044 189.387,272.254 189.469,271.031 189.469,271.013 
	189.611,269.116 189.652,268.566 189.673,268.404 190.039,263.393 190.528,257.647 190.548,257.28 190.63,256.304 190.63,255.958 
	190.671,255.287 190.895,252.169 190.915,251.64 191.037,250.091 191.078,249.48 191.648,242.33 191.648,242.31 191.689,242.289 
	191.913,242.31 192.483,242.351 192.524,242.351 192.565,242.37 192.77,242.393 192.79,242.393 192.973,242.393 193.013,242.413 
	193.441,242.434 197.25,242.779 198.717,242.88 200.143,243.003 207.801,243.553 210.042,243.716 210.062,243.39 210.205,241.394 
	212.059,240.619 216.5,238.746 235.484,230.781 "/>
<polygon id="3500002" fill="#4D4D4D" stroke="#FFFFFF" stroke-width="0.75"  points="385.957,25.618 385.143,25.576 384.816,25.576 383.005,25.515 
	381.109,25.454 378.462,25.373 375.732,25.292 371.557,25.169 368.379,25.068 358.52,24.742 358.479,24.742 346.867,24.375 
	346.727,28.103 346.685,28.612 346.582,31.138 346.379,35.66 346.359,36.026 346.298,37.635 346.298,38.083 346.217,40.467 
	346.176,40.467 346.154,40.935 346.154,41.078 346.114,41.078 346.094,41.445 346.074,42.26 346.053,42.789 346.033,43.563 
	345.87,47.474 345.727,51.202 345.625,53.728 345.604,53.972 345.604,54.114 345.544,55.479 345.544,55.499 345.503,56.416 
	345.462,57.21 345.442,57.659 345.442,57.903 345.422,58.452 345.4,58.8 345.361,59.228 345.321,60.001 345.259,61.57 
	345.198,62.833 345.198,63.057 345.055,66.275 343.526,66.234 342.754,66.173 338.924,65.99 337.396,65.93 335.278,65.848 
	326.764,65.42 326.927,65.542 326.988,65.706 326.988,65.787 326.886,65.949 326.803,66.377 326.844,66.438 327.11,66.621 
	327.049,66.683 326.886,66.683 326.661,66.642 326.579,66.683 326.579,66.785 326.601,66.826 326.661,66.885 326.782,66.947 
	326.865,67.069 326.824,67.172 326.743,67.273 326.661,67.661 326.682,67.701 326.764,67.742 326.906,67.742 327.007,67.701 
	327.049,67.619 327.028,67.315 327.11,67.273 327.191,67.315 327.558,67.701 327.598,67.782 327.558,67.904 327.395,68.027 
	327.333,68.129 327.375,68.312 327.436,68.373 327.517,68.373 327.742,68.597 328.006,68.985 327.986,69.066 327.862,69.188 
	327.801,69.29 327.822,69.616 327.742,69.718 327.659,69.738 327.64,69.718 327.598,69.595 327.558,69.412 327.517,69.372 
	327.455,69.372 327.354,69.392 327.271,69.474 327.253,69.534 327.231,69.677 327.313,69.861 327.436,69.982 327.618,70.063 
	327.68,70.145 327.68,70.207 327.455,70.513 327.455,70.635 327.496,70.716 327.558,70.777 327.659,70.797 327.801,70.817 
	327.944,70.98 327.965,71.184 327.944,71.429 327.986,71.632 328.129,71.897 328.107,71.999 328.066,72.081 327.986,72.366 
	328.596,72.549 328.556,72.672 328.393,72.875 328.495,72.997 328.738,73.201 328.841,73.425 328.841,73.567 328.882,73.69 
	328.922,73.71 328.984,73.71 329.105,73.69 329.167,73.73 329.208,73.792 329.125,73.934 328.964,74.097 328.922,74.118 
	328.82,74.26 328.779,74.423 328.759,74.688 328.82,74.79 328.922,74.851 329.085,74.912 329.35,74.972 329.452,75.075 
	329.514,75.259 329.514,75.442 329.452,75.706 329.473,75.951 329.493,75.991 329.514,76.114 329.39,76.419 329.289,76.521 
	329.289,76.623 329.35,76.705 329.613,76.827 329.859,76.786 329.921,76.806 329.981,76.909 329.981,77.092 330.001,77.133 
	330.205,77.294 330.348,77.336 330.348,77.376 330.267,77.825 329.921,78.049 329.677,78.07 329.613,78.171 329.595,78.232 
	329.677,78.355 329.839,78.437 330.164,78.721 330.389,79.087 330.694,79.353 330.797,79.577 330.715,79.637 330.633,79.679 
	330.408,79.78 330.327,79.922 330.267,80.065 330.062,79.78 329.921,79.78 329.737,79.821 329.697,79.862 329.697,79.964 
	329.757,80.045 330.001,80.188 330.205,80.351 330.246,80.392 330.246,80.453 330.186,80.575 330.104,80.636 330.001,80.636 
	329.798,80.554 329.635,80.595 329.573,80.656 329.534,80.759 329.514,81.002 329.534,81.166 329.677,81.226 329.859,81.166 
	329.899,81.105 330.062,81.125 330.164,81.248 330.226,81.45 330.226,81.512 330.226,81.552 330.186,81.552 330.104,81.532 
	330.023,81.43 329.94,81.43 329.595,81.552 329.534,81.614 329.514,81.695 329.554,81.797 329.677,81.899 329.798,81.899 
	329.88,81.98 329.962,82.083 329.981,82.144 329.962,82.204 329.798,82.307 329.554,82.326 329.514,82.347 329.493,82.448 
	329.514,82.551 329.573,82.653 329.635,82.692 329.655,82.714 329.635,82.795 329.534,82.897 329.371,82.897 329.005,82.816 
	328.943,82.816 328.902,82.835 328.882,82.938 328.943,83.121 329.085,83.243 329.208,83.304 329.248,83.406 329.208,83.508 
	328.984,83.63 328.678,83.611 328.596,83.691 328.576,83.732 328.576,83.834 328.902,84.16 328.902,84.201 328.882,84.262 
	328.779,84.343 328.678,84.343 328.556,84.242 328.475,84.119 328.475,84.038 328.495,83.896 328.454,83.834 328.412,83.854 
	328.352,83.896 328.311,84.038 328.311,84.465 328.229,84.689 328.107,84.772 327.843,84.812 327.801,84.893 327.843,84.974 
	328.006,85.097 328.148,85.179 328.352,85.239 328.393,85.281 328.393,85.362 328.371,85.423 328.332,85.504 328.229,85.565 
	328.148,85.667 328.148,85.769 328.169,85.789 328.332,85.871 328.434,85.831 328.475,85.749 328.475,85.667 328.434,85.524 
	328.516,85.484 328.616,85.524 328.861,85.769 328.902,85.831 328.882,85.891 328.759,86.014 328.475,86.075 328.412,86.034 
	328.352,86.014 328.291,86.054 328.229,86.115 328.229,86.197 328.311,86.299 328.516,86.4 328.72,86.421 328.779,86.482 
	328.759,86.564 328.658,86.646 328.516,86.707 328.371,86.727 328.291,86.767 328.271,86.829 328.332,86.991 328.412,87.093 
	328.556,87.154 328.779,87.357 328.882,87.48 328.861,87.541 328.779,87.643 328.596,87.664 328.534,87.725 328.534,87.827 
	328.596,87.969 328.8,88.254 328.922,88.906 328.902,88.946 328.841,89.028 328.638,89.089 333.059,89.292 334.116,89.374 
	335.97,89.395 336.948,89.436 337.58,89.477 339.819,89.599 341.449,89.681 343.526,89.762 345.482,88.743 346.033,89.864 
	346.195,90.209 346.4,90.659 346.704,91.289 347.052,91.982 347.316,92.552 355.567,109.601 359.334,109.765 359.273,111.495 
	359.17,114.307 358.968,119.521 355.586,119.379 353.285,119.257 350.697,119.156 350.087,119.134 349.414,119.073 349.455,117.892 
	347.499,118.85 339.515,123.005 339.332,123.087 337.987,123.758 337.58,123.962 337.742,120.01 332.345,119.766 332.222,119.746 
	327.801,119.542 322.302,119.276 315.805,118.971 305.191,118.422 304.499,118.381 303.969,118.361 299.753,118.136 
	296.188,117.933 292.44,117.729 287.164,117.464 287.145,117.688 287.145,117.729 286.655,126.834 286.534,128.851 286.492,129.563 
	286.391,131.479 286.37,131.498 286.166,135.817 285.739,143.171 285.372,150.198 285.372,150.219 284.394,150.157 284.354,150.891 
	284.067,155.963 283.702,162.645 283.6,164.151 283.539,165.008 283.539,165.027 283.519,165.374 283.458,166.657 283.335,168.796 
	283.274,168.796 281.727,168.694 279.445,168.573 278.752,168.552 273.048,168.205 272.967,168.205 271.154,168.104 
	270.686,168.084 270.584,168.063 269.178,167.981 267.854,167.9 267.65,167.879 267.1,167.859 266.959,167.859 266.632,167.839 
	266.509,167.819 264.228,167.675 260.398,167.451 260.215,167.431 258.076,167.309 258.034,167.309 256.508,167.206 
	256.184,171.913 256.162,172.096 256.019,174.459 255.53,181.915 255.53,182.057 255.388,184.42 255.307,185.397 255.307,185.947 
	255.245,187.271 255.225,187.292 255.021,190.531 254.98,190.531 251.944,190.328 249.379,190.164 249.115,194.34 248.85,198.414 
	248.85,198.495 248.768,199.574 244.103,199.269 244.103,199.147 239.275,198.414 235.262,198.148 234.651,198.108 234.61,198.108 
	234.061,206.704 234,207.764 233.714,212.551 234.876,212.632 234.448,220.188 234.203,225.77 234.183,225.791 234.183,226.136 
	234.183,226.26 234.203,226.319 234.143,227.379 233.918,230.781 233.816,232.227 233.714,233.592 233.552,235.832 232.736,235.792 
	231.963,235.75 231.922,236.383 231.779,238.296 231.658,240.192 231.616,240.619 231.168,246.873 230.984,250.152 230.394,258.932 
	230.354,259.4 229.925,265.695 229.905,266.225 229.783,267.833 229.396,273.638 229.376,273.638 229.07,277.997 228.908,280.646 
	228.887,281.053 228.784,282.663 228.663,284.577 228.622,285.006 228.601,285.412 228.601,285.616 228.581,285.799 228.5,286.94 
	228.5,286.962 230.883,287.103 230.924,287.103 231.373,287.145 236.22,287.449 236.464,287.449 237.32,287.49 239.866,287.633 
	243.248,287.856 245.611,288.02 247.403,288.143 250.01,288.306 250.663,288.346 252.128,288.427 256.792,288.713 257.649,288.793 
	265.246,289.282 271.297,289.648 271.338,289.648 271.399,289.669 273.048,289.751 275.33,289.895 281.624,290.24 283.742,290.362 
	283.905,290.362 284.008,290.362 284.7,290.403 284.761,290.403 285.372,290.443 287.145,290.545 287.226,290.545 294.396,290.913 
	297.573,291.075 298.979,291.157 300.812,291.259 306.801,291.543 306.923,291.564 311.853,291.809 320.998,292.236 321.71,292.276 
	322.729,292.318 334.789,292.847 336.785,292.929 341.531,293.092 347.276,293.356 348.396,293.397 348.437,293.397 
	348.864,293.418 353.916,293.601 366.342,294.044 368.521,294.124 368.888,294.124 369.01,294.145 369.01,294.124 371.372,294.206 
	375.1,294.328 377.097,294.409 377.239,294.409 378.197,294.429 378.359,289.812 378.421,287.877 378.462,286.696 378.768,276.532 
	379.094,266.469 379.112,265.613 379.154,264.329 379.216,262.944 379.235,262.273 379.235,262.21 379.277,260.988 379.317,259.809 
	379.357,257.873 379.378,257.424 379.397,257.058 379.42,256.466 379.42,256.203 379.439,255.51 379.459,254.716 379.521,253.207 
	379.541,252.801 379.541,252.455 379.541,252.392 379.582,251.66 379.622,250.091 379.622,250.051 379.644,248.93 379.662,248.503 
	379.662,248.482 379.684,247.913 379.704,247.321 379.744,246.2 379.848,243.043 379.867,242.76 379.928,240.843 379.949,240.294 
	379.989,239.519 380.03,238.766 380.03,238.582 380.09,237.279 380.152,236.036 380.173,235.874 380.253,234.162 380.295,233.287 
	380.499,229.07 380.58,227.094 380.62,226.869 380.763,223.937 380.804,223.162 380.946,220.005 381.455,210.229 381.578,207.172 
	381.599,207.05 381.618,206.398 381.639,205.929 381.659,205.523 381.721,204.748 381.781,203.159 381.862,201.245 381.904,200.797 
	382.107,196.58 382.189,195.195 382.332,192.445 382.332,192.201 382.433,190.082 382.535,188.534 382.597,186.966 382.617,186.19 
	382.637,185.397 382.637,185.152 382.656,184.929 382.656,184.888 382.656,184.826 382.656,184.48 382.698,183.768 382.719,182.892 
	382.739,182.444 382.739,182.179 382.76,181.976 382.781,181.1 383.023,173.359 383.085,171.607 383.085,170.895 383.105,170.344 
	383.187,167.756 383.208,166.921 383.228,166.759 383.228,166.678 383.228,166.576 383.247,166.535 383.247,166.473 383.247,166.27 
	383.247,166.168 383.247,166.127 383.269,166.005 383.269,165.822 383.269,165.619 383.29,165.374 383.29,165.027 383.31,164.641 
	383.371,162.665 383.371,162.44 383.391,162.297 383.432,160.729 383.472,159.71 383.595,156.024 383.676,153.845 383.717,152.113 
	383.717,152.093 383.717,152.052 383.777,151.074 383.839,149.241 383.899,146.98 383.982,144.557 384.084,141.439 384.186,138.791 
	384.267,135.858 384.409,131.641 384.533,127.466 384.533,126.651 384.593,126.081 384.593,125.693 384.593,125.591 
	384.634,124.818 384.674,123.779 384.674,123.596 384.674,123.554 384.674,123.535 384.715,121.986 384.755,120.398 
	384.797,119.929 385.062,112.128 385.469,99.885 385.529,98.337 385.692,93.59 385.774,90.779 385.754,90.516 385.794,89.558 
	385.794,88.968 385.855,88.295 386.079,81.471 386.242,76.583 386.528,67.212 386.608,63.933 386.671,62.446 386.671,62.405 
	386.771,58.657 386.976,52.608 387.078,52.608 388.646,52.647 388.688,51.447 388.688,51.242 388.768,49.205 388.829,47.148 
	388.851,46.354 388.951,43.237 389.033,40.854 389.359,30.608 389.359,30.505 389.522,25.74 "/>
<polygon id="3500003" fill="#4D4D4D" stroke="#FFFFFF" stroke-width="0.75"  points="254.998,167.024 254.958,167.024 253.491,166.921 
	252.532,166.861 251.534,166.8 250.272,166.718 242.532,166.208 241.88,166.168 237.378,165.883 237.337,165.883 236.991,165.863 
	236.951,165.863 236.502,165.822 236.543,164.986 236.727,162.338 236.788,161.137 236.91,159.63 237.052,156.798 237.094,156.146 
	236.135,156.208 235.362,156.187 233.324,154.965 230.758,153.886 228.375,152.867 227.907,152.663 227.702,152.582 
	226.643,152.153 223.669,150.851 223.242,150.667 223.161,150.646 222.998,150.564 222.977,150.564 222.917,150.544 
	222.835,150.504 222.712,150.443 222.672,150.422 222.63,150.402 222.508,150.362 222.08,150.178 221.877,150.056 220.818,149.404 
	217.274,147.224 216.052,147.082 215.074,147.021 212.751,146.858 211.264,146.776 207.843,146.593 203.198,146.226 
	202.648,146.186 197.678,145.758 197.271,145.758 194.948,145.554 194.214,145.473 189.652,145.126 188.858,145.004 
	188.716,145.004 188.063,145.045 187.37,144.964 186.922,144.923 184.825,144.739 182.727,144.617 181.994,144.515 181.871,144.515 
	181.178,144.557 180.71,144.495 180.486,144.475 178.959,144.312 178.184,144.271 177.43,144.148 174.986,143.986 173.01,143.802 
	170.708,143.619 169.996,143.517 168.447,143.455 168.019,143.396 165.982,143.191 165.352,143.069 164.373,142.967 
	151.581,141.989 150.074,141.847 149.34,141.745 135.55,140.502 134.267,140.401 125.61,139.525 125.589,139.565 125.528,139.565 
	125.446,139.545 123.776,139.403 123.125,139.341 122.84,139.3 122.554,142.356 122.33,144.72 120.721,161.38 120.09,167.9 
	119.845,170.324 119.641,172.707 119.235,177.024 118.725,182.199 118.521,184.236 118.216,187.515 118.195,187.76 117.951,190.388 
	117.91,190.816 117.707,192.913 117.625,193.689 117.116,198.963 117.075,199.229 117.055,199.494 117.035,199.697 116.974,200.267 
	116.831,201.916 116.667,203.771 116.647,203.894 116.627,204.076 116.606,204.28 115.995,210.452 115.792,212.651 115.446,216.439 
	115.446,216.461 115.282,218.091 115.222,218.846 115.222,218.906 115.079,220.107 115.079,220.168 114.223,229.213 113.857,232.98 
	113.592,235.711 113.551,236.24 113.143,240.192 113.124,240.376 113.103,240.578 113.082,240.843 112.92,242.677 111.779,254.472 
	110.333,269.443 110.047,272.478 110.007,272.743 109.946,273.435 109.701,275.717 109.64,276.49 109.172,281.44 108.907,284.129 
	108.846,284.619 108.745,285.556 108.602,287.327 108.499,288.08 107.685,296.608 106.972,303.881 106.972,303.901 106.849,304.941 
	106.095,312.803 114.692,313.638 115.14,313.679 117.971,313.944 121.658,314.229 144.35,316.245 145.125,307.363 145.654,301.294 
	146.142,295.55 146.163,295.448 146.428,292.236 161.929,293.539 163.314,293.661 179.244,294.938 181.973,295.143 187.655,295.59 
	188.002,291.442 188.552,284.028 188.838,279.77 188.878,278.875 189.163,275.044 189.387,272.254 189.469,271.031 189.469,271.013 
	189.611,269.116 189.652,268.566 189.673,268.404 190.039,263.393 190.528,257.647 190.548,257.28 190.63,256.304 190.63,255.958 
	190.671,255.287 190.895,252.169 190.915,251.64 191.037,250.091 191.078,249.48 191.648,242.33 191.648,242.31 191.689,242.289 
	191.913,242.31 192.483,242.351 192.524,242.351 192.565,242.37 192.77,242.393 192.79,242.393 192.973,242.393 193.013,242.413 
	193.441,242.434 197.25,242.779 198.717,242.88 200.143,243.003 207.801,243.553 210.042,243.716 210.062,243.39 210.205,241.394 
	212.059,240.619 216.5,238.746 235.484,230.781 235.708,227.379 235.769,226.319 235.749,226.26 235.749,226.136 235.749,225.791 
	235.769,225.77 236.014,220.188 236.442,212.632 235.28,212.551 235.565,207.764 235.626,206.704 236.176,198.108 236.217,198.108 
	236.828,198.148 240.841,198.414 245.669,199.147 245.669,199.269 250.333,199.574 250.416,198.495 250.416,198.414 250.681,194.34 
	250.945,190.164 253.511,190.328 256.547,190.531 256.588,190.531 256.79,187.292 256.811,187.271 256.873,185.947 256.873,185.397 
	256.953,184.42 257.096,182.057 257.096,181.915 257.585,174.459 257.729,172.096 257.749,171.913 258.073,167.206 "/>
<polygon id="3500004" fill="#4D4D4D" stroke="#FFFFFF" stroke-width="0.75"  points="357.133,109.601 348.883,92.552 348.617,91.982 348.271,91.289 
	347.967,90.659 347.762,90.209 347.6,89.864 347.049,88.743 345.093,89.762 343.016,89.681 341.386,89.599 339.146,89.477 
	338.514,89.436 337.535,89.395 335.683,89.374 334.624,89.292 330.204,89.089 330.407,89.028 330.468,88.946 330.487,88.906 
	330.366,88.254 330.162,87.969 330.101,87.827 330.101,87.725 330.162,87.664 330.346,87.643 330.427,87.541 330.447,87.48 
	330.346,87.357 330.121,87.154 329.979,87.093 329.897,86.991 329.836,86.829 329.856,86.767 329.938,86.727 330.081,86.707 
	330.225,86.646 330.325,86.564 330.346,86.482 330.285,86.421 330.081,86.4 329.876,86.299 329.796,86.197 329.796,86.115 
	329.856,86.054 329.917,86.014 329.979,86.034 330.04,86.075 330.325,86.014 330.447,85.891 330.468,85.831 330.427,85.769 
	330.183,85.524 330.081,85.484 330,85.524 330.04,85.667 330.04,85.749 330,85.831 329.897,85.871 329.734,85.789 329.714,85.769 
	329.714,85.667 329.796,85.565 329.897,85.504 329.938,85.423 329.959,85.362 329.959,85.281 329.917,85.239 329.714,85.179 
	329.572,85.097 329.409,84.974 329.367,84.893 329.409,84.812 329.673,84.772 329.796,84.689 329.876,84.465 329.876,84.038 
	329.917,83.896 329.979,83.854 330.021,83.834 330.062,83.896 330.04,84.038 330.04,84.119 330.121,84.242 330.243,84.343 
	330.346,84.343 330.447,84.262 330.468,84.201 330.468,84.16 330.142,83.834 330.142,83.732 330.162,83.691 330.243,83.611 
	330.551,83.63 330.774,83.508 330.813,83.406 330.774,83.304 330.65,83.243 330.509,83.121 330.447,82.938 330.468,82.835 
	330.509,82.816 330.571,82.816 330.937,82.897 331.1,82.897 331.201,82.795 331.223,82.714 331.201,82.692 331.14,82.653 
	331.079,82.551 331.059,82.448 331.079,82.347 331.12,82.326 331.364,82.307 331.527,82.204 331.548,82.144 331.527,82.083 
	331.445,81.98 331.364,81.899 331.242,81.899 331.12,81.797 331.079,81.695 331.1,81.614 331.161,81.552 331.507,81.43 
	331.59,81.43 331.669,81.532 331.752,81.552 331.792,81.552 331.792,81.512 331.792,81.45 331.73,81.248 331.628,81.125 
	331.465,81.105 331.426,81.166 331.242,81.226 331.1,81.166 331.079,81.002 331.1,80.759 331.14,80.656 331.201,80.595 
	331.364,80.554 331.567,80.636 331.669,80.636 331.752,80.575 331.812,80.453 331.812,80.392 331.771,80.351 331.567,80.188 
	331.323,80.045 331.263,79.964 331.263,79.862 331.303,79.821 331.486,79.78 331.628,79.78 331.832,80.065 331.894,79.922 
	331.975,79.78 332.199,79.679 332.281,79.637 332.363,79.577 332.26,79.353 331.955,79.087 331.73,78.721 331.404,78.437 
	331.242,78.355 331.161,78.232 331.18,78.171 331.242,78.07 331.486,78.049 331.832,77.825 331.914,77.376 331.914,77.336 
	331.771,77.294 331.567,77.133 331.548,77.092 331.548,76.909 331.486,76.806 331.426,76.786 331.18,76.827 330.916,76.705 
	330.854,76.623 330.854,76.521 330.956,76.419 331.079,76.114 331.059,75.991 331.038,75.951 331.019,75.706 331.079,75.442 
	331.079,75.259 331.019,75.075 330.916,74.972 330.65,74.912 330.487,74.851 330.387,74.79 330.325,74.688 330.346,74.423 
	330.387,74.26 330.487,74.118 330.529,74.097 330.691,73.934 330.774,73.792 330.733,73.73 330.671,73.69 330.551,73.71 
	330.487,73.71 330.447,73.69 330.407,73.567 330.407,73.425 330.305,73.201 330.062,72.997 329.959,72.875 330.121,72.672 
	330.162,72.549 329.552,72.366 329.633,72.081 329.673,71.999 329.694,71.897 329.552,71.632 329.511,71.429 329.531,71.184 
	329.511,70.98 329.367,70.817 329.225,70.797 329.123,70.777 329.062,70.716 329.021,70.635 329.021,70.513 329.246,70.207 
	329.246,70.145 329.185,70.063 329.002,69.982 328.879,69.861 328.798,69.677 328.819,69.534 328.838,69.474 328.919,69.392 
	329.021,69.372 329.083,69.372 329.123,69.412 329.164,69.595 329.206,69.718 329.225,69.738 329.308,69.718 329.389,69.616 
	329.367,69.29 329.428,69.188 329.552,69.066 329.572,68.985 329.308,68.597 329.083,68.373 329.002,68.373 328.94,68.312 
	328.898,68.129 328.961,68.027 329.123,67.904 329.164,67.782 329.123,67.701 328.757,67.315 328.676,67.273 328.595,67.315 
	328.615,67.619 328.573,67.701 328.472,67.742 328.329,67.742 328.248,67.701 328.228,67.661 328.309,67.273 328.391,67.172 
	328.432,67.069 328.349,66.947 328.228,66.885 328.166,66.826 328.146,66.785 328.146,66.683 328.228,66.642 328.451,66.683 
	328.615,66.683 328.676,66.621 328.41,66.438 328.369,66.377 328.451,65.949 328.554,65.787 328.554,65.706 328.492,65.542 
	328.329,65.42 336.844,65.848 338.962,65.93 340.489,65.99 344.319,66.173 345.093,66.234 346.621,66.275 346.765,63.057 
	346.765,62.833 346.824,61.57 346.887,60.001 346.928,59.228 346.967,58.8 346.988,58.452 347.008,57.903 347.008,57.659 
	347.027,57.21 347.069,56.416 347.11,55.499 347.11,55.479 347.171,54.114 347.171,53.972 347.19,53.728 347.293,51.202 
	347.437,47.474 347.6,43.563 347.618,42.789 347.64,42.26 347.659,41.445 347.68,41.078 347.721,41.078 347.721,40.935 
	347.742,40.467 347.782,40.467 347.863,38.083 347.863,37.635 347.926,36.026 347.945,35.66 348.148,31.138 348.25,28.612 
	348.292,28.103 348.433,24.375 339.635,24.048 338.148,24.009 336.151,23.947 335.662,23.927 334.4,23.886 333.728,23.865 
	333.687,23.865 333.237,23.845 331.854,23.764 331.242,23.743 330.551,23.703 328.512,23.621 328.41,23.601 328.391,23.601 
	327.413,23.56 326.761,23.52 322.299,23.275 322.26,23.315 321.424,23.295 318.837,23.152 317.736,23.112 313.174,22.867 
	306.37,22.521 305.147,22.5 301.278,22.134 300.605,22.114 299.831,22.073 297.042,21.93 295.758,21.829 288.629,21.421 
	287.834,21.359 287.65,21.359 287.447,21.339 286.693,21.299 286.448,21.278 284.841,21.197 284.678,21.197 284.269,21.176 
	283.781,21.136 279.809,20.912 278.24,20.81 276.039,20.688 275.958,20.668 264.205,19.975 264.145,19.975 263.757,19.955 
	259.805,19.73 257.096,19.567 255.509,19.486 253.552,19.343 253.511,19.343 251.617,19.241 250.252,19.14 249.642,19.1 
	249.519,19.078 246.585,18.895 243.876,18.711 242.838,18.651 237.908,18.345 237.419,18.305 236.034,18.203 235.423,18.183 
	232.266,17.979 230.921,17.897 227.213,17.633 226.929,17.185 225.157,17.062 223.588,16.94 222.345,16.858 220.146,16.695 
	217.192,16.471 213.383,16.186 210.938,16.003 203.932,15.452 203.83,15.677 203.606,15.799 203.423,16.166 203.402,16.328 
	203.483,16.837 203.423,17.001 203.36,17.062 203.279,17.103 203.076,17.103 202.791,17.164 202.709,17.205 202.668,17.266 
	202.628,17.45 202.506,17.571 202.281,17.633 202.2,17.755 202.241,17.897 202.261,17.897 202.323,17.958 202.526,18.325 
	202.302,18.569 202.221,18.692 202.2,19.059 202.342,19.689 202.526,19.934 202.506,19.975 202.261,20.26 202.139,20.566 
	201.976,20.831 201.406,21.014 201.263,20.933 201.181,20.933 200.795,21.339 200.49,21.625 200.366,21.848 200.306,21.87 
	200.203,21.848 200.102,21.748 200.062,21.563 200,21.502 199.938,21.502 199.898,21.544 199.857,21.89 199.756,21.89 
	199.388,21.686 199.368,21.686 199.083,21.809 198.84,22.195 198.798,22.297 198.696,22.562 198.696,22.928 198.656,22.948 
	198.615,22.948 198.31,22.826 198.29,22.826 198.228,22.888 198.146,23.071 198.064,23.152 197.983,23.152 197.738,22.99 
	197.657,22.908 197.637,22.826 197.637,22.765 197.596,22.684 197.576,22.684 197.312,22.787 197.148,22.928 197.148,23.01 
	197.189,23.05 197.168,23.193 197.087,23.336 196.965,23.437 196.721,23.458 196.496,23.784 196.415,23.804 196.333,23.784 
	196.211,23.723 196.17,23.682 196.089,23.641 195.722,23.784 195.682,23.825 195.641,23.865 195.6,23.988 195.682,24.232 
	195.539,24.415 195.518,24.498 195.539,24.721 195.56,24.782 195.682,24.803 195.783,24.782 195.906,24.843 195.906,24.905 
	195.864,24.986 195.783,25.068 195.56,25.068 195.336,24.965 195.274,25.006 195.192,25.148 195.192,25.251 195.254,25.454 
	195.355,25.576 195.336,25.658 195.316,25.678 195.254,25.699 195.07,25.658 194.887,25.536 194.806,25.414 194.745,25.292 
	194.703,25.495 194.684,25.922 194.133,32.237 193.97,32.237 193.747,34.804 193.278,39.529 193.115,41.648 193.074,41.853 
	192.79,44.989 192.77,45.967 192.728,47.392 192.585,48.777 192.524,49.307 192.422,49.959 192.3,51.935 192.3,51.955 
	192.22,53.198 192.178,53.565 192.158,53.912 192.138,54.318 192.138,54.359 192.096,54.726 192.075,55.133 192.075,55.153 
	192.075,55.173 192.015,56.131 191.955,56.701 193.217,56.824 193.788,56.885 197.312,57.231 198.125,57.292 198.29,57.312 
	198.391,57.312 198.818,57.354 198.92,57.374 201.038,57.537 207.109,58.067 207.17,58.067 207.761,58.106 213.708,58.576 
	214.035,58.595 216.315,58.759 218.435,58.922 218.964,58.962 219.698,59.003 220.88,59.105 221.265,59.125 221.307,59.125 
	223.547,59.289 223.12,64.197 223.099,64.584 223.018,65.766 222.672,70.98 223.608,71.062 224.22,71.124 224.932,71.164 
	225.992,71.225 226.97,71.286 227.173,71.307 227.276,71.307 227.702,71.347 230.004,71.49 230.106,71.49 230.167,71.49 
	234.343,71.754 237.989,71.978 243.509,72.325 243.855,72.345 244.263,72.427 246.524,72.529 250.049,72.732 250.028,73.282 
	249.987,73.955 249.987,74.26 249.906,74.627 249.865,75.014 249.987,75.014 249.886,76.542 253.287,76.767 254.55,76.867 
	255.284,76.909 255.405,76.909 255.509,76.929 255.69,76.929 255.997,76.949 256.098,76.949 256.588,76.99 256.893,77.01 
	257.035,77.01 257.626,77.051 257.729,77.051 258.095,77.071 258.236,74.994 258.236,74.891 258.236,74.81 258.278,74.139 
	258.278,74.118 258.156,74.077 258.135,74.057 258.156,74.036 258.176,74.016 258.196,73.975 258.217,73.934 258.156,73.914 
	257.789,73.914 257.769,73.894 257.749,73.853 257.729,73.812 257.706,73.73 257.729,73.669 257.729,73.65 257.749,73.629 
	257.849,73.506 257.605,73.344 257.585,73.303 257.605,73.201 257.952,73.221 258.482,73.262 258.868,73.282 258.909,73.282 
	259.337,73.303 259.459,73.324 260.335,73.384 261.15,73.425 261.496,73.446 262.188,73.486 262.576,73.506 262.799,73.527 
	264.327,73.608 264.408,73.629 264.754,73.65 265.977,73.73 266.711,73.771 269.604,73.955 272.821,74.139 272.78,74.545 
	272.721,75.4 272.436,78.721 272.231,80.962 272.231,81.186 272.19,81.634 272.128,82.49 272.007,83.794 271.966,84.343 
	272.007,84.343 271.966,85.281 271.885,86.564 271.761,88.58 271.741,91.044 271.722,92.919 271.62,92.898 271.579,93.611 
	271.375,97.298 271.355,97.4 271.355,97.44 271.355,97.461 271.355,97.563 271.336,97.808 271.314,98.052 271.314,98.092 
	271.314,98.113 271.314,98.174 271.314,98.234 271.314,98.276 271.295,98.398 271.273,98.806 271.152,100.944 271.111,101.617 
	271.028,103.042 270.56,110.886 270.52,111.659 270.602,111.679 270.337,116.445 269.93,123.453 269.909,123.881 269.807,125.796 
	271.192,125.877 273.678,126 281.724,126.468 288.222,126.834 288.71,117.729 288.71,117.688 288.73,117.464 294.006,117.729 
	297.754,117.933 301.318,118.136 305.535,118.361 306.064,118.381 306.758,118.422 317.371,118.971 323.868,119.276 
	329.367,119.542 333.788,119.746 333.911,119.766 339.309,120.01 339.146,123.962 339.553,123.758 340.897,123.087 341.08,123.005 
	349.065,118.85 351.021,117.892 350.979,119.073 351.653,119.134 352.264,119.156 354.852,119.257 357.152,119.379 360.534,119.521 
	360.736,114.307 360.839,111.495 360.9,109.765 "/>
<polygon id="3500001" fill="#4D4D4D" stroke="#FFFFFF" stroke-width="0.75"  points="210.409,125.307 210.347,125.144 210.123,124.411 209.9,123.697 
	209.614,122.822 209.513,122.516 209.452,122.333 209.37,122.068 209.35,122.027 209.269,121.762 209.208,121.538 209.187,121.477 
	209.187,121.457 208.943,120.723 208.861,120.438 208.841,120.337 208.82,120.337 206.783,113.92 206.722,113.675 206.579,113.289 
	206.354,112.556 206.172,111.862 206.07,111.598 205.846,110.743 205.683,110.294 205.541,110.172 204.665,107.116 201.609,106.893 
	201.65,106.281 201.65,106.221 201.895,103.125 202.098,100.781 202.221,100.802 202.75,92.715 202.954,90.291 203.096,88.112 
	203.117,87.807 203.178,87.093 203.178,87.031 203.218,86.604 203.26,85.851 203.32,85.056 203.36,84.689 203.381,84.282 
	203.442,83.529 203.565,82.164 203.606,81.573 203.646,81.166 203.688,80.514 203.727,80.045 203.749,79.679 203.788,79.332 
	203.809,78.904 203.912,77.744 203.951,77.214 203.972,77.01 203.993,76.603 204.013,76.338 204.033,76.297 204.013,76.277 
	204.053,75.726 204.155,74.586 204.176,74.341 204.176,74.26 204.237,73.527 204.278,73.14 204.318,72.753 204.379,71.978 
	204.379,71.836 204.42,71.307 204.42,71.184 204.522,69.982 204.542,69.799 204.542,69.637 204.278,69.616 204.237,69.616 
	202.974,69.514 200.876,69.311 199.511,69.208 199.328,69.188 198.859,69.147 198.595,69.127 196.476,68.965 196.272,68.944 
	195.702,68.883 195.111,68.842 194.724,68.801 194.378,68.76 194.113,68.74 193.89,68.74 193.685,68.719 193.563,68.699 
	193.034,68.658 192.463,68.619 191.771,68.557 191.648,68.536 191.323,68.516 190.915,68.476 190.141,68.414 189.673,68.373 
	189.387,68.353 189.347,68.353 189.184,68.333 189,68.312 188.654,68.292 188.552,68.271 187.778,68.21 184.703,67.924 
	184.071,67.885 183.276,67.804 183.235,67.804 182.869,67.762 182.584,67.742 182.563,67.742 182.543,67.742 181.83,67.68 
	181.729,67.661 180.995,67.6 179.998,67.518 179.406,67.457 178.306,67.354 177.898,67.315 177.104,67.253 176.269,67.172 
	175.821,67.151 174.762,67.049 174.375,67.009 174.334,67.009 173.987,66.968 173.968,66.968 173.601,66.947 173.581,66.947 
	172.459,66.846 171.686,66.764 170.892,66.703 170.138,66.642 169.588,66.581 169.343,66.561 169.323,66.561 168.468,66.5 
	168.427,66.5 168.243,66.479 168.223,66.479 167.856,66.438 167.836,66.438 166.532,66.337 166.248,66.315 165.84,66.275 
	165.718,66.275 165.534,66.254 165.515,66.254 165.392,66.234 164.822,66.194 164.088,66.132 164.006,66.132 163.272,66.072 
	162.642,66.011 160.422,65.807 160.259,65.787 159.771,65.745 158.752,65.664 154.188,65.257 153.597,65.196 152.05,65.053 
	151.215,64.972 151.132,64.972 150.481,64.911 150.176,64.869 147.69,64.646 147.426,64.625 146.692,64.564 141.641,64.096 
	141.539,64.096 140.48,63.993 139.502,63.892 138.055,63.75 137.974,63.75 137.669,63.729 137.057,63.668 136.039,63.566 
	135.286,63.484 135.102,63.484 135,63.484 134.776,63.444 132.066,63.199 131.742,63.179 131.62,63.159 131.212,63.118 
	130.132,63.037 129.989,64.584 129.745,67.13 129.664,68.007 129.583,68.883 129.562,69.127 129.542,69.229 129.5,69.595 
	129.256,72.244 129.235,72.345 129.216,72.732 129.134,73.547 128.97,75.096 128.869,76.216 128.706,77.886 128.625,78.742 
	128.564,79.495 128.38,81.288 128.38,81.349 128.278,82.49 128.157,83.711 128.135,83.834 128.115,84.058 128.075,84.567 
	128.034,84.812 127.973,85.585 127.892,86.339 127.85,86.746 127.81,87.113 127.81,87.134 127.789,87.48 127.728,88.009 
	127.728,88.112 127.585,89.517 127.504,90.291 127.444,91.065 127.362,91.798 127.28,92.613 127.219,93.306 127.158,93.999 
	127.137,94.06 127.137,94.101 127.056,94.956 127.016,95.424 126.914,96.422 126.892,96.646 126.853,97.075 126.832,97.278 
	126.832,97.339 126.832,97.379 126.71,98.582 126.71,98.744 126.669,99.049 126.649,99.233 126.607,99.763 126.567,100.313 
	126.485,101.107 126.425,101.902 126.343,102.636 126.343,102.676 126.282,103.369 126.282,103.43 126.201,104.184 126.119,104.999 
	126.098,105.283 126.059,105.711 125.977,106.586 125.895,107.361 125.854,107.829 125.122,115.692 124.815,118.931 124.51,121.904 
	124.346,123.697 124.286,124.39 124.123,125.958 124.082,126.732 123.98,127.485 123.939,128.261 123.837,129.034 122.84,139.3 
	123.125,139.341 123.776,139.403 125.446,139.545 125.528,139.565 125.589,139.565 125.61,139.525 134.267,140.401 135.55,140.502 
	149.34,141.745 150.074,141.847 151.581,141.989 164.373,142.967 165.352,143.069 165.982,143.191 168.019,143.396 168.447,143.455 
	169.996,143.517 170.708,143.619 173.01,143.802 174.986,143.986 177.43,144.148 178.184,144.271 178.959,144.312 180.486,144.475 
	180.71,144.495 181.178,144.557 181.871,144.515 181.994,144.515 182.727,144.617 184.825,144.739 186.922,144.923 187.37,144.964 
	188.063,145.045 188.716,145.004 188.858,145.004 189.652,145.126 194.214,145.473 194.948,145.554 197.271,145.758 
	197.678,145.758 202.648,146.186 203.198,146.226 203.26,145.554 203.341,144.475 203.341,144.333 203.423,143.538 203.503,142.254 
	203.503,142.234 203.565,141.5 203.727,139.912 203.85,137.998 204.095,135.267 204.115,134.963 204.135,134.941 204.155,134.514 
	204.155,134.433 204.216,133.74 204.237,133.578 204.278,132.986 204.318,132.293 204.339,132.13 204.4,131.397 204.461,130.623 
	204.583,128.994 204.727,127.1 204.766,126.671 204.807,126.182 204.807,125.958 205.031,125.898 205.418,125.938 205.52,125.938 
	205.541,125.938 206.192,126 206.334,126.02 207.231,126.101 207.862,126.142 210.286,126.325 210.735,126.366 210.429,125.388 "/>
<polygon fill="#4D4D4D" stroke="#FFFFFF" stroke-width="0.75"  points="249.335,81.329 249.335,81.349 249.438,81.471 249.479,80.575 248.255,80.514 
	248.5,80.676 248.724,80.737 248.826,80.88 248.847,80.962 248.908,81.023 249.397,81.268 "/>
<path id="3542140" fill="#4D4D4D" stroke="#FFFFFF" stroke-width="0.75"  d="M269.604,73.955l-2.894-0.182l-0.734-0.042l-1.223-0.081l-0.346-0.02
	l-0.081-0.021l-1.528-0.082l-0.223-0.021l-0.388-0.02l-0.692-0.041l-0.346-0.021l-0.815-0.041l-0.876-0.062l-0.122-0.02l-0.428-0.02
	h-0.041l-0.386-0.02l-0.53-0.042l-0.347-0.02l-0.02,0.102l0.02,0.041l0.245,0.163l-0.101,0.123l-0.021,0.021v0.019l-0.021,0.062
	l0.021,0.082l0.021,0.04l0.019,0.042l0.021,0.02h0.367l0.061,0.021l-0.02,0.041l-0.021,0.041l-0.021,0.021l-0.021,0.021l0.021,0.021
	l0.122,0.041v0.021l-0.041,0.671v0.082v0.102l-0.143,2.078l-0.366-0.019h-0.103l-0.591-0.042h-0.143l-0.307-0.02l-0.488-0.041
	h-0.102l-0.307-0.021h-0.182l-0.103-0.02h-0.122l-0.734-0.042l-1.263-0.101l-3.401-0.224l0.102-1.527h-0.123l0.042-0.388h-0.713
	l0.041-0.388l-1.568-0.142l-0.04,0.814l-0.713-0.061l0.04,0.326l-0.692-0.021l-0.774-0.081l-1.568-0.103l0.021-0.407l-0.571-0.042
	l-0.142,1.936l-0.082,1.324l-0.123,1.976l-0.122,1.833v0.062l-0.815-0.062l-0.04,0.448l0.163,0.346l0.123,0.142l0.325,0.163
	l0.123,0.041l0.183-0.041l0.59,0.061l0.244-0.082l0.143-0.122l0.163-0.021l0.327,0.102l0.142,0.163l0.082,0.123l0.041-0.53
	l0.469,0.244l0.285,0.245l0.244,0.08l0.326,0.021l1.08,0.59l0.693,0.346l0.671,0.713l0.224,0.529l0.102,0.021l0.062,0.59
	l0.042,0.244l0.142-0.101h0.02l-0.02,0.04l0.102,0.021l-0.224,3.524v0.184l-0.041,0.571v0.02l-0.408,5.887l-0.061,0.978l-0.02,0.061
	l-0.042,0.856l-0.102,1.324l-0.02,0.326l0.02,0.02l-0.204,2.933v0.102l-0.265,3.525l-0.265,3.911l0.142,0.021l-0.062,0.591
	l-0.163,2.954l-0.021,0.366v0.142l-0.04,0.753l-0.021,1.181l-0.163,2.587l-0.021,0.163l-0.061,1.039v0.102v0.02l-0.02,0.122
	l-0.021,0.265l-0.082,1.121v0.02l-0.02,0.387v0.021v0.02v0.082l-0.041,0.346v0.163l-0.021,0.122v0.021v0.061l-0.021,0.448
	l-0.02,0.123v0.122l-0.062,0.876h0.185l1.567,0.102h0.021h0.041h0.042h0.041l0.163,0.021h0.042h0.062h0.121l0.693,0.061h0.285
	l0.082,0.021h0.062l0.182,0.02l0.958,0.042l0.285,0.019l0.041,0.021l0.042-0.021h0.081h0.163l0.978,0.082l0.307,0.021l0.915,0.041
	l0.266,0.02l0.041,0.021l0.773,0.02l0.224,0.02l0.672,0.042l1.243,0.082l5.438,0.285l0.103,0.041l5.336,0.346l0.02-0.041
	l1.528,0.102h0.021l0.103-1.915l0.02-0.427l0.408-7.008l0.265-4.767l-0.082-0.02l0.042-0.774l0.468-7.843l0.082-1.425l0.041-0.672
	l0.121-2.138l0.021-0.408l0.02-0.122v-0.042V98.17v-0.062V98.09v-0.041l0.021-0.244l0.021-0.244v-0.103V97.44V97.4l0.019-0.102
	l0.205-3.687l0.04-0.713l0.103,0.021l0.02-1.875l0.021-2.464l0.122-2.016l0.081-1.283l0.041-0.938h-0.041l0.041-0.55l0.122-1.304
	l0.062-0.855l0.041-0.448v-0.224l0.204-2.241l0.285-3.321l0.06-0.855l0.041-0.407L269.604,73.955z M248.908,81.023l-0.061-0.062
	l-0.021-0.081l-0.102-0.143l-0.224-0.061l-0.244-0.163l1.223,0.061l-0.041,0.898l-0.103-0.123V81.33l0.062-0.061L248.908,81.023z"/>
</svg>
