<?xml version="1.0" encoding="utf-8"?>
<!-- Generator: Adobe Illustrator 13.0.2, SVG Export Plug-In  -->
<!DOCTYPE svg PUBLIC "-//W3C//DTD SVG 1.1//EN" "http://www.w3.org/Graphics/SVG/1.1/DTD/svg11.dtd" [
	<!ENTITY ns_flows "http://ns.adobe.com/Flows/1.0/">
]>
<svg  version="1.1" style="background-color: #000000;" 
	 xmlns="http://www.w3.org/2000/svg" xmlns:xlink="http://www.w3.org/1999/xlink" xmlns:a="http://ns.adobe.com/AdobeSVGViewerExtensions/3.0/"
	 x="0px" y="0px" width="500px" height="400px" viewBox="-37.712 -72.073 500 400" enable-background="new -37.712 -72.073 500 400"
	 xml:space="preserve">
<defs>
</defs>
<polyline id="1526180" fill-rule="evenodd" clip-rule="evenodd" fill="#666666" stroke="#FFFFFF" stroke-width="0.75"  points="191.238,43.326 
	191.658,43.806 192.049,44.856 192.259,45.396 192.738,46.236 192.889,46.506 193.278,46.806 193.309,46.806 193.309,46.896 
	193.309,46.956 193.339,47.136 193.429,47.826 193.429,47.886 193.429,48.006 193.368,48.516 193.519,48.786 193.849,49.236 
	193.938,49.386 194.328,49.956 195.078,50.376 195.318,50.706 196.158,51.906 196.759,52.776 196.669,53.946 197.118,54.156 
	197.538,53.676 198.318,53.916 198.589,54.156 198.979,54.906 199.398,55.687 199.729,56.316 199.698,57.726 198.799,57.937 
	198.709,58.296 198.589,58.687 198.828,59.886 198.919,60.246 199.009,60.756 199.129,61.296 199.339,61.687 199.459,61.866 
	199.488,61.866 199.519,61.866 199.578,61.896 199.608,61.896 200.629,62.166 201.259,62.586 201.438,63.366 202.038,64.146 
	202.368,64.416 202.698,64.687 202.908,64.866 203.448,65.286 203.688,65.226 203.929,65.166 204.318,64.836 204.469,64.206 
	204.499,64.056 204.469,63.846 204.408,63.216 204.288,62.316 204.499,61.986 205.038,61.716 205.459,61.716 205.818,61.716 
	206.448,61.806 206.719,61.836 207.019,61.866 207.469,62.136 207.469,62.646 207.499,63.006 207.169,63.486 207.139,63.606 
	206.988,64.026 206.929,64.266 206.809,64.626 206.778,65.376 206.839,65.586 206.898,65.916 206.959,66.187 207.589,66.366 
	207.738,66.336 207.769,66.336 207.858,66.306 208.009,66.246 208.068,66.246 208.099,66.276 208.129,66.276 208.158,66.276 
	208.188,66.396 208.219,66.456 208.249,66.546 208.429,66.816 208.818,67.386 209.148,67.836 209.179,68.136 208.879,68.946 
	209.028,69.786 209.179,70.176 209.299,70.386 209.599,70.866 210.019,71.496 210.259,71.766 210.679,72.036 210.919,72.216 
	210.979,72.246 211.099,72.336 211.698,72.726 212.419,73.206 212.448,73.206 212.479,73.236 212.629,73.326 213.108,73.296 
	213.349,73.266 213.349,73.416 213.229,74.196 212.269,74.886 210.648,76.086 210.229,76.416 210.229,76.986 209.809,77.196 
	209.118,77.346 208.788,77.196 208.788,76.986 208.999,76.566 208.938,75.816 208.759,75.576 208.249,75.396 208.219,75.396 
	207.139,75.696 206.809,75.786 205.608,76.086 205.249,76.056 205.038,76.026 204.528,76.266 204.078,76.446 203.959,76.566 
	203.839,76.687 203.479,77.016 202.969,77.496 202.849,77.496 202.488,77.556 201.769,77.706 201.499,77.616 200.929,77.466 
	200.688,77.166 200.629,76.626 200.419,76.386 200.118,75.996 199.879,75.786 199.129,75.156 198.229,74.826 197.959,74.706 
	197.448,74.496 197.179,74.406 195.858,73.866 195.589,73.086 195.528,72.846 195.438,72.666 195.198,72.246 194.778,72.096 
	194.688,72.156 194.599,72.246 194.238,72.516 193.729,72.937 193.818,73.296 194.118,73.536 194.328,73.926 191.269,73.866 
	191.389,73.416 191.328,73.056 191.299,72.937 191.299,72.906 190.129,72.187 189.979,72.216 189.858,72.216 189.738,72.246 
	188.809,72.816 188.538,72.966 188.299,73.056 185.988,73.656 185.568,73.716 184.309,73.956 181.278,74.466 180.198,74.556 
	179.479,74.226 178.879,73.056 178.788,72.636 178.788,72.606 179.538,72.306 179.389,71.946 179.059,71.706 178.999,71.676 
	178.549,72.006 178.129,70.236 177.979,69.726 177.589,68.856 177.528,68.736 177.469,68.586 177.259,68.316 177.229,68.286 
	176.778,67.687 176.389,67.296 175.908,66.816 174.618,66.187 174.559,66.006 174.469,65.766 174.499,64.896 174.379,64.176 
	174.288,63.996 174.229,63.906 174.198,63.846 174.078,63.606 173.749,62.946 173.658,62.766 172.938,62.076 172.698,61.836 
	172.488,61.687 171.679,61.056 171.108,60.246 170.749,59.736 170.688,59.646 170.809,56.796 170.778,56.076 170.599,55.536 
	169.398,54.156 167.599,52.926 167.269,52.716 167.419,52.476 169.129,52.176 173.778,51.937 175.309,52.206 177.679,51.966 
	178.578,51.876 178.698,51.786 179.959,51.096 179.959,51.006 179.959,50.586 179.749,50.376 179.839,50.226 180.259,49.926 
	181.908,48.606 182.868,47.406 182.898,46.716 183.078,46.236 183.318,46.026 185.059,44.196 185.959,43.416 186.438,42.966 
	188.328,42.336 188.719,42.006 190.068,41.976 191.238,43.326 "/>
<path id="1500001" fill-rule="evenodd" clip-rule="evenodd" fill="#666666" stroke="#FFFFFF" stroke-width="0.75"  d="M24.648,34.566l-0.479-0.36
	l-0.78-1.17l-0.15-0.21l-0.12-0.181l0.391-2.67l0.06-0.18l0.51-1.41l0.301-0.779v-0.061l0.18-0.479l0.15-0.21l1.109-0.78l0.63-0.66
	l0.21-0.36l0.601-0.569l0.18-0.15l0.15-0.149l1.68-0.69l2.25-1.23l0.72-0.51l0.15-0.3l0.21-0.27l0.24-0.811l0.12-0.39l0.39-1.351
	l0.63-0.24l0.271-0.119l0.3-0.12l0.6-0.03l1.021-0.06l0.149-0.03l0.99,0.57l0.45,1.02l-0.061,0.24l-0.27,0.21l-0.3,0.09l-0.21-0.15
	l-0.181,0.15l-0.93,1.65l-0.57,2.189l0.391,1.29l0.06,1.17l-1.47,0.87l-0.12,0.03l-0.24,0.09l-1.5,0.48l-1.71,0.27l-1.05,0.63
	l-0.96,1.38l-1.14,1.92l-1.171,2.61l0.36,0.21l-0.42,0.54l-0.45-0.18l-0.12-0.061l-0.3-0.12l-0.54-0.39l-0.03-0.06l-0.06-0.03
	L24.648,34.566 M0.499,43.776l0.09,1.5l0.359,0.33l0.511-0.211l-0.061-1.5l-0.54-0.239L0.499,43.776 M260.238,83.136l-1.859-0.42
	h-0.57l-0.39,0.18h-0.15h-0.06l-0.631-0.029l-0.779-0.21l-1.681-0.48l-1.14,0.061l-0.33-0.091l-0.78-0.209l-1.199-0.091l-0.12,0.061
	l-0.12,0.09h-0.03h-0.63l-2.1-0.36l-0.511-0.18l-0.72-0.9l-0.72-0.18l-1.08,0.12l-1.11-0.06l-1.14-0.48l-0.271,0.12l-0.18,0.39
	l0.15,0.24l0.33,0.15l0.479,0.63l-0.03,1.319l-0.27,0.75l-0.39,0.511l-1.08,0.96l-0.12-0.03l-0.601,0.42l-0.689,0.93l-0.391,0.78
	v0.27l-1.02,2.131l1.11,0.689l3.239,0.48l8.16-0.54l1.351-0.48l1.29-0.18l0.359-0.06l0.54-0.061h0.12l1.021,0.03l3.09,0.6l0.42,0.54
	l0.09,0.03l0.36,0.12l0.84,0.21l0.149,0.06l0.42,0.09l0.301,0.09l0.39,0.12l0.69,0.24l0.09,0.03l0.54,0.18l1.92,0.63l0.12,0.03
	l3.96,0.811l0.239,0.06l0.24,0.3l1.08,0.21l0.84-0.689l2.221-0.45l3.029-0.99l0.24-0.48l1.08-0.63l1.979-1.5l1.681-1.89l0.87-1.56
	l0.09-0.75l-0.51-0.181l-1.261,0.181l-0.12-0.78l-0.3-0.33l-1.02-0.15l-1.141-0.149l-3.689,0.45l-1.44,0.539l-1.95,0.301l-2.1-0.601
	l0.03,0.21l-0.15,0.301l-0.39,0.119l-1.08-0.3l-0.21,0.42h0.12l0.18-0.06l0.33,0.3l0.06,0.15l0.36,0.45l0.6,0.359l-0.119,0.15
	l-0.091,0.899v0.061l0.12,0.149l-1.319,0.181l-0.24-0.15l-0.3-0.36l-0.271-0.18l-0.06-0.12l-0.09-0.3l-0.271-0.45l-0.18-0.27
	l-0.33-0.271v-0.27l-0.061-0.03l-0.42,0.33v0.03l0.03,0.06l-0.06,0.03l-0.181,0.06l-0.359-0.18l-0.15-0.15l-0.09-0.239l-0.03-0.75
	l0.03-0.33l-0.12-0.36l-0.15-0.06l-0.06,0.029l0.06,0.36v0.3l-0.09,0.391l0.3,0.359l-0.21,0.18h-0.149l-0.03-0.029l-0.24-0.21
	l-0.06-0.09l-0.03-0.03l-0.149-0.12l-0.03-0.15l0.03-0.12l-0.15-0.359v-0.12l-0.42-0.24l-0.36-0.06l-0.54,0.09l-0.87,0.03
	l-0.659-0.33l-0.181-0.03V83.136 M291.828,95.286l-0.39-0.45l-1.05-0.09l-0.42,0.54v0.21l-0.54-0.24l-1.71,0.03l-0.12,0.42
	l0.12,0.18l-0.24,0.45l-0.479,0.42l-0.961,0.181l-0.359,0.659l-0.75,1.44l-0.87,2.01l-0.03,0.061l-0.06,0.09l-0.391,2.52l0.181,0.36
	l0.3,0.18l0.03,0.03l0.12,0.09l0.239,0.48l0.03,0.72v0.479l-0.06,0.181l0.359,0.659l0.24,0.45l0.15,0.3l0.84,0.931l0.029,0.03
	l2.641,2.88l6.21,2.939l0.75,0.36l0.93-0.21l0.061-0.09l0.239-0.391l0.181-0.27l0.18-0.3l0.75-0.42l0.3-0.061l0.811,0.12h0.09
	l1.2,0.6l0.689,0.69l0.061,0.3l0.09,0.42v1.47l0.06,0.271l0.15,0.6l0.09,0.48l0.42,0.42l0.15,0.45l0.06,0.6l0.12,1.021l0.24,2.279
	l0.149,1.23v0.09l0.03,0.21l-0.15,0.54l-0.359,0.57l0.6,2.22l-0.09,0.45l0.42,0.51l0.51,0.24l0.301-0.061l0.33-0.239l0.39,0.27
	l0.149,0.36l-0.119,0.33l0.18,0.27l2.01,0.42l0.15,0.03l0.63,0.12l0.51-0.03l0.811-0.24l0.569-0.42l2.13-0.12l0.36,0.03l0.27,0.03
	l0.12,0.03l0.721,0.06h0.029l0.061-0.03l0.6-0.18h0.03l0.39-0.27l0.271-0.33l0.12-0.061l1.229-0.359l0.54-0.301l0.9-0.479
	l0.51-0.271l0.24-0.12l0.779-0.54l0.181-0.09l0.93-0.359l1.29-0.271l0.6,0.15l0.841,0.42l0.27-0.271l0.96-0.18l0.63,0.03l0.271,0.39
	l0.149,0.03l0.931-0.3l0.659-0.511l0.66-0.329l0.271-0.15l1.38-0.72l0.57-0.45l1.619,0.149l0.45-0.18l0.721-0.84l0.239-0.63
	l0.69-0.75l0.78-0.36l0.449,0.09l0.9-0.989l0.72-1.23l0.33-0.72l0.09-1.681l-0.12-1.14l0.181-0.69l-0.271-0.72l-1.109-0.989
	l-0.03-0.12l-0.03-0.36l-2.22-0.96l-1.95-0.15l-0.03-0.06l-2.25-1.59l-0.72,0.27l-1.14,0.12l-1.021-1.59l-0.27-1.08l-2.521-0.3
	l-0.27-0.69l-0.21-0.18l-1.8-1.32l-1.41-1.02l-0.12-0.75l-0.3-0.12l-0.36,0.12l-0.24-0.09l-0.029-1.08l-0.9-0.48l-1.2-0.149
	l-0.33-0.061l-0.87,0.3l-0.84-0.81l-1.529,0.42l-1.29-0.57l-0.601,0.301l-0.51,0.449l-0.12,0.09h-0.03l-0.029,0.061l-0.271-0.21
	h-0.51l-0.93,0.51l-0.391,0.21l-0.24,0.391l-0.869,0.63l-0.75,0.18l-0.03,0.03l-1.92,0.449l-2.04,0.75l-0.811,0.301l-0.689,0.239
	l-0.271,0.091l-0.479-0.271l-0.21-0.3v-0.03l-0.03-0.06l-0.39-0.601l-0.271-0.39l-0.06-0.24l-0.03-0.21l-0.12-0.51l-0.27-0.51
	l-0.63-0.24l-0.181-0.21l-0.149-0.84l-0.48-0.271l-0.72-1.02l-1.351-2.91h-0.27l-0.96-0.87l-1.29-0.3L291.828,95.286
	 M260.719,103.206l-1.141,0.03l-0.75,0.18l-1.71,1.08l-0.239,0.72l0.09,1.08l0.12,0.48l0.39,0.569l3.21,1.771l0.36,0.359l1.08,1.801
	l0.21,0.869l-0.36,2.28l0.69,2.34l1.26,1.681l1.41-0.301l2.939-0.06l1.38-0.45l1.5-0.779l1.351-0.42l0.39-0.03l0.57-0.33l1.53-2.37
	l0.569-1.17l0.09-0.87l-0.09-0.45l-1.17-1.92l-0.899-0.99l-4.44-4.05l-1.59-0.54l-1.41-0.21l-2.49-0.06l-1.35-0.45L260.719,103.206
	 M293.599,128.406l-0.72-0.12l-2.04,0.84l-0.45,0.18l-0.271,0.54l-1.409,0.9l-0.69,0.42l-0.63,0.39l-1.08,0.36l-1.021,0.33
	l-0.72,0.72l-0.479,0.51l-0.42,0.721l-0.091,0.42l1.561,1.59l0.6,0.06l0.45,0.091l0.63-0.24l0.271-0.12l0.66-0.24l0.39,0.3
	l0.81-0.54l2.011-0.75l1.319,0.96l1.92-0.81l0.75,0.12l0.42-0.21l0.21-0.24l0.12-0.12l-0.029-0.57l-0.96-0.359l-0.24-0.24l0.51-2.04
	l0.45-0.42l-0.03-0.51l-0.24-0.36l-0.54-0.779l-0.39-0.271L293.599,128.406 M347.089,170.166l0.09,0.12l0.33,0.39l0.24,0.3
	l0.119,0.181l0.42,0.51l0.57,0.72l0.21,0.75l-0.21,2.37l-0.149,0.78l-0.061,0.24l-0.24,0.51l-0.239,0.06l-0.15-0.12l-1.17,0.66
	l-0.66,1.021l-0.09,0.149l-1.89,1.74l-0.12,0.42l0.029,0.3l-0.569,0.87l-0.54,1.051v0.029l-0.03,0.03l-0.06,0.12l-0.36,0.75
	l-0.72,0.96l-0.12,0.36l0.12,0.899l-1.08,0.54l-0.36-0.09l-0.3-0.271l-1.17,0.15l-0.87,0.39l-0.45,0.391l-1.5,1.92l-0.06,0.09
	l-0.061,0.09l-0.09,0.12l-1.14,1.2l-2.04,1.74l-0.181,1.859l-0.359,1.141l-0.51,0.93l0.899,0.93l0.09,1.17l0.271,0.36l0.899,0.66
	l0.511,0.899l0.149,0.511l-0.18,0.09l-0.271,0.149l-0.09,0.78l0.15,0.42l0.3,0.3l1.89,0.45l0.45,0.09l0.15,0.3l0.42,0.78l0.75,1.351
	l0.15,0.27l0.149,0.45l0.42,1.26l0.15,2.37l0.3,0.09l0.24,0.24l0.149,0.39l0.21,1.141l0.061,0.3l0.27,1.41l0.061,1.68l0.12,0.15
	l0.93,0.39l0.21-0.03v-0.06l0.03-0.24l0.39,0.06l0.48,0.271l0.12,0.21l-0.181,0.84l0.09,2.28l0.21,0.66l0.96,1.17l-0.06,0.21
	l-0.27,0.9l1.14,1.8l0.78,2.34l0.119,0.87l-0.21,2.97l-0.329,1.92l-0.511,1.29l-0.149,2.19l0.149,0.989l-0.989,4.86l-0.24,2.7
	l0.99,3.12l0.029,0.029h0.33l1.351,1.95l0.18,1.29l0.18,0.21l2.07,0.96l1.11,0.24l2.489,0.479l3.21,2.461l2.82,0.93l0.15,0.15
	l1.229,1.079l1.11,0.99l0.24,0.66l0.149,0.51l0.061,0.181l0.18,0.149l0.24,0.21l0.569,0.061l0.181,0.029l0.989-0.6l1.53-1.35
	l0.21-0.36l0.391-0.601l0.21-0.3l0.119-0.18v-0.15l0.811-0.689l0.899-0.12l0.391-0.69l0.03-1.439l1.02-1.86l0.39-0.39l0.75-0.42
	l0.66-1.11l0.15-0.57l-0.03-1.229l-0.21-0.99l0.51-0.54l0.45-0.18l1.17-1.8l0.21-0.15l0.48-0.12l0.54-0.57v-0.3l-0.21-0.33
	l0.66-0.42l0.06-0.029l2.94-0.75l0.899-0.421l1.53-1.47l0.39-0.72l0.72-0.66l1.08-0.6l0.9-0.48l0.9-0.12l1.319-0.54l0.84-0.689
	l0.57-1.29l2.07-1.351l0.689-0.869l0.511-0.36l2.399-0.69l1.53,0.21l2.85,0.75l0.721-0.029l0.659-0.391l1.11-0.27l0.96,0.06
	l1.92-0.66l1.5-1.17l3.811-2.1l3.029-1.23l0.12-0.06l2.55-1.26l0.271-0.15l1.17-1.29l1.5-1.32l1.14-1.26l3-2.31l0.99-0.69l0.42-0.27
	l2.19-2.04l0.75-0.96l0.39-0.45l0.93-2.97l-0.029-0.271l-0.36-0.6l-0.93-0.57l-0.811-0.03l-1.14-0.84l-1.68-0.54v-0.029l-1.17-0.54
	l-0.99-0.48l-0.931-0.72l-0.18-0.15l-0.45-0.33l-0.3-0.479l-0.12-0.09l-0.3-0.271l-1.02-0.569l-0.301-0.69l0.24-0.66v-0.18
	l-0.21-0.15l-1.02-0.06l-0.78-0.45l-0.69-0.63l-0.029-0.42l-0.091-1.98l0.211-1.439l-0.48-1.41l-0.42-0.87l-0.21-0.39l-0.15-0.271
	l-0.66-0.81l-0.029-0.03l-2.91,0.03l-0.57,0.39l-0.78,0.479l-0.72,0.15l-0.42,0.09l-0.479-0.12h-0.091l-0.21-0.3l-0.18-0.33
	l-0.09-0.09v-0.03l-0.061-1.62v-0.06v-0.93v-0.09l0.15-0.33l-0.03-0.391l-0.06-1.439l-0.12-0.57l-0.09-0.63l0.27-0.66l0.12-0.27
	l0.21-0.931l0.09-0.87l-0.149-0.449l-0.66-0.96h-0.27l-0.69-0.36l-0.51-0.51l-0.54-0.51v-0.03l-0.24-0.87l-0.39-0.57l-0.12-0.149
	l-0.99-1.051l-0.36-0.18l-2.34-2.04l-1.08-0.689l-0.149-0.181l-0.601-0.66l-0.93-0.54l-0.72-0.42l-1.11-0.63l-0.42-0.33l-0.24-0.239
	l-0.18-0.15l-0.72-0.57l-0.15-0.149l-0.12-0.091l-0.21-0.18l-0.18-0.149v-0.03l-0.9-0.54l-0.359-0.06l-0.601-0.12l-1.8-0.721
	l-0.811-0.33l-2.13-1.079l-0.359-0.181l-1.8-0.899l-0.961-0.57l-0.149-0.061l-0.24-0.27l-2.49-1.08l-0.39-0.15l-1.8-0.689
	l-2.55-0.72l-0.601-0.03l-0.479-0.03l-0.511-0.36l-2.159-0.72l-0.45-0.149l-0.72,0.09l-0.961,0.57l-0.479,0.06l-0.21,0.03
	l-0.54-0.15l-0.21-0.15l-0.51-0.899l-1.261-0.601l-0.449-0.06l-1.771-1.59l-3.6-1.771l-2.28-1.109l-0.24-0.54l-0.09-0.811
	l-0.75-0.75l-1.41-0.72l-0.51-0.27l-0.42-0.03h-0.06l-0.301-0.03l-1.35-0.689l-0.75-0.36l-0.15-0.06l-2.97-0.78l-1.53,0.33
	l-0.63,0.359l-0.6,0.63l-0.78,1.53l-0.3,2.4l0.6,4.649l1.141,3.061l1.319,2.189l1.11,1.11H347.089 M80.719,1.056l-0.96-0.479
	l-0.601-0.061l-0.899,0.601l-0.03,0.63v0.03v0.479l-0.51,0.39l-0.3-0.09l-0.12-0.029l-0.09-0.03h-0.03l-0.061-0.06l-0.149-0.211
	l-0.061-0.3l-0.029-0.06l-0.301-0.15l-0.779-0.149l-0.48,0.21l-0.18-0.271l-0.09-0.09l-0.271-0.39l-0.42-0.15l-0.39-0.09l-0.33,0.03
	l-0.811,0.09l-0.63,0.06l-0.569,0.57l-1.261,0.87l-2.609,1.68l-0.271,0.18l-1.62,1.021l-1.59,0.3l-0.6,0.09l-1.92,1.021l-0.57,0.72
	l-0.21,0.81l-0.09,0.301l-0.271,1.02l-0.54,1.2l-2.34,2.16l-0.479,0.689l-0.15,1.05l-0.03,0.091l-0.18,1.409l0.18,0.99l0.33,0.51
	l0.811,1.261l0.479,0.75l0.54,0.479l1.65,0.48l1.11,0.33l0.39,0.21l0.72,0.39l0.72,0.12l0.99,0.15l0.72,0.239l0.181,0.21v0.03h0.03
	l1.5,1.68v0.03l0.449,0.72l0.271,0.511l0.45,0.33l0.479,0.329l0.12,0.091l0.39,0.3l0.48,0.39l0.09,0.061h0.18l0.811-0.03h0.18h0.12
	h0.42h0.18l0.12-0.03l0.36-0.09l0.21,0.3l1.44,0.45h1.05l1.68,0.06l0.84,0.061l1.141,0.12l0.149,0.06l0.811,0.271l0.42,0.149
	l1.83,0.9l0.39-0.24l0.72-0.479l0.21-0.12l0.21-0.15l0.511-0.39l0.81-0.63l0.78-0.87l1.109-1.23l1.92-1.17l0.421-0.87l0.63-0.42
	l0.239-0.149l0.301-0.24l0.119-0.24v-0.689l-0.029-0.391l-0.061-0.39l-0.149-1.11l-0.061-0.479l-0.239-2.01l0.27-1.381v-0.06
	l0.03-0.03l0.06-0.12l0.15-0.27l0.09-0.15l0.63-0.33l0.18-0.27l0.061-0.09l0.18-0.841l0.03-0.029l0.09-0.42v-0.09l0.69-1.141
	l0.06-0.09l0.27-0.51l0.511-0.84l0.029-0.24l0.061-0.51V9.216l0.06-0.479l-0.029-0.24v-0.48v-0.39l-0.061-0.09l-0.09-0.33h-0.03
	l-0.12-0.09l-0.06-0.03h-0.03l-0.45-0.27l-0.119-0.061v-0.09l-0.03-0.09v-0.03l-0.03-0.15l-0.03-0.18l-0.029-0.18l-0.061-0.18
	l-0.029-0.271l-0.061-0.27l-0.03-0.181l-0.06-0.24l-0.12-0.6l-0.54-0.54l-0.66-0.66l-0.42-0.42l-0.12-0.09l-1.02-0.75h-0.24
	l-0.18,0.24l-0.57-0.03l-0.33-0.09l-1.02-0.33l-0.15-0.24h-0.03V1.356l-1.38-0.57l-1.05,0.479l-0.06,0.03l-0.66,0.3l-0.75-0.51
	l-1.021-0.18L80.719,1.056"/>
</svg>
