<?xml version="1.0" encoding="utf-8"?>
<!-- Generator: Adobe Illustrator 13.0.2, SVG Export Plug-In  -->
<!DOCTYPE svg PUBLIC "-//W3C//DTD SVG 1.1//EN" "http://www.w3.org/Graphics/SVG/1.1/DTD/svg11.dtd" [
	<!ENTITY ns_flows "http://ns.adobe.com/Flows/1.0/">
]>
<svg  version="1.1" style="background-color: #000000;" 
	 xmlns="http://www.w3.org/2000/svg" xmlns:xlink="http://www.w3.org/1999/xlink" xmlns:a="http://ns.adobe.com/AdobeSVGViewerExtensions/3.0/"
	 x="0px" y="0px" width="500px" height="400px" viewBox="-109.715 -4.089 500 400" enable-background="new -109.715 -4.089 500 400"
	 xml:space="preserve">
<defs>
</defs>
<polygon id="2825060" fill="#666666" stroke="#FFFFFF" stroke-width="0.75"  points="196.233,368.055 196.052,367.666 196.773,366.613 
	196.714,366.583 196.684,366.553 196.413,366.372 196.323,366.312 195.572,365.921 195.149,365.71 194.729,365.68 194.098,365.832 
	194.038,365.26 193.948,364.659 193.948,364.598 193.948,364.509 193.918,364.387 193.886,364.208 193.886,364.178 193.826,363.636 
	193.797,363.546 193.797,363.514 193.797,363.455 193.767,363.276 193.767,363.246 193.736,363.064 193.707,362.826 
	193.707,362.554 193.647,362.253 193.585,361.741 193.376,359.968 193.255,358.856 192.985,356.69 192.744,354.675 192.324,351.398 
	192.113,349.594 191.633,345.715 191.633,345.595 191.3,342.768 191.3,342.738 191.091,341.024 190.76,338.256 190.67,337.536 
	190.641,337.326 190.519,336.364 190.279,334.108 190.248,333.837 190.099,332.815 189.827,330.559 189.437,327.284 
	183.033,328.094 181.951,328.214 180.837,328.335 180.657,328.366 178.012,328.667 176.597,328.845 175.965,328.908 
	175.875,328.935 175.666,328.935 174.793,329.057 174.582,329.086 174.402,329.086 174.191,329.117 173.741,329.176 
	173.682,329.176 173.56,329.207 173.289,329.236 172.448,329.328 170.223,329.597 170.192,329.597 170.162,329.597 169.861,329.628 
	169.832,329.628 168.359,329.808 158.797,330.89 159.068,333.476 159.247,334.981 159.849,340.631 160.691,348.06 160.931,350.316 
	161.051,351.458 156.962,351.908 155.218,352.119 153.114,352.331 151.94,352.45 151.49,352.511 150.828,352.572 148.302,352.842 
	147.371,352.961 147.521,354.133 147.941,357.864 148.152,359.846 148.332,361.652 148.361,361.741 148.424,362.584 
	148.451,362.734 148.514,363.276 148.361,363.276 148.212,363.305 147.491,363.365 147.371,363.395 145.477,363.577 
	145.024,363.606 145.146,364.748 144.904,364.778 143.37,364.959 142.89,365.019 141.687,365.109 141.746,365.68 142.047,368.568 
	140.003,368.777 139.162,368.867 139.642,369.378 139.732,369.861 139.672,370.371 139.792,370.702 139.913,370.761 
	140.033,371.152 140.304,372.326 140.214,372.537 140.154,372.537 140.064,372.416 139.943,372.445 139.943,372.477 
	140.033,372.958 140.033,372.988 140.154,373.139 140.182,373.199 140.396,373.408 140.396,373.44 140.905,374.221 141.146,374.731 
	141.778,375.543 141.987,376.146 142.229,376.656 142.56,376.715 142.979,376.897 143.071,376.987 143.131,377.228 143.761,377.499 
	144.243,377.797 144.243,377.83 144.273,378.309 144.333,378.792 144.393,379.242 144.604,379.542 144.663,379.663 144.693,379.722 
	144.693,379.752 144.693,379.784 144.393,380.174 144.213,380.294 143.853,380.383 143.822,380.446 143.793,380.473 
	143.761,380.625 143.733,380.685 143.733,380.747 143.761,381.498 143.761,381.948 144.184,382.129 144.544,382.428 144.663,382.49 
	144.724,382.729 144.875,383.453 144.845,383.721 144.845,383.873 144.815,383.903 144.755,384.022 144.815,384.293 
	145.205,384.654 145.417,384.773 145.867,384.895 145.927,384.895 145.957,384.925 145.986,384.955 146.046,385.046 
	146.078,385.075 146.106,385.136 146.138,385.136 146.138,385.167 146.138,385.315 146.168,385.377 146.138,385.556 
	146.078,385.858 146.078,386.489 146.106,386.638 146.198,386.82 146.437,387.091 146.588,387.18 146.8,387.241 147.25,387.27 
	147.581,387.571 147.67,387.661 147.73,387.752 147.941,388.021 148.212,388.412 148.361,388.804 148.514,389.013 148.903,389.436 
	149.265,389.705 149.326,389.735 149.354,389.767 149.443,389.767 149.506,389.796 149.625,389.827 149.655,389.827 
	149.776,389.796 150.048,389.677 150.167,389.616 150.677,389.285 150.889,388.984 151.008,388.804 151.13,388.653 151.159,388.624 
	151.189,388.624 151.368,388.503 151.49,388.444 151.58,388.412 151.64,388.384 151.672,388.384 152.03,388.412 152.241,388.593 
	152.452,388.864 152.754,389.466 152.754,389.436 152.843,389.254 154.196,389.105 155.037,388.653 155.639,388.113 155.97,388.233 
	156.512,389.404 156.962,389.526 157.113,389.436 157.924,388.503 157.774,386.969 158.767,385.405 159.038,384.173 
	159.038,384.144 159.038,384.112 158.977,383.631 159.247,382.911 159.277,382.88 159.76,382.61 160.239,382.338 160.691,382.068 
	161.112,381.829 161.562,381.557 161.804,381.346 162.614,380.083 163.064,379.722 163.968,379.272 164.029,379.212 164.9,378.401 
	165.111,377.859 165.291,377.407 165.261,377.076 164.391,375.693 164.179,375.514 163.938,375.333 163.458,375.333 
	162.855,375.122 162.436,374.972 162.013,374.823 162.104,374.4 162.734,373.408 162.976,373.228 163.518,373.017 163.848,372.868 
	165.261,372.597 166.854,373.199 167.877,374.34 167.877,375.001 167.907,375.753 167.486,375.725 167.245,376.146 167.245,377.046 
	167.245,377.648 167.245,377.77 167.275,377.83 167.486,378.071 167.877,378.039 168.359,377.889 168.81,377.77 170.434,376.926 
	171.968,376.116 172.147,376.024 174.313,375.091 175.396,374.522 176.057,374.129 176.417,373.95 176.838,373.708 177.38,373.408 
	178.25,372.927 178.372,372.868 179.845,372.055 180.237,371.816 180.327,371.756 180.568,371.634 180.837,371.485 181.019,371.393 
	181.379,371.244 183.271,370.491 185.408,369.62 186.4,369.319 186.49,369.29 187.092,369.108 187.151,369.108 187.422,369.018 
	188.385,368.75 188.656,368.687 190.009,368.417 190.61,368.327 190.879,368.267 191.692,368.116 193.585,367.907 193.736,367.936 
	194.217,367.966 194.249,368.026 194.339,368.177 194.548,368.327 194.58,368.357 194.851,368.446 194.879,368.446 196.534,368.958 
	196.654,368.988 196.534,368.717 "/>
<polygon id="2825620" fill="#666666" stroke="#FFFFFF" stroke-width="0.75"  points="192.805,326.56 192.774,326.321 192.565,324.635 
	192.053,320.037 191.573,319.977 191.272,317.39 191.24,317.179 190.85,313.901 190.79,313.209 190.73,313.029 190.7,312.489 
	190.7,312.429 190.67,312.188 190.459,310.653 190.459,310.534 190.459,310.474 190.279,309.059 190.248,308.609 190.22,308.579 
	189.768,304.88 189.768,304.759 189.258,300.431 189.228,300.101 189.168,299.678 189.168,299.529 189.136,299.377 189.106,299.198 
	188.775,296.522 188.084,290.627 187.571,286.689 187.512,285.908 180.718,286.718 179.243,286.9 178.432,286.99 178.071,287.049 
	177.499,287.079 176.026,287.26 172.236,287.681 171.996,287.71 169.471,288.011 167.156,288.252 165.651,288.432 163.938,288.643 
	162.555,288.792 161.443,288.915 158.827,289.215 158.195,289.305 158.016,289.305 157.954,289.334 156.932,289.394 
	155.549,289.576 153.204,289.815 150.257,290.177 149.926,290.208 148.183,290.387 148.031,290.417 147.19,290.508 146.74,290.568 
	142.89,290.989 140.816,291.23 139.672,291.349 137.719,291.59 134.26,291.951 133.748,292.01 133.208,292.071 133.447,294.356 
	133.479,294.838 133.569,295.589 133.628,296.099 133.658,296.25 133.718,296.641 133.84,297.783 133.84,297.905 133.989,299.318 
	134.26,301.752 134.472,303.558 134.499,303.918 134.83,306.835 134.83,306.956 134.892,307.375 134.892,307.498 134.922,307.738 
	134.981,308.128 135.071,308.88 135.372,311.827 135.703,314.804 135.794,315.555 135.824,315.645 135.884,316.517 135.914,316.758 
	135.944,316.848 135.944,317.059 136.096,318.382 136.123,318.711 136.755,324.426 136.755,324.576 136.906,325.958 
	139.883,325.627 140.515,325.568 143.793,325.237 143.733,324.787 143.671,324.304 144.484,324.215 144.935,324.155 147.07,323.914 
	147.07,323.944 147.101,324.095 147.101,324.155 147.131,324.367 147.19,324.907 147.581,324.846 148.903,324.725 148.934,324.936 
	148.964,325.449 149.053,326.169 149.386,326.14 149.655,326.11 151.368,325.928 151.609,325.899 151.971,325.869 152.452,325.838 
	152.423,325.388 152.36,324.635 152.301,324.036 152.271,323.645 157.354,323.073 157.444,323.794 157.983,323.735 158.496,328.395 
	158.767,330.77 158.797,330.89 168.359,329.808 169.832,329.628 169.861,329.628 170.162,329.597 170.192,329.597 170.223,329.597 
	172.448,329.328 173.289,329.236 173.56,329.207 173.682,329.176 173.741,329.176 174.191,329.117 174.402,329.086 174.582,329.086 
	174.793,329.057 175.666,328.935 175.875,328.935 175.965,328.908 176.597,328.845 178.012,328.667 180.657,328.366 
	180.837,328.335 181.951,328.214 183.033,328.094 189.437,327.284 189.648,327.251 190.099,327.221 190.188,327.251 192.834,326.92 
	"/>
<polygon id="2827140" fill="#666666" stroke="#FFFFFF" stroke-width="0.75"  points="130.261,264.568 130.171,264.568 129.96,262.794 
	129.96,262.703 129.629,259.877 129.599,259.426 129.389,257.622 129.358,257.26 129.029,254.284 128.607,250.285 128.517,249.563 
	128.277,247.099 128.216,246.497 127.404,243.911 126.802,243.97 122.894,244.42 122.653,242.165 122.563,241.145 122.533,241.085 
	122.503,240.754 122.382,239.37 122.172,237.537 122.082,237.537 121.902,236.124 121.331,230.68 121.39,230.65 121.181,228.516 
	120.969,226.591 120.909,226.109 120.879,225.9 120.789,224.786 120.579,222.833 120.519,222.44 120.488,222.049 120.458,221.689 
	120.278,220.366 119.947,219.193 119.917,219.132 119.375,217.389 119.286,217.029 119.195,216.757 119.134,216.607 
	118.203,213.541 117.602,211.496 117.541,211.375 117.451,211.075 117.451,211.015 116.729,208.729 116.098,206.594 
	115.918,206.083 115.798,205.662 114.715,202.294 114.896,202.023 114.865,201.753 114.715,201.573 114.746,201.482 
	115.498,201.243 115.617,201.152 115.707,201.061 115.707,200.971 115.617,200.881 115.406,200.851 115.406,200.791 
	115.437,200.702 115.707,200.491 115.768,200.52 115.918,200.64 116.068,200.581 116.128,200.34 116.158,199.979 116.368,199.708 
	116.85,199.198 117.061,199.047 117.481,198.326 117.872,198.174 117.541,195.168 117.512,194.898 117.451,194.236 117.451,194.176 
	117.422,194.085 117.331,193.213 117.301,192.763 116.971,189.756 116.94,189.516 116.879,188.823 116.7,187.17 116.458,185.034 
	116.279,183.561 115.798,179.292 115.827,179.111 115.737,178.45 113.242,178.691 112.94,178.72 112.7,178.75 112.67,178.75 
	109.724,179.051 108.491,179.171 108.581,179.622 106.567,179.863 100.282,180.524 100.282,180.615 100.191,180.825 
	100.071,180.975 99.981,181.516 99.409,181.967 99.35,182.178 99.229,182.298 99.26,182.599 99.169,182.629 99.169,182.779 
	99.049,182.99 99.109,183.05 99.109,183.23 98.869,183.201 98.809,183.291 98.838,183.381 98.929,183.351 98.959,183.381 
	98.748,184.133 98.748,184.223 98.567,184.523 98.417,184.613 97.816,184.915 97.696,184.674 97.575,184.674 97.334,185.034 
	97.275,185.335 97.275,185.426 97.365,185.546 97.365,185.967 97.275,186.117 97.305,186.147 97.456,186.117 97.425,186.208 
	97.275,186.688 97.546,186.839 97.546,186.898 97.456,187.14 97.365,187.23 97.185,187.591 97.215,187.681 97.365,187.65 
	97.395,187.681 97.275,188.522 97.004,189.516 96.974,189.936 96.854,190.327 96.613,190.508 96.583,190.868 96.463,191.019 
	96.403,191.68 96.403,191.74 96.192,191.74 96.102,191.861 96.133,191.95 96.133,192.071 96.012,192.432 95.922,192.522 
	95.501,192.492 95.23,192.763 95.23,192.882 94.87,192.974 94.629,192.943 94.509,192.974 94.298,193.094 94.118,193.695 
	94.147,193.875 94.088,193.995 94.057,194.026 93.937,193.905 93.847,193.936 93.606,194.537 93.546,194.807 93.336,194.927 
	93.275,194.958 93.306,195.168 92.975,195.589 92.915,195.589 92.584,195.319 92.435,195.589 92.313,195.589 92.284,195.439 
	92.253,195.378 91.982,195.378 91.532,195.589 91.472,195.739 91.111,195.83 91.02,195.799 90.931,195.709 90.78,195.739 
	90.63,195.919 90.54,196.22 90.66,196.521 90.569,196.822 90.389,197.033 90.299,197.002 90.179,196.702 90.028,196.551 
	89.428,196.641 89.367,196.912 89.096,197.033 89.006,197.123 88.975,197.244 88.765,197.274 88.013,197.784 87.141,198.686 
	87.172,198.896 87.141,198.926 86.841,199.108 86.239,198.957 85.818,199.317 85.367,199.437 85.126,199.408 85.097,199.288 
	84.917,198.987 84.856,198.987 84.676,199.078 84.526,199.078 84.346,199.227 84.105,199.227 83.894,199.347 83.684,199.588 
	83.713,199.798 82.992,199.588 82.602,199.829 82.511,199.95 82.481,200.099 82.3,200.16 82.03,200.099 81.879,199.919 
	81.91,200.009 81.85,200.099 81.819,200.099 81.789,199.979 81.548,200.099 81.248,200.43 81.218,200.971 81.339,201.092 
	81.098,201.422 81.008,201.453 80.587,201.302 80.557,201.152 80.436,201.092 79.955,201.333 79.534,201.843 79.323,202.415 
	79.323,202.685 79.293,202.986 79.233,203.046 78.933,203.196 79.023,203.647 78.992,203.708 78.361,204.098 78.392,204.219 
	78.361,204.309 78.271,204.459 78.091,204.61 77.79,204.7 77.64,204.67 77.609,204.489 77.489,204.098 77.278,204.129 
	77.008,204.279 77.008,204.37 77.099,204.489 77.129,204.55 77.099,204.76 76.948,204.971 76.857,205.031 76.737,205.06 
	76.648,204.88 76.437,204.941 76.377,205.001 76.437,205.451 76.377,205.512 76.196,205.632 76.105,205.632 76.076,205.512 
	76.105,205.392 76.076,205.181 76.046,205.122 75.926,205.091 75.805,205.331 75.746,205.542 75.655,205.572 75.415,205.662 
	75.415,205.813 75.505,205.963 75.054,206.354 75.023,206.565 75.084,206.594 75.054,206.684 74.602,206.865 74.512,206.775 
	74.453,206.625 74.422,206.625 74.271,206.834 74.181,207.105 73.971,207.346 73.61,207.557 73.581,207.586 73.52,207.617 
	73.49,207.586 73.46,207.496 73.55,207.436 73.55,207.376 73.34,207.196 72.89,207.166 72.708,206.986 72.227,206.805 
	71.596,206.895 71.386,207.015 70.905,207.466 70.905,207.887 70.784,207.978 70.723,208.489 70.934,208.76 70.784,209.181 
	70.664,209.271 70.543,209.301 70.453,209.271 70.423,209.21 70.513,209.089 70.483,209.06 70.423,209.06 70.212,209.181 
	70.092,209.602 70.153,210.023 70.123,210.083 69.882,210.083 69.702,210.323 69.732,210.414 69.732,210.473 69.22,210.502 
	69.04,210.473 68.89,210.564 68.769,210.894 68.589,211.225 68.468,211.285 68.439,211.344 68.529,211.496 68.439,211.585 
	68.108,211.827 68.047,211.887 68.168,212.037 68.138,212.157 67.627,212.337 67.326,212.368 67.236,212.308 66.965,212.278 
	66.544,212.609 66.484,212.699 66.513,212.758 66.423,212.878 66.423,213.089 66.544,213.089 66.604,213.179 66.695,213.39 
	66.754,213.841 66.754,213.902 66.695,213.96 66.604,213.931 66.153,213.51 66.153,213.42 66.092,213.39 66.003,213.42 
	65.642,213.75 65.461,213.872 65.372,213.931 65.281,213.902 65.25,213.75 65.041,213.541 64.891,213.571 64.83,213.661 
	64.589,213.811 64.499,214.022 64.439,214.082 63.837,214.262 63.808,214.233 63.808,214.171 63.718,214.082 63.447,214.051 
	63.417,214.142 63.417,214.202 63.598,214.381 63.598,214.413 63.567,214.563 62.966,214.743 62.815,215.075 62.665,215.104 
	62.515,214.894 62.455,214.894 62.334,215.013 62.305,215.195 62.334,215.525 62.274,215.646 61.853,216.066 61.522,216.157 
	61.463,216.216 61.492,216.397 61.763,216.909 61.853,217.149 61.884,217.63 61.793,217.991 61.853,218.05 62.003,218.021 
	62.064,218.081 62.124,218.322 62.094,218.502 62.124,218.623 62.274,218.712 62.575,218.742 62.966,218.954 62.785,219.103 
	62.605,219.404 62.545,219.433 62.425,219.314 62.365,219.314 62.334,219.404 62.305,219.585 62.124,219.735 62.094,219.825 
	62.214,220.607 62.003,220.908 62.003,221.087 61.823,221.209 61.823,221.388 61.463,221.54 61.402,221.629 61.492,221.93 
	61.432,221.99 61.342,221.93 61.282,221.93 61.402,222.411 61.222,222.592 61.282,222.742 61.342,222.893 61.192,222.922 
	61.192,223.012 61.161,223.012 61.222,223.164 61.251,223.284 60.951,223.493 60.771,223.704 60.771,223.823 60.862,223.885 
	61.011,223.945 61.011,224.004 60.771,224.485 60.47,224.606 60.29,224.667 60.169,224.786 60.26,225.358 60.561,225.9 
	60.711,226.5 60.771,226.802 60.922,227.101 60.981,227.283 61.011,227.492 60.922,227.613 60.711,227.613 60.53,227.583 
	60.049,227.342 59.237,227.312 57.374,226.862 57.223,226.862 57.042,226.952 56.862,227.011 56.802,226.982 56.622,226.802 
	56.532,226.83 56.471,226.921 56.44,227.071 56.44,227.252 56.32,227.342 55.87,227.432 55.809,227.613 55.719,228.034 
	55.75,228.124 56.05,228.426 56.17,228.394 56.23,228.153 56.291,228.153 56.291,228.212 56.32,228.695 56.111,229.116 
	56.201,229.836 56.17,229.869 56.05,229.836 55.989,229.928 56.17,230.137 56.471,230.2 56.532,230.229 56.532,230.29 
	56.44,230.499 56.651,231.07 56.622,231.341 56.14,231.792 56.17,231.943 56.38,232.123 56.201,232.544 55.809,232.875 
	55.509,233.236 55.388,233.747 55.629,233.927 55.899,233.838 55.93,233.927 55.93,234.077 55.809,234.199 55.688,234.229 
	55.569,234.199 55.118,234.44 54.998,234.5 55.028,234.559 55.178,234.589 55.359,234.53 55.659,234.559 55.688,234.649 
	55.569,234.86 55.6,234.95 55.659,234.98 55.719,234.92 55.84,234.708 55.959,234.831 55.989,234.89 55.989,234.98 55.84,235.371 
	55.479,235.731 55.208,235.913 55.268,236.422 55.388,236.813 55.268,237.143 55.208,237.235 55.809,241.806 56.05,243.338 
	56.471,245.955 56.771,247.668 57.253,251.095 57.523,252.841 58.064,256.629 58.095,257.863 58.095,258.072 58.215,259.636 
	58.485,262.404 58.516,262.735 58.636,263.965 58.666,264.237 58.726,265.02 58.937,267.035 58.937,267.125 57.974,268.385 
	57.915,269.529 58.095,271.844 58.726,278.76 59.688,278.671 59.778,278.671 61.823,278.459 61.974,278.459 64.258,278.249 
	66.454,278.04 66.815,277.98 68.258,277.829 68.95,277.768 69.22,277.739 70.394,277.617 71.295,277.498 73.279,277.289 
	73.581,277.256 74.692,277.137 76.978,276.896 77.76,276.806 77.971,276.747 78.03,276.655 79.895,276.505 80.226,276.446 
	80.407,277.647 80.647,277.617 80.736,277.617 81.158,277.557 82.181,277.467 82.662,277.438 82.511,276.264 82.571,276.234 
	83.082,276.205 83.925,276.115 84.015,276.084 84.225,276.084 87.051,275.814 87.141,275.784 88.254,275.694 88.284,275.694 
	89.187,275.602 89.336,275.513 89.667,275.182 89.878,275.152 90.569,275.123 90.78,274.61 90.991,274.341 91.381,273.951 
	91.772,273.68 92.343,273.378 93.155,273.227 93.367,273.108 93.606,273.078 93.906,273.078 94.599,272.807 94.839,272.625 
	95.02,272.566 95.32,272.446 95.501,272.327 95.681,271.996 96.042,271.725 96.343,271.603 96.583,271.302 97.185,271.003 
	97.636,271.034 97.906,270.944 98.057,270.67 98.267,270.461 98.658,270.161 98.838,270.25 98.988,270.402 99.229,270.402 
	99.26,270.34 99.319,270.34 104.492,269.41 109.032,268.596 110.174,268.417 111.527,268.176 111.618,268.146 113.332,267.875 
	115.557,267.455 116.91,267.244 117.15,267.184 117.992,267.035 120.76,266.522 121.902,266.313 123.555,266.012 123.976,265.951 
	125.84,265.62 125.871,265.62 127.855,265.229 128.457,265.11 129.147,264.988 129.75,264.898 130.291,264.809 "/>
<polygon id="2832820" fill="#666666" stroke="#FFFFFF" stroke-width="0.75"  points="132.877,45.965 132.847,45.754 132.636,43.98 132.636,43.859 
	132.606,43.59 132.336,41.003 128.938,41.424 128.637,38.658 128.578,37.966 128.426,36.883 128.426,36.853 128.396,36.462 
	128.367,36.193 128.336,35.952 128.155,34.508 128.005,33.366 127.885,32.224 127.765,31.26 127.705,30.629 127.675,30.509 
	127.615,29.877 127.555,29.487 127.555,29.456 127.284,27.141 127.074,25.307 126.773,22.662 126.562,20.767 125.54,20.887 
	123.134,21.158 122.954,19.834 122.382,14.722 122.353,14.362 122.202,13.128 122.052,11.686 121.992,11.115 121.812,9.341 
	118.895,9.701 118.413,9.731 117.361,9.882 116.55,9.972 116.158,10.002 115.316,10.092 114.865,10.152 113.543,10.272 
	113.361,10.303 113.242,10.303 112.791,10.333 111.678,10.423 108.22,10.783 106.295,10.994 104.852,11.145 103.168,11.325 
	102.056,11.445 99.169,11.746 98.057,11.896 97.756,11.926 96.914,12.017 95.771,12.167 95.741,12.167 93.516,12.438 91.261,12.708 
	90.119,12.828 89.277,12.918 88.194,13.008 87.893,13.039 87.232,13.128 86.75,13.159 85.638,13.279 85.608,13.279 84.465,13.4 
	83.232,13.52 82.21,13.641 82.03,13.641 81.729,13.67 81.068,13.731 80.256,13.821 79.895,13.851 79.805,13.88 79.744,13.88 
	78.812,13.97 78.392,14 77.699,14.091 77.67,14.091 76.828,14.182 76.557,14.211 75.415,14.332 74.242,14.422 72.347,14.632 
	72.318,14.632 71.626,14.693 65.973,15.264 65.582,15.294 63.808,15.474 60.981,15.745 60.621,15.775 61.042,16.617 61.192,16.828 
	61.614,17.249 61.853,17.338 62.244,17.489 62.575,17.82 62.876,18 64.108,18.452 64.289,18.542 64.47,18.631 64.499,18.631 
	64.771,18.902 64.771,18.932 64.95,19.173 65.01,19.263 65.041,19.353 65.101,19.444 65.25,19.955 65.372,21.277 65.312,21.819 
	65.221,22.18 65.132,22.39 63.417,23.954 62.034,24.886 61.553,25.337 61.373,25.607 61.974,26.359 62.034,26.449 62.094,26.51 
	62.184,26.75 62.184,26.931 62.154,27.231 61.974,27.593 61.733,27.772 61.222,27.772 60.951,27.683 60.319,27.262 59.748,26.69 
	59.268,27.172 59.027,27.322 57.312,28.104 56.111,28.976 56.02,29.066 55.659,29.276 55.629,29.307 55.449,29.396 55.178,29.427 
	54.697,29.336 54.577,29.276 54.216,28.765 54.035,28.193 53.916,27.713 53.885,27.412 54.005,26.901 54.005,26.72 53.975,26.66 
	53.885,26.42 53.464,25.698 53.434,25.607 53.404,25.548 53.253,25.428 53.073,25.307 52.833,25.187 52.201,25.007 51.841,24.977 
	51.419,25.096 50.849,25.518 50.607,25.788 50.397,26.299 50.367,26.449 50.397,26.931 50.518,27.442 50.518,27.532 50.577,27.622 
	50.607,27.713 50.667,27.803 50.727,27.863 51.239,28.435 52.021,29.517 52.562,30.359 52.562,30.418 52.593,30.6 52.501,31.08 
	52.111,31.441 51.901,31.801 51.841,31.922 51.75,32.132 51.66,32.463 51.66,32.493 51.66,32.734 51.66,32.884 51.69,32.915 
	51.719,33.035 51.78,33.215 52.021,33.817 52.892,35.049 53.344,35.801 53.374,35.891 53.525,36.312 53.554,36.583 53.525,36.673 
	53.525,36.763 53.525,36.853 53.525,36.944 53.464,37.035 53.464,37.064 53.404,37.245 53.374,37.305 53.223,37.515 52.501,38.086 
	51.871,38.327 51.298,38.448 50.488,38.507 49.586,38.146 49.345,37.936 49.134,37.485 49.014,37.094 48.983,36.703 49.043,36.312 
	49.254,35.891 49.916,35.32 50.097,34.929 50.126,34.869 50.156,34.779 50.097,34.508 49.916,34.087 49.194,32.854 49.014,32.463 
	48.894,32.463 48.502,32.463 48.022,32.645 47.961,32.645 47.901,32.674 47.661,32.854 47.45,33.095 47.24,33.486 47.059,34.027 
	47.029,34.238 47.09,34.448 47.24,34.899 47.54,35.59 47.63,36.522 47.57,36.793 47.48,37.064 47.36,37.214 47.209,37.335 
	47.029,37.425 46.819,37.485 46.608,37.576 46.398,37.756 46.277,37.936 46.188,38.177 46.188,38.627 46.188,38.688 46.217,38.869 
	46.248,38.989 46.398,39.169 47.119,39.86 47.811,40.522 48.292,40.763 48.834,40.822 48.923,40.853 49.074,40.822 49.194,40.822 
	49.375,40.822 49.495,40.793 50.156,40.612 50.757,40.401 50.849,40.372 50.998,40.342 51.601,40.191 52.051,40.162 52.352,40.191 
	52.622,40.281 52.682,40.342 52.712,40.372 52.833,40.462 52.922,40.522 52.982,40.612 53.073,40.732 53.164,40.883 53.193,40.943 
	53.253,41.063 53.284,41.153 53.284,41.424 53.253,41.666 53.164,42.206 52.953,42.627 52.863,42.748 52.381,43.438 51.901,43.89 
	51.389,44.491 51.058,45.093 50.968,45.213 50.878,45.303 50.757,45.453 50.216,45.965 49.826,46.175 49.766,46.205 49.555,46.266 
	49.345,46.325 49.285,46.355 49.164,46.355 49.014,46.355 48.954,46.355 48.894,46.325 48.593,46.266 48.533,46.266 48.412,46.205 
	48.292,46.145 48.262,46.115 47.961,45.754 47.781,45.453 47.751,45.424 47.751,45.394 47.661,45.003 47.661,44.311 47.72,43.92 
	47.841,43.619 48.472,42.958 48.533,42.777 48.412,42.025 48.322,41.845 48.112,41.574 47.751,41.245 47.601,41.093 47.45,40.973 
	47.209,40.914 46.819,41.093 46.729,41.124 46.519,41.364 46.188,41.935 45.857,42.176 45.676,42.507 45.315,43.259 45.346,43.438 
	45.436,43.709 45.616,44.762 45.736,45.123 45.887,45.394 45.887,45.453 45.887,45.514 45.887,45.574 45.796,45.995 45.676,46.776 
	45.827,47.618 46.277,48.49 46.788,49.152 47.149,49.753 47.54,50.114 48.051,50.505 48.653,51.136 48.894,51.497 49.315,52.459 
	49.345,52.67 49.345,52.88 49.224,53.301 49.134,53.512 48.562,54.113 47.691,54.684 47.991,54.866 49.555,55.767 50.367,56.249 
	50.427,56.279 52.471,57.452 59.447,61.57 61.763,61.3 63.085,61.149 63.177,61.149 65.732,60.879 65.612,59.856 65.612,59.736 
	65.522,59.045 65.522,58.924 65.461,58.414 65.432,58.052 65.372,57.481 65.132,56.458 65.041,55.767 64.95,54.866 64.95,54.745 
	64.891,54.173 68.138,53.812 68.318,53.783 68.529,53.752 68.86,53.693 71.686,53.362 71.656,53.272 71.626,52.791 71.536,51.828 
	71.326,49.934 74.482,49.632 75.956,49.483 76.226,49.453 77.068,49.363 77.729,49.302 77.911,49.272 78.211,49.242 80.466,49.001 
	81.939,48.852 83.864,48.671 83.984,48.641 84.436,48.611 86.119,48.431 86.27,48.4 87.292,48.28 87.322,48.28 87.533,48.28 
	88.013,48.25 90.63,47.979 91.802,47.829 96.343,47.318 97.305,47.228 97.666,47.197 98.026,47.137 98.567,47.077 102.026,46.687 
	105.423,46.325 107.017,46.115 107.107,46.115 107.167,46.084 108.04,45.965 108.25,45.965 112.068,45.514 113.422,45.394 
	113.723,45.363 114.475,45.273 115.076,45.242 115.226,45.213 117.091,45.032 117.15,45.032 117.181,45.032 117.753,44.973 
	117.782,45.003 117.872,45.183 117.812,45.394 117.992,45.543 118.174,45.574 118.383,45.634 118.774,46.024 118.925,46.084 
	119.015,46.175 119.165,46.445 119.195,46.506 119.677,46.596 119.796,46.596 120.127,46.506 120.368,47.137 120.488,47.228 
	120.819,47.348 121.3,47.318 121.481,47.258 122.232,46.957 122.803,46.566 123.465,46.656 123.645,46.717 123.796,46.897 
	124.157,46.927 124.337,47.047 124.307,47.197 124.457,47.047 124.728,46.957 124.818,47.018 125.27,46.897 125.27,46.836 
	125.27,46.717 125.089,46.566 125.029,46.445 125.119,46.386 125.33,46.415 125.36,46.476 125.991,46.626 126.141,46.626 
	126.202,46.566 126.231,46.536 126.352,46.566 126.382,46.506 126.382,46.295 126.442,46.266 126.983,46.476 127.313,46.055 
	127.705,46.115 127.645,46.205 127.675,46.355 128.126,46.536 128.907,46.626 129.238,46.596 129.358,46.866 129.419,46.927 
	129.479,46.897 129.659,46.656 129.899,46.687 130.351,47.377 130.532,47.318 130.592,47.167 130.622,47.137 130.741,47.318 
	131.042,47.377 131.794,47.287 131.944,47.648 132.245,47.648 132.275,47.769 132.606,47.949 132.696,47.89 132.757,47.648 
	132.787,47.618 132.847,47.618 133.027,47.798 132.997,47.829 132.877,47.829 132.847,47.89 132.847,47.919 132.937,48.01 
	133.087,47.919 133.087,47.798 "/>
<polygon id="2837700" fill="#666666" stroke="#FFFFFF" stroke-width="0.75"  points="227.806,367.063 227.595,366.914 227.384,366.463 
	227.445,365.892 227.595,365.741 226.423,358.824 226.242,357.712 226.212,357.592 225.971,356.18 225.821,355.217 225.729,354.735 
	225.431,352.992 225.31,352.21 225.279,352.059 225.25,351.758 224.707,348.542 224.377,346.407 224.317,346.016 224.228,345.294 
	224.138,344.904 223.715,342.407 223.235,339.49 223.176,338.98 222.964,337.597 222.935,337.505 222.874,337.205 222.243,333.297 
	221.34,327.824 221.34,327.764 221.311,327.615 221.311,327.552 221.25,327.284 221.221,326.981 221.069,326.321 220.438,322.442 
	220.198,321.029 219.478,316.729 213.282,317.51 212.591,317.57 211.899,317.66 211.298,317.721 211.026,317.75 210.186,317.84 
	207.087,318.202 206.095,318.321 206.095,318.353 204.622,318.502 204.292,318.532 203.359,318.652 202.367,318.773 
	201.946,318.833 199.872,319.104 199.811,319.104 197.555,319.435 197.526,319.435 197.495,319.435 193.736,319.885 
	192.053,320.037 192.565,324.635 192.774,326.321 192.805,326.56 192.834,326.92 190.188,327.251 190.099,327.221 189.648,327.251 
	189.437,327.284 189.827,330.559 190.099,332.815 190.248,333.837 190.279,334.108 190.519,336.364 190.641,337.326 190.67,337.536 
	190.76,338.256 191.091,341.024 191.3,342.738 191.3,342.768 191.633,345.595 191.633,345.715 192.113,349.594 192.324,351.398 
	192.744,354.675 192.985,356.69 193.255,358.856 193.376,359.968 193.585,361.741 193.647,362.253 193.707,362.554 193.707,362.826 
	193.736,363.064 193.767,363.246 193.767,363.276 193.797,363.455 193.797,363.514 193.797,363.546 193.826,363.636 
	193.886,364.178 193.886,364.208 193.918,364.387 193.948,364.509 193.948,364.598 193.948,364.659 194.038,365.26 194.098,365.832 
	194.729,365.68 195.149,365.71 195.572,365.921 196.323,366.312 196.413,366.372 196.684,366.553 196.714,366.583 196.773,366.613 
	197.015,366.222 197.978,366.553 198.248,366.643 198.278,366.643 198.788,366.914 199.24,367.153 199.3,367.424 199.148,367.725 
	199.179,367.754 199.24,367.936 202.126,369.14 202.757,369.53 203.779,370.192 203.961,370.341 205.254,370.583 205.976,370.523 
	206.246,370.491 207.146,370.251 207.688,369.92 208.472,369.14 209.402,368.568 209.433,368.536 209.465,368.508 210.726,368.508 
	211.539,368.476 211.777,368.476 212.168,368.476 212.951,368.809 213.732,368.508 213.852,368.237 214.063,368.267 
	215.326,369.229 215.868,369.2 216.349,369.14 216.468,369.14 217.281,369.048 217.402,369.048 217.463,369.018 217.823,368.988 
	218.214,368.958 218.273,368.958 219.236,369.078 219.897,369.56 220.438,369.951 220.499,370.341 220.619,370.401 222.303,370.431 
	222.845,370.251 223.986,369.349 224.377,368.687 224.406,368.658 224.377,368.508 224.347,368.237 224.317,367.907 
	224.317,367.876 224.317,367.846 225.101,367.215 226.12,367.153 226.844,367.996 227.413,367.754 227.836,367.304 "/>
<polygon id="2800001" fill="#666666" stroke="#FFFFFF" stroke-width="0.75"  points="141.597,165.309 141.567,164.858 141.386,163.325 
	141.177,161.22 140.816,157.792 140.545,155.477 140.154,151.718 139.943,149.644 139.854,149.012 139.612,146.516 139.553,146.005 
	139.341,143.871 138.861,143.9 137.568,144.05 135.974,144.231 134.499,144.381 134.141,144.441 133.93,144.441 133.899,144.441 
	133.357,144.501 130.351,144.863 129.84,140.292 129.058,133.226 129.118,133.376 129.208,133.315 129.178,133.226 129.088,133.195 
	129.088,133.135 129.178,132.925 129.419,132.684 129.899,132.714 130.651,132.956 131.162,133.045 131.403,133.015 
	131.705,132.895 131.854,132.684 131.914,132.414 131.854,132.204 131.734,132.053 131.765,131.722 131.975,131.511 
	132.245,131.301 132.816,131.271 133.237,131.091 133.208,130.911 133.387,130.911 133.479,130.97 133.569,130.58 132.576,130.7 
	132.546,130.7 131.162,130.85 125.961,131.452 125.389,131.511 125.27,130.369 125.029,128.144 124.999,128.083 124.878,126.911 
	124.728,125.408 124.668,124.897 124.638,124.595 124.578,124.054 124.368,122.34 124.368,122.311 124.337,122.16 124.307,121.89 
	124.247,121.349 124.188,120.867 124.188,120.657 123.826,117.439 123.736,116.628 123.675,116.056 123.465,114.342 
	123.195,111.936 123.074,110.854 122.864,109.17 122.834,108.87 122.713,107.667 122.593,106.794 122.443,105.381 122.292,103.998 
	122.022,101.684 121.871,100.239 121.781,99.368 121.511,97.083 121.36,95.669 121.3,95.038 121.12,93.414 120.85,91.039 
	120.398,87.069 120.008,83.642 119.978,83.521 119.978,83.341 119.857,83.341 119.677,81.747 119.286,78.56 119.044,76.154 
	118.805,73.869 117.692,73.989 117.03,74.049 113.061,74.5 113.001,74.5 111.948,74.621 111.588,74.65 110.295,74.741 
	108.491,74.921 107.198,75.042 105.123,75.252 105.002,73.989 104.973,73.779 104.822,72.366 104.792,71.854 104.612,69.99 
	104.582,69.628 104.341,67.253 104.281,66.652 103.98,63.766 103.891,63.766 103.86,63.646 103.86,63.584 103.86,63.435 
	103.86,63.405 103.8,62.894 103.529,60.518 103.379,59.345 103.168,57.662 103.139,57.602 103.078,57.121 102.958,55.346 
	102.927,54.835 102.808,53.602 102.718,52.67 102.718,52.55 102.688,52.459 102.657,52.249 102.657,52.099 102.597,51.587 
	102.506,50.595 102.506,50.566 102.477,50.294 102.416,49.963 102.026,46.687 98.567,47.077 98.026,47.137 97.666,47.197 
	97.305,47.228 96.343,47.318 91.802,47.829 90.63,47.979 88.013,48.25 87.533,48.28 87.322,48.28 87.292,48.28 86.27,48.4 
	86.119,48.431 84.436,48.611 83.984,48.641 83.864,48.671 81.939,48.852 80.466,49.001 78.211,49.242 77.911,49.272 77.729,49.302 
	77.068,49.363 76.226,49.453 75.956,49.483 74.482,49.632 71.326,49.934 71.536,51.828 71.626,52.791 71.656,53.272 71.686,53.362 
	68.86,53.693 68.529,53.752 68.318,53.783 68.138,53.812 64.891,54.173 64.95,54.745 64.95,54.866 65.041,55.767 65.132,56.458 
	65.372,57.481 65.432,58.052 65.461,58.414 65.522,58.924 65.522,59.045 65.612,59.736 65.612,59.856 65.732,60.879 63.177,61.149 
	63.085,61.149 61.763,61.3 59.447,61.57 52.471,57.452 50.427,56.279 50.367,56.249 49.555,55.767 47.991,54.866 47.691,54.684 
	47.18,55.436 47.149,55.466 47.119,55.587 47.059,55.677 47.029,55.707 47.029,55.767 46.939,56.429 46.788,56.729 46.788,56.76 
	46.759,57.031 46.698,57.481 46.698,57.993 46.909,59.105 46.909,59.135 47.149,59.826 47.299,60.007 47.781,60.307 47.991,60.488 
	48.472,61.3 48.502,61.36 48.562,61.57 48.562,61.601 48.623,61.811 48.653,61.811 48.653,61.871 48.623,62.052 48.623,62.202 
	48.593,62.352 48.593,62.412 48.562,62.593 48.472,62.773 48.472,62.804 48.412,62.954 48.172,63.405 47.871,63.796 45.887,65.57 
	45.616,65.75 44.774,65.96 44.563,66.052 44.173,66.291 43.12,67.043 43.36,67.343 43.12,67.855 42.729,68.667 42.759,68.757 
	42.789,69.238 43.271,70.14 43.301,70.231 43.572,70.862 43.601,71.283 43.421,71.825 42.909,72.065 42.339,72.125 41.828,71.974 
	41.526,71.764 41.317,71.463 41.226,70.922 41.285,70.201 41.797,68.998 41.797,68.246 41.677,67.976 41.587,67.765 41.105,67.825 
	40.504,68.095 39.752,68.336 38.94,68.426 38.67,68.396 38.37,68.336 37.828,68.246 37.287,68.246 36.896,68.336 36.536,68.577 
	36.294,68.817 36.234,68.967 36.204,69.509 36.294,70.02 36.354,70.14 36.505,70.321 37.407,70.983 37.587,71.102 37.647,71.163 
	37.798,71.373 37.888,71.523 37.948,71.614 38.128,71.974 38.278,72.425 38.31,72.486 38.339,73.027 38.249,73.388 38.219,73.448 
	37.708,74.47 37.558,74.68 37.437,74.832 36.986,75.252 36.956,75.252 36.565,75.342 36.536,75.342 36.325,75.342 36.234,75.342 
	36.023,75.342 35.843,75.312 34.881,75.312 34.761,75.312 34.581,75.342 34.52,75.342 34.43,75.372 33.919,75.643 33.408,75.824 
	33.347,75.824 33.288,75.883 33.167,75.943 33.107,76.034 33.017,76.094 32.957,76.184 32.926,76.245 32.836,76.364 32.807,76.395 
	32.807,76.455 32.746,76.635 32.746,76.695 32.686,76.966 32.686,77.056 32.686,77.177 32.656,77.387 32.566,78.108 32.566,78.229 
	32.505,78.77 32.476,79.222 32.476,79.311 32.505,79.522 32.505,79.702 32.596,80.003 32.566,80.243 32.536,80.484 32.505,80.604 
	32.476,80.755 32.355,81.235 32.205,81.626 31.875,81.416 31.573,81.266 30.912,81.296 30.101,81.115 29.048,80.484 28.777,80.304 
	28.657,80.123 28.297,79.251 28.175,79.041 28.085,78.98 28.026,78.98 27.905,78.95 27.725,78.89 27.574,78.92 27.034,78.92 
	26.672,79.101 26.402,79.492 26.25,79.793 26.25,79.853 26.221,79.943 26.221,80.003 26.282,80.544 26.462,81.176 26.582,81.386 
	26.642,81.477 26.702,81.536 27.786,82.709 27.875,82.8 27.966,82.859 28.056,82.919 28.146,83.01 28.236,83.04 29.529,83.611 
	29.8,83.792 30.101,83.581 30.43,83.46 30.702,83.611 30.881,83.611 30.973,83.611 31.243,83.521 31.304,83.521 31.633,83.28 
	31.844,83.221 32.416,83.221 32.987,83.341 33.618,83.221 34.34,83.28 34.4,83.28 34.46,83.311 34.701,83.431 34.851,83.611 
	34.912,83.701 34.971,83.792 34.971,83.852 35.122,84.393 35.122,84.453 35.122,84.483 35.122,84.935 34.971,85.385 34.701,85.896 
	34.31,86.408 34.129,86.588 33.859,86.769 33.498,86.979 32.776,87.1 32.355,87.1 31.633,86.919 31.394,86.829 30.761,86.408 
	30.34,86.198 29.529,85.505 28.927,85.295 28.506,85.235 26.793,86.738 25.83,87.64 25.56,88.332 25.65,88.723 25.86,89.114 
	25.95,89.204 26.402,89.776 26.552,89.895 28.297,90.978 28.506,91.008 28.777,91.008 29.589,90.798 30.07,90.497 30.43,90.467 
	30.792,90.527 31.032,90.647 31.212,90.768 31.544,91.249 31.573,91.309 31.694,91.55 31.694,91.7 31.633,92.06 31.484,92.422 
	31.063,93.114 30.822,93.535 30.761,93.805 30.732,94.045 30.761,94.526 30.912,95.038 30.912,95.128 30.973,95.338 30.973,95.398 
	30.973,95.459 30.973,95.579 30.973,95.608 30.881,95.85 30.702,96.06 30.671,96.09 30.642,96.121 30.25,96.391 29.289,96.632 
	28.808,96.571 28.687,96.571 27.995,96.962 27.484,97.112 27.002,97.173 26.462,97.022 25.65,96.992 25.259,97.053 24.868,97.142 
	24.538,97.293 25.199,98.736 25.409,99.007 25.86,99.338 26.522,100.18 26.552,100.239 26.582,100.3 26.582,100.33 26.582,100.36 
	26.612,100.511 26.582,100.601 26.522,101.202 26.432,101.382 26.282,101.593 26.102,101.713 25.711,101.863 25.29,101.923 
	25.019,101.894 24.868,101.863 24.598,101.773 24.538,101.773 24.447,101.713 24.146,101.532 23.936,101.202 23.756,100.721 
	23.063,99.397 22.673,98.736 21.772,99.457 21.41,99.969 21.229,100.18 20.898,100.36 19.997,100.45 19.396,100.54 19.155,100.631 
	18.915,100.781 18.674,100.991 18.403,101.382 18.343,101.593 18.313,101.833 18.313,101.923 18.343,102.074 18.343,102.104 
	18.343,102.134 18.343,102.164 18.403,102.375 18.433,102.435 18.433,102.464 18.463,102.494 18.463,102.525 18.584,102.705 
	18.794,102.856 19.125,102.976 19.155,103.005 21.29,103.336 22.012,103.547 23.094,103.968 23.575,104.299 23.786,104.539 
	23.786,104.6 23.816,104.72 23.756,104.839 23.395,105.381 22.884,106.314 22.283,107.125 22.132,107.305 21.32,108.328 
	21.2,108.449 20.869,108.9 20.839,108.929 20.298,109.862 20.208,110.192 20.237,110.583 20.418,111.215 20.718,111.907 
	20.898,112.147 21.5,112.749 21.801,113.109 22.042,113.5 22.253,113.771 22.553,113.921 23.726,114.373 23.905,114.402 
	24.087,114.463 24.898,114.522 25.319,114.673 25.349,114.702 25.409,114.733 26.011,115.214 26.191,115.575 26.221,115.635 
	26.282,115.846 26.25,116.146 26.161,116.446 26.011,116.718 25.65,117.108 24.838,117.559 24.176,117.74 23.936,117.709 
	22.071,116.688 21.65,116.808 20.027,117.078 19.816,117.139 18.644,117.649 18.343,117.379 18.223,117.288 18.163,117.259 
	18.102,117.199 17.922,117.049 17.532,116.867 17.201,116.778 17.14,116.778 16.929,116.808 16.84,116.867 16.81,116.898 
	16.719,117.018 16.629,117.108 16.478,117.349 16.389,117.619 16.208,118.161 16.269,118.401 16.359,118.552 16.51,118.642 
	16.569,118.732 16.539,119.033 16.359,119.394 16.389,119.514 16.389,119.574 16.478,119.725 16.359,120.597 16.389,120.928 
	16.449,121.198 16.539,121.349 17.441,122.28 17.922,122.671 18.463,122.881 19.125,122.881 19.245,122.852 19.366,122.822 
	19.546,122.822 19.667,122.761 20.268,122.551 21.139,121.919 21.591,121.709 21.832,121.709 21.891,121.709 21.921,121.739 
	22.071,121.77 22.162,121.77 22.283,121.83 22.373,121.89 22.463,121.949 23.063,122.371 23.484,122.852 23.636,123.092 
	23.786,123.363 23.905,123.664 24.087,123.664 24.267,123.723 24.326,124.235 24.267,124.505 24.146,124.836 24.146,124.867 
	24.116,124.926 23.966,125.077 23.364,125.377 23.125,125.408 22.553,125.588 22.071,125.949 21.35,126.37 21.021,126.46 
	20.869,126.49 20.809,126.49 20.749,126.49 20.688,126.49 20.478,126.46 20.358,126.46 19.877,126.309 17.862,125.408 
	17.651,125.227 16.84,124.294 16.629,124.054 15.697,123.062 15.637,123.002 15.577,123.032 15.546,123.032 15.336,123.183 
	14.705,123.422 13.773,123.604 13.081,123.694 12.78,123.784 12.72,123.814 12.48,123.964 12.359,124.025 12.329,124.054 
	12.299,124.084 11.849,124.475 11.608,124.897 11.577,124.926 11.457,125.317 11.427,125.768 11.518,126.25 11.637,126.43 
	11.908,126.73 11.968,126.76 12.088,126.88 12.179,126.971 12.299,127.001 12.57,127.091 12.72,127.152 12.84,127.182 
	13.262,127.212 14.314,127.362 14.435,127.392 14.495,127.392 14.795,127.482 14.915,127.542 15.396,127.753 15.877,128.083 
	16.87,128.805 17.591,129.256 17.651,129.316 17.772,129.437 18.013,129.767 18.313,130.429 18.373,130.819 18.373,130.911 
	18.343,131.181 18.343,131.332 18.313,131.542 18.223,131.752 17.953,132.053 17.111,132.774 16.78,132.925 16.569,132.956 
	15.577,132.895 15.426,132.956 15.246,133.045 14.766,133.526 14.194,133.887 13.892,134.037 12.78,134.338 12.72,134.338 
	12.54,134.429 12.27,134.669 12.149,134.939 12.149,134.969 12.119,135 12.059,135.271 12.119,135.631 12.27,135.962 
	12.329,136.082 12.6,136.503 13.111,137.164 13.382,137.375 15.366,138.698 15.426,138.938 15.546,139.149 15.577,139.45 
	15.577,139.811 15.366,140.081 14.975,140.502 14.766,140.923 14.435,141.735 14.374,141.976 14.284,142.126 13.863,142.487 
	13.562,142.637 13.352,142.698 12.871,143.178 12.811,143.449 12.84,144.231 12.84,144.261 12.811,144.261 12.811,144.291 
	12.78,144.381 12.69,144.501 12.751,144.652 13.683,144.802 13.953,144.863 14.435,144.892 14.644,144.863 14.795,144.832 
	15.156,144.711 15.426,144.592 15.908,144.381 16.239,144.171 16.51,143.93 16.96,143.148 16.719,142.397 16.419,141.674 
	16.478,141.074 16.478,140.682 16.449,140.322 16.569,140.021 16.69,140.021 16.899,139.991 17.201,139.961 17.441,139.901 
	18.884,140.682 19.697,141.284 20.147,142.247 20.298,142.757 20.298,143.118 20.177,143.569 19.756,144.201 19.636,144.441 
	19.636,144.561 19.576,144.711 19.125,145.013 18.734,144.983 18.553,145.043 17.561,145.523 16.99,145.884 16.81,146.005 
	16.78,146.005 16.569,146.035 16.208,145.854 15.727,146.064 15.246,146.064 15.066,146.185 14.885,146.396 14.705,146.877 
	14.705,147.057 14.735,147.268 14.795,147.388 15.036,147.629 15.877,148.17 15.998,148.26 16.599,148.53 16.99,148.711 
	17.321,148.832 17.681,148.892 18.433,148.771 19.215,148.561 20.177,147.809 20.688,147.208 21.17,146.787 21.681,146.064 
	21.801,145.434 21.832,144.863 21.801,144.381 21.801,144.201 21.801,143.9 21.952,143.48 22.102,143.178 22.373,142.728 
	22.673,142.487 22.913,142.366 23.125,142.336 23.575,142.336 23.786,142.426 24.116,142.667 24.267,142.998 24.297,143.058 
	24.387,144.381 24.357,144.532 24.176,144.983 23.756,145.735 23.455,146.275 23.154,146.636 22.913,146.937 22.583,147.388 
	22.012,148.08 21.681,148.501 20.809,149.884 20.539,150.184 19.605,150.966 19.517,151.087 19.517,151.116 19.517,151.147 
	19.485,151.177 19.667,152.169 19.636,152.41 19.636,152.439 19.605,152.53 19.546,152.65 19.546,152.71 19.546,152.801 
	19.546,152.83 19.816,153.913 19.877,154.846 19.906,155.085 20.027,155.296 21.109,156.499 21.139,156.95 21.021,157.46 
	21.711,157.882 21.772,158.002 21.952,158.423 22.042,158.604 22.342,159.115 22.643,159.416 23.063,159.687 23.125,159.657 
	23.244,159.386 23.335,158.664 23.515,158.303 23.575,158.092 23.605,157.882 23.726,156.77 23.846,156.378 23.996,156.139 
	24.146,155.988 24.508,155.747 24.868,155.597 25.409,155.567 25.86,155.657 26.131,155.837 26.371,156.108 26.492,156.439 
	26.522,156.83 26.462,157.191 26.342,157.612 26.221,158.333 26.011,158.754 25.439,159.505 25.379,159.867 25.168,159.897 
	25.049,160.137 25.078,160.348 24.868,160.408 24.628,160.378 24.538,160.468 24.538,160.678 24.538,160.739 24.326,160.86 
	24.116,160.889 23.756,160.979 23.936,161.822 24.236,162.723 24.538,164.106 24.628,165.609 24.628,165.67 24.628,165.941 
	24.628,165.971 24.628,166.091 24.628,166.392 24.598,166.663 24.598,166.723 24.598,166.933 24.538,167.084 24.478,167.384 
	24.267,167.625 23.575,168.105 22.974,168.316 21.952,168.467 21.801,168.467 21.05,168.496 20.568,168.467 20.478,168.376 
	20.358,168.136 19.847,167.685 19.756,167.654 19.726,167.654 19.576,167.654 19.335,167.654 19.245,167.625 19.095,167.654 
	18.313,167.805 18.013,167.956 17.982,167.985 17.953,168.016 17.742,168.226 17.711,168.256 17.591,168.406 17.23,169.218 
	17.261,169.519 17.381,170.451 17.411,170.542 17.471,170.632 17.532,170.661 17.681,170.751 17.772,170.812 18.343,171.022 
	18.433,171.053 18.824,171.203 19.276,171.684 19.366,171.864 19.517,171.985 19.877,172.075 20.237,172.075 20.929,172.315 
	20.959,172.346 21.26,172.526 22.763,173.549 23.004,173.939 23.094,174.18 23.094,174.301 22.974,174.932 22.884,175.593 
	22.673,176.014 22.162,176.435 21.861,176.585 21.38,176.706 20.989,176.946 20.598,177.308 20.418,177.968 22.793,177.788 
	24.387,177.637 25.68,177.517 26.823,177.397 26.853,177.458 27.905,177.367 29.77,177.126 33.618,176.796 33.618,177.006 
	36.986,176.706 36.896,175.473 36.775,174.36 36.565,172.075 36.294,169.639 37.257,169.549 38.37,169.429 39.663,169.278 
	39.692,169.399 39.782,169.459 44.112,169.008 45.706,168.857 48.022,168.617 49.134,168.496 50.156,168.376 50.247,168.376 
	53.104,168.075 53.253,169.248 53.253,169.309 53.434,171.022 53.464,171.233 53.614,172.556 53.795,174.18 53.795,174.36 
	53.885,175.022 53.975,176.043 54.096,177.187 54.156,177.667 54.216,178.33 54.276,178.84 54.276,178.961 54.276,179.081 
	54.336,179.472 54.336,179.562 54.486,181.156 54.546,181.788 56.14,181.577 56.651,181.546 56.892,181.516 57.132,181.487 
	58.035,181.427 58.787,181.336 59.898,181.216 60.14,181.186 60.26,181.186 61.251,181.066 61.282,181.066 61.402,181.066 
	61.823,181.005 62.996,180.885 63.506,180.854 63.628,180.825 65.071,180.674 65.312,180.645 65.461,180.615 67.236,180.464 
	68.017,180.374 68.138,180.374 67.867,177.488 67.837,177.187 67.657,175.353 67.506,173.609 67.566,173.578 73.069,172.977 
	73.069,172.917 73.671,172.736 73.73,172.706 73.881,172.496 73.941,172.075 74.152,171.864 74.422,171.925 74.723,172.285 
	74.783,172.767 76.286,173.218 76.857,173.368 77.85,173.639 79.173,174.089 79.624,174.209 79.955,174.33 80.195,174.391 
	82.691,175.172 85.999,176.194 86.27,176.254 90.359,177.517 91.141,177.758 94.93,178.901 97.696,179.743 99.229,180.194 
	99.891,180.404 99.92,180.404 100.282,180.524 106.567,179.863 108.581,179.622 108.491,179.171 109.724,179.051 112.67,178.75 
	112.7,178.75 112.94,178.72 113.242,178.691 115.737,178.45 115.347,174.901 117.15,174.691 117.241,174.691 118.654,174.51 
	119.796,174.391 120.969,174.27 122.323,174.119 122.382,174.119 123.766,173.939 124.217,173.878 125.36,173.758 126.141,173.639 
	126.533,173.609 127.164,173.519 127.284,173.519 127.826,173.458 128.667,173.368 128.757,173.337 130.892,173.098 
	131.042,173.098 132.186,172.947 132.757,172.887 132.816,172.857 133.509,172.797 133.81,172.767 137.207,172.346 138.409,172.254 
	142.318,171.774 "/>
<polygon id="2800002" fill="#666666" stroke="#FFFFFF" stroke-width="0.75"  points="205.976,162.573 205.976,162.393 205.886,159.505 
	205.796,155.176 205.734,153.041 205.734,153.011 205.734,152.981 205.734,152.921 205.614,147.719 205.555,144.14 205.555,143.96 
	205.493,142.607 205.493,141.795 205.493,141.224 205.465,140.502 205.434,138.277 205.434,138.217 205.373,135.842 
	205.344,134.729 205.313,133.256 205.284,132.835 205.254,131.001 205.254,130.79 205.225,130.219 205.192,128.294 205.162,127.001 
	205.135,126.099 205.072,123.633 204.983,119.754 204.953,118.912 204.953,118.582 204.953,117.98 204.953,117.649 204.923,116.267 
	204.894,115.966 204.861,114.191 204.861,113.801 204.861,113.319 204.861,113.169 204.861,112.839 204.831,112.177 
	204.831,111.636 204.802,111.456 204.802,110.824 204.771,109.561 204.742,108.449 204.742,108.178 204.712,107.546 
	204.712,106.794 204.652,104.449 204.652,104.389 204.622,103.367 204.622,103.126 204.562,101.473 204.503,99.428 204.503,98.887 
	204.471,97.653 204.471,97.232 204.471,96.511 204.411,95.398 204.411,94.828 204.441,94.677 204.441,94.195 204.441,93.714 
	204.381,91.279 204.381,90.978 204.352,88.693 204.352,87.821 204.352,87.701 204.352,86.137 204.321,86.137 204.321,86.046 
	204.292,84.122 204.292,83.491 204.262,80.544 204.231,78.439 204.231,78.229 204.202,77.327 204.202,76.756 204.14,74.44 
	204.11,73.628 204.08,72.185 204.08,71.523 204.08,71.433 204.021,69.839 203.99,66.893 203.99,66.473 203.961,65.088 
	203.901,63.916 203.961,62.743 203.931,62.262 203.871,61.45 203.81,58.473 203.779,55.978 203.779,55.767 203.779,55.617 
	203.75,54.955 203.72,53.452 203.63,48.671 203.63,48.49 203.54,45.604 203.511,44.822 203.511,44.281 203.479,43.739 
	203.451,42.417 203.451,42.296 203.451,42.116 203.419,41.966 203.419,39.951 203.389,37.966 203.389,37.456 203.299,32.645 
	203.299,32.163 203.329,32.042 203.27,29.427 203.27,29.366 203.27,27.593 203.27,27.291 203.27,27.262 203.27,27.172 
	203.27,23.562 203.27,23.083 203.27,22.48 203.27,21.218 203.18,19.473 203.18,18.873 203.18,17.94 203.147,16.076 203.12,14.272 
	203.088,13.219 203.059,12.438 202.938,7.837 202.789,7.686 201.104,7.266 200.533,7.025 200.292,6.935 200.081,6.784 
	199.631,6.484 198.999,5.913 198.579,5.251 198.549,5.221 198.457,5.1 198.066,4.349 197.555,3.446 197.224,2.906 196.955,2.545 
	196.383,2.034 195.51,0.831 195.391,0.5 195.36,0.5 192.083,0.921 191.964,0.921 191.692,0.982 186.069,1.642 184.958,1.793 
	183.873,1.913 178.613,2.545 178.161,2.575 177.951,2.604 177.589,2.665 177.108,2.725 177.017,2.725 175.938,2.875 175.335,2.936 
	174.433,3.056 174.251,3.086 172.147,3.327 170.824,3.507 169.441,3.658 164.479,4.289 162.164,4.56 160.059,4.831 157.954,5.07 
	155.608,5.372 153.835,5.582 153.654,5.582 153.354,5.611 151.52,5.792 151.398,5.792 151.279,5.822 151.1,5.852 149.113,6.152 
	148.692,6.213 146.979,6.394 146.588,6.453 144.724,6.665 143.793,6.755 143.221,6.814 142.86,6.875 142.801,6.875 142.619,6.904 
	142.378,6.935 142.229,6.935 138.68,7.386 137.658,7.506 135.464,7.776 135.434,7.776 134.32,7.927 134.201,7.957 131.944,8.168 
	131.674,8.197 130.441,8.318 129.419,8.438 122.894,9.22 121.812,9.341 121.992,11.115 122.052,11.686 122.202,13.128 
	122.353,14.362 122.382,14.722 122.954,19.834 123.134,21.158 125.54,20.887 126.562,20.767 126.773,22.662 127.074,25.307 
	127.284,27.141 127.555,29.456 127.555,29.487 127.615,29.877 127.675,30.509 127.705,30.629 127.765,31.26 127.885,32.224 
	128.005,33.366 128.155,34.508 128.336,35.952 128.367,36.193 128.396,36.462 128.426,36.853 128.426,36.883 128.578,37.966 
	128.637,38.658 128.938,41.424 132.336,41.003 132.606,43.59 132.636,43.859 132.636,43.98 132.847,45.754 132.877,45.965 
	133.087,47.798 133.087,47.919 132.937,48.01 132.847,47.919 132.847,47.89 132.877,47.829 132.997,47.829 133.027,47.798 
	132.847,47.618 132.787,47.618 132.757,47.648 132.696,47.89 132.606,47.949 132.275,47.769 132.245,47.648 131.944,47.648 
	131.794,47.287 131.042,47.377 130.741,47.318 130.622,47.137 130.592,47.167 130.532,47.318 130.351,47.377 129.899,46.687 
	129.659,46.656 129.479,46.897 129.419,46.927 129.358,46.866 129.238,46.596 128.907,46.626 128.126,46.536 127.675,46.355 
	127.645,46.205 127.705,46.115 127.313,46.055 126.983,46.476 126.442,46.266 126.382,46.295 126.382,46.506 126.352,46.566 
	126.231,46.536 126.202,46.566 126.141,46.626 125.991,46.626 125.36,46.476 125.33,46.415 125.119,46.386 125.029,46.445 
	125.089,46.566 125.27,46.717 125.27,46.836 125.27,46.897 124.818,47.018 124.728,46.957 124.457,47.047 124.307,47.197 
	124.337,47.047 124.157,46.927 123.796,46.897 123.645,46.717 123.465,46.656 122.803,46.566 122.232,46.957 121.481,47.258 
	121.3,47.318 120.819,47.348 120.488,47.228 120.368,47.137 120.127,46.506 119.796,46.596 119.677,46.596 119.195,46.506 
	119.165,46.445 119.015,46.175 118.925,46.084 118.774,46.024 118.383,45.634 118.174,45.574 117.992,45.543 117.812,45.394 
	117.872,45.183 117.782,45.003 117.753,44.973 117.181,45.032 117.15,45.032 117.091,45.032 115.226,45.213 115.076,45.242 
	114.475,45.273 113.723,45.363 113.422,45.394 112.068,45.514 108.25,45.965 108.04,45.965 107.167,46.084 107.107,46.115 
	107.017,46.115 105.423,46.325 102.026,46.687 102.416,49.963 102.477,50.294 102.506,50.566 102.506,50.595 102.597,51.587 
	102.657,52.099 102.657,52.249 102.688,52.459 102.718,52.55 102.718,52.67 102.808,53.602 102.927,54.835 102.958,55.346 
	103.078,57.121 103.139,57.602 103.168,57.662 103.379,59.345 103.529,60.518 103.8,62.894 103.86,63.405 103.86,63.435 
	103.86,63.584 103.86,63.646 103.891,63.766 103.98,63.766 104.281,66.652 104.341,67.253 104.582,69.628 104.612,69.99 
	104.792,71.854 104.822,72.366 104.973,73.779 105.002,73.989 105.123,75.252 107.198,75.042 108.491,74.921 110.295,74.741 
	111.588,74.65 111.948,74.621 113.001,74.5 113.061,74.5 117.03,74.049 117.692,73.989 118.805,73.869 119.044,76.154 
	119.286,78.56 119.677,81.747 119.857,83.341 119.978,83.341 119.978,83.521 120.008,83.642 120.398,87.069 120.85,91.039 
	121.12,93.414 121.3,95.038 121.36,95.669 121.511,97.083 121.781,99.368 121.871,100.239 122.022,101.684 122.292,103.998 
	122.443,105.381 122.593,106.794 122.713,107.667 122.834,108.87 122.864,109.17 123.074,110.854 123.195,111.936 123.465,114.342 
	123.675,116.056 123.736,116.628 123.826,117.439 124.188,120.657 124.188,120.867 124.247,121.349 124.307,121.89 124.337,122.16 
	124.368,122.311 124.368,122.34 124.578,124.054 124.638,124.595 124.668,124.897 124.728,125.408 124.878,126.911 124.999,128.083 
	125.029,128.144 125.27,130.369 125.389,131.511 125.961,131.452 131.162,130.85 132.546,130.7 132.576,130.7 133.569,130.58 
	133.479,130.97 133.387,130.911 133.208,130.911 133.237,131.091 132.816,131.271 132.245,131.301 131.975,131.511 131.765,131.722 
	131.734,132.053 131.854,132.204 131.914,132.414 131.854,132.684 131.705,132.895 131.403,133.015 131.162,133.045 
	130.651,132.956 129.899,132.714 129.419,132.684 129.178,132.925 129.088,133.135 129.088,133.195 129.178,133.226 
	129.208,133.315 129.118,133.376 129.058,133.226 129.84,140.292 130.351,144.863 133.357,144.501 133.899,144.441 133.93,144.441 
	134.141,144.441 134.499,144.381 135.974,144.231 137.568,144.05 138.861,143.9 139.341,143.871 139.553,146.005 139.612,146.516 
	139.854,149.012 139.943,149.644 140.154,151.718 140.545,155.477 140.816,157.792 141.177,161.22 141.386,163.325 141.567,164.858 
	141.597,165.309 142.318,171.774 144.032,171.533 145.656,171.323 146.618,171.263 151.038,170.751 152.182,170.632 
	152.992,170.542 153.055,170.542 153.354,170.512 153.564,170.481 154.679,170.361 154.798,170.33 156.962,170.091 158.285,169.97 
	159.277,169.85 159.998,169.76 160.48,169.729 160.63,169.699 161.654,169.609 162.075,169.549 162.135,169.909 163.518,169.76 
	164.96,169.579 165.171,169.549 165.562,169.519 165.624,170.091 166.584,169.97 167.907,169.82 167.848,169.248 168.479,169.158 
	168.899,169.128 169.26,169.067 169.411,169.038 169.501,169.038 169.922,169.008 170.705,168.947 172.299,168.767 172.868,168.708 
	175.574,168.376 175.756,168.376 176.328,168.287 176.357,168.287 177.409,168.136 178.491,168.016 182.61,167.475 182.821,167.444 
	183.694,167.354 186.311,167.023 188.293,166.752 194.249,166.001 199.39,165.309 200.203,165.219 200.23,165.219 200.353,165.189 
	203.27,164.798 204.172,164.708 204.381,164.678 204.831,164.618 205.434,164.557 206.005,164.467 "/>
<polygon id="2800003" fill="#666666" stroke="#FFFFFF" stroke-width="0.75"  points="219.445,316.578 219.445,316.517 218.545,311.166 
	218.333,309.932 217.942,307.676 217.582,305.483 216.408,298.656 216.408,298.566 216.199,297.333 216.169,296.882 
	216.078,296.371 215.807,294.838 214.755,288.852 214.727,288.825 214.545,287.71 214.244,285.998 214.123,285.157 213.884,283.771 
	213.884,283.742 213.673,282.6 213.493,281.608 213.342,280.775 213.101,279.032 212.832,277.589 212.772,277.197 212.71,276.776 
	212.681,276.626 212.65,276.535 212.441,275.272 212.019,272.717 211.777,271.275 211.658,270.613 211.237,268.117 211.208,267.935 
	210.996,266.793 210.305,262.854 210.186,262.163 209.975,260.839 209.915,260.238 209.134,255.607 209.071,255.306 
	209.071,255.247 209.012,254.916 208.893,254.165 208.651,252.69 208.261,250.195 208.261,250.166 207.93,248.3 207.719,246.858 
	207.659,244.692 207.659,243.94 207.659,243.729 207.537,235.25 207.537,235.161 207.51,234.467 207.51,234.168 207.478,233.025 
	207.388,227.524 207.388,226.71 207.328,224.696 207.328,224.636 207.328,223.885 207.328,222.922 207.299,221.809 207.299,221.237 
	207.299,221.118 207.299,220.277 207.269,218.502 207.269,218.412 207.269,218.261 207.209,215.616 207.179,213.841 
	207.117,211.496 207.058,209.391 207.058,209.361 207.058,209.271 207.027,208.639 207.058,208.399 207.058,208.158 
	207.058,207.316 207.058,207.196 207.058,206.625 206.968,202.685 206.968,202.595 206.968,202.234 206.938,201.513 206.878,200.04 
	206.878,199.95 206.878,199.829 206.878,199.768 206.727,192.402 206.667,190.688 206.667,190.087 206.637,188.522 206.637,188.492 
	206.485,182.81 206.458,181.757 206.426,179.712 206.426,179.653 206.426,179.322 206.426,178.901 206.426,178.78 206.426,178.75 
	206.396,177.637 206.276,173.698 206.127,168.767 206.035,165.039 206.005,164.467 205.434,164.557 204.831,164.618 
	204.381,164.678 204.172,164.708 203.27,164.798 200.353,165.189 200.23,165.219 200.203,165.219 199.39,165.309 194.249,166.001 
	188.293,166.752 186.311,167.023 183.694,167.354 182.821,167.444 182.61,167.475 178.491,168.016 177.409,168.136 176.357,168.287 
	176.328,168.287 175.756,168.376 175.574,168.376 172.868,168.708 172.299,168.767 170.705,168.947 169.922,169.008 
	169.501,169.038 169.411,169.038 169.26,169.067 168.899,169.128 168.479,169.158 167.848,169.248 167.907,169.82 166.584,169.97 
	165.624,170.091 165.562,169.519 165.171,169.549 164.96,169.579 163.518,169.76 162.135,169.909 162.075,169.549 161.654,169.609 
	160.63,169.699 160.48,169.729 159.998,169.76 159.277,169.85 158.285,169.97 156.962,170.091 154.798,170.33 154.679,170.361 
	153.564,170.481 153.354,170.512 153.055,170.542 152.992,170.542 152.182,170.632 151.038,170.751 146.618,171.263 
	145.656,171.323 144.032,171.533 142.318,171.774 138.409,172.254 137.207,172.346 133.81,172.767 133.509,172.797 132.816,172.857 
	132.757,172.887 132.186,172.947 131.042,173.098 130.892,173.098 128.757,173.337 128.667,173.368 127.826,173.458 
	127.284,173.519 127.164,173.519 126.533,173.609 126.141,173.639 125.36,173.758 124.217,173.878 123.766,173.939 122.382,174.119 
	122.323,174.119 120.969,174.27 119.796,174.391 118.654,174.51 117.241,174.691 117.15,174.691 115.347,174.901 115.737,178.45 
	115.827,179.111 115.798,179.292 116.279,183.561 116.458,185.034 116.7,187.17 116.879,188.823 116.94,189.516 116.971,189.756 
	117.301,192.763 117.331,193.213 117.422,194.085 117.451,194.176 117.451,194.236 117.512,194.898 117.541,195.168 
	117.872,198.174 117.481,198.326 117.061,199.047 116.85,199.198 116.368,199.708 116.158,199.979 116.128,200.34 116.068,200.581 
	115.918,200.64 115.768,200.52 115.707,200.491 115.437,200.702 115.406,200.791 115.406,200.851 115.617,200.881 115.707,200.971 
	115.707,201.061 115.617,201.152 115.498,201.243 114.746,201.482 114.715,201.573 114.865,201.753 114.896,202.023 
	114.715,202.294 115.798,205.662 115.918,206.083 116.098,206.594 116.729,208.729 117.451,211.015 117.451,211.075 
	117.541,211.375 117.602,211.496 118.203,213.541 119.134,216.607 119.195,216.757 119.286,217.029 119.375,217.389 
	119.917,219.132 119.947,219.193 120.278,220.366 120.458,221.689 120.488,222.049 120.519,222.44 120.579,222.833 120.789,224.786 
	120.879,225.9 120.909,226.109 120.969,226.591 121.181,228.516 121.39,230.65 121.331,230.68 121.902,236.124 122.082,237.537 
	122.172,237.537 122.382,239.37 122.503,240.754 122.533,241.085 122.563,241.145 122.653,242.165 122.894,244.42 126.802,243.97 
	127.404,243.911 128.216,246.497 128.277,247.099 128.517,249.563 128.607,250.285 129.029,254.284 129.358,257.26 129.389,257.622 
	129.599,259.426 129.629,259.877 129.96,262.703 129.96,262.794 130.171,264.568 130.261,264.568 130.291,264.809 130.32,264.809 
	130.441,264.779 131.192,264.627 131.223,264.627 132.365,264.418 134.41,264.028 134.681,263.996 139.493,263.095 140.214,262.944 
	140.515,262.884 141.416,262.703 142.56,262.494 146.409,261.772 146.919,261.682 147.34,265.139 147.73,268.596 147.941,270.372 
	148.392,274.16 148.483,275.182 148.514,275.272 148.543,275.573 148.633,276.416 148.662,276.535 149.053,279.992 149.265,281.757 
	149.595,284.644 149.836,286.417 150.257,290.177 153.204,289.815 155.549,289.576 156.932,289.394 157.954,289.334 
	158.016,289.305 158.195,289.305 158.827,289.215 161.443,288.915 162.555,288.792 163.938,288.643 165.651,288.432 
	167.156,288.252 169.471,288.011 171.996,287.71 172.236,287.681 176.026,287.26 177.499,287.079 178.071,287.049 178.432,286.99 
	179.243,286.9 180.718,286.718 187.512,285.908 187.571,286.689 188.084,290.627 188.775,296.522 189.106,299.198 189.136,299.377 
	189.168,299.529 189.168,299.678 189.228,300.101 189.258,300.431 189.768,304.759 189.768,304.88 190.22,308.579 190.248,308.609 
	190.279,309.059 190.459,310.474 190.459,310.534 190.459,310.653 190.67,312.188 190.7,312.429 190.7,312.489 190.73,313.029 
	190.79,313.209 190.85,313.901 191.24,317.179 191.272,317.39 191.573,319.977 192.053,320.037 193.736,319.885 197.495,319.435 
	197.526,319.435 197.555,319.435 199.811,319.104 199.872,319.104 201.946,318.833 202.367,318.773 203.359,318.652 
	204.292,318.532 204.622,318.502 206.095,318.353 206.095,318.321 207.087,318.202 210.186,317.84 211.026,317.75 211.298,317.721 
	211.899,317.66 212.591,317.57 213.282,317.51 219.478,316.729 "/>
<polygon id="2800004" fill="#666666" stroke="#FFFFFF" stroke-width="0.75"  points="160.931,350.316 160.691,348.06 159.849,340.631 
	159.247,334.981 159.068,333.476 158.797,330.89 158.767,330.77 158.496,328.395 157.983,323.735 157.444,323.794 157.354,323.073 
	152.271,323.645 152.301,324.036 152.36,324.635 152.423,325.388 152.452,325.838 151.971,325.869 151.609,325.899 151.368,325.928 
	149.655,326.11 149.386,326.14 149.053,326.169 148.964,325.449 148.934,324.936 148.903,324.725 147.581,324.846 147.19,324.907 
	147.131,324.367 147.101,324.155 147.101,324.095 147.07,323.944 147.07,323.914 144.935,324.155 144.484,324.215 143.671,324.304 
	143.733,324.787 143.793,325.237 140.515,325.568 139.883,325.627 136.906,325.958 136.755,324.576 136.755,324.426 
	136.123,318.711 136.096,318.382 135.944,317.059 135.944,316.848 135.914,316.758 135.884,316.517 135.824,315.645 
	135.794,315.555 135.703,314.804 135.372,311.827 135.071,308.88 134.981,308.128 134.922,307.738 134.892,307.498 134.892,307.375 
	134.83,306.956 134.83,306.835 134.499,303.918 134.472,303.558 134.26,301.752 133.989,299.318 133.84,297.905 133.84,297.783 
	133.718,296.641 133.658,296.25 133.628,296.099 133.569,295.589 133.479,294.838 133.447,294.356 133.208,292.071 133.748,292.01 
	134.26,291.951 137.719,291.59 139.672,291.349 140.816,291.23 142.89,290.989 146.74,290.568 147.19,290.508 148.031,290.417 
	148.183,290.387 149.926,290.208 150.257,290.177 149.836,286.417 149.595,284.644 149.265,281.757 149.053,279.992 
	148.662,276.535 148.633,276.416 148.543,275.573 148.514,275.272 148.483,275.182 148.392,274.16 147.941,270.372 147.73,268.596 
	147.34,265.139 146.919,261.682 146.409,261.772 142.56,262.494 141.416,262.703 140.515,262.884 140.214,262.944 139.493,263.095 
	134.681,263.996 134.41,264.028 132.365,264.418 131.223,264.627 131.192,264.627 130.441,264.779 130.32,264.809 130.291,264.809 
	129.75,264.898 129.147,264.988 128.457,265.11 127.855,265.229 125.871,265.62 125.84,265.62 123.976,265.951 123.555,266.012 
	121.902,266.313 120.76,266.522 117.992,267.035 117.15,267.184 116.91,267.244 115.557,267.455 113.332,267.875 111.618,268.146 
	111.527,268.176 110.174,268.417 109.032,268.596 104.492,269.41 99.319,270.34 99.26,270.34 99.229,270.402 98.988,270.402 
	98.838,270.25 98.658,270.161 98.267,270.461 98.057,270.67 97.906,270.944 97.636,271.034 97.185,271.003 96.583,271.302 
	96.343,271.603 96.042,271.725 95.681,271.996 95.501,272.327 95.32,272.446 95.02,272.566 94.839,272.625 94.599,272.807 
	93.906,273.078 93.606,273.078 93.367,273.108 93.155,273.227 92.343,273.378 91.772,273.68 91.381,273.951 90.991,274.341 
	90.78,274.61 90.569,275.123 89.878,275.152 89.667,275.182 89.336,275.513 89.187,275.602 88.284,275.694 88.254,275.694 
	87.141,275.784 87.051,275.814 84.225,276.084 84.015,276.084 83.925,276.115 83.082,276.205 82.571,276.234 82.511,276.264 
	82.662,277.438 82.181,277.467 81.158,277.557 80.736,277.617 80.647,277.617 80.407,277.647 80.226,276.446 79.895,276.505 
	78.03,276.655 77.971,276.747 77.76,276.806 76.978,276.896 74.692,277.137 73.581,277.256 73.279,277.289 71.295,277.498 
	70.394,277.617 69.22,277.739 68.95,277.768 68.258,277.829 66.815,277.98 66.454,278.04 64.258,278.249 61.974,278.459 
	61.823,278.459 59.778,278.671 59.688,278.671 58.726,278.76 58.095,271.844 57.915,269.529 57.974,268.385 58.937,267.125 
	58.937,267.035 58.726,265.02 58.666,264.237 58.636,263.965 58.516,262.735 58.485,262.404 58.215,259.636 58.095,258.072 
	58.095,257.863 58.064,256.629 57.523,252.841 57.253,251.095 56.771,247.668 56.471,245.955 56.05,243.338 55.809,241.806 
	55.208,237.235 55.268,237.143 55.388,236.813 55.268,236.422 55.208,235.913 55.479,235.731 55.84,235.371 55.989,234.98 
	55.989,234.89 55.959,234.831 55.84,234.708 55.719,234.92 55.659,234.98 55.6,234.95 55.569,234.86 55.688,234.649 55.659,234.559 
	55.359,234.53 55.178,234.589 55.028,234.559 54.998,234.5 55.118,234.44 55.569,234.199 55.688,234.229 55.809,234.199 
	55.93,234.077 55.93,233.927 55.899,233.838 55.629,233.927 55.388,233.747 55.509,233.236 55.809,232.875 56.201,232.544 
	56.38,232.123 56.17,231.943 56.14,231.792 56.622,231.341 56.651,231.07 56.44,230.499 56.532,230.29 56.532,230.229 56.471,230.2 
	56.17,230.137 55.989,229.928 56.05,229.836 56.17,229.869 56.201,229.836 56.111,229.116 56.32,228.695 56.291,228.212 
	56.291,228.153 56.23,228.153 56.17,228.394 56.05,228.426 55.75,228.124 55.719,228.034 55.809,227.613 55.87,227.432 
	56.32,227.342 56.44,227.252 56.44,227.071 56.471,226.921 56.532,226.83 56.622,226.802 56.802,226.982 56.862,227.011 
	57.042,226.952 57.223,226.862 57.374,226.862 59.237,227.312 60.049,227.342 60.53,227.583 60.711,227.613 60.922,227.613 
	61.011,227.492 60.981,227.283 60.922,227.101 60.771,226.802 60.711,226.5 60.561,225.9 60.26,225.358 60.169,224.786 
	60.29,224.667 60.47,224.606 60.771,224.485 61.011,224.004 61.011,223.945 60.862,223.885 60.771,223.823 60.771,223.704 
	60.951,223.493 61.251,223.284 61.222,223.164 61.161,223.012 61.192,223.012 61.192,222.922 61.342,222.893 61.282,222.742 
	61.222,222.592 61.402,222.411 61.282,221.93 61.342,221.93 61.432,221.99 61.492,221.93 61.402,221.629 61.463,221.54 
	61.823,221.388 61.823,221.209 62.003,221.087 62.003,220.908 62.214,220.607 62.094,219.825 62.124,219.735 62.305,219.585 
	62.334,219.404 62.365,219.314 62.425,219.314 62.545,219.433 62.605,219.404 62.785,219.103 62.966,218.954 62.575,218.742 
	62.274,218.712 62.124,218.623 62.094,218.502 62.124,218.322 62.064,218.081 62.003,218.021 61.853,218.05 61.793,217.991 
	61.884,217.63 61.853,217.149 61.763,216.909 61.492,216.397 61.463,216.216 61.522,216.157 61.853,216.066 62.274,215.646 
	62.334,215.525 62.305,215.195 62.334,215.013 62.455,214.894 62.515,214.894 62.665,215.104 62.815,215.075 62.966,214.743 
	63.567,214.563 63.598,214.413 63.598,214.381 63.417,214.202 63.417,214.142 63.447,214.051 63.718,214.082 63.808,214.171 
	63.808,214.233 63.837,214.262 64.439,214.082 64.499,214.022 64.589,213.811 64.83,213.661 64.891,213.571 65.041,213.541 
	65.25,213.75 65.281,213.902 65.372,213.931 65.461,213.872 65.642,213.75 66.003,213.42 66.092,213.39 66.153,213.42 
	66.153,213.51 66.604,213.931 66.695,213.96 66.754,213.902 66.754,213.841 66.695,213.39 66.604,213.179 66.544,213.089 
	66.423,213.089 66.423,212.878 66.513,212.758 66.484,212.699 66.544,212.609 66.965,212.278 67.236,212.308 67.326,212.368 
	67.627,212.337 68.138,212.157 68.168,212.037 68.047,211.887 68.108,211.827 68.439,211.585 68.529,211.496 68.439,211.344 
	68.468,211.285 68.589,211.225 68.769,210.894 68.89,210.564 69.04,210.473 69.22,210.502 69.732,210.473 69.732,210.414 
	69.702,210.323 69.882,210.083 70.123,210.083 70.153,210.023 70.092,209.602 70.212,209.181 70.423,209.06 70.483,209.06 
	70.513,209.089 70.423,209.21 70.453,209.271 70.543,209.301 70.664,209.271 70.784,209.181 70.934,208.76 70.723,208.489 
	70.784,207.978 70.905,207.887 70.905,207.466 71.386,207.015 71.596,206.895 72.227,206.805 72.708,206.986 72.89,207.166 
	73.34,207.196 73.55,207.376 73.55,207.436 73.46,207.496 73.49,207.586 73.52,207.617 73.581,207.586 73.61,207.557 
	73.971,207.346 74.181,207.105 74.271,206.834 74.422,206.625 74.453,206.625 74.512,206.775 74.602,206.865 75.054,206.684 
	75.084,206.594 75.023,206.565 75.054,206.354 75.505,205.963 75.415,205.813 75.415,205.662 75.655,205.572 75.746,205.542 
	75.805,205.331 75.926,205.091 76.046,205.122 76.076,205.181 76.105,205.392 76.076,205.512 76.105,205.632 76.196,205.632 
	76.377,205.512 76.437,205.451 76.377,205.001 76.437,204.941 76.648,204.88 76.737,205.06 76.857,205.031 76.948,204.971 
	77.099,204.76 77.129,204.55 77.099,204.489 77.008,204.37 77.008,204.279 77.278,204.129 77.489,204.098 77.609,204.489 
	77.64,204.67 77.79,204.7 78.091,204.61 78.271,204.459 78.361,204.309 78.392,204.219 78.361,204.098 78.992,203.708 
	79.023,203.647 78.933,203.196 79.233,203.046 79.293,202.986 79.323,202.685 79.323,202.415 79.534,201.843 79.955,201.333 
	80.436,201.092 80.557,201.152 80.587,201.302 81.008,201.453 81.098,201.422 81.339,201.092 81.218,200.971 81.248,200.43 
	81.548,200.099 81.789,199.979 81.819,200.099 81.85,200.099 81.91,200.009 81.879,199.919 82.03,200.099 82.3,200.16 
	82.481,200.099 82.511,199.95 82.602,199.829 82.992,199.588 83.713,199.798 83.684,199.588 83.894,199.347 84.105,199.227 
	84.346,199.227 84.526,199.078 84.676,199.078 84.856,198.987 84.917,198.987 85.097,199.288 85.126,199.408 85.367,199.437 
	85.818,199.317 86.239,198.957 86.841,199.108 87.141,198.926 87.172,198.896 87.141,198.686 88.013,197.784 88.765,197.274 
	88.975,197.244 89.006,197.123 89.096,197.033 89.367,196.912 89.428,196.641 90.028,196.551 90.179,196.702 90.299,197.002 
	90.389,197.033 90.569,196.822 90.66,196.521 90.54,196.22 90.63,195.919 90.78,195.739 90.931,195.709 91.02,195.799 
	91.111,195.83 91.472,195.739 91.532,195.589 91.982,195.378 92.253,195.378 92.284,195.439 92.313,195.589 92.435,195.589 
	92.584,195.319 92.915,195.589 92.975,195.589 93.306,195.168 93.275,194.958 93.336,194.927 93.546,194.807 93.606,194.537 
	93.847,193.936 93.937,193.905 94.057,194.026 94.088,193.995 94.147,193.875 94.118,193.695 94.298,193.094 94.509,192.974 
	94.629,192.943 94.87,192.974 95.23,192.882 95.23,192.763 95.501,192.492 95.922,192.522 96.012,192.432 96.133,192.071 
	96.133,191.95 96.102,191.861 96.192,191.74 96.403,191.74 96.403,191.68 96.463,191.019 96.583,190.868 96.613,190.508 
	96.854,190.327 96.974,189.936 97.004,189.516 97.275,188.522 97.395,187.681 97.365,187.65 97.215,187.681 97.185,187.591 
	97.365,187.23 97.456,187.14 97.546,186.898 97.546,186.839 97.275,186.688 97.425,186.208 97.456,186.117 97.305,186.147 
	97.275,186.117 97.365,185.967 97.365,185.546 97.275,185.426 97.275,185.335 97.334,185.034 97.575,184.674 97.696,184.674 
	97.816,184.915 98.417,184.613 98.567,184.523 98.748,184.223 98.748,184.133 98.959,183.381 98.929,183.351 98.838,183.381 
	98.809,183.291 98.869,183.201 99.109,183.23 99.109,183.05 99.049,182.99 99.169,182.779 99.169,182.629 99.26,182.599 
	99.229,182.298 99.35,182.178 99.409,181.967 99.981,181.516 100.071,180.975 100.191,180.825 100.282,180.615 100.282,180.524 
	99.92,180.404 99.891,180.404 99.229,180.194 97.696,179.743 94.93,178.901 91.141,177.758 90.359,177.517 86.27,176.254 
	85.999,176.194 82.691,175.172 80.195,174.391 79.955,174.33 79.624,174.209 79.173,174.089 77.85,173.639 76.857,173.368 
	76.286,173.218 74.783,172.767 74.723,172.285 74.422,171.925 74.152,171.864 73.941,172.075 73.881,172.496 73.73,172.706 
	73.671,172.736 73.069,172.917 73.069,172.977 67.566,173.578 67.506,173.609 67.657,175.353 67.837,177.187 67.867,177.488 
	68.138,180.374 68.017,180.374 67.236,180.464 65.461,180.615 65.312,180.645 65.071,180.674 63.628,180.825 63.506,180.854 
	62.996,180.885 61.823,181.005 61.402,181.066 61.282,181.066 61.251,181.066 60.26,181.186 60.14,181.186 59.898,181.216 
	58.787,181.336 58.035,181.427 57.132,181.487 56.892,181.516 56.651,181.546 56.14,181.577 54.546,181.788 54.486,181.156 
	54.336,179.562 54.336,179.472 54.276,179.081 54.276,178.961 54.276,178.84 54.216,178.33 54.156,177.667 54.096,177.187 
	53.975,176.043 53.885,175.022 53.795,174.36 53.795,174.18 53.614,172.556 53.464,171.233 53.434,171.022 53.253,169.309 
	53.253,169.248 53.104,168.075 50.247,168.376 50.156,168.376 49.134,168.496 48.022,168.617 45.706,168.857 44.112,169.008 
	39.782,169.459 39.692,169.399 39.663,169.278 38.37,169.429 37.257,169.549 36.294,169.639 36.565,172.075 36.775,174.36 
	36.896,175.473 36.986,176.706 33.618,177.006 33.618,176.796 29.77,177.126 27.905,177.367 26.853,177.458 26.823,177.397 
	25.68,177.517 24.387,177.637 22.793,177.788 20.418,177.968 20.478,178.54 20.478,178.691 20.388,179.501 20.147,180.013 
	19.605,180.674 19.305,180.885 18.705,181.847 18.553,181.967 18.433,182.148 18.463,182.449 18.524,182.629 18.674,182.84 
	18.193,183.531 18.013,183.892 17.892,184.192 17.862,184.674 17.892,184.915 18.013,185.305 18.102,185.485 18.343,185.816 
	18.403,185.847 18.974,186.298 19.185,186.418 20.208,186.749 20.629,186.839 20.959,186.839 21.08,186.839 21.32,186.779 
	21.65,186.749 21.772,186.688 22.162,186.538 22.583,186.208 23.214,185.185 23.305,184.734 23.305,184.613 23.335,184.553 
	23.335,184.433 23.305,184.192 22.913,182.93 22.704,182.419 22.733,182.208 22.733,182.119 22.763,182.058 22.943,181.908 
	23.094,181.757 23.094,181.637 23.094,181.516 22.913,181.306 22.613,181.095 22.524,180.975 22.524,180.946 22.553,180.825 
	22.673,180.284 22.704,180.224 22.733,180.224 22.854,180.133 23.214,179.893 23.305,179.833 24.146,179.472 24.508,179.382 
	25.139,179.532 25.349,179.682 25.59,179.893 25.891,180.254 26.402,181.275 26.552,181.908 26.582,182.148 26.492,182.298 
	26.402,182.358 26.342,182.479 26.432,182.719 26.552,182.84 27.153,183.201 27.244,183.322 27.694,184.043 27.786,184.282 
	27.786,184.343 27.786,184.734 27.786,184.854 27.786,184.944 27.845,185.215 27.905,185.456 27.936,185.636 27.936,185.816 
	27.936,185.847 27.905,186.057 27.725,186.809 27.604,187.08 26.672,188.372 25.53,189.665 24.868,189.966 24.297,190.087 
	24.087,190.087 23.484,190.627 23.125,190.988 23.034,191.139 23.034,191.199 22.823,192.101 22.704,192.461 22.402,192.732 
	22.312,192.853 22.312,192.882 22.162,193.634 22.222,193.965 22.253,194.236 22.283,194.626 22.283,194.747 22.222,195.258 
	22.192,195.77 22.613,196.101 22.733,196.16 22.704,196.492 22.342,197.665 22.312,197.995 22.312,198.084 22.373,198.505 
	22.553,198.836 22.884,199.078 23.154,199.137 23.455,199.167 24.657,198.926 25.229,198.896 25.86,199.078 27.423,199.227 
	28.326,199.437 29.439,199.739 29.709,199.86 29.89,200.099 29.89,200.129 29.919,200.34 29.8,200.881 29.439,201.693 
	28.687,202.475 28.387,202.715 27.274,203.288 26.913,203.557 26.071,204.309 25.53,205.001 25.499,205.06 25.47,205.122 
	25.319,205.572 24.958,206.263 24.898,206.354 24.657,206.414 24.538,206.504 24.207,206.865 24.057,207.075 24.027,207.136 
	23.996,207.586 24.027,207.887 24.057,208.098 24.057,208.158 24.057,208.188 24.087,208.308 24.146,208.489 24.267,208.94 
	24.297,209.089 24.357,209.181 24.718,209.993 24.898,210.263 24.958,210.323 25.078,210.444 25.108,210.502 25.53,210.894 
	26.071,211.254 26.25,211.344 26.612,211.344 26.702,211.315 27.034,210.894 27.515,210.774 28.626,210.172 29.168,209.841 
	30.311,209.361 31.063,209.15 31.092,208.639 31.394,208.038 31.484,207.677 31.513,207.105 31.604,206.775 32.084,206.113 
	32.355,205.903 32.807,206.053 33.167,206.294 33.739,206.986 33.979,207.466 34.039,207.647 34.099,208.278 34.039,208.668 
	33.708,209.331 33.528,209.602 33.347,209.751 32.957,210.203 32.476,210.923 32.175,211.254 31.725,211.556 31.664,211.585 
	31.363,211.796 30.101,212.758 30.07,212.789 29.439,213.33 29.83,214.082 30.822,214.803 31.513,215.164 31.544,215.164 
	31.664,215.223 33.137,215.675 34.16,216.006 34.28,216.066 34.701,216.248 35.483,216.757 35.843,217.208 35.843,217.269 
	35.963,217.479 35.994,217.661 35.994,217.901 35.874,218.201 35.603,218.441 35.512,218.533 35.333,218.653 35.062,218.712 
	35.002,218.712 34.941,218.712 34.16,218.682 33.678,218.592 33.017,218.412 32.716,218.292 32.175,217.93 31.784,217.599 
	31.063,216.698 30.281,215.495 29.98,215.133 28.597,213.992 28.356,214.381 28.416,214.954 28.387,215.315 28.266,215.916 
	27.966,216.788 27.454,218.021 27.454,218.412 27.604,219.314 27.604,219.344 27.635,219.374 27.815,219.674 27.936,219.885 
	27.966,219.916 27.995,219.975 28.175,220.185 28.356,220.366 28.387,220.396 28.897,220.878 29.168,221.147 29.257,221.177 
	29.318,221.237 30.13,221.719 30.702,221.96 30.942,222.049 32.115,222.47 32.566,222.53 33.378,222.681 33.678,222.711 
	33.708,222.711 33.739,222.711 33.919,222.622 34.52,222.11 35.242,221.599 35.271,221.568 35.603,221.209 35.933,221.118 
	36.625,221.209 36.715,221.237 36.836,221.269 36.986,221.329 37.046,221.388 37.618,221.869 37.708,221.96 37.828,222.171 
	37.888,222.291 37.978,223.012 37.978,223.313 37.918,223.522 37.857,223.614 37.768,223.734 37.708,223.853 37.498,224.064 
	37.467,224.094 37.136,224.395 36.264,224.847 36.354,225.387 36.325,225.748 36.234,226.079 35.994,226.621 35.843,227.703 
	35.874,227.974 35.963,228.185 36.023,228.245 36.204,228.516 36.685,228.754 37.167,228.907 39.332,229.148 40.083,229.085 
	40.625,229.116 40.775,229.116 41.557,229.237 42.158,229.386 42.699,229.568 43,230.048 43.03,230.59 42.97,230.889 42.82,231.251 
	42.789,231.282 42.759,231.341 42.188,232.244 41.828,232.665 41.767,232.724 41.737,232.754 41.646,232.875 41.526,232.995 
	41.105,233.416 41.076,233.416 40.384,233.927 40.233,234.017 40.173,234.047 39.994,234.077 39.902,234.017 39.722,233.868 
	39.271,233.356 39.122,233.115 39.062,233.084 38.549,233.084 38.37,233.115 38.249,233.174 38.069,233.416 38.008,233.626 
	37.857,234.53 38.008,235.281 38.159,235.551 38.278,235.671 38.881,236.213 39.03,236.604 39.001,236.664 38.64,236.995 
	38.399,237.384 38.278,238.347 38.31,238.767 38.339,239.158 38.188,239.429 38.039,239.611 37.888,239.73 37.678,239.82 
	37.498,239.82 37.467,239.82 37.317,239.792 37.287,239.76 37.227,239.76 37.136,239.7 37.016,239.489 36.926,239.309 
	36.836,239.069 36.565,238.949 35.723,238.228 35.363,238.046 34.821,237.867 34.491,237.837 34.009,237.987 33.8,238.257 
	33.768,238.288 33.708,238.558 33.678,239.069 33.559,239.339 33.197,239.852 32.505,239.339 32.235,239.28 31.664,239.37 
	31.123,239.64 30.611,240.15 30.16,240.963 29.86,241.145 29.8,241.113 29.589,241.145 29.469,241.085 29.108,240.844 
	28.777,240.693 28.657,240.663 28.447,240.722 26.913,241.774 26.672,242.015 26.552,242.197 26.522,242.256 26.432,242.677 
	26.342,243.038 26.221,243.851 26.161,244.843 26.161,244.993 26.161,245.385 26.161,245.504 26.161,245.564 26.191,245.654 
	26.191,245.684 26.25,245.925 26.282,246.044 26.312,246.106 26.402,246.345 26.432,246.405 26.462,246.467 26.913,247.159 
	27.094,247.248 27.604,247.248 28.326,247.337 28.867,247.519 29.048,247.549 29.168,247.579 29.229,247.579 29.378,247.579 
	30.401,247.519 30.46,247.519 30.581,247.549 30.822,247.308 30.912,247.218 31.032,247.099 31.212,247.007 31.814,246.736 
	32.476,246.646 32.776,246.676 33.318,246.768 33.859,247.099 34.43,247.248 34.43,245.654 34.491,245.564 34.551,245.171 
	34.43,244.602 33.979,244.152 33.708,243.58 33.739,243.099 34.25,242.948 34.821,243.219 35.542,243.669 36.023,244.06 
	36.595,244.12 37.317,244.361 37.527,245.204 37.498,245.475 37.437,245.715 37.227,246.196 37.167,246.375 37.136,246.437 
	37.046,246.586 36.836,246.887 36.807,246.947 36.715,247.007 36.685,247.067 36.656,247.099 36.204,247.337 35.933,247.4 
	35.994,247.85 36.055,248.36 35.843,248.961 35.813,248.961 35.603,249.203 33.829,250.407 32.987,250.976 32.957,251.006 
	32.926,251.068 32.897,251.095 32.897,251.248 33.257,253.232 33.228,253.381 33.197,253.381 33.197,253.414 33.137,253.441 
	33.077,253.473 32.897,253.473 31.994,253.502 31.633,253.381 30.881,252.841 30.13,251.819 29.8,251.489 29.349,251.217 
	29.289,251.187 29.048,251.127 28.657,251.187 28.416,251.307 27.995,251.729 27.725,252.15 27.665,252.361 27.635,252.57 
	27.665,252.811 27.725,252.991 27.905,253.292 28.115,253.533 28.477,253.772 28.897,253.953 30.19,254.102 30.281,254.102 
	32.265,254.343 32.776,254.525 33.047,254.766 33.197,254.946 33.347,255.368 33.438,255.758 33.739,255.848 32.897,257.26 
	32.536,257.713 32.055,258.104 32.025,258.133 31.183,258.464 28.146,259.096 28.085,259.096 27.905,259.275 27.786,259.397 
	27.725,259.426 27.604,259.546 27.574,259.606 27.333,259.877 27.304,259.907 27.123,260.178 26.853,260.569 26.672,260.958 
	26.642,261.2 26.642,261.23 26.702,261.561 26.702,262.103 26.522,262.973 26.552,263.033 26.672,263.095 27.094,262.973 
	27.184,263.125 27.153,263.665 27.153,263.816 27.153,263.876 27.184,263.876 27.454,264.118 27.484,264.207 27.484,264.267 
	27.484,264.296 27.333,264.448 26.943,264.627 26.853,264.749 26.763,264.988 26.672,265.047 26.432,265.139 26.191,265.11 
	26.102,265.229 25.95,265.53 25.74,265.861 24.657,267.154 24.207,267.816 24.176,267.875 23.335,268.507 22.283,268.958 
	22.192,269.049 22.162,269.049 22.132,269.079 22.132,269.109 22.102,269.168 22.102,269.199 22.071,269.258 22.042,269.5 
	22.071,269.77 22.132,269.95 22.253,270.101 22.643,270.461 22.673,270.492 23.786,271.365 23.816,271.484 23.846,271.514 
	23.816,271.603 23.756,272.235 23.605,272.625 23.275,273.048 23.244,273.078 22.943,273.29 22.854,273.349 22.823,273.349 
	22.373,273.409 21.861,273.29 21.621,273.167 21.471,273.048 21.26,272.777 21.021,272.354 20.929,272.056 20.898,272.026 
	20.898,271.996 20.809,271.603 20.779,270.551 20.418,269.559 20.388,269.529 20.328,269.529 20.298,269.529 18.193,270.161 
	17.772,270.34 17.681,270.372 17.501,270.492 17.471,270.521 17.441,270.551 17.23,270.852 17.201,270.882 17.14,271.003 
	17.05,271.183 17.05,271.212 17.021,271.365 16.419,274.732 16.419,274.822 16.298,276.144 16.298,276.264 16.298,276.626 
	16.329,277.498 16.599,277.708 16.929,277.829 17.411,277.798 17.532,277.888 17.561,277.888 17.622,277.92 17.651,278.218 
	17.532,278.49 17.381,278.58 17.23,278.641 17.021,278.731 16.449,278.88 16.028,279.241 15.517,280.083 15.487,280.144 
	14.554,281.876 14.524,282.058 14.464,282.871 14.464,282.96 14.524,283.742 14.766,285.186 14.855,285.726 15.125,287.17 
	15.125,287.561 15.125,287.681 15.095,288.583 14.975,288.974 14.945,289.064 14.074,289.666 13.953,289.725 13.653,289.876 
	13.111,289.966 12.6,289.907 10.735,289.457 10.014,289.124 9.623,288.884 9.413,288.673 9.052,288.283 8.842,287.982 8.63,287.741 
	8.511,287.71 8.301,287.681 8.209,287.741 7.698,288.252 7.398,288.614 7.218,288.974 7.187,289.064 7.187,289.156 7.157,289.215 
	7.157,289.394 7.127,289.907 7.218,290.327 7.277,290.449 7.308,290.476 7.428,290.627 7.548,290.807 8.33,291.621 8.932,292.01 
	9.022,292.041 9.052,292.071 9.322,292.192 9.382,292.222 9.503,292.251 9.563,292.282 9.593,292.282 9.684,292.282 9.804,292.282 
	9.894,292.282 9.954,292.312 10.104,292.282 10.194,292.251 10.766,292.192 10.795,292.192 10.826,292.163 10.856,292.163 
	11.397,292.01 11.487,291.951 12.751,291.29 12.901,291.23 13.05,291.17 13.081,291.17 13.141,291.138 13.232,291.108 
	13.322,291.108 13.562,291.048 13.592,291.048 13.653,291.048 13.863,291.048 13.983,291.079 14.043,291.079 14.314,291.108 
	14.975,291.5 14.975,291.891 14.975,292.401 14.975,292.553 14.945,292.583 14.945,292.702 14.915,292.914 14.855,293.092 
	14.855,293.125 14.766,293.274 14.615,293.456 14.554,293.575 14.495,293.665 14.435,293.754 14.163,293.996 13.712,294.386 
	13.712,294.417 13.653,294.478 13.081,295.078 13.021,295.139 12.991,295.169 12.629,295.47 12.239,295.739 11.908,295.89 
	11.156,296.25 10.766,296.432 10.345,296.641 10.314,296.641 10.284,296.641 10.225,296.641 10.225,296.612 10.014,296.49 
	9.623,296.4 8.932,296.582 8.48,296.612 8.209,296.641 8.029,296.702 7.909,296.823 7.759,297.062 7.729,297.094 7.578,297.393 
	7.519,297.544 7.519,297.723 7.519,297.905 7.698,298.236 7.969,298.326 8.119,298.445 8.119,298.718 8.149,298.987 8.029,299.377 
	8.09,300.551 8.33,302.354 8.511,303.257 8.661,303.618 8.901,304.038 9.292,304.46 9.593,304.759 10.464,305.483 11.126,306.084 
	11.216,306.204 11.849,306.985 12.179,307.527 12.209,307.617 12.299,307.858 12.329,308.069 12.329,308.308 12.209,308.791 
	11.547,309.661 9.864,309.813 9.713,309.783 9.684,309.752 9.593,309.721 9.473,309.691 9.022,309.452 8.661,309.181 8.601,309.122 
	8.48,308.969 8.27,308.76 8.209,308.701 8.149,308.609 7.909,308.218 7.789,307.977 7.729,307.828 7.277,306.535 7.127,306.174 
	7.098,305.843 7.218,305.453 7.248,305.42 7.218,305.361 6.947,304.851 6.856,304.792 6.646,304.7 6.406,304.732 6.135,304.941 
	6.015,305.09 5.353,305.572 5.053,305.903 4.691,306.654 4.602,307.196 4.632,307.557 4.993,308.189 5.203,308.668 5.414,309.21 
	5.804,308.728 5.925,308.609 6.256,308.429 6.466,308.459 6.917,308.668 6.887,308.76 6.887,308.791 6.737,309.091 6.706,309.181 
	6.706,309.27 6.706,309.3 6.706,310.203 6.737,310.442 6.917,310.955 6.977,311.344 6.977,311.466 7.127,311.646 7.218,311.735 
	7.338,311.797 7.909,312.098 8.119,312.489 8.241,312.579 9.052,313.09 9.172,313.18 9.804,313.63 9.894,313.751 9.954,313.931 
	10.074,315.284 10.043,315.615 9.894,316.216 9.684,316.697 9.503,316.968 8.39,317.631 8.301,317.691 8.09,317.781 7.338,318.082 
	7.218,318.141 7.127,318.171 6.646,318.291 6.556,318.291 6.436,318.321 5.864,318.382 4.962,318.382 3.67,318.231 2.677,318.171 
	1.564,318.261 1.325,318.353 0.873,318.773 0.723,318.982 0.572,319.313 0.512,319.614 0.542,319.736 0.783,320.307 1.354,320.937 
	2.708,321.479 3.549,322.081 4.421,322.712 4.902,323.193 5.293,323.794 5.353,324.003 5.383,324.185 5.474,324.787 5.474,324.998 
	5.353,325.329 5.323,325.449 5.022,326.229 4.872,326.56 4.602,326.981 4.542,327.073 3.549,328.456 3.398,328.726 3.368,328.875 
	3.338,329.117 3.368,329.898 3.398,330.079 3.759,330.559 3.97,330.77 4.241,330.98 4.632,331.161 5.684,331.882 6.646,332.604 
	7.308,333.116 7.669,333.387 7.909,333.627 8.149,334.079 8.301,334.618 8.301,334.981 8.27,335.25 8.209,335.431 8.09,335.822 
	7.669,336.605 7.248,337.085 6.496,337.687 5.443,338.256 4.241,338.829 3.49,339.371 4.271,339.311 10.104,338.798 12.088,338.649 
	12.149,338.649 12.72,338.62 12.811,338.587 12.901,338.559 13.503,338.528 13.562,338.498 17.711,338.137 17.862,338.137 
	18.463,338.078 18.494,338.078 19.726,337.956 22.913,337.657 29.8,336.996 30.792,336.904 31.243,336.874 31.304,336.874 
	34.52,336.573 39.091,336.182 39.122,336.182 40.955,336 41.797,335.912 42.339,335.851 43.541,335.732 47.691,335.341 
	48.353,335.28 51.329,334.981 53.464,334.74 53.764,334.74 54.516,334.65 55.118,334.59 56.32,334.499 57.493,334.379 
	58.095,334.319 60.951,334.048 61.192,334.018 61.463,333.989 61.913,333.957 62.635,333.867 62.996,333.837 64.258,333.748 
	68.739,333.265 69.852,333.175 69.972,333.146 70.032,333.146 74.062,332.725 74.152,332.725 74.362,332.696 74.422,332.696 
	75.505,332.574 76.828,332.455 80.918,332.034 80.978,332.034 81.368,332.004 81.578,331.974 81.669,331.974 81.789,331.942 
	82.511,331.882 82.961,331.852 83.894,331.733 83.954,331.733 84.254,331.701 84.946,331.643 85.277,331.611 88.074,331.31 
	88.405,331.252 88.676,331.221 88.826,331.191 89.757,331.101 90.299,331.042 90.389,331.042 93.817,330.681 96.222,330.41 
	96.854,330.35 100.582,329.959 100.612,329.959 101.064,329.898 102.597,329.718 102.627,329.718 103.679,329.628 104.822,329.507 
	105.033,329.477 107.107,329.236 108.761,329.086 109.122,329.025 110.265,328.908 111.678,328.756 112.16,328.694 113.061,328.604 
	113.302,328.575 115.316,328.335 115.498,328.335 117.631,328.125 118.354,328.035 118.474,328.035 118.564,328.004 
	118.834,327.973 120.548,327.764 120.879,327.734 122.803,327.523 123.285,327.462 124.698,327.311 124.728,327.311 125.45,327.221 
	125.991,327.162 127.104,327.042 130.291,326.711 130.351,326.861 130.381,326.891 130.411,326.891 130.502,326.891 
	130.532,326.891 130.592,326.861 130.651,326.832 130.682,326.832 130.802,326.652 131.013,326.53 131.614,326.349 131.824,326.38 
	131.944,326.5 131.944,326.62 131.824,326.711 131.464,326.771 131.584,327.073 131.734,327.162 131.975,327.132 132.036,327.221 
	131.975,328.125 131.975,328.303 131.885,328.456 131.614,328.485 131.554,328.544 131.554,328.634 131.644,328.756 
	132.186,328.965 132.275,329.057 132.306,329.236 132.245,329.328 132.155,329.358 132.036,329.387 131.854,329.328 
	131.734,329.387 131.284,329.927 131.284,330.079 130.833,330.681 130.532,331.342 130.532,331.373 130.532,331.402 
	130.532,331.461 130.592,331.643 131.013,331.882 131.133,332.034 131.133,332.124 131.072,332.365 131.253,332.844 
	131.464,332.905 131.523,333.056 131.523,333.175 131.433,333.447 131.223,333.688 130.953,333.717 130.712,333.566 
	130.562,333.596 130.411,333.688 130.381,333.717 130.32,333.807 130.291,333.837 130.291,333.867 130.261,333.989 130.351,334.198 
	130.502,334.259 130.622,334.288 130.712,334.439 130.741,334.468 130.862,334.68 130.862,334.83 130.771,334.981 130.741,335.01 
	130.651,335.071 130.351,335.071 130.32,335.041 129.99,334.889 129.96,334.921 129.899,334.921 129.87,334.921 129.78,335.01 
	129.78,335.071 129.78,335.13 129.93,335.642 130.141,336.242 129.78,336.332 129.75,336.364 129.659,336.394 129.629,336.513 
	129.599,336.542 129.599,336.573 129.599,336.605 129.599,336.634 129.569,336.814 129.569,336.874 129.599,336.874 
	129.599,336.904 129.659,336.963 129.689,336.996 130.381,337.446 130.381,337.475 130.441,337.536 130.441,337.625 
	130.441,337.687 130.261,338.408 130.201,338.498 130.081,338.559 129.78,338.378 129.72,338.378 129.569,338.348 129.45,338.408 
	129.419,338.468 129.419,338.587 129.479,338.708 129.689,338.98 129.75,339.099 129.75,339.16 129.75,339.189 129.659,339.219 
	129.599,339.249 129.299,339.371 129.147,339.851 129.147,340.333 129.178,340.333 129.208,340.422 129.268,340.453 
	129.329,340.453 129.389,340.422 129.45,340.422 129.659,340.631 129.659,340.664 129.72,340.783 129.899,341.204 129.87,341.355 
	129.84,341.385 129.81,341.415 129.689,341.504 129.629,341.566 129.599,341.535 129.208,341.263 128.847,341.204 128.788,341.204 
	128.727,341.263 128.637,341.415 128.697,341.715 128.697,342.106 128.517,342.708 128.486,342.768 128.247,342.949 
	128.126,343.009 128.065,343.098 128.065,343.159 128.096,343.19 128.277,343.37 128.396,343.459 128.457,343.489 128.547,343.549 
	128.578,343.611 128.547,343.701 128.457,343.79 128.457,343.82 128.336,343.879 128.186,343.942 128.096,343.912 128.036,343.79 
	128.005,343.73 127.975,343.64 127.916,343.519 127.916,343.489 127.734,343.339 127.675,343.37 127.555,343.429 127.464,343.64 
	127.464,343.67 127.434,343.76 127.464,343.82 127.495,343.971 127.344,344.693 127.164,345.143 127.164,345.172 126.983,345.685 
	126.954,345.685 127.013,345.834 127.043,345.834 127.164,346.135 127.224,346.257 127.284,346.376 127.344,346.555 
	127.404,346.796 127.525,347.25 127.525,347.309 127.555,347.64 127.734,347.729 128.005,347.729 128.186,347.729 128.247,347.79 
	128.216,347.911 128.155,347.97 127.885,348.06 127.584,348.09 127.104,348.12 127.074,348.12 126.954,348.179 126.954,348.211 
	126.923,348.271 126.893,348.301 126.893,348.332 126.923,348.811 126.983,348.901 127.194,348.901 127.555,349.023 
	127.495,349.714 127.464,349.714 127.375,349.774 127.375,349.803 127.344,349.803 127.164,349.774 127.074,349.774 
	126.833,350.075 126.502,350.525 126.502,350.557 126.472,350.586 126.472,350.617 126.472,350.676 126.502,350.707 
	126.502,350.736 126.533,350.766 126.562,350.795 126.683,350.887 126.833,350.856 126.983,350.736 127.043,350.736 
	127.254,351.067 127.344,351.728 127.254,351.789 127.074,352.36 126.833,353.082 126.773,353.292 126.713,353.472 126.833,353.532 
	126.954,353.532 127.043,353.442 127.104,353.263 127.164,353.201 127.254,353.111 127.344,353.201 127.313,353.472 
	127.164,353.743 127.043,353.924 126.893,353.955 126.802,353.924 126.713,353.894 126.683,353.863 126.652,353.863 
	126.623,353.863 126.562,353.894 126.533,353.894 126.502,353.984 126.472,354.043 126.442,354.043 126.472,354.104 
	126.472,354.164 126.472,354.193 126.533,354.193 126.743,354.225 127.254,354.315 127.584,354.375 127.765,354.344 
	128.396,354.915 128.426,354.947 128.667,355.307 128.999,356.088 128.788,356.839 128.727,356.991 128.878,357.202 
	128.907,357.232 128.907,357.26 128.938,357.322 128.938,357.351 128.938,357.381 128.878,357.653 128.878,358.132 128.878,358.163 
	128.999,358.224 129.058,358.195 129.118,358.132 129.178,358.132 129.299,358.073 129.329,358.073 129.358,358.042 
	129.389,358.042 129.419,358.073 129.479,358.103 129.509,358.103 129.509,358.132 129.479,358.224 129.329,358.674 
	129.329,358.705 129.238,358.946 129.208,359.005 129.208,359.125 129.329,359.336 129.479,359.396 129.75,359.366 130.141,359.667 
	130.11,359.787 129.99,359.878 130.23,360.719 130.23,360.749 130.261,360.809 130.291,360.871 130.261,360.96 130.23,361.11 
	130.23,361.169 130.351,361.202 130.532,361.139 130.622,361.08 130.771,361.02 130.862,360.99 131.133,360.96 131.374,361.08 
	131.433,361.08 131.493,361.169 131.464,361.261 131.344,361.47 131.042,361.591 130.802,361.47 130.712,361.47 130.682,361.5 
	130.622,361.56 130.622,361.591 130.592,361.681 130.592,361.741 130.592,361.801 130.592,361.833 130.592,361.863 130.622,361.89 
	130.682,361.922 130.682,361.953 131.253,361.982 131.493,362.373 131.493,362.584 131.344,362.644 131.253,362.644 
	131.253,362.704 131.284,362.763 131.374,362.826 131.523,362.853 131.584,362.853 131.765,362.885 132.065,362.885 
	132.306,362.826 132.365,362.826 132.365,362.853 132.696,363.246 133.027,363.877 133.087,364.056 133.208,364.539 
	133.237,364.659 133.387,365.049 133.778,364.959 133.899,364.929 134.019,365.138 134.049,365.32 134.109,365.68 134.141,365.71 
	134.141,365.741 134.23,365.77 134.499,365.921 134.952,365.86 135.223,366.13 135.282,366.252 135.824,366.402 135.974,366.432 
	136.424,366.494 136.454,366.521 136.486,366.521 136.516,366.553 136.755,366.762 136.785,366.762 136.937,367.185 
	137.237,367.576 137.479,367.576 137.628,367.516 137.658,367.545 137.988,367.936 138.289,368.476 138.53,368.536 138.59,368.536 
	138.709,368.568 139.13,368.809 139.162,368.867 140.003,368.777 142.047,368.568 141.746,365.68 141.687,365.109 142.89,365.019 
	143.37,364.959 144.904,364.778 145.146,364.748 145.024,363.606 145.477,363.577 147.371,363.395 147.491,363.365 148.212,363.305 
	148.361,363.276 148.514,363.276 148.451,362.734 148.424,362.584 148.361,361.741 148.332,361.652 148.152,359.846 
	147.941,357.864 147.521,354.133 147.371,352.961 148.302,352.842 150.828,352.572 151.49,352.511 151.94,352.45 153.114,352.331 
	155.218,352.119 156.962,351.908 161.051,351.458 "/>
</svg>
