<?xml version="1.0" encoding="utf-8"?>
<!-- Generator: Adobe Illustrator 13.0.2, SVG Export Plug-In . SVG Version: 6.00 Build 14948)  -->
<!DOCTYPE svg PUBLIC "-//W3C//DTD SVG 1.1//EN" "http://www.w3.org/Graphics/SVG/1.1/DTD/svg11.dtd">
<svg  version="1.1" style="background-color: #000000;"  id="Layer_1" xmlns="http://www.w3.org/2000/svg" xmlns:xlink="http://www.w3.org/1999/xlink" x="0px" y="0px"
	 width="500px" height="400px" viewBox="-54.856 -6.06 500 400" enable-background="new -54.856 -6.06 500 400"
	 xml:space="preserve">
<polygon id="3239900" fill="#4D4D4D" stroke="#FFFFFF" stroke-width="0.75"  points="161.592,20.904 158.861,20.291 149.728,18.344 147.663,17.849 
	145.751,17.457 144.965,17.285 144.864,17.269 141.262,16.568 140.853,16.534 139.709,21.825 138.565,27.341 137.37,32.853 
	137.336,33.125 136.738,35.824 136.176,38.368 133.188,52.312 130.268,66.036 130.218,66.293 130.202,66.361 129.125,71.482 
	128.885,72.762 127.606,78.959 126.854,82.543 125.934,86.845 125.166,90.413 125.166,90.429 124.618,92.99 124.618,93.024 
	124.448,93.774 123.287,99.033 122.963,100.569 122.827,101.201 122.776,101.44 121.837,105.775 121.683,106.543 121.495,107.294 
	121.342,107.977 121.136,108.847 121.052,109.292 120.607,111.169 119.925,114.276 119.908,114.31 119.463,116.308 119.345,116.854 
	118.884,118.97 118.61,120.284 118.012,123.049 117.979,123.203 117.603,124.962 117.261,126.43 117.244,126.515 117.227,126.6 
	116.869,128.205 116.785,128.58 116.665,129.092 116,131.978 115.966,132.183 115.521,134.146 115.368,134.777 115.351,134.879 
	115.351,134.896 115.146,135.885 115.026,136.381 115.026,136.399 115.026,136.416 115.026,136.449 114.991,136.569 
	114.684,137.917 114.599,138.309 114.531,138.618 114.531,138.634 114.497,138.789 114.479,138.907 114.428,139.182 
	114.087,140.888 113.985,141.433 115.281,141.758 116.358,142.014 116.511,142.049 117.586,142.287 117.62,142.287 117.671,142.304 
	118.116,142.407 118.167,142.407 118.217,142.168 118.85,142.304 118.968,141.639 119.276,141.707 119.31,141.622 119.345,141.382 
	119.668,141.451 119.736,141.109 120.317,141.229 120.385,140.904 120.659,140.957 120.71,140.957 120.728,140.921 120.812,140.938 
	120.898,140.957 120.982,140.957 121.136,141.007 121.136,141.042 121.171,141.058 121.342,141.091 121.376,140.938 121.41,140.819 
	121.46,140.785 122.007,140.904 122.366,140.974 122.485,140.324 123.134,140.461 123.201,140.153 123.27,139.812 123.936,139.949 
	124.021,139.949 124.518,140.051 124.635,139.762 125.848,139.624 126.975,139.522 127.418,139.385 127.624,139.3 127.778,139.283 
	130.388,138.481 133.188,137.61 133.308,137.576 137.284,132.694 137.558,132.37 141.689,127.351 142.013,126.925 142.491,126.361 
	142.695,126.395 143.311,126.532 143.754,126.6 145.154,126.908 145.291,126.754 145.375,126.771 145.666,126.6 145.683,126.48 
	146.042,124.654 146.076,124.501 146.093,124.518 146.127,124.398 146.213,124.415 146.604,124.501 146.878,124.551 
	147.032,123.784 147.134,123.391 147.287,122.657 147.204,122.623 147.801,119.841 147.424,119.756 147.355,119.773 
	147.237,119.721 147.459,118.714 147.134,118.646 146.741,118.576 146.878,118.116 147.204,116.614 147.493,115.096 
	147.526,114.958 147.578,114.686 147.459,114.669 146.928,114.549 147.509,111.938 147.885,110.042 147.049,109.873 
	147.015,109.889 144.062,109.292 145.529,102.258 146.365,98.179 146.945,95.481 146.945,95.465 147.355,93.535 147.629,92.136 
	148.226,89.218 148.278,88.979 148.448,88.142 148.465,88.039 148.499,87.869 148.551,87.648 148.824,86.332 149.678,86.486 
	150.565,82.168 150.599,82.014 150.821,80.938 150.992,80.136 151.606,77.269 151.777,76.5 151.846,76.245 152.101,74.845 
	152.955,71.174 152.988,71.004 153.074,70.61 153.313,69.417 153.347,69.228 153.38,69.092 153.45,68.769 153.518,68.46 
	153.552,68.255 153.808,66.958 153.16,66.804 153.5,65.063 153.826,63.271 155.617,54.652 156.438,54.839 156.693,53.695 
	156.83,53.15 157.137,51.716 158.127,46.901 157.495,46.782 158.007,44.545 158.417,42.686 159.185,38.999 158.979,38.982 
	159.288,37.445 161.42,27.202 161.49,27.22 161.831,25.514 161.831,25.479 162.753,21.16 "/>
<polygon id="3216180" fill="#4D4D4D" stroke="#FFFFFF" stroke-width="0.75"  points="124.635,139.762 125.267,141.809 125.916,142.373 
	126.257,142.663 126.275,142.663 127.811,142.988 128.596,143.14 129.194,143.276 129.211,143.534 129.09,144.029 128.75,144.574 
	128.408,144.95 128.391,144.984 128.408,145.019 128.459,145.086 128.391,145.291 128.408,145.461 128.441,145.583 128.51,145.684 
	128.681,145.889 128.681,146.026 128.647,146.043 128.63,146.077 128.647,146.452 128.63,146.725 128.596,146.794 128.545,146.879 
	128.528,147.033 128.562,147.101 128.545,147.289 128.665,147.51 128.681,147.596 128.63,147.732 128.613,147.834 128.647,147.938 
	128.698,148.006 128.562,148.194 125.898,147.63 125.302,147.493 124.909,147.425 124.277,147.356 123.971,147.289 123.884,147.272 
	123.253,147.118 123.049,147.083 122.229,146.913 122.145,146.896 121.751,146.811 121.769,146.725 121.82,146.452 121.888,146.163 
	121.581,146.11 121.614,145.939 121.648,145.787 121.682,145.634 121.682,145.616 121.699,145.53 121.717,145.461 121.699,145.461 
	121.547,145.429 121.392,145.395 121.307,145.376 121.29,145.412 121.171,145.359 121.121,145.342 121.085,145.325 120.864,145.291 
	120.438,145.207 119.396,145.001 119.106,144.933 118.287,144.78 117.535,144.626 117.211,144.557 115.572,144.216 115.094,144.114 
	113.591,143.807 113.523,143.79 113.695,142.867 113.984,141.433 115.281,141.758 116.357,142.014 116.511,142.049 117.586,142.287 
	117.62,142.287 117.671,142.304 118.116,142.407 118.167,142.407 118.217,142.168 118.849,142.304 118.969,141.639 119.276,141.707 
	119.31,141.622 119.345,141.382 119.667,141.451 119.737,141.109 120.317,141.229 120.385,140.904 120.659,140.957 120.71,140.957 
	120.727,140.921 120.812,140.938 120.898,140.957 120.982,140.957 121.137,141.007 121.137,141.042 121.171,141.058 
	121.341,141.091 121.375,140.938 121.409,140.819 121.461,140.785 122.006,140.904 122.366,140.974 122.484,140.324 
	123.134,140.461 123.202,140.154 123.271,139.812 123.936,139.949 124.021,139.949 124.517,140.051 "/>
<polygon id="3229820" fill="#4D4D4D" stroke="#FFFFFF" stroke-width="0.75"  points="235.84,271.558 236.489,271.676 236.898,271.776 
	241.302,272.529 241.403,272.016 256.698,274.544 256.818,274.561 262.93,275.567 267.334,276.233 268.904,276.508 274.247,277.36 
	275.834,277.599 275.782,278.026 284.574,279.408 296.557,281.235 299.596,281.696 299.783,281.729 300.312,281.815 
	300.585,281.849 300.722,281.866 300.552,282.926 300.552,283.008 300.482,283.454 300.432,283.796 299.646,289.053 
	299.475,290.214 299.459,290.282 299.271,291.615 299.271,291.785 298.503,297.212 298.401,298.408 298.366,298.663 
	298.247,299.551 298.212,299.773 297.872,302.095 297.376,305.014 297.325,305.458 297.104,306.602 296.982,307.54 296.898,308.359 
	296.881,308.598 296.557,310.681 296.522,310.886 296.027,311.021 295.685,311.363 295.381,311.858 294.697,312.883 
	294.167,313.839 294.031,313.89 293.758,313.856 293.366,314.044 293.263,314.161 293.211,314.383 293.211,314.47 293.331,314.607 
	293.398,314.676 293.484,314.864 293.467,314.948 292.835,315.818 292.426,316.416 292.341,316.69 292.341,316.979 292.255,317.219 
	292.171,317.338 291.812,317.764 291.675,317.901 291.573,317.918 291.283,317.746 291.164,317.68 290.821,317.628 290.788,317.628 
	290.77,317.628 290.189,317.832 289.404,317.971 288.688,317.918 288.619,317.901 288.602,317.901 288.586,317.901 288.533,317.885 
	288.5,317.885 288.447,317.832 288.125,317.611 288.038,317.544 287.714,317.236 287.596,317.066 287.51,316.759 287.237,316.229 
	286.111,315.529 286.076,315.461 286.076,315.288 286.162,315.152 286.417,314.964 286.521,314.827 286.487,314.47 285.906,313.329 
	285.786,313.259 285.632,313.172 284.966,312.199 284.864,312.047 284.625,311.414 284.507,311.381 284.422,311.346 
	283.465,311.038 283.226,311.021 283.056,311.057 282.629,311.414 281.86,311.772 281.791,311.756 281.654,311.534 281.536,311.159 
	281.348,311.073 281.109,311.073 280.443,311.397 280.119,311.433 280.086,311.414 279.898,311.346 279.829,311.296 
	279.794,311.211 279.812,311.073 279.847,310.936 279.863,310.868 279.898,310.731 279.932,310.579 279.88,310.459 279.71,310.305 
	279.571,310.271 278.735,310.1 278.516,310.066 278.207,310.031 278.003,309.999 277.575,309.946 277.354,310.016 276.619,310.238 
	276.175,310.543 275.852,310.665 275.682,310.543 275.526,310.116 275.39,310.031 274.673,310.459 274.264,310.696 274.145,310.853 
	274.127,310.868 273.99,310.953 273.838,310.971 273.7,310.986 273.138,311.057 272.676,311.106 272.386,311.143 272.112,311.106 
	271.413,311.143 270.986,311.414 270.696,311.653 270.611,311.807 270.576,312.047 270.576,312.064 270.576,312.081 
	270.594,312.114 270.611,312.165 270.68,312.267 270.799,312.438 270.936,312.627 271.071,313.138 271.089,313.19 271.056,313.378 
	270.885,313.582 270.85,313.839 270.816,313.958 270.832,314.044 270.832,314.095 271.003,314.231 271.106,314.436 271.123,314.589 
	271.021,314.864 270.747,315.086 270.729,315.103 270.662,315.152 270.629,315.188 270.611,315.203 270.56,315.288 270.525,315.324 
	270.51,315.374 270.491,315.478 270.321,316.433 270.354,316.859 270.543,317.27 270.645,317.524 270.662,317.799 270.56,318.123 
	270.475,318.327 270.525,318.465 270.969,318.84 271.208,319.181 271.14,319.505 271.071,319.866 271.276,320.393 271.584,320.82 
	271.856,321.229 271.892,321.469 271.909,321.639 271.909,321.726 271.874,321.845 271.789,322.014 271.67,322.202 271.276,322.391 
	271.056,322.493 271.021,322.544 270.936,322.767 270.902,323.004 270.953,323.448 270.953,323.586 270.816,323.824 270.56,324.25 
	270.304,324.421 270.2,324.592 270.56,325.378 270.321,326.298 270.44,326.915 270.338,327.357 270.219,327.903 269.773,328.842 
	269.756,328.997 269.859,329.337 270.065,329.645 270.423,329.952 270.475,330.106 270.491,330.141 270.475,330.157 
	270.372,330.465 270.098,330.874 269.997,331.028 269.979,331.25 269.929,331.608 270.304,332.12 270.816,333.229 270.936,333.622 
	270.816,334.22 270.56,334.63 270.287,334.919 270.253,335.04 270.271,335.67 270.184,336.489 270.2,336.78 270.287,336.917 
	270.287,337.019 270.219,337.19 269.997,337.429 269.791,337.532 269.569,337.65 269.433,337.819 269.417,337.84 269.398,337.856 
	269.279,338.334 269.263,338.367 269.246,338.42 269.246,338.505 269.229,338.897 269.347,339.271 269.468,339.975 269.468,340.09 
	269.433,340.501 269.433,340.554 269.417,340.756 269.468,340.964 269.468,341.015 269.689,341.611 269.723,341.695 269.723,341.73 
	270.491,342.755 270.611,343.626 270.764,344.649 270.918,345.365 271.021,346.68 270.918,347.193 270.764,347.944 270.902,349.531 
	270.885,350.642 270.816,351 270.799,351.92 270.953,352.126 271.021,352.382 271.021,352.416 271.021,352.451 271.021,352.689 
	271.003,353.014 271.003,353.149 270.918,353.661 270.902,353.782 270.85,354.055 270.832,354.124 270.832,354.141 270.576,355.129 
	270.287,355.539 270.149,355.608 269.929,355.711 269.502,355.763 269.33,355.744 269.006,355.679 268.836,355.642 268.803,355.642 
	268.749,355.625 268.716,355.642 268.614,355.66 268.494,355.694 268.426,355.711 268.375,355.728 268.357,355.728 268.34,355.744 
	268.152,355.881 267.966,356.033 267.863,356.119 267.761,356.188 267.743,356.205 267.657,356.357 267.727,356.565 
	267.743,356.581 267.761,356.616 267.795,356.649 268,356.785 268.051,356.82 268.102,356.854 268.426,357.076 268.647,357.298 
	268.732,357.384 268.768,357.451 268.854,357.605 268.954,357.775 268.971,357.794 268.971,357.828 268.989,358.05 269.006,358.083 
	268.989,358.136 268.938,358.271 268.803,358.491 268.444,358.715 268.34,358.783 267.966,359.021 267.708,359.482 267.606,359.823 
	267.606,359.858 267.521,360.234 267.471,360.525 267.471,360.626 267.454,360.883 266.856,360.062 266.173,359.141 
	265.917,358.802 262.246,353.782 262.213,353.765 260.882,351.92 260.829,351.852 258.56,348.763 258.064,348.081 254.992,343.847 
	253.354,341.629 253.216,341.406 252.517,340.484 251.92,339.647 251.885,339.63 251.476,339.084 251.459,339.068 249.513,336.389 
	248.13,334.493 247.157,333.162 244.547,329.611 244.512,329.577 244.443,329.475 244.137,329.047 244.085,328.98 243.879,328.656 
	241.251,325.104 239.852,323.177 239.783,323.091 239.681,322.955 238.537,321.384 237.513,319.966 237.479,319.88 236.881,319.095 
	236.864,319.062 236.231,318.174 235.617,317.37 233.774,314.897 233.62,314.692 233.569,314.607 231.538,311.807 230.752,310.715 
	230.616,310.526 229.558,309.126 229.405,308.903 229.866,306.157 229.951,305.663 230.497,302.419 230.53,302.249 230.53,302.197 
	230.549,302.128 230.702,301.257 231.214,298.219 232.478,291.065 233.144,287.225 233.178,286.834 233.211,286.58 233.774,283.25 
	233.911,282.498 234.167,281.271 234.627,278.641 235.141,275.722 "/>
<polygon id="3200001" fill="#4D4D4D" stroke="#FFFFFF" stroke-width="0.75"  points="205.938,126.071 206.008,125.576 206.059,125.491 
	206.042,125.303 205.974,125.217 205.974,125.149 206.042,124.978 205.905,124.398 205.905,124.159 205.786,123.937 
	205.735,123.937 205.599,123.869 205.324,123.562 205.222,123.458 205.12,123.306 205.086,123.236 205.052,122.914 205.069,122.76 
	205.154,122.657 205.052,122.538 204.933,122.486 204.881,122.486 204.778,122.418 204.761,122.35 204.813,122.196 204.795,122.094 
	204.709,121.872 204.608,121.804 204.489,121.582 204.522,121.497 204.454,121.428 204.352,121.241 204.267,121.019 
	201.603,120.489 201.45,120.438 197.899,119.756 197.677,119.721 191.327,118.492 190.73,118.39 188.886,118.031 185.25,117.366 
	182.656,116.853 180.692,116.46 176.307,115.676 172.107,114.94 166.116,113.764 166.099,113.764 159.356,112.415 158.963,112.331 
	158.469,112.209 158.469,112.227 157.513,112.022 156.881,111.886 147.885,110.042 147.509,111.938 146.929,114.549 
	147.458,114.669 147.578,114.686 147.526,114.958 147.492,115.095 147.204,116.614 146.878,118.117 146.741,118.576 
	147.133,118.646 147.458,118.714 147.237,119.721 147.355,119.773 147.424,119.756 147.8,119.841 147.204,122.623 147.288,122.657 
	147.133,123.392 147.032,123.784 146.878,124.551 146.605,124.501 146.213,124.415 146.127,124.398 146.092,124.518 
	146.075,124.501 146.041,124.653 145.683,126.48 145.666,126.6 145.375,126.771 145.291,126.753 145.154,126.908 143.754,126.6 
	143.311,126.533 142.696,126.395 142.491,126.361 142.014,126.925 141.689,127.351 137.557,132.37 137.284,132.694 133.307,137.576 
	133.189,137.61 130.388,138.481 127.778,139.283 127.623,139.3 127.418,139.385 126.974,139.522 125.848,139.625 124.635,139.762 
	125.268,141.809 125.916,142.373 126.257,142.662 126.275,142.662 127.812,142.987 128.596,143.141 129.194,143.276 
	129.211,143.534 129.09,144.029 128.75,144.575 128.408,144.95 128.391,144.984 128.408,145.019 128.46,145.086 128.391,145.291 
	128.408,145.461 128.442,145.583 128.51,145.684 128.68,145.889 128.68,146.027 128.647,146.044 128.63,146.077 128.647,146.452 
	128.63,146.726 128.596,146.794 128.545,146.879 128.528,147.033 128.562,147.101 128.545,147.288 128.664,147.51 128.68,147.596 
	128.63,147.733 128.613,147.834 128.647,147.937 128.698,148.006 128.562,148.194 125.898,147.629 125.302,147.494 124.909,147.426 
	124.277,147.356 123.971,147.288 123.885,147.271 123.253,147.118 123.048,147.084 122.229,146.913 122.145,146.896 
	121.751,146.811 121.769,146.726 121.82,146.452 121.888,146.162 121.581,146.11 121.614,145.939 121.648,145.787 121.682,145.634 
	121.682,145.617 121.699,145.53 121.718,145.461 121.699,145.461 121.547,145.429 121.393,145.395 121.307,145.377 121.29,145.412 
	121.171,145.359 121.121,145.343 121.086,145.326 120.863,145.291 120.438,145.207 119.396,145.001 119.106,144.933 
	118.287,144.779 117.535,144.626 117.211,144.557 115.571,144.217 115.094,144.114 113.591,143.807 113.523,143.79 113.114,145.787 
	112.84,147.169 112.602,148.467 112.534,148.791 112.772,149.133 113.455,150.072 113.49,150.122 113.882,150.669 113.934,150.719 
	114.07,150.908 114.122,150.994 114.138,151.01 114.188,151.061 114.224,151.13 114.24,151.13 114.257,151.163 114.889,152.035 
	115.179,152.427 115.281,152.562 116.836,154.713 118.61,157.138 119.311,158.093 120.915,160.296 121.989,161.764 123.885,164.358 
	123.902,164.375 123.953,164.444 124.978,165.844 126.462,167.893 126.48,167.893 127.674,169.514 129.723,172.397 129.894,172.603 
	130.917,173.969 130.987,174.054 131.021,174.088 131.037,174.105 131.054,174.156 132.42,176.034 133.206,177.093 133.648,177.724 
	135.816,180.678 136.875,180.916 141.996,181.906 144.368,182.401 145.035,179.192 145.291,177.997 146.058,174.105 
	146.247,173.098 147.442,167.141 147.492,166.885 147.664,166.92 148.432,163.062 145.018,162.412 144.607,162.328 145.427,158.248 
	145.7,157.889 146.417,156.967 147.167,155.995 147.254,155.841 148.499,154.288 149.354,153.213 149.49,153.059 150.668,153.28 
	154.524,154.031 155.19,154.151 155.447,154.202 158.913,154.901 159.783,155.088 159.954,155.141 163.266,155.789 163.658,155.875 
	164.817,156.113 165.621,156.251 166.457,156.438 166.849,156.506 170.775,157.275 172.5,157.616 172.739,157.685 185.593,160.143 
	188.801,159.836 188.768,159.562 188.768,159.478 188.733,159.357 188.648,159.203 188.477,159.102 188.375,159.067 
	188.306,159.033 188.29,159 188.135,158.845 188.102,158.675 188.135,158.605 188.221,158.555 188.29,158.657 188.34,158.675 
	188.409,158.64 188.493,158.299 188.562,158.162 188.579,158.043 188.528,157.702 188.493,157.668 188.393,157.685 188.29,157.651 
	188.17,157.496 188.17,157.326 188.204,157.309 188.272,157.326 188.409,157.395 188.562,157.411 188.631,157.326 188.92,157.224 
	188.937,157.155 188.835,156.866 188.937,156.626 188.972,156.369 189.262,156.131 189.313,156.148 189.434,156.268 
	189.483,156.285 189.552,156.268 189.638,156.285 189.843,156.096 189.877,155.977 189.996,155.858 190.099,155.841 190.32,155.926 
	190.423,155.841 190.44,155.754 190.526,155.704 190.679,155.687 190.747,155.431 191.003,155.192 191.123,154.97 191.191,154.901 
	191.464,154.816 191.702,154.886 191.635,154.68 191.874,153.844 191.994,153.758 192.165,153.468 192.146,153.4 192.112,153.331 
	191.925,153.229 191.891,152.7 191.857,152.598 191.823,152.29 191.823,152.239 191.823,151.76 191.567,151.521 191.515,151.403 
	191.652,151.095 191.668,150.959 191.652,150.806 191.413,150.294 191.481,150.122 191.532,149.798 191.43,149.371 191.344,149.252 
	191.378,148.979 191.413,148.927 191.481,148.74 191.464,148.621 191.396,148.399 191.498,148.125 191.635,147.853 191.652,147.682 
	192.045,147.238 192.079,147.186 192.095,147.101 192.216,147.033 192.266,147.067 192.403,147.254 192.471,147.306 
	192.813,147.408 192.915,147.391 193.068,147.323 193.325,147.391 193.837,147.374 193.939,147.356 194.11,147.203 194.212,147.033 
	194.435,146.828 194.605,146.402 194.776,146.248 194.963,145.855 195.067,145.821 195.97,145.872 196.09,145.752 196.124,145.718 
	196.124,145.634 196.261,145.359 196.312,145.224 196.415,144.882 196.38,144.609 196.346,144.541 196.277,144.455 196.141,144.404 
	195.987,144.37 195.902,144.217 195.952,143.96 196.04,143.977 196.482,143.977 196.654,143.892 196.756,143.79 196.773,143.755 
	196.858,143.721 197.029,143.79 197.046,143.807 197.165,143.807 197.252,143.755 197.455,143.567 197.507,143.294 197.541,143.261 
	197.779,143.244 197.917,143.294 198.053,143.089 198.224,142.97 198.479,142.97 198.617,142.85 198.634,142.783 198.634,142.168 
	198.923,142.168 199.094,142.219 199.454,142.252 199.624,142.032 199.675,141.997 199.879,142.032 200.102,142.1 200.272,142.032 
	200.51,142.065 200.666,142.134 200.683,142.082 200.853,141.894 201.211,141.724 201.295,141.827 201.417,142.065 201.485,142.117 
	201.723,142.151 201.962,142.082 202.047,141.963 202.065,141.809 202.116,141.672 202.354,141.605 202.406,141.417 
	202.576,141.212 202.695,140.836 202.679,140.631 202.729,140.477 202.747,140.444 202.712,140.376 202.729,140.341 
	202.867,140.239 202.986,140.069 203.021,139.966 203.038,139.762 203.021,139.334 202.968,139.25 203.174,139.043 203.208,138.959 
	203.243,138.873 203.566,138.531 203.754,138.396 203.841,138.309 203.841,137.832 203.771,137.747 203.704,137.798 
	203.653,137.798 203.583,137.747 203.191,137.286 203.191,137.184 203.208,137.115 203.277,137.082 203.378,137.082 
	203.516,136.927 203.533,136.809 203.635,136.585 203.805,136.518 203.824,136.347 203.788,136.228 203.805,136.16 204.028,135.971 
	204.147,135.92 204.181,135.869 204.198,135.801 203.994,135.375 203.824,135.186 203.754,135.101 203.669,134.726 203.653,134.623 
	203.669,134.538 203.754,134.469 203.788,134.385 203.771,134.264 203.704,134.231 203.704,134.094 203.874,133.889 
	203.994,133.804 204.301,133.207 204.284,132.933 204.028,132.865 203.857,132.575 203.788,132.37 203.788,131.942 203.841,131.875 
	203.909,131.703 203.892,131.55 203.959,131.38 204.13,131.243 204.301,130.936 204.352,130.817 204.318,130.715 204.318,130.628 
	204.335,130.543 204.402,130.493 204.437,130.423 204.42,129.963 204.489,129.86 204.591,129.809 204.626,129.622 204.591,129.467 
	204.591,129.4 204.626,129.092 204.709,129.075 204.761,129.042 204.813,128.956 204.847,128.801 205.052,128.683 205.256,128.632 
	205.309,128.529 205.292,128.427 205.376,128.29 205.461,128.205 205.41,128.068 205.428,127.983 205.444,127.966 205.513,127.933 
	205.562,127.949 205.649,127.863 205.667,127.829 205.684,127.675 205.871,127.437 205.888,127.181 205.991,126.736 
	206.025,126.395 205.974,126.293 "/>
<polygon id="3200002" fill="#4D4D4D" stroke="#FFFFFF" stroke-width="0.75"  points="335.066,51.749 334.623,51.682 333.138,51.459 333.121,51.443 
	327.401,50.572 323.612,49.957 321.325,49.598 320.317,49.479 317.026,48.966 314.719,48.522 313.046,48.181 310.264,47.584 
	310.247,47.584 310.196,47.567 309.462,47.448 309.037,47.38 308.779,47.345 308.302,47.294 307.978,47.243 307.209,47.192 
	306.714,47.106 304.785,46.901 304.255,46.833 302.838,46.68 302.618,46.646 295.943,45.57 295.669,45.519 295.551,45.469 
	295.534,45.469 293.688,45.195 293.602,45.178 292.734,45.042 292.342,44.973 291.966,44.904 284.659,43.675 283.771,43.522 
	283.652,43.487 283.396,43.453 280.631,42.993 279.914,42.873 275.392,42.139 275.101,42.038 274.826,41.985 274.041,41.85 
	271.584,41.422 270.764,41.303 270.542,41.269 270.149,41.218 269.895,41.166 265.899,40.482 265.799,40.465 262.299,39.868 
	260.267,39.527 260.233,39.527 259.089,39.374 258.781,39.305 256,38.811 255.35,38.691 255.266,38.674 254.805,38.606 
	254.754,38.554 254.463,38.521 253.985,38.418 252.124,38.076 251.971,38.076 250.69,37.838 250.673,37.821 239.492,35.771 
	238.179,35.567 237.89,35.465 237.649,35.378 237.154,35.312 236.898,35.293 236.693,35.226 236.266,35.14 235.875,35.071 
	233.058,34.543 232.05,34.356 231.709,34.303 231.401,34.253 225.324,33.161 224.045,32.903 221.961,32.546 221.194,32.41 
	219.196,32.051 218.479,31.931 218.344,31.897 218.139,31.863 218.104,31.863 218.088,31.863 218.054,31.863 217.882,31.829 
	217.063,31.676 210.327,30.396 210.002,30.327 209.575,30.258 201.843,28.808 199.437,28.363 194.536,27.442 192.3,27.016 
	189.535,26.503 186.241,25.923 183.151,25.394 180.574,24.847 180.522,24.83 179.926,24.729 173.25,23.328 166.508,21.979 
	165.758,21.774 165.125,21.654 162.752,21.16 161.832,25.479 161.832,25.514 161.49,27.22 161.421,27.202 159.287,37.445 
	158.98,38.981 159.185,38.998 158.417,42.686 158.007,44.545 157.495,46.782 158.126,46.901 157.136,51.714 156.83,53.149 
	156.693,53.695 156.437,54.839 155.618,54.652 153.826,63.272 153.5,65.063 153.159,66.805 153.809,66.958 153.552,68.256 
	153.518,68.46 153.449,68.769 153.381,69.092 153.348,69.229 153.313,69.416 153.074,70.611 152.989,71.004 152.955,71.174 
	152.101,74.845 151.846,76.245 151.776,76.5 151.606,77.269 150.992,80.136 150.821,80.939 150.599,82.014 150.565,82.167 
	149.677,86.486 148.824,86.332 148.551,87.648 148.499,87.869 148.466,88.039 148.449,88.142 148.277,88.979 148.226,89.218 
	147.629,92.136 147.355,93.535 146.946,95.465 146.946,95.482 146.365,98.179 145.529,102.258 144.061,109.292 147.015,109.89 
	147.049,109.873 147.885,110.042 156.881,111.886 157.513,112.022 158.469,112.227 158.469,112.209 158.963,112.331 
	159.356,112.415 166.099,113.764 166.116,113.764 172.107,114.94 176.307,115.676 180.693,116.46 182.656,116.853 185.25,117.366 
	188.886,118.031 190.73,118.39 191.328,118.492 197.678,119.721 197.899,119.756 201.45,120.438 201.604,120.489 204.267,121.019 
	204.352,121.241 204.454,121.428 204.522,121.497 204.489,121.582 204.608,121.804 204.71,121.872 204.796,122.094 204.813,122.196 
	204.762,122.35 204.779,122.418 204.881,122.486 204.932,122.486 205.052,122.538 205.154,122.657 205.069,122.76 205.052,122.914 
	205.086,123.237 205.122,123.306 205.222,123.458 205.324,123.562 205.598,123.869 205.735,123.937 205.786,123.937 
	205.905,124.159 205.905,124.398 206.042,124.978 205.974,125.149 205.974,125.218 206.042,125.303 206.059,125.491 
	206.007,125.577 205.938,126.071 205.974,126.293 206.025,126.395 205.99,126.736 205.888,127.181 205.871,127.437 205.684,127.675 
	205.667,127.829 205.649,127.863 205.562,127.949 205.513,127.933 205.444,127.966 205.428,127.983 205.41,128.068 205.461,128.205 
	205.376,128.29 205.291,128.427 205.309,128.529 205.256,128.632 205.052,128.683 204.847,128.801 204.813,128.956 204.762,129.042 
	204.71,129.075 204.626,129.092 204.59,129.4 204.59,129.467 204.626,129.622 204.59,129.809 204.489,129.86 204.42,129.963 
	204.437,130.423 204.403,130.493 204.335,130.543 204.318,130.628 204.318,130.715 204.352,130.817 204.301,130.936 204.13,131.243 
	203.959,131.38 203.892,131.55 203.909,131.703 203.84,131.875 203.788,131.942 203.788,132.37 203.857,132.575 204.029,132.865 
	204.284,132.933 204.301,133.207 203.994,133.804 203.874,133.889 203.704,134.094 203.704,134.231 203.771,134.264 
	203.788,134.385 203.754,134.469 203.67,134.538 203.653,134.623 203.67,134.726 203.754,135.102 203.823,135.186 203.994,135.375 
	204.198,135.801 204.181,135.869 204.147,135.92 204.029,135.971 203.805,136.16 203.788,136.228 203.823,136.347 203.805,136.518 
	203.635,136.585 203.532,136.809 203.515,136.927 203.378,137.082 203.277,137.082 203.208,137.115 203.191,137.184 
	203.191,137.286 203.583,137.747 203.653,137.798 203.704,137.798 203.771,137.747 203.84,137.832 203.84,138.31 203.754,138.396 
	203.566,138.531 203.243,138.873 203.208,138.959 203.174,139.043 202.969,139.25 203.021,139.334 203.038,139.762 203.021,139.966 
	202.986,140.069 202.867,140.239 202.729,140.341 202.712,140.376 202.747,140.444 202.729,140.477 202.679,140.631 
	202.695,140.836 202.576,141.212 202.405,141.417 202.354,141.605 202.115,141.672 202.065,141.81 202.047,141.963 201.962,142.082 
	201.723,142.151 201.485,142.117 201.417,142.065 201.295,141.827 201.211,141.724 200.853,141.894 200.682,142.082 
	200.665,142.134 200.51,142.065 200.272,142.032 200.102,142.1 199.879,142.032 199.675,141.997 199.623,142.032 199.454,142.252 
	199.094,142.22 198.922,142.169 198.634,142.169 198.634,142.783 198.617,142.85 198.479,142.97 198.224,142.97 198.054,143.089 
	197.917,143.294 197.779,143.244 197.541,143.261 197.507,143.294 197.455,143.567 197.252,143.755 197.165,143.807 
	197.046,143.807 197.029,143.79 196.858,143.721 196.772,143.755 196.755,143.79 196.655,143.892 196.482,143.978 196.04,143.978 
	195.952,143.96 195.902,144.217 195.987,144.37 196.141,144.404 196.278,144.455 196.346,144.541 196.38,144.609 196.414,144.882 
	196.312,145.224 196.261,145.359 196.124,145.634 196.124,145.718 196.09,145.752 195.97,145.872 195.067,145.821 194.963,145.855 
	194.776,146.248 194.605,146.402 194.435,146.828 194.212,147.033 194.11,147.203 193.938,147.356 193.837,147.374 193.325,147.391 
	193.069,147.323 192.915,147.391 192.813,147.408 192.471,147.306 192.403,147.254 192.266,147.067 192.216,147.033 
	192.095,147.101 192.079,147.186 192.045,147.238 191.652,147.682 191.635,147.853 191.498,148.125 191.396,148.399 
	191.464,148.621 191.481,148.74 191.413,148.927 191.378,148.979 191.345,149.252 191.43,149.371 191.532,149.798 191.481,150.122 
	191.413,150.294 191.652,150.806 191.668,150.959 191.652,151.095 191.515,151.403 191.567,151.521 191.823,151.761 
	191.823,152.239 191.823,152.29 191.857,152.598 191.891,152.7 191.925,153.229 192.112,153.331 192.146,153.4 192.164,153.468 
	191.994,153.758 191.874,153.844 191.635,154.68 191.703,154.886 191.464,154.816 191.191,154.901 191.123,154.97 191.003,155.192 
	190.746,155.431 190.679,155.687 190.526,155.704 190.44,155.754 190.423,155.841 190.32,155.926 190.099,155.841 189.996,155.858 
	189.877,155.978 189.843,156.096 189.638,156.285 189.552,156.268 189.483,156.285 189.434,156.268 189.313,156.148 
	189.262,156.131 188.972,156.369 188.937,156.626 188.836,156.866 188.937,157.155 188.92,157.224 188.631,157.326 188.562,157.411 
	188.409,157.395 188.271,157.326 188.204,157.309 188.17,157.326 188.17,157.496 188.289,157.651 188.393,157.685 188.493,157.668 
	188.528,157.702 188.579,158.043 188.562,158.162 188.493,158.299 188.409,158.64 188.34,158.675 188.289,158.657 188.221,158.555 
	188.136,158.605 188.102,158.675 188.136,158.845 188.289,159 188.306,159.033 188.375,159.067 188.478,159.102 188.648,159.203 
	188.733,159.357 188.768,159.478 188.768,159.562 188.801,159.836 185.593,160.143 172.739,157.685 172.5,157.616 170.775,157.275 
	166.849,156.506 166.457,156.438 165.62,156.251 164.817,156.113 163.658,155.875 163.266,155.789 159.953,155.141 159.783,155.09 
	158.913,154.901 155.447,154.202 155.191,154.151 154.525,154.032 150.668,153.28 149.49,153.059 149.353,153.213 148.499,154.288 
	147.254,155.841 147.167,155.995 146.417,156.967 145.7,157.889 145.427,158.248 144.607,162.328 145.018,162.413 148.432,163.062 
	147.664,166.92 147.492,166.885 147.442,167.141 146.247,173.098 146.058,174.105 145.291,177.997 145.035,179.192 144.368,182.401 
	141.996,181.906 136.875,180.916 135.816,180.678 135.884,180.746 136.687,181.838 137.49,182.948 137.882,183.562 139.35,185.525 
	140.152,186.668 141.604,188.564 142.354,189.605 144.129,192.029 145.342,193.736 145.837,194.419 146.571,195.426 
	147.288,196.347 148.192,197.577 150.786,201.212 152.186,203.09 154.184,205.82 155.311,207.373 156.25,208.654 161.234,215.517 
	166.884,223.216 167.225,223.727 169.051,226.184 171.065,229.035 171.902,230.042 172.176,230.418 173.132,231.769 
	176.545,236.564 177.484,237.725 180.301,241.686 181.477,243.221 182.621,244.808 182.656,244.808 186.208,249.759 
	188.785,253.309 189.382,254.111 189.996,254.896 192.283,258.021 193.256,259.369 195.151,261.996 197.063,264.574 199.18,267.479 
	205.513,276.182 210.429,282.908 211.64,284.58 212.016,285.058 215.157,289.462 215.294,289.601 216.499,291.238 218.974,294.617 
	220.187,296.29 220.784,297.11 223.174,300.388 223.514,300.83 223.618,300.969 224.028,301.532 224.711,302.486 226.521,304.962 
	227.014,305.647 227.493,306.293 228.96,308.308 229.405,308.903 229.866,306.157 229.951,305.663 230.497,302.419 230.53,302.249 
	230.53,302.197 230.549,302.128 230.702,301.259 231.214,298.219 232.478,291.065 233.143,287.225 233.178,286.834 233.211,286.58 
	233.773,283.25 233.911,282.498 234.167,281.27 234.628,278.641 235.141,275.722 235.84,271.558 236.49,271.677 236.898,271.776 
	241.302,272.529 241.405,272.017 256.698,274.543 256.818,274.562 262.93,275.567 267.334,276.233 268.904,276.508 274.247,277.36 
	275.834,277.599 275.782,278.025 284.574,279.409 296.557,281.235 299.596,281.696 299.783,281.729 300.312,281.815 
	300.585,281.849 300.722,281.866 301.508,276.746 301.763,274.834 302.31,270.892 302.326,270.789 302.378,270.207 302.601,268.842 
	302.686,268.278 302.873,267.153 303.282,264.404 303.607,262.168 303.607,262.135 303.676,261.759 303.676,261.725 304.17,258.293 
	304.188,258.276 304.494,256.159 304.562,255.562 304.837,253.735 304.955,252.866 305.023,252.387 305.126,251.721 
	305.126,251.705 305.211,251.106 305.229,251.056 305.229,251.005 305.622,248.359 305.725,247.813 306.543,242.488 
	306.679,241.514 306.679,241.497 306.695,241.463 306.781,241.052 306.884,240.644 307.226,238.679 307.277,238.049 
	307.465,236.751 307.55,236.188 307.651,235.471 308.043,232.791 308.043,232.756 308.421,230.163 309.428,223.523 310.093,218.999 
	310.212,218.333 311.118,212.086 311.134,212.068 311.748,207.818 312.058,205.855 312.091,205.684 312.244,204.559 
	312.944,199.879 313.303,197.577 313.456,196.638 314.275,191.056 314.326,191.006 314.361,190.902 315.163,185.218 317.383,170.64 
	318.509,163.232 318.526,163.129 318.782,161.217 320.199,151.778 320.216,151.761 320.233,151.539 320.37,150.635 320.403,150.361 
	320.454,149.985 320.523,149.541 320.659,148.774 320.984,146.624 321.224,144.984 321.734,141.655 321.838,140.921 
	321.889,140.649 322.06,139.437 322.265,138.071 322.52,136.416 322.553,136.177 322.553,136.125 322.623,135.716 322.64,135.595 
	322.64,135.562 323.425,130.423 324.533,122.998 324.722,121.804 324.772,121.565 325.183,118.697 325.199,118.646 325.285,118.151 
	326.121,112.722 326.617,109.582 326.805,108.37 326.805,108.352 326.84,108.097 326.856,107.925 326.925,107.432 326.992,107.039 
	327.01,106.902 327.01,106.884 327.112,106.322 327.162,105.946 328.272,98.725 328.666,96.13 329.451,90.924 330.064,86.862 
	330.047,86.708 330.149,86.315 331.994,74.196 332.029,73.82 332.251,72.318 332.797,68.769 332.812,68.699 332.812,68.665 
	332.883,68.238 333.736,62.605 333.753,62.503 334.35,58.167 334.623,56.648 335.288,51.784 "/>
</svg>
