<?xml version="1.0" encoding="utf-8"?>
<!-- Generator: Adobe Illustrator 13.0.2, SVG Export Plug-In . SVG Version: 6.00 Build 14948)  -->
<!DOCTYPE svg PUBLIC "-//W3C//DTD SVG 1.1//EN" "http://www.w3.org/Graphics/SVG/1.1/DTD/svg11.dtd">
<svg  version="1.1" style="background-color: #000000;"  id="Layer_1" xmlns="http://www.w3.org/2000/svg" xmlns:xlink="http://www.w3.org/1999/xlink" x="0px" y="0px"
	 width="500px" height="400px" viewBox="-115.104 -5.934 500 400" enable-background="new -115.104 -5.934 500 400"
	 xml:space="preserve">
<polyline id="2370750" fill="#4D4D4D" stroke="#FFFFFF" points="303.306,126.936 303.581,127.403 304.432,128.75 
	306.686,132.376 308.773,135.728 309.294,136.607 310.038,137.844 311.549,140.208 313.747,143.533 314.601,144.879 314.077,145.18 
	314.627,146.06 314.874,146.445 314.874,146.472 315.259,147.021 317.402,150.483 316.22,151.144 316.083,151.225 314.654,152.022 
	314.488,152.104 314.297,152.214 314.132,152.297 313.637,152.572 313.17,152.792 313.089,152.846 312.072,153.287 310.257,154.304 
	306.52,156.583 306.329,156.693 300.971,159.716 302.123,161.694 303.745,164.579 303.8,164.607 304.516,165.871 305.449,167.437 
	300.312,170.377 300.063,170.515 299.733,170.707 301.191,173.316 302.812,176.175 297.041,179.417 297.894,180.873 297.92,180.929 
	298.524,181.807 299.074,182.851 300.449,185.353 300.476,185.408 300.695,185.792 301.025,186.396 303.553,190.957 
	304.871,193.348 301.161,195.519 301.136,195.519 299.954,196.205 297.562,197.524 297.535,197.524 297.15,197.745 296.986,198.541 
	296.52,200.795 293.991,200.3 293.305,201.922 293.058,202.306 292.864,202.663 292.838,203.102 292.838,205.355 292.205,205.465 
	292.15,205.52 291.381,205.576 291.408,204.777 291.408,204.696 291.354,204.725 290.639,204.777 290.419,204.833 290.171,204.285 
	289.896,204.477 289.649,204.421 289.54,204.34 288.825,204.972 288.744,204.833 288.633,204.777 288.386,204.833 287.643,204.777 
	287.533,204.752 287.423,204.613 287.479,204.477 287.479,204.34 287.343,204.092 286.241,204.777 286.05,204.889 286.134,205.08 
	285.97,205.189 285.886,205.246 284.787,205.905 284.676,205.768 281.735,207.608 279.429,209.064 277.34,210.355 276.104,211.154 
	275.169,211.729 274.895,211.896 274.84,211.924 274.4,212.197 271.844,213.736 271.433,213.076 269.838,210.164 269.784,210.055 
	268.795,208.24 265.993,209.779 263.08,204.174 263.3,204.064 262.447,202.58 262.256,202.223 261.65,201.179 260.799,199.75 
	260.113,198.487 256.786,192.634 256.183,191.589 255.908,191.122 253.848,187.522 253.6,187.137 253.71,187.055 253.873,186.973 
	254.039,186.89 254.067,186.862 254.204,186.809 254.369,186.699 254.561,186.589 255.194,186.23 255.276,186.204 258.409,184.446 
	259.233,183.978 260.497,183.292 260.771,183.126 261.623,182.631 261.789,182.521 262.805,181.973 264.755,180.847 
	264.755,180.818 266.542,179.774 266.568,179.774 267.422,179.307 270.416,177.494 270.965,177.164 271.213,177.025 
	276.158,174.251 273.054,169.031 277.752,166.255 274.482,160.567 274.07,159.771 273.246,158.424 271.129,154.77 270.334,153.396 
	270.334,153.369 270.196,153.149 269.563,152.077 268.492,150.236 267.174,148.01 262.393,150.758 261.403,145.84 260.223,142.159 
	259.178,140.428 265.085,136.745 263.381,131.799 263.327,131.661 261.019,124.518 260.771,123.693 259.37,119.6 257.886,115.148 
	254.012,103.773 253.38,101.959 252.968,100.613 252.941,100.558 252.941,100.53 252.912,100.502 252.09,98.112 251.154,95.227 
	250.879,94.32 250.742,93.908 248.846,88.137 254.753,86.16 255.056,87.039 255.222,86.984 256.348,86.6 261.019,84.978 
	261.815,84.703 263.547,84.099 264.839,83.66 267.311,82.862 269.948,90.529 270.938,93.55 271.377,94.732 273.328,100.393 
	275.169,105.943 275.581,106.383 276.433,108.8 276.542,108.993 277.532,111.686 277.642,112.043 277.973,112.483 279.1,115.561 
	279.126,115.642 279.675,117.209 280.17,118.747 281.517,122.759 281.846,123.693 282.175,124.737 282.313,125.095 282.148,125.149 
	284.238,131.387 285.253,134.354 286.298,137.322 286.324,137.458 286.737,137.542 287.452,137.597 287.507,137.542 
	287.562,137.515 289.566,136.25 290.171,135.92 292.452,134.52 294.349,133.311 294.046,132.816 297.591,130.618 298.058,130.343 
	298.14,130.288 299.954,129.078 303.306,126.936 "/>
<polyline id="2374650" fill="#4D4D4D" stroke="#FFFFFF" points="224.474,243.457 224.996,242.742 225.848,241.588 
	225.958,241.506 225.986,241.506 226.123,241.424 226.343,241.313 226.397,241.259 226.535,241.176 227.166,240.847 
	227.194,240.819 229.2,239.775 229.997,241.232 230.519,242.084 232.854,246.287 232.909,246.426 231.921,246.946 232.194,247.496 
	231.618,247.799 231.701,248.019 231.892,247.938 233.844,249.667 234.063,249.886 234.365,250.712 234.394,250.738 234.42,250.82 
	236.124,251.893 236.317,252.441 237.608,256.592 238.13,258.24 238.322,258.323 238.735,258.459 239.283,258.404 239.201,258.981 
	242.719,258.679 242.772,259.723 242.196,259.779 242.252,260.603 242.114,260.631 242.031,260.658 242.114,261.563 
	242.196,262.664 243.021,262.609 243.048,262.774 243.406,262.719 243.517,263.57 243.846,266.181 244.065,268.132 244.147,268.653 
	244.339,268.955 244.423,269.34 244.367,269.562 244.229,269.616 244.285,270.191 244.367,270.275 244.229,270.632 244.339,270.824 
	244.588,271.099 244.588,271.347 244.643,271.4 244.697,271.428 244.725,271.648 244.835,271.62 244.614,271.841 244.505,271.731 
	244.312,271.812 244.339,272.17 244.12,272.473 244.147,272.666 244.147,272.692 244.175,272.666 244.395,272.72 244.56,272.968 
	244.697,273.05 245.055,273.159 245.355,273.436 244.478,276.484 244.147,277.584 243.46,277.391 243.214,278.188 243.048,278.765 
	242.856,279.508 242.692,279.452 240.163,278.737 237.965,278.106 237.636,278.023 237.69,277.722 235.85,276.732 235.217,276.373 
	232.606,275.001 231.536,274.452 230.08,273.682 229.805,274.644 228.816,277.968 226.919,277.336 226.919,277.528 226.919,277.557 
	226.893,277.611 226.919,277.887 227.002,278.134 226.864,278.326 226.425,278.188 224.227,277.446 224.116,277.748 
	224.034,277.694 222.221,277.062 222.056,276.842 222.084,276.676 222.084,276.43 221.918,276.265 221.753,275.906 221.699,275.55 
	221.616,275.083 221.535,274.974 221.341,274.918 221.177,274.809 221.891,272.61 222.111,271.924 222.716,270.027 223.458,267.774 
	223.732,266.922 224.034,265.961 224.694,263.899 224.72,263.817 224.886,263.351 225.216,262.307 225.298,262.059 225.546,262.059 
	225.792,262.087 225.766,261.427 225.737,261.07 225.737,260.851 225.71,260.411 225.683,259.916 225.6,258.296 225.463,255.107 
	225.408,253.541 225.298,250.492 224.171,248.375 223.842,247.771 223.759,247.606 223.484,247.112 223.952,246.836 
	223.127,245.271 224.474,243.457 "/>
<polyline id="2377350" fill="#4D4D4D" stroke="#FFFFFF" points="211.889,296.515 212,296.598 212.027,296.653 
	212.082,296.873 212.247,297.202 212.522,297.285 213.209,297.752 213.812,297.806 214.308,297.696 214.884,297.422 214.967,297.34 
	214.995,297.147 215.049,297.037 215.187,296.928 215.488,296.791 215.544,296.544 215.708,296.379 215.929,296.269 
	216.231,296.323 216.285,296.295 216.285,296.269 216.258,296.104 216.258,295.994 216.313,295.803 216.369,295.745 
	216.478,295.719 216.56,295.772 216.615,295.967 216.644,296.186 216.89,296.269 217.165,296.132 217.275,296.104 217.55,296.269 
	217.77,296.488 217.825,296.544 217.934,296.488 217.963,296.379 217.851,296.186 217.879,296.132 217.934,296.076 217.99,296.076 
	218.044,296.159 218.072,296.214 218.127,296.269 218.318,296.186 218.621,296.214 218.758,296.269 218.923,296.406 
	218.868,296.625 218.923,296.791 219.473,297.505 219.473,297.586 219.282,297.752 219.226,297.835 219.226,297.916 
	219.638,298.247 219.913,298.247 220.05,298.302 220.188,298.549 220.214,298.714 220.297,299.428 220.133,299.758 220.133,299.978 
	220.133,300.143 220.214,300.886 220.27,301.627 220.463,302.176 220.599,302.259 220.93,302.341 221.04,302.312 221.15,302.121 
	221.314,301.928 221.341,301.902 221.535,301.873 221.726,301.735 221.864,301.653 222.001,301.627 222.798,301.818 223.1,302.147 
	223.127,302.561 223.154,302.561 223.21,302.532 223.458,302.422 223.759,301.6 223.925,301.653 224.062,301.708 224.859,301.983 
	224.969,301.653 225.6,299.594 225.82,299.729 225.93,299.785 226.04,299.84 226.123,299.895 226.232,299.949 226.727,300.226 
	227.002,300.389 227.415,300.665 227.441,300.665 227.468,300.692 229.146,301.627 229.393,301.764 229.585,301.902 
	230.272,302.286 230.711,302.561 230.903,302.671 231.811,303.194 231.618,303.769 231.509,304.1 231.426,304.319 231.426,304.429 
	231.233,305.006 230.903,306.188 231.509,306.353 231.865,306.462 233.321,306.874 233.267,307.012 233.458,307.067 
	233.844,307.203 235.711,307.78 237.142,308.222 237.525,308.331 238.295,308.552 238.817,308.715 239.12,308.798 239.201,308.826 
	239.283,308.853 239.366,308.881 239.12,309.458 238.707,311.243 238.68,312.067 238.68,312.123 238.844,312.756 239.312,313.799 
	239.366,313.909 239.394,313.937 239.613,314.239 239.807,314.402 240.218,314.732 241.181,315.091 241.619,315.282 241.07,315.667 
	240.796,316.079 240.769,316.134 240.769,316.162 240.575,316.793 240.548,316.903 240.383,317.426 240.575,317.839 
	240.493,318.306 240.438,318.663 240.054,318.992 239.998,318.964 239.944,318.909 239.807,318.964 239.751,318.992 
	239.725,319.019 239.613,319.101 239.12,319.597 239.092,319.624 239.064,319.679 239.037,319.733 238.9,320.173 238.981,320.256 
	239.283,320.778 239.339,321.053 238.9,322.674 238.817,322.838 238.707,323.031 238.68,323.113 238.515,323.415 238.433,323.554 
	238.351,323.745 238.295,323.854 238.103,324.158 237.664,324.02 237.415,324.02 236.977,324.047 235.547,324.68 235.438,324.735 
	234.723,325.505 234.668,325.614 234.558,325.862 234.146,326.739 234.118,326.821 234.091,326.904 234.063,327.07 234.063,327.099 
	234.035,327.18 233.954,327.647 233.926,327.758 233.898,328.06 233.898,328.113 233.789,329.517 233.707,330.917 233.707,330.943 
	233.707,331.109 233.707,332.182 233.707,332.347 233.707,332.483 233.763,332.537 234.118,333.226 234.64,333.638 235.217,334.076 
	235.272,334.38 235.19,335.065 235.136,335.562 235.107,335.809 234.805,337.017 234.778,337.126 234.75,337.237 234.53,338.033 
	234.365,338.775 234.365,338.803 234.365,338.968 234.365,339.848 234.365,340.095 234.365,340.288 234.365,340.808 
	234.365,341.387 234.365,341.523 234.504,341.908 234.475,342.512 234.174,343.363 234.146,343.445 234.035,343.749 
	233.981,343.913 233.981,343.941 234.009,344.023 234.035,344.271 233.926,345.59 233.707,346.111 233.458,346.333 233.075,346.688 
	232.388,347.321 232.112,346.553 232.002,346.441 231.811,346.358 231.509,346.47 231.233,346.553 230.601,346.854 230.382,346.908 
	230.162,346.771 230.107,346.717 229.529,346.743 229.309,346.771 229.227,346.717 228.98,346.441 228.954,346.415 228.788,346.222 
	228.541,346.056 228.431,346.002 227.827,346.029 227.58,345.837 227.468,345.754 226.837,345.507 226.7,345.453 226.507,345.343 
	226.206,345.204 225.93,345.066 225.875,345.041 225.188,344.82 224.749,344.629 224.639,344.518 224.5,344.298 224.336,343.913 
	224.09,343.611 223.979,343.363 223.952,342.54 223.842,341.936 223.759,341.771 223.787,341.523 223.842,341.441 223.869,341.387 
	223.869,341.304 223.704,340.975 223.375,340.534 223.347,340.396 223.375,340.314 223.513,340.149 223.649,340.067 
	223.649,340.039 223.677,339.958 223.649,339.791 223.567,339.683 223.539,339.683 223.539,339.655 223.513,339.627 
	223.484,339.546 223.458,339.517 223.458,339.354 223.32,338.418 223.347,338.335 223.375,338.281 223.458,338.171 223.458,338.089 
	223.484,337.622 223.458,337.566 223.429,337.54 223.347,337.457 223.293,337.402 223.183,337.374 223.154,337.374 223.1,337.402 
	222.99,337.154 222.908,337.017 222.798,336.854 222.771,336.824 222.467,336.742 222.44,336.742 222.357,336.742 222.248,336.742 
	222.193,336.742 221.864,336.742 221.699,336.824 221.616,336.824 221.562,336.715 221.369,336.466 221.369,336.384 
	221.397,336.302 221.424,336.248 221.15,336.11 220.655,336.054 220.545,336.221 220.353,336.191 220.27,336.138 220.188,335.972 
	220.05,335.78 219.913,335.671 219.83,335.643 219.583,335.562 219.336,335.479 218.814,335.45 218.758,335.423 218.621,335.149 
	218.512,335.011 218.512,334.983 218.375,334.819 218.154,334.792 217.825,334.792 217.66,334.709 217.192,334.517 217.083,334.407 
	217.192,334.104 217.275,333.938 217.275,333.747 217.083,333.527 216.973,333.555 216.89,333.608 216.836,333.638 216.67,333.527 
	216.505,333.472 216.505,333.335 216.285,332.647 216.093,332.703 216.039,332.703 215.819,332.62 215.571,332.511 215.544,332.483 
	215.131,332.291 215.049,332.209 214.939,331.962 214.884,331.825 214.637,331.851 213.978,332.264 213.922,332.374 
	213.729,332.347 213.648,332.236 213.593,332.154 213.4,331.962 213.209,331.962 213.043,331.906 212.988,331.879 212.961,331.825 
	212.302,331.026 212.247,330.67 212.027,330.395 211.615,330.038 211.449,329.9 211.422,329.872 211.312,329.709 211.285,329.682 
	211.257,329.653 211.257,329.598 211.203,329.434 211.175,329.38 211.175,329.186 210.982,329.049 210.927,328.911 210.9,328.746 
	211.093,328.609 211.065,328.39 211.01,328.28 210.817,328.17 210.735,328.06 210.515,327.483 210.488,327.318 210.488,327.235 
	210.515,327.18 210.57,326.935 210.57,326.904 210.762,326.63 210.79,326.604 210.874,326.548 210.9,326.52 211.01,326.272 
	211.065,325.972 210.956,325.751 210.927,325.643 210.927,325.614 210.956,325.586 210.982,325.559 211.01,325.531 211.01,325.505 
	211.23,325.257 211.203,325.119 211.203,325.092 211.12,324.927 210.817,324.68 210.679,324.487 210.653,324.268 210.708,324.02 
	210.653,323.278 210.543,323.086 210.295,322.894 210.24,322.922 209.993,322.949 209.966,322.949 209.856,322.894 209.747,322.757 
	209.939,322.482 209.939,322.454 209.966,322.428 209.966,322.344 209.966,322.29 209.856,322.208 209.774,322.069 209.8,321.685 
	209.911,321.162 209.993,320.998 209.884,320.367 209.966,320.256 209.993,320.201 209.939,320.118 209.829,320.037 
	209.829,319.567 209.747,319.321 209.582,319.238 209.554,319.185 209.472,318.937 209.362,318.745 209.087,318.635 209.003,318.58 
	208.977,318.471 208.949,318.332 208.949,318.168 209.252,318.004 209.306,318.058 209.306,317.288 209.223,317.233 
	209.142,317.233 209.033,317.151 208.867,316.766 208.757,316.684 208.482,316.655 208.015,316.354 207.96,316.382 207.796,316.326 
	206.696,313.305 206.449,312.562 205.212,309.32 204.912,308.578 204.471,307.423 204.471,307.369 204.224,306.682 204.168,306.462 
	203.206,303.88 203.124,303.714 203.124,303.687 202.134,301.241 202.134,301.215 202.438,301.021 202.63,301.077 203.069,301.461 
	203.179,301.461 203.592,301.215 203.702,301.241 203.866,301.215 204.059,301.05 204.168,300.774 204.224,300.692 204.443,300.5 
	204.526,300.472 204.828,300.555 205.241,300.417 205.322,300.335 205.322,300.251 205.322,300.088 205.404,299.949 
	205.707,299.456 206.339,299.153 206.724,298.714 206.971,298.521 207.026,298.302 207.109,298.247 207.767,298.356 
	207.932,298.302 207.987,298.19 208.126,298.19 208.18,298.273 208.207,298.356 208.647,298.218 208.813,298.026 208.977,297.916 
	209.059,297.752 209.169,297.669 209.637,297.586 209.8,297.696 209.856,297.696 210.103,297.561 210.186,297.367 210.351,297.175 
	210.433,297.175 210.543,297.202 210.679,297.367 210.625,297.202 210.708,297.147 211.038,297.12 211.175,297.175 211.257,297.257 
	211.367,297.229 211.23,297.094 211.23,297.064 211.312,296.982 211.422,296.873 211.477,296.708 211.615,296.571 211.889,296.515 
	"/>
<polyline id="2376900" fill="#4D4D4D" stroke="#FFFFFF" points="245.355,273.436 245.521,273.6 245.796,274.012 
	246.4,274.753 246.702,275.249 246.785,275.303 247.197,275.276 247.308,275.303 247.444,275.386 247.664,275.578 247.995,275.824 
	248.324,275.824 248.681,276.045 248.929,276.265 249.23,276.595 249.451,276.705 249.532,276.676 249.562,276.595 249.697,276.373 
	249.945,276.127 249.973,276.154 250.164,275.881 250.33,275.798 250.469,275.798 250.55,275.798 250.852,275.881 251.401,276.101 
	251.786,276.183 251.924,276.101 252.006,275.906 252.034,275.854 252.144,275.413 252.474,275.276 252.692,275.057 
	252.885,274.728 252.912,274.644 252.912,274.479 252.941,274.312 253.188,273.984 253.297,273.682 253.297,273.571 
	253.352,273.241 253.544,273.05 253.6,272.912 253.627,272.583 253.71,272.391 253.737,272.391 254.451,272.61 254.78,272.72 
	254.81,273.241 254.78,273.682 254.945,274.589 254.919,275.138 254.945,275.221 254.945,275.469 254.864,275.687 254.753,276.595 
	254.753,276.87 254.699,277.062 254.507,277.364 254.479,277.475 254.479,277.858 254.507,278.106 254.616,278.737 254.671,278.819 
	254.919,279.039 255.385,279.315 255.605,279.398 255.99,279.424 256.045,279.59 256.1,280.002 256.183,280.249 256.432,280.771 
	257.006,281.705 257.006,281.897 256.952,282.42 256.924,283.49 256.813,283.986 257.062,284.728 256.376,285.304 255.716,285.331 
	255.028,285.167 254.919,285.359 254.287,286.487 254.039,286.405 253.984,286.378 253.764,286.515 253.105,287.778 252.941,288.08 
	252.776,288.713 252.858,289.812 252.996,289.895 253.022,290.03 252.748,290.663 252.5,290.799 252.336,290.058 252.418,289.592 
	252.363,289.068 252.144,288.823 250.303,289.921 250.193,289.426 250.193,288.354 250.219,288.244 250.385,287.502 
	250.989,285.908 251.099,285.03 250.879,284.617 250.55,284.207 250.164,284.398 249.396,283.986 249.177,283.848 249.011,283.409 
	249.038,282.996 249.643,282.063 249.752,281.705 249.643,281.376 249.396,281.211 249.146,281.045 248.709,281.237 
	248.571,281.485 248.269,282.063 247.692,283.876 247.856,284.37 247.473,285.113 247.252,284.701 246.511,284.919 245.466,286.074 
	244.972,286.707 244.229,287.695 244.202,287.695 244.093,287.861 243.79,288.768 243.79,288.823 243.846,288.96 243.929,289.18 
	243.899,289.234 243.873,289.289 243.379,290.113 243.187,290.443 243.131,290.525 243.103,290.47 242.966,290.25 243.021,289.563 
	242.966,289.509 242.802,289.372 242.692,289.481 242.196,289.976 242.087,290.443 242.252,291.377 242.581,291.845 
	242.637,292.091 242.526,292.422 242.334,292.916 241.976,293.988 241.976,294.015 242.005,294.235 242.005,294.29 242.36,294.812 
	242.36,295.004 242.36,295.031 241.895,295.416 241.619,295.279 241.399,295.994 241.289,296.488 241.263,296.515 241.263,296.571 
	241.207,296.764 241.125,297.037 241.125,297.064 241.125,297.449 241.153,297.561 241.234,297.669 241.592,297.78 241.84,297.861 
	241.895,297.861 242.114,298.055 242.114,298.165 242.061,298.273 242.17,298.549 242.196,298.549 242.663,298.961 243.296,299.456 
	243.544,299.647 243.846,299.923 244.423,300.389 244.56,301.241 244.779,302.477 245.055,302.863 245.191,302.891 245.796,302.917 
	246.482,304.319 246.182,305.006 245.687,305.226 245.659,305.197 245.411,304.924 245.411,304.896 244.835,305.17 244.423,306.023 
	243.487,306.16 242.829,305.747 242.772,305.721 241.729,306.985 241.427,307.534 241.07,307.727 240.686,307.919 240.466,308.029 
	239.833,308.358 239.394,308.853 239.366,308.881 239.283,308.853 239.201,308.826 239.12,308.798 238.817,308.715 238.295,308.552 
	237.525,308.331 237.142,308.222 235.711,307.78 233.844,307.203 233.458,307.067 233.267,307.012 233.321,306.874 231.865,306.462 
	231.509,306.353 230.903,306.188 231.233,305.006 231.426,304.429 231.426,304.319 231.509,304.1 231.618,303.769 231.811,303.194 
	230.903,302.671 230.711,302.561 230.272,302.286 229.585,301.902 229.393,301.764 229.146,301.627 227.468,300.692 
	227.441,300.665 227.415,300.665 227.002,300.389 226.727,300.226 226.232,299.949 226.123,299.895 226.04,299.84 225.93,299.785 
	225.82,299.729 225.6,299.594 224.969,301.653 224.859,301.983 224.062,301.708 223.925,301.653 223.759,301.6 223.458,302.422 
	223.21,302.532 223.154,302.561 223.127,302.561 223.1,302.147 222.798,301.818 222.001,301.627 221.864,301.653 221.726,301.735 
	221.535,301.873 221.341,301.902 221.314,301.928 221.15,302.121 221.04,302.312 220.93,302.341 220.599,302.259 220.463,302.176 
	220.27,301.627 220.214,300.886 220.133,300.143 220.133,299.978 220.133,299.758 220.297,299.428 220.214,298.714 220.188,298.549 
	220.05,298.302 219.913,298.247 219.638,298.247 219.226,297.916 219.226,297.835 219.282,297.752 219.473,297.586 219.473,297.505 
	218.923,296.791 218.868,296.625 218.923,296.406 218.758,296.269 218.621,296.214 218.318,296.186 218.127,296.269 
	218.072,296.214 218.044,296.159 217.99,296.076 217.934,296.076 217.879,296.132 217.851,296.186 217.963,296.379 217.934,296.488 
	217.825,296.544 217.77,296.488 217.55,296.269 217.275,296.104 217.165,296.132 216.89,296.269 216.644,296.186 216.615,295.967 
	216.56,295.772 216.478,295.719 216.369,295.745 216.313,295.803 216.258,295.994 216.258,296.104 216.285,296.269 216.285,296.295 
	216.231,296.323 215.929,296.269 215.708,296.379 215.544,296.544 215.488,296.791 215.187,296.928 215.049,297.037 
	214.995,297.147 214.967,297.34 214.884,297.422 214.308,297.696 213.812,297.806 213.209,297.752 212.522,297.285 212.247,297.202 
	212.082,296.873 212.027,296.653 212,296.598 211.889,296.515 211.78,296.214 211.751,295.884 211.725,295.803 211.285,295.307 
	211.203,295.252 211.093,295.252 210.956,295.334 210.845,295.252 210.708,294.784 210.735,294.481 210.679,294.372 210.46,294.099 
	210.103,293.933 210.049,293.878 210.049,293.355 210.653,292.339 210.817,292.723 211.34,291.873 211.505,292.229 212.273,290.91 
	211.889,291.019 211.615,290.937 211.312,290.169 211.23,290.086 211.147,289.784 211.065,289.702 211.147,289.536 211.203,289.481 
	211.203,289.153 212.027,287.778 211.257,287.2 210.874,286.954 210.708,286.871 210.708,286.844 210.845,286.707 211.203,286.238 
	211.257,286.184 211.285,286.156 212,285.249 210.186,283.821 210.13,283.765 208.977,282.858 207.355,281.623 206.86,281.925 
	206.834,281.925 206.724,282.008 206.174,281.073 206.202,281.073 206.119,280.825 205.763,281.101 205.953,281.073 
	205.982,281.073 205.294,281.788 204.113,281.211 203.592,281.045 202.987,280.853 202.905,280.825 202.768,280.716 
	202.685,280.359 202.244,279.562 202.08,279.562 202.025,279.535 201.942,279.452 201.998,279.26 201.97,278.957 202.163,278.957 
	202.19,278.765 202.134,278.546 202.025,278.436 201.998,278.271 202.134,278.326 204.195,278.957 204.663,278.326 204.828,278.134 
	205.679,276.953 206.174,276.319 207.328,274.753 207.521,274.508 208.895,272.775 209.169,273.05 209.884,272.062 210.103,271.731 
	210.927,270.659 211.065,270.495 211.889,269.367 212.082,269.533 212.192,269.644 212.273,270.001 212.713,270.191 
	212.906,270.275 213.043,270.275 213.098,270.247 213.263,270.247 213.456,270.386 213.621,270.439 213.812,270.659 
	213.812,270.715 213.729,270.824 213.758,270.878 213.812,270.935 213.84,270.771 213.896,270.742 213.95,270.989 214.032,271.208 
	214.06,271.264 214.417,271.457 214.445,271.565 214.417,271.731 214.719,272.007 214.665,272.363 214.363,273.353 214.308,273.873 
	214.363,274.04 214.5,274.177 214.5,274.342 214.609,274.533 214.637,274.728 214.692,274.672 214.747,274.728 214.747,275.138 
	214.665,275.495 214.884,276.127 214.856,276.347 214.967,276.732 215.159,277.116 215.324,277.336 215.406,277.391 
	215.517,277.391 215.736,277.914 215.983,278.023 216.285,278.271 216.369,278.518 216.534,278.546 216.56,278.628 216.809,278.819 
	217.302,279.233 217.742,279.315 217.797,279.315 217.851,279.233 218.072,278.49 218.677,278.957 218.704,278.875 219.501,279.508 
	219.968,277.968 219.994,277.914 220.324,276.842 220.353,276.732 220.463,276.484 220.655,276.566 220.737,276.292 
	222.084,276.676 222.056,276.842 222.221,277.062 224.034,277.694 224.116,277.748 224.227,277.446 226.425,278.188 
	226.864,278.326 227.002,278.134 226.919,277.887 226.893,277.611 226.919,277.557 226.919,277.528 226.919,277.336 
	228.816,277.968 229.805,274.644 230.08,273.682 231.536,274.452 232.606,275.001 235.217,276.373 235.85,276.732 237.69,277.722 
	237.636,278.023 237.965,278.106 240.163,278.737 242.692,279.452 242.856,279.508 243.048,278.765 243.214,278.188 243.46,277.391 
	244.147,277.584 244.478,276.484 245.355,273.436 "/>
<polyline id="2376750" fill="#4D4D4D" stroke="#FFFFFF" points="255.222,257.746 255.413,258.762 255.358,259.009 
	255.33,259.339 255.413,259.613 255.413,260 255.358,260.769 255.194,261.373 255.056,261.646 255.056,261.783 255.194,261.976 
	255.248,262.113 255.248,262.609 255.33,262.719 255.551,262.855 255.605,262.966 255.551,263.351 255.716,263.817 255.771,264.203 
	255.825,264.999 255.716,265.301 255.084,266.153 255.056,266.264 255.056,266.399 258.409,266.125 258.655,266.153 
	258.847,266.125 261.102,265.905 261.128,266.236 260.964,266.758 260.991,266.868 261.019,266.922 261.019,267.086 
	260.936,268.132 260.936,268.653 260.964,268.929 261.019,269.065 261.155,269.423 261.102,269.562 261.184,269.918 261.32,270.247 
	261.486,270.852 261.513,271.181 261.54,271.318 261.596,271.374 261.815,271.4 262.557,271.483 262.476,271.979 262.393,272.28 
	262.256,272.639 262.008,272.857 261.87,273.104 261.815,273.298 261.76,273.71 261.54,274.396 262.008,274.728 262.337,275.138 
	262.613,275.331 262.668,275.413 262.695,275.798 262.832,276.018 263.409,276.787 263.573,276.896 263.768,276.925 263.932,276.87 
	264.37,276.402 264.865,276.045 265.029,276.237 265.195,276.512 265.305,276.761 265.305,276.979 265.195,277.391 265.168,277.639 
	265.223,277.968 265.277,278.216 265.331,278.353 264.976,278.628 264.839,279.645 264.893,280.331 265.113,280.909 
	265.113,281.349 264.865,282.117 264.839,282.2 264.755,282.42 264.645,282.723 264.617,282.777 264.343,283.545 264.178,284.015 
	263.739,284.068 262.859,284.481 262.832,284.508 262.776,284.617 262.832,284.811 263.105,285.03 263.188,285.195 260.882,287.751 
	261.074,288.904 260.497,289.207 260.359,289.207 260.304,289.18 260.276,289.18 259.699,287.915 259.617,287.282 259.287,286.79 
	258.765,286.79 258.71,285.579 258.683,285.552 258.629,285.469 258.518,285.304 257.969,284.536 257.198,284.617 257.062,284.728 
	256.813,283.986 256.924,283.49 256.952,282.42 257.006,281.897 257.006,281.705 256.432,280.771 256.183,280.249 256.1,280.002 
	256.045,279.59 255.99,279.424 255.605,279.398 255.385,279.315 254.919,279.039 254.671,278.819 254.616,278.737 254.507,278.106 
	254.479,277.858 254.479,277.475 254.507,277.364 254.699,277.062 254.753,276.87 254.753,276.595 254.864,275.687 254.945,275.469 
	254.945,275.221 254.919,275.138 254.945,274.589 254.78,273.682 254.81,273.241 254.78,272.72 254.451,272.61 253.737,272.391 
	253.71,272.391 253.627,272.583 253.6,272.912 253.544,273.05 253.352,273.241 253.297,273.571 253.297,273.682 253.188,273.984 
	252.941,274.312 252.912,274.479 252.912,274.644 252.885,274.728 252.692,275.057 252.474,275.276 252.144,275.413 
	252.034,275.854 252.006,275.906 251.924,276.101 251.786,276.183 251.401,276.101 250.852,275.881 250.55,275.798 250.469,275.798 
	250.33,275.798 250.164,275.881 249.973,276.154 249.945,276.127 249.697,276.373 249.562,276.595 249.532,276.676 249.451,276.705 
	249.23,276.595 248.929,276.265 248.681,276.045 248.324,275.824 247.995,275.824 247.664,275.578 247.444,275.386 247.308,275.303 
	247.197,275.276 246.785,275.303 246.702,275.249 246.4,274.753 245.796,274.012 245.521,273.6 245.355,273.436 245.055,273.159 
	244.697,273.05 244.56,272.968 244.395,272.72 244.175,272.666 244.147,272.692 244.147,272.666 244.12,272.473 244.339,272.17 
	244.312,271.812 244.505,271.731 244.614,271.841 244.835,271.62 244.725,271.648 244.697,271.428 244.643,271.4 244.588,271.347 
	244.588,271.099 244.339,270.824 244.229,270.632 244.367,270.275 244.285,270.191 244.229,269.616 244.367,269.562 244.423,269.34 
	244.339,268.955 244.147,268.653 244.065,268.132 243.846,266.181 243.517,263.57 243.406,262.719 245.246,262.526 248.765,262.195 
	249.065,262.168 249.038,261.922 249.011,261.317 248.955,261.207 248.901,260.905 248.901,260.769 248.955,260.521 
	248.929,259.394 248.955,259.037 249.038,258.708 249.122,258.514 249.23,258.459 249.285,258.378 249.368,258.129 249.396,257.938 
	249.423,257.855 249.589,257.691 249.834,257.333 250.906,257.224 252.144,257.112 254.671,256.866 255.056,257.333 255.194,257.58 
	255.222,257.746 "/>
<polygon id="2300001" fill="#4D4D4D" stroke="#FFFFFF" points="375.901,164.112 375.736,163.975 375.076,164.305 
	374.747,164.688 374.087,164.552 373.043,163.151 372.988,163.095 373.043,162.71 373.564,161.942 373.29,161.584 372.988,161.199 
	372.823,160.979 372.356,160.403 372.082,159.441 372.219,159.331 372.191,159.084 372.164,158.891 371.889,158.259 
	371.449,158.013 370.9,158.149 368.867,157.271 368.51,156.968 368.4,156.831 368.125,156.446 367.878,156.089 367.493,155.54 
	366.695,154.44 365.706,153.727 365.296,153.287 364.938,152.6 364.333,152.022 363.096,151.281 362.932,151.198 361.971,150.786 
	362.3,149.961 362.959,149.495 362.603,149.11 360.844,146.911 360.046,146.252 359.882,146.115 359.579,145.867 359.551,145.84 
	358.426,145.153 357.464,144.383 357.38,144.328 357.271,144.328 356.913,144.328 355.76,144.63 355.485,144.575 355.017,144.494 
	354.275,145.345 354.084,145.428 353.892,145.345 353.699,145.18 353.259,145.125 353.15,145.099 352.93,144.714 352.738,144.575 
	352.105,144.466 351.858,144.356 351.583,144.328 351.392,144.302 351.364,144.302 351.309,144.302 351.281,144.302 
	351.006,144.383 350.677,144.466 350.594,144.63 350.484,144.796 350.457,144.824 350.457,144.85 350.457,144.879 350.512,145.318 
	350.54,145.592 350.567,145.62 350.594,145.675 350.594,145.702 350.621,145.702 350.731,145.785 350.813,145.977 350.621,146.142 
	350.512,146.28 350.54,146.857 350.677,147.132 350.951,147.187 351.115,147.269 351.172,147.516 351.172,147.653 351.089,147.791 
	350.786,148.038 350.293,148.643 349.934,149.356 349.605,149.934 349.577,149.961 349.494,149.961 349.302,149.989 
	348.862,149.906 348.616,149.824 347.763,149.356 347.709,149.329 346.858,148.89 346.473,148.863 346.445,148.863 346.418,148.863 
	346.088,148.808 345.647,148.725 345.647,148.698 345.62,148.67 345.566,148.533 345.511,148.396 345.483,148.23 345.291,147.873 
	345.071,147.433 343.697,146.857 343.533,146.5 343.533,146.472 343.148,145.757 342.57,145.015 342.322,144.769 341.335,144.027 
	341.005,144.082 340.895,144.082 340.784,143.999 338.779,142.048 338.643,141.91 338.614,141.829 338.56,141.224 338.587,141.196 
	338.587,141.169 338.643,141.114 338.752,141.114 338.918,141.169 339.438,140.674 339.467,140.646 339.384,140.428 
	339.576,140.125 339.576,139.053 339.576,138.861 339.493,138.668 339.191,138.448 339.136,138.338 339.136,138.284 
	339.247,138.119 339.63,137.486 339.822,136.992 339.85,136.333 339.796,135.812 339.384,135.509 339.247,135.261 339.273,134.849 
	339.302,134.739 339.384,134.574 339.548,134.52 339.659,134.437 339.714,134.272 339.714,134.189 338.779,133.311 337.569,132.596 
	336.855,132.239 336.086,131.936 335.922,131.855 335.593,131.498 334.768,130.233 334.63,129.958 334.711,129.766 334.63,129.601 
	334.245,129.189 333.779,128.969 333.394,128.721 333.063,128.282 332.953,128.062 332.953,127.98 333.09,127.843 333.585,127.458 
	334.025,127.019 334.245,126.716 334.135,126.441 334.135,126.359 334.41,126.001 335.124,126.029 336.169,125.919 336.279,125.919 
	336.334,125.754 336.334,125.534 336.415,125.507 336.498,125.534 336.746,125.699 336.802,125.672 336.746,125.562 
	336.389,125.122 335.593,124.709 335.262,124.16 335.207,124.023 335.097,123.666 335.097,123.281 335.151,123.227 335.234,123.227 
	335.289,123.253 335.427,123.199 335.398,122.484 334.74,121.028 334.493,120.588 334.189,120.341 332.761,119.38 332.432,119.352 
	331.443,119.764 330.893,120.177 330.893,120.341 331.03,120.451 331.112,120.588 331.057,120.864 330.783,121.303 329.849,121.578 
	328.888,121.331 328.282,121.358 327.815,121.578 327.843,121.743 327.623,121.825 326.386,121.687 325.205,121.797 323.611,121.22 
	323.172,121.11 322.979,121.303 323.336,121.715 323.144,121.989 321.908,121.578 321.303,121.303 320.011,120.258 319.545,119.737 
	318.83,118.912 318.473,118.61 318.281,118.527 317.43,118.281 317.319,118.281 317.1,118.362 317.236,118.665 317.539,119.022 
	318.061,119.434 318.391,119.489 318.445,119.682 318.445,119.874 318.418,119.902 318.391,119.928 317.923,120.039 316.66,120.121 
	315.754,119.709 314.077,120.258 313.885,120.121 313.006,119.434 313.665,119.022 312.54,116.878 313.83,116.274 312.84,115.148 
	312.072,115.038 311.658,114.269 311.768,114.049 311.714,113.829 311.577,113.224 311.137,112.372 311.137,111.686 
	311.852,110.477 311.823,110.367 311.823,110.339 311.906,110.229 312.153,110.12 312.456,110.092 312.511,110.037 312.54,109.927 
	312.896,109.542 312.401,109.35 312.318,109.268 312.153,108.993 311.823,108.718 311.658,108.635 311.302,108.553 310.999,108.471 
	310.561,108.224 310.038,107.784 309.736,107.481 309.488,107.262 309.324,106.959 309.131,106.328 309.158,106.301 
	309.158,106.273 309.461,105.668 309.708,105.146 309.818,105.146 310.038,105.091 310.45,104.734 310.478,104.679 310.366,104.46 
	310.341,103.854 310.396,103.799 310.586,103.744 310.753,103.58 310.836,103.278 310.836,103.058 310.312,102.646 309.351,102.288 
	309.269,102.317 309.213,102.398 309.158,102.398 308.966,102.178 308.773,101.877 308.417,100.86 308.417,100.833 308.279,100.448 
	307.565,98.359 307.428,97.92 307.345,97.672 306.52,95.364 305.119,91.462 304.24,88.962 303.637,87.314 302.949,85.362 
	300.668,79.043 298.389,72.723 297.426,70.113 296.794,68.354 296.465,67.501 296.053,66.375 294.953,63.38 292.727,57.392 
	292.672,57.253 290.558,51.318 288.881,46.675 288.717,46.18 288.001,44.203 287.974,44.203 286.16,38.954 285.97,38.349 
	284.072,33.046 283.907,32.606 283.083,30.299 283.027,30.052 282.726,29.254 282.504,28.54 282.121,27.551 281.901,26.864 
	281.6,26.066 281.517,25.847 281.434,25.71 281.214,25.655 280.638,25.573 280.308,25.49 279.922,25.243 279.648,25.16 
	279.51,25.133 279.07,25.215 278.824,25.188 278.082,24.94 277.229,24.804 276.928,24.804 276.516,24.804 276.322,24.775 
	276.158,24.666 276.049,24.61 275.801,24.363 275.746,24.253 275.609,23.897 275.445,23.512 275.224,23.264 275.169,23.21 
	274.675,22.962 274.51,22.852 273.934,22.248 273.41,22.192 273.108,22.11 273.054,22.083 272.971,22 272.889,21.945 
	272.861,21.918 272.642,21.753 272.34,21.534 272.064,21.203 272.037,21.149 271.733,20.874 271.624,20.847 271.295,20.544 
	271.157,20.407 270.965,19.911 270.828,19.692 270.58,19.5 270.141,19.417 269.812,19.252 269.675,19.252 268.932,19.335 
	268.712,19.281 268.603,19.252 268.163,18.95 267.586,18.51 266.954,18.126 266.679,17.935 265.882,17.796 265.689,17.714 
	264.289,17.384 264.261,17.384 263.629,17.356 263.491,17.219 263.327,16.944 263.105,16.78 262.942,16.669 262.366,16.504 
	260.853,16.23 260.743,16.202 260.469,16.011 260.304,15.9 259.836,15.928 259.26,15.516 258.793,15.241 258.71,15.131 
	258.655,14.966 258.518,14.444 258.436,14.307 258.409,14.28 258.38,14.28 258.326,14.252 258.298,14.225 258.271,14.225 
	257.969,14.169 257.254,14.307 256.952,14.252 255.771,14.059 255.688,14.059 255.358,14.197 255.33,14.225 255.276,14.225 
	255.194,14.225 255.028,14.197 254.753,14.059 254.699,14.032 254.671,14.005 254.589,13.895 254.507,13.703 254.479,13.647 
	254.287,13.538 253.902,13.51 253.653,13.647 253.352,13.895 252.527,14.169 252.31,14.169 252.144,14.142 251.786,13.978 
	251.511,13.949 251.484,13.949 251.236,14.032 251.21,14.059 251.099,14.142 250.798,14.5 250.659,14.582 250.357,14.636 
	249.671,14.608 249.396,14.692 249.368,14.692 249.342,14.692 249.065,14.829 249.011,14.856 248.324,15.27 248.242,15.323 
	247.968,15.516 247.829,15.708 247.802,15.763 247.719,15.928 247.664,15.982 247.638,16.065 247.581,16.23 247.556,16.286 
	247.556,16.312 247.5,16.561 247.473,16.643 247.473,16.863 247.581,17.824 247.609,17.935 247.692,18.154 248.132,18.95 
	248.132,18.978 248.132,19.006 248.159,19.088 248.076,19.308 248.132,19.472 248.188,19.555 248.517,19.72 248.544,19.747 
	248.655,19.83 248.736,19.911 248.791,20.049 248.818,20.104 248.846,20.159 248.846,20.188 248.846,20.214 248.846,20.269 
	248.846,20.324 248.818,20.352 248.791,20.379 248.765,20.407 248.709,20.462 248.626,20.517 248.571,20.544 248.269,20.654 
	247.144,20.902 247.032,20.983 246.702,21.451 246.676,21.478 246.593,21.589 246.565,21.589 246.538,21.615 246.428,21.644 
	246.4,21.67 245.852,21.725 245.659,21.863 245.604,21.89 245.55,21.89 245.136,21.89 245,21.835 244.862,21.644 244.835,21.644 
	244.67,21.478 244.505,21.313 244.285,21.259 244.037,21.285 243.873,21.396 243.57,21.67 243.379,21.78 243.103,21.835 
	242.719,21.835 242.554,21.863 242.061,22.083 241.84,22.248 241.619,22.495 241.318,23.155 241.043,23.43 240.823,23.566 
	240.712,23.593 240.383,23.593 239.807,23.539 239.531,23.593 239.448,23.622 239.422,23.649 239.339,23.787 239.283,23.842 
	239.092,24.171 239.064,24.335 239.092,24.72 238.954,24.996 238.9,25.16 238.954,25.298 239.229,25.545 239.339,25.655 
	239.366,25.792 239.339,25.929 239.092,26.644 239.01,26.809 238.954,26.864 238.541,27.304 238.322,27.441 237.69,27.716 
	237.306,27.99 237.03,28.1 236.866,28.32 236.729,28.43 236.618,28.43 235.987,28.238 235.932,28.238 235.877,28.238 
	235.603,28.292 235.354,28.32 235.327,28.32 235.272,28.348 235.217,28.375 235.107,28.485 234.942,28.677 234.668,29.007 
	234.504,29.035 234.365,28.952 234.201,28.952 234.009,29.035 233.321,29.64 232.964,30.133 232.744,30.545 232.332,30.958 
	232.277,31.041 232.03,31.179 231.536,31.343 230.574,32.085 230.189,32.25 230.052,32.496 229.805,32.881 229.695,33.018 
	229.558,33.267 229.502,33.322 229.365,33.513 228.897,34.062 228.76,34.42 228.65,34.64 228.431,34.833 228.046,34.969 
	227.909,35.079 227.771,35.271 227.634,35.546 227.304,35.766 227.139,35.739 227.029,35.795 226.919,35.959 226.893,36.179 
	226.81,36.179 226.645,36.096 226.287,35.795 225.902,35.684 225.737,35.71 225.6,35.354 225.326,35.244 225.244,35.271 
	225.188,35.354 225.105,35.354 224.72,35.108 224.31,34.942 224.09,35.299 224.034,35.327 223.952,35.327 223.842,35.134 
	223.787,35.079 223.567,35.244 223.458,35.299 223.044,34.888 222.742,34.888 222.551,34.749 222.193,34.64 221.535,34.503 
	220.875,34.31 219.748,34.062 219.418,34.008 219.253,34.036 218.841,33.871 218.1,33.238 218.072,33.184 218.017,33.018 
	218.017,32.854 218.044,32.771 218.017,32.469 217.797,32.002 217.66,31.865 217.55,31.618 217.495,31.315 217.302,30.848 
	217.248,30.793 217.165,30.793 217.11,30.71 217.028,30.436 217.056,30.326 217,29.832 216.534,29.282 216.341,28.458 
	215.159,25.05 215.352,24.528 215.488,24.501 215.654,24.335 215.598,24.253 215.434,24.198 215.324,24.117 215.215,23.951 
	215.215,23.566 215.269,23.539 215.296,23.483 215.215,23.402 215.159,23.292 215.242,23.045 215.242,22.742 214.802,21.808 
	214.555,21.561 214.473,21.505 213.84,21.369 213.538,21.424 213.346,21.698 212.851,22.33 212.741,22.357 212.027,22.385 
	211.917,22.165 211.835,22.138 211.285,21.973 210.488,21.78 209.197,21.67 208.702,21.698 208.316,21.808 207.521,21.67 
	207.384,21.78 206.449,22.357 205.569,22.275 205.322,22.165 200.047,39.805 196.886,50.302 190.65,71.267 189.276,76.02 
	187.572,81.736 187.407,82.34 186.281,86.049 186.226,86.324 187.462,93.715 187.709,95.006 194.772,92.727 195.733,92.369 
	202.025,90.309 203.756,95.337 206.174,102.591 205.569,102.811 205.789,103.498 205.817,103.553 208.839,112.593 211.751,121.11 
	213.593,126.523 214.308,128.804 214.555,129.683 215.104,131.332 217.138,130.206 218.127,131.909 218.758,132.871 
	221.645,137.652 221.286,137.899 221.204,138.009 220.957,138.146 220.737,138.091 220.463,138.229 220.49,138.724 220.545,138.861 
	220.545,138.943 220.518,138.999 220.05,139.136 219.775,138.888 219.418,138.503 219.199,138.394 219.006,138.173 218.649,137.68 
	218.594,137.569 218.621,137.486 218.704,137.404 218.731,137.322 218.649,137.02 218.456,137.047 218.127,137.212 217.192,138.037 
	217.11,137.955 216.836,137.817 216.725,137.789 216.698,137.844 217.11,138.146 217.33,138.146 217.631,138.256 217.742,138.394 
	217.797,138.724 217.825,138.75 217.907,138.778 218.072,138.75 218.318,138.806 218.594,138.999 218.677,139.19 218.841,139.301 
	218.896,139.328 219.226,140.015 219.282,140.537 219.199,140.894 219.061,140.949 218.951,140.949 218.787,140.839 
	218.731,140.839 218.567,140.949 218.484,140.921 218.512,140.977 218.567,141.004 218.758,140.894 218.951,141.032 
	219.418,141.554 219.804,142.185 219.83,142.296 219.748,143.257 219.72,143.533 219.775,143.752 219.775,144.328 219.72,144.411 
	219.555,144.494 219.555,144.521 219.363,144.549 219.088,144.686 219.117,144.769 219.308,144.906 219.72,145.043 219.94,145.29 
	220.133,145.647 220.104,145.977 219.968,146.445 219.885,146.526 219.775,146.61 219.555,146.61 218.923,146.17 218.814,146.362 
	218.731,146.417 218.292,146.581 218.044,146.637 217.742,146.472 217.302,146.06 217.083,145.675 217.028,145.702 217.056,145.812 
	217.028,145.84 216.918,145.812 216.836,145.702 216.809,145.647 216.973,145.428 216.836,145.263 216.725,145.263 216.615,145.29 
	216.369,145.4 216.369,145.455 216.011,145.482 215.902,145.455 215.902,145.482 216.093,145.592 216.369,145.565 216.534,145.455 
	216.809,145.4 216.836,145.455 216.836,145.538 216.78,145.592 216.725,145.812 216.862,145.95 216.918,145.95 216.973,145.895 
	217.083,145.895 217.192,145.977 217.192,146.005 217.138,146.197 217.056,146.362 216.945,146.445 216.89,146.526 216.89,146.967 
	216.945,147.049 217.028,147.187 217,147.269 216.89,147.297 217.056,147.351 217.192,147.488 217.165,147.571 217.192,147.681 
	217.467,147.873 217.33,147.983 217.083,148.065 216.78,147.983 216.066,148.396 215.929,148.533 215.792,148.753 215.736,149.027 
	215.598,149.164 215.488,149.191 215.488,149.22 215.571,149.22 215.819,149.082 215.846,148.972 216.039,148.89 216.615,148.945 
	216.644,148.972 216.588,149 216.588,149.027 216.725,149.164 217.192,149.027 217.715,149.22 217.742,149.356 217.577,149.495 
	217.467,149.605 217.33,149.659 217.11,149.687 216.753,150.043 216.753,150.071 217,149.906 217.083,149.906 217.22,149.989 
	217.248,150.071 217.577,150.236 217.687,150.208 218.1,150.401 218.182,150.483 218.265,150.841 218.402,151.006 218.538,151.033 
	218.621,151.088 218.758,151.335 218.814,151.527 218.868,151.61 218.978,151.692 219.199,151.72 219.363,151.774 219.501,151.83 
	219.94,151.939 220.078,151.939 220.243,151.858 220.518,151.995 220.627,151.968 220.82,151.83 221.011,151.748 221.177,151.72 
	221.424,151.774 221.535,151.885 221.562,151.939 221.589,152.544 221.506,152.901 221.535,153.066 221.562,153.093 
	221.726,153.122 221.891,153.287 221.918,153.342 221.837,153.698 222.138,153.698 222.193,153.617 222.221,153.259 
	222.386,153.149 222.496,153.122 222.687,152.984 222.908,153.04 223.264,152.984 223.842,153.066 224.392,153.369 224.392,153.698 
	224.31,153.753 223.979,153.562 223.347,153.314 223.264,153.342 223.21,153.562 223.293,154.028 223.623,154.138 224.31,154.66 
	224.364,154.935 224.446,155.237 224.446,155.292 224.392,155.43 224.281,155.677 224.281,155.76 224.254,155.87 223.925,156.006 
	223.896,156.446 224.145,156.941 224.31,157.051 224.446,157.023 224.556,157.133 224.611,157.298 224.667,157.656 224.72,157.738 
	224.474,158.013 224.31,158.259 224.31,158.754 224.336,159.139 224.31,159.249 224.007,159.606 223.813,159.826 223.759,159.991 
	223.567,160.183 223.539,160.21 223.32,160.403 223.264,160.54 223.1,160.677 222.716,160.842 222.496,160.842 222.413,160.924 
	222.467,161.117 222.606,161.392 222.716,161.474 222.44,161.777 223.787,164.03 224.034,164.497 226.149,168.014 228.65,172.025 
	228.871,172.41 228.98,172.548 229.393,173.261 231.975,177.659 231.618,177.851 231.646,177.933 232.085,178.785 233.129,180.488 
	233.789,181.561 234.613,182.824 234.558,183.099 235.081,184.006 238.433,189.968 238.515,190.134 238.954,189.914 
	240.796,193.238 240.904,193.402 242.17,195.711 244.917,194.171 244.944,194.171 245.191,194.062 246.896,193.074 246.565,192.525 
	247.28,192.139 247.692,191.891 247.197,191.013 247.061,190.82 253.6,187.137 253.71,187.055 253.873,186.973 254.039,186.89 
	254.067,186.862 254.204,186.809 254.369,186.699 254.561,186.589 255.194,186.23 255.276,186.204 258.409,184.446 259.233,183.978 
	260.497,183.292 260.771,183.126 261.623,182.631 261.789,182.521 262.805,181.973 264.755,180.847 264.755,180.818 
	266.542,179.774 266.568,179.774 267.422,179.307 270.416,177.494 270.965,177.164 271.213,177.025 276.158,174.251 
	273.054,169.031 277.752,166.255 274.482,160.567 274.07,159.771 273.246,158.424 271.129,154.77 270.334,153.396 270.334,153.369 
	270.196,153.149 269.563,152.077 268.492,150.236 267.174,148.01 262.393,150.758 261.403,145.84 260.223,142.159 259.178,140.428 
	265.085,136.745 263.381,131.799 263.327,131.661 261.019,124.518 260.771,123.693 259.37,119.6 257.886,115.148 254.012,103.773 
	253.38,101.959 252.968,100.613 252.941,100.558 252.941,100.53 252.912,100.502 252.09,98.112 251.154,95.227 250.879,94.32 
	250.742,93.908 248.846,88.137 254.753,86.16 255.056,87.039 255.222,86.984 256.348,86.6 261.019,84.978 261.815,84.703 
	263.547,84.099 264.839,83.66 267.311,82.862 269.948,90.529 270.938,93.55 271.377,94.732 273.328,100.393 275.169,105.943 
	275.581,106.383 276.433,108.8 276.542,108.993 277.532,111.686 277.642,112.043 277.973,112.483 279.1,115.561 279.126,115.642 
	279.675,117.209 280.17,118.747 281.517,122.759 281.846,123.693 282.175,124.737 282.313,125.095 282.148,125.149 284.238,131.387 
	285.253,134.354 286.298,137.322 286.324,137.458 286.737,137.542 287.452,137.597 287.507,137.542 287.562,137.515 289.566,136.25 
	290.171,135.92 292.452,134.52 294.349,133.311 294.046,132.816 297.591,130.618 298.058,130.343 298.14,130.288 299.954,129.078 
	303.306,126.936 303.581,127.403 304.432,128.75 306.686,132.376 308.773,135.728 309.294,136.607 310.038,137.844 311.549,140.208 
	313.747,143.533 314.601,144.879 314.077,145.18 314.627,146.06 314.874,146.445 314.874,146.472 315.259,147.021 317.402,150.483 
	316.22,151.144 316.083,151.225 314.654,152.022 314.488,152.104 314.297,152.214 314.132,152.297 313.637,152.572 313.17,152.792 
	313.089,152.846 312.072,153.287 310.257,154.304 306.52,156.583 306.329,156.693 300.971,159.716 302.123,161.694 303.745,164.579 
	303.8,164.607 304.516,165.871 305.449,167.437 300.312,170.377 300.063,170.515 299.733,170.707 301.191,173.316 302.812,176.175 
	297.041,179.417 297.894,180.873 297.92,180.929 298.524,181.807 299.074,182.851 300.449,185.353 300.476,185.408 300.695,185.792 
	301.025,186.396 303.553,190.957 304.871,193.348 301.161,195.519 301.136,195.519 299.954,196.205 297.562,197.524 
	297.535,197.524 297.15,197.745 296.986,198.541 296.52,200.795 293.991,200.3 293.305,201.922 293.058,202.306 292.864,202.663 
	292.838,203.102 292.838,205.355 292.205,205.465 292.15,205.52 291.381,205.576 291.408,204.777 291.408,204.696 291.354,204.725 
	290.639,204.777 290.419,204.833 290.171,204.285 289.896,204.477 289.649,204.421 289.54,204.34 288.825,204.972 288.99,205.355 
	289.293,205.768 289.32,205.849 289.293,205.959 288.99,206.346 288.964,206.428 288.935,206.537 288.935,206.674 288.908,206.84 
	288.798,207.389 288.798,207.637 288.854,207.966 288.825,208.461 288.771,208.791 288.661,209.284 288.633,209.479 
	288.744,209.889 288.908,210.137 288.964,210.164 289.237,210.355 289.676,210.521 289.896,210.657 290.062,210.74 290.446,211.098 
	290.858,211.538 291.217,212.032 291.299,212.17 291.436,212.334 291.573,212.417 291.875,212.554 292.232,212.499 292.369,212.582 
	292.398,212.692 292.424,212.857 292.315,213.434 292.315,213.626 292.342,213.819 292.479,214.01 292.672,214.312 293.058,215.467 
	293.661,216.292 294.073,216.924 294.267,217.335 294.376,217.638 294.432,218.105 294.541,218.49 294.622,218.792 294.705,219.177 
	295.254,218.792 295.42,219.616 295.393,220.139 295.31,221.786 294.787,222.473 294.925,223.875 295.859,226.155 296.354,226.979 
	296.409,227.446 296.409,227.64 296.326,227.942 296.465,229.041 296.739,230.305 296.904,230.606 298.579,230.36 299.432,229.097 
	299.54,228.573 299.679,228.327 299.926,228.189 300.422,227.942 301.136,227.915 301.657,228.271 303.444,228.821 304.267,229.068 
	307.152,229.097 307.263,229.151 307.318,229.151 307.482,229.397 308.115,229.59 308.719,229.425 310.725,230.414 311.329,230.579 
	312.128,231.047 312.182,231.156 313.143,231.376 313.637,231.35 313.555,230.745 313.198,230.443 312.896,229.919 313.143,229.014 
	313.06,228.684 312.346,228.08 311.934,227.446 311.852,227.145 311.302,226.623 310.423,226.842 309.874,226.484 309.652,226.184 
	309.488,225.882 309.324,224.755 309.324,224.672 309.461,223.71 309.652,222.968 309.049,221.897 308.526,221.869 308.004,221.21 
	307.703,220.605 307.675,220.274 307.785,219.945 308.06,219.78 309.186,219.836 309.378,219.698 309.791,218.463 310.285,218.407 
	310.505,218.132 310.396,217.006 310.725,216.539 310.836,216.539 310.999,216.566 312.043,218.38 311.823,218.984 311.906,219.644 
	312.401,220.248 313.006,220.109 313.226,219.945 313.06,219.452 312.786,219.121 312.621,218.655 312.54,217.61 311.714,216.018 
	311.74,215.493 311.906,215.11 312.182,214.862 312.456,214.835 312.648,214.807 313.335,215.274 313.472,216.182 314.021,217.912 
	314.406,218.132 314.709,218.049 314.957,217.856 315.644,216.072 315.507,215.412 315.562,215.11 316,215.026 316.494,215.357 
	316.577,215.467 317.622,216.566 317.923,217.254 317.869,217.473 317.731,217.583 317.512,217.526 316.357,219.039 
	316.439,219.177 316.632,219.452 316.715,219.836 316.412,220.494 316.248,220.605 316.11,222.062 316.165,222.172 316.881,222.446 
	316.962,222.555 317.017,222.666 316.962,222.968 316.248,223.931 316.577,224.892 316.907,225.056 317.375,225.688 
	317.704,226.349 319.132,227.557 319.818,227.722 320.204,227.557 320.369,227.501 320.864,227.64 321.222,227.942 322.514,228.134 
	322.843,228.519 323.721,228.08 323.858,227.997 324.628,226.018 324.079,225.111 323.94,225.084 323.804,224.836 323.584,224.177 
	323.776,223.71 323.831,223.519 324.325,223.022 324.408,222.913 326.469,222.253 327.872,220.522 328.062,220.302 328.062,220.22 
	328.421,218.517 328.008,217.473 326.965,215.934 326.937,215.906 326.222,215.247 326.139,215.164 325.918,214.945 
	325.892,214.945 325.837,214.891 325.81,214.862 325.755,214.835 325.535,214.697 325.452,214.643 325.343,214.671 325.261,214.671 
	325.15,214.697 324.957,214.918 324.931,214.945 324.903,214.973 323.969,214.532 323.94,214.506 322.76,213.956 322.649,213.901 
	322.595,213.709 322.814,213.379 322.567,212.773 322.348,212.582 321.166,212.473 320.451,213.076 320.04,213.434 319.71,213.159 
	319.599,212.692 319.49,212.361 320.286,211.924 320.59,211.18 320.451,210.328 320.451,209.367 320.562,209.34 320.919,209.258 
	321.578,209.972 322.514,210.219 322.731,210.082 322.211,209.064 322.211,208.516 322.567,207.992 322.649,207.992 
	323.749,207.966 323.915,208.104 324.079,208.516 323.996,209.064 325.177,208.791 325.508,208.432 325.425,208.158 
	325.535,207.938 325.837,207.637 325.864,207.608 327.321,207.389 327.65,207.554 327.951,207.992 327.951,208.624 328.255,209.587 
	328.806,210.657 329.189,211.126 329.354,211.566 329.684,212.473 330.481,213.461 331.36,214.23 331.471,214.148 331.553,213.736 
	332.048,213.819 332.734,215.522 333.448,216.21 333.834,216.318 333.86,216.347 334.438,216.237 334.438,215.247 334.163,214.752 
	334.025,214.285 334.189,214.01 334.327,213.984 334.465,213.956 334.575,212.967 334.686,212.087 334.74,211.566 334.301,211.208 
	334.355,210.987 334.493,210.328 334.657,210.108 334.987,210.219 335.316,210.631 335.894,211.071 336.196,211.318 336.526,211.18 
	337.075,210.082 336.746,209.146 336.91,208.873 336.938,208.791 337.377,208.681 338.01,208.818 338.229,208.681 338.201,207.966 
	337.872,207.5 338.01,207.251 338.229,207.06 338.668,207.141 339.026,207.855 340.208,209.367 340.208,208.762 340.208,208.158 
	340.125,207.663 340.043,206.95 339.879,206.482 340.152,206.262 340.235,206.15 340.978,206.758 341.69,206.866 341.774,206.866 
	341.801,206.482 341.829,206.482 341.801,206.454 341.72,206.179 340.208,204.559 340.016,203.982 339.933,203.486 340.099,202.993 
	340.317,202.828 340.372,202.333 340.208,201.812 339.96,201.508 339.191,199.779 339.384,198.238 339.054,197.689 338.999,197.36 
	339.164,197.112 339.686,197.003 341.032,197.58 341.361,197.991 341.526,198.487 341.801,198.843 342.159,198.979 342.9,198.707 
	342.57,197.8 342.461,197.112 342.626,196.755 342.928,196.562 343.175,196.562 343.395,196.534 343.697,196.672 344.631,197.635 
	345.208,198.788 345.126,199.036 345.317,199.64 345.813,199.559 346.28,199.2 346.692,199.256 346.802,199.283 347.076,198.431 
	347.049,197.606 346.556,196.866 346.72,196.344 347.159,195.93 348.368,195.463 348.589,195.519 349.028,196.149 349.247,196.095 
	349.439,196.014 353.013,194.336 353.095,193.65 352.296,192.607 351.967,192.441 351.639,188.017 351.639,187.852 351.914,187.386 
	352.022,187.358 352.051,187.358 352.489,187.578 352.627,187.496 352.849,187.055 352.738,186.589 353.479,186.04 354.248,186.396 
	354.579,187.111 356.749,187.852 357.134,187.551 357.105,187.331 357.244,187.083 357.904,186.589 358.124,186.56 358.287,186.56 
	358.479,186.835 359.002,187.137 359.358,187.22 359.47,186.533 359.387,185.792 359.387,184.721 359.47,184.666 360.102,184.994 
	360.431,184.5 360.486,183.923 359.799,182.604 359.222,182 358.92,181.918 358.7,181.67 358.617,180.763 359.222,179.225 
	359.606,179.06 360.513,178.4 361.311,177.823 361.805,177.796 361.805,177.851 361.971,178.428 361.721,178.922 362.408,181.121 
	363.069,181.286 363.509,181.561 363.811,182.549 363.48,184.282 362.932,184.555 362.986,184.748 363.646,185.379 363.947,185.297 
	364.278,185.214 364.662,184.939 364.992,184.446 365.185,184.17 365.377,183.786 364.992,183.375 364.938,182.77 365.68,181.368 
	365.871,181.258 366.612,181.34 367.162,181.038 367.575,180.818 367.878,180.571 368.234,180.241 368.564,179.994 368.427,179.857 
	368.371,179.747 368.345,179.692 368.207,179.362 368.29,178.757 368.48,178.62 369.112,178.51 369.306,178.291 369.471,178.098 
	369.691,177.851 369.637,177.769 369.608,176.642 369.802,175.818 370.268,175.543 370.487,174.938 370.57,174.691 370.79,174.032 
	370.928,173.591 370.9,173.427 370.79,172.85 370.598,171.888 370.872,171.697 371.312,171.724 371.366,171.724 371.615,171.531 
	371.806,171.422 371.806,171.394 371.861,170.789 371.889,170.13 371.696,169.442 371.669,169.333 371.972,169.085 372.688,169.305 
	372.713,169.305 373.373,168.839 373.455,168.811 373.675,168.481 374.278,166.942 374.39,166.695 374.472,166.091 374.721,165.321 
	374.856,165.212 375.214,165.266 375.625,165.019 375.956,164.333 "/>
<polygon fill="#4D4D4D" stroke="#FFFFFF" points="354.716,198.238 353.452,197.469 352.819,197.222 352.71,196.755 352.766,195.765 
	352.435,195.683 350.951,195.765 350.786,195.985 351.145,196.92 351.418,197.003 351.776,196.866 351.94,196.947 353.562,199.695 
	354,200.218 354.579,199.888 354.633,199.833 354.66,199.806 354.716,199.695 354.799,199.502 "/>
<polygon fill="#4D4D4D" stroke="#FFFFFF" points="310.725,223.381 310.917,224.177 311.852,224.507 313.362,224.836 313.747,224.26 
	311.604,221.182 311.165,220.358 310.807,220.248 310.561,220.385 310.366,220.744 310.505,221.705 310.807,222.31 "/>
<polygon fill="#4D4D4D" stroke="#FFFFFF" points="327.185,223.765 326.881,223.821 326.854,223.821 326.744,224.314 
	326.553,224.562 326.166,224.699 325.728,224.616 325.15,224.975 325.479,226.238 325.617,226.403 325.673,226.458 325.698,226.458 
	326.111,226.54 326.139,226.54 326.854,226.184 326.965,226.155 326.965,226.128 327.266,225.717 327.047,225.194 326.99,224.892 
	327.073,224.78 327.102,224.699 327.321,224.425 327.788,224.177 327.815,224.177 328.201,224.15 328.255,224.15 328.282,224.15 
	328.282,224.123 328.282,224.039 328.282,224.013 327.981,223.655 "/>
<polygon fill="#4D4D4D" stroke="#FFFFFF" points="294.182,232.228 293.277,231.075 293.167,230.139 293.305,229.838 
	293.579,229.755 293.964,229.122 294.101,228.271 294.046,227.585 293.277,226.54 292.645,226.349 291.628,227.31 291.546,228.381 
	291.875,230.524 292.452,232.283 291.985,234.646 291.655,235.416 291.381,236.506 291.464,237.027 291.573,237.165 
	291.931,237.219 292.232,237.385 293.03,238.43 292.975,239.061 293.221,238.813 293.881,237.659 294.129,236.835 293.881,234.097 
	294.046,233.739 "/>
<polygon fill="#4D4D4D" stroke="#FFFFFF" points="323.721,232.311 324.052,232.036 324.079,232.008 324.052,231.952 
	323.996,231.376 323.969,231.019 323.915,230.524 324.299,229.838 324.491,229.975 324.656,229.864 324.518,229.673 
	323.996,229.452 323.502,229.48 322.924,230.112 322.623,230.414 322.211,230.689 321.99,231.102 321.826,231.816 321.826,231.844 
	321.854,231.844 322.265,231.952 323.557,232.283 323.694,232.311 "/>
<polygon fill="#4D4D4D" stroke="#FFFFFF" points="309.928,235.525 309.515,235.279 309.488,235.141 309.461,235.059 309.845,234.18 
	309.625,232.476 309.021,231.596 308.197,231.075 306.163,230.772 305.504,230.389 305.284,230.333 305.092,230.275 
	304.845,230.414 305.092,230.606 305.229,231.075 305.258,231.567 304.898,232.723 304.929,233.849 304.486,234.371 304.157,234.51 
	304.076,234.92 304.076,234.976 304.157,235.196 304.432,235.654 304.955,236.121 305.229,237.001 305.203,237.605 305.478,238.594 
	305.807,238.979 306.026,239.061 306.245,239.143 306.686,239.006 307.207,239.198 307.647,239.527 308.087,240.078 
	308.444,240.021 308.582,239.884 308.362,238.95 309.158,238.511 309.544,238.099 310.176,236.094 310.065,235.709 "/>
<polygon fill="#4D4D4D" stroke="#FFFFFF" points="317.484,232.283 317.595,232.283 317.595,232.255 317.785,232.063 
	317.758,231.897 317.677,231.844 317.182,231.266 316.632,231.075 316.385,230.993 316.494,230.635 316.33,230.36 315.808,230.524 
	315.754,230.663 315.836,231.322 315.836,231.35 315.89,231.679 315.918,231.926 315.944,231.926 316.22,232.337 316.357,232.337 
	317.128,232.283 "/>
<polygon fill="#4D4D4D" stroke="#FFFFFF" points="321.634,233.547 320.59,232.889 319.93,232.283 319.463,232.172 319.436,232.172 
	318.857,232.557 318.061,232.695 317.758,233.024 317.512,233.3 317.21,233.603 316.853,234.7 316.632,235.305 316.604,235.333 
	316.439,235.553 316.549,236.094 316.936,236.367 316.962,236.367 317.348,236.259 317.539,236.204 317.731,236.039 318.94,235.817 
	319.655,236.45 319.793,237.027 320.095,237.219 320.178,237.275 320.506,237.494 320.534,237.468 320.973,237.082 321.771,235.525 
	321.826,235.416 321.99,235.113 322.045,234.811 322.238,233.931 321.771,233.657 "/>
<polygon fill="#4D4D4D" stroke="#FFFFFF" points="299.02,237.165 299.35,237.082 299.761,237.109 300.119,237.109 300.586,237.247 
	301.245,237.385 301.768,237.275 302.069,236.396 301.794,235.764 300.365,235.113 298.607,235.333 298.498,235.361 298.25,235.581 
	298.086,235.984 298.359,236.588 "/>
<polygon fill="#4D4D4D" stroke="#FFFFFF" points="325.37,235.626 325.343,235.608 324.737,235.169 324.436,235.251 324.216,235.525 
	323.915,235.709 323.611,236.396 323.611,236.616 323.611,236.644 323.639,236.67 323.639,236.727 323.721,236.78 323.776,236.808 
	324.244,237.109 324.464,237.247 325.755,236.808 325.781,236.808 325.781,236.78 325.975,236.286 325.975,236.259 325.975,236.231 
	325.918,236.039 "/>
<polygon fill="#4D4D4D" stroke="#FFFFFF" points="317.348,237.962 316.907,237.879 316.769,238.071 316.743,238.099 
	316.715,238.347 316.66,239.034 316.962,239.666 316.962,239.692 317.758,239.692 317.785,239.639 318.061,238.813 317.841,238.347 
	"/>
<polygon id="2300002" fill="#4D4D4D" stroke="#FFFFFF" points="294.541,218.49 294.432,218.105 294.376,217.638 294.267,217.335 
	294.073,216.924 293.661,216.292 293.058,215.467 292.672,214.312 292.479,214.01 292.342,213.819 292.315,213.626 292.315,213.434 
	292.424,212.857 292.398,212.692 292.369,212.582 292.232,212.499 291.875,212.554 291.573,212.417 291.436,212.334 291.299,212.17 
	291.217,212.032 290.858,211.538 290.446,211.098 290.062,210.74 289.896,210.657 289.676,210.521 289.237,210.355 288.964,210.164 
	288.908,210.137 288.744,209.889 288.633,209.479 288.661,209.284 288.771,208.791 288.825,208.461 288.854,207.966 
	288.798,207.637 288.798,207.389 288.908,206.84 288.935,206.674 288.935,206.537 288.964,206.428 288.99,206.346 289.293,205.959 
	289.32,205.849 289.293,205.768 288.99,205.355 288.825,204.972 288.744,204.833 288.633,204.777 288.386,204.833 287.643,204.777 
	287.533,204.752 287.423,204.613 287.479,204.477 287.479,204.34 287.343,204.092 286.241,204.777 286.05,204.889 286.134,205.08 
	285.97,205.189 285.886,205.246 284.787,205.905 284.676,205.768 281.735,207.608 279.429,209.064 277.34,210.355 276.104,211.154 
	275.169,211.729 274.895,211.896 274.84,211.924 274.4,212.197 271.844,213.736 271.433,213.076 269.838,210.164 269.784,210.055 
	268.795,208.24 265.993,209.779 263.08,204.174 263.3,204.064 262.447,202.58 262.256,202.223 261.65,201.179 260.799,199.75 
	260.113,198.487 256.786,192.634 256.183,191.589 255.908,191.122 253.848,187.522 253.6,187.137 247.061,190.82 247.197,191.013 
	247.692,191.891 247.28,192.139 246.565,192.525 246.896,193.074 245.191,194.062 244.944,194.171 244.917,194.171 242.17,195.711 
	240.904,193.402 240.796,193.238 238.954,189.914 238.515,190.134 238.433,189.968 235.081,184.006 234.558,183.099 
	234.613,182.824 233.789,181.561 233.129,180.488 232.085,178.785 231.646,177.933 231.618,177.851 231.975,177.659 
	229.393,173.261 228.98,172.548 228.871,172.41 228.65,172.025 226.149,168.014 224.034,164.497 223.787,164.03 222.44,161.777 
	222.716,161.474 222.606,161.392 222.467,161.117 222.413,160.924 222.496,160.842 222.716,160.842 223.1,160.677 223.264,160.54 
	223.32,160.403 223.539,160.21 223.567,160.183 223.759,159.991 223.813,159.826 224.007,159.606 224.31,159.249 224.336,159.139 
	224.31,158.754 224.31,158.259 224.474,158.013 224.72,157.738 224.667,157.656 224.611,157.298 224.556,157.133 224.446,157.023 
	224.31,157.051 224.145,156.941 223.896,156.446 223.925,156.006 224.254,155.87 224.281,155.76 224.281,155.677 224.392,155.43 
	224.446,155.292 224.446,155.237 224.364,154.935 224.31,154.66 223.623,154.138 223.293,154.028 223.21,153.562 223.264,153.342 
	223.347,153.314 223.979,153.562 224.31,153.753 224.392,153.698 224.392,153.369 223.842,153.066 223.264,152.984 222.908,153.04 
	222.687,152.984 222.496,153.122 222.386,153.149 222.221,153.259 222.193,153.617 222.138,153.698 221.837,153.698 
	221.918,153.342 221.891,153.287 221.726,153.122 221.562,153.093 221.535,153.066 221.506,152.901 221.589,152.544 
	221.562,151.939 221.535,151.885 221.424,151.774 221.177,151.72 221.011,151.748 220.82,151.83 220.627,151.968 220.518,151.995 
	220.243,151.858 220.078,151.939 219.94,151.939 219.501,151.83 219.363,151.774 219.199,151.72 218.978,151.692 218.868,151.61 
	218.814,151.527 218.758,151.335 218.621,151.088 218.538,151.033 218.402,151.006 218.265,150.841 218.182,150.483 218.1,150.401 
	217.687,150.208 217.577,150.236 217.248,150.071 217.22,149.989 217.083,149.906 217,149.906 216.753,150.071 216.753,150.043 
	217.11,149.687 217.33,149.659 217.467,149.605 217.577,149.495 217.742,149.356 217.715,149.22 217.192,149.027 216.725,149.164 
	216.588,149.027 216.588,149 216.644,148.972 216.615,148.945 216.039,148.89 215.846,148.972 215.819,149.082 215.571,149.22 
	215.488,149.22 215.488,149.191 215.598,149.164 215.736,149.027 215.792,148.753 215.929,148.533 216.066,148.396 216.78,147.983 
	217.083,148.065 217.33,147.983 217.467,147.873 217.192,147.681 217.165,147.571 217.192,147.488 217.056,147.351 216.89,147.297 
	217,147.269 217.028,147.187 216.945,147.049 216.89,146.967 216.89,146.526 216.945,146.445 217.056,146.362 217.138,146.197 
	217.192,146.005 217.192,145.977 217.083,145.895 216.973,145.895 216.918,145.95 216.862,145.95 216.725,145.812 216.78,145.592 
	216.836,145.538 216.836,145.455 216.809,145.4 216.534,145.455 216.369,145.565 216.093,145.592 215.902,145.482 215.902,145.455 
	216.011,145.482 216.369,145.455 216.369,145.4 216.615,145.29 216.725,145.263 216.836,145.263 216.973,145.428 216.809,145.647 
	216.836,145.702 216.918,145.812 217.028,145.84 217.056,145.812 217.028,145.702 217.083,145.675 217.302,146.06 217.742,146.472 
	218.044,146.637 218.292,146.581 218.731,146.417 218.814,146.362 218.923,146.17 219.555,146.61 219.775,146.61 219.885,146.526 
	219.968,146.445 220.104,145.977 220.133,145.647 219.94,145.29 219.72,145.043 219.308,144.906 219.117,144.769 219.088,144.686 
	219.363,144.549 219.555,144.521 219.555,144.494 219.72,144.411 219.775,144.328 219.775,143.752 219.72,143.533 219.748,143.257 
	219.83,142.296 219.804,142.185 219.418,141.554 218.951,141.032 218.758,140.894 218.567,141.004 218.512,140.977 218.484,140.921 
	218.567,140.949 218.731,140.839 218.787,140.839 218.951,140.949 219.061,140.949 219.199,140.894 219.282,140.537 
	219.226,140.015 218.896,139.328 218.841,139.301 218.677,139.19 218.594,138.999 218.318,138.806 218.072,138.75 217.907,138.778 
	217.825,138.75 217.797,138.724 217.742,138.394 217.631,138.256 217.33,138.146 217.11,138.146 216.698,137.844 216.725,137.789 
	216.836,137.817 217.11,137.955 217.192,138.037 218.127,137.212 218.456,137.047 218.649,137.02 218.731,137.322 218.704,137.404 
	218.621,137.486 218.594,137.569 218.649,137.68 219.006,138.173 219.199,138.394 219.418,138.503 219.775,138.888 220.05,139.136 
	220.518,138.999 220.545,138.943 220.545,138.861 220.49,138.724 220.463,138.229 220.737,138.091 220.957,138.146 221.204,138.009 
	221.286,137.899 221.645,137.652 218.758,132.871 218.127,131.909 217.138,130.206 215.104,131.332 214.555,129.683 
	214.308,128.804 213.593,126.523 211.751,121.11 208.839,112.593 205.817,103.553 205.789,103.498 205.569,102.811 206.174,102.591 
	203.756,95.337 202.025,90.309 195.733,92.369 194.772,92.727 187.709,95.006 187.737,95.199 187.929,96.188 189.633,106.273 
	189.661,106.354 189.633,106.41 188.864,107.069 188.644,107.069 188.205,107.207 187.901,107.399 187.792,107.756 187.929,108.142 
	187.957,108.195 187.737,109.212 187.407,109.46 187.132,109.762 187.132,109.817 187.078,109.982 187.242,110.45 187.188,110.642 
	187.022,110.752 186.803,111.274 186.528,111.658 185.868,111.713 185.401,111.988 185.346,112.043 185.318,112.07 185.291,112.098 
	184.825,112.895 184.742,113.059 184.33,114.461 184.33,114.625 184.632,115.286 184.825,115.422 184.935,115.561 185.127,116.577 
	184.797,117.043 184.165,118.06 184,118.747 183.808,119.489 183.781,120.093 183.808,120.451 183.917,121 184.027,121.797 
	184.027,122.127 183.945,123.776 183.587,124.875 183.369,125.342 183.587,125.699 184.302,126.167 184.357,126.194 184.44,126.249 
	184.714,126.359 184.825,126.359 185.127,126.468 186.803,127.375 186.968,127.54 186.996,127.87 187.105,128.886 186.968,129.738 
	186.968,130.343 187.022,130.453 187.188,130.563 187.298,130.948 187.242,131.058 186.637,131.139 186.308,131.139 185.814,131.58 
	185.648,131.964 185.566,132.706 185.483,133.146 185.318,134.327 185.346,134.327 185.401,134.382 185.457,134.437 
	185.483,134.464 185.566,134.492 185.593,134.492 185.677,134.464 186.17,134.327 186.253,134.327 186.281,134.299 186.334,134.244 
	186.445,134.134 186.473,134.108 186.637,134.052 186.94,134.108 186.996,134.162 187.051,134.354 187.078,134.684 186.637,135.619 
	186.445,136.167 185.979,137.515 186.006,137.542 187.105,138.668 187.132,138.696 187.654,138.668 188.094,138.641 
	188.094,138.668 188.039,138.971 187.764,139.493 187.518,139.603 187.298,139.904 187.242,140.098 187.298,140.674 
	187.324,140.729 187.298,140.784 187.242,141.334 187.271,141.361 187.298,141.361 187.49,141.416 188.562,140.949 188.946,140.674 
	189.276,140.646 189.744,140.619 190.512,140.921 191.363,141.526 191.446,141.719 191.446,141.855 191.007,142.433 190.732,143.12 
	190.732,143.175 190.705,143.229 190.787,143.504 190.814,143.504 190.897,143.449 191.089,143.533 191.089,143.559 
	191.117,143.587 191.556,144.273 191.639,144.521 191.639,145.455 191.528,145.702 190.841,147.104 190.841,147.132 
	190.814,147.187 190.072,148.313 189.963,148.396 189.605,148.698 189.441,148.835 189.358,148.89 189.083,149.082 188.506,149.384 
	187.709,150.951 187.572,151.198 187.271,151.858 187.051,152.352 186.858,153.204 186.885,153.533 186.996,153.617 
	187.051,153.727 187.105,153.863 187.105,153.891 186.996,154.083 186.996,154.11 186.94,154.138 186.913,154.138 186.885,154.165 
	186.774,154.165 186.637,154.11 186.555,154.138 186.17,154.44 186.17,154.495 186.17,154.55 186.445,155.044 187.407,156.583 
	187.737,156.776 188.039,156.803 188.562,157.133 189.111,158.068 188.918,158.617 188.644,159.359 188.616,159.386 
	188.534,159.469 188.067,160.018 187.901,160.183 187.462,160.706 187.132,161.007 186.747,161.172 186.528,161.199 
	185.704,161.694 184.742,163.095 184.248,163.837 183.972,164.469 183.972,164.497 184,164.634 183.781,164.963 183.01,165.184 
	182.433,165.294 182.213,165.458 182.023,165.815 182.048,165.871 182.159,165.926 182.159,166.338 181.417,168.426 
	181.389,168.509 181.006,168.839 180.785,168.949 180.482,169.8 179.741,170.515 179.356,170.872 179.329,170.899 179.246,171.503 
	179.301,171.558 179.219,171.888 179.082,172.493 178.504,173.894 178.285,174.361 178.202,174.499 178.258,174.718 178.56,175.515 
	178.312,176.917 178.258,177.082 178.037,177.604 177.817,178.07 177.653,178.374 177.625,178.565 177.653,178.729 177.681,178.757 
	177.735,178.922 178.477,180.186 179.054,180.517 179.246,180.571 180.044,180.929 180.511,181.368 180.84,181.643 181.28,181.973 
	181.994,182.192 182.709,182.248 183.725,183.044 184.165,183.786 184.302,184.308 184.495,185.05 184.742,186.066 184.302,186.589 
	184.083,186.78 183.643,186.862 183.587,186.862 183.396,186.313 182.407,186.011 182.104,186.04 182.077,186.066 182.048,186.094 
	181.967,186.23 181.747,186.341 180.813,186.78 180.208,186.643 179.796,186.479 179.769,186.479 178.834,185.819 178.67,185.462 
	178.614,185.187 178.065,184.913 177.983,184.884 177.9,184.857 176.581,185.077 176.004,185.489 175.976,185.518 175.922,185.572 
	175.894,185.627 175.894,185.655 175.894,185.819 175.866,186.286 175.51,186.918 175.125,187.881 175.153,188.017 175.29,188.347 
	175.4,188.484 175.51,188.484 176.141,188.842 176.169,188.869 176.471,189.116 176.581,189.198 176.966,189.832 176.993,189.941 
	176.993,189.968 176.966,189.996 176.966,190.024 176.801,190.134 176.773,190.188 176.609,190.71 176.691,191.837 176.719,191.918 
	176.856,192.249 176.966,192.414 177.076,192.525 177.296,192.661 177.46,192.634 177.598,192.715 177.707,192.935 177.873,193.704 
	177.9,194.419 177.817,194.75 177.763,194.804 177.323,195.492 177.406,195.739 177.46,196.26 177.46,196.288 177.46,196.315 
	177.434,196.562 177.323,197.112 177.268,197.277 177.214,197.416 176.993,197.635 177.102,198.128 177.406,198.926 177.9,199.2 
	178.037,199.283 177.817,199.559 177.323,200.135 177.296,200.135 177.076,200.135 176.197,200.162 175.84,200.162 175.374,199.998 
	175.125,199.86 174.988,199.75 174.877,199.09 174.686,198.761 173.971,198.157 173.503,197.881 173.119,197.689 173.092,197.662 
	173.064,197.25 173.064,197.085 173.201,196.616 173.201,196.37 172.569,195.354 172.35,195.299 171.854,195.107 171.361,195.134 
	171.031,194.914 170.619,194.502 170.481,194.31 169.74,194.723 168.859,194.996 168.613,194.887 168.53,194.804 168.365,194.694 
	167.817,194.475 167.623,194.391 167.294,194.366 167.267,194.556 167.294,194.667 167.568,195.216 167.926,195.354 
	168.118,195.519 168.118,195.573 168.008,196.26 167.788,196.508 167.486,196.783 167.101,197.031 166.745,197.196 166.497,197.196 
	165.673,197.416 165.399,197.662 165.095,198.047 164.903,198.21 164.629,198.377 166.277,202.279 167.898,206.758 168.859,209.258 
	172.129,217.995 172.377,218.683 172.542,218.984 172.762,219.644 173.201,220.798 174.273,223.684 175.18,226.018 176.061,228.217 
	176.307,228.849 176.527,229.48 176.747,230.003 176.966,230.579 178.258,233.987 178.394,234.344 178.834,235.525 179.054,236.121 
	179.191,236.561 179.275,236.808 179.85,238.374 179.961,238.621 181.307,242.329 182.407,245.408 183.643,248.953 185.071,252.91 
	185.401,253.762 185.732,254.585 185.758,254.694 186.061,255.547 186.334,256.263 186.583,256.948 187.188,258.679 
	188.094,261.207 188.259,261.592 188.287,261.646 189.056,263.736 189.963,266.399 190.375,267.556 190.595,268.132 
	190.677,268.378 191.035,269.34 191.035,269.367 191.309,270.247 194.578,279.508 194.991,280.661 195.568,282.283 196.254,284.207 
	196.722,285.552 197.162,286.734 197.216,286.927 197.244,286.98 197.601,288.024 198.178,289.702 198.261,289.921 199.03,292.118 
	199.25,292.723 199.688,294.099 199.937,294.784 200.157,295.389 201.063,297.998 202.134,301.215 202.438,301.021 202.63,301.077 
	203.069,301.461 203.179,301.461 203.592,301.215 203.702,301.241 203.866,301.215 204.059,301.05 204.168,300.774 204.224,300.692 
	204.443,300.5 204.526,300.472 204.828,300.555 205.241,300.417 205.322,300.335 205.322,300.251 205.322,300.088 205.404,299.949 
	205.707,299.456 206.339,299.153 206.724,298.714 206.971,298.521 207.026,298.302 207.109,298.247 207.767,298.356 
	207.932,298.302 207.987,298.19 208.126,298.19 208.18,298.273 208.207,298.356 208.647,298.218 208.813,298.026 208.977,297.916 
	209.059,297.752 209.169,297.669 209.637,297.586 209.8,297.696 209.856,297.696 210.103,297.561 210.186,297.367 210.351,297.175 
	210.433,297.175 210.543,297.202 210.679,297.367 210.625,297.202 210.708,297.147 211.038,297.12 211.175,297.175 211.257,297.257 
	211.367,297.229 211.23,297.094 211.23,297.064 211.312,296.982 211.422,296.873 211.477,296.708 211.615,296.571 211.889,296.515 
	211.78,296.214 211.751,295.884 211.725,295.803 211.285,295.307 211.203,295.252 211.093,295.252 210.956,295.334 210.845,295.252 
	210.708,294.784 210.735,294.481 210.679,294.372 210.46,294.099 210.103,293.933 210.049,293.878 210.049,293.355 210.653,292.339 
	210.817,292.723 211.34,291.873 211.505,292.229 212.273,290.91 211.889,291.019 211.615,290.937 211.312,290.169 211.23,290.086 
	211.147,289.784 211.065,289.702 211.147,289.536 211.203,289.481 211.203,289.153 212.027,287.778 211.257,287.2 210.874,286.954 
	210.708,286.871 210.708,286.844 210.845,286.707 211.203,286.238 211.257,286.184 211.285,286.156 212,285.249 210.186,283.821 
	210.13,283.765 208.977,282.858 207.355,281.623 206.86,281.925 206.834,281.925 206.724,282.008 206.174,281.073 206.202,281.073 
	206.119,280.825 205.763,281.101 205.953,281.073 205.982,281.073 205.294,281.788 204.113,281.211 203.592,281.045 
	202.987,280.853 202.905,280.825 202.768,280.716 202.685,280.359 202.244,279.562 202.08,279.562 202.025,279.535 201.942,279.452 
	201.998,279.26 201.97,278.957 202.163,278.957 202.19,278.765 202.134,278.546 202.025,278.436 201.998,278.271 202.134,278.326 
	204.195,278.957 204.663,278.326 204.828,278.134 205.679,276.953 206.174,276.319 207.328,274.753 207.521,274.508 
	208.895,272.775 209.169,273.05 209.884,272.062 210.103,271.731 210.927,270.659 211.065,270.495 211.889,269.367 212.082,269.533 
	212.192,269.644 212.273,270.001 212.713,270.191 212.906,270.275 213.043,270.275 213.098,270.247 213.263,270.247 
	213.456,270.386 213.621,270.439 213.812,270.659 213.812,270.715 213.729,270.824 213.758,270.878 213.812,270.935 213.84,270.771 
	213.896,270.742 213.95,270.989 214.032,271.208 214.06,271.264 214.417,271.457 214.445,271.565 214.417,271.731 214.719,272.007 
	214.665,272.363 214.363,273.353 214.308,273.873 214.363,274.04 214.5,274.177 214.5,274.342 214.609,274.533 214.637,274.728 
	214.692,274.672 214.747,274.728 214.747,275.138 214.665,275.495 214.884,276.127 214.856,276.347 214.967,276.732 
	215.159,277.116 215.324,277.336 215.406,277.391 215.517,277.391 215.736,277.914 215.983,278.023 216.285,278.271 
	216.369,278.518 216.534,278.546 216.56,278.628 216.809,278.819 217.302,279.233 217.742,279.315 217.797,279.315 217.851,279.233 
	218.072,278.49 218.677,278.957 218.704,278.875 219.501,279.508 219.968,277.968 219.994,277.914 220.324,276.842 220.353,276.732 
	220.463,276.484 220.655,276.566 220.737,276.292 222.084,276.676 222.084,276.43 221.918,276.265 221.753,275.906 221.699,275.55 
	221.616,275.083 221.535,274.974 221.341,274.918 221.177,274.809 221.891,272.61 222.111,271.924 222.716,270.027 223.458,267.774 
	223.732,266.922 224.034,265.961 224.694,263.899 224.72,263.817 224.886,263.351 225.216,262.307 225.298,262.059 225.546,262.059 
	225.792,262.087 225.766,261.427 225.737,261.07 225.737,260.851 225.71,260.411 225.683,259.916 225.6,258.296 225.463,255.107 
	225.408,253.541 225.298,250.492 224.171,248.375 223.842,247.771 223.759,247.606 223.484,247.112 223.952,246.836 
	223.127,245.271 224.474,243.457 224.996,242.742 225.848,241.588 225.958,241.506 225.986,241.506 226.123,241.424 
	226.343,241.313 226.397,241.259 226.535,241.176 227.166,240.847 227.194,240.819 229.2,239.775 229.997,241.232 230.519,242.084 
	232.854,246.287 232.909,246.426 231.921,246.946 232.194,247.496 231.618,247.799 231.701,248.019 231.892,247.938 
	233.844,249.667 234.063,249.886 234.365,250.712 234.394,250.738 234.42,250.82 236.124,251.893 236.317,252.441 237.608,256.592 
	238.13,258.24 238.322,258.323 238.735,258.459 239.283,258.404 239.201,258.981 242.719,258.679 242.772,259.723 242.196,259.779 
	242.252,260.603 242.114,260.631 242.031,260.658 242.114,261.563 242.196,262.664 243.021,262.609 243.048,262.774 
	243.406,262.719 245.246,262.526 248.765,262.195 249.065,262.168 249.038,261.922 249.011,261.317 248.955,261.207 
	248.901,260.905 248.901,260.769 248.955,260.521 248.929,259.394 248.955,259.037 249.038,258.708 249.122,258.514 249.23,258.459 
	249.285,258.378 249.368,258.129 249.396,257.938 249.423,257.855 249.589,257.691 249.834,257.333 250.906,257.224 
	252.144,257.112 254.671,256.866 255.056,257.333 255.194,257.58 255.222,257.746 255.413,258.762 255.358,259.009 255.33,259.339 
	255.413,259.613 255.413,260 255.358,260.769 255.194,261.373 255.056,261.646 255.056,261.783 255.194,261.976 255.248,262.113 
	255.248,262.609 255.33,262.719 255.551,262.855 255.605,262.966 255.551,263.351 255.716,263.817 255.771,264.203 255.825,264.999 
	255.716,265.301 255.084,266.153 255.056,266.264 255.056,266.399 258.409,266.125 258.655,266.153 258.847,266.125 
	261.102,265.905 261.128,266.236 260.964,266.758 260.991,266.868 261.019,266.922 261.019,267.086 260.936,268.132 
	260.936,268.653 260.964,268.929 261.019,269.065 261.155,269.423 261.102,269.562 261.184,269.918 261.32,270.247 261.486,270.852 
	261.513,271.181 261.54,271.318 261.596,271.374 261.815,271.4 262.557,271.483 262.476,271.979 262.393,272.28 262.256,272.639 
	262.008,272.857 261.87,273.104 261.815,273.298 261.76,273.71 261.54,274.396 262.008,274.728 262.337,275.138 262.613,275.331 
	262.668,275.413 262.695,275.798 262.832,276.018 263.409,276.787 263.573,276.896 263.768,276.925 263.932,276.87 264.37,276.402 
	264.865,276.045 265.029,276.237 265.195,276.512 265.305,276.761 265.305,276.979 265.195,277.391 265.168,277.639 
	265.223,277.968 265.277,278.216 265.331,278.353 265.36,278.353 265.607,278.326 266.047,278.463 266.156,278.737 267.723,280.167 
	268.3,279.975 268.135,279.039 267.723,278.162 267.448,276.815 267.448,276.787 267.915,275.963 267.971,275.881 268.217,275.963 
	268.273,275.99 268.409,276.43 269.096,276.979 269.262,276.539 269.234,276.127 269.096,275.687 269.069,275.604 269.18,274.562 
	269.371,274.479 269.646,274.342 270.113,274.782 270.416,276.237 270.224,276.705 269.922,276.787 270.113,277.557 
	270.224,277.611 270.883,277.035 271.268,276.512 270.993,275.193 271.075,275.001 271.157,274.974 271.295,274.892 
	271.872,275.001 272.146,274.863 272.064,273.38 271.514,272.692 271.377,272.309 271.404,272.144 271.652,271.951 271.68,271.951 
	272.613,272.034 272.724,272.034 273.108,272.473 273.987,273.984 274.016,274.533 274.234,274.945 274.646,274.312 
	274.783,271.867 274.702,271.428 274.646,271.045 275.307,269.065 274.84,266.29 274.813,264.587 275.004,264.339 275.279,264.423 
	275.581,264.835 275.746,263.295 276.763,263.378 277.422,263.708 278.055,263.487 278.467,263.323 278.961,262.416 279.044,262.39 
	280.005,262.087 280.582,262.251 281.6,262.499 281.682,262.884 281.242,263.927 281.543,263.955 281.874,263.817 282.479,262.526 
	282.699,262.39 282.754,262.39 282.891,262.416 283.853,263.158 284.182,263.817 284.731,264.559 285.473,263.982 285.609,263.487 
	286.655,262.829 287.04,262.224 287.177,261.51 287.095,260.822 286.901,260.574 286.711,260.356 286.737,259.75 286.929,259.257 
	287.423,257.966 287.726,257.608 288.413,257.416 289.237,256.564 289.404,256.399 288.99,255.795 289.073,255.603 289.458,254.75 
	289.566,254.585 290.171,253.733 290.748,253.377 290.997,252.91 290.502,252.388 290.612,252.002 290.804,251.344 290.914,251.124 
	291.326,251.013 291.628,251.041 291.738,251.371 291.848,251.371 292.287,249.969 291.436,249.255 290.997,249.2 290.722,249.255 
	289.842,249.914 289.348,250.492 289.184,250.492 288.605,250.134 288.551,250.105 288.332,249.365 288.935,248.266 
	289.018,248.102 288.964,247.193 288.441,246.314 288.084,245.435 288.084,245.379 288.057,245.134 288.057,244.83 288.854,244.528 
	289.046,244.007 288.717,242.633 288.633,242.413 288.633,242.304 288.605,242.275 288.605,241.562 288.605,240.819 
	288.413,240.324 288.386,240.242 288.332,240.16 288.303,239.501 288.496,238.292 288.524,238.236 288.908,237.521 289.1,236.147 
	288.688,234.729 289.128,234.536 289.842,234.207 290.419,232.639 290.419,232.476 290.419,231.897 289.979,229.618 
	288.908,228.519 288.469,228.189 287.781,228.024 287.396,227.557 287.259,227.392 286.518,226.267 286.627,225.579 
	286.682,225.358 287.836,224.811 288.358,224.562 288.854,223.684 288.854,223.216 288.854,222.968 290.062,222.253 
	290.281,222.281 290.391,222.392 290.639,222.583 290.639,222.693 290.858,223.051 291.244,223.464 291.628,223.545 
	292.096,222.446 292.26,222.033 293.305,220.358 294.101,219.588 294.705,219.177 294.622,218.792 "/>
<polygon fill="#4D4D4D" stroke="#FFFFFF" points="285.97,275.331 285.775,275.357 285.75,275.469 285.5,275.633 285.28,276.237 
	285.336,276.761 285.445,276.953 285.831,276.761 286.216,275.715 286.16,275.469 "/>
<polygon fill="#4D4D4D" stroke="#FFFFFF" points="304.322,249.2 304.734,247.661 304.982,247.606 305.174,247.222 305.368,246.261 
	305.037,245.683 304.46,245.435 303.828,244.995 302.481,243.649 302.041,243.842 301.712,243.485 301.465,242.935 301.411,242.577 
	301.437,242.44 302.207,242.111 302.729,242.028 303.113,241.368 303.004,241.259 302.812,241.424 302.481,241.396 300.862,240.793 
	300.339,239.995 300.257,239.639 300.365,239.473 299.954,239.171 298.938,239.775 297.783,241.424 297.453,242.055 296.326,243.32 
	295.833,244.83 295.805,246.205 295.941,246.397 297.287,245.902 297.618,245.793 297.783,246.095 297.977,247.579 298.553,247.963 
	299.047,248.596 300.365,250.793 301.3,251.013 301.849,250.849 302.675,250.271 303.361,249.805 303.856,249.64 "/>
<polygon fill="#4D4D4D" stroke="#FFFFFF" points="314.488,243.759 314.462,243.072 314.435,243.017 314.27,242.77 314.077,242.826 
	313.279,242.329 313.17,242.275 313.143,242.275 312.648,241.836 312.182,241.836 311.906,242.221 311.906,242.604 310.532,244.007 
	311.246,244.995 311.906,246.287 311.934,247.222 311.961,247.468 311.878,247.606 312.017,248.073 312.429,248.843 
	312.456,248.871 312.456,248.843 312.648,248.787 312.594,248.567 312.565,248.348 312.676,247.963 313.06,247.551 313.17,247.468 
	313.445,247.522 313.582,247.522 314.159,247.634 314.323,247.771 314.488,247.413 314.379,247.167 314.187,246.646 
	313.911,244.199 314.406,243.979 "/>
<polygon fill="#4D4D4D" stroke="#FFFFFF" points="304.982,263.268 304.762,262.224 304.02,261.537 303.525,262.224 303.69,263.625 
	303.938,263.625 304.212,263.46 304.486,263.791 304.569,263.982 304.845,264.641 304.79,265.384 304.845,265.438 305.395,265.164 
	305.478,264.696 305.478,264.67 305.559,264.12 305.586,263.982 305.258,263.598 "/>
</svg>
