<?xml version="1.0" encoding="utf-8"?>
<!-- Generator: Adobe Illustrator 13.0.2, SVG Export Plug-In . SVG Version: 6.00 Build 14948)  -->
<!DOCTYPE svg PUBLIC "-//W3C//DTD SVG 1.1//EN" "http://www.w3.org/Graphics/SVG/1.1/DTD/svg11.dtd">
<svg  version="1.1" style="background-color: #000000;"  id="Layer_1" xmlns="http://www.w3.org/2000/svg" xmlns:xlink="http://www.w3.org/1999/xlink" x="0px" y="0px"
	 width="500px" height="400px" viewBox="-7.131 -9.219 500 400" enable-background="new -7.131 -9.219 500 400"
	 xml:space="preserve">
<polygon id="3813900" fill="#4D4D4D" stroke="#FFFFFF" stroke-width="0.75"  points="275.859,150.614 275.859,149.412 275.835,148.709 
	275.835,147.256 275.859,144.899 275.859,142.519 275.885,142.043 275.885,140.163 275.885,139.185 275.885,137.306 
	275.885,136.879 275.909,133.521 275.934,132.117 275.934,131.617 275.934,130.689 275.934,129.737 275.934,129.511 275.934,129.26 
	275.934,127.982 275.708,127.982 275.484,127.982 274.08,127.982 273.903,127.956 273.803,127.982 271.873,127.956 270.194,127.956 
	269.816,127.956 269.768,127.956 269.291,127.956 265.332,127.932 264.453,127.932 263.527,127.932 261.672,127.906 
	260.621,127.932 260.594,127.906 259.666,127.906 259.392,127.906 258.766,127.906 257.887,127.906 256.51,127.906 256.058,127.906 
	255.532,127.881 254.955,127.881 253.952,127.881 253.652,127.881 253.075,127.881 251.57,127.856 251.146,127.856 250.743,127.856 
	248.588,127.832 248.414,127.832 247.461,127.832 247.31,127.832 247.31,128.132 247.31,128.533 247.285,133.27 247.235,137.731 
	247.209,137.832 247.235,138.007 247.209,138.708 247.209,138.958 246.257,138.958 246.156,138.958 245.907,138.958 
	245.881,138.958 245.831,138.958 245.782,138.958 245.73,138.958 245.306,138.958 245.255,138.958 245.205,138.958 244.354,138.958 
	243.425,138.958 243.4,138.935 241.421,138.935 239.265,138.91 237.485,138.91 237.686,139.21 238.062,139.486 238.312,139.837 
	238.387,140.062 238.513,140.514 238.614,141.091 238.614,141.265 238.614,141.642 238.663,142.269 238.689,143.07 238.764,143.321 
	239.214,144.173 239.791,144.775 240.016,144.975 240.267,145.251 240.292,145.276 240.693,145.627 240.894,145.877 241.07,146.127 
	241.22,146.454 241.245,146.581 241.294,146.654 241.32,146.704 241.32,146.855 241.27,147.757 241.145,148.234 240.518,149.036 
	240.242,149.211 239.917,149.36 239.54,149.513 239.265,149.662 239.039,149.837 238.839,150.039 238.713,150.289 238.689,150.313 
	235.731,150.313 235.48,150.289 235.205,150.289 234.402,150.289 234.052,150.289 231.972,150.289 231.545,150.289 228.913,150.264 
	227.334,150.264 227.284,150.264 227.183,150.264 227.06,150.264 225.128,150.264 225.104,150.264 223.198,150.238 222.998,150.264 
	222.747,150.264 221.344,150.238 218.762,150.188 217.91,150.188 217.459,150.163 216.406,150.163 215.553,150.138 214.049,150.113 
	213.9,150.113 212.671,150.088 211.242,150.064 209.94,150.064 207.91,149.988 207.307,150.013 206.932,149.988 205.93,149.988 
	204.625,149.938 202.37,149.913 201.192,149.888 199.914,149.863 199.738,149.863 197.683,149.813 197.408,149.813 196.404,149.789 
	195.653,149.789 194.725,149.763 194.725,149.737 191.718,149.687 191.567,149.687 190.94,149.662 186.98,149.587 186.379,149.587 
	186.153,149.587 186.103,152.62 186.078,154.75 186.053,154.9 186.002,156.681 186.002,156.855 186.002,157.258 185.978,158.811 
	185.953,159.061 185.978,159.263 185.878,163.097 185.853,164.6 185.827,164.977 185.803,166.856 188.66,166.907 189.086,166.933 
	189.638,166.933 192.47,166.981 195.352,167.032 196.305,167.082 197.382,167.106 199.162,167.106 202.997,167.182 202.971,168.135 
	202.921,170.04 202.872,172.897 202.896,172.897 205.427,172.947 206.707,172.973 210.541,173.048 211.869,173.048 214.3,173.098 
	215.328,173.123 217.635,173.147 217.884,173.147 219.088,173.197 220.992,173.197 221.043,173.197 221.494,173.222 
	221.945,173.248 221.945,174.024 221.945,174.1 221.92,175.68 221.92,175.954 221.92,176.105 221.895,177.382 221.895,177.458 
	221.87,178.812 221.82,180.768 221.82,181.645 221.82,182.522 221.82,182.772 221.82,183.2 221.795,184.502 221.795,184.627 
	221.795,184.701 221.77,185.455 221.77,186.782 221.72,189.039 221.744,189.263 221.72,190.216 226.407,190.291 226.958,190.291 
	227.435,190.291 228.387,190.291 229.339,190.317 229.64,190.317 230.292,190.317 233.149,190.366 233.149,191.52 233.149,191.82 
	233.124,192.697 233.099,196.057 234.127,196.106 234.127,195.957 234.127,195.806 234.453,195.305 234.503,195.154 
	234.553,195.104 234.653,195.104 234.877,195.229 235.104,195.305 235.154,195.279 235.229,195.18 235.305,194.879 235.354,194.852 
	235.305,194.702 235.179,194.604 235.054,194.552 234.803,194.653 234.728,194.653 234.678,194.577 234.728,194.376 
	234.653,194.051 234.528,193.801 234.578,193.725 234.728,193.625 234.877,193.524 235.004,193.524 235.129,193.524 235.179,193.6 
	235.154,193.675 235.205,193.775 235.305,193.801 235.48,194 235.555,194.051 235.731,194.026 236.081,193.826 236.131,193.65 
	236.056,193.424 236.106,193.248 236.131,193.173 236.307,193.149 236.333,193.273 236.407,193.374 236.533,193.399 
	236.733,193.199 236.783,193.099 236.783,193.023 236.633,192.874 236.658,192.723 237.01,192.572 237.259,192.547 237.284,192.522 
	237.259,192.348 237.16,192.146 237.084,192.045 237.134,191.971 237.435,191.846 237.61,191.846 237.811,191.871 238.037,191.82 
	238.087,191.42 238.062,191.293 238.037,191.243 237.937,191.194 237.886,191.069 237.987,190.617 238.112,190.567 238.237,190.443 
	238.187,190.267 238.312,190.091 238.488,190.142 238.614,190.041 238.663,189.739 238.863,189.39 239.014,189.239 239.039,189.214 
	239.089,189.087 239.064,188.989 239.064,188.888 239.164,188.839 239.666,188.712 239.816,188.736 240.092,188.839 
	240.167,188.812 240.167,188.762 240.092,188.712 240.042,188.562 240.042,188.387 240.066,188.336 240.668,187.961 
	240.794,187.936 240.818,187.936 240.868,187.985 240.969,188.362 240.969,188.461 240.844,188.712 240.794,188.888 
	240.718,189.139 240.769,189.239 240.894,189.263 241.145,189.239 241.345,189.289 241.546,189.087 241.546,189.039 
	241.646,189.012 241.696,188.913 241.67,188.787 241.67,188.662 241.821,188.587 241.847,188.412 241.922,188.362 241.997,188.412 
	242.071,188.537 242.071,188.863 242.122,188.938 242.373,188.989 242.798,189.189 242.974,189.113 243.049,189.239 
	243.049,189.339 243.1,189.364 243.225,189.364 243.451,189.314 243.575,189.339 243.776,189.59 244.077,189.615 244.152,189.59 
	244.202,189.54 244.253,189.414 244.253,189.289 244.253,189.263 244.327,189.239 244.453,189.214 244.729,189.189 245.08,189.214 
	245.255,189.239 245.682,189.164 245.73,189.087 245.73,188.964 245.856,188.762 245.907,188.736 246.106,188.736 246.609,188.863 
	246.658,188.888 246.732,189.063 246.833,189.087 246.934,189.012 246.985,188.938 247.135,188.611 247.386,188.512 
	247.535,188.863 247.511,188.964 247.435,189.012 247.386,189.189 247.461,189.263 247.662,189.263 247.962,189.113 
	248.012,189.113 248.062,189.139 248.112,189.263 248.112,189.39 248.038,189.739 248.038,189.89 248.062,189.916 248.137,189.966 
	248.237,189.916 248.463,189.69 248.688,189.615 248.765,189.54 248.688,189.263 248.64,189.189 248.664,188.839 248.714,188.762 
	248.789,188.688 248.839,188.712 248.914,188.863 248.99,189.012 249.04,189.039 249.165,189.012 249.465,188.762 249.717,187.985 
	249.916,187.835 250.117,187.76 250.242,187.81 250.643,188.236 250.743,188.211 250.994,188.135 251.17,187.936 251.32,187.86 
	251.723,187.835 252.373,187.459 252.423,187.409 252.398,187.083 252.498,186.959 252.624,187.008 252.725,187.108 
	252.749,187.184 252.773,187.359 252.898,187.484 253.2,187.56 253.351,187.409 253.351,187.284 253.301,187.208 253.049,187.034 
	253.026,186.933 253.075,186.883 253.601,186.782 253.652,186.733 254.104,186.833 254.128,186.807 253.927,186.381 
	253.876,186.331 253.802,186.106 253.753,185.805 253.726,185.529 253.753,185.304 254.027,184.327 254.077,183.875 
	254.104,183.399 254.303,182.573 254.453,182.195 254.654,181.744 254.854,181.594 255.381,181.32 255.582,181.168 255.957,180.817 
	256.183,180.467 256.259,180.115 256.234,179.889 254.806,177.985 254.303,177.284 254.278,177.083 254.379,176.906 
	254.604,176.808 255.029,177.008 255.307,176.958 255.506,176.581 255.506,176.356 255.182,175.93 254.428,175.579 253.652,175.302 
	252.574,174.728 252.398,174.601 251.872,174.024 250.944,173.273 251.723,173.248 254.403,173.248 256.534,173.273 
	256.733,173.273 257.536,173.297 257.663,173.297 257.911,173.297 258.74,173.324 259.04,173.324 259.141,173.324 259.517,173.324 
	260.143,173.324 260.169,173.324 261.122,173.324 261.598,173.324 261.998,173.324 262.022,173.324 262.976,173.348 
	263.954,173.348 263.977,173.348 264.129,173.373 265.481,173.348 265.808,173.348 265.882,173.348 267.737,173.373 
	270.396,173.398 270.494,173.398 271.599,173.423 272.475,173.423 272.551,173.398 273.428,173.423 274.48,173.423 276.235,173.423 
	277.212,173.423 277.338,173.423 277.387,171.543 277.387,170.541 277.411,169.889 277.411,169.639 277.411,168.335 
	277.411,167.733 277.437,166.856 277.463,166.055 277.463,164.977 277.463,164.876 277.487,162.971 277.512,162.044 
	277.539,159.187 277.539,158.285 277.539,158.234 277.539,158.184 277.563,158.108 277.563,157.734 277.563,157.258 277.588,156.33 
	277.588,154.45 277.64,151.166 277.64,150.74 277.662,150.614 "/>
<polyline id="3822020" fill="#4D4D4D" stroke="#FFFFFF" stroke-width="0.75"  points="423.788,131.466 423.788,131.565 423.764,131.641 
	423.688,131.666 423.638,131.691 423.587,131.841 423.587,132.017 423.688,132.142 423.688,132.193 423.537,132.292 
	423.513,132.367 423.562,132.443 423.562,132.494 423.688,132.543 423.688,132.669 423.663,132.794 423.663,132.869 
	423.764,133.044 423.814,133.095 423.814,133.169 423.814,133.245 423.738,133.371 423.738,133.445 423.764,133.445 
	423.814,133.496 423.839,133.521 423.889,133.595 423.864,133.671 423.638,133.847 423.613,133.947 423.587,134.072 
	423.638,134.173 423.688,134.247 423.864,134.348 423.965,134.448 423.965,134.523 423.913,134.674 423.913,134.75 423.965,134.874 
	424.014,134.923 424.063,134.95 424.114,134.975 424.164,135.05 424.19,135.125 424.164,135.225 424.063,135.4 424.038,135.475 
	424.063,135.551 424.114,135.602 424.265,135.727 424.315,135.826 424.315,135.852 424.315,136.078 424.365,136.127 
	424.414,136.202 424.414,136.354 424.34,136.453 424.315,136.554 424.315,136.604 424.414,136.679 424.414,136.705 424.44,136.729 
	424.414,136.778 424.39,136.778 424.265,136.879 424.19,136.93 424.038,137.13 424.038,137.156 424.038,137.181 424.063,137.23 
	424.09,137.28 424.09,137.33 424.114,137.407 424.038,137.506 424.014,137.607 424.038,137.706 424.09,137.756 424.19,137.857 
	424.239,138.057 424.239,138.183 424.215,138.333 424.19,138.409 424.265,138.534 424.315,138.584 424.39,138.684 424.39,138.81 
	424.365,138.935 424.315,138.958 424.265,139.061 424.291,139.136 424.315,139.161 424.564,139.412 424.617,139.562 
	424.541,139.688 424.541,139.736 424.515,139.787 424.515,139.812 424.541,139.862 424.564,139.887 424.691,139.987 424.74,140.062 
	424.74,140.163 424.691,140.289 424.664,140.389 424.664,140.488 424.691,140.514 424.74,140.589 424.74,140.89 424.664,141.015 
	424.664,141.04 424.664,141.115 424.664,141.141 424.74,141.265 424.664,141.517 424.691,141.617 424.74,141.692 424.74,141.868 
	424.64,141.993 424.64,142.017 424.691,142.168 424.664,142.218 424.64,142.243 424.564,142.293 424.541,142.369 424.591,142.695 
	424.664,142.795 424.664,142.82 424.691,142.87 424.64,142.945 424.564,142.97 424.564,142.995 424.541,143.095 424.64,143.346 
	424.767,143.471 424.792,143.521 424.841,143.922 424.74,144.273 424.74,144.298 424.767,144.399 424.865,144.524 424.865,144.574 
	424.865,144.599 424.865,144.675 424.865,144.75 424.792,144.8 424.74,144.851 424.74,144.925 424.74,145 424.767,145.025 
	424.891,145.175 424.915,145.251 424.841,145.352 424.541,145.477 424.414,145.602 424.265,145.953 424.291,146.028 
	424.239,146.354 424.215,146.429 424.215,146.504 424.215,146.581 424.239,146.604 424.34,146.73 424.541,146.905 424.591,146.88 
	424.74,147.006 424.74,147.13 424.716,147.156 424.691,147.256 424.691,147.431 424.792,147.657 424.941,148.459 424.941,148.484 
	424.915,148.51 424.841,148.885 424.865,149.011 424.966,149.135 425.418,149.335 425.744,149.211 425.769,149.211 425.793,149.186 
	425.894,149.312 425.919,149.437 425.919,149.513 425.869,149.637 425.894,149.963 425.943,150.039 425.943,150.064 
	425.943,150.264 425.943,150.313 425.943,150.34 425.919,150.414 425.992,150.464 426.07,150.489 426.221,150.489 426.294,150.589 
	426.319,150.766 426.37,151.042 426.319,151.267 426.319,151.467 426.344,151.542 426.37,151.568 426.469,151.592 426.545,151.592 
	426.596,151.768 426.621,151.793 426.721,151.819 426.847,151.643 426.972,151.517 427.072,151.467 427.598,151.166 
	427.649,151.191 427.723,151.267 427.723,151.341 427.723,151.366 427.649,151.542 427.674,151.592 427.674,151.668 
	427.772,151.768 427.723,151.868 427.723,151.893 427.698,151.993 427.723,152.093 427.799,152.169 427.799,152.194 427.799,152.27 
	427.748,152.295 427.674,152.343 427.649,152.343 427.598,152.645 427.622,152.846 427.598,152.971 427.549,153.121 
	427.473,153.121 427.322,153.021 427.197,153.247 427.072,153.773 427.146,154.099 427.173,154.224 427.224,154.375 
	427.247,154.474 427.322,154.526 427.396,154.474 427.499,154.474 427.523,154.526 427.473,154.801 427.421,154.925 
	427.348,154.951 427.146,154.851 426.945,154.776 426.896,154.825 426.945,154.975 426.996,155.052 426.996,155.202 
	426.996,155.276 426.972,155.503 426.972,155.552 426.945,155.578 426.945,155.627 426.92,155.678 426.873,155.803 426.873,155.828 
	426.873,155.928 426.896,155.98 426.945,156.078 426.945,156.103 426.945,156.153 426.945,156.179 426.945,156.254 426.92,156.33 
	426.92,156.404 426.92,156.43 426.92,156.48 426.92,156.53 426.972,156.605 427.048,156.63 427.072,156.655 427.121,156.705 
	427.121,156.78 427.097,156.831 427.048,156.905 427.048,156.932 427.022,157.056 427.072,157.181 427.072,157.282 427.022,157.332 
	426.945,157.356 426.896,157.356 426.873,157.407 426.873,157.482 426.896,157.583 426.896,157.607 426.896,157.682 
	426.821,157.809 426.646,157.859 426.646,157.884 426.621,157.934 426.67,158.009 426.746,158.134 426.721,158.234 426.646,158.259 
	426.545,158.234 426.27,158.584 426.169,158.785 426.221,159.061 426.169,159.187 426.118,159.263 426.095,159.312 426.145,159.388 
	426.37,159.488 426.395,159.538 426.395,159.562 426.395,159.788 426.395,159.814 426.395,159.863 426.395,160.063 426.395,160.29 
	426.37,160.54 426.37,160.564 426.37,160.615 426.422,160.716 426.444,160.74 426.469,160.766 426.521,160.815 426.571,160.865 
	426.646,160.993 426.67,161.117 426.621,161.268 426.596,161.317 426.621,161.442 426.646,161.467 426.771,161.517 426.821,161.593 
	426.795,161.693 426.771,161.793 426.795,161.919 426.945,162.069 426.972,162.094 427.022,162.169 427.022,162.194 426.945,162.27 
	426.972,162.371 426.996,162.445 427.048,162.494 427.022,162.57 426.945,162.595 426.92,162.67 426.896,162.771 426.896,162.872 
	426.972,162.996 427.072,163.121 427.097,163.297 427.048,163.398 427.022,163.523 427.022,163.573 427.022,163.598 
	427.022,163.623 427.048,163.673 427.048,163.773 427.197,163.899 427.197,164.149 427.097,164.425 427.224,164.626 
	427.247,164.651 427.298,164.676 427.322,164.802 427.298,165.076 427.097,165.253 427.072,165.528 427.072,165.604 
	427.048,165.753 426.92,166.104 426.847,166.355 426.847,166.406 426.996,166.58 427.072,166.882 427.072,167.082 427.022,167.182 
	427.072,167.382 427.146,167.409 427.197,167.457 427.197,167.482 427.197,167.583 427.022,167.783 427.048,167.935 426.996,168.01 
	426.821,168.084 426.821,168.109 426.795,168.135 426.795,168.259 426.795,168.311 426.847,168.435 426.795,168.637 
	426.721,168.735 426.696,168.735 426.67,168.787 426.596,168.887 426.596,169.363 426.696,169.662 426.972,169.938 427.048,170.415 
	427.048,170.591 427.022,170.742 426.996,170.992 427.048,171.093 427.072,171.093 426.696,171.192 425.519,171.216 
	425.167,171.243 420.856,171.369 417.773,171.494 417.298,171.519 416.67,171.543 416.093,171.543 416.043,171.569 415.143,171.594 
	410.756,171.743 410.38,171.743 409.401,171.794 405.641,171.92 405.591,171.92 404.766,171.943 403.662,171.97 403.21,171.97 
	402.96,171.995 400.805,172.045 399,172.094 398.899,172.094 398.072,172.12 397.947,172.12 393.311,172.22 392.232,172.246 
	391.405,172.271 390.451,172.295 390.228,172.295 389.977,172.295 389.474,172.295 389.3,172.321 388.521,172.321 388.398,172.321 
	387.596,172.346 387.445,172.346 386.616,172.372 386.493,172.372 386.469,171.417 386.442,170.716 386.417,169.137 
	386.417,168.561 386.368,166.656 386.342,165.253 386.318,164.776 386.241,161.919 386.218,160.967 386.116,156.254 
	386.091,156.129 386.091,155.252 386.042,154.299 386.042,153.847 386.042,153.823 386.042,153.622 386.042,153.346 
	386.018,152.393 386.018,152.169 385.941,149.888 385.941,149.587 385.941,149.513 384.839,149.537 384.812,148.559 
	384.763,145.752 384.738,144.399 384.738,143.874 384.738,143.847 384.688,141.942 384.589,138.133 384.562,137.256 
	384.562,137.205 384.486,134.348 384.438,132.944 384.438,132.443 388.246,132.393 390.176,132.343 391.104,132.343 
	392.083,132.292 393.985,132.243 394.965,132.218 395.917,132.218 401.632,132.066 403.536,132.017 406.443,131.942 
	407.371,131.892 413.086,131.716 415.668,131.641 415.918,131.641 416.119,131.641 416.169,131.641 416.242,131.641 
	416.318,131.641 418.8,131.565 423.136,131.491 423.788,131.466 "/>
<polyline id="3824220" fill="#4D4D4D" stroke="#FFFFFF" stroke-width="0.75"  points="407.997,69.464 407.997,69.54 407.947,69.615 407.798,69.966 
	407.822,70.041 407.872,70.141 407.947,70.167 407.997,70.241 408.021,70.393 408.021,70.492 407.997,70.567 407.872,70.743 
	407.847,70.793 407.798,70.918 407.822,71.095 407.947,71.495 408.048,71.645 408.148,71.695 408.174,71.795 408.198,71.945 
	408.174,72.097 408.124,72.247 408.048,72.422 408.073,72.623 408.098,72.723 408.223,72.748 408.424,72.823 408.524,72.974 
	408.5,73.099 408.524,73.224 408.649,73.375 408.724,73.775 408.775,73.951 409.025,74.427 409.074,74.553 409.074,74.652 
	409.074,74.729 409.05,74.779 408.975,74.928 408.951,75.029 408.975,75.104 409.001,75.104 409.126,75.18 409.428,75.129 
	409.502,75.129 409.603,75.205 409.651,75.531 409.802,75.656 409.853,75.756 409.853,75.88 409.853,75.906 409.802,75.981 
	409.802,76.082 409.802,76.132 409.953,76.232 410.054,76.433 410.078,76.683 410.029,76.984 409.903,77.159 409.877,77.26 
	409.877,77.31 409.953,77.36 410.179,77.385 410.503,77.936 410.68,78.212 410.731,78.237 410.805,78.313 410.881,78.362 
	411.006,78.438 411.207,78.563 411.23,78.587 411.257,78.613 411.281,78.663 411.306,78.738 411.332,78.789 411.357,78.863 
	411.382,78.89 411.382,78.939 411.458,79.265 411.557,80.192 411.557,80.268 411.431,80.593 411.431,80.618 411.431,80.644 
	411.431,80.718 411.431,80.743 411.431,80.769 411.48,80.844 411.507,80.895 411.557,80.944 411.581,80.944 411.756,80.969 
	411.833,80.994 411.833,81.019 411.833,81.12 411.732,81.245 411.684,81.37 411.809,82.073 411.833,82.096 411.907,82.248 
	411.932,82.248 412.233,82.422 412.308,82.523 412.308,82.548 412.334,82.574 412.334,82.598 412.308,82.749 412.209,83.25 
	412.084,83.576 412.084,83.676 412.185,83.901 412.159,84.002 412.008,84.202 411.983,84.302 412.008,84.353 412.133,84.453 
	412.358,84.603 412.435,84.754 412.435,84.929 412.308,85.179 412.308,85.23 412.308,85.305 412.358,85.48 412.509,85.656 
	412.786,85.806 413.034,85.832 413.061,85.832 413.187,85.907 413.211,86.082 413.161,86.308 413.235,86.509 413.511,86.659 
	413.537,86.684 413.562,86.709 413.662,86.81 413.714,86.859 413.738,86.859 413.863,86.985 413.888,87.009 414.064,87.16 
	414.038,87.26 413.787,87.411 413.913,87.486 413.986,87.536 414.089,87.586 414.189,87.762 414.189,87.962 414.112,88.062 
	413.964,88.037 413.812,87.912 413.763,87.912 413.787,88.113 413.964,88.312 413.986,88.413 413.812,88.589 413.787,88.789 
	414.064,89.041 414.038,89.115 413.787,89.315 413.787,89.491 413.888,89.617 414.064,89.741 414.139,89.842 414.089,89.967 
	413.913,90.093 413.913,90.143 413.986,90.243 414.163,90.293 414.215,90.318 414.715,90.368 414.841,90.469 414.89,90.544 
	414.813,90.644 414.69,90.694 414.715,90.769 414.89,90.945 414.941,90.97 414.99,91.02 415.042,91.095 415.091,91.22 
	415.091,91.296 415.091,91.32 415.115,91.371 415.115,91.396 415.143,91.797 415.143,91.822 415.167,91.947 415.167,92.048 
	415.143,92.072 415.115,92.098 415.091,92.115 415.091,92.215 415.316,92.465 415.616,92.465 415.844,92.941 415.844,93.041 
	415.817,93.167 415.844,93.242 415.894,93.267 415.968,93.318 415.968,93.442 415.968,93.494 415.942,93.518 415.918,93.542 
	415.918,93.593 415.942,93.895 416.043,94.145 416.019,94.271 415.918,94.371 415.918,94.47 415.942,94.546 416.144,94.796 
	416.169,94.947 416.193,95.021 416.27,95.047 416.37,95.021 416.62,95.072 416.719,95.248 416.996,95.397 417.021,95.473 
	417.021,95.523 416.821,95.624 416.745,95.724 416.67,95.875 416.67,95.975 416.719,95.999 416.745,95.999 416.795,95.975 
	416.821,95.975 416.946,96.099 417.071,96.2 417.071,96.426 417.396,96.475 417.572,96.651 417.598,96.651 417.874,96.927 
	417.973,97.177 417.924,97.303 417.946,97.428 417.946,97.453 417.973,97.479 417.997,97.504 418.049,97.579 418.198,97.679 
	418.198,97.754 418.174,97.778 418.123,97.83 418.123,97.93 418.123,97.955 418.375,98.08 418.399,98.23 418.399,98.431 
	418.375,98.556 418.198,98.757 418.198,98.857 418.226,98.957 418.324,99.132 418.576,99.458 418.852,99.734 418.902,99.809 
	418.852,99.884 418.675,100.06 418.675,100.186 418.701,100.211 418.825,100.286 418.852,100.41 418.825,100.561 418.852,100.687 
	418.977,100.787 419.053,100.837 419.102,100.887 419.126,101.037 419.075,101.112 419.075,101.188 419.126,101.238 
	419.151,101.264 419.178,101.238 419.202,101.238 419.225,101.264 419.252,101.313 419.276,101.363 419.327,101.514 
	419.426,101.665 419.451,101.714 419.451,101.739 419.426,101.79 419.327,101.914 419.353,102.014 419.353,102.04 419.377,102.065 
	419.401,102.09 419.451,102.09 419.478,102.09 419.502,102.065 419.528,102.065 419.552,102.04 419.654,101.89 419.679,101.89 
	419.703,101.89 419.728,101.89 419.753,101.914 419.777,101.939 419.804,101.965 419.804,101.99 419.828,102.014 419.902,102.466 
	419.979,102.967 419.979,102.992 420.027,103.042 420.154,103.067 420.18,103.067 420.229,103.143 419.979,103.143 418.775,103.192 
	418.123,103.218 417.045,103.243 416.193,103.268 414.163,103.343 412.308,103.393 411.332,103.418 410.805,103.443 
	410.778,103.443 410.354,103.443 410.179,103.468 405.591,103.594 404.663,103.619 399.851,103.744 398.899,103.794 
	396.993,103.845 394.188,103.92 393.234,103.945 393.134,103.945 389.525,104.045 388.948,104.045 388.799,104.07 388.447,104.07 
	388.398,104.045 387.37,104.095 386.518,104.095 386.417,104.095 385.565,104.12 382.733,104.195 381.604,104.221 380.001,104.271 
	379.675,104.271 377.87,104.32 377.019,104.345 375.84,104.345 375.741,99.634 375.741,99.458 375.741,98.656 375.641,94.872 
	375.614,92.992 375.59,92.048 375.538,90.168 375.489,87.311 375.413,83.526 375.364,82.598 375.364,82.474 375.364,81.596 
	374.411,81.621 374.362,80.192 374.362,79.54 374.362,79.29 374.336,78.763 374.312,77.811 374.312,77.334 374.312,76.984 
	374.312,76.858 374.286,76.408 374.286,75.932 374.237,74.051 374.237,73.625 374.237,73.149 374.21,73.099 374.21,73.074 
	374.21,72.673 374.21,72.422 374.186,71.972 374.161,70.267 374.437,70.241 376.066,70.217 377.318,70.191 377.568,70.191 
	379.426,70.141 379.925,70.141 382.782,70.066 383.408,70.041 385.69,69.991 386.616,69.966 391.455,69.841 395.315,69.74 
	397.221,69.69 400.104,69.615 400.529,69.615 402.984,69.59 403.436,69.565 403.938,69.54 405.842,69.515 405.942,69.515 
	407.798,69.464 407.997,69.464 "/>
<polygon id="3800001" fill="#4D4D4D" stroke="#FFFFFF" stroke-width="0.75"  points="187.456,195.379 187.482,192.246 187.507,190.491 
	187.531,190.167 187.531,190.015 187.531,189.69 187.557,187.785 187.606,184.928 187.606,184 187.606,183.95 187.632,183.022 
	187.658,181.168 187.683,178.261 187.707,175.428 187.732,174.552 187.732,174.451 187.732,173.75 187.732,173.548 187.732,173.098 
	187.732,172.696 187.732,172.596 185.827,172.547 185.677,172.547 185.702,171.594 185.728,170.189 185.752,170.04 185.777,169.087 
	185.803,166.856 185.827,164.977 185.853,164.6 185.878,163.097 185.978,159.263 185.953,159.061 185.978,158.811 186.002,157.258 
	186.002,156.855 186.002,156.681 186.053,154.9 186.078,154.75 186.103,152.62 186.153,149.587 184.775,149.562 184.173,149.562 
	184.098,149.562 183.998,149.537 183.998,149.513 184.022,148.86 184.048,147.632 184.098,144.775 184.123,143.696 184.148,143.396 
	184.148,143.371 184.173,142.442 184.173,142.418 184.223,140.013 184.274,138.133 184.274,137.205 184.323,135.325 
	184.398,131.641 184.45,129.636 184.499,127.731 184.524,126.828 181.767,126.777 181.767,126.754 181.792,126.177 181.792,126.052 
	181.817,124.748 181.868,122.969 181.892,122.017 181.892,121.59 181.917,121.339 181.993,116.828 182.067,113.77 182.067,113.52 
	182.143,110.663 181.44,109.785 181.34,109.634 181.241,109.359 181.066,109.132 180.739,108.807 180.188,108.331 179.912,108.056 
	179.737,107.83 179.661,107.755 179.561,107.529 179.537,107.329 179.611,107.052 179.637,106.626 179.637,105.975 179.637,105.725 
	179.561,105.273 179.561,105.023 179.586,104.622 179.737,103.92 179.712,102.693 179.812,102.014 179.862,101.514 179.888,100.937 
	179.862,100.812 179.812,100.612 179.761,100.586 179.285,100.311 178.96,100.036 178.834,99.834 178.784,99.659 178.584,98.907 
	178.609,98.757 178.659,98.681 178.81,98.631 179.411,98.707 179.561,98.681 179.837,98.456 179.962,98.281 180.087,97.979 
	180.087,97.83 180.113,97.554 180.087,97.328 179.988,97.078 179.511,96.802 178.734,96.626 178.482,96.525 178.058,96.351 
	177.405,95.975 176.755,95.724 176.378,95.724 176.053,95.899 175.927,95.999 175.751,96.225 175.551,96.525 175.175,97.353 
	175.024,97.879 174.85,98.105 174.373,98.456 174.198,98.581 173.722,98.807 173.445,98.881 173.044,98.832 172.92,98.757 
	172.644,98.531 172.268,98.331 171.516,98.23 171.089,98.18 170.915,98.155 170.563,97.955 170.112,97.579 169.836,97.253 
	169.561,97.027 169.336,96.901 169.109,96.826 168.333,96.651 167.731,96.677 167.029,96.826 166.804,96.853 166.527,96.802 
	165.576,96.225 164.999,95.799 164.323,95.423 163.847,95.072 163.771,94.997 163.496,94.446 163.019,93.869 162.843,93.668 
	162.768,93.442 162.693,93.092 162.568,92.314 162.467,91.371 162.542,90.519 162.818,89.992 162.843,89.14 162.918,88.789 
	163.069,88.463 163.62,87.787 163.946,87.21 164.146,87.035 164.372,86.684 164.648,86.382 165.325,85.957 165.65,85.707 
	166.001,85.38 166.203,85.154 166.678,84.479 166.854,84.202 167.005,83.827 167.18,83.475 167.354,83.024 167.38,82.724 
	167.305,82.574 167.18,82.447 166.453,82.172 165.926,81.921 165.525,81.672 165.35,81.471 165.3,81.145 165.325,80.895 
	165.325,80.268 165.325,79.992 165.275,79.866 165.2,79.716 164.924,79.39 164.749,79.34 164.623,79.365 164.171,79.716 
	163.847,79.866 163.521,79.941 163.044,79.866 162.869,79.791 162.718,79.691 162.568,79.54 162.367,79.265 162.292,79.014 
	162.342,78.789 162.493,78.512 162.568,77.861 162.568,77.46 162.542,77.334 162.342,77.109 161.941,76.934 161.415,76.858 
	160.763,76.558 159.861,76.533 159.46,76.483 159.083,76.333 158.508,76.207 158.382,76.132 158.331,76.032 158.408,75.981 
	158.707,75.832 158.984,75.756 159.108,75.656 159.234,75.329 159.285,75.079 159.31,74.628 159.234,74.427 159.108,74.251 
	159.008,74.152 158.432,73.8 158.057,73.7 157.93,73.75 157.555,74.026 157.204,74.251 156.778,74.402 156.252,74.402 
	155.299,74.051 155.299,73.977 155.399,70.943 155.45,69.265 155.5,67.886 155.5,67.661 155.5,67.484 155.55,65.58 155.6,63.6 
	155.675,61.721 155.7,60.767 155.725,59.815 155.75,58.863 155.8,57.81 154.923,57.784 154.121,57.76 153.243,57.76 153.269,57.584 
	153.269,56.506 153.294,55.88 153.318,55.428 153.318,55.378 153.344,54.149 153.344,54.1 153.419,52.094 153.494,49.464 
	153.494,49.263 153.494,48.662 153.519,48.335 153.57,46.431 153.62,45.203 153.62,45.103 153.62,45.078 153.62,44.775 
	153.67,43.548 153.719,41.718 153.746,40.766 153.846,37.958 153.87,37.007 153.895,36.305 153.921,35.102 153.344,35.077 
	152.943,35.077 152.717,35.052 151.539,35.026 151.539,34.651 151.539,34.45 151.564,34.174 151.564,34.074 151.59,33.196 
	151.59,33.096 151.615,33.046 151.615,32.746 151.69,30.314 151.714,29.838 151.714,29.362 151.74,28.91 151.815,26.079 
	151.865,24.9 151.916,23.697 151.916,23.246 151.941,22.945 152.116,17.405 152.141,16.88 146.402,16.704 140.637,16.503 
	134.847,16.303 133.869,16.278 132.992,16.278 130.987,16.203 129.082,16.127 126.074,16.003 123.317,15.902 121.863,15.852 
	117.578,15.677 112.113,15.451 111.938,15.426 111.837,15.426 111.787,15.426 111.637,15.426 111.537,15.426 111.036,15.4 
	109.255,15.326 109.181,15.326 109.055,15.326 109.005,15.326 107,15.225 106.976,15.225 106.649,15.225 106.474,15.201 
	106.398,15.201 106.348,15.201 106.123,15.201 105.948,15.201 103.491,15.075 103.466,15.902 103.415,17.23 103.391,17.405 
	103.391,17.731 103.391,17.833 103.366,18.183 103.341,18.333 103.341,18.734 103.341,18.935 103.316,19.361 103.241,20.764 
	103.241,21.115 103.241,21.391 103.215,21.893 103.165,22.87 103.141,23.021 103.141,23.121 103.141,23.246 103.115,23.672 
	103.115,23.773 103.115,23.897 103.065,24.975 102.965,27.558 102.939,28.259 102.915,28.811 102.864,30.289 102.814,31.217 
	102.814,31.492 102.74,33.196 102.64,36.054 102.614,36.505 102.614,36.881 102.589,36.956 102.589,37.232 102.589,37.332 
	102.564,37.833 102.564,37.909 102.539,38.861 102.514,39.312 102.514,39.413 102.488,39.738 102.488,39.764 102.413,41.142 
	102.413,41.218 102.388,41.619 102.364,42.17 102.312,43.497 102.289,44.525 102.263,45.002 102.238,45.528 102.238,45.578 
	102.238,45.904 102.212,46.405 102.137,47.584 102.137,47.96 102.087,49.714 102.062,50.19 102.037,50.641 102.037,50.667 
	102.037,51.017 102.037,51.093 101.962,52.721 101.937,53.373 101.887,54.701 101.887,54.776 101.887,54.903 101.887,55.027 
	101.862,55.254 101.862,55.354 101.862,55.73 101.862,55.779 101.862,55.854 101.787,57.86 101.712,59.239 101.712,59.715 
	101.662,60.667 101.636,61.594 101.611,62.271 101.561,63.023 101.561,63.424 101.561,63.474 101.561,63.524 101.536,64.126 
	101.536,64.227 101.536,64.427 101.41,67.233 101.41,67.535 101.41,67.61 101.361,68.662 101.335,69.44 101.26,71.019 
	101.26,71.194 101.26,71.495 101.185,72.923 100.985,78.539 100.91,80.418 100.91,80.644 100.859,82.022 100.834,83.149 
	100.809,83.451 100.708,87.285 100.659,89.165 100.634,89.415 100.584,90.494 100.559,90.97 100.458,92.667 100.458,92.766 
	100.458,92.867 100.458,92.992 100.258,96.651 100.258,96.677 100.058,101.238 99.907,104.647 99.831,105.474 99.831,106.076 
	99.607,111.264 99.406,115.449 99.331,116.828 99.206,119.51 99.155,120.964 99.055,123.044 99.004,123.796 99.004,123.922 
	98.879,127.38 98.854,127.58 98.854,127.756 98.854,128.056 98.829,128.106 98.829,128.232 98.679,131.391 98.529,135.451 
	98.529,135.626 98.478,137.181 98.353,139.436 98.328,140.188 98.302,140.363 98.277,141.141 98.277,141.316 98.253,141.741 
	98.253,141.993 98.202,142.845 98.202,143.045 98.027,146.83 97.902,149.36 97.902,149.837 97.852,150.815 97.802,151.742 
	97.601,156.58 97.526,158.41 97.325,163.498 97.3,163.698 97.3,163.748 97.275,164.249 97.275,164.575 97.1,168.987 97.05,169.789 
	96.849,174.577 96.825,175.579 96.724,177.609 96.624,179.639 96.323,185.88 96.323,186.983 96.247,188.638 96.197,189.766 
	96.073,192.674 95.896,196.759 95.872,197.562 95.646,202.873 95.621,202.923 95.596,203.25 95.221,211.044 95.144,214.654 
	100.708,214.904 106.449,215.13 109.03,215.23 112.013,215.354 112.439,215.354 112.815,215.381 114.745,215.456 116.65,215.53 
	117.502,215.557 120.484,215.681 123.192,215.756 123.292,215.756 123.944,215.806 124.27,215.806 125.899,215.882 126.199,215.882 
	129.057,215.984 130.11,216.007 131.538,216.058 131.89,216.083 133.118,216.109 133.494,216.134 135.749,216.208 136.676,216.234 
	137.654,216.257 138.656,216.309 139.558,216.333 140.211,216.333 140.962,216.357 141.964,216.409 143.369,216.46 143.619,216.46 
	145.825,216.534 146.802,216.559 148.658,216.635 149.108,216.635 151.515,216.711 153.846,216.784 154.824,216.81 156.728,216.86 
	157.229,216.86 158.131,216.885 158.207,216.885 158.482,216.885 159.158,216.91 159.585,216.91 160.538,216.959 161.49,216.985 
	162.943,217.035 163.445,217.035 163.796,217.06 166.252,217.111 167.229,217.136 167.631,217.16 167.981,217.16 168.608,217.187 
	168.633,217.187 169.561,217.21 169.811,217.21 170.262,217.236 170.438,217.236 170.788,217.261 170.889,217.261 171.064,217.261 
	171.966,217.285 172.819,217.311 172.869,217.285 174.021,217.337 174.373,217.337 177.732,217.436 179.11,217.462 180.063,217.486 
	180.99,217.512 181.241,217.512 181.792,217.536 181.842,217.536 181.917,217.536 182.418,217.536 182.444,217.536 182.895,217.561 
	183.346,217.561 183.396,217.561 183.447,217.561 183.847,217.561 185.1,217.612 185.2,217.612 186.304,217.637 189.086,217.712 
	189.086,217.686 189.161,217.686 189.187,217.462 189.187,217.084 189.211,215.806 189.236,214.855 189.262,213.902 
	189.286,211.996 189.336,210.545 189.336,210.091 189.336,209.892 189.361,209.14 189.361,209.04 189.361,208.964 189.361,208.939 
	189.361,208.814 189.361,208.789 189.361,208.714 189.412,207.41 189.412,207.235 189.412,207.06 189.437,206.282 189.562,200.794 
	189.562,200.568 189.562,200.393 189.612,198.664 189.638,196.759 189.687,195.43 "/>
<polygon id="3800002" fill="#4D4D4D" stroke="#FFFFFF" stroke-width="0.75"  points="306.111,153.498 306.111,152.194 306.087,150.589 
	305.736,150.589 305.209,150.589 304.533,150.614 304.533,149.687 304.507,148.735 304.507,146.228 304.507,146.002 
	304.481,144.949 304.457,140.188 304.457,139.235 304.481,137.33 304.457,133.545 304.406,132.968 304.406,131.666 304.406,127.906 
	304.281,127.906 303.431,127.932 302.527,127.932 298.691,127.932 296.812,127.956 292.979,127.932 291.047,127.956 288.19,127.956 
	288.139,127.956 287.237,127.982 287.188,127.982 286.661,127.956 285.333,127.982 281.574,127.982 279.542,127.982 
	279.542,126.628 279.542,126.052 279.542,122.292 279.542,121.339 279.542,120.387 279.542,118.833 279.542,118.683 
	279.566,118.482 279.566,118.005 279.542,117.555 279.566,116.628 279.566,116.602 279.566,115.649 279.566,114.698 
	279.566,114.598 279.566,114.247 279.566,113.77 279.566,113.369 279.566,112.793 279.566,110.888 279.566,108.506 279.566,107.304 
	279.566,107.128 279.566,107.103 279.566,107.027 279.566,105.298 277.939,105.323 277.939,104.848 277.939,102.466 
	277.939,101.514 277.939,100.637 277.939,99.634 277.939,97.754 277.939,95.774 277.939,94.896 277.964,93.969 280.796,93.969 
	281.022,93.944 281.773,93.944 283.204,93.944 283.679,93.944 289.442,93.944 289.418,93.018 289.442,88.288 289.418,86.408 
	289.418,86.158 289.418,85.456 289.418,84.002 289.393,82.624 289.393,82.598 289.344,82.598 289.167,82.598 288.919,82.598 
	288.767,82.598 287.814,82.598 287.814,79.641 287.814,79.14 287.79,78.587 287.814,77.185 287.814,77.059 287.814,76.909 
	287.79,76.207 287.79,75.88 287.79,75.681 287.814,73.149 287.79,72.197 287.79,71.244 287.79,68.863 287.79,67.484 287.814,66.533 
	287.814,65.58 287.814,63.675 287.814,62.747 287.814,62.622 287.839,60.867 287.839,60.366 287.839,59.765 289.042,59.765 
	289.068,59.765 289.493,59.765 290.846,59.765 291.523,59.765 291.924,59.765 293.527,59.79 294.055,59.765 294.305,59.765 
	294.832,59.765 294.958,59.765 294.984,59.765 295.434,59.765 297.716,59.765 297.79,59.765 299.293,59.765 303.505,59.74 
	303.453,54.075 303.453,53.173 303.453,53.123 303.453,52.721 303.453,52.17 303.453,51.292 303.431,48.411 298.192,48.436 
	298.041,48.436 297.665,48.436 297.613,48.436 292.501,48.461 292.476,48.461 292.201,48.461 290.922,48.461 288.04,48.461 
	287.063,48.461 282.524,48.461 282.049,48.461 280.369,48.461 274.581,48.436 274.605,46.556 274.605,45.955 274.605,43.323 
	274.605,42.771 274.63,39.939 274.63,39.337 274.63,39.237 274.63,38.986 274.63,37.132 272.976,37.132 272.976,34.45 
	272.976,34.299 272.976,33.196 273,32.72 273,31.442 273,29.312 273,28.41 273.025,26.079 273.025,25.802 273,24.875 
	273.025,22.469 273.025,22.043 273.025,20.99 273.025,20.665 273.025,18.885 267.236,18.86 262.099,18.834 261.998,18.834 
	261.497,18.834 256.659,18.81 255.731,18.81 249.968,18.76 244.177,18.709 241.245,18.684 240.969,18.659 240.769,18.684 
	240.668,18.684 239.014,18.659 232.672,18.609 231.67,18.609 227.686,18.534 227.484,18.534 227.31,18.534 227.258,18.534 
	226.909,18.509 222.948,18.483 221.144,18.459 217.134,18.384 216.557,18.384 215.379,18.358 215.228,18.333 209.813,18.284 
	209.739,18.284 209.638,18.284 203.874,18.183 203.647,18.183 198.135,18.083 192.395,17.958 187.531,17.857 186.655,17.857 
	184.048,17.807 183.923,17.807 183.797,17.807 180.889,17.731 175.301,17.582 175.15,17.582 169.887,17.432 168.633,17.38 
	168.408,17.38 163.645,17.23 157.906,17.056 156.026,17.004 152.141,16.88 152.116,17.405 151.941,22.945 151.916,23.246 
	151.916,23.697 151.865,24.9 151.815,26.079 151.74,28.91 151.714,29.362 151.714,29.838 151.69,30.314 151.615,32.746 
	151.615,33.046 151.59,33.096 151.59,33.196 151.564,34.074 151.564,34.174 151.539,34.45 151.539,34.651 151.539,35.026 
	152.717,35.052 152.943,35.077 153.344,35.077 153.921,35.102 153.895,36.305 153.87,37.007 153.846,37.958 153.746,40.766 
	153.719,41.718 153.67,43.548 153.62,44.775 153.62,45.078 153.62,45.103 153.62,45.203 153.57,46.431 153.519,48.335 
	153.494,48.662 153.494,49.263 153.494,49.464 153.419,52.094 153.344,54.1 153.344,54.149 153.318,55.378 153.318,55.428 
	153.294,55.88 153.269,56.506 153.269,57.584 153.243,57.76 154.121,57.76 154.923,57.784 155.8,57.81 155.75,58.863 
	155.725,59.815 155.7,60.767 155.675,61.721 155.6,63.6 155.55,65.58 155.5,67.484 155.5,67.661 155.5,67.886 155.45,69.265 
	155.399,70.943 155.299,73.977 155.299,74.051 156.252,74.402 156.778,74.402 157.204,74.251 157.555,74.026 157.93,73.75 
	158.057,73.7 158.432,73.8 159.008,74.152 159.108,74.251 159.234,74.427 159.31,74.628 159.285,75.079 159.234,75.329 
	159.108,75.656 158.984,75.756 158.707,75.832 158.408,75.981 158.331,76.032 158.382,76.132 158.508,76.207 159.083,76.333 
	159.46,76.483 159.861,76.533 160.763,76.558 161.415,76.858 161.941,76.934 162.342,77.109 162.542,77.334 162.568,77.46 
	162.568,77.861 162.493,78.512 162.342,78.789 162.292,79.014 162.367,79.265 162.568,79.54 162.718,79.691 162.869,79.791 
	163.044,79.866 163.521,79.941 163.847,79.866 164.171,79.716 164.623,79.365 164.749,79.34 164.924,79.39 165.2,79.716 
	165.275,79.866 165.325,79.992 165.325,80.268 165.325,80.895 165.3,81.145 165.35,81.471 165.525,81.672 165.926,81.921 
	166.453,82.172 167.18,82.447 167.305,82.574 167.38,82.724 167.354,83.024 167.18,83.475 167.005,83.827 166.854,84.202 
	166.678,84.479 166.203,85.154 166.001,85.38 165.65,85.707 165.325,85.957 164.648,86.382 164.372,86.684 164.146,87.035 
	163.946,87.21 163.62,87.787 163.069,88.463 162.918,88.789 162.843,89.14 162.818,89.992 162.542,90.519 162.467,91.371 
	162.568,92.314 162.693,93.092 162.768,93.442 162.843,93.668 163.019,93.869 163.496,94.446 163.771,94.997 163.847,95.072 
	164.323,95.423 164.999,95.799 165.576,96.225 166.527,96.802 166.804,96.853 167.029,96.826 167.731,96.677 168.333,96.651 
	169.109,96.826 169.336,96.901 169.561,97.027 169.836,97.253 170.112,97.579 170.563,97.955 170.915,98.155 171.089,98.18 
	171.516,98.23 172.268,98.331 172.644,98.531 172.92,98.757 173.044,98.832 173.445,98.881 173.722,98.807 174.198,98.581 
	174.373,98.456 174.85,98.105 175.024,97.879 175.175,97.353 175.551,96.525 175.751,96.225 175.927,95.999 176.053,95.899 
	176.378,95.724 176.755,95.724 177.405,95.975 178.058,96.351 178.482,96.525 178.734,96.626 179.511,96.802 179.988,97.078 
	180.087,97.328 180.113,97.554 180.087,97.83 180.087,97.979 179.962,98.281 179.837,98.456 179.561,98.681 179.411,98.707 
	178.81,98.631 178.659,98.681 178.609,98.757 178.584,98.907 178.784,99.659 178.834,99.834 178.96,100.036 179.285,100.311 
	179.761,100.586 179.812,100.612 179.862,100.812 179.888,100.937 179.862,101.514 179.812,102.014 179.712,102.693 179.737,103.92 
	179.586,104.622 179.561,105.023 179.561,105.273 179.637,105.725 179.637,105.975 179.637,106.626 179.611,107.052 
	179.537,107.329 179.561,107.529 179.661,107.755 179.737,107.83 179.912,108.056 180.188,108.331 180.739,108.807 181.066,109.132 
	181.241,109.359 181.34,109.634 181.44,109.785 182.143,110.663 182.067,113.52 182.067,113.77 181.993,116.828 181.917,121.339 
	181.892,121.59 181.892,122.017 181.868,122.969 181.817,124.748 181.792,126.052 181.792,126.177 181.767,126.754 181.767,126.777 
	184.524,126.828 184.499,127.731 184.45,129.636 184.398,131.641 184.323,135.325 184.274,137.205 184.274,138.133 184.223,140.013 
	184.173,142.418 184.173,142.442 184.148,143.371 184.148,143.396 184.123,143.696 184.098,144.775 184.048,147.632 184.022,148.86 
	183.998,149.513 183.998,149.537 184.098,149.562 184.173,149.562 184.775,149.562 186.153,149.587 186.379,149.587 186.98,149.587 
	190.94,149.662 191.567,149.687 191.718,149.687 194.725,149.737 194.725,149.763 195.653,149.789 196.404,149.789 197.408,149.813 
	197.683,149.813 199.738,149.863 199.914,149.863 201.192,149.888 202.37,149.913 204.625,149.938 205.93,149.988 206.932,149.988 
	207.307,150.013 207.91,149.988 209.94,150.064 211.242,150.064 212.671,150.088 213.9,150.113 214.049,150.113 215.553,150.138 
	216.406,150.163 217.459,150.163 217.91,150.188 218.762,150.188 221.344,150.238 222.747,150.264 222.998,150.264 223.198,150.238 
	225.104,150.264 225.128,150.264 227.06,150.264 227.183,150.264 227.284,150.264 227.334,150.264 228.913,150.264 231.545,150.289 
	231.972,150.289 234.052,150.289 234.402,150.289 235.205,150.289 235.48,150.289 235.731,150.313 238.689,150.313 238.713,150.289 
	238.839,150.039 239.039,149.837 239.265,149.662 239.54,149.513 239.917,149.36 240.242,149.211 240.518,149.036 241.145,148.234 
	241.27,147.757 241.32,146.855 241.32,146.704 241.294,146.654 241.245,146.581 241.22,146.454 241.07,146.127 240.894,145.877 
	240.693,145.627 240.292,145.276 240.267,145.251 240.016,144.975 239.791,144.775 239.214,144.173 238.764,143.321 238.689,143.07 
	238.663,142.269 238.614,141.642 238.614,141.265 238.614,141.091 238.513,140.514 238.387,140.062 238.312,139.837 
	238.062,139.486 237.686,139.21 237.485,138.91 239.265,138.91 241.421,138.935 243.4,138.935 243.425,138.958 244.354,138.958 
	245.205,138.958 245.255,138.958 245.306,138.958 245.73,138.958 245.782,138.958 245.831,138.958 245.881,138.958 245.907,138.958 
	246.156,138.958 246.257,138.958 247.209,138.958 247.209,138.708 247.235,138.007 247.209,137.832 247.235,137.731 247.285,133.27 
	247.31,128.533 247.31,128.132 247.31,127.832 247.461,127.832 248.414,127.832 248.588,127.832 250.743,127.856 251.146,127.856 
	251.57,127.856 253.075,127.881 253.652,127.881 253.952,127.881 254.955,127.881 255.532,127.881 256.058,127.906 256.51,127.906 
	257.887,127.906 258.766,127.906 259.392,127.906 259.666,127.906 260.594,127.906 260.621,127.932 261.672,127.906 
	263.527,127.932 264.453,127.932 265.332,127.932 269.291,127.956 269.768,127.956 269.816,127.956 270.194,127.956 
	271.873,127.956 273.803,127.982 273.903,127.956 274.08,127.982 275.484,127.982 275.708,127.982 275.934,127.982 275.934,129.26 
	275.934,129.511 275.934,129.737 275.934,130.689 275.934,131.617 275.934,132.117 275.909,133.521 275.885,136.879 
	275.885,137.306 275.885,139.185 275.885,140.163 275.885,142.043 275.859,142.519 275.859,144.899 275.835,147.256 
	275.835,148.709 275.859,149.412 275.859,150.614 277.662,150.614 277.64,150.74 277.64,151.166 277.588,154.45 277.588,156.33 
	277.563,157.258 277.563,157.734 277.563,158.108 277.539,158.184 277.539,158.234 277.539,158.285 277.539,159.187 
	277.512,162.044 277.487,162.971 277.463,164.876 277.463,164.977 277.463,166.055 277.437,166.856 277.411,167.733 
	277.411,168.335 277.411,169.639 277.411,169.889 277.387,170.541 277.387,171.543 277.338,173.423 277.212,173.423 
	276.235,173.423 274.48,173.423 273.428,173.423 272.551,173.398 272.475,173.423 271.599,173.423 270.494,173.398 270.396,173.398 
	267.737,173.373 265.882,173.348 265.808,173.348 265.481,173.348 264.129,173.373 263.977,173.348 263.954,173.348 
	262.976,173.348 262.022,173.324 261.998,173.324 261.598,173.324 261.122,173.324 260.169,173.324 260.143,173.324 
	259.517,173.324 259.141,173.324 259.04,173.324 258.74,173.324 257.911,173.297 257.663,173.297 257.536,173.297 256.733,173.273 
	256.534,173.273 254.403,173.248 251.723,173.248 250.944,173.273 251.872,174.024 252.398,174.601 252.574,174.728 
	253.652,175.302 254.428,175.579 255.182,175.93 255.506,176.356 255.506,176.581 255.307,176.958 255.029,177.008 254.604,176.808 
	254.379,176.906 254.278,177.083 254.303,177.284 254.806,177.985 256.234,179.889 256.259,180.115 256.183,180.467 
	255.957,180.817 255.582,181.168 255.381,181.32 254.854,181.594 254.654,181.744 254.453,182.195 254.303,182.573 254.104,183.399 
	254.077,183.875 254.027,184.327 253.753,185.304 253.726,185.529 253.753,185.805 253.802,186.106 253.876,186.331 
	253.927,186.381 254.128,186.807 254.104,186.833 253.652,186.733 253.601,186.782 253.075,186.883 253.026,186.933 
	253.049,187.034 253.301,187.208 253.351,187.284 253.351,187.409 253.2,187.56 252.898,187.484 252.773,187.359 252.749,187.184 
	252.725,187.108 252.624,187.008 252.498,186.959 252.398,187.083 252.423,187.409 252.373,187.459 251.723,187.835 251.32,187.86 
	251.17,187.936 250.994,188.135 250.743,188.211 250.643,188.236 250.242,187.81 250.117,187.76 249.916,187.835 249.717,187.985 
	249.465,188.762 249.165,189.012 249.04,189.039 248.99,189.012 248.914,188.863 248.839,188.712 248.789,188.688 248.714,188.762 
	248.664,188.839 248.64,189.189 248.688,189.263 248.765,189.54 248.688,189.615 248.463,189.69 248.237,189.916 248.137,189.966 
	248.062,189.916 248.038,189.89 248.038,189.739 248.112,189.39 248.112,189.263 248.062,189.139 248.012,189.113 247.962,189.113 
	247.662,189.263 247.461,189.263 247.386,189.189 247.435,189.012 247.511,188.964 247.535,188.863 247.386,188.512 
	247.135,188.611 246.985,188.938 246.934,189.012 246.833,189.087 246.732,189.063 246.658,188.888 246.609,188.863 
	246.106,188.736 245.907,188.736 245.856,188.762 245.73,188.964 245.73,189.087 245.682,189.164 245.255,189.239 245.08,189.214 
	244.729,189.189 244.453,189.214 244.327,189.239 244.253,189.263 244.253,189.289 244.253,189.414 244.202,189.54 244.152,189.59 
	244.077,189.615 243.776,189.59 243.575,189.339 243.451,189.314 243.225,189.364 243.1,189.364 243.049,189.339 243.049,189.239 
	242.974,189.113 242.798,189.189 242.373,188.989 242.122,188.938 242.071,188.863 242.071,188.537 241.997,188.412 
	241.922,188.362 241.847,188.412 241.821,188.587 241.67,188.662 241.67,188.787 241.696,188.913 241.646,189.012 241.546,189.039 
	241.546,189.087 241.345,189.289 241.145,189.239 240.894,189.263 240.769,189.239 240.718,189.139 240.794,188.888 
	240.844,188.712 240.969,188.461 240.969,188.362 240.868,187.985 240.818,187.936 240.794,187.936 240.668,187.961 
	240.066,188.336 240.042,188.387 240.042,188.562 240.092,188.712 240.167,188.762 240.167,188.812 240.092,188.839 
	239.816,188.736 239.666,188.712 239.164,188.839 239.064,188.888 239.064,188.989 239.089,189.087 239.039,189.214 
	239.014,189.239 238.863,189.39 238.663,189.739 238.614,190.041 238.488,190.142 238.312,190.091 238.187,190.267 238.237,190.443 
	238.112,190.567 237.987,190.617 237.886,191.069 237.937,191.194 238.037,191.243 238.062,191.293 238.087,191.42 238.037,191.82 
	237.811,191.871 237.61,191.846 237.435,191.846 237.134,191.971 237.084,192.045 237.16,192.146 237.259,192.348 237.284,192.522 
	237.259,192.547 237.01,192.572 236.658,192.723 236.633,192.874 236.783,193.023 236.783,193.099 236.733,193.199 236.533,193.399 
	236.407,193.374 236.333,193.273 236.307,193.149 236.131,193.173 236.106,193.248 236.056,193.424 236.131,193.65 236.081,193.826 
	235.731,194.026 235.555,194.051 235.48,194 235.305,193.801 235.205,193.775 235.154,193.675 235.179,193.6 235.129,193.524 
	235.004,193.524 234.877,193.524 234.728,193.625 234.578,193.725 234.528,193.801 234.653,194.051 234.728,194.376 
	234.678,194.577 234.728,194.653 234.803,194.653 235.054,194.552 235.179,194.604 235.305,194.702 235.354,194.852 
	235.305,194.879 235.229,195.18 235.154,195.279 235.104,195.305 234.877,195.229 234.653,195.104 234.553,195.104 234.503,195.154 
	234.453,195.305 234.127,195.806 234.127,195.957 234.127,196.106 233.099,196.057 233.124,192.697 233.149,191.82 233.149,191.52 
	233.149,190.366 230.292,190.317 229.64,190.317 229.339,190.317 228.387,190.291 227.435,190.291 226.958,190.291 226.407,190.291 
	221.72,190.216 221.744,189.263 221.72,189.039 221.77,186.782 221.77,185.455 221.795,184.701 221.795,184.627 221.795,184.502 
	221.82,183.2 221.82,182.772 221.82,182.522 221.82,181.645 221.82,180.768 221.87,178.812 221.895,177.458 221.895,177.382 
	221.92,176.105 221.92,175.954 221.92,175.68 221.945,174.1 221.945,174.024 221.945,173.248 221.494,173.222 221.043,173.197 
	220.992,173.197 219.088,173.197 217.884,173.147 217.635,173.147 215.328,173.123 214.3,173.098 211.869,173.048 210.541,173.048 
	206.707,172.973 205.427,172.947 202.896,172.897 202.872,172.897 202.921,170.04 202.971,168.135 202.997,167.182 199.162,167.106 
	197.382,167.106 196.305,167.082 195.352,167.032 192.47,166.981 189.638,166.933 189.086,166.933 188.66,166.907 185.803,166.856 
	185.777,169.087 185.752,170.04 185.728,170.189 185.702,171.594 185.677,172.547 185.827,172.547 187.732,172.596 187.732,172.696 
	187.732,173.098 187.732,173.548 187.732,173.75 187.732,174.451 187.732,174.552 187.707,175.428 187.683,178.261 187.658,181.168 
	187.632,183.022 187.606,183.95 187.606,184 187.606,184.928 187.557,187.785 187.531,189.69 187.531,190.015 187.531,190.167 
	187.507,190.491 187.482,192.246 187.456,195.379 189.687,195.43 189.638,196.759 189.612,198.664 189.562,200.393 189.562,200.568 
	189.562,200.794 189.437,206.282 189.412,207.06 189.412,207.235 189.412,207.41 189.361,208.714 189.361,208.789 189.361,208.814 
	189.361,208.939 189.361,208.964 189.361,209.04 189.361,209.14 189.336,209.892 189.336,210.091 189.336,210.545 189.286,211.996 
	189.262,213.902 189.236,214.855 189.211,215.806 189.187,217.084 189.187,217.462 189.161,217.686 189.461,217.712 
	189.587,217.712 190.313,217.739 191.066,217.739 194.324,217.812 194.875,217.812 195.878,217.838 196.781,217.862 
	197.181,217.862 198.561,217.887 198.761,217.887 199.863,217.938 199.889,217.911 199.938,217.911 200.214,217.911 
	201.519,217.963 201.819,217.963 202.495,217.963 202.872,217.989 203.749,217.989 203.798,217.989 204.851,218.012 206.18,218.037 
	208.585,218.088 209.237,218.088 209.463,218.112 214.3,218.213 214.576,218.213 215.78,218.238 217.884,218.238 218.035,218.238 
	218.286,218.238 219.739,218.263 219.965,218.263 220.667,218.263 221.87,218.289 222.597,218.289 224.777,218.339 225.63,218.363 
	225.705,218.363 226.833,218.363 227.007,218.363 227.209,218.363 227.56,218.388 228.362,218.388 228.512,218.388 230.166,218.414 
	230.417,218.414 235.956,218.464 236.156,218.488 236.708,218.488 237.108,218.488 237.886,218.488 238.037,218.513 
	240.116,218.513 240.718,218.513 243.752,218.562 245.657,218.562 246.006,218.562 246.559,218.589 247.911,218.562 
	248.487,218.589 251.119,218.615 252.172,218.641 252.199,218.641 257.513,218.665 258.088,218.665 259.767,218.689 
	261.245,218.689 261.521,218.689 261.723,218.689 262.173,218.689 267.514,218.739 267.938,218.739 267.988,218.739 
	268.363,218.766 268.415,218.766 273.201,218.79 274.054,218.79 274.529,218.79 275.983,218.814 276.059,218.814 277.188,218.814 
	277.863,218.814 280.796,218.84 282.625,218.84 286.535,218.84 286.562,215.783 286.562,214.102 286.587,208.389 286.587,207.436 
	286.587,206.459 286.587,205.53 286.587,202.674 286.587,200.969 286.587,200.894 286.587,200.768 286.587,200.166 286.587,199.965 
	286.587,196.958 286.587,196.531 286.587,196.433 285.635,196.408 285.158,196.408 284.832,196.408 284.832,195.957 284.808,195.73 
	284.808,195.479 284.808,192.096 284.832,191.344 284.832,191.119 284.832,188.762 284.832,187.81 284.832,186.856 284.832,184.954 
	284.856,182.095 284.856,181.143 284.856,180.867 284.856,179.613 284.856,179.313 284.856,179.263 284.856,179.163 
	284.856,178.261 284.856,178.236 284.856,178.134 284.881,176.356 284.881,175.054 284.881,173.574 284.881,173.473 
	288.843,173.473 290.571,173.473 291.7,173.498 294.58,173.473 296.386,173.449 297.439,173.473 297.464,173.473 300.372,173.498 
	303.179,173.498 303.228,173.498 306.087,173.473 306.111,167.758 306.087,166.831 306.087,165.879 306.111,165.729 
	306.111,162.847 306.111,162.044 306.087,157.659 306.087,156.354 "/>
<polygon id="3800003" fill="#4D4D4D" stroke="#FFFFFF" stroke-width="0.75"  points="386.469,171.417 386.442,170.716 386.417,169.137 
	386.417,168.561 386.368,166.656 386.342,165.253 386.318,164.776 386.241,161.919 386.218,160.967 386.116,156.254 
	386.091,156.129 386.091,155.252 386.042,154.299 386.042,153.847 386.042,153.823 386.042,153.622 386.042,153.346 
	386.018,152.393 386.018,152.169 385.941,149.888 385.941,149.587 385.941,149.513 384.839,149.537 384.812,148.559 
	384.763,145.752 384.738,144.399 384.738,143.874 384.738,143.847 384.688,141.942 384.589,138.133 384.562,137.256 
	384.562,137.205 384.486,134.348 384.438,132.944 384.438,132.443 383.462,132.443 378.697,132.543 378.648,132.568 
	377.318,132.568 376.518,132.594 374.387,132.618 373.609,132.644 372.932,132.669 372.907,132.042 372.907,131.716 
	372.907,130.813 372.907,130.763 372.884,129.811 372.884,129.686 372.884,129.36 372.884,129.185 372.884,128.858 372.857,128.383 
	372.857,127.906 372.857,127.556 372.831,127.054 372.356,127.079 372.03,127.079 371.829,127.079 371.68,127.079 371.68,126.928 
	371.68,126.904 371.653,126.126 371.653,125.977 371.653,125.174 371.63,125.074 371.63,124.974 371.63,124.248 371.63,124.121 
	371.605,123.294 371.605,122.617 371.579,121.415 371.555,120.086 371.555,119.96 371.555,119.259 371.48,115.926 371.48,115.75 
	371.48,115.249 371.48,115.199 371.454,114.723 371.454,114.347 371.454,113.97 371.429,113.795 371.429,113.52 371.454,113.345 
	371.454,113.243 371.429,111.94 371.429,111.464 371.404,110.988 371.378,110.061 371.354,109.108 371.328,107.229 371.279,104.622 
	371.279,104.446 371.104,104.446 370.575,104.472 370.076,104.472 367.444,104.521 367.293,104.521 367.217,104.521 
	366.466,104.547 365.788,104.547 365.562,104.547 365.088,104.571 364.335,104.597 363.383,104.622 359.674,104.696 
	359.372,104.696 359.298,104.696 358.571,104.696 356.79,104.747 356.642,104.722 355.839,104.747 354.86,104.772 354.836,104.772 
	354.384,104.772 353.959,104.772 353.257,104.797 353.107,104.797 353.082,104.797 352.806,104.797 352.731,104.797 
	350.876,104.822 349.747,104.848 348.998,104.873 348.195,104.873 348.019,104.873 347.093,104.873 347.041,103.443 
	347.041,102.992 347.017,102.04 346.99,101.087 346.99,100.16 346.968,99.208 346.968,98.731 346.968,98.281 347.066,98.105 
	347.093,97.253 347.066,96.075 346.916,95.724 346.892,93.518 346.865,91.622 346.841,91.496 346.841,91.446 346.841,90.995 
	346.791,89.041 346.767,87.862 346.715,82.123 347.694,82.096 348.419,82.073 349.373,82.073 350.524,82.073 350.8,82.046 
	351.301,82.046 351.301,81.921 351.278,81.345 351.278,79.767 351.254,79.29 351.254,78.462 351.254,78.287 351.227,76.383 
	351.176,73.55 351.151,72.598 351.128,71.244 351.128,70.718 352.079,70.693 352.906,70.693 353.031,70.693 354.01,70.643 
	354.963,70.618 355.863,70.618 356.843,70.592 356.893,70.592 356.867,70.117 356.867,69.64 356.843,67.761 356.816,66.808 
	356.816,66.356 356.816,65.855 356.79,64.928 356.74,61.143 356.693,59.213 355.513,59.239 355.513,59.213 355.513,59.088 
	355.488,57.333 355.488,56.382 355.438,53.548 355.388,50.692 355.388,49.764 355.363,48.811 355.336,47.884 357.241,47.859 
	358.922,47.834 359.173,47.834 360.149,47.834 361.127,47.81 366.842,47.684 366.868,47.684 367.118,47.684 368.496,47.659 
	368.697,47.659 369.374,47.633 370.627,47.608 371.255,47.608 372.605,47.584 372.605,47.333 372.605,47.107 372.558,45.027 
	372.558,44.275 372.482,41.918 372.455,40.991 372.406,38.159 372.356,36.705 372.356,36.656 372.356,36.205 372.33,36.205 
	371.829,36.229 371.78,36.229 371.755,36.229 371.378,36.229 371.328,34.224 371.304,33.572 371.304,33.522 371.304,33.396 
	371.228,30.59 371.203,30.114 371.203,29.637 371.203,29.137 371.203,28.685 371.203,27.758 371.154,26.104 371.179,25.878 
	371.154,24.925 371.154,24.449 371.127,24.224 371.127,24.149 371.127,23.999 371.104,23.07 371.078,22.394 371.054,22.118 
	371.004,21.292 371.004,21.216 371.004,21.191 371.004,21.141 370.978,20.263 370.978,20.238 370.978,20.213 370.978,19.562 
	370.978,19.361 370.978,19.336 370.978,18.408 370.978,18.384 370.953,17.833 359.698,18.058 359.523,18.083 353.733,18.183 
	349.222,18.258 347.942,18.284 347.117,18.284 342.203,18.384 336.439,18.459 330.649,18.534 324.91,18.609 319.07,18.684 
	315.16,18.734 313.605,18.734 313.378,18.734 309.271,18.785 308.417,18.785 308.041,18.785 307.614,18.81 301.851,18.834 
	296.085,18.86 295.986,18.86 288.865,18.885 288.364,18.885 287.112,18.885 285.733,18.885 284.832,18.91 273.025,18.885 
	273.025,20.665 273.025,20.99 273.025,22.043 273.025,22.469 273,24.875 273.025,25.802 273.025,26.079 273,28.41 273,29.312 
	273,31.442 273,32.72 272.976,33.196 272.976,34.299 272.976,34.45 272.976,37.132 274.63,37.132 274.63,38.986 274.63,39.237 
	274.63,39.337 274.63,39.939 274.605,42.771 274.605,43.323 274.605,45.955 274.605,46.556 274.581,48.436 280.369,48.461 
	282.049,48.461 282.524,48.461 287.063,48.461 288.04,48.461 290.922,48.461 292.201,48.461 292.476,48.461 292.501,48.461 
	297.613,48.436 297.665,48.436 298.041,48.436 298.192,48.436 303.431,48.411 303.453,51.292 303.453,52.17 303.453,52.721 
	303.453,53.123 303.453,53.173 303.453,54.075 303.505,59.74 299.293,59.765 297.79,59.765 297.716,59.765 295.434,59.765 
	294.984,59.765 294.958,59.765 294.832,59.765 294.305,59.765 294.055,59.765 293.527,59.79 291.924,59.765 291.523,59.765 
	290.846,59.765 289.493,59.765 289.068,59.765 289.042,59.765 287.839,59.765 287.839,60.366 287.839,60.867 287.814,62.622 
	287.814,62.747 287.814,63.675 287.814,65.58 287.814,66.533 287.79,67.484 287.79,68.863 287.79,71.244 287.79,72.197 
	287.814,73.149 287.79,75.681 287.79,75.88 287.79,76.207 287.814,76.909 287.814,77.059 287.814,77.185 287.79,78.587 
	287.814,79.14 287.814,79.641 287.814,82.598 288.767,82.598 288.919,82.598 289.167,82.598 289.344,82.598 289.393,82.598 
	289.393,82.624 289.418,84.002 289.418,85.456 289.418,86.158 289.418,86.408 289.442,88.288 289.418,93.018 289.442,93.944 
	283.679,93.944 283.204,93.944 281.773,93.944 281.022,93.944 280.796,93.969 277.964,93.969 277.939,94.896 277.939,95.774 
	277.939,97.754 277.939,99.634 277.939,100.637 277.939,101.514 277.939,102.466 277.939,104.848 277.939,105.323 279.566,105.298 
	279.566,107.027 279.566,107.103 279.566,107.128 279.566,107.304 279.566,108.506 279.566,110.888 279.566,112.793 
	279.566,113.369 279.566,113.77 279.566,114.247 279.566,114.598 279.566,114.698 279.566,115.649 279.566,116.602 279.566,116.628 
	279.542,117.555 279.566,118.005 279.566,118.482 279.542,118.683 279.542,118.833 279.542,120.387 279.542,121.339 
	279.542,122.292 279.542,126.052 279.542,126.628 279.542,127.982 281.574,127.982 285.333,127.982 286.661,127.956 
	287.188,127.982 287.237,127.982 288.139,127.956 288.19,127.956 291.047,127.956 292.979,127.932 296.812,127.956 298.691,127.932 
	302.527,127.932 303.431,127.932 304.281,127.906 304.406,127.906 304.406,131.666 304.406,132.968 304.457,133.545 304.481,137.33 
	304.457,139.235 304.457,140.188 304.481,144.949 304.507,146.002 304.507,146.228 304.507,148.735 304.533,149.687 
	304.533,150.614 305.209,150.589 305.736,150.589 306.087,150.589 306.111,152.194 306.111,153.498 306.087,156.354 
	306.087,157.659 306.111,162.044 306.111,162.847 306.111,165.729 306.087,165.879 306.087,166.831 306.111,167.758 
	306.087,173.473 303.228,173.498 303.179,173.498 300.372,173.498 297.464,173.473 297.439,173.473 296.386,173.449 294.58,173.473 
	291.7,173.498 290.571,173.473 288.843,173.473 284.881,173.473 284.881,173.574 284.881,175.054 284.881,176.356 284.856,178.134 
	284.856,178.236 284.856,178.261 284.856,179.163 284.856,179.263 284.856,179.313 284.856,179.613 284.856,180.867 
	284.856,181.143 284.856,182.095 284.832,184.954 284.832,186.856 284.832,187.81 284.832,188.762 284.832,191.119 284.832,191.344 
	284.808,192.096 284.808,195.479 284.808,195.73 284.832,195.957 284.832,196.408 285.158,196.408 285.635,196.408 286.587,196.433 
	286.587,196.531 286.587,196.958 286.587,199.965 286.587,200.166 286.587,200.768 286.587,200.894 286.587,200.969 
	286.587,202.674 286.587,205.53 286.587,206.459 286.587,207.436 286.587,208.389 286.562,214.102 286.562,215.783 286.535,218.84 
	288.467,218.864 292.527,218.889 292.552,218.889 292.576,218.889 292.628,218.889 294.005,218.889 295.158,218.889 
	296.136,218.864 298.917,218.864 299.945,218.84 304.356,218.864 304.481,218.889 306.389,218.864 306.662,218.864 308.566,218.864 
	309.293,218.84 309.62,218.84 311.148,218.84 311.174,218.84 312.401,218.84 313.355,218.84 313.957,218.84 314.308,218.814 
	315.16,218.814 316.789,218.814 316.814,218.814 317.189,218.814 317.239,218.814 317.767,218.814 322.303,218.766 322.526,218.766 
	322.755,218.766 326.764,218.739 328.241,218.714 331.351,218.714 331.402,218.714 332.505,218.689 334.107,218.689 
	335.262,218.689 336.413,218.689 336.789,218.665 337.24,218.665 338.219,218.665 338.345,218.665 339.673,218.665 342.529,218.641 
	342.905,218.641 343.958,218.615 344.235,218.615 345.387,218.615 349.673,218.615 351.102,218.589 351.929,218.589 
	351.953,218.589 353.933,218.589 355.412,218.562 356.816,218.54 361.153,218.464 364.46,218.414 364.512,218.414 364.961,218.414 
	368.271,218.339 369.75,218.313 372.605,218.263 372.558,216.357 372.533,213.525 372.482,212.574 372.482,211.62 372.455,210.668 
	372.433,207.812 372.406,206.858 372.382,205.681 372.382,204.953 372.356,204.027 372.33,202.098 372.306,201.17 372.231,195.505 
	370.928,195.53 370.901,194.577 370.851,192.674 370.851,191.72 370.827,190.767 370.803,189.816 370.803,188.863 370.778,188.611 
	370.778,188.336 370.778,188.286 370.778,187.911 370.702,184.1 370.678,181.243 370.627,179.364 370.627,178.412 370.575,176.481 
	370.477,172.696 373.108,172.646 373.383,172.622 374.061,172.622 374.085,172.622 374.688,172.596 374.812,172.596 
	375.013,172.596 376.165,172.571 380.754,172.495 381.881,172.471 386.493,172.372 "/>
<polygon fill="#4D4D4D" stroke="#FFFFFF" stroke-width="0.75"  points="371.104,104.446 371.279,104.446 371.279,104.622 371.328,107.229 
	371.354,109.108 371.378,110.061 371.404,110.988 371.429,111.464 371.429,111.94 371.454,113.243 371.454,113.345 371.429,113.52 
	371.429,113.795 371.454,113.97 371.454,114.347 371.454,114.723 371.48,115.199 371.48,115.249 371.48,115.75 371.48,115.926 
	371.555,119.259 371.555,119.96 371.555,120.086 371.579,121.415 371.605,122.617 371.605,123.294 371.63,124.121 371.63,124.248 
	371.63,124.974 371.63,125.074 371.653,125.174 371.653,125.977 371.653,126.126 371.68,126.904 371.68,126.928 371.68,127.079 
	371.829,127.079 372.03,127.079 372.356,127.079 372.831,127.054 372.857,127.556 372.857,127.906 372.857,128.383 372.884,128.858 
	372.884,129.185 372.884,129.36 372.884,129.686 372.884,129.811 372.907,130.763 372.907,130.813 372.907,131.716 372.907,132.042 
	372.932,132.669 373.609,132.644 374.387,132.618 376.518,132.594 377.318,132.568 378.648,132.568 378.697,132.543 
	383.462,132.443 384.438,132.443 388.246,132.393 390.176,132.343 391.104,132.343 392.083,132.292 393.985,132.243 
	394.965,132.218 395.917,132.218 401.632,132.066 403.536,132.017 406.443,131.942 407.371,131.892 413.086,131.716 
	415.668,131.641 415.918,131.641 416.119,131.641 416.169,131.641 416.242,131.641 416.318,131.641 418.8,131.565 423.136,131.491 
	423.788,131.466 423.638,131.34 423.562,131.266 423.537,131.189 423.537,131.115 423.562,131.04 423.587,130.99 423.663,130.889 
	423.663,130.763 423.638,130.639 423.462,130.489 423.412,130.462 423.386,130.413 423.412,130.363 423.438,130.312 
	423.412,130.263 423.363,130.187 423.338,130.137 423.363,130.087 423.363,130.062 423.386,129.937 423.338,129.836 
	423.287,129.836 423.287,129.761 423.287,129.686 423.312,129.661 423.412,129.611 423.438,129.511 423.412,129.485 
	423.412,129.436 423.287,129.385 423.236,129.334 423.287,129.134 423.312,129.084 423.363,129.009 423.363,128.984 
	423.363,128.959 423.363,128.934 423.363,128.909 423.287,128.433 423.162,128.082 423.162,128.056 423.162,128.007 
	423.162,127.856 423.187,127.832 423.338,127.556 423.638,127.079 423.638,126.928 423.488,126.678 423.438,126.653 
	423.263,126.628 423.187,126.578 423.187,126.278 423.236,126.252 423.338,126.202 423.412,126.151 423.438,126.126 
	423.462,126.077 423.462,126.001 423.438,125.926 423.438,125.901 423.438,125.8 423.438,125.751 423.462,125.726 423.488,125.676 
	423.488,125.525 423.438,125.449 423.412,125.425 423.338,125.35 423.312,125.3 423.312,125.275 423.438,125.024 423.386,124.848 
	423.211,124.723 423.037,124.372 422.985,124.172 423.037,123.846 423.062,123.846 423.012,123.721 422.961,123.721 
	422.887,123.695 422.836,123.595 422.784,123.495 422.76,123.344 422.76,123.244 422.609,123.069 422.635,123.019 422.737,122.944 
	422.76,122.894 422.784,122.843 422.76,122.793 422.609,122.693 422.536,122.617 422.585,122.517 422.76,122.467 422.836,122.367 
	422.862,122.242 422.887,122.066 422.911,122.041 423.086,121.891 423.11,121.515 423.086,121.415 423.037,121.339 423.012,121.339 
	422.862,121.238 422.862,121.114 422.887,120.864 422.887,120.839 422.737,120.663 422.635,120.563 422.509,120.487 
	422.509,120.361 422.484,120.287 422.386,120.237 422.261,120.211 422.261,120.186 422.234,120.136 422.084,119.936 422.084,119.91 
	422.084,119.885 422.109,119.785 422.109,119.761 422.109,119.71 422.009,119.66 421.981,119.611 421.957,119.51 422.009,119.435 
	422.035,119.435 422.183,119.309 422.209,119.159 422.158,119.108 422.109,119.083 422.109,118.984 422.109,118.908 
	422.209,118.683 422.134,118.558 422.134,118.457 422.158,118.382 422.234,118.232 422.234,118.156 422.209,118.082 422.134,117.88 
	422.134,117.505 422.158,117.379 422.183,117.304 422.109,117.254 422.109,117.204 422.084,117.128 422.109,117.054 
	422.109,117.028 422.183,116.928 422.209,116.752 422.183,116.677 422.084,116.502 422.06,116.251 422.084,116.126 422.134,116.05 
	422.234,115.926 422.283,115.75 422.261,115.675 422.158,115.575 422.109,115.549 422.084,115.474 422.084,115.425 422.084,115.399 
	422.109,115.35 422.183,115.274 422.209,115.173 422.209,115.124 422.209,115.099 422.084,114.998 422.084,114.923 422.109,114.823 
	422.134,114.772 422.183,114.723 422.31,114.572 422.359,114.522 422.359,114.471 422.359,114.397 422.359,114.372 422.283,114.247 
	422.283,114.071 422.283,113.895 422.335,113.821 422.359,113.745 422.335,113.669 422.261,113.595 422.261,113.544 
	422.261,113.419 422.209,113.394 422.158,113.394 422.084,113.369 422.035,113.369 421.883,113.293 421.808,113.218 
	421.784,113.018 421.657,112.717 421.657,112.643 421.707,112.542 421.834,112.441 421.908,112.417 422.158,111.991 
	422.134,111.891 422.084,111.865 422.06,111.815 422.06,111.715 422.109,111.59 422.134,111.539 422.158,111.438 422.158,111.415 
	422.134,111.365 422.06,111.264 422.035,111.188 422.06,111.138 422.134,111.039 422.158,110.913 422.084,110.763 422.06,110.737 
	421.957,110.638 421.908,110.511 421.908,110.436 421.935,110.386 421.981,110.311 421.981,110.211 421.981,110.161 
	421.957,110.136 421.908,110.111 421.883,110.01 421.908,109.96 421.908,109.936 421.981,109.91 422.109,109.735 422.109,109.634 
	422.009,109.534 421.981,109.384 422.084,109.209 422.109,109.158 422.109,109.132 422.134,108.958 422.158,108.883 
	422.158,108.782 422.158,108.708 422.183,108.481 422.158,108.356 422.084,108.256 422.035,108.131 422.035,108.056 422.035,108.03 
	422.084,108.005 422.109,107.93 422.06,107.805 421.957,107.73 421.908,107.654 421.981,107.404 421.981,107.378 421.981,107.329 
	421.981,107.278 421.957,107.278 421.957,107.229 421.957,107.203 421.883,107.103 421.758,107.027 421.733,107.003 
	421.532,106.977 421.132,106.927 421.107,106.852 421.257,106.727 421.257,106.676 421.257,106.652 421.007,106.576 
	420.856,106.501 420.781,106.151 420.705,105.649 420.405,105.323 420.43,105.248 420.58,105.173 420.606,105.173 420.655,105.123 
	420.655,105.098 420.655,104.897 420.655,104.647 420.655,104.597 420.655,104.571 420.631,104.571 420.454,104.371 
	420.405,104.045 420.405,103.994 420.43,103.971 420.479,103.819 420.506,103.693 420.479,103.67 420.405,103.519 420.305,103.369 
	420.28,103.243 420.229,103.143 419.979,103.143 418.775,103.192 418.123,103.218 417.045,103.243 416.193,103.268 414.163,103.343 
	412.308,103.393 411.332,103.418 410.805,103.443 410.778,103.443 410.354,103.443 410.179,103.468 405.591,103.594 
	404.663,103.619 399.851,103.744 398.899,103.794 396.993,103.845 394.188,103.92 393.234,103.945 393.134,103.945 389.525,104.045 
	388.948,104.045 388.799,104.07 388.447,104.07 388.398,104.045 387.37,104.095 386.518,104.095 386.417,104.095 385.565,104.12 
	382.733,104.195 381.604,104.221 380.001,104.271 379.675,104.271 377.87,104.32 377.019,104.345 375.84,104.345 375.741,99.634 
	375.741,99.458 375.741,98.656 375.641,94.872 375.614,92.992 375.59,92.048 375.538,90.168 375.489,87.311 375.413,83.526 
	375.364,82.598 375.364,82.474 375.364,81.596 374.411,81.621 374.362,80.192 374.362,79.54 374.362,79.29 374.336,78.763 
	374.312,77.811 374.312,77.334 374.312,76.984 374.312,76.858 374.286,76.408 374.286,75.932 374.237,74.051 374.237,73.625 
	374.237,73.149 374.21,73.099 374.21,73.074 374.21,72.673 374.21,72.422 374.186,71.972 374.161,70.267 374.437,70.241 
	376.066,70.217 377.318,70.191 377.568,70.191 379.426,70.141 379.925,70.141 382.782,70.066 383.408,70.041 385.69,69.991 
	386.616,69.966 391.455,69.841 395.315,69.74 397.221,69.69 400.104,69.615 400.529,69.615 402.984,69.59 403.436,69.565 
	403.938,69.54 405.842,69.515 405.942,69.515 407.798,69.464 407.997,69.464 408.048,69.389 408.148,69.189 408.098,68.963 
	408.098,68.939 408.073,68.863 408.098,68.737 408.124,68.638 408.148,68.638 408.272,68.537 408.272,68.361 408.198,68.262 
	408.148,68.211 408.124,68.036 408.223,67.911 408.223,67.886 408.223,67.86 408.223,67.785 408.198,67.661 408.124,67.61 
	408.098,67.535 408.098,67.41 408.174,67.334 408.174,67.284 408.174,67.208 408.148,67.133 408.021,67.058 407.947,66.958 
	407.921,66.783 407.997,66.708 408.073,66.657 408.174,66.582 408.174,66.482 408.073,66.332 408.021,66.282 408.021,66.106 
	408.048,66.031 408.249,65.78 408.424,65.73 408.476,65.655 408.5,65.555 408.5,65.479 408.424,65.354 408.424,65.329 
	408.399,65.254 408.399,65.203 408.448,65.104 408.5,65.054 408.5,64.928 408.424,64.802 408.323,64.777 408.272,64.727 
	408.272,64.627 408.348,64.501 408.547,64.427 408.625,64.377 408.925,63.85 408.925,63.825 408.925,63.75 408.925,63.699 
	408.9,63.649 408.9,63.625 408.875,63.575 408.675,63.148 408.524,63.023 408.424,63.023 408.373,62.973 408.348,62.772 
	408.373,62.647 408.424,62.597 408.547,62.597 408.601,62.597 408.625,62.547 408.649,62.447 408.625,62.396 408.601,62.372 
	408.448,62.271 408.448,62.121 408.448,61.896 408.399,61.844 408.299,61.77 408.223,61.745 408.198,61.669 408.148,61.494 
	408.174,61.319 408.198,61.243 408.272,61.169 408.348,60.994 408.348,60.818 408.348,60.767 408.198,60.692 408.174,60.692 
	408.073,60.692 408.021,60.643 408.021,60.517 408.021,60.467 408.148,60.191 408.174,59.916 408.148,59.815 407.898,59.64 
	407.847,59.614 407.822,59.414 407.847,59.339 407.872,59.213 407.847,59.138 407.746,59.038 407.697,59.013 407.597,58.963 
	407.57,58.963 407.422,58.662 407.396,58.636 407.396,58.612 407.371,58.161 407.396,58.06 407.396,58.035 407.422,57.935 
	407.472,57.935 407.472,57.91 407.522,57.885 407.623,57.684 407.646,57.484 407.673,57.333 407.697,57.283 407.697,57.158 
	407.673,57.083 407.646,57.032 407.522,56.907 407.447,56.732 407.422,56.382 407.447,56.306 407.498,56.206 407.646,56.055 
	407.847,55.73 407.847,55.704 407.872,55.554 407.822,55.228 407.822,55.178 407.697,54.952 407.673,54.952 407.522,54.928 
	407.498,54.802 407.498,54.727 407.522,54.676 407.673,54.602 407.697,54.602 407.746,54.551 407.798,54.401 407.798,54.301 
	407.798,54.276 407.697,54.175 407.623,54 407.623,53.925 407.697,53.825 407.746,53.749 407.798,53.624 407.822,53.398 
	407.798,53.249 407.773,53.223 407.697,53.173 407.673,53.123 407.673,52.897 407.697,52.797 407.847,52.597 407.872,52.32 
	407.872,52.295 407.872,52.094 407.798,52.02 407.57,51.895 407.447,51.844 407.396,51.693 407.347,51.493 407.347,51.217 
	407.422,51.144 407.447,51.043 407.422,50.967 407.371,50.917 407.295,50.867 407.271,50.692 407.321,50.616 407.472,50.491 
	407.522,50.366 407.522,50.064 407.522,49.865 407.472,49.739 407.447,49.689 407.196,49.513 407.12,49.388 407.094,49.288 
	406.995,48.737 406.895,48.186 406.846,47.934 406.87,47.608 406.944,47.459 406.995,47.383 406.995,47.258 406.919,47.107 
	406.77,46.958 406.52,46.832 406.468,46.781 406.443,46.756 406.345,46.656 406.369,46.48 406.394,46.38 406.443,46.305 
	406.671,46.18 406.77,46.18 406.82,46.105 406.82,45.979 406.745,45.854 406.619,45.779 406.546,45.679 406.52,45.604 
	406.52,45.328 406.568,45.228 406.72,45.153 406.82,45.103 406.895,44.951 406.919,44.802 406.919,44.602 406.895,44.5 
	406.895,44.476 406.87,44.325 406.919,44.225 407.094,44.2 407.147,44.124 407.172,44.049 407.221,43.573 407.172,43.448 
	407.094,43.323 407.12,43.172 407.147,43.072 407.221,42.972 407.271,42.896 407.347,42.696 407.371,42.496 407.347,42.42 
	407.321,42.37 407.347,42.17 407.422,42.095 407.546,42.095 407.623,42.044 407.646,41.894 407.623,41.769 407.623,41.718 
	407.673,41.592 407.773,41.592 407.847,41.592 407.898,41.542 407.921,41.442 407.921,41.317 407.921,41.292 407.847,41.218 
	407.847,41.191 407.822,41.067 407.847,41.016 408.048,40.916 408.299,40.991 408.448,40.966 408.5,40.916 408.547,40.892 
	408.601,40.816 408.601,40.692 408.574,40.615 408.524,40.39 408.424,40.139 408.448,40.039 408.601,39.813 408.675,39.513 
	408.724,39.388 408.849,39.262 408.9,39.112 408.875,38.886 408.824,38.786 408.775,38.711 408.824,38.586 408.9,38.511 
	408.9,38.285 408.849,37.733 408.875,37.634 408.925,37.507 408.975,37.458 408.975,37.382 408.975,37.308 408.925,37.232 
	408.649,37.081 408.476,36.981 408.021,36.405 407.997,36.229 408.048,36.154 408.073,36.104 408.098,35.828 407.872,35.553 
	407.773,35.327 407.722,35.202 407.623,35.077 407.271,34.825 407.221,34.75 407.196,34.651 407.196,34.6 407.221,34.525 
	407.221,34.299 407.196,34.199 407.045,34.074 407.02,33.973 407.02,33.873 406.995,33.422 406.846,33.171 406.82,33.146 
	406.52,32.92 406.468,32.845 406.468,32.746 406.546,32.495 406.619,32.319 406.619,32.169 406.369,31.768 406.318,31.719 
	406.269,31.643 406.244,31.567 406.269,31.492 406.318,31.417 406.318,31.217 406.293,31.167 406.22,31.117 406.168,31.091 
	406.117,31.016 406.117,30.79 406.144,30.64 406.144,30.614 406.094,30.565 405.967,30.514 405.868,30.439 405.842,30.314 
	405.842,30.213 405.842,30.013 405.792,29.913 405.717,29.737 405.717,29.688 405.717,29.663 405.717,29.637 405.768,29.537 
	405.768,29.462 405.717,29.362 405.591,29.287 405.49,29.261 405.341,29.212 405.216,29.085 405.14,28.986 405.065,28.811 
	405.115,28.635 405.115,28.61 405.164,28.41 405.164,28.384 405.14,28.334 405.115,28.283 405.015,28.134 404.99,27.883 
	405.039,27.783 405.24,27.657 405.24,27.632 405.267,27.607 405.291,27.582 405.291,27.558 405.314,27.533 405.314,27.507 
	405.291,27.406 405.291,27.231 405.191,27.08 405.14,26.98 405.164,26.906 405.164,26.855 405.191,26.83 405.216,26.755 
	405.216,26.555 405.039,26.304 404.99,26.003 404.89,25.878 404.864,25.853 404.739,25.802 404.663,25.728 404.663,25.627 
	404.663,25.602 404.663,25.577 404.713,25.326 404.688,25.251 404.639,25.176 404.514,25.101 404.264,24.9 404.163,24.8 
	404.138,24.699 404.163,24.523 404.163,24.449 404.163,24.374 404.113,24.249 404.113,24.224 404.087,24.173 404.062,24.123 
	404.087,24.023 404.138,23.923 404.138,23.646 404.087,23.547 403.711,23.372 403.586,23.271 403.562,23.271 403.562,23.246 
	403.463,23.021 403.463,22.995 403.463,22.945 403.463,22.896 403.536,22.645 403.512,22.469 403.436,22.368 403.21,22.268 
	403.161,22.118 403.161,21.943 403.234,21.768 403.21,21.618 403.161,21.491 403.085,21.442 402.908,21.341 402.884,21.316 
	402.81,21.065 402.785,20.79 402.785,20.739 402.785,20.714 402.734,20.589 402.709,20.564 402.685,20.54 402.535,20.389 
	402.535,20.288 402.584,19.837 402.584,19.787 402.584,19.762 402.584,19.737 402.584,19.611 402.535,19.512 402.483,19.411 
	402.407,19.386 402.309,19.336 402.282,19.336 402.208,19.261 402.184,19.111 402.233,18.785 402.233,18.684 402.208,18.509 
	402.208,18.208 402.208,18.183 402.233,18.008 402.383,17.782 402.407,17.757 402.51,17.631 402.535,17.506 402.51,17.405 
	402.483,17.331 402.483,17.256 402.584,17.03 395.517,17.23 394.589,17.256 393.985,17.281 393.035,17.306 388.197,17.432 
	382.432,17.582 378.597,17.657 376.719,17.707 370.953,17.833 370.978,18.384 370.978,18.408 370.978,19.336 370.978,19.361 
	370.978,19.562 370.978,20.213 370.978,20.238 370.978,20.263 371.004,21.141 371.004,21.191 371.004,21.216 371.004,21.292 
	371.054,22.118 371.078,22.394 371.104,23.07 371.127,23.999 371.127,24.149 371.127,24.224 371.154,24.449 371.154,24.925 
	371.179,25.878 371.154,26.104 371.203,27.758 371.203,28.685 371.203,29.137 371.203,29.637 371.203,30.114 371.228,30.59 
	371.304,33.396 371.304,33.522 371.304,33.572 371.328,34.224 371.378,36.229 371.755,36.229 371.78,36.229 371.829,36.229 
	372.33,36.205 372.356,36.205 372.356,36.656 372.356,36.705 372.406,38.159 372.455,40.991 372.482,41.918 372.558,44.275 
	372.558,45.027 372.605,47.107 372.605,47.333 372.605,47.584 371.255,47.608 370.627,47.608 369.374,47.633 368.697,47.659 
	368.496,47.659 367.118,47.684 366.868,47.684 366.842,47.684 361.127,47.81 360.149,47.834 359.173,47.834 358.922,47.834 
	357.241,47.859 355.336,47.884 355.363,48.811 355.388,49.764 355.388,50.692 355.438,53.548 355.488,56.382 355.488,57.333 
	355.513,59.088 355.513,59.213 355.513,59.239 356.693,59.213 356.74,61.143 356.79,64.928 356.816,65.855 356.816,66.356 
	356.816,66.808 356.843,67.761 356.867,69.64 356.867,70.117 356.893,70.592 356.843,70.592 355.863,70.618 354.963,70.618 
	354.01,70.643 353.031,70.693 352.906,70.693 352.079,70.693 351.128,70.718 351.128,71.244 351.151,72.598 351.176,73.55 
	351.227,76.383 351.254,78.287 351.254,78.462 351.254,79.29 351.278,79.767 351.278,81.345 351.301,81.921 351.301,82.046 
	350.8,82.046 350.524,82.073 349.373,82.073 348.419,82.073 347.694,82.096 346.715,82.123 346.767,87.862 346.791,89.041 
	346.841,90.995 346.841,91.446 346.841,91.496 346.865,91.622 346.892,93.518 346.916,95.724 347.066,96.075 347.093,97.253 
	347.066,98.105 346.968,98.281 346.968,98.731 346.968,99.208 346.99,100.16 346.99,101.087 347.017,102.04 347.041,102.992 
	347.041,103.443 347.093,104.873 348.019,104.873 348.195,104.873 348.998,104.873 349.747,104.848 350.876,104.822 
	352.731,104.797 352.806,104.797 353.082,104.797 353.107,104.797 353.257,104.797 353.959,104.772 354.384,104.772 
	354.836,104.772 354.86,104.772 355.839,104.747 356.642,104.722 356.79,104.747 358.571,104.696 359.298,104.696 359.372,104.696 
	359.674,104.696 363.383,104.622 364.335,104.597 365.088,104.571 365.562,104.547 365.788,104.547 366.466,104.547 
	367.217,104.521 367.293,104.521 367.444,104.521 370.076,104.472 370.575,104.472 "/>
<polygon fill="#4D4D4D" stroke="#FFFFFF" stroke-width="0.75"  points="439.027,215.606 438.901,215.432 438.627,214.578 438.526,213.852 
	438.501,213.476 438.452,212.874 438.376,212.022 438.35,211.897 438.275,211.672 438.325,211.095 438.199,210.744 438.175,210.719 
	438.15,210.644 438.15,210.618 438.126,210.417 438.3,209.69 438.3,209.666 438.602,208.789 438.826,208.515 438.853,208.515 
	438.877,208.437 438.901,208.338 438.978,207.987 439.002,207.912 439.002,207.636 438.929,207.486 438.929,207.436 
	439.027,206.909 439.054,206.633 438.978,206.459 438.953,206.108 438.929,205.782 438.929,205.757 438.853,205.43 438.801,205.255 
	438.602,205.08 438.602,205.054 438.577,205.005 438.477,204.83 438.426,204.628 438.602,204.528 438.577,204.327 438.35,204.126 
	438.251,204.052 438.175,203.926 438.251,203.826 438.275,203.401 438.199,203.276 438,202.8 437.873,202.674 437.774,202.498 
	437.724,202.272 437.724,202.246 437.8,201.671 437.8,201.521 437.824,201.495 437.8,201.295 437.75,201.145 437.674,201.094 
	437.623,201.045 437.547,200.969 437.547,200.943 437.524,200.868 437.498,200.794 437.524,200.768 437.473,200.568 
	437.424,200.568 437.372,200.568 437.323,200.519 437.323,200.468 437.323,200.393 437.323,200.317 437.323,200.292 
	437.323,200.218 437.323,200.193 437.323,200.142 437.271,200.041 437.249,199.766 437.271,199.615 437.271,199.39 437.323,199.339 
	437.397,199.265 437.424,199.189 437.448,198.988 437.397,198.788 437.372,198.788 437.299,198.411 437.046,197.886 
	436.847,197.785 436.746,197.285 436.722,197.034 436.722,196.909 436.697,196.784 436.697,196.633 436.673,196.508 
	436.673,196.358 436.673,196.308 436.697,196.256 436.872,196.106 436.947,196.057 436.997,195.98 437.021,195.932 437.046,195.882 
	437.021,195.83 436.997,195.781 436.921,195.755 436.847,195.705 436.847,195.681 436.822,195.581 436.872,195.479 436.872,195.354 
	436.822,195.279 436.822,195.254 436.746,195.154 436.621,195.104 436.597,195.079 436.57,195.029 436.597,194.904 436.621,194.879 
	436.697,194.628 436.722,194.451 436.722,194.327 436.746,194.177 436.746,194.152 436.746,194.076 436.722,194.051 436.697,194 
	436.673,193.976 436.646,193.901 436.597,193.851 436.57,193.75 436.597,193.675 436.597,193.65 436.597,193.6 436.621,193.575 
	436.673,193.45 436.673,193.399 436.673,193.248 436.673,193.225 436.673,193.199 436.673,193.173 436.673,193.149 436.621,193.073 
	436.621,193.048 436.597,193.048 436.522,192.999 436.472,192.898 436.496,192.772 436.545,192.674 436.522,192.598 
	436.446,192.497 436.396,192.271 436.396,192.246 436.522,191.696 436.522,191.569 436.371,191.243 436.396,190.918 
	436.396,190.767 436.396,190.617 436.42,190.542 436.346,190.491 436.02,190.417 435.72,190.091 435.468,189.941 435.443,189.866 
	435.544,189.666 435.418,189.44 435.043,189.339 435.018,189.263 435.018,189.139 434.893,189.063 434.516,189.214 434.314,189.189 
	434.24,189.087 434.164,188.762 434.188,188.712 434.216,188.611 434.188,188.512 434.015,188.437 433.813,188.311 433.788,188.286 
	433.766,188.262 433.766,188.211 433.688,188.061 433.663,188.036 433.663,188.012 433.639,187.81 433.288,187.76 433.236,187.686 
	433.212,187.686 433.087,187.083 433.113,186.733 432.637,185.781 432.586,185.679 432.561,185.654 432.536,185.629 
	432.487,185.579 432.36,185.654 432.21,185.605 432.159,185.505 432.186,185.404 432.136,185.253 431.984,185.204 431.908,185.178 
	431.783,185.103 431.783,185.028 431.783,185.004 431.783,184.928 431.759,184.828 431.733,184.777 431.709,184.777 431.56,184.777 
	431.508,184.652 431.508,184.576 431.508,184.551 431.534,184.478 431.534,184.451 431.56,184.402 431.534,184.251 431.459,184.201 
	431.407,184.201 431.333,184.201 431.282,184.151 431.258,184.05 431.258,184 431.182,183.825 431.157,183.825 431.059,183.775 
	430.882,183.775 430.757,183.648 430.732,183.55 430.757,183.399 430.831,183.249 430.806,183.123 430.806,183.073 430.781,182.998 
	430.732,182.973 430.705,182.923 430.681,182.821 430.705,182.748 430.781,182.672 430.831,182.622 430.857,182.497 
	430.857,182.472 430.857,182.446 430.857,182.272 430.831,182.021 430.732,181.946 430.63,181.77 430.58,181.694 430.556,181.594 
	430.531,181.568 430.556,181.469 430.531,181.445 430.504,181.418 430.479,181.394 430.381,181.369 430.28,181.32 430.28,181.243 
	430.28,181.168 429.905,181.018 429.854,180.993 429.829,180.942 429.829,180.842 429.854,180.817 429.878,180.692 429.854,180.642 
	429.854,180.616 429.779,180.567 429.73,180.441 429.753,180.316 429.878,180.016 429.905,179.84 429.93,179.814 429.905,179.814 
	429.854,179.79 429.829,179.766 429.779,179.665 429.753,179.613 429.73,179.59 429.73,179.539 429.805,179.313 429.805,179.213 
	429.704,179.062 429.677,179.012 429.779,178.737 429.704,178.487 429.628,177.935 429.453,177.733 429.353,177.484 
	429.353,177.458 429.353,177.382 429.377,177.309 429.429,177.232 429.429,177.107 429.328,177.008 429.304,176.983 
	429.304,176.958 429.304,176.906 429.377,176.833 429.402,176.782 429.377,176.756 429.353,176.707 429.228,176.606 
	429.278,176.481 429.304,176.356 429.304,176.28 429.176,176.03 429.127,175.954 429.077,175.83 429.104,175.805 429.127,175.729 
	429.176,175.653 429.203,175.554 429.228,175.504 429.252,175.378 429.252,175.354 429.278,175.328 429.151,174.802 
	429.077,174.676 428.928,174.651 428.877,174.577 428.85,174.476 428.877,174.275 428.85,174.226 428.727,174.226 428.65,174.174 
	428.676,174.151 428.676,174.024 428.602,173.974 428.425,173.875 428.425,173.85 428.425,173.824 428.398,173.8 428.425,173.648 
	428.425,173.574 428.376,173.524 428.326,173.473 428.199,173.248 428.049,173.248 428.024,173.248 427.924,173.147 
	427.924,173.123 427.924,173.021 427.899,172.897 427.949,172.746 427.924,172.721 427.799,172.646 427.748,172.521 
	427.772,172.395 427.799,172.372 427.823,172.271 427.772,172.17 427.748,172.146 427.723,172.146 427.598,172.07 427.598,172.019 
	427.573,171.97 427.622,171.87 427.598,171.819 427.573,171.769 427.348,171.743 427.322,171.494 427.348,171.369 427.322,171.267 
	427.298,171.216 427.271,171.216 427.173,171.167 427.146,171.142 427.072,171.093 426.696,171.192 425.519,171.216 
	425.167,171.243 420.856,171.369 417.773,171.494 417.298,171.519 416.67,171.543 416.093,171.543 416.043,171.569 415.143,171.594 
	410.756,171.743 410.38,171.743 409.401,171.794 405.641,171.92 405.591,171.92 404.766,171.943 403.662,171.97 403.21,171.97 
	402.96,171.995 400.805,172.045 399,172.094 398.899,172.094 398.072,172.12 397.947,172.12 393.311,172.22 392.232,172.246 
	391.405,172.271 390.451,172.295 390.228,172.295 389.977,172.295 389.474,172.295 389.3,172.321 388.521,172.321 388.398,172.321 
	387.596,172.346 387.445,172.346 386.616,172.372 386.493,172.372 381.881,172.471 380.754,172.495 376.165,172.571 
	375.013,172.596 374.812,172.596 374.688,172.596 374.085,172.622 374.061,172.622 373.383,172.622 373.108,172.646 
	370.477,172.696 370.575,176.481 370.627,178.412 370.627,179.364 370.678,181.243 370.702,184.1 370.778,187.911 370.778,188.286 
	370.778,188.336 370.778,188.611 370.803,188.863 370.803,189.816 370.827,190.767 370.851,191.72 370.851,192.674 370.901,194.577 
	370.928,195.53 372.231,195.505 372.306,201.17 372.33,202.098 372.356,204.027 372.382,204.953 372.382,205.681 372.406,206.858 
	372.433,207.812 372.455,210.668 372.482,211.62 372.482,212.574 372.533,213.525 372.558,216.357 372.605,218.263 373.584,218.238 
	373.96,218.238 374.888,218.238 378.396,218.162 379.675,218.14 382.883,218.088 383.233,218.063 384.088,218.063 385.416,218.012 
	386.918,217.989 389.801,217.911 391.18,217.887 394.013,217.812 395.09,217.786 396.344,217.762 396.796,217.762 396.869,217.739 
	396.895,217.739 396.945,217.739 396.97,217.739 402.66,217.587 404.29,217.561 404.59,217.536 408.448,217.436 412.285,217.311 
	413.511,217.261 414.215,217.21 418.049,217.111 418.926,217.111 419.001,217.06 419.979,217.035 420.479,217.035 422.76,216.959 
	423.814,216.935 424.063,216.91 425.744,216.86 426.118,216.86 426.37,216.834 427.899,216.784 428.199,216.784 428.525,216.735 
	429.805,216.711 431.208,216.659 431.582,216.635 431.709,216.635 432.661,216.608 433.614,216.584 434.566,216.559 
	435.544,216.534 436.496,216.508 436.997,216.483 437.448,216.483 437.9,216.46 438.376,216.434 439.002,216.409 439.054,216.309 
	439.078,215.731 "/>
</svg>
