<?xml version="1.0" encoding="utf-8"?>
<!-- Generator: Adobe Illustrator 13.0.2, SVG Export Plug-In . SVG Version: 6.00 Build 14948)  -->
<!DOCTYPE svg PUBLIC "-//W3C//DTD SVG 1.1//EN" "http://www.w3.org/Graphics/SVG/1.1/DTD/svg11.dtd">
<svg  version="1.1" style="background-color: #000000;"  id="Layer_1" xmlns="http://www.w3.org/2000/svg" xmlns:xlink="http://www.w3.org/1999/xlink" x="0px" y="0px"
	 width="500px" height="400px" viewBox="-8.003 -30.131 500 400" enable-background="new -8.003 -30.131 500 400"
	 xml:space="preserve">
<polygon id="4639660" fill="#666666" stroke="#FFFFFF" points="175.308,83.916 174.982,83.916 174.11,83.916 173.429,83.888 
	173.074,83.888 171.032,83.808 163.215,83.616 163.159,83.616 162.316,83.589 159.973,83.562 155.261,83.453 145.346,83.181 
	143.385,83.099 143.221,83.126 141.533,83.072 141.315,83.044 140.634,83.017 140.607,83.017 139.272,82.99 139.164,82.99 
	138.618,82.99 138.346,82.963 138.318,82.963 133.09,82.827 133.008,82.827 131.074,82.772 131.046,82.718 128.486,82.663 
	126.907,82.608 126.825,82.608 126.716,85.795 126.688,87.212 126.416,96.254 126.253,101.375 126.171,103.446 126.062,107.559 
	125.816,107.559 125.599,113.741 124.973,113.714 114.704,113.36 114.323,113.36 110.999,113.224 110.836,113.25 110.809,113.25 
	110.673,113.25 110.264,113.224 110.182,113.224 109.146,113.196 108.14,113.169 106.669,113.115 106.097,113.088 102.774,112.952 
	102.42,112.952 101.984,112.924 101.657,112.924 100.976,112.896 99.969,112.87 97.136,112.761 95.855,112.733 95.311,112.706 
	94.875,112.706 94.848,112.706 94.712,115.783 94.712,116.056 94.684,116.22 94.657,116.819 94.63,117.827 94.63,117.991 
	94.603,118.236 94.575,118.753 94.575,118.889 94.521,120.66 94.357,124.337 94.303,125.344 94.303,125.399 94.331,125.699 
	94.249,126.952 94.221,127.714 94.057,131.146 94.057,131.31 93.812,131.31 93.731,133.461 93.622,136.593 93.568,137.628 
	95.855,137.684 99.778,137.819 99.723,139.235 99.723,139.563 99.669,141.986 99.505,146.127 93.568,145.909 93.513,145.909 
	93.295,145.881 92.996,145.881 92.479,145.855 91.906,145.828 91.633,145.828 88.665,145.719 87.956,145.691 86.731,145.637 
	75.373,145.147 75.346,145.147 72.459,145.038 68.646,144.874 68.564,146.426 68.291,152.937 67.991,159.419 67.991,159.528 
	67.718,165.492 69.408,165.547 80.003,165.901 89.537,166.228 92.288,166.31 93.594,166.336 97.027,166.446 99.995,166.556 
	100.54,166.556 101.167,166.583 102.502,166.636 107.459,166.828 108.222,166.828 111.79,166.937 123.147,167.317 127.669,167.482 
	129.331,167.535 138.183,167.834 138.183,167.945 138.128,168.134 137.883,168.271 137.828,168.435 137.883,168.626 
	138.101,168.708 138.101,168.871 138.074,168.979 137.828,169.361 137.583,170.041 137.502,170.259 137.475,170.642 
	137.394,170.939 137.394,171.213 137.394,171.349 137.447,171.539 137.556,171.704 137.637,171.867 137.338,172.03 137.284,172.003 
	137.093,172.249 137.093,172.385 136.984,172.548 136.849,172.657 136.658,172.874 136.521,173.01 136.44,173.066 136.276,173.281 
	136.167,173.366 136.112,173.418 136.004,173.529 135.704,173.581 135.541,173.664 135.405,173.773 135.35,173.854 135.35,173.91 
	135.377,174.018 135.623,174.209 135.623,174.236 135.595,174.318 135.377,174.59 134.997,174.753 134.86,174.862 134.697,175.08 
	134.532,175.325 134.506,175.597 134.315,175.842 134.261,175.953 134.151,176.033 133.934,176.089 133.771,176.033 
	133.689,176.089 133.579,176.224 133.498,176.387 133.498,176.441 133.634,176.741 133.579,176.852 133.498,176.933 133.28,176.933 
	133.198,177.15 133.226,177.341 133.198,177.396 133.062,177.422 132.954,177.341 132.872,177.259 132.517,177.285 132.436,177.422 
	132.463,177.532 132.436,177.667 132.327,177.885 132.164,177.996 131.945,178.048 131.892,178.103 131.864,178.403 
	131.972,178.813 131.782,179.002 131.482,179.002 131.346,179.084 131.292,179.221 131.292,179.276 131.156,179.438 
	131.128,179.547 131.183,179.601 131.482,179.657 135.595,179.847 141.833,180.009 146.164,180.12 147.661,180.175 153.083,180.31 
	153.3,180.31 153.708,180.31 154.744,180.338 154.825,180.338 156.487,180.391 159.973,180.472 163.159,180.556 163.677,180.556 
	163.732,180.583 164.14,180.583 164.277,180.528 164.521,180.418 164.74,180.228 164.74,180.091 164.631,179.982 164.631,179.902 
	164.958,179.902 165.148,179.982 165.284,179.847 165.257,179.547 165.257,179.384 165.366,179.303 165.449,179.276 
	165.611,179.329 165.666,179.384 165.747,179.494 166.074,179.657 166.155,179.657 166.237,179.629 166.51,179.438 166.755,179.329 
	166.864,179.357 167.027,179.41 167.136,179.357 167.301,179.084 167.301,178.92 167.491,178.976 167.626,179.384 167.79,179.601 
	167.817,179.709 167.764,179.928 167.573,180.12 167.626,180.556 167.708,180.747 167.926,180.827 168.28,180.801 168.389,180.638 
	168.444,180.501 168.363,180.201 168.363,180.146 168.416,180.091 169.044,180.282 169.616,180.501 170.459,180.583 
	170.623,180.556 170.896,180.175 171.086,180.146 171.168,180.228 171.276,180.472 171.386,180.583 171.412,180.664 
	171.494,180.638 171.577,180.638 171.548,180.418 171.494,180.364 171.468,180.065 171.412,179.928 171.468,179.791 
	171.685,179.576 171.931,179.357 172.067,179.11 172.203,179.11 172.365,179.303 172.393,179.247 172.393,178.458 172.393,176.416 
	172.42,176.278 172.502,173.255 172.502,172.929 172.53,171.186 172.53,171.158 172.583,169.606 172.583,169.116 172.611,166.718 
	172.639,164.948 172.666,164.294 172.749,160.809 172.749,160.317 172.802,158.711 173.401,158.738 173.455,156.123 
	173.455,155.605 173.51,153.753 173.51,153.618 173.51,153.535 173.51,153.263 173.537,152.5 173.537,152.201 173.537,151.956 
	173.565,151.275 173.565,150.43 173.592,149.504 173.673,146.263 173.673,145.5 173.673,145.283 173.783,141.088 173.81,140.08 
	173.945,133.679 174.273,133.707 174.273,132.998 174.301,132.536 174.327,130.601 174.327,130.057 174.382,128.559 
	174.382,128.041 174.408,127.605 174.518,121.695 174.545,121.667 174.681,115.048 174.763,111.181 174.817,108.893 
	174.845,107.422 175.036,98.543 175.335,84.951 175.362,84.08 175.362,83.943 "/>
<polygon id="4643620" fill="#666666" stroke="#FFFFFF" points="460.077,186.085 460.051,185.649 460.051,185.593 
	460.051,185.568 460.051,185.539 459.996,184.177 459.996,184.015 459.833,179.329 459.777,178.295 459.588,173.066 
	459.507,170.994 459.478,170.014 459.37,166.828 457.653,166.937 457.464,166.964 457.436,166.964 457.109,166.991 456.346,167.073 
	456.265,167.073 455.556,167.099 455.311,167.099 453.486,167.153 450.98,167.236 450.355,167.264 450.163,167.264 449.318,167.264 
	449.183,167.264 449.127,167.291 446.404,167.372 445.423,167.399 445.233,167.399 443.108,167.482 442.999,167.482 
	442.999,167.508 441.91,167.535 441.584,167.535 438.887,167.645 437.988,167.672 436.954,167.699 436.844,167.699 435.618,167.754 
	434.856,167.78 434.23,167.78 433.847,167.808 433.494,167.808 432.813,167.834 432.051,167.862 431.751,167.862 431.723,167.89 
	431.179,167.89 430.797,167.917 430.742,167.917 424.75,168.108 424.561,168.108 418.377,168.271 417.37,168.299 416.823,168.299 
	416.688,168.299 415.299,168.352 413.229,168.407 412.222,168.435 412.167,168.435 406.012,168.571 399.854,168.708 
	399.909,171.948 399.937,173.01 399.965,174.047 399.991,174.536 399.991,175.08 400.073,176.116 400.073,176.142 400.154,177.15 
	400.291,181.319 400.291,181.834 400.291,181.89 400.291,182.298 400.346,184.45 400.373,185.485 400.399,186.547 400.428,187.583 
	400.428,188.617 400.564,193.793 402.96,193.739 403.723,193.711 403.996,193.711 405.058,193.684 405.275,193.656 405.712,193.656 
	406.745,193.629 407.781,193.602 410.287,193.548 411.213,193.52 411.241,193.52 411.295,193.52 411.649,193.494 411.759,193.494 
	412.356,193.465 412.412,193.465 412.93,193.465 413.392,193.439 413.965,193.439 414.509,193.41 414.699,193.41 416.879,193.357 
	417.041,193.357 417.505,193.329 418.132,193.329 418.35,193.303 418.484,193.303 418.84,193.303 419.113,193.275 419.249,193.275 
	422.189,193.193 422.437,193.193 422.571,193.193 423.606,193.166 424.805,193.112 425.294,193.112 429.761,192.977 
	430.471,192.947 431.506,192.895 434.856,192.812 435.89,192.73 437.688,192.677 438.232,192.648 438.342,192.648 439.05,192.621 
	440.767,192.566 440.984,192.539 441.802,192.513 441.965,192.513 442.019,192.513 442.347,192.485 442.455,192.485 
	442.835,192.485 442.973,192.485 443.272,192.459 443.327,192.459 443.79,192.459 443.871,192.459 443.898,192.459 443.926,192.432 
	444.771,192.402 444.852,192.402 445.042,192.402 445.07,192.402 445.314,192.402 445.778,192.377 445.914,192.377 446.022,192.377 
	446.051,192.377 446.104,192.377 446.24,192.377 447.14,192.348 447.713,192.322 448.394,192.295 448.446,192.295 448.501,192.295 
	448.53,192.295 449.02,192.268 450.136,192.24 451.308,192.186 451.716,192.186 451.906,192.186 452.75,192.131 453.16,192.131 
	456.237,192.021 460.295,191.858 "/>
<polygon id="4643580" fill="#666666" stroke="#FFFFFF" points="462.83,264.256 462.53,264.393 461.902,264.34 
	461.766,264.229 461.766,264.119 461.739,263.932 461.849,263.766 461.902,263.494 461.684,263.086 461.684,263.059 
	461.576,262.977 461.357,263.031 461.004,262.895 460.84,262.568 460.95,262.322 461.521,262.023 461.549,261.859 461.494,261.641 
	461.603,261.207 461.603,260.416 461.576,259.734 460.65,259.734 460.486,259.627 460.459,259.434 460.403,259.137 460.378,258.947 
	460.403,258.729 460.486,258.674 460.704,258.699 460.896,258.699 461.004,258.617 461.031,258.59 461.058,258.51 461.058,258.4 
	461.085,258.4 461.058,258.373 461.031,258.318 460.921,258.291 460.786,258.266 460.759,258.236 460.569,258.1 460.54,258.1 
	460.54,258.047 460.514,258.018 460.514,257.992 460.514,257.938 460.54,257.855 460.595,257.773 460.569,257.637 460.459,257.504 
	460.295,257.447 460.24,257.393 460.214,257.312 460.269,257.146 460.269,257.037 460.051,256.412 459.996,256.275 459.777,255.842 
	459.751,255.73 459.723,255.73 459.696,255.703 459.533,255.568 459.315,255.541 459.207,255.623 459.07,255.76 459.042,255.785 
	458.879,256.004 458.797,256.029 458.771,256.029 458.744,256.004 458.689,255.949 458.66,255.922 458.634,255.842 458.579,255.648 
	458.553,255.594 458.579,255.541 458.579,255.459 458.607,255.459 458.634,255.432 458.744,255.35 458.96,255.322 459.097,255.293 
	459.233,255.188 459.342,255.051 459.37,254.861 459.37,254.75 459.37,254.668 459.37,254.641 459.315,254.479 458.744,253.715 
	458.553,253.633 458.416,253.58 458.39,253.553 458.36,253.553 458.308,253.498 458.171,253.363 458.145,253.363 458.145,253.332 
	458.145,253.279 458.116,253.252 458.116,253.17 458.145,252.953 458.116,252.707 457.872,252.326 457.845,252.326 457.816,252.301 
	457.653,252.301 457.163,252.572 456.999,252.572 456.972,252.545 456.946,252.217 456.999,252.162 457.136,252.137 
	457.136,252.107 456.917,251.781 456.917,251.754 456.564,251.291 456.483,251.264 456.429,251.318 456.373,251.428 456.373,251.59 
	456.373,251.619 456.291,251.674 456.073,251.645 455.965,251.59 455.965,251.537 456.129,251.346 456.154,251.238 456.184,251.156 
	456.103,250.828 456.073,250.801 455.556,250.527 455.229,250.475 454.984,250.445 455.011,250.258 454.956,249.984 454.821,249.82 
	454.711,249.795 454.658,249.82 454.521,249.984 454.44,250.012 454.249,250.039 454.141,249.957 454.141,249.9 454.141,249.848 
	454.141,249.82 454.112,249.795 454.112,249.766 454.085,249.738 454.059,249.738 454.03,249.738 454.004,249.738 453.978,249.766 
	453.731,249.658 453.187,249.303 453.16,249.275 453.132,249.248 453.187,249.057 453.297,248.977 453.432,248.65 453.404,247.832 
	453.323,247.805 453.023,247.887 452.642,247.178 452.642,247.152 452.615,247.098 452.587,247.041 452.697,246.852 
	452.779,246.742 452.94,246.416 453.023,246.061 453.268,245.898 453.541,245.816 453.594,245.734 453.541,245.572 453.486,245.49 
	453.459,245.49 453.432,245.463 453.404,245.49 453.35,245.516 453.105,245.545 452.913,245.271 452.913,245.246 452.86,244.781 
	452.887,244.646 452.887,244.592 452.968,244.592 452.997,244.592 453.023,244.564 453.187,244.4 453.404,243.965 453.513,243.637 
	453.731,243.555 453.759,243.555 454.193,243.637 454.304,243.666 454.33,243.637 454.358,243.609 454.411,243.338 454.767,242.93 
	454.902,242.357 454.93,242.111 454.93,241.975 454.956,241.84 454.956,241.812 454.956,241.785 454.875,241.703 454.848,241.703 
	454.711,241.676 454.685,241.35 454.711,241.295 454.93,241.322 455.202,241.133 455.256,241.051 455.393,240.805 455.584,240.424 
	455.584,240.342 455.339,239.988 455.366,239.715 455.421,239.689 455.474,239.66 455.91,239.715 456.154,240.098 456.21,240.178 
	456.346,240.15 456.346,239.77 456.401,239.689 456.455,239.58 456.455,239.551 456.483,239.523 456.536,239.523 456.564,239.523 
	456.591,239.551 456.618,239.633 456.701,239.715 456.728,239.742 456.782,239.742 456.81,239.77 456.917,239.77 456.946,239.715 
	456.972,239.689 456.972,239.66 456.999,239.633 457.027,239.523 456.999,239.416 456.891,239.332 456.782,239.225 456.755,239.033 
	456.81,238.951 456.946,238.924 457.217,238.764 457.272,238.652 457.408,238.189 457.408,238.107 457.354,238.055 457.298,238.055 
	457.298,238.162 457.217,238.246 457.136,238.219 456.917,237.809 456.917,237.781 456.946,237.289 457.055,237.045 457.109,236.99 
	457.246,236.965 457.546,236.693 457.49,236.146 457.382,235.957 457.408,235.875 457.708,235.793 458.034,235.793 458.116,235.711 
	458.09,235.576 457.953,235.275 457.572,235.084 457.408,235.141 457.217,234.895 457.217,234.812 457.246,234.785 457.436,234.812 
	457.546,234.732 457.49,234.484 457.464,234.377 457.327,233.805 457.246,233.67 457.217,233.531 457.246,233.396 458.034,232.553 
	458.145,232.553 458.279,232.607 458.308,232.742 458.36,232.797 458.416,232.822 458.498,232.77 458.525,232.66 458.525,232.553 
	458.308,232.361 458.308,232.252 458.579,231.953 458.797,231.896 458.852,231.844 458.907,231.598 459.07,231.162 459.288,230.809 
	459.125,230.182 459.016,229.992 458.96,229.965 458.716,229.965 458.444,229.855 458.198,229.529 458.171,229.365 458.171,229.338 
	458.198,229.338 458.39,229.256 458.39,229.229 458.607,228.93 458.607,228.711 458.553,228.521 458.689,228.248 458.825,228.139 
	459.042,228.113 459.07,228.113 459.207,228.057 459.315,228.031 459.315,228.004 459.342,228.004 459.37,227.977 459.478,227.73 
	459.56,227.512 459.588,227.375 459.614,227.16 459.451,226.83 459.425,226.805 459.396,226.75 459.207,226.531 459.207,226.504 
	459.042,226.479 458.989,226.479 458.607,226.15 458.579,226.15 458.553,226.123 458.525,226.043 458.498,226.014 458.444,225.879 
	458.444,225.77 458.553,225.605 458.634,225.279 458.634,225.225 458.607,225.225 458.498,225.033 458.36,225.061 458.279,225.09 
	458.198,225.033 458.116,224.898 458.525,224.326 458.607,224.299 458.797,224.408 458.989,224.408 459.56,224.217 459.642,224.164 
	459.669,223.971 459.751,223.863 460.24,223.373 460.433,223.264 460.595,223.373 460.704,223.373 460.95,223.289 461.058,223.209 
	461.195,222.963 461.331,222.445 461.331,222.42 461.357,221.82 461.357,221.766 461.357,221.738 461.331,221.547 461.303,221.467 
	460.921,221.385 460.896,221.246 461.004,221.004 461.439,220.566 461.631,220.295 462.065,219.586 462.175,219.07 462.013,219.014 
	461.957,218.934 461.902,218.824 461.849,218.523 461.794,218.17 461.413,217.572 461.14,217.436 460.977,217.518 460.896,217.49 
	460.621,217.217 460.621,217.191 460.54,217.027 460.486,216.346 460.459,216.047 460.486,215.773 460.486,215.557 460.514,215.336 
	460.514,215.092 460.54,214.875 460.54,214.793 460.54,214.738 460.54,214.684 460.433,214.575 460.322,214.575 460.159,214.492 
	460.051,214.193 460.051,213.568 460.188,213.105 460.188,212.941 460.105,212.775 459.941,212.232 459.888,211.96 459.859,211.932 
	459.833,211.906 459.396,211.769 459.37,211.769 458.907,211.796 458.797,211.824 458.579,212.014 458.579,212.043 458.553,212.043 
	458.198,212.15 457.979,212.205 457.953,212.205 457.653,212.287 457.627,212.287 457.546,212.261 457.464,212.068 457.217,211.852 
	456.755,211.605 456.51,211.743 456.265,211.743 456.103,211.688 455.747,211.715 455.666,211.743 455.637,211.852 455.556,211.906 
	455.474,211.906 455.04,211.387 454.984,211.251 454.875,210.925 454.875,210.869 455.147,210.489 455.175,210.461 455.474,210.381 
	455.803,210.219 455.828,209.945 455.803,209.508 455.803,209.481 455.747,209.371 455.666,209.318 455.556,209.4 455.393,209.371 
	455.175,209.318 454.956,209.156 454.493,208.775 454.193,208.826 454.059,208.746 454.004,208.338 454.141,208.146 
	454.167,208.176 454.167,208.311 454.275,208.311 454.44,208.01 454.33,207.139 454.33,206.947 454.304,206.84 454.249,206.785 
	454.193,206.703 454.249,206.621 454.604,206.541 454.685,206.595 454.711,206.677 454.74,206.703 454.767,206.732 454.794,206.758 
	454.821,206.785 454.848,206.785 454.93,206.812 455.093,206.84 455.121,206.84 455.556,206.812 455.666,206.947 455.747,206.922 
	455.773,206.922 455.854,206.895 456.291,206.732 456.782,206.432 456.81,206.404 456.836,206.404 456.917,206.051 456.946,205.968 
	456.972,205.914 456.972,205.859 457.027,205.695 457.027,205.667 457.055,205.504 456.864,205.205 456.618,204.361 456.51,203.789 
	456.618,203.653 456.646,203.624 456.81,203.353 456.891,203.217 456.946,203.109 456.999,203.026 457.027,202.998 457.027,202.973 
	457.027,202.943 456.999,202.943 456.999,202.916 456.946,202.916 456.891,202.672 456.836,201.936 456.81,201.5 456.864,201.5 
	457.055,201.229 457.082,201.201 457.082,201.148 457.109,201.037 457.109,200.93 457.055,200.249 457.055,200.193 457.027,200.084 
	456.999,199.976 456.917,199.594 456.891,199.568 456.864,199.512 456.836,199.486 456.782,199.457 456.646,199.375 
	456.618,199.375 456.591,199.404 456.591,199.486 456.536,199.539 456.237,199.594 455.393,198.967 455.366,198.967 
	455.147,198.805 455.147,198.775 454.848,198.369 454.574,198.069 454.549,198.069 454.275,197.934 454.411,197.58 454.44,197.496 
	454.467,197.332 454.467,197.307 454.44,197.252 454.411,197.225 454.358,197.197 454.167,197.033 454.141,197.033 454.004,197.008 
	453.812,197.008 453.731,197.008 453.513,197.062 453.404,197.008 453.241,196.952 453.16,196.898 452.75,195.918 452.697,195.781 
	452.668,195.699 452.806,195.264 452.832,195.236 453.297,194.801 453.432,194.665 453.567,194.338 453.541,194.229 
	453.459,193.711 453.731,193.465 453.513,192.867 453.432,192.785 453.214,192.566 453.16,192.566 452.997,192.648 452.806,192.513 
	452.75,192.459 452.75,192.131 451.906,192.186 451.716,192.186 451.308,192.186 450.136,192.24 449.02,192.268 448.53,192.295 
	448.501,192.295 448.446,192.295 448.394,192.295 447.713,192.322 447.14,192.348 446.24,192.377 446.104,192.377 446.051,192.377 
	446.022,192.377 445.914,192.377 445.778,192.377 445.314,192.402 445.07,192.402 445.042,192.402 444.852,192.402 444.771,192.402 
	443.926,192.432 443.898,192.459 443.871,192.459 443.79,192.459 443.327,192.459 443.272,192.459 442.973,192.485 442.835,192.485 
	442.455,192.485 442.347,192.485 442.019,192.513 441.965,192.513 441.802,192.513 440.984,192.539 440.767,192.566 439.05,192.621 
	438.342,192.648 438.232,192.648 437.688,192.677 435.89,192.73 434.856,192.812 431.506,192.895 430.471,192.947 429.761,192.977 
	425.294,193.112 424.805,193.112 423.606,193.166 422.571,193.193 422.437,193.193 422.189,193.193 419.249,193.275 
	419.113,193.275 418.84,193.303 418.484,193.303 418.35,193.303 418.132,193.329 417.505,193.329 417.041,193.357 416.879,193.357 
	414.699,193.41 414.509,193.41 413.965,193.439 413.392,193.439 412.93,193.465 412.412,193.465 412.356,193.465 411.759,193.494 
	411.649,193.494 411.295,193.52 411.241,193.52 411.213,193.52 411.322,196.98 411.322,197.307 411.35,198.505 411.376,198.531 
	411.486,202.672 411.567,204.742 411.595,205.803 411.649,207.875 411.786,210.98 411.812,211.523 411.841,212.695 411.841,212.831 
	411.976,217.217 414.617,217.135 414.835,217.135 418.24,217.027 424.016,216.836 424.397,216.809 424.424,217.135 424.424,217.789 
	424.479,218.904 424.506,220.402 424.506,220.732 424.561,222.283 424.587,222.582 424.587,222.691 424.587,222.721 
	424.587,222.801 424.587,222.828 424.587,223.074 424.724,223.047 424.859,223.047 424.994,223.047 425.023,223.047 425.05,223.047 
	429.708,222.91 430.742,222.855 431.26,222.855 431.288,222.855 431.751,222.828 432.296,222.801 432.84,222.801 436.898,222.639 
	443.054,222.445 443.108,223.482 443.136,224.545 443.136,224.625 443.245,227.648 443.272,228.686 443.435,233.859 
	443.464,234.158 443.464,234.922 443.653,241.186 443.734,244.266 443.734,244.316 443.845,247.451 443.845,247.479 
	443.871,248.076 443.926,248.785 443.953,249.711 444.198,250.094 444.279,250.527 444.308,251.127 444.226,252 444.308,252.137 
	444.308,252.162 444.416,252.271 444.716,252.408 445.342,252.572 445.369,252.572 445.423,252.598 445.507,252.598 
	445.588,252.625 445.614,252.625 446.27,252.652 446.922,252.463 447.031,252.354 447.085,252.354 447.14,252.326 447.276,252.301 
	447.384,252.301 447.521,252.271 447.739,252.244 447.875,252.244 448.039,252.244 448.147,252.244 448.283,252.301 
	449.755,252.736 450.055,252.926 450.081,252.953 450.273,253.17 450.326,253.225 450.326,253.389 450.326,253.416 450.3,253.66 
	450.273,253.715 450.244,253.797 450.136,253.906 450.055,253.961 450.026,254.014 449.918,254.207 449.837,254.287 
	449.782,254.369 449.318,255.188 449.211,255.432 449.127,255.76 449.127,255.949 449.183,256.441 449.183,256.467 449.264,256.738 
	449.427,257.066 449.944,257.691 450.572,258.564 450.762,258.729 450.762,258.756 450.817,258.809 450.899,258.836 
	451.062,258.973 451.117,259 451.961,259.326 452.016,259.326 452.098,259.381 452.288,259.518 452.587,259.709 452.615,259.762 
	452.724,259.844 452.832,259.953 453.05,260.199 453.078,260.252 453.132,260.334 453.187,260.416 453.268,260.607 453.297,260.635 
	453.323,260.742 453.35,260.852 453.404,261.123 453.432,261.178 453.432,261.777 453.486,261.969 453.567,262.322 453.759,262.84 
	453.867,263.086 454.658,263.574 454.794,263.631 454.875,263.658 454.93,263.658 455.011,263.684 455.093,263.684 455.202,263.684 
	455.393,263.658 455.474,263.658 455.528,263.658 455.584,263.631 455.72,263.604 455.854,263.521 456.047,263.439 456.073,263.412 
	456.103,263.383 456.672,262.812 456.701,262.812 456.81,262.73 456.917,262.65 457.082,262.596 457.382,262.486 457.436,262.459 
	457.464,262.459 457.845,262.432 457.898,262.432 457.953,262.432 458.308,262.539 458.471,262.568 458.825,262.785 
	458.989,262.922 459.178,263.113 459.425,263.521 459.533,263.793 459.614,264.064 459.696,264.256 460.105,264.775 
	460.214,264.883 460.269,264.91 460.514,265.045 461.14,265.209 461.684,265.238 461.876,265.209 462.365,264.965 462.693,264.746 
	463.537,264.445 "/>
<polygon id="4600003" fill="#666666" stroke="#FFFFFF" points="281.754,141.115 281.562,140.896 281.481,140.842 
	281.044,140.542 280.581,140.326 279.846,140.38 279.601,140.326 278.893,140.461 278.812,140.461 278.647,140.461 277.421,140.189 
	276.904,139.943 276.359,139.645 275.814,139.29 275.324,139.1 274.726,138.936 274.344,138.8 273.881,138.473 273.554,138.337 
	272.273,137.302 271.593,137.057 271.103,137.057 270.885,137.002 270.204,136.703 268.952,136.322 268.434,136.212 268.161,136.13 
	268.025,136.13 267.29,136.24 266.799,136.294 266.391,136.24 265.464,136.022 264.729,136.077 263.803,135.886 262.577,135.614 
	261.978,135.313 261.732,135.232 261.106,135.095 260.152,134.933 259.935,134.933 259.31,134.769 258.628,134.497 258.192,134.278 
	258.083,134.197 257.947,133.897 257.729,132.78 257.675,132.59 257.511,132.126 257.483,131.745 257.267,130.411 257.13,129.104 
	256.939,127.986 256.885,127.823 256.776,127.633 256.504,127.278 256.203,126.925 255.823,126.597 255.333,126.488 
	253.507,126.325 252.608,126.325 252.362,126.352 251.057,126.789 249.477,127.387 249.095,127.469 248.822,127.469 
	248.305,127.333 247.678,127.006 247.324,126.679 246.998,126.216 246.971,125.943 246.998,125.153 247.242,124.01 247.406,123.738 
	247.596,123.464 248.087,123.056 248.468,122.811 249.503,122.402 249.612,122.321 249.775,122.13 250.048,121.776 250.184,121.532 
	250.238,121.341 250.293,121.176 250.266,121.041 249.775,120.115 249.694,119.952 249.612,119.897 249.177,119.706 
	248.631,119.652 248.087,119.625 246.998,119.461 246.562,119.461 246.371,119.434 245.936,119.271 245.526,119.08 245.062,118.753 
	244.382,118.044 244.273,117.909 244.001,117.472 243.92,117.282 243.729,116.438 243.729,116.166 243.838,115.048 243.865,114.831 
	243.892,114.749 244.328,114.041 244.819,112.598 244.981,111.671 245.254,110.663 245.444,109.601 245.444,108.947 245.391,108.62 
	245.119,107.967 244.573,106.469 244.41,106.306 244.191,106.169 243.865,106.06 243.593,106.005 242.775,105.979 242.476,105.896 
	242.067,105.761 242.013,105.707 241.904,105.406 241.795,105.188 241.468,104.834 241.033,104.507 240.516,104.263 
	240.134,104.018 239.888,103.799 239.753,103.609 239.644,103.363 239.562,102.928 239.588,102.438 239.807,101.484 
	239.888,101.238 240.106,100.885 240.324,100.395 240.379,100.313 240.678,100.122 240.95,99.905 241.168,99.877 241.414,99.932 
	241.769,100.041 242.121,100.204 242.258,100.286 243.021,101.021 243.267,101.348 243.729,102.138 244.001,102.547 244.438,103.01 
	245.582,104.127 246.861,104.507 247.515,104.644 248.169,104.699 248.687,104.862 248.85,104.834 249.748,104.371 250.021,103.991 
	250.457,103.173 251.192,102.356 251.383,102.029 251.873,101.458 252.499,100.83 253.315,100.204 255.358,98.924 256.177,97.97 
	256.477,97.534 256.611,97.208 256.666,96.99 256.666,96.663 256.586,96.336 256.095,95.029 255.687,93.966 255.55,93.177 
	255.414,91.352 255.168,89.772 255.142,89.446 255.142,88.574 255.168,88.274 255.44,87.647 255.849,86.994 256.395,86.313 
	256.885,85.769 257.13,85.632 257.511,85.55 258.247,85.632 260.644,86.612 261.732,86.694 261.978,86.694 262.06,86.667 
	262.441,86.421 262.55,86.067 262.55,85.741 262.468,85.523 262.332,85.305 261.353,84.433 260.834,83.833 260.615,83.48 
	260.234,82.417 260.099,81.546 260.099,81.22 260.152,80.62 260.234,80.457 261.978,77.706 262.523,76.371 262.659,75.69 
	262.714,74.573 262.769,73.948 262.74,73.539 263.095,72.558 263.421,71.687 263.64,70.869 263.64,70.596 263.504,70.08 
	263.421,69.78 263.34,69.589 263.095,69.044 263.04,68.935 262.823,68.717 262.277,68.227 261.76,67.601 261.353,67.192 
	261.135,66.838 260.997,66.266 260.671,64.986 260.726,64.687 260.861,64.358 261.079,63.95 262.387,62.316 262.495,62.071 
	262.577,61.472 262.823,60.9 262.823,60.791 262.823,60.546 262.823,60.41 262.55,59.92 262.169,59.348 262.005,58.994 
	261.896,58.667 261.678,58.204 261.297,57.604 260.834,57.059 260.479,56.732 260.371,56.597 259.99,56.079 259.935,55.916 
	259.717,55.098 259.444,53.954 259.444,53.9 259.173,53.301 258.273,51.938 257.701,51.394 257.429,51.177 257.211,51.094 
	256.967,51.094 256.504,51.257 256.203,51.312 255.114,51.257 254.516,51.257 254.161,51.204 253.671,51.014 253.235,50.741 
	252.771,50.386 252.554,50.142 252.227,49.433 252.2,49.297 252.173,49.215 252.227,48.67 252.309,48.371 252.391,48.207 
	252.744,47.663 253.181,47.227 253.78,46.899 254.487,46.273 254.814,45.783 254.978,45.375 255.006,45.157 255.358,43.495 
	255.333,43.005 255.523,43.005 255.687,42.297 255.877,41.807 256.203,41.208 256.422,40.989 256.911,40.636 257.157,40.526 
	257.539,40.445 257.783,40.417 258.845,40.472 259.31,40.39 259.69,40.281 260.426,39.791 260.671,39.546 260.78,39.328 
	261.135,38.401 261.161,37.557 261.135,37.095 260.671,35.896 260.426,35.433 259.744,34.071 259.473,33.499 259.281,33.035 
	259.036,32.519 258.981,32.219 258.273,30.367 257.838,29.359 257.675,28.814 257.565,28.351 257.511,27.752 257.593,26.635 
	257.593,26.335 257.483,25.954 257.293,25.545 257.103,25.382 256.694,25.137 256.64,25.137 255.768,24.482 255.087,23.53 
	253.534,21.951 253.372,21.841 253.099,21.786 252.227,21.16 251.682,20.207 251.057,20.207 245.281,20.18 245.254,20.18 
	244.11,20.152 241.249,20.125 240.624,20.098 239.153,20.125 238.554,20.098 238.172,20.098 236.103,20.098 232.807,20.044 
	232.153,20.044 229.892,20.044 229.729,20.016 228.884,20.016 228.449,20.016 227.85,20.016 227.632,19.989 221.612,19.934 
	221.339,19.934 219.541,19.907 219.378,19.907 218.506,19.907 218.126,19.88 217.907,19.88 217.717,19.88 216.492,19.88 
	216.409,19.88 215.483,19.853 213.114,19.798 212.325,19.798 211.016,19.771 210.253,19.771 210.009,19.771 208.429,19.744 
	208.156,19.744 207.993,19.744 205.706,19.744 204.397,19.716 204.098,19.716 198.841,19.607 198.596,19.581 197.887,19.581 
	195.273,19.526 193.83,19.499 192.687,19.472 192.63,19.472 191.678,19.472 191.269,19.444 190.534,19.444 190.207,19.444 
	188.791,19.39 188.491,19.39 188.437,19.39 188.409,19.417 187.211,19.363 186.993,19.363 185.494,19.335 185.059,19.335 
	184.078,19.308 182.989,19.281 182.389,19.281 178.848,19.199 178.031,19.199 177.241,19.172 177.106,19.172 176.778,19.145 
	176.697,19.145 176.697,19.172 173.673,19.09 172.475,19.063 172.365,19.063 171.004,19.009 170.569,19.009 170.513,19.009 
	170.459,19.009 169.969,19.009 169.479,18.981 169.452,18.981 168.907,18.981 168.825,18.981 168.771,18.981 168.172,18.955 
	167.899,18.955 166.891,18.927 165.856,18.899 164.358,18.873 160.708,18.763 160.327,18.763 159.074,18.708 159.02,18.736 
	158.093,18.708 157.113,18.682 156.922,18.682 156.812,18.682 156.432,18.655 156.241,18.655 155.751,18.627 155.479,18.627 
	154.47,18.6 154.444,18.6 153.763,18.573 153.382,18.573 152.946,18.545 151.883,18.518 149.214,18.463 148.833,18.437 
	148.288,18.437 146.708,18.383 145.673,18.355 144.637,18.3 144.174,18.3 143.439,18.273 143.14,18.273 143.059,18.273 
	142.078,18.246 141.533,18.246 139.463,18.192 138.401,18.164 135.869,18.082 133.253,18.001 132.763,18.001 130.747,17.919 
	129.685,17.892 127.289,17.81 127.016,17.81 125.49,17.755 124.401,17.702 123.584,17.674 122.875,17.674 121.895,17.647 
	120.806,17.592 119.743,17.565 118.736,17.537 116.284,17.456 115.875,17.43 114.541,17.402 114.159,17.374 112.607,17.32 
	111.462,17.292 108.357,17.184 108.031,17.184 106.26,17.102 105.907,17.102 105.198,17.048 105.089,17.048 102.147,16.966 
	98.906,16.83 97.98,16.802 95.909,16.721 93.812,16.639 93.404,16.611 92.941,16.611 89.7,16.476 86.894,16.367 80.657,16.122 
	74.61,15.849 74.474,20.371 74.447,21.078 74.447,21.351 74.147,29.795 73.602,43.522 73.602,44.04 73.576,44.176 73.548,44.857 
	73.466,47.418 73.466,47.663 73.412,48.316 73.357,50.333 73.166,55.263 73.14,56.65 73.031,58.721 73.003,59.375 72.649,68.172 
	72.376,74.464 72.404,74.546 71.995,83.398 72.022,83.535 71.097,83.562 70.824,92.305 70.77,92.877 70.498,99.959 70.47,99.986 
	70.416,101.321 70.361,103.145 70.361,103.173 70.28,104.807 70.251,105.27 70.251,105.46 70.116,109.057 70.062,110.2 
	69.926,113.305 69.898,114.068 69.79,116.056 69.707,117.881 69.353,126.707 69.271,128.831 69.162,131.527 69.136,131.745 
	68.917,137.057 68.754,142.069 68.646,144.874 72.459,145.038 75.346,145.147 75.373,145.147 86.731,145.637 87.956,145.691 
	88.665,145.719 91.633,145.828 91.906,145.828 92.479,145.855 92.996,145.881 93.295,145.881 93.513,145.909 93.568,145.909 
	99.505,146.127 99.669,141.986 99.723,139.563 99.723,139.235 99.778,137.819 95.855,137.684 93.568,137.628 93.622,136.593 
	93.731,133.461 93.812,131.31 94.057,131.31 94.057,131.146 94.221,127.714 94.249,126.952 94.331,125.699 94.303,125.399 
	94.303,125.344 94.357,124.337 94.521,120.66 94.575,118.889 94.575,118.753 94.603,118.236 94.63,117.991 94.63,117.827 
	94.657,116.819 94.684,116.22 94.712,116.056 94.712,115.783 94.848,112.706 94.875,112.706 95.311,112.706 95.855,112.733 
	97.136,112.761 99.969,112.87 100.976,112.896 101.657,112.924 101.984,112.924 102.42,112.952 102.774,112.952 106.097,113.088 
	106.669,113.115 108.14,113.169 109.146,113.196 110.182,113.224 110.264,113.224 110.673,113.25 110.809,113.25 110.836,113.25 
	110.999,113.224 114.323,113.36 114.704,113.36 124.973,113.714 125.599,113.741 125.816,107.559 126.062,107.559 126.171,103.446 
	126.253,101.375 126.416,96.254 126.688,87.212 126.716,85.795 126.825,82.608 126.907,82.608 128.486,82.663 131.046,82.718 
	131.074,82.772 133.008,82.827 133.09,82.827 138.318,82.963 138.346,82.963 138.618,82.99 139.164,82.99 139.272,82.99 
	140.607,83.017 140.634,83.017 141.315,83.044 141.533,83.072 143.221,83.126 143.385,83.099 145.346,83.181 155.261,83.453 
	159.973,83.562 162.316,83.589 163.159,83.616 163.215,83.616 171.032,83.808 173.074,83.888 173.429,83.888 174.11,83.916 
	174.982,83.916 175.308,83.916 175.362,83.943 175.362,84.08 175.335,84.951 175.036,98.543 174.845,107.422 174.817,108.893 
	174.763,111.181 174.681,115.048 174.545,121.667 174.518,121.695 174.408,127.605 174.382,128.041 174.382,128.559 
	174.327,130.057 174.327,130.601 174.301,132.536 174.273,132.998 174.273,133.707 173.945,133.679 173.81,140.08 173.783,141.088 
	173.673,145.283 173.673,145.5 173.673,146.263 173.592,149.504 173.565,150.43 173.565,151.275 173.537,151.956 173.537,152.201 
	173.537,152.5 173.51,153.263 173.51,153.535 173.51,153.618 173.51,153.753 173.455,155.605 173.455,156.123 173.401,158.738 
	172.802,158.711 172.749,160.317 172.749,160.809 172.666,164.294 172.639,164.948 172.611,166.718 172.583,169.116 
	172.583,169.606 172.53,171.158 172.53,171.186 172.502,172.929 172.502,173.255 172.42,176.278 172.393,176.416 172.393,178.458 
	172.393,179.247 172.365,179.303 172.203,179.11 172.067,179.11 171.931,179.357 171.685,179.576 171.468,179.791 171.412,179.928 
	171.468,180.065 171.494,180.364 171.548,180.418 171.577,180.638 171.494,180.638 171.412,180.664 171.386,180.583 
	171.276,180.472 171.168,180.228 171.086,180.146 170.896,180.175 170.623,180.556 170.459,180.583 169.616,180.501 
	169.044,180.282 168.416,180.091 168.363,180.146 168.363,180.201 168.444,180.501 168.389,180.638 168.28,180.801 167.926,180.827 
	167.708,180.747 167.626,180.556 167.573,180.12 167.764,179.928 167.817,179.709 167.79,179.601 167.626,179.384 167.491,178.976 
	167.301,178.92 167.301,179.084 167.136,179.357 167.027,179.41 166.864,179.357 166.755,179.329 166.51,179.438 166.237,179.629 
	166.155,179.657 166.074,179.657 165.747,179.494 165.666,179.384 165.611,179.329 165.449,179.276 165.366,179.303 
	165.257,179.384 165.257,179.547 165.284,179.847 165.148,179.982 164.958,179.902 164.631,179.902 164.631,179.982 164.74,180.091 
	164.74,180.228 164.521,180.418 164.277,180.528 164.14,180.583 163.732,180.583 163.677,180.556 163.159,180.556 159.973,180.472 
	156.487,180.391 154.825,180.338 154.744,180.338 153.708,180.31 153.3,180.31 153.083,180.31 147.661,180.175 146.164,180.12 
	141.833,180.009 135.595,179.847 131.482,179.657 131.183,179.601 131.128,179.547 131.156,179.438 131.292,179.276 
	131.292,179.221 131.346,179.084 131.482,179.002 131.782,179.002 131.972,178.813 131.864,178.403 131.892,178.103 
	131.945,178.048 132.164,177.996 132.327,177.885 132.436,177.667 132.463,177.532 132.436,177.422 132.517,177.285 
	132.872,177.259 132.954,177.341 133.062,177.422 133.198,177.396 133.226,177.341 133.198,177.15 133.28,176.933 133.498,176.933 
	133.579,176.852 133.634,176.741 133.498,176.441 133.498,176.387 133.579,176.224 133.689,176.089 133.771,176.033 
	133.934,176.089 134.151,176.033 134.261,175.953 134.315,175.842 134.506,175.597 134.532,175.325 134.697,175.08 134.86,174.862 
	134.997,174.753 135.377,174.59 135.595,174.318 135.623,174.236 135.623,174.209 135.377,174.018 135.35,173.91 135.35,173.854 
	135.405,173.773 135.541,173.664 135.704,173.581 136.004,173.529 136.112,173.418 136.167,173.366 136.276,173.281 136.44,173.066 
	136.521,173.01 136.658,172.874 136.849,172.657 136.984,172.548 137.093,172.385 137.093,172.249 137.284,172.003 137.338,172.03 
	137.637,171.867 137.556,171.704 137.447,171.539 137.394,171.349 137.394,171.213 137.394,170.939 137.475,170.642 
	137.502,170.259 137.583,170.041 137.828,169.361 138.074,168.979 138.101,168.871 138.101,168.708 137.883,168.626 
	137.828,168.435 137.883,168.271 138.128,168.134 138.183,167.945 138.183,167.834 129.331,167.535 127.669,167.482 
	123.147,167.317 111.79,166.937 108.222,166.828 107.459,166.828 102.502,166.636 101.167,166.583 100.54,166.556 99.995,166.556 
	97.027,166.446 93.594,166.336 92.288,166.31 89.537,166.228 80.003,165.901 69.408,165.547 67.718,165.492 67.419,172.874 
	67.393,173.119 66.902,184.832 66.902,184.858 66.902,185.158 66.819,186.628 66.684,190.634 66.603,192.432 66.438,195.945 
	66.331,198.668 66.138,203.326 66.084,204.879 66.084,205.423 66.058,205.939 65.704,214.902 65.622,217.027 65.213,226.695 
	68.455,226.75 69.762,226.805 71.914,226.941 75.264,227.076 77.606,227.16 77.688,227.16 82.836,227.375 86.078,227.486 
	87.875,227.594 90.054,227.676 90.081,227.676 92.805,227.785 93.704,227.812 93.731,227.812 93.785,227.812 99.042,228.004 
	102.038,228.113 102.366,228.113 103.209,228.139 113.207,228.494 113.26,228.494 120.07,228.738 128.595,229.039 129.984,229.066 
	130.965,229.119 136.085,229.256 138.237,229.338 142.242,229.447 142.35,229.447 143.358,229.475 146.873,229.582 149.296,229.637 
	149.514,229.637 149.622,229.637 151.121,229.691 153.572,229.748 153.817,229.748 167.982,230.1 168.28,230.1 170.051,230.154 
	171.386,230.182 177.024,230.291 177.296,230.291 180.102,230.348 187.211,230.672 191.814,230.779 193.965,230.809 
	194.265,230.809 196.444,230.836 196.744,230.836 198.351,230.836 201.701,230.861 212.433,230.973 212.487,231 212.568,230.973 
	212.625,230.973 217.117,231.025 222.21,231.109 224.145,231.135 224.417,231.162 226.324,231.135 226.623,231.162 229.32,231.162 
	229.374,231.162 230.301,231.189 231.362,231.162 234.495,231.189 237.545,231.217 238.717,231.246 241.604,231.246 
	243.674,231.271 243.838,231.271 244.001,231.246 247.706,231.246 247.76,231.246 248.251,231.246 248.74,231.246 248.904,231.246 
	251.954,231.246 254.106,231.271 258.083,231.299 258.382,231.299 261.814,231.326 262.142,231.326 266.281,231.354 
	266.281,230.729 266.281,230.236 266.281,229.5 266.281,227.949 266.281,225.279 266.281,223.756 266.281,223.236 266.281,221.982 
	265.491,221.982 265.491,221.141 265.491,221.031 265.491,220.402 265.491,220.215 265.491,219.641 265.491,219.586 
	265.491,219.533 265.491,219.07 265.491,218.008 265.491,217.844 265.491,214.902 265.491,212.805 265.491,211.279 265.491,210.489 
	265.491,209.699 265.491,207.738 265.52,206.541 265.52,203.624 265.52,203.462 265.52,203.191 265.52,200.305 265.52,200.057 
	265.52,199.295 265.52,199.023 265.52,196.952 265.438,196.898 264.647,196.87 264.675,195.318 264.702,195.289 264.675,194.283 
	264.702,190.687 264.702,189.054 264.702,187.555 264.675,186.002 264.702,184.423 264.702,180.31 264.702,179.957 264.647,179.957 
	264.157,180.31 263.694,180.664 263.53,180.747 263.395,180.638 263.259,180.338 263.177,180.282 262.904,180.282 262.714,180.418 
	262.604,180.583 262.523,180.664 262.495,180.719 262.495,180.855 262.169,181.182 262.142,181.182 262.087,181.153 
	261.952,181.153 261.896,181.153 261.843,181.153 261.706,181.1 261.624,181.019 261.297,180.501 261.188,179.982 261.024,179.494 
	260.915,179.329 260.753,179.276 260.644,179.276 260.017,179.684 259.717,179.791 259.418,179.791 259.173,179.738 
	259.118,179.709 259.118,172.574 259.118,172.438 259.145,170.37 257.757,170.37 257.757,165.984 257.757,164.159 257.757,159.746 
	257.783,158.384 257.783,157.866 257.783,151.629 257.783,147.299 257.811,145.446 258.819,145.446 263.911,145.446 
	263.994,145.446 265.001,145.446 265.029,145.446 265.138,145.446 266.172,145.446 266.935,145.446 267.208,145.446 
	268.106,145.446 268.215,145.446 269.25,145.446 270.15,145.446 272.329,145.474 273.254,145.474 277.067,145.446 279.791,145.419 
	279.791,145.063 279.846,144.846 279.9,144.738 281.425,143.239 282.052,142.423 282.134,142.258 282.162,142.069 "/>
<polygon id="4600001" fill="#666666" stroke="#FFFFFF" points="376.54,218.143 377.084,216.945 374.988,216.074 
	374.904,213.022 374.878,212.014 374.715,206.84 374.688,205.777 374.578,202.699 374.471,199.594 374.36,195.453 374.279,194.475 
	369.757,194.583 368.15,194.609 366.626,194.583 363.629,194.638 363.602,194.365 363.385,190.305 363.303,189.462 363.275,188.346 
	363.247,187.31 363.221,186.356 363.221,186.248 363.194,185.213 363.165,184.206 363.139,183.687 363.139,183.414 363.139,182.681 
	363.112,182.652 363.112,182.571 363.112,182.544 363.112,182.108 363.112,182.052 363.112,181.044 363.084,180.69 363.084,180.556 
	363.084,180.501 363.084,180.009 363.003,175.816 362.947,172.22 362.947,171.62 362.947,171.05 362.947,170.558 362.921,169.361 
	362.595,169.361 362.484,163.124 362.484,162.442 362.458,162.088 362.458,161.898 362.458,161.407 362.403,157.948 
	362.377,156.913 362.348,155.877 362.348,154.707 362.348,154.597 362.321,153.78 362.295,152.746 362.295,151.71 362.267,150.647 
	362.24,149.613 362.24,149.095 362.24,149.068 362.213,148.687 362.213,148.551 362.158,144.574 361.967,144.574 361.123,144.574 
	360.115,144.602 359.952,144.602 359.026,144.628 357.991,144.656 356.955,144.656 355.976,144.683 355.812,144.683 
	355.703,144.683 353.905,144.71 351.562,144.738 350.855,144.766 349.875,144.766 349.465,144.766 345.707,144.819 344.263,144.846 
	343.799,144.846 343.229,144.874 343.229,144.71 343.174,140.707 343.146,138.609 343.092,135.667 343.092,135.477 343.065,133.516 
	343.065,133.407 343.036,132.644 343.036,132.481 343.036,132.372 342.955,126.652 342.955,126.38 342.955,126.216 342.955,125.943 
	342.955,125.917 342.874,119.733 342.655,119.733 342.548,113.523 342.466,107.286 342.438,103.119 342.411,101.048 342.303,94.674 
	341.757,94.674 341.73,92.605 341.703,90.535 341.648,88.465 341.648,87.948 341.648,87.429 341.622,85.305 341.593,84.542 
	341.567,83.289 341.538,82.254 341.512,80.185 341.485,78.115 341.457,77.08 341.457,76.534 341.457,76.425 341.431,76.044 
	341.402,72.585 341.376,72.421 341.376,71.876 341.376,71.305 341.35,69.862 341.104,69.862 341.075,67.791 341.075,66.756 
	341.05,65.721 341.05,65.176 341.05,64.687 341.05,63.706 341.022,63.652 341.022,62.616 340.994,60.491 340.994,59.946 
	340.994,59.511 340.967,57.441 340.94,56.406 340.94,55.916 340.94,55.889 340.94,55.861 340.94,55.834 340.94,55.37 
	340.912,53.301 340.912,53.11 340.886,53.001 340.886,52.238 340.858,51.204 340.858,49.134 340.805,45.021 340.668,45.021 
	340.613,42.95 340.613,41.916 340.586,40.88 340.558,38.811 340.558,37.884 340.558,37.858 340.531,35.705 340.505,33.608 
	340.505,32.572 340.45,27.397 340.423,26.39 340.341,20.207 338.897,20.207 338.762,20.207 337.699,20.207 337.208,20.207 
	336.801,20.235 335.547,20.235 334.295,20.235 332.552,20.235 331.353,20.262 331.297,20.262 327.92,20.262 326.313,20.289 
	321.956,20.316 321.71,20.316 321.464,20.316 316.535,20.371 315.963,20.371 315.909,20.371 315.499,20.371 315.474,20.371 
	313.704,20.371 312.776,20.371 312.395,20.397 311.741,20.397 310.707,20.397 309.371,20.397 309.345,20.397 307.684,20.397 
	307.328,20.397 306.539,20.425 304.468,20.425 304.17,20.425 302.1,20.452 301.962,20.425 297.169,20.397 296.051,20.425 
	293.028,20.425 291.967,20.452 290.714,20.452 289.216,20.452 289.161,20.452 289.136,20.452 289.104,20.452 284.695,20.425 
	282.597,20.397 278.349,20.397 276.359,20.397 273.173,20.371 272.438,20.371 271.211,20.371 271.13,20.371 269.55,20.342 
	269.032,20.342 268.106,20.342 262.904,20.316 262.85,20.316 262.441,20.289 262.387,20.289 261.924,20.289 256.122,20.235 
	255.631,20.235 255.414,20.235 255.114,20.235 253.507,20.235 251.682,20.207 252.227,21.16 253.099,21.786 253.372,21.841 
	253.534,21.951 255.087,23.53 255.768,24.482 256.64,25.137 256.694,25.137 257.103,25.382 257.293,25.545 257.483,25.954 
	257.593,26.335 257.593,26.635 257.511,27.752 257.565,28.351 257.675,28.814 257.838,29.359 258.273,30.367 258.981,32.219 
	259.036,32.519 259.281,33.035 259.473,33.499 259.744,34.071 260.426,35.433 260.671,35.896 261.135,37.095 261.161,37.557 
	261.135,38.401 260.78,39.328 260.671,39.546 260.426,39.791 259.69,40.281 259.31,40.39 258.845,40.472 257.783,40.417 
	257.539,40.445 257.157,40.526 256.911,40.636 256.422,40.989 256.203,41.208 255.877,41.807 255.687,42.297 255.523,43.005 
	255.333,43.005 255.358,43.495 255.006,45.157 254.978,45.375 254.814,45.783 254.487,46.273 253.78,46.899 253.181,47.227 
	252.744,47.663 252.391,48.207 252.309,48.371 252.227,48.67 252.173,49.215 252.2,49.297 252.227,49.433 252.554,50.142 
	252.771,50.386 253.235,50.741 253.671,51.014 254.161,51.204 254.516,51.257 255.114,51.257 256.203,51.312 256.504,51.257 
	256.967,51.094 257.211,51.094 257.429,51.177 257.701,51.394 258.273,51.938 259.173,53.301 259.444,53.9 259.444,53.954 
	259.717,55.098 259.935,55.916 259.99,56.079 260.371,56.597 260.479,56.732 260.834,57.059 261.297,57.604 261.678,58.204 
	261.896,58.667 262.005,58.994 262.169,59.348 262.55,59.92 262.823,60.41 262.823,60.546 262.823,60.791 262.823,60.9 
	262.577,61.472 262.495,62.071 262.387,62.316 261.079,63.95 260.861,64.358 260.726,64.687 260.671,64.986 260.997,66.266 
	261.135,66.838 261.353,67.192 261.76,67.601 262.277,68.227 262.823,68.717 263.04,68.935 263.095,69.044 263.34,69.589 
	263.421,69.78 263.504,70.08 263.64,70.596 263.64,70.869 263.421,71.687 263.095,72.558 262.74,73.539 262.769,73.948 
	262.714,74.573 262.659,75.69 262.523,76.371 261.978,77.706 260.234,80.457 260.152,80.62 260.099,81.22 260.099,81.546 
	260.234,82.417 260.615,83.48 260.834,83.833 261.353,84.433 262.332,85.305 262.468,85.523 262.55,85.741 262.55,86.067 
	262.441,86.421 262.06,86.667 261.978,86.694 261.732,86.694 260.644,86.612 258.247,85.632 257.511,85.55 257.13,85.632 
	256.885,85.769 256.395,86.313 255.849,86.994 255.44,87.647 255.168,88.274 255.142,88.574 255.142,89.446 255.168,89.772 
	255.414,91.352 255.55,93.177 255.687,93.966 256.095,95.029 256.586,96.336 256.666,96.663 256.666,96.99 256.611,97.208 
	256.477,97.534 256.177,97.97 255.358,98.924 253.315,100.204 252.499,100.83 251.873,101.458 251.383,102.029 251.192,102.356 
	250.457,103.173 250.021,103.991 249.748,104.371 248.85,104.834 248.687,104.862 248.169,104.699 247.515,104.644 246.861,104.507 
	245.582,104.127 244.438,103.01 244.001,102.547 243.729,102.138 243.267,101.348 243.021,101.021 242.258,100.286 242.121,100.204 
	241.769,100.041 241.414,99.932 241.168,99.877 240.95,99.905 240.678,100.122 240.379,100.313 240.324,100.395 240.106,100.885 
	239.888,101.238 239.807,101.484 239.588,102.438 239.562,102.928 239.644,103.363 239.753,103.609 239.888,103.799 
	240.134,104.018 240.516,104.263 241.033,104.507 241.468,104.834 241.795,105.188 241.904,105.406 242.013,105.707 
	242.067,105.761 242.476,105.896 242.775,105.979 243.593,106.005 243.865,106.06 244.191,106.169 244.41,106.306 244.573,106.469 
	245.119,107.967 245.391,108.62 245.444,108.947 245.444,109.601 245.254,110.663 244.981,111.671 244.819,112.598 244.328,114.041 
	243.892,114.749 243.865,114.831 243.838,115.048 243.729,116.166 243.729,116.438 243.92,117.282 244.001,117.472 244.273,117.909 
	244.382,118.044 245.062,118.753 245.526,119.08 245.936,119.271 246.371,119.434 246.562,119.461 246.998,119.461 248.087,119.625 
	248.631,119.652 249.177,119.706 249.612,119.897 249.694,119.952 249.775,120.115 250.266,121.041 250.293,121.176 
	250.238,121.341 250.184,121.532 250.048,121.776 249.775,122.13 249.612,122.321 249.503,122.402 248.468,122.811 248.087,123.056 
	247.596,123.464 247.406,123.738 247.242,124.01 246.998,125.153 246.971,125.943 246.998,126.216 247.324,126.679 247.678,127.006 
	248.305,127.333 248.822,127.469 249.095,127.469 249.477,127.387 251.057,126.789 252.362,126.352 252.608,126.325 
	253.507,126.325 255.333,126.488 255.823,126.597 256.203,126.925 256.504,127.278 256.776,127.633 256.885,127.823 
	256.939,127.986 257.13,129.104 257.267,130.411 257.483,131.745 257.511,132.126 257.675,132.59 257.729,132.78 257.947,133.897 
	258.083,134.197 258.192,134.278 258.628,134.497 259.31,134.769 259.935,134.933 260.152,134.933 261.106,135.095 261.732,135.232 
	261.978,135.313 262.577,135.614 263.803,135.886 264.729,136.077 265.464,136.022 266.391,136.24 266.799,136.294 267.29,136.24 
	268.025,136.13 268.161,136.13 268.434,136.212 268.952,136.322 270.204,136.703 270.885,137.002 271.103,137.057 271.593,137.057 
	272.273,137.302 273.554,138.337 273.881,138.473 274.344,138.8 274.726,138.936 275.324,139.1 275.814,139.29 276.359,139.645 
	276.904,139.943 277.421,140.189 278.647,140.461 278.812,140.461 278.893,140.461 279.601,140.326 279.846,140.38 280.581,140.326 
	281.044,140.542 281.481,140.842 281.562,140.896 281.754,141.115 282.162,142.069 282.134,142.258 282.052,142.423 
	281.425,143.239 279.9,144.738 279.846,144.846 279.791,145.063 279.791,145.419 277.067,145.446 273.254,145.474 272.329,145.474 
	270.15,145.446 269.25,145.446 268.215,145.446 268.106,145.446 267.208,145.446 266.935,145.446 266.172,145.446 265.138,145.446 
	265.029,145.446 265.001,145.446 263.994,145.446 263.911,145.446 258.819,145.446 257.811,145.446 257.783,147.299 
	257.783,151.629 257.783,157.866 257.783,158.384 257.757,159.746 257.757,164.159 257.757,165.984 257.757,170.37 259.145,170.37 
	259.118,172.438 259.118,172.574 259.118,179.709 259.173,179.738 259.418,179.791 259.717,179.791 260.017,179.684 
	260.644,179.276 260.753,179.276 260.915,179.329 261.024,179.494 261.188,179.982 261.297,180.501 261.624,181.019 261.706,181.1 
	261.843,181.153 261.896,181.153 261.952,181.153 262.087,181.153 262.142,181.182 262.169,181.182 262.495,180.855 
	262.495,180.719 262.523,180.664 262.604,180.583 262.714,180.418 262.904,180.282 263.177,180.282 263.259,180.338 
	263.395,180.638 263.53,180.747 263.694,180.664 264.157,180.31 264.647,179.957 264.702,179.957 264.702,180.31 264.702,184.423 
	264.675,186.002 264.702,187.555 264.702,189.054 264.702,190.687 264.675,194.283 264.702,195.289 264.675,195.318 264.647,196.87 
	265.438,196.898 265.52,196.952 265.52,199.023 265.52,199.295 265.52,200.057 265.52,200.305 265.52,203.191 265.52,203.462 
	265.52,203.624 265.52,206.541 265.491,207.738 265.491,209.699 265.491,210.489 265.491,211.279 265.491,212.805 265.491,214.902 
	265.491,217.844 265.491,218.008 265.491,219.07 265.491,219.533 265.491,219.586 265.491,219.641 265.491,220.215 265.491,220.402 
	265.491,221.031 265.491,221.141 265.491,221.982 266.281,221.982 266.281,223.236 266.281,223.756 266.281,225.279 
	266.281,227.949 266.281,229.5 266.281,230.236 266.281,230.729 266.281,231.354 270.013,231.326 270.04,231.326 270.395,231.326 
	274.834,231.354 275.188,231.354 276.196,231.354 276.387,231.354 278.566,231.354 278.647,231.354 279.192,231.381 279.22,231.381 
	280.392,231.381 280.881,231.381 282.38,231.381 283.006,231.381 283.414,231.381 283.933,231.381 284.449,231.381 285.919,231.381 
	286.574,231.381 286.899,231.381 287.036,231.381 287.691,231.381 288.59,231.381 288.698,231.354 290.033,231.381 290.877,231.381 
	291.285,231.381 292.211,231.354 292.321,231.381 293.846,231.381 294.771,231.354 299.104,231.354 300.874,231.326 
	300.929,231.326 303.024,231.299 303.19,231.299 304.033,231.299 304.223,231.326 307.109,231.299 308.172,231.271 309.289,231.271 
	309.452,231.271 309.562,231.271 310.679,231.246 313.32,231.246 313.785,231.246 315.092,231.217 315.528,231.217 316.562,231.217 
	318.633,231.217 319.504,231.189 320.376,231.162 320.921,231.162 321.547,231.162 321.71,231.162 323.671,231.135 324.544,231.135 
	324.625,231.135 325.66,231.135 327.648,231.109 327.867,231.109 328.792,231.109 330.78,231.08 331.789,231.053 333.015,231.053 
	333.858,231.025 334.021,231.053 334.784,231.025 336.064,231.025 337.999,231 339.17,230.973 341.104,230.945 341.186,230.945 
	342.248,230.945 344.181,230.891 346.252,230.861 346.359,230.861 351.29,230.779 351.508,230.809 352.544,230.779 354.94,230.729 
	354.968,230.729 355.131,231.49 355.404,232.197 356.03,233.234 356.656,234.377 356.955,234.594 357.119,234.678 357.446,235.031 
	357.665,235.166 357.718,235.248 357.8,235.576 357.881,235.656 358.128,235.74 358.236,235.711 358.398,235.656 358.562,235.494 
	358.78,235.467 358.78,235.439 358.809,235.439 359.108,235.467 359.789,235.875 360.224,236.119 360.904,236.393 361.504,236.775 
	361.641,236.828 362.403,237.156 362.595,237.236 362.839,237.4 362.921,237.428 362.947,237.455 363.029,237.48 363.247,237.619 
	363.465,237.836 363.575,238 363.71,238.271 363.765,238.354 363.929,238.488 364.12,238.627 364.446,238.764 364.964,238.898 
	365.618,239.062 366.518,239.416 367.144,239.471 367.661,239.443 367.932,239.523 368.014,239.551 368.096,239.605 
	368.261,239.852 369.049,240.369 369.104,240.424 369.131,240.424 369.349,240.613 369.457,240.777 369.704,240.941 
	370.166,241.186 370.52,241.377 371.284,241.73 372.266,242.031 372.454,242.057 372.672,242.031 373.218,241.867 373.162,241.594 
	373.162,241.35 372.862,241.16 372.672,241.133 372.78,240.969 373.08,240.805 373.327,240.832 373.354,240.969 373.543,240.859 
	373.843,240.643 373.924,240.396 373.815,240.262 373.898,240.014 373.952,239.988 374.307,239.961 374.252,239.715 374.334,239.66 
	374.933,239.66 375.204,238.951 375.178,238.68 375.178,238.271 375.286,237.863 375.041,237.184 374.904,237.045 374.797,237.074 
	374.715,237.02 374.688,236.99 374.715,236.828 374.715,236.801 374.66,236.719 374.66,236.693 375.015,236.557 375.314,236.475 
	375.286,236.393 375.232,236.311 375.232,236.146 375.45,235.82 375.533,235.793 375.504,235.521 375.45,235.467 375.369,235.494 
	375.178,235.385 375.151,235.332 375.204,235.275 375.259,235.002 375.232,234.758 375.395,234.732 375.533,234.785 
	375.669,234.703 375.614,234.514 375.504,234.541 375.395,234.377 375.423,234.021 375.614,233.615 375.669,233.586 
	375.777,233.479 375.94,233.178 375.967,232.77 375.885,232.553 376.104,232.279 376.159,232.115 376.104,231.762 375.777,231.299 
	375.669,231.053 375.423,230.564 375.204,230.453 375.069,230.182 375.015,229.828 375.124,229.391 375.178,229.338 
	375.259,228.957 375.259,228.631 375.478,228.412 375.832,228.357 375.885,228.305 375.967,228.166 375.967,228.057 
	375.614,227.486 375.478,227.076 375.585,227.023 375.342,226.014 375.204,225.605 375.124,224.951 375.232,224.625 
	375.151,224.354 375.232,224.271 375.232,224.082 375.124,223.971 375.204,223.373 375.178,223.264 375.204,222.938 375.314,222.42 
	375.45,222.174 375.695,222.037 375.803,221.902 375.94,221.656 375.995,220.812 375.967,220.566 376.104,219.805 376.076,219.371 
	376.076,219.285 "/>
<polygon id="4600002" fill="#666666" stroke="#FFFFFF" points="459.288,164.839 459.288,164.729 459.125,160.699 
	459.125,160.562 459.097,159.663 459.097,159.556 459.042,158.438 459.042,158.384 459.016,157.594 459.016,157.431 
	458.989,156.531 458.96,156.395 458.96,155.524 458.934,155.388 458.907,154.461 458.879,154.326 458.879,154.215 458.852,153.427 
	458.852,153.291 458.689,148.061 458.471,141.905 458.334,138.8 458.308,137.792 458.308,137.738 458.279,136.757 458.279,136.539 
	458.226,135.776 458.226,135.641 458.226,135.559 458.198,134.741 458.226,134.633 458.171,133.652 458.171,133.57 458.145,132.671 
	458.116,132.508 458.09,131.609 458.09,131.5 458.09,131.282 458.063,130.601 458.063,130.22 458.008,129.376 457.979,128.531 
	457.979,128.096 457.927,126.434 457.845,124.392 457.816,123.138 457.79,123.029 457.764,122.294 457.764,122.13 457.734,121.259 
	457.681,119.706 457.627,118.971 457.599,118.263 457.572,117.064 457.572,117.037 457.354,110.827 457.354,110.799 457.19,106.659 
	457.163,105.652 457.136,104.562 456.999,101.539 457.027,101.458 456.972,100.422 456.917,99.659 456.917,99.386 456.917,99.25 
	456.891,98.87 456.891,98.461 456.891,98.378 456.891,98.325 456.646,92.277 456.646,92.086 456.618,91.08 456.591,90.78 
	456.429,87.076 456.401,86.013 456.401,85.877 456.237,81.846 456.21,81.382 456.21,80.811 456.21,80.702 456.154,79.803 
	456.154,79.667 456.154,79.613 456.129,78.605 456.073,77.679 456.103,77.596 455.992,75.635 455.992,75.527 455.938,73.62 
	455.91,73.402 455.854,71.632 455.803,69.862 455.803,69.753 455.773,69.453 455.666,67.219 455.584,65.149 455.556,64.142 
	455.556,64.06 455.528,63.706 455.528,63.542 455.502,63.079 455.447,62.834 455.421,62.806 455.366,62.752 455.284,62.698 
	455.256,62.589 455.229,62.398 455.202,62.371 455.011,61.963 454.767,61.745 454.685,61.635 454.658,61.499 454.63,61.391 
	454.604,61.199 454.574,61.119 454.549,61.09 454.275,60.573 454.059,60.165 453.949,59.838 453.894,59.702 453.541,58.939 
	453.35,58.775 452.86,58.367 452.532,58.204 451.824,57.658 451.362,57.468 450.926,57.359 450.6,57.332 449.782,57.005 
	449.292,56.732 448.911,56.57 448.611,56.352 447.766,55.834 447.003,55.562 446.95,55.535 446.922,55.535 446.568,55.479 
	446.296,55.479 446.24,55.453 445.751,55.479 445.723,55.479 445.396,55.425 445.369,55.425 444.689,55.535 444.279,55.453 
	444.008,55.479 443.764,55.453 443.599,55.398 443.464,55.289 443.354,55.18 443.327,55.153 443.136,54.99 443.054,54.881 
	442.728,54.5 442.617,54.363 442.591,54.309 442.564,54.253 442.154,53.627 441.447,52.62 441.066,52.211 441.012,52.102 
	440.767,51.53 440.686,51.067 440.467,50.686 440.411,50.55 440.385,50.278 440.304,49.978 439.949,49.215 439.894,49.024 
	439.459,48.125 439.213,47.69 438.397,46.655 438.18,46.301 437.716,45.646 437.443,45.401 437.28,45.32 435.537,43.168 
	435.237,42.813 435.101,42.625 435.074,42.596 434.938,42.433 434.801,42.27 434.583,42.052 434.365,41.807 434.42,41.561 
	434.611,41.152 434.638,40.826 434.665,40.717 434.774,40.2 434.964,39.382 435.127,38.947 435.345,38.674 435.374,38.646 
	435.509,38.483 435.727,38.401 435.781,38.375 435.809,38.348 435.836,38.292 435.863,38.292 437.062,37.285 437.117,37.23 
	437.606,36.877 437.88,36.686 437.906,36.631 439.023,35.814 439.213,35.542 439.541,34.97 439.785,34.78 441.447,33.581 
	442.617,32.928 443.354,32.464 443.354,32.437 443.379,32.41 443.408,32.382 443.572,32.219 443.845,31.974 443.898,31.892 
	444.334,31.375 444.797,30.448 444.825,30.421 444.907,30.094 444.907,30.04 444.934,29.767 444.934,29.686 445.042,29.44 
	445.342,28.896 445.369,28.678 445.452,28.515 445.56,28.406 445.914,28.161 446.051,28.051 446.159,27.943 446.187,27.915 
	446.27,27.833 446.377,27.616 446.432,27.562 446.704,27.044 446.95,26.635 447.113,26.499 447.413,26.281 447.549,26.09 
	447.576,26.063 447.603,26.036 447.766,25.6 447.849,25.083 447.849,24.729 447.875,24.592 447.983,24.374 447.983,24.129 
	447.983,24.102 448.012,23.04 447.931,22.795 447.902,22.686 448.039,22.304 447.983,21.978 448.012,21.242 448.147,21.133 
	448.147,20.916 448.147,20.397 448.12,20.098 448.175,19.907 448.201,19.853 448.201,19.826 448.312,19.607 448.283,19.581 
	448.257,19.499 448.201,19.444 448.175,19.335 448.147,19.172 448.175,19.09 448.312,18.899 448.283,18.791 448.257,18.41 
	448.283,17.755 447.603,17.783 447.085,17.81 446.596,17.837 446.104,17.837 445.56,17.864 444.525,17.892 443.464,17.919 
	442.427,17.946 441.393,17.974 440.358,18.001 440.222,18.001 439.812,18.028 438.287,18.082 436.898,18.11 436.545,18.164 
	436.218,18.164 434.557,18.218 434.283,18.246 433.875,18.246 432.051,18.3 431.778,18.328 430.634,18.355 428.155,18.437 
	427.61,18.437 426.548,18.463 426.467,18.518 425.513,18.518 421.345,18.627 420.582,18.682 419.249,18.736 415.08,18.873 
	410.886,18.981 410.56,19.009 408.789,19.036 402.606,19.199 402.579,19.199 402.523,19.199 402.497,19.199 402.415,19.227 
	401.927,19.227 400.564,19.254 399.392,19.281 396.313,19.363 394.816,19.39 391.684,19.472 390.05,19.499 388.606,19.554 
	387.68,19.554 387.298,19.581 383.812,19.635 382.424,19.662 378.609,19.744 377.603,19.744 377.194,19.744 376.132,19.771 
	373.027,19.826 371.419,19.853 367.824,19.934 367.333,19.934 367.279,19.934 363.684,19.989 358.972,20.07 357.446,20.098 
	355.838,20.125 353.688,20.125 353.661,20.125 352.762,20.125 351.209,20.152 346.552,20.152 345.298,20.152 344.999,20.152 
	343.854,20.18 343.446,20.18 340.341,20.207 340.423,26.39 340.45,27.397 340.505,32.572 340.505,33.608 340.531,35.705 
	340.558,37.858 340.558,37.884 340.558,38.811 340.586,40.88 340.613,41.916 340.613,42.95 340.668,45.021 340.805,45.021 
	340.858,49.134 340.858,51.204 340.886,52.238 340.886,53.001 340.912,53.11 340.912,53.301 340.94,55.37 340.94,55.834 
	340.94,55.861 340.94,55.889 340.94,55.916 340.94,56.406 340.967,57.441 340.994,59.511 340.994,59.946 340.994,60.491 
	341.022,62.616 341.022,63.652 341.05,63.706 341.05,64.687 341.05,65.176 341.05,65.721 341.075,66.756 341.075,67.791 
	341.104,69.862 341.35,69.862 341.376,71.305 341.376,71.876 341.376,72.421 341.402,72.585 341.431,76.044 341.457,76.425 
	341.457,76.534 341.457,77.08 341.485,78.115 341.512,80.185 341.538,82.254 341.567,83.289 341.593,84.542 341.622,85.305 
	341.648,87.429 341.648,87.948 341.648,88.465 341.703,90.535 341.73,92.605 341.757,94.674 342.303,94.674 342.411,101.048 
	342.438,103.119 342.466,107.286 342.548,113.523 342.655,119.733 342.874,119.733 342.955,125.917 342.955,125.943 
	342.955,126.216 342.955,126.38 342.955,126.652 343.036,132.372 343.036,132.481 343.036,132.644 343.065,133.407 343.065,133.516 
	343.092,135.477 343.092,135.667 343.146,138.609 343.174,140.707 343.229,144.71 343.229,144.874 343.799,144.846 344.263,144.846 
	345.707,144.819 349.465,144.766 349.875,144.766 350.855,144.766 351.562,144.738 353.905,144.71 355.703,144.683 355.812,144.683 
	355.976,144.683 356.955,144.656 357.991,144.656 359.026,144.628 359.952,144.602 360.115,144.602 361.123,144.574 
	361.967,144.574 362.158,144.574 362.213,148.551 362.213,148.687 362.24,149.068 362.24,149.095 362.24,149.613 362.267,150.647 
	362.295,151.71 362.295,152.746 362.321,153.78 362.348,154.597 362.348,154.707 362.348,155.877 362.377,156.913 362.403,157.948 
	362.458,161.407 362.458,161.898 362.458,162.088 362.484,162.442 362.484,163.124 362.595,169.361 362.921,169.361 
	362.947,170.558 362.947,171.05 362.947,171.62 362.947,172.22 363.003,175.816 363.084,180.009 363.084,180.501 363.084,180.556 
	363.084,180.69 363.112,181.044 363.112,182.052 363.112,182.108 363.112,182.544 363.112,182.571 363.112,182.652 363.139,182.681 
	363.139,183.414 363.139,183.687 363.165,184.206 363.194,185.213 363.221,186.248 363.221,186.356 363.247,187.31 363.275,188.346 
	363.303,189.462 363.385,190.305 363.602,194.365 363.629,194.638 366.626,194.583 368.15,194.609 369.757,194.583 374.279,194.475 
	374.36,195.453 374.471,199.594 374.578,202.699 374.688,205.777 374.715,206.84 374.878,212.014 374.904,213.022 374.988,216.074 
	377.084,216.945 376.54,218.143 376.076,219.285 376.076,219.371 376.104,219.805 375.967,220.566 375.995,220.812 375.94,221.656 
	375.803,221.902 375.695,222.037 375.45,222.174 375.314,222.42 375.204,222.938 375.178,223.264 375.204,223.373 375.124,223.971 
	375.232,224.082 375.232,224.271 375.151,224.354 375.232,224.625 375.124,224.951 375.204,225.605 375.342,226.014 
	375.585,227.023 375.478,227.076 375.614,227.486 375.967,228.057 375.967,228.166 375.885,228.305 375.832,228.357 
	375.478,228.412 375.259,228.631 375.259,228.957 375.178,229.338 375.124,229.391 375.015,229.828 375.069,230.182 
	375.204,230.453 375.423,230.564 375.669,231.053 375.777,231.299 376.104,231.762 376.159,232.115 376.104,232.279 
	375.885,232.553 375.967,232.77 375.94,233.178 375.777,233.479 375.669,233.586 375.614,233.615 375.423,234.021 375.395,234.377 
	375.504,234.541 375.614,234.514 375.669,234.703 375.533,234.785 375.395,234.732 375.232,234.758 375.259,235.002 
	375.204,235.275 375.151,235.332 375.178,235.385 375.369,235.494 375.45,235.467 375.504,235.521 375.533,235.793 375.45,235.82 
	375.232,236.146 375.232,236.311 375.286,236.393 375.314,236.475 375.015,236.557 374.66,236.693 374.66,236.719 374.715,236.801 
	374.715,236.828 374.688,236.99 374.715,237.02 374.797,237.074 374.904,237.045 375.041,237.184 375.286,237.863 375.178,238.271 
	375.178,238.68 375.204,238.951 374.933,239.66 374.334,239.66 374.252,239.715 374.307,239.961 373.952,239.988 373.898,240.014 
	373.815,240.262 373.924,240.396 373.843,240.643 373.543,240.859 373.354,240.969 373.327,240.832 373.08,240.805 372.78,240.969 
	372.672,241.133 372.862,241.16 373.162,241.35 373.162,241.594 373.218,241.867 373.461,241.812 373.543,241.812 374.007,242.33 
	374.497,243.148 374.578,243.203 375.614,243.883 375.777,244.018 376.321,244.674 376.677,244.918 376.947,245.027 377.765,245.68 
	378.01,245.951 378.094,246.17 378.175,246.553 378.364,246.689 378.609,246.822 378.827,246.852 378.882,246.852 378.99,246.879 
	379.127,246.906 379.155,246.934 379.208,246.961 379.318,247.014 379.372,247.014 379.481,247.123 380.436,247.234 380.651,247.26 
	381.033,247.098 381.198,247.178 381.307,247.152 381.714,247.014 382.505,246.66 383.323,246.742 383.757,246.689 383.922,246.66 
	384.63,246.197 384.819,246.008 385.311,245.379 385.337,245.354 385.392,245.271 385.418,245.271 385.692,245.162 386.046,244.781 
	386.235,244.508 386.78,243.555 386.998,243.311 387.08,243.148 387.245,242.492 387.489,241.84 387.542,241.24 387.68,240.941 
	387.708,240.777 387.627,240.586 387.627,240.479 387.708,240.15 387.871,240.043 388.197,239.852 388.606,239.689 388.905,239.58 
	389.097,239.523 389.259,239.471 389.341,239.471 389.723,239.416 389.832,239.389 389.858,239.389 390.132,239.389 
	390.267,239.471 390.731,239.881 391.384,240.068 391.575,240.125 391.657,240.15 392.256,240.451 392.99,240.695 393.508,240.725 
	394.081,240.725 394.244,240.668 395.798,240.777 395.824,240.777 396.831,241.023 397.594,241.105 398.548,241.023 
	398.984,240.941 399.092,240.914 399.311,240.805 399.474,240.75 399.665,240.668 400.265,240.396 400.646,240.178 400.835,240.098 
	401.026,239.988 401.08,239.988 401.19,239.961 401.49,239.852 401.897,239.852 401.927,239.881 402.143,239.988 402.523,240.15 
	403.451,240.424 404.104,240.561 404.866,240.506 404.921,240.506 405.247,240.424 405.657,240.342 405.82,240.287 405.928,240.262 
	406.501,240.068 407.074,239.715 407.29,239.797 407.373,239.932 407.537,240.068 407.781,240.178 408.137,240.262 408.87,240.232 
	409.333,240.314 409.498,240.369 409.633,240.479 409.851,240.533 410.368,240.506 410.532,240.424 410.886,240.125 
	410.886,240.098 411.213,239.715 411.241,239.605 411.322,239.389 411.649,239.062 411.812,238.951 411.841,238.951 
	411.867,238.924 412.004,238.898 412.03,238.898 412.086,238.871 412.112,238.871 412.14,238.871 412.274,238.898 412.304,238.898 
	412.33,238.924 412.574,239.09 412.848,239.145 413.747,239.033 413.828,239.199 414.183,239.523 414.265,239.58 414.564,239.742 
	414.673,239.77 415.626,239.66 415.897,239.58 416.171,239.471 416.278,239.389 416.361,239.281 416.389,239.25 416.497,239.199 
	416.771,239.117 416.823,239.09 417.179,238.898 417.288,238.789 417.396,238.764 417.451,238.789 417.588,238.871 417.641,238.898 
	417.723,238.98 418.296,239.605 418.813,239.689 418.895,239.715 419.031,239.715 419.466,239.797 420.038,239.689 420.065,239.66 
	420.312,239.551 420.338,239.551 420.419,239.551 420.475,239.551 421.019,239.715 421.209,239.77 421.236,239.77 421.345,239.824 
	421.674,240.014 421.973,240.178 422.055,240.205 422.055,240.232 422.107,240.369 422.107,241.377 422.137,241.486 422.299,241.84 
	422.299,241.867 422.326,242.004 422.354,242.031 422.354,242.086 422.407,242.547 422.489,242.713 422.571,242.82 422.87,243.012 
	423.089,243.064 423.688,243.092 423.77,243.092 424.232,243.203 424.587,243.203 424.832,243.256 425.023,243.311 425.186,243.42 
	425.704,243.719 426.03,244.1 426.111,244.154 426.141,244.211 426.222,244.348 426.386,244.564 426.412,244.592 426.412,244.617 
	426.439,244.674 426.467,244.727 426.467,244.891 426.604,245.162 426.604,245.189 426.685,245.271 426.767,245.354 
	426.767,245.379 426.793,245.379 427.802,245.516 428.347,245.49 428.617,245.516 429.19,245.436 429.49,245.326 429.897,245.246 
	430.171,245.246 430.226,245.246 430.934,245.379 431.914,245.654 432.077,245.816 432.296,245.871 432.377,245.898 432.54,245.898 
	432.84,245.926 433.521,246.008 434.039,246.035 434.583,245.951 434.611,245.951 434.638,245.951 434.746,245.98 434.774,245.98 
	434.964,246.09 435.318,246.389 435.727,247.289 435.755,247.342 435.781,247.451 435.755,247.641 435.537,248.322 435.563,248.514 
	435.592,248.65 435.674,248.785 435.781,248.84 436.081,248.895 436.437,248.84 436.844,248.676 437.062,248.539 437.389,248.322 
	437.716,248.021 437.906,247.941 438.587,247.752 438.613,247.752 438.668,247.779 438.697,247.805 438.724,247.805 438.86,247.887 
	438.887,247.914 438.997,247.971 439.05,247.996 439.678,248.322 440.411,248.377 441.066,248.596 441.638,249.004 441.991,249.195 
	442.728,249.439 442.917,249.439 443.245,249.467 443.572,249.549 443.953,249.711 443.926,248.785 443.871,248.076 
	443.845,247.479 443.845,247.451 443.734,244.316 443.734,244.266 443.653,241.186 443.464,234.922 443.464,234.158 
	443.435,233.859 443.272,228.686 443.245,227.648 443.136,224.625 443.136,224.545 443.108,223.482 443.054,222.445 
	436.898,222.639 432.84,222.801 432.296,222.801 431.751,222.828 431.288,222.855 431.26,222.855 430.742,222.855 429.708,222.91 
	425.05,223.047 425.023,223.047 424.994,223.047 424.859,223.047 424.724,223.047 424.587,223.074 424.587,222.828 424.587,222.801 
	424.587,222.721 424.587,222.691 424.587,222.582 424.561,222.283 424.506,220.732 424.506,220.402 424.479,218.904 
	424.424,217.789 424.424,217.135 424.397,216.809 424.016,216.836 418.24,217.027 414.835,217.135 414.617,217.135 411.976,217.217 
	411.841,212.831 411.841,212.695 411.812,211.523 411.786,210.98 411.649,207.875 411.595,205.803 411.567,204.742 411.486,202.672 
	411.376,198.531 411.35,198.505 411.322,197.307 411.322,196.98 411.213,193.52 410.287,193.548 407.781,193.602 406.745,193.629 
	405.712,193.656 405.275,193.656 405.058,193.684 403.996,193.711 403.723,193.711 402.96,193.739 400.564,193.793 400.428,188.617 
	400.428,187.583 400.399,186.547 400.373,185.485 400.346,184.45 400.291,182.298 400.291,181.89 400.291,181.834 400.291,181.319 
	400.154,177.15 400.073,176.142 400.073,176.116 399.991,175.08 399.991,174.536 399.965,174.047 399.937,173.01 399.909,171.948 
	399.854,168.708 406.012,168.571 412.167,168.435 412.222,168.435 413.229,168.407 415.299,168.352 416.688,168.299 
	416.823,168.299 417.37,168.299 418.377,168.271 424.561,168.108 424.75,168.108 430.742,167.917 430.797,167.917 431.179,167.89 
	431.723,167.89 431.751,167.862 432.051,167.862 432.813,167.834 433.494,167.808 433.847,167.808 434.23,167.78 434.856,167.78 
	435.618,167.754 436.844,167.699 436.954,167.699 437.988,167.672 438.887,167.645 441.584,167.535 441.91,167.535 442.999,167.508 
	442.999,167.482 443.108,167.482 445.233,167.399 445.423,167.399 446.404,167.372 449.127,167.291 449.183,167.264 
	449.318,167.264 450.163,167.264 450.355,167.264 450.98,167.236 453.486,167.153 455.311,167.099 455.556,167.099 456.265,167.073 
	456.346,167.073 457.109,166.991 457.436,166.964 457.464,166.964 457.653,166.937 459.37,166.828 "/>
</svg>
