<?xml version="1.0" encoding="utf-8"?>
<!-- Generator: Adobe Illustrator 13.0.2, SVG Export Plug-In . SVG Version: 6.00 Build 14948)  -->
<!DOCTYPE svg PUBLIC "-//W3C//DTD SVG 1.1//EN" "http://www.w3.org/Graphics/SVG/1.1/DTD/svg11.dtd">
<svg  version="1.1" style="background-color: #000000;"  id="Layer_1" xmlns="http://www.w3.org/2000/svg" xmlns:xlink="http://www.w3.org/1999/xlink" x="0px" y="0px"
	 width="500px" height="400px" viewBox="-2.338 -9.337 500 400" enable-background="new -2.338 -9.337 500 400"
	 xml:space="preserve">
<polyline id="0814500" fill="#666666" stroke="#FFFFFF" stroke-width="0.75"  points="219.885,75.956 223.965,76.135 224.973,76.225 225.624,76.27 
	226.7,76.382 226.924,76.426 228.268,76.516 230.98,76.763 231.587,76.785 232.304,76.627 233.558,76.673 233.738,76.695 
	233.961,76.695 234.029,76.718 236.137,76.763 238.266,76.92 238.468,76.942 238.782,76.987 239.477,77.032 239.745,77.054 
	240.306,77.076 240.328,77.1 241.493,77.144 241.941,77.166 243.175,77.233 243.175,77.211 244.228,77.278 246.56,77.368 
	246.513,78.242 246.47,79.094 246.379,80.819 246.335,81.693 246.335,81.739 246.313,82.389 246.313,82.546 246.268,82.949 
	246.268,82.971 246.268,83.016 246.245,83.397 246.245,83.42 246.223,83.845 246.223,83.89 246.155,85.124 246.133,85.302 
	246.133,85.325 246.087,85.998 246.066,86.423 246.043,87.186 246.021,87.432 246.021,87.454 245.999,87.544 245.999,87.679 
	245.999,87.723 245.954,88.799 245.931,89.181 245.91,89.539 245.91,89.562 245.91,89.584 245.91,89.673 245.888,89.854 
	245.888,90.077 245.863,90.145 245.842,90.682 245.842,90.75 245.773,92.05 245.752,92.453 245.752,92.542 245.729,92.789 
	245.729,92.833 245.729,92.878 245.842,92.878 245.842,92.9 245.797,93.708 245.773,94.178 245.773,94.336 245.17,94.56 
	245.17,94.649 245.483,94.537 245.483,94.829 245.663,95.03 245.729,95.008 245.707,95.434 245.684,95.815 245.46,95.815 
	245.483,95.412 245.281,95.389 245.258,95.792 244.989,95.792 244.833,95.792 244.654,95.771 244.631,96.219 244.608,96.219 
	243.981,96.173 243.958,96.577 243.197,96.533 243.13,96.6 242.972,96.712 242.927,96.846 243.084,97.138 243.084,97.227 
	242.951,97.092 242.951,97.07 242.882,96.958 242.681,96.667 242.704,96.6 242.704,96.555 242.704,96.106 243.152,96.128 
	243.152,96.017 243.152,95.703 242.636,95.658 242.591,95.434 242.367,95.412 242.345,95.412 242.322,95.837 242.322,96.263 
	242.322,96.353 241.896,96.309 241.853,96.913 241.785,96.913 241.807,96.98 241.807,97.025 241.785,97.047 241.381,96.98 
	241.336,97.765 241.314,97.765 240.529,97.743 240.506,97.72 238.691,97.631 238.332,97.586 238.176,97.607 237.975,97.586 
	237.57,97.563 237.257,97.519 235.283,97.452 234.187,97.383 233.872,97.361 232.729,97.316 231.921,97.271 231.227,97.25 
	231.205,97.25 230.106,97.205 230.129,96.487 230.174,96.017 230.174,95.904 230.039,95.904 229.882,96.039 229.749,96.062 
	229.591,96.017 229.479,95.882 229.413,96.039 229.255,96.219 229.143,96.083 229.053,96.039 228.828,96.062 228.74,96.039 
	228.426,95.725 228.402,95.636 228.314,95.612 228.202,95.612 228.089,95.658 227.999,95.658 227.932,95.725 227.752,95.815 
	227.619,95.904 225.534,95.792 225.468,95.792 219.84,95.479 217.734,95.321 217.756,95.277 217.6,95.299 217.42,95.232 
	217.263,95.008 217.129,94.918 216.995,94.761 216.971,94.694 216.971,94.224 217.398,93.753 217.263,93.686 217.219,93.08 
	217.331,92.744 217.487,92.52 217.51,92.317 217.398,92.162 217.51,91.87 217.532,91.624 217.353,91.557 217.286,91.512 
	217.263,91.444 217.286,91.288 217.331,91.22 217.375,90.929 217.398,90.391 217.442,90.345 217.688,90.481 217.801,90.481 
	217.936,90.458 218.048,90.391 218.294,90.345 218.384,90.369 218.653,90.391 219.102,90.121 219.079,89.987 219.235,89.763 
	219.505,89.449 219.639,89.404 219.661,89.338 219.796,88.799 219.371,88.194 219.303,87.993 219.28,87.925 219.371,87.835 
	219.415,87.723 219.505,87.544 220.043,87.005 220.065,86.938 220.109,86.603 220.065,86.536 220.043,86.423 220.177,85.795 
	220.132,85.481 220.087,85.37 220.087,85.101 220.199,84.719 220.423,84.608 220.535,84.451 220.535,84.047 220.49,83.487 
	220.401,83.24 220.311,83.196 220.267,83.128 220.29,82.904 220.29,82.791 219.393,82.41 219.348,82.322 219.303,82.253 
	219.19,82.142 218.967,82.052 218.899,81.985 218.877,81.873 218.922,81.806 218.787,81.716 218.743,81.492 218.787,81.47 
	218.832,81.425 218.855,81.335 218.967,81.29 218.922,81.179 218.922,81.133 218.899,80.909 218.787,80.349 218.653,80.282 
	218.562,80.169 218.586,79.654 218.675,79.318 218.765,79.251 218.944,79.027 218.944,78.488 219.102,77.816 219.303,77.233 
	219.526,76.875 219.549,76.627 219.616,76.606 220.132,76.65 220.267,76.606 220.132,76.516 219.975,76.382 219.975,76.336 
	219.975,76.112 219.885,75.956 "/>
<polygon id="0817820" fill="#666666" stroke="#FFFFFF" stroke-width="0.75"  points="287.264,146.673 285.112,146.539 282.893,146.472 
	282.646,146.449 281.727,146.404 280.091,146.314 279.621,146.314 279.44,146.314 277.536,146.225 277.312,146.203 277.043,146.181 
	276.706,146.158 273.3,146.001 272.447,145.957 270.363,145.845 269.893,145.821 269.759,145.799 269.152,145.777 268.885,145.754 
	268.704,145.754 268.658,145.754 268.257,145.732 267.897,145.732 267.83,145.732 265.88,145.643 265.79,145.643 265.343,145.621 
	264.177,145.552 264.088,145.552 263.886,145.552 263.504,145.53 263.28,145.508 262.967,145.508 262.742,145.485 262.339,145.463 
	262.227,145.463 262.025,145.44 261.935,145.44 261.778,145.44 261.666,145.418 261.622,145.418 261.554,145.418 261.308,145.418 
	261.016,145.396 260.859,145.373 260.747,145.373 260.657,145.373 260.187,145.351 260.143,145.351 260.03,145.351 259.693,145.329 
	259.491,145.306 259.402,145.306 258.506,145.261 258.416,145.261 258.125,145.239 257.833,145.239 257.811,145.239 257.52,145.216 
	257.474,145.216 257.407,145.216 257.317,145.194 257.161,145.194 256.803,145.172 256.533,145.149 256.511,145.149 
	256.241,145.149 256.107,145.149 256.062,145.149 256.018,145.149 255.906,145.127 255.009,145.082 254.919,145.082 254.584,145.06 
	254.09,145.037 253.372,144.991 253.171,144.991 253.126,144.991 252.992,144.97 252.946,144.97 252.589,144.947 251.938,144.924 
	251.805,144.903 251.646,144.903 251.624,144.903 251.49,144.903 251.198,144.88 251.176,144.88 251.043,144.88 250.931,144.88 
	250.236,144.836 250.19,144.836 249.989,144.813 249.45,144.791 249.407,144.791 248.934,144.769 247.971,144.723 245.863,144.611 
	245.773,144.589 244.16,144.521 243.958,144.5 240.664,144.342 238.131,144.208 233.828,143.984 233.021,143.939 230.6,143.782 
	230.533,143.782 230.106,151.874 230.016,153.823 229.927,155.976 229.77,158.867 229.726,159.315 229.681,159.898 229.143,169.402 
	232.236,169.625 233.311,169.647 233.132,170.837 233.021,172.584 235.308,172.696 238.982,172.898 240.729,172.942 
	241.336,172.787 241.538,172.719 242.367,172.853 243.354,172.921 244.228,172.988 246.626,173.167 246.491,175.611 
	246.447,176.821 246.379,178.009 246.335,178.928 246.289,180.003 246.245,180.9 246.649,180.877 251.535,181.146 252.902,181.192 
	255.479,181.349 255.592,181.371 256.466,181.415 257.991,181.506 260.434,181.573 260.568,181.573 260.657,181.573 
	260.726,181.573 261.308,181.618 266.396,181.864 270.498,182.021 271.819,182.088 276.684,182.269 279.621,182.381 
	280.875,182.402 280.875,182.381 281.705,182.424 282.31,182.468 284.619,182.581 285.448,182.581 285.963,182.604 286.815,182.648 
	286.838,181.303 286.949,179.22 286.973,178.479 287.062,176.642 287.085,175.745 287.241,173.189 287.286,172.45 287.33,172.45 
	287.354,171.576 287.376,170.23 287.376,169.984 287.376,169.827 287.443,167.452 287.443,167.228 287.443,167.206 287.532,164.649 
	287.532,164.248 287.555,164.044 287.577,162.991 287.6,162.969 287.622,162.094 287.891,157.813 287.938,157.051 287.938,156.648 
	288.003,155.236 288.138,151.829 288.451,146.718 "/>
<path id="0819740" fill="#666666" d="M305.643,95.569h-0.738l-0.113-0.023l-1.566-0.045l-0.965-0.044h-0.269l-2.488-0.112h-0.38
	l-0.068-0.045l-0.089,0.022l-1.056-0.022l-2.554-0.112l-2.13-0.089l-0.155-0.022l-1.57-0.067l-1.389-0.045h-0.269l-2.017-0.089
	l-1.233-0.045l-0.358-0.023l-0.852-0.021l-3.385-0.156l-2.532-0.112l-2.51-0.112l-0.853-0.045l-1.705-0.09l-0.829-0.044
	l-0.516-0.023h-0.336l-0.83-0.044l-0.853-0.022l-0.47-0.023l-1.232-0.067L268.503,94l-1.144-0.046l-0.762-0.044l-0.582-0.022h-0.023
	h-0.112h-0.18l-0.896-0.067h-0.021l-2.757-0.112l-0.269-0.022h-0.068h-0.335l-0.449-0.022l-0.493-0.022h-0.224h-0.092h-0.021
	l-0.807-0.067h-0.046l-0.178-0.023l-1.503-0.066h-0.091l-0.155-0.023h-0.021h-0.067h-0.022l-0.427-0.023l-0.155-0.021h-0.069h-0.021
	h-0.044h-0.022h-0.023h-0.021h-0.022h-0.021h-0.022h-0.045h-0.022h-0.021h-0.023l-0.045-0.022h-0.225h-0.021l-0.449-0.023
	l-0.537-0.021l-0.38-0.022l-0.404-0.023l-0.853-0.021l-1.614-0.067l-0.044-0.023h-0.022l-0.852-0.045h-0.156l-0.224-0.022h-0.47
	l-0.381-0.022v-0.359h0.113l0.201,0.202l0.089,0.022l0.024-0.471l-0.36-0.044l0.022-0.449l-0.469-0.022h-0.022v0.202h-0.022
	l-0.334-0.022l-0.023,0.448l-0.494-0.022l-0.426-0.022l-0.028,0.448l-1.592-0.089l-0.381-0.023l-0.045,0.808l-0.022,0.47v0.158
	l-0.605,0.224v0.09l0.314-0.113v0.292l0.18,0.202l0.067-0.022l-0.023,0.425l-0.022,0.381h-0.224l0.024-0.404l-0.204-0.023
	l-0.021,0.403h-0.269h-0.156l-0.179-0.021l-0.022,0.448h-0.021l-0.629-0.046l-0.022,0.405l-0.762-0.045l-0.068,0.067l-0.156,0.112
	l-0.044,0.134l0.156,0.292v0.089l-0.135-0.135V97.07l-0.068-0.112l-0.201-0.292l0.022-0.067v-0.045v-0.449l0.447,0.022v-0.112
	v-0.314l-0.517-0.044l-0.043-0.224l-0.224-0.022h-0.022l-0.021,0.426v0.425v0.09l-0.427-0.045l-0.043,0.605h-0.068l0.022,0.067
	v0.045l-0.022,0.022l-0.404-0.067l-0.044,0.784h-0.022l-0.783-0.022l-0.023-0.022l-1.814-0.09l-0.359-0.044l-0.157,0.021
	l-0.201-0.021l-0.404-0.023l-0.314-0.044l-1.973-0.067l-1.098-0.068l-0.314-0.022l-1.142-0.045l-0.808-0.044l-0.692-0.022h-0.023
	l-1.097-0.045l0.021-0.718l0.045-0.47v-0.112h-0.134l-0.156,0.135l-0.134,0.022l-0.156-0.045l-0.113-0.135l-0.067,0.157l-0.157,0.18
	l-0.112-0.135l-0.09-0.044l-0.224,0.022l-0.09-0.022l-0.312-0.314l-0.023-0.089l-0.09-0.023h-0.112l-0.112,0.046h-0.09l-0.067,0.067
	l-0.18,0.09l-0.134,0.089l-2.084-0.112h-0.067l-5.626-0.313l-2.106-0.157l-0.112,0.113l-0.493,1.099l-0.202,0.829l-0.292,0.158
	l-0.112,0.179l-0.023,0.335l0.09,0.09l-0.045,0.202l-0.112,0.112l0.157,1.099l0.112,0.358l0.089,0.157l-0.045,0.044l-0.113,0.203
	l-0.134,0.47l-0.022,0.046l-0.224,0.088l-0.18,0.022l-0.134-0.022l-0.224-0.088l-0.179,0.156l-0.291,0.538l-0.067,0.112
	l-0.023,0.112v0.179l-0.044,0.091l-0.291,0.179l-0.091,0.088l-0.111,0.179l-0.046,0.202v0.068h-0.179l-0.09,0.022l-1.008,0.493
	l-0.134-0.023l-0.47-0.201l-0.09-0.066l-0.202-0.202l-0.247-0.068l-0.425-0.022l-0.403,0.313l-0.09,0.135l-0.023,0.135l-0.291,0.135
	l-0.314,0.246l-0.18-0.09l-0.516-0.089l-0.224-0.113l-0.181,0.023l-0.134,0.044l-0.156-0.47l-0.247-0.089h-0.538l-0.089-0.134
	l-0.045-0.023l-0.358,0.046l-0.179,0.044v0.023l-0.045,0.336l-0.089,0.224l-0.135,0.179l-0.022,0.091l0.201,0.986l0.068,0.112
	l0.112,0.067l0.089,0.246l-0.089,0.202l-0.09,0.112l-0.044,0.112l-0.022,0.112l0.089,0.134l0.023,0.135l-0.023,0.314l-0.067,0.178
	l-0.292,0.315l-0.112,0.067l-0.358,0.066l-0.179-0.022h-0.045l-0.156,0.157l0.022,0.134l-0.157,0.181l-0.07,0.268l-0.225,0.134
	l-0.224,0.202l-0.18,0.381l0.023,0.112l-0.044,0.157l0.202,0.313v0.201l-0.09,0.359l-0.178,0.268l-0.09,0.382l0.157,0.178
	l0.111,0.045l0.382,0.448l0.336-0.089h0.314l0.089,0.313l0.27,0.067l0.134,0.088l0.269-0.357l0.023-0.022l0.268-0.111l0.382-0.046
	l0.245,0.561l0.158,0.538l0.246,0.313h0.112l0.201-0.111l0.09,0.044l0.225,0.225l0.425,0.067l0.179-0.067l0.067,0.18l0.023,0.201
	l-0.023,0.09l0.067,0.09l0.292-0.09l0.202,0.022l0.381-0.044h0.201l0.448,0.426l0.022,0.044v0.202l-0.044,0.448l0.044,0.134
	l0.18,0.202l0.044,0.09v0.268l-0.022,0.09l-0.314,0.269l-0.38,0.09l-0.426,0.27l-0.358,0.538l-0.044,0.022l-0.179,0.045
	l-0.224,0.067l-0.449,0.066l-0.224,0.09l-0.203,0.179l-0.112,0.09l-0.022,0.044l0.067,0.18l0.022,0.044l0.247,0.135l0.044,0.111
	l0.022,0.202l0.113,0.358l0.157,0.157l0.157,0.067l0.067,0.247l-0.112,0.112v0.046v0.134l0.045,0.269l-0.269,0.471l-0.224-0.112
	l-0.09-0.022l-0.673,0.337l-0.044,0.112l-0.403-0.269l-0.134-0.247l-0.067,0.022l-0.112,0.18l-0.313,0.493l0.022,0.179l0.112,0.112
	l0.089,0.09v0.021l0.112,0.067l0.112,0.314l-0.021,0.112l-0.157,0.022l-0.134,0.134l-0.157,0.313l-0.268,0.112l-0.112,0.068
	l-0.179,0.224l-0.044,0.157v0.135l-0.023,0.044h-0.448l-0.09-0.022l-0.022-0.045l-0.022,0.023v0.156l-0.022,0.068l-0.292,0.381
	l-0.021,0.067l-0.135,0.135v0.156l-0.045,0.202l-0.224,0.247l-0.202,0.09l-0.739-0.157h-0.112l-0.202,0.067l-0.202-0.044
	l-0.089,0.134l-0.067,0.201l-0.112,0.381l-0.023,0.313l-0.358,0.09l-0.179,0.022l-0.134-0.09l-0.135-0.022l-0.157,0.045
	l-0.067,0.067l0.045,0.27l0.179,0.269l0.179,0.067l0.089,0.112l-0.044,0.27l0.134,0.448l-0.023,0.023l-0.717,0.156l-0.425,0.091
	l-0.202,0.134l-0.09,0.09l-0.247,0.156l-0.224,0.09l-0.134,0.292l-0.067,0.045l-0.314,0.156l-0.044,0.112l-0.157,0.089l-0.27,0.022
	l-0.067,0.09l-0.157,0.224l0.046,0.202l-0.046,0.695l-0.022,0.045l-0.157,0.178l-0.044,0.023l-0.112,0.045l-0.111-0.023
	l-0.135,0.067l-0.224,0.09l-0.538,0.021l-0.426-0.089l-0.112-0.112l-0.18-0.112l-0.493-0.448l-0.269-0.113h-0.022l-0.022,0.046
	v0.021l-0.202-0.044l-0.359-0.426l-0.134-0.09l-0.404-0.021l-0.381,0.044l-0.246-0.023l-0.135-0.044l-0.358-0.134l-0.202-0.023
	l-0.045,0.023l-0.067,0.111l-0.045,0.292l-0.268,0.224l-0.202-0.023l-0.224,0.314l0.111,0.179l0.09,0.067l0.044,0.313l-0.022,0.247
	l0.134,0.381l0.157,0.225l-0.381,0.627l-0.134,0.18l-0.067,0.268l-0.113,0.023l-0.38-0.113l-0.314-0.044h-0.022l-0.224,0.201
	l-0.022,0.067l-0.023,0.18l-0.067,0.134l-0.179,0.023h-0.089l-0.068,0.046l-0.022,0.067v0.425l0.022,0.112l-0.022,0.516
	l-0.156,0.471l-0.067,0.156l-0.022,0.09l0.022,0.358l0.067,0.269l0.089,0.202l0.045,0.269l-0.023,0.135l-0.044,0.089l-0.023,0.538
	l-0.022,0.068l-0.179,0.246l0.045,0.134l0.045,0.045l0.134,0.022l0.313,0.18l0.134,0.179l0.045,0.202l-0.112,0.448l-0.337,0.27
	l-0.089,0.292l-0.021,0.045l-0.136,0.134l-0.134,0.023l0.045,0.157l0.088,0.112l0.046,0.134l0.022,0.158l-0.022,0.38l-0.134,0.224
	l-0.158,0.179l0.09,0.38l0.18,0.36l-0.023,0.403l-0.021,0.09l-0.045,0.067l0.158,0.582l0.045,0.628v0.358l-0.045,0.089l-0.225,0.136
	l-0.179,0.201l-0.201,0.179l-0.112,0.381l-0.044,0.045l-0.09-0.045l-0.403,0.314l-0.179,0.067l-0.201,0.269l-0.134,0.314
	l0.022,0.044l0.27,0.046l0.156-0.09l0.942,0.112l0.044,0.045l0.225,0.381l0.044,0.089l0.067,0.27v0.179l-0.022,0.089l-0.157,0.135
	l-0.113,0.044l-0.246,0.314l-0.135,0.045l-0.134,0.089l-0.268,0.382l-0.045,0.537l0.022,0.18l0.044,0.089l0.225,0.246v0.494
	l0.044,0.134v0.09l-0.156,0.268l-0.179,0.112l-0.135,0.157l0.023,0.202l0.067,0.157v0.112l-0.157,0.09l-0.023,0.112l0.359,0.336
	l0.269,0.112l0.022,0.112l0.045,0.225l-0.022,0.201l0.044,0.09l0.247,0.358v0.136l0.022,0.067l0.381-0.18l0.717-0.134l0.112,0.157
	l0.067,0.023l0.157,0.022l0.246-0.022l0.224,0.089l0.38,0.336l0.068,0.045l0.18,0.044l0.156,0.113l-0.022,0.246l0.202,0.47v0.045
	l-0.18,0.538l-0.179,0.157l-0.134,0.313v0.852l0.067,0.09h0.09l0.358,0.112l0.268,0.134l0.202,0.024l0.268-0.158l0.045,0.09
	l0.224,0.179l0.359,0.202l0.201,0.022l0.36-0.404l0.021-0.156l0.314-0.068l0.65,0.202l0.224-0.045l0.068-0.044l0.111-0.022
	l0.314,0.516l0.112,0.022l0.135,0.112l0.359,0.538l0.291,0.313l0.023,0.068l-0.023,0.091l0.045,0.067l0.179,0.044l0.403-0.18
	l0.382,0.292v0.156l0.067,0.068l0.246,0.089l0.067,0.068l0.044,0.09v0.044l-0.067,0.224l-0.023,0.045l-0.067,0.022l-0.044,0.022
	l-0.404,0.292l-0.023,0.18v0.157l0.09,0.224l0.112,0.18l0.179-0.044l0.202-0.112l0.313,0.068l0.112,0.044l0.337,0.068l0.292-0.112
	l0.202,0.134l0.089,0.112l0.47,0.605l-0.313,0.292l-0.044,0.134l0.022,0.069l-0.067,0.133l-0.089,0.09l-0.134,0.068l-0.09,0.089
	l-0.179,0.224v0.091l0.135,0.134l0.021,0.112v0.111l-0.044,0.091v0.268l0.918,1.322l0.157,0.112l0.135,0.203l0.089,0.246
	l0.022,0.133l-0.157,0.224l-0.179,0.518l0.021,0.067l-0.067,0.111l-0.157,0.023l-0.112,0.043l-0.425,0.449l-0.046,0.155l0.046,0.157
	l-0.022,0.091l-0.112,0.112l-0.112,0.021l-0.247-0.021l-0.134,0.201l0.134,0.336l0.022,0.448l-0.179,0.382l-0.023,0.201
	l-0.022,0.045l-0.268,0.022l-0.023,0.133l0.157,0.292l0.046,0.156l-0.069,0.671l-0.134,0.358l-0.179,0.09l-0.583,0.517l-0.089,0.269
	l-0.09,0.135l-0.113,0.09h-0.067l-0.044,0.134v0.09l1.143,0.09l2.106,0.09l0.426-0.044l0.336,0.067l1.456,0.113h0.314l1.323,0.068
	l3.519,0.202l0.964,0.043l3.003,0.181l3.138,0.112l2.242,0.134l1.412,0.044l0.089-0.023l2.288,0.111l5.424,0.314l0.538-9.502
	l0.045-0.583l0.042-0.449l0.158-2.891l0.089-2.152l0.089-1.95l0.426-8.091h0.068l2.422,0.157l0.806,0.044l4.302,0.225l2.533,0.135
	l3.296,0.157l0.201,0.023l1.613,0.067l0.09,0.021l2.108,0.112l0.963,0.045l0.471,0.021h0.043l0.539,0.023l0.202,0.022h0.045
	l0.694,0.045h0.112h0.134h0.022l0.292,0.022h0.134h0.022h0.155l0.134,0.021l0.65,0.023l0.359,0.022h0.043l0.135,0.021h0.044h0.202
	l0.718,0.046l0.493,0.022l0.337,0.022h0.089l0.897,0.044l0.111,0.022h0.044h0.046h0.134h0.268h0.022l0.27,0.022l0.357,0.022h0.156
	l0.09,0.022h0.068h0.044l0.292,0.023h0.021h0.293l0.29,0.022h0.091l0.896,0.046h0.09l0.202,0.021l0.335,0.022h0.113h0.044
	l0.471,0.023h0.09h0.111l0.156,0.022l0.292,0.022h0.246h0.068h0.044l0.111,0.022h0.157h0.09l0.202,0.023h0.112l0.402,0.021
	l0.226,0.023h0.313l0.225,0.023l0.38,0.021h0.204h0.088l1.167,0.068l0.448,0.023h0.09l1.95,0.089h0.067h0.359l0.402,0.022h0.045
	h0.179l0.27,0.023l0.605,0.022l0.135,0.023l0.47,0.022l2.084,0.113l0.854,0.044l3.406,0.157l0.335,0.023l0.269,0.022l0.226,0.022
	l1.903,0.09h0.18h0.471l1.636,0.089l0.919,0.045l0.246,0.022l2.219,0.067l2.152,0.134l1.188,0.045l-0.313,5.11l-0.135,3.407
	l-0.067,1.412v0.405l-0.045,0.761l-0.268,4.28l2.488,0.113h0.067l0.83,0.044l1.838,0.111l1.119,0.069l1.681,0.09l1.212,0.067
	l0.963,0.044l0.831,0.044l0.964,0.044h0.043l0.695,0.022l0.784,0.044h0.044l1.705,0.045l0.022-0.561l0.042-1.593l0.023-1.277
	l0.023-0.853l0.11-3.452v-0.157l0.09-1.546l0.068-1.726v-1.705l0.09-0.851l0.022-0.852l0.044-0.874h0.246l0.067-1.726l0.09-1.278
	l0.134-3.877l0.045-1.165v-0.067l0.023-0.18v-0.022v-0.112v-0.156l0.021-0.292v-0.201l0.022-0.268v-1.009l0.134-2.511l0.091-2.958
	l0.246-5.312v-0.044l0.202-4.841l0.313,0.021l0.134-2.735l0.246-6.185l0.023-0.426v-0.09l0.021-0.851l0.091-1.726l0.044-1.726
	l0.157-3.519l0.111-2.533v-0.247l0.022-0.65l0.111-2.578l0.045-0.875l0.066-1.658L305.643,95.569z M242.636,97.832V97.72
	l0.045-0.045h0.269v0.112l-0.18,0.023h-0.069v0.022H242.636z"/>
<polyline id="0822660" fill="#666666" stroke="#FFFFFF" stroke-width="0.75"  points="198.793,30.858 204.51,31.261 217.6,32.068 219.102,32.158 
	219.348,32.18 222.845,32.382 226.857,32.605 233.132,32.942 239.094,33.256 239.993,33.301 240.082,33.301 243.667,33.503 
	253.82,34.04 253.484,40.742 253.441,41.325 253.372,42.333 253.372,42.491 252.97,50.157 252.881,51.904 252.902,51.904 
	252.881,51.928 252.881,52.263 252.856,52.667 252.856,52.69 252.79,53.608 252.744,54.459 252.678,55.312 252.678,55.379 
	252.678,55.469 252.655,56.029 252.633,56.187 252.611,56.612 252.498,58.741 252.477,59.078 252.477,59.19 252.455,59.615 
	252.455,59.772 252.431,60.176 252.408,60.422 252.408,60.512 252.408,60.624 252.387,60.647 252.387,60.782 252.364,61.319 
	252.319,62.193 252.252,63.246 252.252,63.538 252.208,64.345 252.184,64.771 252.184,64.883 252.163,65.106 252.141,65.623 
	252.141,65.689 252.141,65.735 252.118,66.071 252.095,66.407 252.05,67.236 252.05,67.348 251.938,69.052 251.916,69.545 
	251.826,70.756 251.805,70.936 251.805,71.047 251.78,71.181 251.692,72.459 250.458,72.392 250.146,72.369 250.1,72.369 
	250.055,72.369 249.294,72.324 249.182,72.347 247.612,72.235 247.5,72.235 247.478,72.235 246.984,72.212 246.94,72.212 
	246.783,72.189 246.783,72.414 246.783,72.593 246.783,72.638 246.783,72.684 246.783,72.796 246.783,73.042 246.783,73.087 
	246.737,73.938 246.717,74.655 246.694,74.812 246.671,75.171 246.671,75.239 246.671,75.306 246.671,75.463 246.604,76.336 
	246.604,76.359 246.604,76.516 246.581,76.942 246.56,77.256 246.56,77.324 246.56,77.368 244.228,77.278 243.175,77.211 
	243.175,77.233 241.941,77.166 241.493,77.144 240.328,77.1 240.306,77.076 239.745,77.054 239.477,77.032 238.782,76.987 
	238.468,76.942 238.266,76.92 236.137,76.763 234.029,76.718 233.961,76.695 233.738,76.695 233.558,76.673 232.304,76.627 
	231.587,76.785 230.98,76.763 228.268,76.516 226.924,76.426 226.7,76.382 225.624,76.27 224.973,76.225 223.965,76.135 
	219.885,75.956 219.863,75.911 219.371,75.529 219.079,75.463 218.922,75.507 218.81,75.439 218.653,75.148 218.765,74.812 
	218.81,74.812 218.72,74.432 218.562,74.341 218.519,74.274 218.451,73.311 218.384,73.221 218.362,73.177 218.429,73.02 
	218.362,72.974 217.98,72.884 217.913,72.796 217.891,72.75 217.936,72.638 218.003,72.526 218.115,72.414 218.115,72.324 
	217.958,72.055 217.464,71.943 217.286,71.742 216.815,71.361 216.501,70.688 216.434,70.644 216.254,70.509 216.007,70.554 
	215.963,70.509 215.807,70.442 215.493,70.15 215.313,69.859 215.156,69.77 215.044,69.501 214.864,69.299 214.73,69.075 
	214.596,68.806 214.372,68.468 214.237,68.155 214.215,68.043 214.237,67.953 214.259,67.416 213.744,66.609 213.542,66.407 
	213.43,66.138 213.385,66.093 213.251,66.004 213.184,65.825 213.184,65.689 213.318,65.578 213.341,65.533 213.341,65.376 
	213.273,65.152 213.296,65.04 213.43,64.95 213.789,64.479 213.722,64.188 213.812,63.919 213.901,63.583 213.901,63.494 
	213.856,63.358 213.744,63.202 213.633,63.112 213.722,63.067 213.812,63 213.833,62.956 213.812,62.865 213.655,62.797 
	213.452,62.797 213.251,62.753 213.139,62.687 212.803,62.53 212.623,62.484 212.489,62.283 212.354,62.238 212.265,62.283 
	212.085,62.283 212.063,62.216 211.727,62.058 211.705,61.969 211.705,61.812 211.749,61.565 211.884,61.431 211.929,61.342 
	211.929,60.849 211.705,60.715 211.48,60.288 211.234,59.974 211.122,59.907 210.763,59.795 210.673,59.816 210.583,59.861 
	210.248,59.884 210.09,59.929 209.889,60.041 209.643,60.266 209.485,60.176 209.463,60.131 209.373,59.884 209.373,59.772 
	209.463,59.661 209.575,59.436 209.643,59.302 209.688,59.011 209.463,57.957 209.463,57.913 209.552,57.599 209.575,57.419 
	209.552,57.15 209.396,56.903 209.216,56.881 209.104,56.769 209.06,56.657 208.97,56.253 209.015,56.187 209.015,56.12 
	208.88,55.536 208.903,55.379 208.903,55.111 208.88,54.886 208.858,54.774 208.836,54.752 208.611,54.685 208.319,54.551 
	208.23,54.415 208.118,54.078 208.185,53.922 208.23,53.788 208.23,53.72 208.14,53.652 208.072,53.452 208.163,52.936 
	208.163,52.6 208.072,52.398 207.916,52.241 207.849,51.792 207.894,51.546 207.782,51.3 207.513,50.986 207.468,50.537 
	207.445,50.448 207.356,50.403 207.266,50.157 207.311,50.022 207.289,49.327 207.109,48.901 206.975,48.834 206.617,48.453 
	206.593,48.206 206.593,47.938 206.705,47.78 206.705,47.758 206.684,47.669 206.593,47.557 206.617,47.421 206.437,47.108 
	206.324,46.997 206.19,46.973 205.787,46.548 205.653,46.189 205.608,45.83 205.428,45.741 205.069,44.126 205.024,44.037 
	205.002,43.948 204.846,43.835 204.666,43.813 204.419,43.433 204.419,43.208 204.419,43.141 204.465,43.096 204.419,42.805 
	204.353,42.67 204.217,42.513 204.217,42.424 204.129,42.177 203.972,41.931 203.68,41.617 203.389,41.55 203.209,41.325 
	203.187,41.214 203.052,41.057 202.962,41.011 202.896,41.011 202.716,40.855 202.537,40.406 202.38,40.339 202.268,40.339 
	202.155,40.228 202.223,40.026 202.268,39.958 202.29,39.869 202.132,39.689 202.088,39.689 201.976,39.577 202.088,39.285 
	202.065,39.218 201.908,39.039 201.64,38.904 201.371,38.748 201.282,38.748 201.125,38.613 200.968,38.344 200.901,38.187 
	201.012,38.075 201.102,37.873 201.147,37.694 201.035,37 200.587,36.528 200.497,36.461 200.317,36.461 199.87,36.08 
	199.847,35.946 199.87,35.9 199.87,35.834 199.713,35.721 199.489,35.587 199.152,34.937 199.062,34.825 198.793,34.624 
	198.727,34.444 198.659,33.906 198.727,33.682 198.883,33.503 198.928,33.346 198.793,33.144 198.906,33.032 198.928,32.853 
	198.727,32.203 198.749,31.62 198.727,31.507 198.569,31.463 198.546,31.396 198.592,31.216 198.704,31.082 198.793,30.858 "/>
<polyline id="0824300" fill="#666666" stroke="#FFFFFF" stroke-width="0.75"  points="63.634,117.019 76.007,118.207 76.164,118.229 
	77.777,118.363 85.263,119.059 86.967,119.215 87.259,119.261 88.559,119.373 92.504,119.731 94.028,119.82 94.387,119.888 
	97.75,120.18 98.959,120.269 99.744,120.336 102.12,120.561 103.263,120.65 103.711,120.695 104.429,120.762 109.741,121.211 
	109.763,121.211 109.785,121.211 110.906,121.3 112.273,121.412 113.013,121.479 114.739,121.636 114.962,121.659 115.008,121.659 
	116.152,121.748 117.34,121.838 118.571,121.95 121.666,122.197 122.09,122.242 132.29,123.071 136.548,123.407 136.57,123.407 
	136.683,123.631 136.638,123.99 136.526,124.46 136.391,124.527 136.279,124.527 136.235,124.55 135.988,124.909 135.742,125.201 
	135.338,125.491 135.204,125.514 134.979,125.582 134.822,125.851 134.822,125.939 134.935,126.411 135.047,126.635 
	135.361,126.971 135.428,126.993 135.562,126.904 135.674,126.747 135.966,126.747 136.01,126.904 135.988,126.949 135.898,127.128 
	135.988,127.33 136.123,127.397 136.256,127.375 136.705,127.531 136.84,127.688 137.064,127.868 137.467,127.845 137.714,127.711 
	137.781,127.755 137.803,128.047 137.736,128.406 137.848,128.674 138.005,128.697 138.498,128.943 138.521,128.988 
	138.566,129.146 138.521,129.257 138.431,129.347 138.252,129.392 137.894,129.594 137.714,129.975 137.714,130.02 137.557,130.176 
	137.445,130.199 137.086,130.131 136.817,130.02 136.369,129.907 136.123,129.953 136.078,130.737 136.033,130.827 135.562,131.028 
	135.047,131.342 134.441,131.432 133.949,131.342 133.837,131.229 133.814,131.073 133.634,130.939 133.59,130.939 133.544,130.983 
	133.455,131.32 133.411,131.454 133.029,131.925 132.874,131.969 132.738,131.925 132.334,131.969 132.223,132.014 132.156,132.103 
	131.796,132.53 131.393,132.732 130.789,133.068 130.722,133.135 130.698,133.18 130.676,133.517 130.743,133.74 130.676,133.875 
	129.958,134.054 129.846,134.054 129.667,133.897 129.51,133.852 129.443,133.897 129.376,134.054 129.286,134.122 129.085,134.189 
	128.904,134.211 128.793,134.233 128.725,134.368 128.3,134.726 128.009,134.75 127.65,134.861 127.47,135.152 127.336,135.265 
	127.247,135.22 127.044,135.287 126.664,135.534 126.552,135.668 126.506,135.825 126.417,136.004 126.373,136.004 126.17,135.914 
	126.082,136.004 125.678,136.519 125.521,136.519 125.409,136.766 125.409,136.879 125.386,136.923 125.027,137.237 
	124.938,137.349 124.96,137.484 125.05,137.572 125.027,137.618 124.826,137.752 124.579,137.775 124.512,137.82 124.445,137.954 
	124.354,138.201 124.242,138.246 124.041,138.223 123.907,138.672 123.682,138.919 123.369,139.074 123.1,139.12 122.943,139.053 
	122.897,139.053 122.697,139.142 122.494,139.277 122.494,139.366 122.383,139.545 122.023,139.949 122.023,140.062 122.023,140.15 
	121.441,140.039 121.306,140.039 121.239,140.062 121.082,140.15 120.993,140.263 120.948,140.398 121.06,140.42 120.993,140.509 
	120.656,140.711 120.612,140.688 120.432,140.688 120.387,140.778 120.387,140.958 120.074,141.069 119.962,141.205 
	119.938,141.293 119.693,141.227 119.581,141.024 119.491,140.98 119.378,140.801 119.11,140.509 118.751,140.107 117.922,139.702 
	117.519,139.479 117.204,139.321 116.734,139.007 116.644,139.03 116.174,138.874 116.04,138.985 115.995,138.94 115.972,138.807 
	115.905,138.761 115.726,138.828 115.501,139.053 115.411,139.074 115.344,139.03 115.143,139.165 115.12,139.232 115.098,139.253 
	114.852,139.232 114.605,139.366 114.515,139.433 114.291,139.479 114.089,139.433 113.932,139.457 113.753,139.635 
	113.595,139.747 113.529,139.726 113.506,139.657 113.438,139.613 113.17,139.5 112.273,139.545 111.624,139.613 111.019,139.568 
	110.659,139.457 110.212,139.5 110.145,139.59 109.965,139.882 109.315,140.286 109.271,140.353 109.135,140.465 108.889,140.577 
	108.575,140.778 108.216,141.048 108.104,141.114 107.992,141.092 107.835,141.205 107.589,141.608 107.566,141.809 
	107.163,142.078 107.006,142.102 106.939,141.921 106.917,141.876 106.76,141.921 106.625,142.123 106.536,142.235 106.065,142.706 
	105.93,142.908 105.459,143.177 105.168,143.512 105.101,143.648 104.945,143.737 104.787,143.76 104.72,143.782 104.742,143.871 
	105.012,144.544 104.966,144.813 104.854,144.97 104.562,145.194 104.25,145.552 103.869,146.135 103.442,146.539 103.375,146.695 
	103.195,146.875 103.039,146.965 102.792,147.055 102.726,147.01 102.658,146.919 102.523,146.831 102.478,146.807 102.366,146.852 
	102.165,147.233 102.143,147.346 102.143,147.436 102.254,147.637 102.299,147.816 102.277,147.929 102.232,147.951 
	102.075,147.884 101.985,147.861 101.806,148.131 101.717,148.219 101.402,148.198 101.223,148.131 101.089,148.108 
	100.641,148.354 100.574,148.467 100.169,148.601 98.04,149.296 91.966,151.291 91.943,151.291 91.092,151.56 91.047,151.963 
	91.047,152.009 90.24,161.108 89.411,170.478 89.366,170.903 89.345,171.038 89.254,171.038 88.267,170.948 85.332,170.679 
	85.085,170.656 80.019,170.208 79.325,170.142 79.235,170.142 68.184,169.11 67.041,169.02 65.92,168.909 61.527,168.483 
	61.034,168.438 58.322,168.192 58.882,162.318 59.6,155.191 60.116,150.753 60.137,150.484 60.698,146.068 60.877,144.32 
	60.9,144.275 61.124,142.078 61.124,142.056 61.482,138.694 61.617,137.528 61.617,137.393 62.155,132.216 62.177,131.857 
	62.177,131.812 62.201,131.79 62.245,131.252 62.245,131.229 63.634,117.019 "/>
<polyline id="0824540" fill="#666666" stroke="#FFFFFF" stroke-width="0.75"  points="293.114,35.699 293.718,35.721 294.436,35.745 
	294.661,35.767 294.975,35.767 296.678,35.856 296.723,35.856 297.507,35.878 299.592,35.99 300.04,35.99 300.847,36.013 
	301.699,36.058 305.912,36.192 306.473,36.215 314.25,36.528 314.273,37.066 314.273,37.201 314.25,37.918 314.206,38.659 
	314.184,38.815 314.161,39.442 314.094,41.191 314.094,41.371 314.071,42.289 314.026,43.096 313.981,43.948 313.981,44.553 
	313.914,46.48 313.892,46.683 313.758,50.851 313.69,51.704 313.601,54.303 313.331,54.281 313.265,55.626 313.22,56.253 
	313.22,56.365 313.152,57.8 313.062,59.705 313.062,59.772 313.018,60.557 312.95,62.283 312.928,62.731 312.906,63.157 
	312.884,64.009 312.86,64.883 312.009,64.86 311.584,64.838 310.306,64.815 309.455,64.815 307.772,64.771 306.943,64.704 
	305.352,64.592 305.24,64.592 302.147,64.413 298.336,64.278 296.453,64.188 296.117,64.165 295.378,64.144 294.907,64.121 
	294.258,64.077 292.822,64.009 291.142,63.942 290.289,63.897 289.64,63.875 287.689,63.785 287.645,65.264 287.6,66.362 
	287.532,68.917 287.33,72.638 287.264,74.118 287.129,74.118 287.085,75.373 287.085,75.485 287.039,76.695 287.039,76.718 
	287.017,76.763 287.017,76.896 287.017,77.166 287.017,77.233 286.994,77.592 286.994,77.637 286.973,77.995 286.904,80.036 
	286.838,81.11 286.726,84.137 286.703,84.518 286.637,85.862 286.637,85.953 286.568,87.454 286.568,87.521 286.546,87.947 
	286.456,89.718 286.434,90.502 286.345,92.229 286.232,94.806 285.381,94.784 281.996,94.627 279.463,94.515 276.953,94.403 
	276.102,94.358 274.397,94.268 273.567,94.224 273.054,94.201 272.716,94.201 271.888,94.157 271.036,94.134 270.564,94.111 
	269.332,94.044 268.502,93.999 267.359,93.954 266.598,93.91 266.016,93.887 265.992,93.887 265.88,93.887 265.7,93.887 
	264.805,93.82 264.782,93.82 262.025,93.708 261.756,93.686 261.688,93.686 261.353,93.686 260.904,93.663 260.411,93.641 
	260.187,93.641 260.097,93.641 260.075,93.641 259.269,93.574 259.223,93.574 259.045,93.551 257.541,93.484 257.452,93.484 
	257.295,93.461 257.273,93.461 257.206,93.461 257.184,93.461 256.758,93.438 256.601,93.417 256.533,93.417 256.511,93.417 
	256.466,93.417 256.443,93.417 256.421,93.417 256.398,93.417 256.377,93.417 256.353,93.417 256.332,93.417 256.287,93.417 
	256.265,93.417 256.241,93.417 256.22,93.417 256.175,93.394 255.949,93.394 255.927,93.394 255.479,93.372 254.941,93.349 
	254.562,93.327 254.158,93.305 253.305,93.282 251.692,93.215 251.646,93.193 251.624,93.193 250.772,93.147 250.616,93.147 
	250.392,93.125 249.921,93.125 249.54,93.103 249.54,92.744 249.652,92.744 249.854,92.946 249.943,92.969 249.966,92.497 
	249.606,92.453 249.629,92.004 249.159,91.982 249.137,91.982 249.137,92.184 249.114,92.184 248.778,92.162 248.755,92.609 
	248.262,92.587 247.837,92.564 247.814,93.013 246.223,92.924 245.842,92.9 245.842,92.878 245.729,92.878 245.729,92.833 
	245.729,92.789 245.752,92.542 245.752,92.453 245.773,92.05 245.842,90.75 245.842,90.682 245.863,90.145 245.888,90.077 
	245.888,89.854 245.91,89.673 245.91,89.584 245.91,89.562 245.91,89.539 245.931,89.181 245.954,88.799 245.999,87.723 
	245.999,87.679 245.999,87.544 246.021,87.454 246.021,87.432 246.043,87.186 246.066,86.423 246.087,85.998 246.133,85.325 
	246.133,85.302 246.155,85.124 246.223,83.89 246.223,83.845 246.245,83.42 246.245,83.397 246.268,83.016 246.268,82.971 
	246.268,82.949 246.313,82.546 246.313,82.389 246.335,81.739 246.335,81.693 246.379,80.819 246.47,79.094 246.513,78.242 
	246.56,77.368 246.56,77.324 246.56,77.256 246.581,76.942 246.604,76.516 246.604,76.359 246.604,76.336 246.671,75.463 
	246.671,75.306 246.671,75.239 246.671,75.171 246.694,74.812 246.717,74.655 246.737,73.938 246.783,73.087 246.783,73.042 
	246.783,72.796 246.783,72.684 246.783,72.638 246.783,72.593 246.783,72.414 246.783,72.189 246.94,72.212 246.984,72.212 
	247.478,72.235 247.5,72.235 247.612,72.235 249.182,72.347 249.294,72.324 250.055,72.369 250.1,72.369 250.146,72.369 
	250.458,72.392 251.692,72.459 251.78,71.181 251.805,71.047 251.805,70.936 251.826,70.756 251.916,69.545 251.938,69.052 
	252.05,67.348 252.05,67.236 252.095,66.407 252.118,66.071 252.141,65.735 252.141,65.689 252.141,65.623 252.163,65.106 
	252.184,64.883 252.184,64.771 252.208,64.345 252.252,63.538 252.252,63.246 252.319,62.193 252.364,61.319 252.387,60.782 
	252.387,60.647 252.408,60.624 252.408,60.512 252.408,60.422 252.431,60.176 252.455,59.772 252.455,59.615 252.477,59.19 
	252.477,59.078 252.498,58.741 252.611,56.612 252.633,56.187 252.655,56.029 252.678,55.469 252.678,55.379 252.678,55.312 
	252.744,54.459 252.79,53.608 252.856,52.69 252.856,52.667 252.881,52.263 252.881,51.928 252.902,51.904 252.881,51.904 
	252.97,50.157 253.372,42.491 253.372,42.333 253.441,41.325 253.484,40.742 253.82,34.04 254.022,34.063 257.699,34.242 
	258.842,34.242 261.353,34.332 265.634,34.466 267.494,34.556 268.995,34.624 273.524,34.802 274.823,34.892 278.432,35.049 
	279.082,35.072 285.985,35.385 286.009,35.385 286.12,35.385 287.443,35.453 289.998,35.564 290.85,35.609 291.656,35.631 
	292.51,35.677 293.114,35.699 "/>
<polyline id="0839380" fill="#666666" stroke="#FFFFFF" stroke-width="0.75"  points="246.2,182.043 246.245,180.9 246.649,180.877 
	251.535,181.146 252.902,181.192 255.479,181.349 255.592,181.371 256.466,181.415 257.991,181.506 260.434,181.573 
	260.568,181.573 260.657,181.573 260.726,181.573 261.308,181.618 266.396,181.864 270.498,182.021 271.819,182.088 
	276.684,182.269 279.621,182.381 280.875,182.402 280.875,182.381 281.705,182.424 282.31,182.468 284.619,182.581 285.448,182.581 
	285.963,182.604 286.815,182.648 286.59,186.056 286.479,187.759 286.434,188.544 286.143,197.218 286.12,198.091 285.963,198.091 
	285.941,198.115 285.785,201.746 285.695,203.808 285.649,204.929 285.649,205.152 285.649,205.22 285.628,205.825 285.582,206.095 
	285.516,207.372 285.493,208.066 285.358,210.398 285.225,213.805 285.134,215.912 285.112,216.674 284.91,221.27 284.753,224.094 
	284.753,224.115 284.664,224.115 284.484,228.419 284.484,229.338 280.741,227.77 271.327,223.824 270.071,223.309 269.824,223.22 
	262.339,220.104 257.924,218.266 257.05,218.288 257.026,218.288 249.496,218.398 248.241,218.423 246.155,218.467 243.533,218.489 
	240.955,218.558 240.955,218.423 240.888,218.288 240.619,218.153 240.082,217.771 240.036,217.705 240.215,217.145 
	240.148,217.076 239.835,216.897 239.409,216.428 239.588,212.504 239.61,212.305 239.61,212.28 239.633,212.168 239.656,211.429 
	239.723,210.376 239.745,210.018 239.812,209.053 239.947,206.004 239.947,205.735 239.993,204.683 240.148,203.853 
	240.417,198.271 240.417,198.227 240.485,197.285 240.506,196.143 242.927,196.254 243.039,196.276 243.869,196.299 245.505,196.39 
	245.729,191.614 245.729,191.593 245.819,189.619 245.91,187.916 245.976,186.908 246.2,182.043 "/>
<polygon id="0800004" fill="#666666" stroke="#FFFFFF" stroke-width="0.75"  points="244.228,172.988 243.354,172.921 242.367,172.853 
	241.538,172.719 241.336,172.787 240.729,172.942 238.982,172.898 235.308,172.696 233.021,172.584 233.132,170.837 
	233.311,169.647 232.236,169.625 229.143,169.402 223.719,169.088 221.432,168.976 221.343,168.999 219.931,168.954 
	217.688,168.819 214.551,168.706 211.548,168.527 210.583,168.483 207.065,168.282 205.742,168.213 205.428,168.213 
	203.972,168.102 203.635,168.035 203.209,168.08 201.102,167.989 199.959,167.9 199.959,167.811 200.003,167.676 200.071,167.676 
	200.184,167.586 200.273,167.452 200.363,167.184 200.945,166.667 201.125,166.577 201.259,166.218 201.327,165.547 201.282,165.39 
	201.125,165.097 201.147,164.964 201.416,164.942 201.438,164.896 201.461,164.695 201.64,164.313 201.618,163.865 201.483,163.529 
	201.618,163.328 201.864,163.349 201.976,163.328 202.088,163.215 202.111,163.125 202.065,162.969 202.111,162.812 
	202.537,162.363 202.649,162.318 202.806,162.296 202.873,162.185 202.851,162.118 203.03,161.601 203.187,161.377 203.165,161.242 
	203.075,160.996 202.94,160.794 202.783,160.682 201.864,159.36 201.864,159.091 201.908,159.002 201.908,158.889 201.887,158.778 
	201.752,158.642 201.752,158.552 201.932,158.329 202.021,158.24 202.155,158.172 202.245,158.082 202.313,157.948 202.29,157.88 
	202.335,157.746 202.649,157.455 202.178,156.85 202.088,156.738 201.887,156.604 201.595,156.716 201.259,156.648 201.147,156.604 
	200.833,156.536 200.631,156.648 200.452,156.692 200.34,156.514 200.25,156.29 200.25,156.131 200.273,155.953 200.677,155.662 
	200.721,155.639 200.788,155.617 200.811,155.572 200.878,155.348 200.878,155.304 200.833,155.213 200.766,155.146 200.52,155.057 
	200.452,154.989 200.452,154.832 200.071,154.54 199.667,154.72 199.489,154.675 199.443,154.608 199.466,154.518 199.443,154.45 
	199.152,154.137 198.793,153.599 198.659,153.488 198.546,153.465 198.233,152.949 198.122,152.972 198.054,153.016 197.83,153.062 
	197.179,152.859 196.866,152.928 196.843,153.083 196.485,153.488 196.283,153.465 195.924,153.263 195.7,153.083 195.655,152.995 
	195.387,153.152 195.185,153.129 194.916,152.995 194.557,152.882 194.467,152.882 194.4,152.792 194.4,151.941 194.534,151.627 
	194.714,151.47 194.894,150.933 194.894,150.887 194.691,150.417 194.714,150.17 194.557,150.058 194.378,150.013 194.31,149.968 
	193.93,149.632 193.706,149.542 193.458,149.565 193.302,149.542 193.235,149.52 193.122,149.363 192.405,149.498 192.024,149.677 
	192.002,149.609 192.002,149.474 191.755,149.117 191.71,149.027 191.733,148.825 191.688,148.601 191.666,148.489 191.397,148.376 
	191.038,148.041 191.061,147.929 191.218,147.839 191.218,147.727 191.15,147.57 191.127,147.369 191.262,147.212 191.442,147.099 
	191.598,146.831 191.598,146.74 191.554,146.606 191.554,146.112 191.329,145.866 191.285,145.777 188.483,145.575 188.46,145.575 
	187.564,145.508 184.224,145.283 182.924,145.216 173.757,144.5 173.757,144.769 173.6,145.014 173.219,145.194 172.95,145.172 
	172.837,145.194 172.793,145.53 172.726,145.664 172.681,145.845 172.748,145.979 172.905,146.09 172.972,146.225 173.017,146.404 
	172.837,146.628 172.793,147.256 172.793,147.615 172.748,147.727 172.546,147.973 172.703,148.376 172.726,148.399 
	173.286,148.399 173.533,148.489 173.644,148.354 173.869,148.265 174.047,148.332 174.339,148.063 174.608,148.063 
	174.675,148.376 174.72,148.489 174.9,148.534 175.101,148.713 175.437,149.094 175.527,149.161 175.707,149.207 175.954,149.946 
	175.864,150.17 175.751,150.26 175.618,150.439 175.662,150.708 175.908,150.842 176.245,151.223 176.469,151.335 176.558,151.515 
	176.558,151.716 176.603,151.896 176.737,152.009 176.849,152.031 176.962,152.121 177.119,152.321 177.275,152.635 
	177.388,152.815 177.59,153.039 177.792,153.174 178.284,153.577 178.621,153.622 178.8,153.465 179.337,153.33 179.562,153.397 
	179.831,152.928 179.921,152.815 180.347,152.658 180.437,152.681 180.481,152.748 180.503,153.106 180.571,153.241 
	180.661,153.375 180.706,153.42 180.907,153.488 181.086,153.734 181.131,153.757 181.512,153.689 181.557,153.599 181.579,153.443 
	181.625,153.308 182.162,152.928 182.341,153.106 182.296,153.397 182.319,153.891 182.431,154.069 182.699,154.069 
	182.789,153.914 182.856,153.846 182.992,153.779 183.193,153.757 183.709,154.137 184.044,154.069 184.202,153.891 184.38,153.914 
	184.583,153.957 184.628,154.115 184.65,154.339 184.628,154.45 184.695,154.743 184.762,154.877 184.785,154.944 184.74,155.057 
	184.471,155.394 184.471,155.55 184.426,155.662 184.112,155.706 184.044,155.818 183.978,156.131 183.866,156.244 183.462,156.491 
	183.373,156.604 183.35,156.67 183.35,157.097 183.327,157.208 183.193,157.164 182.969,157.164 182.588,157.275 182.565,157.544 
	182.499,157.769 182.296,158.06 181.96,158.24 181.759,158.418 181.691,158.509 181.646,158.687 181.646,158.889 181.288,158.979 
	181.108,159.002 181.019,158.957 180.839,158.778 180.594,158.552 180.481,158.62 180.369,158.754 180.212,158.822 180.167,159.114 
	180.167,159.36 180.122,159.45 179.898,159.562 179.786,159.74 179.808,159.853 179.876,160.01 179.988,160.212 180.033,160.257 
	180.1,160.391 180.145,160.614 180.1,160.884 179.988,160.996 179.988,161.041 179.988,161.13 180.055,161.467 180.055,161.58 
	179.988,161.894 179.943,161.982 179.831,162.318 179.898,162.476 179.921,162.767 179.718,163.059 179.696,163.148 
	179.696,163.215 179.764,163.261 179.74,163.685 179.764,164.179 179.74,164.537 179.696,164.649 179.404,164.918 179.427,165.054 
	179.404,165.209 179.293,165.547 179.001,165.613 178.688,165.613 178.464,165.547 178.216,165.793 178.127,165.927 
	178.016,166.151 178.037,166.174 178.06,166.354 178.262,166.689 178.509,166.891 178.598,167.16 178.621,167.407 178.576,167.497 
	178.643,167.833 178.71,167.967 178.8,168.035 178.912,168.662 178.845,168.886 178.867,169.02 179.181,169.312 179.383,169.447 
	179.517,169.425 179.651,169.334 179.831,169.312 179.853,169.334 179.988,169.379 180.1,169.447 180.1,169.604 180.055,169.647 
	180.1,169.805 180.481,169.805 180.772,169.85 181.064,169.939 181.041,170.03 180.862,170.208 180.794,170.276 180.728,170.545 
	180.772,170.724 180.907,170.926 180.997,171.016 181.064,171.016 181.198,170.971 181.489,171.15 181.646,171.307 181.691,171.464 
	181.691,171.576 181.625,171.912 181.736,172.136 181.759,172.495 181.759,172.607 181.871,172.719 181.982,173.01 182.162,173.279 
	182.05,173.392 182.118,173.661 182.296,173.929 182.386,174.176 182.229,174.669 181.916,175.251 181.826,175.678 181.826,176.238 
	181.982,176.372 182.118,176.53 182.296,176.978 182.229,177.202 182.006,177.493 182.162,177.964 182.453,178.435 182.745,178.66 
	182.789,178.66 182.879,178.479 182.901,178.435 183.238,178.502 183.552,178.66 183.888,179.69 184.022,179.802 184.269,179.847 
	184.38,179.892 184.493,179.982 184.516,180.184 184.493,180.43 184.516,180.609 184.561,180.744 184.74,181.013 184.874,181.146 
	185.031,181.146 185.233,181.125 185.255,181.281 185.233,181.506 185.188,181.573 185.368,181.819 185.479,181.932 
	185.703,181.909 186.062,182.021 186.354,182.134 186.376,182.177 186.286,182.335 186.196,182.492 186.219,182.918 186.241,183.03 
	186.286,183.119 191.823,183.522 193.548,183.613 193.594,183.568 194.109,183.544 194.422,183.21 194.467,183.03 194.49,183.03 
	194.58,182.985 194.983,182.402 194.983,182.177 194.826,182.021 194.938,181.751 195.027,181.641 195.14,181.774 195.297,181.819 
	195.364,181.819 195.723,181.641 196.261,181.932 196.822,181.909 196.866,181.953 196.911,182.066 196.866,182.245 
	196.933,182.313 197.157,182.402 197.067,182.492 197.045,182.739 197.067,182.851 197.269,183.21 197.516,183.344 197.583,183.544 
	197.561,183.613 197.538,183.681 197.583,183.793 197.695,183.994 197.83,184.062 198.099,184.104 198.3,184.083 198.436,184.218 
	198.479,184.419 198.682,184.598 198.727,184.71 198.883,184.688 198.973,184.755 199.286,185.114 199.331,185.228 199.31,185.429 
	199.331,185.473 199.489,185.653 199.646,185.697 199.847,185.898 199.87,186.28 199.937,186.617 200.161,186.773 200.452,187.132 
	200.587,187.222 200.945,187.333 201.102,187.601 201.349,187.714 201.416,187.848 201.416,188.029 201.461,188.095 201.595,188.23 
	201.976,188.432 202.111,188.656 202.155,188.677 202.335,189.216 202.335,189.396 202.469,189.732 202.537,189.776 202.604,189.82 
	202.694,190.203 202.762,190.292 202.851,190.561 203.231,191.167 203.456,191.3 203.59,191.614 203.814,191.749 203.949,191.861 
	203.972,191.996 204.016,192.062 204.106,192.13 204.286,191.974 204.375,192.017 204.51,192.264 204.756,192.422 204.891,192.69 
	205.271,193.183 205.765,193.318 206.101,193.453 206.19,193.542 206.258,193.654 206.28,193.765 206.324,194.058 206.459,194.372 
	206.593,194.572 206.571,194.887 206.527,194.999 206.593,195.133 206.773,195.312 207.491,195.74 207.872,196.031 207.983,196.254 
	208.006,196.434 207.961,196.613 207.983,196.657 208.23,196.904 208.5,196.949 208.656,197.15 208.836,197.218 209.015,197.755 
	209.239,197.823 209.418,198.137 209.643,198.541 209.688,198.719 210.046,199.034 210.404,199.773 210.606,199.907 210.673,199.93 
	210.74,199.907 210.964,199.885 210.987,199.976 211.234,200.266 211.368,200.333 211.57,200.514 211.682,200.736 211.548,201.027 
	211.436,201.096 211.391,201.164 211.592,202.193 211.884,202.597 212.13,202.889 212.085,203.023 211.951,203.225 211.884,203.517 
	211.884,203.65 211.906,203.875 211.951,203.987 212.018,204.076 212.152,204.212 212.221,204.48 212.691,205.152 212.847,205.243 
	212.937,205.399 212.959,205.422 212.915,205.579 213.049,205.803 213.161,205.893 213.363,205.938 213.385,206.318 
	213.341,206.431 213.273,206.521 213.385,206.632 213.722,206.812 213.722,207.104 213.901,207.709 214.08,208.045 214.327,208.246 
	214.506,208.672 214.551,209.232 214.461,209.344 214.192,209.479 214.17,209.545 214.17,209.702 214.439,210.173 214.708,210.486 
	214.864,210.824 214.91,210.959 215.134,211.361 215.134,211.519 215.022,211.653 214.954,211.787 215,211.989 215.044,212.079 
	215.111,212.056 215.268,212.102 215.47,212.348 216.031,212.953 216.412,213.065 216.501,212.863 216.703,212.751 216.86,212.729 
	217.286,212.841 217.42,212.953 217.555,213.199 217.622,213.267 217.712,213.289 218.048,213.671 218.249,213.85 218.362,214.028 
	218.406,214.343 218.562,214.79 218.832,214.992 219.079,215.329 219.213,215.643 219.437,215.957 219.594,216.091 219.84,216.473 
	219.84,216.517 219.953,216.562 220.132,216.54 220.49,216.473 220.804,216.584 221.365,216.517 221.746,216.674 221.835,216.74 
	221.925,216.897 222.082,216.988 222.329,217.033 222.575,216.988 222.821,216.763 223.068,216.696 223.696,216.18 223.741,216.091 
	224.167,215.732 224.345,215.576 224.39,215.553 224.548,215.464 224.66,215.419 224.817,215.329 224.973,215.239 225.399,215.194 
	225.444,215.172 225.534,215.128 225.736,215.128 225.78,215.082 226.497,214.522 226.834,214.388 227.238,214.388 227.304,214.409 
	227.439,214.567 227.484,214.702 227.619,214.769 227.752,215.172 227.888,215.351 227.888,215.441 227.821,215.643 
	227.842,215.845 227.866,215.979 227.978,216.18 228.112,216.248 228.224,216.227 228.335,216.584 228.492,216.787 228.56,216.787 
	228.74,216.696 229.076,216.337 229.3,215.934 229.367,215.71 229.523,215.553 229.681,215.307 229.591,215.105 229.591,214.903 
	229.726,214.611 229.905,214.567 230.016,214.299 230.309,213.805 230.51,213.716 230.689,213.692 230.779,213.604 230.891,213.467 
	230.847,213.355 230.801,213.289 230.869,213.154 231.294,213.041 231.721,212.796 231.921,212.551 231.921,212.46 232.057,212.146 
	232.281,212.079 232.304,212.102 232.348,212.124 232.437,212.033 232.461,211.653 232.639,211.608 232.796,211.63 232.864,211.496 
	232.796,211.16 232.774,211.003 232.819,210.824 233.042,210.622 233.289,210.486 233.514,210.285 233.783,210.13 234.275,210.018 
	234.343,210.039 234.388,210.105 234.477,210.13 234.769,210.398 235.172,210.802 235.172,210.868 235.06,210.913 234.993,210.981 
	234.925,211.114 234.925,211.63 235.106,211.968 235.195,211.989 235.308,211.921 235.42,211.968 235.507,212.102 235.44,212.394 
	235.799,212.729 235.845,212.796 235.845,212.841 235.823,212.931 235.733,212.976 235.598,213.199 235.621,213.267 
	235.711,213.401 235.958,213.446 236.023,213.559 236.023,213.738 235.979,213.805 236.001,214.119 236.157,214.253 236.247,214.23 
	236.404,214.275 236.584,214.5 236.787,214.634 237.482,214.433 237.638,214.433 237.75,214.364 237.885,214.23 237.952,213.962 
	238.243,214.141 238.377,214.409 238.557,214.59 238.759,214.679 238.825,215.239 238.804,215.576 238.691,215.755 238.668,215.822 
	238.691,216.069 238.804,216.315 238.871,216.359 238.917,216.359 239.072,216.383 239.206,216.293 239.409,216.428 
	239.588,212.504 239.61,212.305 239.61,212.28 239.633,212.168 239.656,211.429 239.723,210.376 239.745,210.018 239.812,209.053 
	239.947,206.004 239.947,205.735 239.993,204.683 240.148,203.853 240.417,198.271 240.417,198.227 240.485,197.285 
	240.506,196.143 242.927,196.254 243.039,196.276 243.869,196.299 245.505,196.39 245.729,191.614 245.729,191.593 245.819,189.619 
	245.91,187.916 245.976,186.908 246.2,182.043 246.245,180.9 246.289,180.003 246.335,178.928 246.379,178.009 246.447,176.821 
	246.491,175.611 246.626,173.167 "/>
<polygon id="0800003" fill="#666666" stroke="#FFFFFF" stroke-width="0.75"  points="220.49,83.487 220.401,83.24 220.311,83.196 220.267,83.128 
	220.29,82.904 220.29,82.791 219.393,82.41 219.348,82.322 219.303,82.253 219.19,82.142 218.967,82.052 218.899,81.985 
	218.877,81.873 218.922,81.806 218.787,81.716 218.743,81.492 218.787,81.47 218.832,81.425 218.855,81.335 218.967,81.29 
	218.922,81.179 218.922,81.133 218.899,80.909 218.787,80.349 218.653,80.282 218.562,80.169 218.586,79.654 218.675,79.318 
	218.765,79.251 218.944,79.027 218.944,78.488 219.102,77.816 219.303,77.233 219.526,76.875 219.549,76.627 219.616,76.606 
	220.132,76.65 220.267,76.606 220.132,76.516 219.975,76.382 219.975,76.336 219.975,76.112 219.885,75.956 219.863,75.911 
	219.371,75.529 219.079,75.463 218.922,75.507 218.81,75.439 218.653,75.148 218.765,74.812 218.81,74.812 218.72,74.432 
	218.562,74.341 218.519,74.274 218.451,73.311 218.384,73.221 218.362,73.177 218.429,73.02 218.362,72.974 217.98,72.884 
	217.913,72.796 217.891,72.75 217.936,72.638 218.003,72.526 218.115,72.414 218.115,72.324 217.958,72.055 217.464,71.943 
	217.286,71.742 216.815,71.361 216.501,70.688 216.434,70.644 216.254,70.509 216.007,70.554 215.963,70.509 215.807,70.442 
	215.493,70.15 215.313,69.859 215.156,69.77 215.044,69.501 214.864,69.299 214.73,69.075 214.596,68.806 214.372,68.468 
	214.237,68.155 214.215,68.043 214.237,67.953 214.259,67.416 213.744,66.609 213.542,66.407 213.43,66.138 213.385,66.093 
	213.251,66.004 213.184,65.825 213.184,65.689 213.318,65.578 213.341,65.533 213.341,65.376 213.273,65.152 213.296,65.04 
	213.43,64.95 213.789,64.479 213.722,64.188 213.812,63.919 213.901,63.583 213.901,63.494 213.856,63.358 213.744,63.202 
	213.633,63.112 213.722,63.067 213.812,63 213.833,62.956 213.812,62.865 213.655,62.797 213.452,62.797 213.251,62.753 
	213.139,62.687 212.803,62.53 212.623,62.484 212.489,62.283 212.354,62.238 212.265,62.283 212.085,62.283 212.063,62.216 
	211.727,62.058 211.705,61.969 211.705,61.812 211.749,61.565 211.884,61.431 211.929,61.342 211.929,60.849 211.705,60.715 
	211.48,60.288 211.234,59.974 211.122,59.907 210.763,59.795 210.673,59.816 210.583,59.861 210.248,59.884 210.09,59.929 
	209.889,60.041 209.643,60.266 209.485,60.176 209.463,60.131 209.373,59.884 209.373,59.772 209.463,59.661 209.575,59.436 
	209.643,59.302 209.688,59.011 209.463,57.957 209.463,57.913 209.552,57.599 209.575,57.419 209.552,57.15 209.396,56.903 
	209.216,56.881 209.104,56.769 209.06,56.657 208.97,56.253 209.015,56.187 209.015,56.12 208.88,55.536 208.903,55.379 
	208.903,55.111 208.88,54.886 208.858,54.774 208.836,54.752 208.611,54.685 208.319,54.551 208.23,54.415 208.118,54.078 
	208.185,53.922 208.23,53.788 208.23,53.72 208.14,53.652 208.072,53.452 208.163,52.936 208.163,52.6 208.072,52.398 
	207.916,52.241 207.849,51.792 207.894,51.546 207.782,51.3 207.513,50.986 207.468,50.537 207.445,50.448 207.356,50.403 
	207.266,50.157 207.311,50.022 207.289,49.327 207.109,48.901 206.975,48.834 206.617,48.453 206.593,48.206 206.593,47.938 
	206.705,47.78 206.705,47.758 206.684,47.669 206.593,47.557 206.617,47.421 206.437,47.108 206.324,46.997 206.19,46.973 
	205.787,46.548 205.653,46.189 205.608,45.83 205.428,45.741 205.069,44.126 205.024,44.037 205.002,43.948 204.846,43.835 
	204.666,43.813 204.419,43.433 204.419,43.208 204.419,43.141 204.465,43.096 204.419,42.805 204.353,42.67 204.217,42.513 
	204.217,42.424 204.129,42.177 203.972,41.931 203.68,41.617 203.389,41.55 203.209,41.325 203.187,41.214 203.052,41.057 
	202.962,41.011 202.896,41.011 202.716,40.855 202.537,40.406 202.38,40.339 202.268,40.339 202.155,40.228 202.223,40.026 
	202.268,39.958 202.29,39.869 202.132,39.689 202.088,39.689 201.976,39.577 202.088,39.285 202.065,39.218 201.908,39.039 
	201.64,38.904 201.371,38.748 201.282,38.748 201.125,38.613 200.968,38.344 200.901,38.187 201.012,38.075 201.102,37.873 
	201.147,37.694 201.035,37 200.587,36.528 200.497,36.461 200.317,36.461 199.87,36.08 199.847,35.946 199.87,35.9 199.87,35.834 
	199.713,35.721 199.489,35.587 199.152,34.937 199.062,34.825 198.793,34.624 198.727,34.444 198.659,33.906 198.727,33.682 
	198.883,33.503 198.928,33.346 198.793,33.144 198.906,33.032 198.928,32.853 198.727,32.203 198.749,31.62 198.727,31.507 
	198.569,31.463 198.546,31.396 198.592,31.216 198.704,31.082 198.793,30.858 198.614,30.835 197.605,30.769 193.055,30.387 
	190.187,30.073 189.939,30.051 188.214,29.894 187.945,29.872 187.833,29.849 187.206,29.804 171.313,28.661 169.408,28.526 
	163.132,28.011 158.044,27.652 156.856,27.584 152.529,27.271 149.817,27.047 149.795,27.047 149.705,27.047 149.145,27.002 
	148.63,34.242 147.89,45.718 147.576,49.35 147.464,50.807 145.065,50.627 144.931,50.627 144.931,50.784 144.663,54.034 
	142.13,53.854 142.062,54.752 142.04,54.841 141.86,57.508 141.636,59.84 141.009,66.093 140.561,66.071 140.426,67.617 
	140.269,71.092 140.292,71.249 140.18,72.661 143.295,72.908 154.592,73.67 154.838,73.691 154.906,73.691 155.466,73.736 
	155.466,73.691 155.802,73.714 157.012,73.849 157.103,73.849 157.169,73.849 157.259,73.872 157.954,73.917 158.066,73.917 
	158.066,73.96 157.954,75.396 157.933,75.642 157.842,76.852 157.775,77.435 157.797,77.569 157.663,79.474 157.506,81.829 
	157.349,84.069 157.125,87.073 157.349,87.096 157.215,89.023 157.147,89.404 156.99,92.072 153.337,91.78 153.113,94.874 
	152.037,109.173 152.015,109.196 152.015,109.219 151.723,113.23 151.499,116.078 151.432,117.176 151.409,117.311 151.409,117.422 
	151.365,118.073 151.319,118.543 151.118,121.233 151.072,122.04 151.051,122.129 151.051,122.332 151.028,122.465 151.028,122.577 
	151.005,122.712 150.895,124.505 149.93,124.438 147.352,124.236 146.837,124.191 140.336,123.698 137.894,123.497 137.49,123.475 
	137.467,123.475 136.772,123.407 136.57,123.407 136.683,123.631 136.638,123.99 136.526,124.46 136.391,124.527 136.279,124.527 
	136.235,124.55 135.988,124.909 135.742,125.201 135.338,125.491 135.204,125.514 134.979,125.582 134.822,125.851 134.822,125.939 
	134.935,126.411 135.047,126.635 135.361,126.971 135.428,126.993 135.562,126.904 135.674,126.747 135.966,126.747 136.01,126.904 
	135.988,126.949 135.898,127.128 135.988,127.33 136.123,127.397 136.256,127.375 136.705,127.531 136.84,127.688 137.064,127.868 
	137.467,127.845 137.714,127.711 137.781,127.755 137.803,128.047 137.736,128.406 137.848,128.674 138.005,128.697 
	138.498,128.943 138.521,128.988 138.566,129.146 138.521,129.257 138.431,129.347 138.252,129.392 137.894,129.594 
	137.714,129.975 137.714,130.02 137.803,130.109 137.826,130.266 137.871,130.377 138.477,130.691 138.633,131.163 138.454,131.252 
	138.274,131.566 138.297,131.947 138.364,132.059 138.341,132.239 138.274,132.53 138.14,132.8 138.208,132.979 138.252,133.27 
	138.23,133.404 138.252,133.47 138.678,134.009 138.991,134.57 139.193,135.107 139.417,135.287 139.619,135.398 140.068,135.578 
	140.292,135.646 140.471,135.623 140.718,135.668 140.852,135.78 141.031,136.049 141.121,136.162 141.3,136.251 141.323,136.295 
	141.525,136.272 141.703,136.43 141.703,136.698 141.749,136.991 141.995,137.393 142.04,137.484 142.197,138.492 142.197,138.537 
	142.152,138.559 151.925,139.299 152.059,139.457 152.059,139.5 152.171,139.726 152.373,139.814 152.529,139.926 152.596,140.062 
	152.754,140.353 153.113,140.733 153.471,141.002 153.92,141.205 154.278,141.585 154.48,142.011 154.547,142.123 154.838,142.459 
	155.131,142.415 155.22,142.459 155.287,142.617 155.287,142.886 155.198,142.953 155.131,142.975 155.085,143.02 155.062,143.11 
	155.131,143.311 155.085,143.512 154.929,143.536 154.772,143.648 154.705,143.715 154.705,143.827 154.682,143.894 
	154.614,144.028 154.57,144.028 154.547,144.141 154.727,144.544 155.085,144.769 155.556,144.857 155.712,144.924 155.848,144.924 
	155.982,144.88 156.026,144.836 156.139,144.924 156.161,144.97 156.072,145.283 156.072,145.621 156.363,145.777 156.498,145.709 
	156.699,145.732 156.968,145.889 157.125,146.068 157.192,146.181 157.349,146.314 158.111,146.875 158.246,146.852 158.47,146.852 
	158.56,147.144 158.537,147.301 159.209,147.525 159.3,147.436 159.501,147.458 159.614,147.502 159.725,147.391 159.904,147.301 
	159.972,147.122 159.994,146.965 159.904,146.785 159.949,146.606 160.039,146.539 160.308,146.584 160.712,146.449 
	160.756,146.449 160.801,146.517 160.824,146.628 160.801,146.695 160.913,147.122 161.137,147.413 161.205,147.682 
	161.294,147.816 161.339,147.884 161.765,148.063 161.787,148.152 161.832,148.219 162.146,148.444 162.505,148.332 
	162.616,148.265 162.886,148.444 163.289,148.489 163.4,148.422 163.379,148.265 163.558,148.152 163.648,148.131 163.827,148.175 
	163.961,148.175 164.141,148.041 164.23,147.816 164.23,147.705 164.186,147.615 164.186,147.502 164.253,147.301 164.365,147.279 
	164.455,147.212 164.634,146.919 164.701,146.897 164.858,146.875 164.925,146.831 165.239,146.449 165.598,146.09 165.621,146.023 
	165.777,145.845 165.979,145.777 166.068,145.799 166.091,145.621 166.023,145.014 166.001,144.924 166.023,144.857 
	166.314,144.769 166.628,144.769 166.741,144.678 167.234,144.723 167.593,144.611 167.771,144.521 167.862,144.342 
	168.086,144.208 168.13,144.23 168.444,144.253 168.534,144.297 168.826,144.746 168.847,144.857 168.893,144.903 169.363,144.903 
	169.408,144.97 169.789,145.172 169.856,145.172 170.035,145.082 170.192,145.037 170.327,145.194 170.484,145.552 170.551,145.732 
	170.551,145.866 170.529,145.934 170.372,146.068 170.372,146.135 170.439,146.382 170.865,146.584 170.865,146.852 
	171.022,146.988 171.224,147.122 171.381,147.369 171.448,147.548 171.672,147.637 171.874,147.793 171.896,147.861 
	171.896,148.019 171.941,148.063 171.986,148.085 172.277,148.041 172.546,147.973 172.748,147.727 172.793,147.615 
	172.793,147.256 172.837,146.628 173.017,146.404 172.972,146.225 172.905,146.09 172.748,145.979 172.681,145.845 172.726,145.664 
	172.793,145.53 172.837,145.194 172.95,145.172 173.219,145.194 173.6,145.014 173.757,144.769 173.757,144.5 182.924,145.216 
	184.224,145.283 187.564,145.508 188.46,145.575 188.483,145.575 191.285,145.777 191.262,145.597 191.308,145.06 191.576,144.678 
	191.71,144.589 191.845,144.544 192.091,144.23 192.204,144.186 192.361,144.051 192.383,143.961 192.383,143.782 192.316,143.512 
	192.271,143.423 192.047,143.042 192.002,142.998 191.061,142.886 190.904,142.975 190.635,142.93 190.612,142.886 190.747,142.572 
	190.948,142.303 191.127,142.235 191.531,141.921 191.621,141.967 191.666,141.921 191.778,141.541 191.979,141.361 192.159,141.16 
	192.383,141.024 192.428,140.935 192.428,140.577 192.383,139.949 192.227,139.366 192.271,139.299 192.293,139.209 
	192.316,138.807 192.136,138.447 192.047,138.065 192.204,137.887 192.338,137.663 192.361,137.282 192.338,137.125 
	192.293,136.991 192.204,136.879 192.159,136.722 192.293,136.698 192.428,136.564 192.45,136.519 192.54,136.229 192.876,135.959 
	192.988,135.511 192.943,135.31 192.809,135.129 192.496,134.95 192.361,134.928 192.316,134.883 192.271,134.75 192.45,134.503 
	192.472,134.436 192.496,133.897 192.54,133.807 192.562,133.673 192.518,133.404 192.428,133.202 192.361,132.934 192.338,132.575 
	192.361,132.485 192.428,132.328 192.585,131.857 192.607,131.342 192.585,131.229 192.585,130.804 192.607,130.737 
	192.675,130.691 192.764,130.691 192.943,130.669 193.01,130.534 193.033,130.355 193.055,130.289 193.279,130.087 193.302,130.087 
	193.616,130.131 193.997,130.244 194.109,130.221 194.176,129.953 194.31,129.773 194.691,129.146 194.534,128.921 194.4,128.54 
	194.422,128.293 194.378,127.98 194.288,127.912 194.176,127.733 194.4,127.419 194.603,127.442 194.871,127.218 194.916,126.926 
	194.983,126.814 195.027,126.792 195.23,126.814 195.588,126.949 195.723,126.993 195.969,127.016 196.35,126.971 196.754,126.993 
	196.888,127.083 197.247,127.509 197.449,127.554 197.449,127.531 197.471,127.486 197.493,127.486 197.762,127.599 
	198.255,128.047 198.436,128.16 198.546,128.271 198.973,128.36 199.511,128.338 199.734,128.249 199.87,128.181 199.981,128.204 
	200.094,128.16 200.138,128.137 200.295,127.958 200.317,127.912 200.363,127.218 200.317,127.016 200.475,126.792 200.541,126.702 
	200.811,126.68 200.968,126.59 201.012,126.478 201.327,126.321 201.395,126.276 201.528,125.985 201.752,125.895 201.999,125.738 
	202.088,125.648 202.29,125.514 202.716,125.424 203.433,125.268 203.456,125.245 203.322,124.797 203.366,124.527 203.276,124.416 
	203.097,124.349 202.918,124.08 202.873,123.811 202.94,123.743 203.097,123.698 203.231,123.721 203.366,123.811 203.545,123.789 
	203.904,123.698 203.926,123.384 204.039,123.003 204.106,122.802 204.196,122.668 204.397,122.712 204.599,122.645 204.71,122.645 
	205.45,122.802 205.653,122.712 205.877,122.465 205.922,122.264 205.922,122.107 206.056,121.973 206.078,121.905 206.37,121.524 
	206.392,121.456 206.392,121.3 206.415,121.278 206.437,121.322 206.527,121.345 206.975,121.345 206.997,121.3 206.997,121.166 
	207.042,121.008 207.221,120.785 207.334,120.717 207.603,120.605 207.759,120.292 207.894,120.157 208.051,120.135 
	208.072,120.022 207.961,119.708 207.849,119.641 207.849,119.62 207.759,119.529 207.647,119.417 207.625,119.237 207.938,118.745 
	208.051,118.565 208.118,118.543 208.252,118.79 208.656,119.059 208.701,118.946 209.373,118.61 209.463,118.633 209.688,118.745 
	209.956,118.274 209.911,118.005 209.911,117.871 209.911,117.826 210.023,117.713 209.956,117.467 209.799,117.4 209.643,117.243 
	209.53,116.884 209.507,116.683 209.463,116.571 209.216,116.436 209.194,116.392 209.126,116.212 209.149,116.167 209.261,116.078 
	209.463,115.898 209.688,115.809 210.136,115.741 210.36,115.674 210.539,115.629 210.583,115.607 210.942,115.069 211.368,114.8 
	211.749,114.71 212.063,114.441 212.085,114.351 212.085,114.083 212.041,113.993 211.861,113.791 211.817,113.657 211.861,113.209 
	211.861,113.006 211.839,112.963 211.391,112.537 211.188,112.537 210.808,112.582 210.606,112.558 210.314,112.648 
	210.248,112.558 210.27,112.469 210.248,112.268 210.18,112.088 210,112.155 209.575,112.088 209.351,111.863 209.261,111.819 
	209.06,111.93 208.947,111.93 208.701,111.617 208.544,111.079 208.297,110.519 207.916,110.564 207.647,110.676 207.625,110.698 
	207.356,111.057 207.221,110.967 206.952,110.9 206.863,110.587 206.548,110.587 206.213,110.676 205.832,110.228 205.72,110.183 
	205.563,110.003 205.653,109.622 205.832,109.354 205.922,108.994 205.922,108.793 205.72,108.479 205.765,108.323 205.742,108.21 
	205.922,107.829 206.145,107.627 206.37,107.493 206.437,107.224 206.593,107.045 206.571,106.91 206.728,106.753 206.773,106.753 
	206.952,106.775 207.311,106.708 207.423,106.641 207.715,106.326 207.782,106.148 207.805,105.834 207.782,105.699 
	207.692,105.565 207.715,105.453 207.759,105.341 207.849,105.229 207.938,105.027 207.849,104.781 207.738,104.713 
	207.669,104.602 207.468,103.615 207.491,103.525 207.625,103.346 207.715,103.122 207.759,102.786 207.759,102.764 
	207.938,102.719 208.297,102.673 208.342,102.697 208.432,102.831 208.97,102.831 209.216,102.92 209.373,103.39 209.507,103.346 
	209.688,103.323 209.911,103.436 210.427,103.525 210.606,103.615 210.92,103.369 211.211,103.234 211.234,103.099 211.324,102.964 
	211.727,102.651 212.152,102.673 212.399,102.741 212.601,102.943 212.691,103.01 213.161,103.211 213.296,103.234 214.304,102.741 
	214.394,102.719 214.573,102.719 214.573,102.651 214.619,102.45 214.73,102.27 214.82,102.181 215.111,102.002 215.156,101.911 
	215.156,101.732 215.179,101.621 215.246,101.508 215.537,100.97 215.716,100.813 215.94,100.903 216.075,100.925 216.254,100.903 
	216.479,100.813 216.501,100.768 216.635,100.298 216.748,100.096 216.792,100.051 216.703,99.895 216.591,99.536 216.434,98.438 
	216.545,98.325 216.591,98.124 216.501,98.034 216.524,97.698 216.635,97.519 216.927,97.361 217.129,96.533 217.622,95.434 
	217.734,95.321 217.756,95.277 217.6,95.299 217.42,95.232 217.263,95.008 217.129,94.918 216.995,94.761 216.971,94.694 
	216.971,94.224 217.398,93.753 217.263,93.686 217.219,93.08 217.331,92.744 217.487,92.52 217.51,92.317 217.398,92.162 
	217.51,91.87 217.532,91.624 217.353,91.557 217.286,91.512 217.263,91.444 217.286,91.288 217.331,91.22 217.375,90.929 
	217.398,90.391 217.442,90.345 217.688,90.481 217.801,90.481 217.936,90.458 218.048,90.391 218.294,90.345 218.384,90.369 
	218.653,90.391 219.102,90.121 219.079,89.987 219.235,89.763 219.505,89.449 219.639,89.404 219.661,89.338 219.796,88.799 
	219.371,88.194 219.303,87.993 219.28,87.925 219.371,87.835 219.415,87.723 219.505,87.544 220.043,87.005 220.065,86.938 
	220.109,86.603 220.065,86.536 220.043,86.423 220.177,85.795 220.132,85.481 220.087,85.37 220.087,85.101 220.199,84.719 
	220.423,84.608 220.535,84.451 220.535,84.047 "/>
<g id="0800002">
	<polygon fill="#666666" points="76.164,118.229 77.777,118.363 85.263,119.059 86.967,119.215 87.259,119.261 88.559,119.373 
		92.504,119.731 94.028,119.82 94.387,119.888 97.75,120.18 98.959,120.269 99.744,120.336 102.12,120.561 103.263,120.65 
		103.711,120.695 104.429,120.762 109.741,121.211 109.763,121.211 109.785,121.211 110.906,121.3 112.273,121.412 113.013,121.479 
		114.739,121.636 114.962,121.659 115.008,121.659 116.152,121.748 117.34,121.838 118.571,121.95 121.666,122.197 122.09,122.242 
		132.29,123.071 136.548,123.407 136.57,123.407 136.772,123.407 137.467,123.475 137.49,123.475 137.894,123.497 140.336,123.698 
		146.837,124.191 147.352,124.236 149.93,124.438 150.895,124.505 151.005,122.712 151.028,122.577 151.028,122.465 
		151.051,122.332 151.051,122.129 151.072,122.04 151.118,121.233 151.319,118.543 151.365,118.073 151.409,117.422 
		151.409,117.311 151.432,117.176 151.499,116.078 151.723,113.23 152.015,109.219 152.015,109.196 152.037,109.173 153.113,94.874 
		153.337,91.78 156.99,92.072 157.147,89.404 157.215,89.023 157.349,87.096 157.125,87.073 157.349,84.069 157.506,81.829 
		157.663,79.474 157.797,77.569 157.775,77.435 157.842,76.852 157.933,75.642 157.954,75.396 158.066,73.96 158.066,73.917 
		157.954,73.917 157.259,73.872 157.169,73.849 157.103,73.849 157.012,73.849 155.802,73.714 155.466,73.691 155.466,73.736 
		154.906,73.691 154.838,73.691 154.592,73.67 143.295,72.908 140.18,72.661 140.292,71.249 140.269,71.092 140.426,67.617 
		140.561,66.071 141.009,66.093 141.636,59.84 141.86,57.508 142.04,54.841 142.062,54.752 142.13,53.854 144.663,54.034 
		144.931,50.784 144.931,50.627 145.065,50.627 147.464,50.807 147.576,49.35 147.89,45.718 148.63,34.242 149.145,27.002 
		146.971,26.824 140.18,26.33 137.871,26.151 136.953,26.083 135.585,25.972 132.694,25.747 122.697,24.917 122.472,24.896 
		117.047,24.447 115.165,24.312 111.108,24.043 108.06,23.797 106.423,23.64 105.886,23.596 97.054,22.812 95.911,22.744 
		91.315,22.295 84.435,21.668 80.176,21.264 72.891,20.547 72.667,22.99 71.973,30.858 71.323,37.447 71.008,41.033 70.83,43.074 
		70.292,47.713 70.292,47.736 70.045,50.112 70.022,50.381 69.708,53.384 68.453,66.474 68.229,68.94 68.184,69.411 67.534,76.112 
		67.534,76.135 66.504,87.005 65.763,94.604 65.293,99.67 64.351,109.286 64.149,111.393 63.634,117.019 76.007,118.207 	"/>
	<polygon fill="#666666" points="186.376,182.177 186.354,182.134 186.062,182.021 185.703,181.909 185.479,181.932 
		185.368,181.819 185.188,181.573 185.233,181.506 185.255,181.281 185.233,181.125 185.031,181.146 184.874,181.146 
		184.74,181.013 184.561,180.744 184.516,180.609 184.493,180.43 184.516,180.184 184.493,179.982 184.38,179.892 184.269,179.847 
		184.022,179.802 183.888,179.69 183.552,178.66 183.238,178.502 182.901,178.435 182.879,178.479 182.789,178.66 182.745,178.66 
		182.453,178.435 182.162,177.964 182.006,177.493 182.229,177.202 182.296,176.978 182.118,176.53 181.982,176.372 
		181.826,176.238 181.826,175.678 181.916,175.251 182.229,174.669 182.386,174.176 182.296,173.929 182.118,173.661 
		182.05,173.392 182.162,173.279 181.982,173.01 181.871,172.719 181.759,172.607 181.759,172.495 181.736,172.136 181.625,171.912 
		181.691,171.576 181.691,171.464 181.646,171.307 181.489,171.15 181.198,170.971 181.064,171.016 180.997,171.016 
		180.907,170.926 180.772,170.724 180.728,170.545 180.794,170.276 180.862,170.208 181.041,170.03 181.064,169.939 180.772,169.85 
		180.481,169.805 180.1,169.805 180.055,169.647 180.1,169.604 180.1,169.447 179.988,169.379 179.853,169.334 179.831,169.312 
		179.651,169.334 179.517,169.425 179.383,169.447 179.181,169.312 178.867,169.02 178.845,168.886 178.912,168.662 178.8,168.035 
		178.71,167.967 178.643,167.833 178.576,167.497 178.621,167.407 178.598,167.16 178.509,166.891 178.262,166.689 178.06,166.354 
		178.037,166.174 178.016,166.151 178.127,165.927 178.216,165.793 178.464,165.547 178.688,165.613 179.001,165.613 
		179.293,165.547 179.404,165.209 179.427,165.054 179.404,164.918 179.696,164.649 179.74,164.537 179.764,164.179 179.74,163.685 
		179.764,163.261 179.696,163.215 179.696,163.148 179.718,163.059 179.921,162.767 179.898,162.476 179.831,162.318 
		179.943,161.982 179.988,161.894 180.055,161.58 180.055,161.467 179.988,161.13 179.988,161.041 179.988,160.996 180.1,160.884 
		180.145,160.614 180.1,160.391 180.033,160.257 179.988,160.212 179.876,160.01 179.808,159.853 179.786,159.74 179.898,159.562 
		180.122,159.45 180.167,159.36 180.167,159.114 180.212,158.822 180.369,158.754 180.481,158.62 180.594,158.552 180.839,158.778 
		181.019,158.957 181.108,159.002 181.288,158.979 181.646,158.889 181.646,158.687 181.691,158.509 181.759,158.418 181.96,158.24 
		182.296,158.06 182.499,157.769 182.565,157.544 182.588,157.275 182.969,157.164 183.193,157.164 183.327,157.208 183.35,157.097 
		183.35,156.67 183.373,156.604 183.462,156.491 183.866,156.244 183.978,156.131 184.044,155.818 184.112,155.706 184.426,155.662 
		184.471,155.55 184.471,155.394 184.74,155.057 184.785,154.944 184.762,154.877 184.695,154.743 184.628,154.45 184.65,154.339 
		184.628,154.115 184.583,153.957 184.38,153.914 184.202,153.891 184.044,154.069 183.709,154.137 183.193,153.757 
		182.992,153.779 182.856,153.846 182.789,153.914 182.699,154.069 182.431,154.069 182.319,153.891 182.296,153.397 
		182.341,153.106 182.162,152.928 181.625,153.308 181.579,153.443 181.557,153.599 181.512,153.689 181.131,153.757 
		181.086,153.734 180.907,153.488 180.706,153.42 180.661,153.375 180.571,153.241 180.503,153.106 180.481,152.748 
		180.437,152.681 180.347,152.658 179.921,152.815 179.831,152.928 179.562,153.397 179.337,153.33 178.8,153.465 178.621,153.622 
		178.284,153.577 177.792,153.174 177.59,153.039 177.388,152.815 177.275,152.635 177.119,152.321 176.962,152.121 
		176.849,152.031 176.737,152.009 176.603,151.896 176.558,151.716 176.558,151.515 176.469,151.335 176.245,151.223 
		175.908,150.842 175.662,150.708 175.618,150.439 175.751,150.26 175.864,150.17 175.954,149.946 175.707,149.207 175.527,149.161 
		175.437,149.094 175.101,148.713 174.9,148.534 174.72,148.489 174.675,148.376 174.608,148.063 174.339,148.063 174.047,148.332 
		173.869,148.265 173.644,148.354 173.533,148.489 173.286,148.399 172.726,148.399 172.703,148.376 172.546,147.973 
		172.277,148.041 171.986,148.085 171.941,148.063 171.896,148.019 171.896,147.861 171.874,147.793 171.672,147.637 
		171.448,147.548 171.381,147.369 171.224,147.122 171.022,146.988 170.865,146.852 170.865,146.584 170.439,146.382 
		170.372,146.135 170.372,146.068 170.529,145.934 170.551,145.866 170.551,145.732 170.484,145.552 170.327,145.194 
		170.192,145.037 170.035,145.082 169.856,145.172 169.789,145.172 169.408,144.97 169.363,144.903 168.893,144.903 
		168.847,144.857 168.826,144.746 168.534,144.297 168.444,144.253 168.13,144.23 168.086,144.208 167.862,144.342 167.771,144.521 
		167.593,144.611 167.234,144.723 166.741,144.678 166.628,144.769 166.314,144.769 166.023,144.857 166.001,144.924 
		166.023,145.014 166.091,145.621 166.068,145.799 165.979,145.777 165.777,145.845 165.621,146.023 165.598,146.09 
		165.239,146.449 164.925,146.831 164.858,146.875 164.701,146.897 164.634,146.919 164.455,147.212 164.365,147.279 
		164.253,147.301 164.186,147.502 164.186,147.615 164.23,147.705 164.23,147.816 164.141,148.041 163.961,148.175 163.827,148.175 
		163.648,148.131 163.558,148.152 163.379,148.265 163.4,148.422 163.289,148.489 162.886,148.444 162.616,148.265 162.505,148.332 
		162.146,148.444 161.832,148.219 161.787,148.152 161.765,148.063 161.339,147.884 161.294,147.816 161.205,147.682 
		161.137,147.413 160.913,147.122 160.801,146.695 160.824,146.628 160.801,146.517 160.756,146.449 160.712,146.449 
		160.308,146.584 160.039,146.539 159.949,146.606 159.904,146.785 159.994,146.965 159.972,147.122 159.904,147.301 
		159.725,147.391 159.614,147.502 159.501,147.458 159.3,147.436 159.209,147.525 158.537,147.301 158.56,147.144 158.47,146.852 
		158.246,146.852 158.111,146.875 157.349,146.314 157.192,146.181 157.125,146.068 156.968,145.889 156.699,145.732 
		156.498,145.709 156.363,145.777 156.072,145.621 156.072,145.283 156.161,144.97 156.139,144.924 156.026,144.836 155.982,144.88 
		155.848,144.924 155.712,144.924 155.556,144.857 155.085,144.769 154.727,144.544 154.547,144.141 154.57,144.028 
		154.614,144.028 154.682,143.894 154.705,143.827 154.705,143.715 154.772,143.648 154.929,143.536 155.085,143.512 
		155.131,143.311 155.062,143.11 155.085,143.02 155.131,142.975 155.198,142.953 155.287,142.886 155.287,142.617 155.22,142.459 
		155.131,142.415 154.838,142.459 154.547,142.123 154.48,142.011 154.278,141.585 153.92,141.205 153.471,141.002 153.113,140.733 
		152.754,140.353 152.596,140.062 152.529,139.926 152.373,139.814 152.171,139.726 152.059,139.5 152.059,139.457 151.925,139.299 
		142.152,138.559 142.197,138.537 142.197,138.492 142.04,137.484 141.995,137.393 141.749,136.991 141.703,136.698 141.703,136.43 
		141.525,136.272 141.323,136.295 141.3,136.251 141.121,136.162 141.031,136.049 140.852,135.78 140.718,135.668 140.471,135.623 
		140.292,135.646 140.068,135.578 139.619,135.398 139.417,135.287 139.193,135.107 138.991,134.57 138.678,134.009 138.252,133.47 
		138.23,133.404 138.252,133.27 138.208,132.979 138.14,132.8 138.274,132.53 138.341,132.239 138.364,132.059 138.297,131.947 
		138.274,131.566 138.454,131.252 138.633,131.163 138.477,130.691 137.871,130.377 137.826,130.266 137.803,130.109 
		137.714,130.02 137.557,130.176 137.445,130.199 137.086,130.131 136.817,130.02 136.369,129.907 136.123,129.953 136.078,130.737 
		136.033,130.827 135.562,131.028 135.047,131.342 134.441,131.432 133.949,131.342 133.837,131.229 133.814,131.073 
		133.634,130.939 133.59,130.939 133.544,130.983 133.455,131.32 133.411,131.454 133.029,131.925 132.874,131.969 132.738,131.925 
		132.334,131.969 132.223,132.014 132.156,132.103 131.796,132.53 131.393,132.732 130.789,133.068 130.722,133.135 130.698,133.18 
		130.676,133.517 130.743,133.74 130.676,133.875 129.958,134.054 129.846,134.054 129.667,133.897 129.51,133.852 129.443,133.897 
		129.376,134.054 129.286,134.122 129.085,134.189 128.904,134.211 128.793,134.233 128.725,134.368 128.3,134.726 128.009,134.75 
		127.65,134.861 127.47,135.152 127.336,135.265 127.247,135.22 127.044,135.287 126.664,135.534 126.552,135.668 126.506,135.825 
		126.417,136.004 126.373,136.004 126.17,135.914 126.082,136.004 125.678,136.519 125.521,136.519 125.409,136.766 
		125.409,136.879 125.386,136.923 125.027,137.237 124.938,137.349 124.96,137.484 125.05,137.572 125.027,137.618 124.826,137.752 
		124.579,137.775 124.512,137.82 124.445,137.954 124.354,138.201 124.242,138.246 124.041,138.223 123.907,138.672 
		123.682,138.919 123.369,139.074 123.1,139.12 122.943,139.053 122.897,139.053 122.697,139.142 122.494,139.277 122.494,139.366 
		122.383,139.545 122.023,139.949 122.023,140.062 122.023,140.15 121.441,140.039 121.306,140.039 121.239,140.062 121.082,140.15 
		120.993,140.263 120.948,140.398 121.06,140.42 120.993,140.509 120.656,140.711 120.612,140.688 120.432,140.688 120.387,140.778 
		120.387,140.958 120.074,141.069 119.962,141.205 119.938,141.293 119.693,141.227 119.581,141.024 119.491,140.98 
		119.378,140.801 119.11,140.509 118.751,140.107 117.922,139.702 117.519,139.479 117.204,139.321 116.734,139.007 116.644,139.03 
		116.174,138.874 116.04,138.985 115.995,138.94 115.972,138.807 115.905,138.761 115.726,138.828 115.501,139.053 115.411,139.074 
		115.344,139.03 115.143,139.165 115.12,139.232 115.098,139.253 114.852,139.232 114.605,139.366 114.515,139.433 114.291,139.479 
		114.089,139.433 113.932,139.457 113.753,139.635 113.595,139.747 113.529,139.726 113.506,139.657 113.438,139.613 113.17,139.5 
		112.273,139.545 111.624,139.613 111.019,139.568 110.659,139.457 110.212,139.5 110.145,139.59 109.965,139.882 109.315,140.286 
		109.271,140.353 109.135,140.465 108.889,140.577 108.575,140.778 108.216,141.048 108.104,141.114 107.992,141.092 
		107.835,141.205 107.589,141.608 107.566,141.809 107.163,142.078 107.006,142.102 106.939,141.921 106.917,141.876 
		106.76,141.921 106.625,142.123 106.536,142.235 106.065,142.706 105.93,142.908 105.459,143.177 105.168,143.512 105.101,143.648 
		104.945,143.737 104.787,143.76 104.72,143.782 104.742,143.871 105.012,144.544 104.966,144.813 104.854,144.97 104.562,145.194 
		104.25,145.552 103.869,146.135 103.442,146.539 103.375,146.695 103.195,146.875 103.039,146.965 102.792,147.055 102.726,147.01 
		102.658,146.919 102.523,146.831 102.478,146.807 102.366,146.852 102.165,147.233 102.143,147.346 102.143,147.436 
		102.254,147.637 102.299,147.816 102.277,147.929 102.232,147.951 102.075,147.884 101.985,147.861 101.806,148.131 
		101.717,148.219 101.402,148.198 101.223,148.131 101.089,148.108 100.641,148.354 100.574,148.467 100.169,148.601 98.04,149.296 
		91.966,151.291 91.943,151.291 91.092,151.56 91.047,151.963 91.047,152.009 90.24,161.108 89.411,170.478 89.366,170.903 
		89.345,171.038 89.254,171.038 88.267,170.948 85.332,170.679 85.085,170.656 80.019,170.208 79.325,170.142 79.235,170.142 
		68.184,169.11 67.041,169.02 65.92,168.909 61.527,168.483 61.034,168.438 58.322,168.192 57.829,173.369 57.044,181.46 
		57.134,183.276 57.269,188.072 57.201,188.768 57.067,190.024 56.931,191.346 56.282,197.846 56.282,197.98 56.125,199.325 
		55.856,203.292 55.677,204.816 55.609,205.31 55.453,207.125 55.408,207.507 55.229,209.613 55.05,211.339 54.938,212.305 
		54.915,212.572 54.893,212.953 54.87,213.154 54.713,214.746 54.713,214.858 54.421,217.525 54.197,220.035 54.176,220.395 
		54.108,221.18 53.682,225.527 53.458,227.343 53.368,228.127 53.346,228.24 53.301,228.732 53.256,229.159 52.629,234.718 
		52.539,235.614 52.36,237.542 52.315,237.9 51.911,242.091 51.934,242.137 51.867,242.697 51.71,244.4 51.665,244.737 
		51.643,244.938 51.508,246.396 51.172,250.251 51.149,250.386 51.082,251.169 51.037,251.753 50.97,252.446 50.948,252.56 
		50.679,255.541 50.656,255.698 50.544,256.908 52.382,257.088 52.405,257.088 54.557,257.311 54.757,257.334 64.283,258.208 
		69.082,258.635 70.292,258.745 70.313,258.745 74.191,259.083 77.755,259.418 81.499,259.731 84.211,259.979 84.233,259.979 
		85.712,260.112 85.735,260.112 87.484,260.249 87.528,260.292 90.42,260.539 90.8,260.561 96.92,261.055 97.57,261.099 
		99.116,261.233 99.879,261.301 103.195,261.57 105.213,261.727 105.348,261.749 105.841,261.795 109.337,262.085 112.52,262.332 
		117.496,262.735 117.72,262.759 121.15,263.026 121.284,263.049 123.257,263.207 125.095,263.341 126.013,263.408 126.082,263.408 
		133.792,264.013 136.481,264.215 140.673,264.529 143.923,264.775 146.343,264.955 147.71,265.045 149.437,265.178 
		151.386,265.313 151.701,265.807 155.781,266.099 157.259,266.188 160.734,266.412 161.406,266.435 162.931,266.546 
		163.467,266.59 168.893,266.927 170.035,266.995 169.52,265.717 165.374,257.983 165.217,254.712 162.931,253.3 161.944,252.672 
		161.607,252.469 161.787,249.669 162.168,244.469 162.325,242.091 160.824,241.957 160.801,242.428 157.909,242.271 
		157.08,242.228 153.359,242.047 153.157,242.025 152.104,241.957 148.518,241.711 145.155,241.532 141.412,241.239 
		141.569,239.447 141.793,236.444 141.951,234.875 142.533,228.732 142.69,227.5 142.892,224.541 141.928,224.43 142.219,222.053 
		142.219,222.031 142.533,219.61 142.69,218.131 142.69,217.997 142.96,215.396 143.071,213.199 143.138,212.662 143.407,208.873 
		143.542,208.896 143.564,208.941 143.609,208.964 143.811,208.964 144.17,208.807 144.708,208.717 144.819,208.649 
		144.931,208.492 145.065,208.111 145.088,208.045 145.134,208.045 145.155,208.179 145.222,208.246 145.47,208.404 
		145.582,208.426 145.761,208.357 145.851,208.246 145.895,208.201 146.142,208.157 146.366,208.201 146.456,208.179 
		146.522,208.133 146.702,207.909 146.725,207.821 146.747,207.798 146.859,207.887 147.039,207.909 147.106,208.021 
		147.106,208.157 147.24,208.357 147.286,208.381 147.397,208.335 147.487,208.335 147.823,208.604 147.98,208.627 148.293,208.583 
		148.383,208.515 148.383,208.448 148.45,208.381 148.674,208.335 148.787,208.381 149.011,208.695 149.392,208.873 
		149.459,208.829 149.504,208.717 149.549,208.312 149.638,208.269 149.728,208.335 149.817,208.335 149.975,205.735 
		150.355,200.244 150.625,197.017 151.678,183.008 151.813,181.371 151.858,180.542 156.79,180.923 158.918,181.08 162.818,181.371 
		179.898,182.626 186.286,183.119 186.241,183.03 186.219,182.918 186.196,182.492 186.286,182.335 	"/>
</g>
<polygon id="0800001" fill="#666666" stroke="#FFFFFF" stroke-width="0.75"  points="380.664,38.479 378.266,38.434 375.33,38.367 374.59,38.344 
	374.545,38.322 374.523,38.322 374.411,38.322 373.537,38.322 372.305,38.277 371.945,38.277 371.766,38.277 371.497,38.277 
	370.914,38.254 370.848,38.254 367.709,38.187 367.015,38.165 366.97,38.165 366.655,38.143 363.45,38.053 363.046,38.053 
	363.002,38.053 362.217,38.03 360.917,38.008 359.192,37.963 358.788,37.941 358.362,37.941 358.339,37.941 358.229,37.941 
	356.345,37.851 354.91,37.829 351.278,37.739 351.122,37.739 350.45,37.717 349.912,37.694 349.62,37.671 347.245,37.627 
	347.11,37.604 346.393,37.604 346.26,37.582 345.541,37.582 345.451,37.56 344.667,37.56 344.577,37.537 343.815,37.515 
	343.748,37.515 342.964,37.493 342.896,37.493 342.135,37.47 342.045,37.47 341.395,37.447 341.35,37.447 341.261,37.447 
	341.216,37.447 340.431,37.425 340.386,37.425 339.602,37.38 339.534,37.38 337.898,37.335 337.695,37.312 337.047,37.291 
	336.979,37.291 336.239,37.268 336.172,37.268 326.086,36.954 323.575,36.865 323.486,36.865 322.724,36.82 322.073,36.775 
	320.975,36.775 318.129,36.663 317.657,36.663 315.999,36.618 314.25,36.528 314.273,37.066 314.273,37.201 314.25,37.918 
	314.206,38.659 314.184,38.815 314.161,39.442 314.094,41.191 314.094,41.371 314.071,42.289 314.026,43.096 313.981,43.948 
	313.981,44.553 313.914,46.48 313.892,46.683 313.758,50.851 313.69,51.704 313.601,54.303 313.331,54.281 313.265,55.626 
	313.22,56.253 313.22,56.365 313.152,57.8 313.062,59.705 313.062,59.772 313.018,60.557 312.95,62.283 312.928,62.731 
	312.906,63.157 312.884,64.009 312.86,64.883 312.009,64.86 311.584,64.838 310.306,64.815 309.455,64.815 307.772,64.771 
	306.943,64.704 305.352,64.592 305.24,64.592 302.147,64.413 298.336,64.278 296.453,64.188 296.117,64.165 295.378,64.144 
	294.907,64.121 294.258,64.077 292.822,64.009 291.142,63.942 290.289,63.897 289.64,63.875 287.689,63.785 287.645,65.264 
	287.6,66.362 287.532,68.917 287.33,72.638 287.264,74.118 287.129,74.118 287.085,75.373 287.085,75.485 287.039,76.695 
	287.039,76.718 287.017,76.763 287.017,76.896 287.017,77.166 287.017,77.233 286.994,77.592 286.994,77.637 286.973,77.995 
	286.904,80.036 286.838,81.11 286.726,84.137 286.703,84.518 286.637,85.862 286.637,85.953 286.568,87.454 286.568,87.521 
	286.546,87.947 286.456,89.718 286.434,90.502 286.345,92.229 286.232,94.806 286.59,94.829 287.823,94.874 289.841,94.963 
	290.11,94.963 291.5,95.008 293.069,95.076 293.227,95.097 295.355,95.188 297.91,95.299 298.964,95.321 299.054,95.299 
	299.121,95.345 299.502,95.345 301.99,95.457 302.26,95.457 303.223,95.501 304.791,95.546 304.904,95.569 305.643,95.569 
	306.137,95.591 306.069,97.25 306.024,98.124 305.912,100.701 305.89,101.352 305.89,101.598 305.777,104.131 305.621,107.649 
	305.576,109.375 305.486,111.101 305.465,111.954 305.465,112.043 305.441,112.469 305.194,118.655 305.061,121.39 304.747,121.368 
	304.546,126.208 304.546,126.254 304.299,131.566 304.209,134.524 304.074,137.035 304.074,138.044 304.052,138.313 
	304.052,138.514 304.03,138.807 304.03,138.963 304.03,139.074 304.03,139.097 304.007,139.277 304.007,139.344 303.963,140.509 
	303.828,144.387 303.738,145.664 303.671,147.391 303.424,147.391 303.38,148.265 303.357,149.117 303.268,149.968 303.268,151.671 
	303.199,153.397 303.111,154.944 303.111,155.101 302.999,158.552 302.977,159.405 302.954,160.682 302.909,162.275 
	302.887,162.835 301.183,162.789 301.139,162.789 300.354,162.745 299.659,162.723 299.614,162.723 298.65,162.677 297.821,162.632 
	296.857,162.588 295.646,162.521 293.966,162.431 292.845,162.363 291.007,162.251 290.178,162.207 290.11,162.207 287.622,162.094 
	287.6,162.969 287.577,162.991 287.555,164.044 287.532,164.248 287.532,164.649 287.443,167.206 287.443,167.228 287.443,167.452 
	287.376,169.827 287.376,169.984 287.376,170.23 287.354,171.576 287.33,172.45 287.286,172.45 287.241,173.189 287.085,175.745 
	287.062,176.642 286.973,178.479 286.949,179.22 286.838,181.303 286.815,182.648 286.59,186.056 286.479,187.759 286.434,188.544 
	286.143,197.218 286.12,198.091 285.963,198.091 285.941,198.115 285.785,201.746 285.695,203.808 285.649,204.929 285.649,205.152 
	285.649,205.22 285.628,205.825 285.582,206.095 285.516,207.372 285.493,208.066 285.358,210.398 285.225,213.805 285.134,215.912 
	285.112,216.674 284.91,221.27 284.753,224.094 284.753,224.115 284.664,224.115 284.484,228.419 284.484,229.338 280.741,227.77 
	271.327,223.824 270.071,223.309 269.824,223.22 262.339,220.104 257.924,218.266 257.05,218.288 257.026,218.288 249.496,218.398 
	248.241,218.423 246.155,218.467 243.533,218.489 240.955,218.558 240.955,218.423 240.888,218.288 240.619,218.153 
	240.082,217.771 240.036,217.705 240.215,217.145 240.148,217.076 239.835,216.897 239.409,216.428 239.206,216.293 
	239.072,216.383 238.917,216.359 238.871,216.359 238.804,216.315 238.691,216.069 238.668,215.822 238.691,215.755 
	238.804,215.576 238.825,215.239 238.759,214.679 238.557,214.59 238.377,214.409 238.243,214.141 237.952,213.962 237.885,214.23 
	237.75,214.364 237.638,214.433 237.482,214.433 236.787,214.634 236.584,214.5 236.404,214.275 236.247,214.23 236.157,214.253 
	236.001,214.119 235.979,213.805 236.023,213.738 236.023,213.559 235.958,213.446 235.711,213.401 235.621,213.267 
	235.598,213.199 235.733,212.976 235.823,212.931 235.845,212.841 235.845,212.796 235.799,212.729 235.44,212.394 235.507,212.102 
	235.42,211.968 235.308,211.921 235.195,211.989 235.106,211.968 234.925,211.63 234.925,211.114 234.993,210.981 235.06,210.913 
	235.172,210.868 235.172,210.802 234.769,210.398 234.477,210.13 234.388,210.105 234.343,210.039 234.275,210.018 233.783,210.13 
	233.514,210.285 233.289,210.486 233.042,210.622 232.819,210.824 232.774,211.003 232.796,211.16 232.864,211.496 232.796,211.63 
	232.639,211.608 232.461,211.653 232.437,212.033 232.348,212.124 232.304,212.102 232.281,212.079 232.057,212.146 231.921,212.46 
	231.921,212.551 231.721,212.796 231.294,213.041 230.869,213.154 230.801,213.289 230.847,213.355 230.891,213.467 
	230.779,213.604 230.689,213.692 230.51,213.716 230.309,213.805 230.016,214.299 229.905,214.567 229.726,214.611 229.591,214.903 
	229.591,215.105 229.681,215.307 229.523,215.553 229.367,215.71 229.3,215.934 229.076,216.337 228.74,216.696 228.56,216.787 
	228.492,216.787 228.335,216.584 228.224,216.227 228.112,216.248 227.978,216.18 227.866,215.979 227.842,215.845 227.821,215.643 
	227.888,215.441 227.888,215.351 227.752,215.172 227.619,214.769 227.484,214.702 227.439,214.567 227.304,214.409 
	227.238,214.388 226.834,214.388 226.497,214.522 225.78,215.082 225.736,215.128 225.534,215.128 225.444,215.172 225.399,215.194 
	224.973,215.239 224.817,215.329 224.66,215.419 224.548,215.464 224.39,215.553 224.345,215.576 224.167,215.732 223.741,216.091 
	223.696,216.18 223.068,216.696 222.821,216.763 222.575,216.988 222.329,217.033 222.082,216.988 221.925,216.897 221.835,216.74 
	221.746,216.674 221.365,216.517 220.804,216.584 220.49,216.473 220.132,216.54 219.953,216.562 219.84,216.517 219.84,216.473 
	219.594,216.091 219.437,215.957 219.213,215.643 219.079,215.329 218.832,214.992 218.562,214.79 218.406,214.343 218.362,214.028 
	218.249,213.85 218.048,213.671 217.712,213.289 217.622,213.267 217.555,213.199 217.42,212.953 217.286,212.841 216.86,212.729 
	216.703,212.751 216.501,212.863 216.412,213.065 216.031,212.953 215.47,212.348 215.268,212.102 215.111,212.056 215.044,212.079 
	215,211.989 214.954,211.787 215.022,211.653 215.134,211.519 215.134,211.361 214.91,210.959 214.864,210.824 214.708,210.486 
	214.439,210.173 214.17,209.702 214.17,209.545 214.192,209.479 214.461,209.344 214.551,209.232 214.506,208.672 214.327,208.246 
	214.08,208.045 213.901,207.709 213.722,207.104 213.722,206.812 213.385,206.632 213.273,206.521 213.341,206.431 213.385,206.318 
	213.363,205.938 213.161,205.893 213.049,205.803 212.915,205.579 212.959,205.422 212.937,205.399 212.847,205.243 
	212.691,205.152 212.221,204.48 212.152,204.212 212.018,204.076 211.951,203.987 211.906,203.875 211.884,203.65 211.884,203.517 
	211.951,203.225 212.085,203.023 212.13,202.889 211.884,202.597 211.592,202.193 211.391,201.164 211.436,201.096 211.548,201.027 
	211.682,200.736 211.57,200.514 211.368,200.333 211.234,200.266 210.987,199.976 210.964,199.885 210.74,199.907 210.673,199.93 
	210.606,199.907 210.404,199.773 210.046,199.034 209.688,198.719 209.643,198.541 209.418,198.137 209.239,197.823 
	209.015,197.755 208.836,197.218 208.656,197.15 208.5,196.949 208.23,196.904 207.983,196.657 207.961,196.613 208.006,196.434 
	207.983,196.254 207.872,196.031 207.491,195.74 206.773,195.312 206.593,195.133 206.527,194.999 206.571,194.887 206.593,194.572 
	206.459,194.372 206.324,194.058 206.28,193.765 206.258,193.654 206.19,193.542 206.101,193.453 205.765,193.318 205.271,193.183 
	204.891,192.69 204.756,192.422 204.51,192.264 204.375,192.017 204.286,191.974 204.106,192.13 204.016,192.062 203.972,191.996 
	203.949,191.861 203.814,191.749 203.59,191.614 203.456,191.3 203.231,191.167 202.851,190.561 202.762,190.292 202.694,190.203 
	202.604,189.82 202.537,189.776 202.469,189.732 202.335,189.396 202.335,189.216 202.155,188.677 202.111,188.656 201.976,188.432 
	201.595,188.23 201.461,188.095 201.416,188.029 201.416,187.848 201.349,187.714 201.102,187.601 200.945,187.333 200.587,187.222 
	200.452,187.132 200.161,186.773 199.937,186.617 199.87,186.28 199.847,185.898 199.646,185.697 199.489,185.653 199.331,185.473 
	199.31,185.429 199.331,185.228 199.286,185.114 198.973,184.755 198.883,184.688 198.727,184.71 198.682,184.598 198.479,184.419 
	198.436,184.218 198.3,184.083 198.099,184.104 197.83,184.062 197.695,183.994 197.583,183.793 197.538,183.681 197.561,183.613 
	197.583,183.544 197.516,183.344 197.269,183.21 197.067,182.851 197.045,182.739 197.067,182.492 197.157,182.402 196.933,182.313 
	196.866,182.245 196.911,182.066 196.866,181.953 196.822,181.909 196.261,181.932 195.723,181.641 195.364,181.819 
	195.297,181.819 195.14,181.774 195.027,181.641 194.938,181.751 194.826,182.021 194.983,182.177 194.983,182.402 194.58,182.985 
	194.49,183.03 194.467,183.03 194.422,183.21 194.109,183.544 193.594,183.568 193.548,183.613 191.823,183.522 186.286,183.119 
	179.898,182.626 162.818,181.371 158.918,181.08 156.79,180.923 151.858,180.542 151.813,181.371 151.678,183.008 150.625,197.017 
	150.355,200.244 149.975,205.735 149.817,208.335 149.728,208.335 149.638,208.269 149.549,208.312 149.504,208.717 
	149.459,208.829 149.392,208.873 149.011,208.695 148.787,208.381 148.674,208.335 148.45,208.381 148.383,208.448 148.383,208.515 
	148.293,208.583 147.98,208.627 147.823,208.604 147.487,208.335 147.397,208.335 147.286,208.381 147.24,208.357 147.106,208.157 
	147.106,208.021 147.039,207.909 146.859,207.887 146.747,207.798 146.725,207.821 146.702,207.909 146.522,208.133 
	146.456,208.179 146.366,208.201 146.142,208.157 145.895,208.201 145.851,208.246 145.761,208.357 145.582,208.426 145.47,208.404 
	145.222,208.246 145.155,208.179 145.134,208.045 145.088,208.045 145.065,208.111 144.931,208.492 144.819,208.649 
	144.708,208.717 144.17,208.807 143.811,208.964 143.609,208.964 143.564,208.941 143.542,208.896 143.407,208.873 143.138,212.662 
	143.071,213.199 142.96,215.396 142.69,217.997 142.69,218.131 142.533,219.61 142.219,222.031 142.219,222.053 141.928,224.43 
	142.892,224.541 142.69,227.5 142.533,228.732 141.951,234.875 141.793,236.444 141.569,239.447 141.412,241.239 145.155,241.532 
	148.518,241.711 152.104,241.957 153.157,242.025 153.359,242.047 157.08,242.228 157.909,242.271 160.801,242.428 160.824,241.957 
	162.325,242.091 162.168,244.469 161.787,249.669 161.607,252.469 161.944,252.672 162.931,253.3 165.217,254.712 165.374,257.983 
	169.52,265.717 170.035,266.995 173.017,267.195 176.245,267.397 176.379,267.419 177.052,267.465 178.554,267.578 180.638,267.69 
	180.683,267.69 182.835,267.847 184.583,267.936 187.564,268.116 191.912,268.361 192.338,268.385 192.405,268.385 205.338,269.146 
	205.428,269.169 207.849,269.303 209.575,269.416 213.946,269.662 214.483,269.707 214.933,269.729 215.111,269.729 
	216.882,269.819 217.151,269.841 217.98,269.885 218.205,269.907 218.406,269.907 219.28,269.977 227.125,270.424 228.539,270.536 
	231.608,270.692 232.461,270.739 233.199,270.76 237.458,271.164 238.804,271.186 246.289,271.567 251.311,271.836 252.521,271.88 
	255.368,272.038 256.287,272.06 256.332,272.015 261.239,272.285 261.957,272.329 263.033,272.374 263.056,272.374 263.169,272.396 
	265.409,272.486 266.172,272.531 266.844,272.554 268.368,272.643 268.861,272.665 268.905,272.665 269.646,272.688 
	271.036,272.732 271.572,272.755 273.771,272.822 275.406,272.867 285.09,273.226 297.866,273.629 297.91,273.629 308.76,273.987 
	312.256,274.1 316.851,274.234 319.854,274.324 322.769,274.414 324.854,274.48 326.848,274.549 327.206,274.549 328.103,274.593 
	332.025,274.728 332.72,274.84 332.787,274.84 333.057,274.84 339.489,274.975 340.768,274.951 341.125,274.997 342.448,275.086 
	343.322,275.063 344.151,275.222 346.191,275.444 354.283,275.669 362.195,275.893 364.414,275.961 366.162,276.005 
	366.611,276.005 367.015,276.027 369.054,276.117 370.176,276.14 376.227,276.318 376.809,276.318 376.855,274.437 376.855,274.077 
	376.877,274.011 376.877,273.876 376.877,273.831 376.966,269.595 376.966,269.28 376.966,268.496 376.989,268.407 377.012,267.51 
	377.146,260.606 377.213,258.253 377.235,257.558 377.28,255.003 377.258,254.98 377.325,253.658 377.348,252.828 377.369,251.595 
	377.392,250.117 377.438,248.055 377.481,245.903 377.504,244.153 377.525,243.817 377.549,242.81 377.572,241.576 377.616,239.85 
	377.661,237.698 377.684,237.094 377.684,236.421 377.706,235.547 377.751,232.969 377.772,232.095 377.772,230.817 
	377.796,229.114 377.796,228.24 377.817,227.03 377.863,224.43 377.908,221.694 377.908,220.979 377.93,220.843 378.02,214.79 
	378.02,214.097 378.043,213.895 378.043,213.76 378.043,213.671 378.132,209.882 378.132,209.456 378.132,209.277 378.132,209.165 
	378.132,209.009 378.155,208.649 378.177,208.179 378.222,206.161 378.312,201.746 378.312,201.006 378.312,200.647 
	378.379,198.047 378.446,193.788 378.513,191.928 378.49,191.682 378.513,189.664 378.603,186.593 378.626,185.517 378.647,184.329 
	378.67,183.434 378.691,182.088 378.737,180.094 378.805,176.866 378.826,176.551 378.805,176.53 378.826,175.834 378.826,175.723 
	378.85,175.207 378.894,171.822 378.916,171.755 378.916,170.903 378.938,170.097 378.962,169.156 378.983,168.326 379.23,154.474 
	379.297,149.565 379.297,149.363 379.297,149.117 379.387,144.186 379.477,139.277 379.543,135.085 379.543,133.875 
	379.566,133.314 379.566,132.44 379.59,132.126 379.679,127.218 379.701,125.401 379.724,125.268 379.746,123.542 379.746,123.183 
	379.768,122.107 379.79,120.044 379.813,118.924 379.835,118.453 379.835,117.176 379.926,113.254 379.992,108.659 380.015,107.806 
	380.037,107.202 380.015,106.843 380.194,99.222 380.217,97.743 380.284,94.111 380.396,89.135 380.418,88.284 380.508,84.338 
	380.508,83.957 380.664,77.86 380.664,77.211 380.664,77.121 380.664,76.583 380.731,74.611 380.71,74.409 380.777,71.83 
	380.889,67.08 380.889,66.025 380.956,63.404 381.113,56.567 381.181,53.474 381.494,38.501 "/>
</svg>
